/* XPM */
static xpm_row_t const date7_xpm[] = {
"40 40 101 2",
"  	c None",
". 	c #FF0000",
"+ 	c #D60000",
"@ 	c #000000",
"# 	c #1C0000",
"$ 	c #FB0000",
"% 	c #6C0000",
"& 	c #B10000",
"* 	c #A10000",
"= 	c #AA0000",
"- 	c #D10000",
"; 	c #F30000",
"> 	c #B90000",
", 	c #5D0000",
"' 	c #7C0000",
") 	c #220000",
"! 	c #F60000",
"~ 	c #CD0000",
"{ 	c #E10000",
"] 	c #D50000",
"^ 	c #650000",
"/ 	c #880000",
"( 	c #960000",
"_ 	c #A20000",
": 	c #FD0000",
"< 	c #7A0000",
"[ 	c #B20000",
"} 	c #D90000",
"| 	c #F50000",
"1 	c #AD0000",
"2 	c #B30000",
"3 	c #9F0000",
"4 	c #A60000",
"5 	c #F20000",
"6 	c #320000",
"7 	c #6A0000",
"8 	c #FE0000",
"9 	c #C00000",
"0 	c #E40000",
"a 	c #F80000",
"b 	c #560000",
"c 	c #A50000",
"d 	c #CE0000",
"e 	c #FC0000",
"f 	c #980000",
"g 	c #8A0000",
"h 	c #2E0000",
"i 	c #9A0000",
"j 	c #E90000",
"k 	c #DE0000",
"l 	c #620000",
"m 	c #C70000",
"n 	c #EC0000",
"o 	c #530000",
"p 	c #6E0000",
"q 	c #380000",
"r 	c #FA0000",
"s 	c #930000",
"t 	c #750000",
"u 	c #BB0000",
"v 	c #9B0000",
"w 	c #D80000",
"x 	c #A80000",
"y 	c #EA0000",
"z 	c #510000",
"A 	c #ED0000",
"B 	c #970000",
"C 	c #600000",
"D 	c #EE0000",
"E 	c #D40000",
"F 	c #C40000",
"G 	c #5F0000",
"H 	c #160000",
"I 	c #BE0000",
"J 	c #E30000",
"K 	c #BA0000",
"L 	c #800000",
"M 	c #950000",
"N 	c #350000",
"O 	c #A90000",
"P 	c #E70000",
"Q 	c #D70000",
"R 	c #4D0000",
"S 	c #AF0000",
"T 	c #F10000",
"U 	c #D20000",
"V 	c #990000",
"W 	c #B40000",
"X 	c #E00000",
"Y 	c #F70000",
"Z 	c #C10000",
"` 	c #C60000",
" .	c #EB0000",
"..	c #B60000",
"+.	c #7E0000",
"@.	c #D30000",
"#.	c #CF0000",
"$.	c #F40000",
"%.	c #AE0000",
"&.	c #790000",
"*.	c #8F0000",
". . . . . . . . . . . . . . . . . . . . . . . . . . . . . . . . . . . . . . . . ",
". . . . . . . . . . . . . . . . . . . . . . . . . . . . . . . . . . . . . . . . ",
". . . . . . . . . . . . . . . . . . . . . . . . . . . . . . . . . . . . . . . . ",
". . . . . . . . . . . . . . . . . . . . . . . . . . . . . . . . . . . . . . . . ",
". . . . . . . . . . . . . . . . . . . . . . . . . . . . . . . . . . . . . . . . ",
". . . . . . . . . . . + @ @ @ @ @ @ @ @ @ @ @ @ @ @ @ @ @ @ # $ . . . . . . . . ",
". . . . . . . . . . . + @ @ @ @ @ @ @ @ @ @ @ @ @ @ @ @ @ @ % . & . . . . . . . ",
". . . . . . . . . . . + @ @ @ @ @ @ @ @ @ @ @ @ @ @ @ @ @ @ * . = . . . . . . . ",
". . . . . . . . . . . + @ @ @ @ @ @ @ @ @ @ @ @ @ @ @ @ @ @ - ; > . . . . . . . ",
". . . . . . . . . . . + , . . . . . . . . . . . . . . . ' ) ! ~ { . . . . . . . ",
". . . . . . . . . . . ] ^ . / @ @ @ @ @ @ @ @ @ @ @ @ @ @ ( . _ : . . . . . . . ",
". . . . . . . . . . . - < . = . . . . . . . . . . . . [ @ } | 1 . . . . . . . . ",
". . . . . . . . . . . 2 3 . 4 . . . . . . . . . . . 5 6 7 8 9 0 . . . . . . . . ",
". . . . . . . . a b @ @ - | c . . . . . . . . . . . ( @ d e f . . . . . . . . . ",
". . . . . . . . $ g h i j g k . . . . . . . . . . d @ l : m } . . . . . . . . . ",
". . . . . . . . . . n o p d . . . . . . . . . . n q @ d r s . . . . . . . . . . ",
". . . . . . . . . . . . . . . . . . . . . . . $ t @ p 8 u k . . . . . . . . . . ",
". . . . . . . . . . . . . . . . . . . . . . . = @ @ + ; v . . . . . . . . . . . ",
". . . . . . . . . . . . . . . . . . . . . . w @ @ ' . x y . . . . . . . . . . . ",
". . . . . . . . . . . . . . . . . . . . . | z @ @ ] A x . . . . . . . . . . . . ",
". . . . . . . . . . . . . . . . . . . . . B @ @ C 8 = D . . . . . . . . . . . . ",
". . . . . . . . . . . . . . . . . . . . E @ @ @ F ; 3 . . . . . . . . . . . . . ",
". . . . . . . . . . . . . . . . . . . $ G @ @ H | I J . . . . . . . . . . . . . ",
". . . . . . . . . . . . . . . . . . . K @ @ @ L . M . . . . . . . . . . . . . . ",
". . . . . . . . . . . . . . . . . . ! N @ @ @ I ; O . . . . . . . . . . . . . . ",
". . . . . . . . . . . . . . . . . . K @ @ @ @ P d Q . . . . . . . . . . . . . . ",
". . . . . . . . . . . . . . . . . $ R @ @ @ # e S T . . . . . . . . . . . . . . ",
". . . . . . . . . . . . . . . . . U @ @ @ @ % . f . . . . . . . . . . . . . . . ",
". . . . . . . . . . . . . . . . . V @ @ @ @ f . ( . . . . . . . . . . . . . . . ",
". . . . . . . . . . . . . . . . $ N @ @ @ @ W : v . . . . . . . . . . . . . . . ",
". . . . . . . . . . . . . . . . X @ @ @ @ @ I Y c . . . . . . . . . . . . . . . ",
". . . . . . . . . . . . . . . . Z @ @ @ @ @ ` T S . . . . . . . . . . . . . . . ",
". . . . . . . . . . . . . . . . 3 @ @ @ @ @ d  .... . . . . . . . . . . . . . . ",
". . . . . . . . . . . . . . . . +.@ @ @ @ @ @.A W . . . . . . . . . . . . . . . ",
". . . . . . . . . . . . . . . . ^ @ @ @ @ @ #.$.%.. . . . . . . . . . . . . . . ",
". . . . . . . . . . . . . . . . . . . . . . . r * . . . . . . . . . . . . . . . ",
". . . . . . . . . . . . . . . . . &.@ @ @ @ @ @ *.. . . . . . . . . . . . . . . ",
". . . . . . . . . . . . . . . . . . . . . . . . . . . . . . . . . . . . . . . . ",
". . . . . . . . . . . . . . . . . . . . . . . . . . . . . . . . . . . . . . . . ",
". . . . . . . . . . . . . . . . . . . . . . . . . . . . . . . . . . . . . . . . "};
