/* XPM */
static xpm_row_t const date3_xpm[] = {
"40 40 141 2",
"  	c None",
". 	c #FF0000",
"+ 	c #E40000",
"@ 	c #BC0000",
"# 	c #8C0000",
"$ 	c #660000",
"% 	c #490000",
"& 	c #220000",
"* 	c #470000",
"= 	c #6C0000",
"- 	c #9E0000",
"; 	c #CB0000",
"> 	c #F80000",
", 	c #E20000",
"' 	c #830000",
") 	c #000000",
"! 	c #350000",
"~ 	c #BB0000",
"{ 	c #FB0000",
"] 	c #EF0000",
"^ 	c #E70000",
"/ 	c #C90000",
"( 	c #7D0000",
"_ 	c #D30000",
": 	c #F30000",
"< 	c #FD0000",
"[ 	c #F70000",
"} 	c #DF0000",
"| 	c #A30000",
"1 	c #160000",
"2 	c #7F0000",
"3 	c #F60000",
"4 	c #BF0000",
"5 	c #E30000",
"6 	c #D10000",
"7 	c #AD0000",
"8 	c #FE0000",
"9 	c #DB0000",
"0 	c #880000",
"a 	c #4B0000",
"b 	c #450000",
"c 	c #780000",
"d 	c #C00000",
"e 	c #D70000",
"f 	c #840000",
"g 	c #FC0000",
"h 	c #980000",
"i 	c #F90000",
"j 	c #730000",
"k 	c #BE0000",
"l 	c #FA0000",
"m 	c #EA0000",
"n 	c #810000",
"o 	c #CE0000",
"p 	c #DC0000",
"q 	c #CA0000",
"r 	c #D40000",
"s 	c #BD0000",
"t 	c #B90000",
"u 	c #900000",
"v 	c #8B0000",
"w 	c #9C0000",
"x 	c #C20000",
"y 	c #C70000",
"z 	c #F10000",
"A 	c #5A0000",
"B 	c #9A0000",
"C 	c #A10000",
"D 	c #ED0000",
"E 	c #C40000",
"F 	c #530000",
"G 	c #A20000",
"H 	c #3B0000",
"I 	c #870000",
"J 	c #CC0000",
"K 	c #AE0000",
"L 	c #F20000",
"M 	c #B40000",
"N 	c #960000",
"O 	c #C50000",
"P 	c #750000",
"Q 	c #E50000",
"R 	c #F40000",
"S 	c #770000",
"T 	c #790000",
"U 	c #A60000",
"V 	c #F00000",
"W 	c #860000",
"X 	c #380000",
"Y 	c #EE0000",
"Z 	c #EB0000",
"` 	c #4D0000",
" .	c #0D0000",
"..	c #560000",
"+.	c #AA0000",
"@.	c #BA0000",
"#.	c #C60000",
"$.	c #E60000",
"%.	c #DD0000",
"&.	c #E90000",
"*.	c #2A0000",
"=.	c #7C0000",
"-.	c #510000",
";.	c #710000",
">.	c #260000",
",.	c #8F0000",
"'.	c #D00000",
").	c #320000",
"!.	c #F50000",
"~.	c #C30000",
"{.	c #B10000",
"].	c #400000",
"^.	c #B00000",
"/.	c #A00000",
"(.	c #E80000",
"_.	c #800000",
":.	c #C10000",
"<.	c #A80000",
"[.	c #6E0000",
"}.	c #D50000",
"|.	c #B70000",
"1.	c #CD0000",
"2.	c #D90000",
"3.	c #DA0000",
"4.	c #A40000",
"5.	c #A50000",
"6.	c #970000",
"7.	c #650000",
"8.	c #2E0000",
"9.	c #DE0000",
"0.	c #B50000",
"a.	c #550000",
"b.	c #AF0000",
"c.	c #620000",
"d.	c #6A0000",
"e.	c #9F0000",
"f.	c #5C0000",
"g.	c #600000",
"h.	c #D60000",
"i.	c #720000",
"j.	c #4F0000",
". . . . . . . . . . . . . . . . . . . . . . . . . . . . . . . . . . . . . . . . ",
". . . . . . . . . . . . . . . . . . . . . . . . . . . . . . . . . . . . . . . . ",
". . . . . . . . . . . . . . . . . . . . . . . . . . . . . . . . . . . . . . . . ",
". . . . . . . . . . . . . . + @ # $ % & * = - ; > . . . . . . . . . . . . . . . ",
". . . . . . . . . . . . , ' ) ) ) ) ) ) ) ) ) ) ! ~ { ] ^ . . . . . . . . . . . ",
". . . . . . . . . . . / & ) ) ( _ : < [ } | 1 ) ) ) 2 3 4 5 . . . . . . . . . . ",
". . . . . . . . . . 6 ) ) ) 7 8 9 0 a b c d e b ) ) ) f g h { . . . . . . . . . ",
". . . . . . . . . i a ) ) j 8 k 0 } [ l m k n ; ) ) ) ) o p q . . . . . . . . . ",
". . . . . . . . . r ) ) ) s l 2 g . . . . . [ t u ) ) ) v < w . . . . . . . . . ",
". . . . . . . . . x ) ) ) y z 7 . . . . . . . g s ) ) ) A . B . . . . . . . . . ",
". . . . . . . . . 6 ) ) ) | . C D . . . . . . . E ) ) ) F . G . . . . . . . . . ",
". . . . . . . . . 3 H ) ) & o 3 t z . . . . . . | ) ) ) I . C . . . . . . . . . ",
". . . . . . . . . . J ) ) ) ) ) h > K . . . . L H ) ) ) q ] M . . . . . . . . . ",
". . . . . . . . . . . G ) ) b N O P Q . . . R S ) ) ) T g U V . . . . . . . . . ",
". . . . . . . . . . . . p W X F C Y . { Z 4 ` ) ) ) j R E y . . . . . . . . . . ",
". . . . . . . . . . . . . . . . . =  .) ) ) ) ) ..s L +.d . . . . . . . . . . . ",
". . . . . . . . . . . . . . . . + ) ) ) ) ) ) @.8 #.| $.. . . . . . . . . . . . ",
". . . . . . . . . . . . . . . . 5 %.3 { &.M *.) =.o 8 . . . . . . . . . . . . . ",
". . . . . . . . . . . . . . . . . i 8 . . . &.-.) ) ;.&.. l . . . . . . . . . . ",
". . . . . . . . . . . . . . . . . C ` >.F ,.'.Q & ) ) ).} J !.. . . . . . . . . ",
". . . . . . . . . . . . . . . . . . . 8 i m ; ~.{.) ) ) ].] ^.< . . . . . . . . ",
". . . . . . . . . . . . . . . . . . . . . . . . : & ) ) ) /.(.x . . . . . . . . ",
". . . . . . . . . . . . . 8 . . . . . . . . . . . _.) ) ) >.> +.8 . . . . . . . ",
". . . . . . . . . . . < :.#.8 <.. . . . . . . . . 7 ) ) ) ) p q Q . . . . . . . ",
". . . . . . . . . i q [.) }.V |.. . . . . . . . . ~ ) ) ) ) q 9 r . . . . . . . ",
". . . . . . . . _ ].) ) ) %.Q y . . . . . . . . . @.) ) ) ) O %.1.. . . . . . . ",
". . . . . . . . 2.) ) ) ) e m x . . . . . . . . . +.) ) ) ) _ 1.3.. . . . . . . ",
". . . . . . . . > ).) ) ) #.l K . . . . . . . . . =.) ) ) ) &.4.D . . . . . . . ",
". . . . . . . . . 5.) ) ) 6.. K < . . . . . . . D  .) ) ) 7.> 2 . . . . . . . . ",
". . . . . . . . . D 8.) ) & Y m :.. . . . . . . h ) ) ) ) o 5.q . . . . . . . . ",
". . . . . . . . . . x ) ) ) S !.9.q 8 . . . . M ) ) ) ) 6.O ' 8 . . . . . . . . ",
". . . . . . . . . . . 0.) ) ) a.d + L g z 6 =.) ) ) ) 6.b.j !.. . . . . . . . . ",
". . . . . . . . . . . D b.c.) ) ) ) ) ) ) ) ) ) ) $ /.d.N 3 . . . . . . . . . . ",
". . . . . . . . . . . . $.e.`  .) ) ) ) ! ! f.g.c a.=.h.. . . . . . . . . . . . ",
". . . . . . . . . . . . . . ] O e.i...! >.j.= h d &.. . . . . . . . . . . . . . ",
". . . . . . . . . . . . . . . . . . . . . . . . . . . . . . . . . . . . . . . . ",
". . . . . . . . . . . . . . . . . . . . . . . . . . . . . . . . . . . . . . . . ",
". . . . . . . . . . . . . . . . . . . . . . . . . . . . . . . . . . . . . . . . ",
". . . . . . . . . . . . . . . . . . . . . . . . . . . . . . . . . . . . . . . . ",
". . . . . . . . . . . . . . . . . . . . . . . . . . . . . . . . . . . . . . . . "};
