/* XPM */
static xpm_row_t const datedot_xpm[] = {
"40 40 54 1",
" 	c None",
".	c #FF0000",
"+	c #D70000",
"@	c #710000",
"#	c #400000",
"$	c #910000",
"%	c #EF0000",
"&	c #E30000",
"*	c #160000",
"=	c #000000",
"-	c #690000",
";	c #FB0000",
">	c #D20000",
",	c #A80000",
"'	c #DD0000",
")	c #CB0000",
"!	c #F10000",
"~	c #EB0000",
"{	c #CD0000",
"]	c #E20000",
"^	c #0D0000",
"/	c #660000",
"(	c #E50000",
"_	c #CA0000",
":	c #D60000",
"<	c #700000",
"[	c #900000",
"}	c #EE0000",
"|	c #9B0000",
"1	c #ED0000",
"2	c #F70000",
"3	c #8F0000",
"4	c #B60000",
"5	c #FC0000",
"6	c #B90000",
"7	c #630000",
"8	c #260000",
"9	c #6A0000",
"0	c #E40000",
"a	c #C60000",
"b	c #F60000",
"c	c #E80000",
"d	c #D10000",
"e	c #C80000",
"f	c #A10000",
"g	c #E90000",
"h	c #F30000",
"i	c #F00000",
"j	c #E60000",
"k	c #940000",
"l	c #AD0000",
"m	c #5C0000",
"n	c #220000",
"o	c #C70000",
"........................................",
"........................................",
"........................................",
"........................................",
"........................................",
"........................................",
"........................................",
"........................................",
"..................+@#$%.................",
".................&*===-;>...............",
".................,=====')!..............",
".................,====='~{..............",
".................]^===/;(_..............",
"..................:<#[}.|1..............",
"..................~&2;(34...............",
"..................56789_................",
"........................................",
"........................................",
"........................................",
"........................................",
"........................................",
"........................................",
"........................................",
"........................................",
"........................................",
"..................+@#$%.................",
".................&*===-;0...............",
".................,====='ab..............",
".................,====='cd..............",
".................]^===/;ce..............",
"..................:<#[}.fg..............",
"..................hi;;jkl...............",
"..................blmn-o................",
"........................................",
"........................................",
"........................................",
"........................................",
"........................................",
"........................................",
"........................................"};
