/* XPM */
static xpm_row_t const dateslash_xpm[] = {
"40 40 111 2",
"  	c None",
". 	c #FF0000",
"+ 	c #F70000",
"@ 	c #4F0000",
"# 	c #0D0000",
"$ 	c #E50000",
"% 	c #DF0000",
"& 	c #C40000",
"* 	c #AA0000",
"= 	c #000000",
"- 	c #A80000",
"; 	c #FC0000",
"> 	c #970000",
", 	c #E60000",
"' 	c #160000",
") 	c #4D0000",
"! 	c #F60000",
"~ 	c #BE0000",
"{ 	c #FE0000",
"] 	c #7C0000",
"^ 	c #CD0000",
"/ 	c #F00000",
"( 	c #A60000",
"_ 	c #C90000",
": 	c #810000",
"< 	c #9F0000",
"[ 	c #F30000",
"} 	c #F50000",
"| 	c #470000",
"1 	c #1C0000",
"2 	c #E80000",
"3 	c #D70000",
"4 	c #C50000",
"5 	c #A30000",
"6 	c #AE0000",
"7 	c #FA0000",
"8 	c #940000",
"9 	c #E20000",
"0 	c #550000",
"a 	c #F80000",
"b 	c #B40000",
"c 	c #E30000",
"d 	c #FD0000",
"e 	c #730000",
"f 	c #D10000",
"g 	c #EA0000",
"h 	c #A90000",
"i 	c #880000",
"j 	c #950000",
"k 	c #400000",
"l 	c #260000",
"m 	c #EB0000",
"n 	c #CE0000",
"o 	c #CA0000",
"p 	c #9D0000",
"q 	c #910000",
"r 	c #DE0000",
"s 	c #5D0000",
"t 	c #6D0000",
"u 	c #D60000",
"v 	c #E40000",
"w 	c #AD0000",
"x 	c #900000",
"y 	c #8D0000",
"z 	c #350000",
"A 	c #2E0000",
"B 	c #EE0000",
"C 	c #960000",
"D 	c #BA0000",
"E 	c #DA0000",
"F 	c #650000",
"G 	c #FB0000",
"H 	c #E90000",
"I 	c #DD0000",
"J 	c #B10000",
"K 	c #B90000",
"L 	c #860000",
"M 	c #F90000",
"N 	c #380000",
"O 	c #F10000",
"P 	c #BB0000",
"Q 	c #D30000",
"R 	c #8F0000",
"S 	c #BF0000",
"T 	c #920000",
"U 	c #D50000",
"V 	c #EC0000",
"W 	c #5C0000",
"X 	c #D40000",
"Y 	c #B60000",
"Z 	c #9E0000",
"` 	c #800000",
" .	c #220000",
"..	c #AF0000",
"+.	c #870000",
"@.	c #750000",
"#.	c #EF0000",
"$.	c #CB0000",
"%.	c #A40000",
"&.	c #7D0000",
"*.	c #490000",
"=.	c #DB0000",
"-.	c #990000",
";.	c #CC0000",
">.	c #7E0000",
",.	c #C10000",
"'.	c #C00000",
").	c #A70000",
"!.	c #AB0000",
"~.	c #510000",
"{.	c #790000",
". . . . . . . . . . . . . . . . . . . . . . . . . . . . + @ # $ % & . . . . . . ",
". . . . . . . . . . . . . . . . . . . . . . . . . . . . * = - ; > ; . . . . . . ",
". . . . . . . . . . . . . . . . . . . . . . . . . . . , ' ) ! ~ % . . . . . . . ",
". . . . . . . . . . . . . . . . . . . . . . . . . . { ] = ^ / ( . . . . . . . . ",
". . . . . . . . . . . . . . . . . . . . . . . . . . _ = : . < [ . . . . . . . . ",
". . . . . . . . . . . . . . . . . . . . . . . . . } | 1 2 3 4 . . . . . . . . . ",
". . . . . . . . . . . . . . . . . . . . . . . . . 5 = 6 7 8 { . . . . . . . . . ",
". . . . . . . . . . . . . . . . . . . . . . . . 9 = 0 a b c . . . . . . . . . . ",
". . . . . . . . . . . . . . . . . . . . . . . d e = f g h . . . . . . . . . . . ",
". . . . . . . . . . . . . . . . . . . . . . . & = i . j ! . . . . . . . . . . . ",
". . . . . . . . . . . . . . . . . . . . . . [ k l m n o . . . . . . . . . . . . ",
". . . . . . . . . . . . . . . . . . . . . . p = b + q { . . . . . . . . . . . . ",
". . . . . . . . . . . . . . . . . . . . . r = s 7 * , . . . . . . . . . . . . . ",
". . . . . . . . . . . . . . . . . . . . ; t = u v w . . . . . . . . . . . . . . ",
". . . . . . . . . . . . . . . . . . . . ~ = x d y + . . . . . . . . . . . . . . ",
". . . . . . . . . . . . . . . . . . . / z A B 4 n . . . . . . . . . . . . . . . ",
". . . . . . . . . . . . . . . . . . . C = D [ x . . . . . . . . . . . . . . . . ",
". . . . . . . . . . . . . . . . . . E = F G < H . . . . . . . . . . . . . . . . ",
". . . . . . . . . . . . . . . . . G F = E I J . . . . . . . . . . . . . . . . . ",
". . . . . . . . . . . . . . . . . K = > G L M . . . . . . . . . . . . . . . . . ",
". . . . . . . . . . . . . . . . B A N O P Q . . . . . . . . . . . . . . . . . . ",
". . . . . . . . . . . . . . . . R = S B T . . . . . . . . . . . . . . . . . . . ",
". . . . . . . . . . . . . . . U = t ; 8 V . . . . . . . . . . . . . . . . . . . ",
". . . . . . . . . . . . . . 7 W = % X Y . . . . . . . . . . . . . . . . . . . . ",
". . . . . . . . . . . . . . b = Z M ` 7 . . . . . . . . . . . . . . . . . . . . ",
". . . . . . . . . . . . . m  .k [ ..3 . . . . . . . . . . . . . . . . . . . . . ",
". . . . . . . . . . . . . +.= 4 H 8 . . . . . . . . . . . . . . . . . . . . . . ",
". . . . . . . . . . . . f = @.; i #.. . . . . . . . . . . . . . . . . . . . . . ",
". . . . . . . . . . . a 0 # c $.P . . . . . . . . . . . . . . . . . . . . . . . ",
". . . . . . . . . . . w = %.! &.G . . . . . . . . . . . . . . . . . . . . . . . ",
". . . . . . . . . . 2 ' *.! %.=.. . . . . . . . . . . . . . . . . . . . . . . . ",
". . . . . . . . . . ` = o 9 -.. . . . . . . . . . . . . . . . . . . . . . . . . ",
". . . . . . . . . ;.= ] ; >.O . . . . . . . . . . . . . . . . . . . . . . . . . ",
". . . . . . . . ! ) ' , ,.'.. . . . . . . . . . . . . . . . . . . . . . . . . . ",
". . . . . . . . ).= !.O ] ; . . . . . . . . . . . . . . . . . . . . . . . . . . ",
". . . . . . . $ # ~.+ > % . . . . . . . . . . . . . . . . . . . . . . . . . . . ",
". . . . . . { {.= n E < . . . . . . . . . . . . . . . . . . . . . . . . . . . . ",
". . . . . . . . . G @.[ . . . . . . . . . . . . . . . . . . . . . . . . . . . . ",
". . . . . . . w = = 4 . . . . . . . . . . . . . . . . . . . . . . . . . . . . . ",
". . . . . . . . . . . . . . . . . . . . . . . . . . . . . . . . . . . . . . . . "};
