/* XPM */
static xpm_row_t const date5_xpm[] = {
"40 40 139 2",
"  	c None",
". 	c #FF0000",
"+ 	c #D80000",
"@ 	c #3D0000",
"# 	c #960000",
"$ 	c #F80000",
"% 	c #F90000",
"& 	c #D60000",
"* 	c #260000",
"= 	c #000000",
"- 	c #A70000",
"; 	c #E70000",
"> 	c #FC0000",
", 	c #FB0000",
"' 	c #EF0000",
") 	c #A30000",
"! 	c #530000",
"~ 	c #D70000",
"{ 	c #C30000",
"] 	c #650000",
"^ 	c #FD0000",
"/ 	c #C10000",
"( 	c #B90000",
"_ 	c #E20000",
": 	c #CC0000",
"< 	c #A50000",
"[ 	c #8D0000",
"} 	c #F40000",
"| 	c #450000",
"1 	c #6C0000",
"2 	c #910000",
"3 	c #BB0000",
"4 	c #EB0000",
"5 	c #950000",
"6 	c #CA0000",
"7 	c #9E0000",
"8 	c #ED0000",
"9 	c #E10000",
"0 	c #B70000",
"a 	c #780000",
"b 	c #D40000",
"c 	c #380000",
"d 	c #630000",
"e 	c #970000",
"f 	c #CD0000",
"g 	c #980000",
"h 	c #9B0000",
"i 	c #700000",
"j 	c #4D0000",
"k 	c #510000",
"l 	c #710000",
"m 	c #A20000",
"n 	c #F70000",
"o 	c #9D0000",
"p 	c #BF0000",
"q 	c #400000",
"r 	c #B50000",
"s 	c #FA0000",
"t 	c #220000",
"u 	c #840000",
"v 	c #CE0000",
"w 	c #EC0000",
"x 	c #C40000",
"y 	c #5D0000",
"z 	c #6E0000",
"A 	c #DE0000",
"B 	c #F50000",
"C 	c #7C0000",
"D 	c #730000",
"E 	c #B80000",
"F 	c #4F0000",
"G 	c #BD0000",
"H 	c #C70000",
"I 	c #DA0000",
"J 	c #6A0000",
"K 	c #BE0000",
"L 	c #EA0000",
"M 	c #C50000",
"N 	c #7D0000",
"O 	c #E40000",
"P 	c #6D0000",
"Q 	c #F30000",
"R 	c #B60000",
"S 	c #FE0000",
"T 	c #DF0000",
"U 	c #DC0000",
"V 	c #8F0000",
"W 	c #B40000",
"X 	c #C80000",
"Y 	c #E50000",
"Z 	c #CB0000",
"` 	c #720000",
" .	c #AC0000",
"..	c #D90000",
"+.	c #D10000",
"@.	c #B30000",
"#.	c #DB0000",
"$.	c #D20000",
"%.	c #A60000",
"&.	c #9F0000",
"*.	c #2E0000",
"=.	c #F20000",
"-.	c #C90000",
";.	c #B20000",
">.	c #BA0000",
",.	c #5A0000",
"'.	c #C20000",
").	c #E80000",
"!.	c #490000",
"~.	c #0D0000",
"{.	c #F60000",
"].	c #2A0000",
"^.	c #4B0000",
"/.	c #8A0000",
"(.	c #E90000",
"_.	c #8C0000",
":.	c #E30000",
"<.	c #160000",
"[.	c #760000",
"}.	c #B00000",
"|.	c #EE0000",
"1.	c #680000",
"2.	c #A10000",
"3.	c #A90000",
"4.	c #E00000",
"5.	c #350000",
"6.	c #C00000",
"7.	c #660000",
"8.	c #470000",
"9.	c #1C0000",
"0.	c #420000",
"a.	c #620000",
"b.	c #820000",
"c.	c #B10000",
"d.	c #890000",
"e.	c #690000",
"f.	c #D50000",
"g.	c #770000",
"h.	c #860000",
". . . . . . . . . . . . . . . . . . . . . . . . . . . . . . . . . . . . . . . . ",
". . . . . . . . . . . . . . . . . . . . . . . . . . . . . . . . . . . . . . . . ",
". . . . . . . . . . . . . . . . . . . . . . . . . + @ # $ % . . . . . . . . . . ",
". . . . . . . . . . . . . . . . . . . . . . . . . & * = - ; > . . . . . . . . . ",
". . . . . . . . . . . . . . . . . . . . . . . . . , ' ) ! % ~ . . . . . . . . . ",
". . . . . . . . . . { = = = = = = = = = = = = = = = = = ] ^ / . . . . . . . . . ",
". . . . . . . . . . { = = = = = = = = = = = = = = = = = ( _ : . . . . . . . . . ",
". . . . . . . . . . { = = = = = = = = = = = = = = = = < , [ } . . . . . . . . . ",
". . . . . . . . . . { = = = = = = = = = = * | 1 2 3 4 % 5 6 . . . . . . . . . . ",
". . . . . . . . . . { = 7 . . . . . . . . . . $ 8 9 0 a b . . . . . . . . . . . ",
". . . . . . . . . . { = 7 , = = = = = = = = = c d e f % . . . . . . . . . . . . ",
". . . . . . . . . . { = 7 , - . . . . . . . . . . . . . . . . . . . . . . . . . ",
". . . . . . . . . . { = 7 , - . . . . . . . . . . . . . . . . . . . . . . . . . ",
". . . . . . . . . . { = 7 , - . . . . . . . . . . . . . . . . . . . . . . . . . ",
". . . . . . . . . . { = 7 , - . . . . . . . . . . . . . . . . . . . . . . . . . ",
". . . . . . . . . . { = 7 , g f h i j * k l m f n . . . . . . . . . . . . . . . ",
". . . . . . . . . . { = o p = = = = = = = = = = q r s . . . . . . . . . . . . . ",
". . . . . . . . . . { = t = = u v w s % 4 x y = = = z 4 A s . . . . . . . . . . ",
". . . . . . . . . . { = = | b B p C j @ D E ' g = = = F w G , . . . . . . . . . ",
". . . . . . . . . . H = | 4 I J K L % , 8 M N O C = = = P Q R . . . . . . . . . ",
". . . . . . . . . . S 6 T U V B . . . . . . , W + = = = = { X Y . . . . . . . . ",
". . . . . . . . . . . . . Z > . . . . . . . . . L ` = = = k , ) . . . . . . . . ",
". . . . . . . . . . . . . . . . . . . . . . . . .  .= = = = Y ) $ . . . . . . . ",
". . . . . . . . . . . . . . . . . . . . . . . . . H = = = = { f ... . . . . . . ",
". . . . . . . . . . . . . . . . . . . . . . . . . +.= = = = @.#./ . . . . . . . ",
". . . . . . . . . . . . ~ , s . . . . . . . . . . $.= = = = %.; r . . . . . . . ",
". . . . . . . . . . } &.*.. r =.. . . . . . . . . -.= = = = ;._ >.. . . . . . . ",
". . . . . . . . s K @ = ,.. o . . . . . . . . . . r = = = = '.& X . . . . . . . ",
". . . . . . . ).F = = = !.. m . . . . . . . . . . [ = = = = _ K + . . . . . . . ",
". . . . . . . Q = = = = ~.{.( Q . . . . . . . . {.].= = = ^.S /.$ . . . . . . . ",
". . . . . . . . /.= = = = $.(.{ . . . . . . . . p = = = = p =._.. . . . . . . . ",
". . . . . . . . :.<.= = = [.> }.4 . . . . . . |.c = = = 1., < #.. . . . . . . . ",
". . . . . . . . . K = = = = 2.% 3.#.. . . . |.d = = = ! |.4._.. . . . . . . . . ",
". . . . . . . . . . { <.= = = i : Z X % ).R 5.= = = a 8 w D Q . . . . . . . . . ",
". . . . . . . . . . . ; /.= = = = = = = = = = = ,.6.> + J (.. . . . . . . . . . ",
". . . . . . . . . . . . > 8 K # 7.8.9.0.a.u ;.+ ^ 4 ) b.=.. . . . . . . . . . . ",
". . . . . . . . . . . . % f c.6 _ =.s S $ ' 4.G d.e.Z ^ . . . . . . . . . . . . ",
". . . . . . . . . . . . . . , f.- g.^.t | 7.h.E T S . . . . . . . . . . . . . . ",
". . . . . . . . . . . . . . . . . . . . . . . . . . . . . . . . . . . . . . . . ",
". . . . . . . . . . . . . . . . . . . . . . . . . . . . . . . . . . . . . . . . "};
