/* XPM */
static xpm_row_t const date1_xpm[] = {
"40 40 54 1",
" 	c None",
".	c #FF0000",
"+	c #F70000",
"@	c #510000",
"#	c #000000",
"$	c #F20000",
"%	c #FE0000",
"&	c #A70000",
"*	c #AE0000",
"=	c #B20000",
"-	c #A40000",
";	c #CD0000",
">	c #380000",
",	c #D00000",
"'	c #FA0000",
")	c #DC0000",
"!	c #850000",
"~	c #B60000",
"{	c #550000",
"]	c #F50000",
"^	c #A00000",
"/	c #4B0000",
"(	c #2E0000",
"_	c #730000",
":	c #BF0000",
"<	c #E80000",
"[	c #B40000",
"}	c #D90000",
"|	c #F90000",
"1	c #F80000",
"2	c #E30000",
"3	c #990000",
"4	c #AB0000",
"5	c #4F0000",
"6	c #3B0000",
"7	c #950000",
"8	c #D50000",
"9	c #ED0000",
"0	c #DF0000",
"a	c #E70000",
"b	c #AC0000",
"c	c #F30000",
"d	c #D60000",
"e	c #3D0000",
"f	c #D80000",
"g	c #FB0000",
"h	c #B90000",
"i	c #0D0000",
"j	c #260000",
"k	c #BB0000",
"l	c #EB0000",
"m	c #CC0000",
"n	c #AF0000",
"o	c #160000",
"........................................",
"........................................",
"........................................",
"..................+@##$%................",
"..................&###$*................",
".................=####$-................",
"...........;>,')!#####$-................",
"...........~#####{####$-................",
"...........]^/(_:<####$-................",
"............[}|123####$-................",
"............'45678####$-................",
".................9####$-................",
".................9####$-................",
".................9####$-................",
".................9####$-................",
".................9####$-................",
".................9####$-................",
".................9####$-................",
".................9####$-................",
".................9####$-................",
".................9####$-................",
".................9####$-................",
".................9####$-................",
".................9####$-................",
".................9####$-................",
".................9####$-................",
".................9####$-................",
".................9####$-................",
".................9####$-................",
".................9####$-................",
".................0####abc...............",
"................de####/f&g..............",
"..............%hi######jk~..............",
".........................lm.............",
"...............n##########o)............",
"........................................",
"........................................",
"........................................",
"........................................",
"........................................"};
