/* XPM */
static xpm_row_t const date2_xpm[] = {
"40 40 135 2",
"  	c None",
". 	c #FF0000",
"+ 	c #F20000",
"@ 	c #C00000",
"# 	c #920000",
"$ 	c #600000",
"% 	c #3D0000",
"& 	c #2E0000",
"* 	c #5A0000",
"= 	c #7E0000",
"- 	c #B00000",
"; 	c #DC0000",
"> 	c #F60000",
", 	c #A30000",
"' 	c #1C0000",
") 	c #000000",
"! 	c #6A0000",
"~ 	c #D20000",
"{ 	c #EC0000",
"] 	c #FD0000",
"^ 	c #E80000",
"/ 	c #530000",
"( 	c #2A0000",
"_ 	c #AD0000",
": 	c #E30000",
"< 	c #F80000",
"[ 	c #F40000",
"} 	c #D90000",
"| 	c #960000",
"1 	c #990000",
"2 	c #F30000",
"3 	c #EF0000",
"4 	c #ED0000",
"5 	c #470000",
"6 	c #F90000",
"7 	c #B70000",
"8 	c #8C0000",
"9 	c #D50000",
"0 	c #D60000",
"a 	c #830000",
"b 	c #F50000",
"c 	c #9B0000",
"d 	c #F10000",
"e 	c #840000",
"f 	c #E10000",
"g 	c #750000",
"h 	c #AA0000",
"i 	c #FA0000",
"j 	c #E20000",
"k 	c #A00000",
"l 	c #C50000",
"m 	c #9F0000",
"n 	c #EE0000",
"o 	c #E40000",
"p 	c #810000",
"q 	c #A70000",
"r 	c #D70000",
"s 	c #B90000",
"t 	c #5F0000",
"u 	c #DE0000",
"v 	c #B60000",
"w 	c #DD0000",
"x 	c #AE0000",
"y 	c #A20000",
"z 	c #9D0000",
"A 	c #A50000",
"B 	c #AF0000",
"C 	c #4F0000",
"D 	c #8D0000",
"E 	c #B40000",
"F 	c #C20000",
"G 	c #FB0000",
"H 	c #BB0000",
"I 	c #BF0000",
"J 	c #EA0000",
"K 	c #B30000",
"L 	c #FC0000",
"M 	c #970000",
"N 	c #0D0000",
"O 	c #350000",
"P 	c #C70000",
"Q 	c #DA0000",
"R 	c #D40000",
"S 	c #580000",
"T 	c #E60000",
"U 	c #870000",
"V 	c #620000",
"W 	c #980000",
"X 	c #7F0000",
"Y 	c #220000",
"Z 	c #AC0000",
"` 	c #9C0000",
" .	c #560000",
"..	c #CA0000",
"+.	c #D10000",
"@.	c #C10000",
"#.	c #940000",
"$.	c #510000",
"%.	c #5D0000",
"&.	c #9E0000",
"*.	c #BC0000",
"=.	c #E70000",
"-.	c #B20000",
";.	c #890000",
">.	c #630000",
",.	c #900000",
"'.	c #CE0000",
").	c #FE0000",
"!.	c #C90000",
"~.	c #790000",
"{.	c #3B0000",
"].	c #C60000",
"^.	c #E50000",
"/.	c #AB0000",
"(.	c #C40000",
"_.	c #850000",
":.	c #BE0000",
"<.	c #B10000",
"[.	c #7D0000",
"}.	c #160000",
"|.	c #490000",
"1.	c #880000",
"2.	c #B50000",
"3.	c #D00000",
"4.	c #380000",
"5.	c #CB0000",
"6.	c #550000",
"7.	c #9A0000",
"8.	c #950000",
"9.	c #650000",
"0.	c #320000",
"a.	c #CF0000",
"b.	c #C30000",
"c.	c #CD0000",
"d.	c #770000",
". . . . . . . . . . . . . . . . . . . . . . . . . . . . . . . . . . . . . . . . ",
". . . . . . . . . . . . . . . . . . . . . . . . . . . . . . . . . . . . . . . . ",
". . . . . . . . . . . . . . . . . . . . . . . . . . . . . . . . . . . . . . . . ",
". . . . . . . . . . . . . . + @ # $ % & * = - ; . . . . . . . . . . . . . . . . ",
". . . . . . . . . . . . > , ' ) ) ) ) ) ) ) ) ) ! ~ . { ] . . . . . . . . . . . ",
". . . . . . . . . . . ^ / ) ) ( _ : < ] [ } | ) ) ) 1 2 - 3 . . . . . . . . . . ",
". . . . . . . . . . 4 5 ) ) / ^ 6 7 ! ( 5 8 9 0 ( ) ) a b c d . . . . . . . . . ",
". . . . . . . . . . e ) ) ) f > g h ^ i 6 j , k l ) ) ) m n # . . . . . . . . . ",
". . . . . . . . . o ) ) ) p . q r . . . . . . 0 s t ) ) ) u v w . . . . . . . . ",
". . . . . . . . . s ) ) ) x . 1 . . . . . . . . @ y ) ) ) z { A . . . . . . . . ",
". . . . . . . . . y ) ) ) B . B . . . . . . . . i A ) ) ) C . D . . . . . . . . ",
". . . . . . . . . k ) ) ) = . E . . . . . . . . . F ) ) ) ) G 8 . . . . . . . . ",
". . . . . . . . . H ) ) ) ) } 4 I ] . 3 J . . . . K ) ) ) ) L M . . . . . . . . ",
". . . . . . . . . J N ) ) ) O P J Q R S T : . . . U ) ) ) V . W . . . . . . . . ",
". . . . . . . . . . h ) ) ) ) ) ) ) ) X G E . . > Y ) ) ) Z ] ` . . . . . . . . ",
". . . . . . . . . . L ` ) ) ) ) ) )  .n ..^ . . E ) ) ) ' 4 ; ... . . . . . . . ",
". . . . . . . . . . . +.@.#.$.Y %.Z [ T Z . . ^ & ) ) ) v . &.i . . . . . . . . ",
". . . . . . . . . . . L m *.n L i =.-.;.6 . 2 >.) ) ) ,.] ~ '.. . . . . . . . . ",
". . . . . . . . . . . . ).!.~.{.% = ].] . ^ V ) ) ) ,.i ^./.. . . . . . . . . . ",
". . . . . . . . . . . . . . . . . . . . (.& ) ) ) B ] u , L . . . . . . . . . . ",
". . . . . . . . . . . . . . . . . . 4 _.) ) ) $ ; ).:.<.).. . . . . . . . . . . ",
". . . . . . . . . . . . . . . . ] I ( ) ) O s G T #.r . . . . . . . . . . . . . ",
". . . . . . . . . . . . . . . 3 [.) ) }.A 2 + q - < . . . . . . . . . . . . . . ",
". . . . . . . . . . . . . . ; |.) ) 1.J < 2.m n . . . . . . . . . . . . . . . . ",
". . . . . . . . . . . . . 3.Y ) 4.5.).+.,.j . . . . . . . . . . . . . . . . . . ",
". . . . . . . . . . . . ~ N ) 6.=.b 7.P ).. . . . . . . . . . . . . . . . . . . ",
". . . . . . . . . . . o ( ) $.n =.8.3 . . . . . . . . . . . . . . . . . . . . . ",
". . . . . . . . . . 6 9.) 0.o ^ m G . . . . . . . . . . . 2 K u a.. . . . . . . ",
". . . . . . . . . . 7 ) ) b.2 W G . . . . . . . . . . . ).z - u a.. . . . . . . ",
". . . . . . . . . > 4.) X ).1 4 . . . . . . . ] i + ^.c.e ) - u a.. . . . . . . ",
". . . . . . . . . F ) ) ) ) ) ) ) ) ) ) ) ) ) ) ) ) ) ) ) ) - u a.. . . . . . . ",
". . . . . . . . . d.) ) ) ) ) ) ) ) ) ) ) ) ) ) ) ) ) ) ) ) - u a.. . . . . . . ",
". . . . . . . . [ ) ) ) ) ) ) ) ) ) ) ) ) ) ) ) ) ) ) ) ) ) - u a.. . . . . . . ",
". . . . . . . . . . . . . . . . . . . . . . . . . . . . . . . u a.. . . . . . . ",
". . . . . . . . . . { ) ) ) ) ) ) ) ) ) ) ) ) ) ) ) ) ) ) ) ) ) a.. . . . . . . ",
". . . . . . . . . . . . . . . . . . . . . . . . . . . . . . . . . . . . . . . . ",
". . . . . . . . . . . . . . . . . . . . . . . . . . . . . . . . . . . . . . . . ",
". . . . . . . . . . . . . . . . . . . . . . . . . . . . . . . . . . . . . . . . ",
". . . . . . . . . . . . . . . . . . . . . . . . . . . . . . . . . . . . . . . . ",
". . . . . . . . . . . . . . . . . . . . . . . . . . . . . . . . . . . . . . . . "};
