/* XPM */
static xpm_row_t const date9_xpm[] = {
"40 40 139 2",
"  	c None",
". 	c #FF0000",
"+ 	c #EF0000",
"@ 	c #C00000",
"# 	c #870000",
"$ 	c #5D0000",
"% 	c #2A0000",
"& 	c #3B0000",
"* 	c #700000",
"= 	c #A40000",
"- 	c #DA0000",
"; 	c #FE0000",
"> 	c #F80000",
", 	c #AE0000",
"' 	c #260000",
") 	c #000000",
"! 	c #720000",
"~ 	c #E30000",
"{ 	c #F20000",
"] 	c #F00000",
"^ 	c #710000",
"/ 	c #660000",
"( 	c #CD0000",
"_ 	c #FD0000",
": 	c #F40000",
"< 	c #D10000",
"[ 	c #790000",
"} 	c #1C0000",
"| 	c #C80000",
"1 	c #E80000",
"2 	c #D90000",
"3 	c #F50000",
"4 	c #8B0000",
"5 	c #FB0000",
"6 	c #EA0000",
"7 	c #980000",
"8 	c #4B0000",
"9 	c #420000",
"0 	c #810000",
"a 	c #D00000",
"b 	c #B10000",
"c 	c #C90000",
"d 	c #EE0000",
"e 	c #CB0000",
"f 	c #850000",
"g 	c #560000",
"h 	c #E50000",
"i 	c #6C0000",
"j 	c #D20000",
"k 	c #F60000",
"l 	c #EC0000",
"m 	c #BE0000",
"n 	c #B00000",
"o 	c #E70000",
"p 	c #C70000",
"q 	c #800000",
"r 	c #6A0000",
"s 	c #0D0000",
"t 	c #D30000",
"u 	c #CA0000",
"v 	c #AF0000",
"w 	c #6D0000",
"x 	c #ED0000",
"y 	c #FC0000",
"z 	c #320000",
"A 	c #750000",
"B 	c #B40000",
"C 	c #C50000",
"D 	c #900000",
"E 	c #940000",
"F 	c #840000",
"G 	c #E60000",
"H 	c #B20000",
"I 	c #9B0000",
"J 	c #960000",
"K 	c #AD0000",
"L 	c #BB0000",
"M 	c #9F0000",
"N 	c #A30000",
"O 	c #930000",
"P 	c #990000",
"Q 	c #910000",
"R 	c #AA0000",
"S 	c #770000",
"T 	c #9C0000",
"U 	c #4F0000",
"V 	c #F90000",
"W 	c #FA0000",
"X 	c #A80000",
"Y 	c #C20000",
"Z 	c #E90000",
"` 	c #DE0000",
" .	c #D40000",
"..	c #4D0000",
"+.	c #5C0000",
"@.	c #B30000",
"#.	c #AC0000",
"$.	c #CE0000",
"%.	c #DF0000",
"&.	c #2E0000",
"*.	c #3D0000",
"=.	c #5A0000",
"-.	c #830000",
";.	c #F30000",
">.	c #9D0000",
",.	c #BC0000",
"'.	c #B60000",
").	c #A20000",
"!.	c #CF0000",
"~.	c #A10000",
"{.	c #E00000",
"].	c #F70000",
"^.	c #B50000",
"/.	c #7A0000",
"(.	c #220000",
"_.	c #820000",
":.	c #BA0000",
"<.	c #A70000",
"[.	c #950000",
"}.	c #D60000",
"|.	c #A00000",
"1.	c #BD0000",
"2.	c #8F0000",
"3.	c #600000",
"4.	c #470000",
"5.	c #B90000",
"6.	c #580000",
"7.	c #BF0000",
"8.	c #160000",
"9.	c #920000",
"0.	c #C60000",
"a.	c #C40000",
"b.	c #B80000",
"c.	c #E20000",
"d.	c #7F0000",
"e.	c #D80000",
"f.	c #E10000",
"g.	c #EB0000",
"h.	c #6E0000",
". . . . . . . . . . . . . . . . . . . . . . . . . . . . . . . . . . . . . . . . ",
". . . . . . . . . . . . . . . . + @ # $ % & * = - ; . . . . . . . . . . . . . . ",
". . . . . . . . . . . . . . > , ' ) ) ) ) ) ) ) ) ! ~ { ] . . . . . . . . . . . ",
". . . . . . . . . . . . . ] ^ ) ) / ( { _ : < [ ) ) } | 1 2 . . . . . . . . . . ",
". . . . . . . . . . . . 3 $ ) ) 4 5 6 7 8 9 0 a b ) ) ) c d e . . . . . . . . . ",
". . . . . . . . . . . ; f ) ) g > h i j k 5 l m = n ) ) } o ~ < . . . . . . . . ",
". . . . . . . . . . . a ) ) ) p _ q ] . . . . . k < [ ) ) [ ; m { . . . . . . . ",
". . . . . . . . . . . r ) ) s k - m . . . . . . . _ t ) ) ) u > v . . . . . . . ",
". . . . . . . . . . 6 ) ) ) w . , x . . . . . . . . y z ) ) A . B : . . . . . . ",
". . . . . . . . . . C ) ) ) D . E ; . . . . . . . . . F ) ) ) h G C . . . . . . ",
". . . . . . . . . . H ) ) ) I . J . . . . . . . . . . K ) ) ) L ; M . . . . . . ",
". . . . . . . . . . N ) ) ) O . P . . . . . . . . . . @ ) ) ) Q . M . . . . . . ",
". . . . . . . . . . R ) ) ) S . T . . . . . . . . . . a ) ) ) U . K k . . . . . ",
". . . . . . . . . . L ) ) ) } V R W . . . . . . . . ^ X ) ) ) ) _ Y Z . . . . . ",
". . . . . . . . . . ` ) ) ) ) e  .- . . . . . . . l ) O ) ) ) ) k u ~ . . . . . ",
". . . . . . . . . . y ..) ) ) +.: R . . . . . . . @.) #.) ) ) ) d a ` . . . . . ",
". . . . . . . . . . . Y ) ) ) ) # $.- . . . . . %.&.*.a ) ) ) ) + u ~ . . . . . ",
". . . . . . . . . . . y q ) ) ) ) =.-.| 5 k G , z ) @ a ) ) ) ) k Y Z . . . . . ",
". . . . . . . . . . . . ;.^ ) ) ) ) ) ) ) ) ) ) ) >.; ,.) ) ) s _ '.3 . . . . . ",
". . . . . . . . . . . . . > ).s ) ) ) ) ) ) ) ' ,.; !.} ) ) ) / . ~.. . . . . . ",
". . . . . . . . . . . . . {.].6 ^./.U (..._.:.{ 3 <.<.* ) ) ) [.. M . . . . . . ",
". . . . . . . . . . . . . . $.'.}.+ > _ k l  .|.i e W } ) ) ) 1.].@.. . . . . . ",
". . . . . . . . . . . . . . . k c 2.3.&.4.w M < W . {.) ) ) ) o < - . . . . . . ",
". . . . . . . . . . . . . . . . . . . . . . . . . . 5.) ) ) 6.. X y . . . . . . ",
". . . . . . . . . . . . . . . . . . . . . . . . . . / ) ) ) '.].v . . . . . . . ",
". . . . . . . . . . . . . . . . . . . . . . . . . h ) ) ) (.;.7.l . . . . . . . ",
". . . . . . . . . . . . . . . . . . . . . . . . . ~.) ) ) = 5 K . . . . . . . . ",
". . . . . . . . . . . . . . . . . . . . . . . . 6 8.) ) 9 : m ] . . . . . . . . ",
". . . . . . . . . . . . . . . . . . . . . . . . 9.) ) ) 0.d a.. . . . . . . . . ",
". . . . . . . . . . . . . . . . . . . . . . . p ) ) ) J 5 b.; . . . . . . . . . ",
". . . . . . . . . . . . . . . . . . . . . . h % ) ) w > Y 3 . . . . . . . . . . ",
". . . . . . . . . . . . . . . . . . . . . c.4.) ) * : ( + . . . . . . . . . . . ",
". . . . . . . . . . . . . . . . . . . . t z ) ) d.3 $.d . . . . . . . . . . . . ",
". . . . . . . . . . . . . . . . . . + Q ) ) ) H ].e ;.. . . . . . . . . . . . . ",
". . . . . . . . . . . . . . . y e.J (.) ) /.f.6 a _ . . . . . . . . . . . . . . ",
". . . . . . . . . . . . j <./.% ) ) ) F j ;. .g.. . . . . . . . . . . . . . . . ",
". . . . . . . . . . . . A (.U h.I C x Z %.Z . . . . . . . . . . . . . . . . . . ",
". . . . . . . . . . . . . 3 x g.Z ~ o ].. . . . . . . . . . . . . . . . . . . . ",
". . . . . . . . . . . . . 6 . . . . . . . . . . . . . . . . . . . . . . . . . . ",
". . . . . . . . . . . . . . . . . . . . . . . . . . . . . . . . . . . . . . . . "};
