/* XPM */
static xpm_row_t const date6_xpm[] = {
"40 40 148 2",
"  	c None",
". 	c #FF0000",
"+ 	c #FD0000",
"@ 	c #D60000",
"# 	c #A10000",
"$ 	c #6D0000",
"% 	c #380000",
"& 	c #220000",
"* 	c #4B0000",
"= 	c #7F0000",
"- 	c #B00000",
"; 	c #E30000",
"> 	c #FB0000",
", 	c #F30000",
"' 	c #600000",
") 	c #000000",
"! 	c #820000",
"~ 	c #E90000",
"{ 	c #DD0000",
"] 	c #D40000",
"^ 	c #FE0000",
"/ 	c #AA0000",
"( 	c #3B0000",
"_ 	c #B20000",
": 	c #F70000",
"< 	c #DE0000",
"[ 	c #920000",
"} 	c #260000",
"| 	c #D10000",
"1 	c #E50000",
"2 	c #C40000",
"3 	c #9C0000",
"4 	c #6C0000",
"5 	c #EC0000",
"6 	c #8C0000",
"7 	c #450000",
"8 	c #470000",
"9 	c #880000",
"0 	c #D80000",
"a 	c #160000",
"b 	c #DA0000",
"c 	c #E40000",
"d 	c #CD0000",
"e 	c #B60000",
"f 	c #4D0000",
"g 	c #F10000",
"h 	c #C90000",
"i 	c #710000",
"j 	c #D70000",
"k 	c #F80000",
"l 	c #F90000",
"m 	c #E80000",
"n 	c #AF0000",
"o 	c #BD0000",
"p 	c #650000",
"q 	c #510000",
"r 	c #CC0000",
"s 	c #E60000",
"t 	c #1C0000",
"u 	c #EA0000",
"v 	c #EE0000",
"w 	c #B50000",
"x 	c #680000",
"y 	c #CE0000",
"z 	c #760000",
"A 	c #5D0000",
"B 	c #9B0000",
"C 	c #DB0000",
"D 	c #C50000",
"E 	c #FC0000",
"F 	c #F40000",
"G 	c #C00000",
"H 	c #9F0000",
"I 	c #CB0000",
"J 	c #950000",
"K 	c #F60000",
"L 	c #F50000",
"M 	c #A70000",
"N 	c #8B0000",
"O 	c #DC0000",
"P 	c #F00000",
"Q 	c #EF0000",
"R 	c #CF0000",
"S 	c #A90000",
"T 	c #940000",
"U 	c #580000",
"V 	c #2A0000",
"W 	c #B10000",
"X 	c #E70000",
"Y 	c #7D0000",
"Z 	c #690000",
"` 	c #A00000",
" .	c #7C0000",
"..	c #E20000",
"+.	c #FA0000",
"@.	c #780000",
"#.	c #5F0000",
"$.	c #A30000",
"%.	c #B30000",
"&.	c #5A0000",
"*.	c #350000",
"=.	c #3D0000",
"-.	c #AD0000",
";.	c #C80000",
">.	c #730000",
",.	c #BB0000",
"'.	c #D30000",
").	c #990000",
"!.	c #D00000",
"~.	c #8F0000",
"{.	c #B70000",
"].	c #700000",
"^.	c #E00000",
"/.	c #EB0000",
"(.	c #A80000",
"_.	c #D90000",
":.	c #BC0000",
"<.	c #9D0000",
"[.	c #750000",
"}.	c #770000",
"|.	c #A50000",
"1.	c #8A0000",
"2.	c #C20000",
"3.	c #4F0000",
"4.	c #B40000",
"5.	c #A40000",
"6.	c #AC0000",
"7.	c #D50000",
"8.	c #0D0000",
"9.	c #420000",
"0.	c #DF0000",
"a.	c #910000",
"b.	c #9A0000",
"c.	c #F20000",
"d.	c #AE0000",
"e.	c #2E0000",
"f.	c #810000",
"g.	c #BA0000",
"h.	c #BE0000",
"i.	c #E10000",
"j.	c #C70000",
"k.	c #8E0000",
"l.	c #ED0000",
"m.	c #8D0000",
"n.	c #400000",
"o.	c #7E0000",
"p.	c #720000",
"q.	c #890000",
". . . . . . . . . . . . . . . . . . . . . . . . . . . . . . . . . . . . . . . . ",
". . . . . . . . . . . . . . . . . . . . . . . . . . . . . . . . . . . . . . . . ",
". . . . . . . . . . . . . . . . . . . . . . . . . . . . . . . . . . . . . . . . ",
". . . . . . . . . . . . . . . . . . . . . . . . . . . . . . . . . . . . . . . . ",
". . . . . . . . . . . . . . . . . . . . . . . . . . . . . . . . . . . . . . . . ",
". . . . . . . . . . . . . . . + @ # $ % & * = - ; . > , . . . . . . . . . . . . ",
". . . . . . . . . . . . . . @ ' ) ) ) ) ) ) ) ) ) ! ~ { ] . . . . . . . . . . . ",
". . . . . . . . . . . . ^ / ) ) ( _ ~ > : < [ ) ) ) } | 1 2 . . . . . . . . . . ",
". . . . . . . . . . . ^ 3 ) ) 4 5 < 6 7 8 9 0 _ ) ) ) a b c d . . . . . . . . . ",
". . . . . . . . . . . e ) ) f g h i j k l m n o p ) ) ) q : r ; . . . . . . . . ",
". . . . . . . . . . s t ) ) | u ! l . . . . . v w ) ) x y + ^ 3 ^ . . . . . . . ",
". . . . . . . . . + z ) ) A ^ B 5 . . . . . . . C 7 D E F G H I E . . . . . . . ",
". . . . . . . . . @ ) ) ) _ : J . . . . . . . . K , L _ M ~ . . . . . . . . . . ",
". . . . . . . . . N ) ) ) O j I . . . . . . . . . , w g . . . . . . . . . . . . ",
". . . . . . . . P ) ) ) ) K w Q . . . . . . . . . . . . . . . . . . . . . . . . ",
". . . . . . . . R ) ) ) f . S . E y T U V f z W X . . . . . . . . . . . . . . . ",
". . . . . . . . / ) ) ) Y . ; X Z ) ) ) ) ) ) ) ) ` k . . . . . . . . . . . . . ",
". . . . . . . .  .) ) ) T . c ( ) T ..+.l ; H ) ) ) @.L . . . . . . . . . . . . ",
". . . . . . . . #.) ) ) $.+.A ) %.. G &.*.6 X D ) ) ) N ^ < . . . . . . . . . . ",
". . . . . . . . =.) ) ) -.;.) >.^ ,.M P K '.$ ..).) ) ) h g !.. . . . . . . . . ",
". . . . . . . ^ ) ) ) ) W T ) I P J . . . . K ~...) ) ) p ^ %.. . . . . . . . . ",
". . . . . . . . V ) ) ) _  .) P {.1 . . . . . P y ].) ) ) ^.] X . . . . . . . . ",
". . . . . . . . U ) ) ) n -.Y . ~.. . . . . . . /.$.) ) ) o , o . . . . . . . . ",
". . . . . . . . >.) ) ) (.. l _._ . . . . . . . . :.) ) ) <.. (.. . . . . . . . ",
". . . . . . . . <.) ) ) ` . [.}.L . . . . . . . . D ) ) ) 6 . |.. . . . . . . . ",
". . . . . . . . D ) ) ) 1.. -.. . . . . . . . . . 2.) ) ) ! . # . . . . . . . . ",
". . . . . . . . 1 ) ) ) p . n . . . . . . . . . . {.) ) ) T . H . . . . . . . . ",
". . . . . . . . + 3.) ) & > 4.^ . . . . . . . . . ).) ) ) M +.5.. . . . . . . . ",
". . . . . . . . . 6.) ) ) < j ... . . . . . . . . &.) ) ) d 7.y . . . . . . . . ",
". . . . . . . . . /.) ) ) _ E W . . . . . . . . ^.) ) ) 8.g B L . . . . . . . . ",
". . . . . . . . . . 3 ) ) 9.l y 0.. . . . . . . a.) ) ) b.c H . . . . . . . . . ",
". . . . . . . . . . c.7 ) ) / . d.1 . . . . . 7.) ) ) e.1 f.g . . . . . . . . . ",
". . . . . . . . . . . O V ) ) G + g.h.: . . i.% ) ) ) j.a.r . . . . . . . . . . ",
". . . . . . . . . . . . 0 V ) ) k.C 5 b s - t ) ) 8.e a.:.. . . . . . . . . . . ",
". . . . . . . . . . . . . l.9 ) ) ) ) ) ) ) ) ) $ S Z ;.. . . . . . . . . . . . ",
". . . . . . . . . . . . . . c m.V ) ) ) n.3.}.o.p.q.X . . . . . . . . . . . . . ",
". . . . . . . . . . . . . . . E b (.@.8 & 3.@._ ; . . . . . . . . . . . . . . . ",
". . . . . . . . . . . . . . . . . . . . . . . . . . . . . . . . . . . . . . . . ",
". . . . . . . . . . . . . . . . . . . . . . . . . . . . . . . . . . . . . . . . ",
". . . . . . . . . . . . . . . . . . . . . . . . . . . . . . . . . . . . . . . . "};
