/* XPM */
static xpm_row_t const date0_xpm[] = {
"40 40 144 2",
"  	c None",
". 	c #FF0000",
"+ 	c #F30000",
"@ 	c #C10000",
"# 	c #8D0000",
"$ 	c #580000",
"% 	c #2A0000",
"& 	c #400000",
"* 	c #6C0000",
"= 	c #9C0000",
"- 	c #D20000",
"; 	c #FA0000",
"> 	c #ED0000",
", 	c #FB0000",
"' 	c #B00000",
") 	c #260000",
"! 	c #000000",
"~ 	c #CF0000",
"{ 	c #FE0000",
"] 	c #D50000",
"^ 	c #E20000",
"/ 	c #F10000",
"( 	c #6E0000",
"_ 	c #BF0000",
": 	c #EB0000",
"< 	c #F70000",
"[ 	c #EA0000",
"} 	c #BE0000",
"| 	c #5F0000",
"1 	c #9F0000",
"2 	c #FC0000",
"3 	c #E00000",
"4 	c #D10000",
"5 	c #F40000",
"6 	c #600000",
"7 	c #820000",
"8 	c #F50000",
"9 	c #F00000",
"0 	c #AD0000",
"a 	c #650000",
"b 	c #2E0000",
"c 	c #5C0000",
"d 	c #DD0000",
"e 	c #920000",
"f 	c #870000",
"g 	c #D80000",
"h 	c #4F0000",
"i 	c #E70000",
"j 	c #660000",
"k 	c #C20000",
"l 	c #970000",
"m 	c #C70000",
"n 	c #CD0000",
"o 	c #CA0000",
"p 	c #770000",
"q 	c #E80000",
"r 	c #D40000",
"s 	c #C90000",
"t 	c #FD0000",
"u 	c #B60000",
"v 	c #4D0000",
"w 	c #3B0000",
"x 	c #F90000",
"y 	c #CB0000",
"z 	c #690000",
"A 	c #D00000",
"B 	c #960000",
"C 	c #8B0000",
"D 	c #B20000",
"E 	c #B40000",
"F 	c #860000",
"G 	c #C00000",
"H 	c #9A0000",
"I 	c #D60000",
"J 	c #7E0000",
"K 	c #B10000",
"L 	c #F80000",
"M 	c #0D0000",
"N 	c #DE0000",
"O 	c #E40000",
"P 	c #EE0000",
"Q 	c #CE0000",
"R 	c #E30000",
"S 	c #DF0000",
"T 	c #DA0000",
"U 	c #160000",
"V 	c #E90000",
"W 	c #510000",
"X 	c #A70000",
"Y 	c #AC0000",
"Z 	c #3D0000",
"` 	c #940000",
" .	c #9D0000",
"..	c #AB0000",
"+.	c #7D0000",
"@.	c #780000",
"#.	c #930000",
"$.	c #5D0000",
"%.	c #830000",
"&.	c #9B0000",
"*.	c #8E0000",
"=.	c #5A0000",
"-.	c #A80000",
";.	c #800000",
">.	c #530000",
",.	c #490000",
"'.	c #AA0000",
").	c #760000",
"!.	c #910000",
"~.	c #B50000",
"{.	c #980000",
"].	c #F60000",
"^.	c #EF0000",
"/.	c #E60000",
"(.	c #BA0000",
"_.	c #C50000",
":.	c #AF0000",
"<.	c #C80000",
"[.	c #A30000",
"}.	c #A00000",
"|.	c #220000",
"1.	c #900000",
"2.	c #890000",
"3.	c #E10000",
"4.	c #810000",
"5.	c #710000",
"6.	c #E50000",
"7.	c #350000",
"8.	c #D30000",
"9.	c #EC0000",
"0.	c #C60000",
"a.	c #840000",
"b.	c #1C0000",
"c.	c #BD0000",
"d.	c #DB0000",
"e.	c #630000",
"f.	c #950000",
"g.	c #BB0000",
"h.	c #C40000",
"i.	c #4B0000",
"j.	c #550000",
"k.	c #730000",
"l.	c #560000",
"m.	c #880000",
". . . . . . . . . . . . . . . . . . . . . . . . . . . . . . . . . . . . . . . . ",
". . . . . . . . . . . . . . . . . . . . . . . . . . . . . . . . . . . . . . . . ",
". . . . . . . . . . . . . . . . . . . . . . . . . . . . . . . . . . . . . . . . ",
". . . . . . . . . . . . . . + @ # $ % & * = - ; . > , . . . . . . . . . . . . . ",
". . . . . . . . . . . . ; ' ) ! ! ! ! ! ! ! ! $ ~ { ] ^ . . . . . . . . . . . . ",
". . . . . . . . . . . / ( ! ! $ _ : ; < [ } | ! ! 1 2 3 4 . . . . . . . . . . . ",
". . . . . . . . . . 5 6 ! ! 7 8 9 0 a b c 1 d e ! ! f , 3 g . . . . . . . . . . ",
". . . . . . . . . . f ! ! h 8 i j k 9 2 5 g l @ * ! ! 1 . m / . . . . . . . . . ",
". . . . . . . . . n ! ! ! o , p q . . . . . . r s ! ! ! - t u . . . . . . . . . ",
". . . . . . . . , v ! ! w x y k . . . . . . . . . z ! ! c , - [ . . . . . . . . ",
". . . . . . . . A ! ! ! B . C x . . . . . . . . . D ! ! ! y , E . . . . . . . . ",
". . . . . . . . F ! ! ! G , H . . . . . . . . . . I ! ! ! J . K { . . . . . . . ",
". . . . . . . L M ! ! ! N O } . . . . . . . . . . P ! ! ! ! + Q R . . . . . . . ",
". . . . . . . S ! ! ! ! P 4 T . . . . . . . . . . t U ! ! ! 4 > k . . . . . . . ",
". . . . . . . k ! ! ! ! , G V . . . . . . . . . . . W ! ! ! D , X . . . . . . . ",
". . . . . . . Y ! ! ! Z . D 8 . . . . . . . . . . . ( ! ! ! ` .  .. . . . . . . ",
". . . . . . . 1 ! ! ! h . ..2 . . . . . . . . . . . +.! ! ! @..  .. . . . . . . ",
". . . . . . . #.! ! ! $.. X . . . . . . . . . . . . %.! ! ! | . &.. . . . . . . ",
". . . . . . . *.! ! ! a . X . . . . . . . . . . . . f ! ! ! W . H . . . . . . . ",
". . . . . . . &.! ! ! =.. -.. . . . . . . . . . . . ;.! ! ! >.. ` . . . . . . . ",
". . . . . . . X ! ! ! ,.. '.{ . . . . . . . . . . . ).! ! ! * . !.. . . . . . . ",
". . . . . . . ~.! ! ! b . E ; . . . . . . . . . . . z ! ! ! J . {.. . . . . . . ",
". . . . . . . 4 ! ! ! ! ].k ^.. . . . . . . . . . . Z ! ! ! ` 9 X . . . . . . . ",
". . . . . . . > ! ! ! ! /.- ^ . . . . . . . . . . < ! ! ! ! (.I _.. . . . . . . ",
". . . . . . . . ,.! ! ! 4 i y . . . . . . . . . . i ! ! ! ! g u ^ . . . . . . . ",
". . . . . . . . '.! ! ! -., :.. . . . . . . . . . <.! ! ! ) ].+.t . . . . . . . ",
". . . . . . . . /.! ! ! a . [.. . . . . . . . . . 1 ! ! ! {.R 1 . . . . . . . . ",
". . . . . . . . . %.! ! ! S y ^ . . . . . . . . ; Z ! ! ! T }.N . . . . . . . . ",
". . . . . . . . . [ |.! ! 1., [.. . . . . . . . o ! ! ! 2.3.4.. . . . . . . . . ",
". . . . . . . . . . u ! ! ! Q q G . . . . . . ].v ! ! b V 5.6.. . . . . . . . . ",
". . . . . . . . . . { e ! ! 7.8.9.0.9 . . . < a.! ! b.- &.c.. . . . . . . . . . ",
". . . . . . . . . . . 2 = ! ! ! l d./.2 ^.s e.! ! % <.f.'.. . . . . . . . . . . ",
". . . . . . . . . . . . - = >.! ! ! ! ! ! ! ! ! %.g.a h.. . . . . . . . . . . . ",
". . . . . . . . . . . . . S 1.i.! ! ! U v j.k.C e.1.q . . . . . . . . . . . . . ",
". . . . . . . . . . . . . . . S ' J l.b w a m.} V . . . . . . . . . . . . . . . ",
". . . . . . . . . . . . . . . . . . . . . . . . . . . . . . . . . . . . . . . . ",
". . . . . . . . . . . . . . . . . . . . . . . . . . . . . . . . . . . . . . . . ",
". . . . . . . . . . . . . . . . . . . . . . . . . . . . . . . . . . . . . . . . ",
". . . . . . . . . . . . . . . . . . . . . . . . . . . . . . . . . . . . . . . . ",
". . . . . . . . . . . . . . . . . . . . . . . . . . . . . . . . . . . . . . . . "};
