/* XPM */
static xpm_row_t const date8_xpm[] = {
"40 40 150 2",
"  	c None",
". 	c #FF0000",
"+ 	c #FD0000",
"@ 	c #7A0000",
"# 	c #600000",
"$ 	c #E40000",
"% 	c #CC0000",
"& 	c #F50000",
"* 	c #000000",
"= 	c #980000",
"- 	c #B20000",
"; 	c #F60000",
"> 	c #C70000",
", 	c #8B0000",
"' 	c #CA0000",
") 	c #FA0000",
"! 	c #A30000",
"~ 	c #D80000",
"{ 	c #AB0000",
"] 	c #F80000",
"^ 	c #E20000",
"/ 	c #6A0000",
"( 	c #0D0000",
"_ 	c #C40000",
": 	c #E50000",
"< 	c #B90000",
"[ 	c #F00000",
"} 	c #9F0000",
"| 	c #560000",
"1 	c #DC0000",
"2 	c #AC0000",
"3 	c #FE0000",
"4 	c #AF0000",
"5 	c #260000",
"6 	c #220000",
"7 	c #C10000",
"8 	c #420000",
"9 	c #910000",
"0 	c #EC0000",
"a 	c #E60000",
"b 	c #940000",
"c 	c #450000",
"d 	c #2E0000",
"e 	c #660000",
"f 	c #A60000",
"g 	c #E80000",
"h 	c #ED0000",
"i 	c #790000",
"j 	c #530000",
"k 	c #D70000",
"l 	c #DE0000",
"m 	c #B60000",
"n 	c #DD0000",
"o 	c #3D0000",
"p 	c #6E0000",
"q 	c #F40000",
"r 	c #DB0000",
"s 	c #A20000",
"t 	c #FC0000",
"u 	c #BF0000",
"v 	c #320000",
"w 	c #B40000",
"x 	c #E90000",
"y 	c #F10000",
"z 	c #D90000",
"A 	c #B30000",
"B 	c #4F0000",
"C 	c #D20000",
"D 	c #2A0000",
"E 	c #160000",
"F 	c #C20000",
"G 	c #860000",
"H 	c #A70000",
"I 	c #9A0000",
"J 	c #6C0000",
"K 	c #EA0000",
"L 	c #B10000",
"M 	c #E10000",
"N 	c #AD0000",
"O 	c #A50000",
"P 	c #B50000",
"Q 	c #C90000",
"R 	c #F20000",
"S 	c #E30000",
"T 	c #CD0000",
"U 	c #990000",
"V 	c #C80000",
"W 	c #DA0000",
"X 	c #EE0000",
"Y 	c #D00000",
"Z 	c #D40000",
"` 	c #9E0000",
" .	c #D50000",
"..	c #470000",
"+.	c #C30000",
"@.	c #F90000",
"#.	c #EB0000",
"$.	c #710000",
"%.	c #EF0000",
"&.	c #380000",
"*.	c #810000",
"=.	c #350000",
"-.	c #A80000",
";.	c #BD0000",
">.	c #3B0000",
",.	c #E70000",
"'.	c #5C0000",
").	c #6D0000",
"!.	c #950000",
"~.	c #700000",
"{.	c #F70000",
"].	c #BC0000",
"^.	c #AE0000",
"/.	c #720000",
"(.	c #850000",
"_.	c #5F0000",
":.	c #CB0000",
"<.	c #7E0000",
"[.	c #D10000",
"}.	c #9D0000",
"|.	c #A00000",
"1.	c #D60000",
"2.	c #C50000",
"3.	c #9C0000",
"4.	c #820000",
"5.	c #490000",
"6.	c #BB0000",
"7.	c #CE0000",
"8.	c #690000",
"9.	c #FB0000",
"0.	c #8A0000",
"a.	c #C00000",
"b.	c #DF0000",
"c.	c #620000",
"d.	c #8E0000",
"e.	c #7F0000",
"f.	c #B70000",
"g.	c #F30000",
"h.	c #760000",
"i.	c #930000",
"j.	c #7D0000",
"k.	c #920000",
"l.	c #8D0000",
"m.	c #8F0000",
"n.	c #890000",
"o.	c #5A0000",
"p.	c #4B0000",
"q.	c #650000",
"r.	c #550000",
"s.	c #830000",
". . . . . . . . . . . . . . . . . . . . + @ # $ % . . . . . . . . . . . . . . . ",
". . . . . . . . . . . . . . . . . . . . & * * = - ; . . . . . . . . . . . . . . ",
". . . . . . . . . . . . . . . . . . . . . > * , ' $ . . . . . . . . . . . . . . ",
". . . . . . . . . . . . . . . . . . . . ) ! * ~ { ] . . . . . . . . . . . . . . ",
". . . . . . . . . . . . . . . . . . . ^ / ( _ : < . . . . . . . . . . . . . . . ",
". . . . . . . . . . . . . . . . . [ } * | 1 $ 2 3 . . . . . . . . . . . . . . . ",
". . . . . . . . . . . . . . . ; 4 5 6 4 ; 7 > . . . . . . . . . . . . . . . . . ",
". . . . . . . . . . . . . 3 _ 8 * 9 0 a b c d e f g . . . . . . . . . . . . . . ",
". . . . . . . . . . . . h i * j k 3 l 5 * * * * * ( m 3 . . . . . . . . . . . . ",
". . . . . . . . . . . n o * p q r > p * s h t [ u v * w r + . . . . . . . . . . ",
". . . . . . . . . . x v * v y z A ) * b ) { B o b C D E l F . . . . . . . . . . ",
". . . . . . . . . . G * * H ) I . 3 J K L z q ] M N O * P Q R . . . . . . . . . ",
". . . . . . . . . y * * * _ S T . . . . . . . . . . k * U & V . . . . . . . . . ",
". . . . . . . . . W * * * 4 X Y . . . . . . . . . . Z * ` . P . . . . . . . . . ",
". . . . . . . . .  .* * * ..q T . . . . . . . . . . N * +.@.m . . . . . . . . . ",
". . . . . . . . . #.* * * * $.S y . . . . . . . . %.&.o & n k . . . . . . . . . ",
". . . . . . . . . . *.* * * * D - & . . . . . . X / * Y . N t . . . . . . . . . ",
". . . . . . . . . . 0 8 * * * * * =.-.x . . ] ;.>.5 T .  .~ . . . . . . . . . . ",
". . . . . . . . . . . ,.'.* * * * * * * ).!.v * ~.,.. ~ T . . . . . . . . . . . ",
". . . . . . . . . . . . ; -.E * * * * * * * * i {.@.].Y . . . . . . . . . . . . ",
". . . . . . . . . . . . . . ^ ..* * * * * * * * c $.[ . . . . . . . . . . . . . ",
". . . . . . . . . . . . ; ^.v * /.(.E * * * * * * * _.^ . . . . . . . . . . . . ",
". . . . . . . . . . . :.c * o ' 3 t _ (.<.* * * * * * 6 Y ) . . . . . . . . . . ",
". . . . . . . . . + } * * # 0 . [.}.^ . . g |.E * * * * E 1.2.t . . . . . . . . ",
". . . . . . . . . 3.* * 8 h + f 2.. . . . . . #.4.* * * * 5.K 6.. . . . . . . . ",
". . . . . . . . 7.* * * > . 4  .. . . . . . . . 3 - * * * * N 1.: . . . . . . . ",
". . . . . . . . 8.* * >.9.K 2 . . . . . . . . . . . N * * * o @.m . . . . . . . ",
". . . . . . . X * * * 0.. w [ . . . . . . . . . . . 9._.* * * l m t . . . . . . ",
". . . . . . . 1 * * * |.. H . . . . . . . . . . . . . 6.* * * > :.x . . . . . . ",
". . . . . . . n * * * b . N . . . . . . . . . . . . . r * * * a.C b.. . . . . . ",
". . . . . . . h * * * / . L . . . . . . . . . . . . . M * * * 7._ ,.. . . . . . ",
". . . . . . . 3 c.* * * x  .$ . . . . . . . . . . . . [.* * * ,.^.q . . . . . . ",
". . . . . . . . 7 * * * d.+ P . . . . . . . . . . . . 3.* * ).. 0.. . . . . . . ",
". . . . . . . . + e.* * * - ^ n . . . . . . . . . . ^ ( * * r 1 f.. . . . . . . ",
". . . . . . . . . g.h.* * * i.' K . . . . . . . . n c * * P 9.j.; . . . . . . . ",
". . . . . . . . . . @.} * * * 6 j.T K ; + ) X C 9 * * 5 a.9.k.[.. . . . . . . . ",
". . . . . . . . . . . . ^ l.E * * * * * * * * * * ( m.#.y n.2.. . . . . . . . . ",
". . . . . . . . . . . 9.r h g.Q O i o.>.6 p./ I F [ ; a.q. .. . . . . . . . . . ",
". . . . . . . . . . . . . C H ].z 0 ; 9.3 ] y ^ _ = r.L ; . . . . . . . . . . . ",
". . . . . . . . . . . . . . . S 6.d.e 5.6 8 c.s.L  .9.. . . . . . . . . . . . . "};
