/* XPM */
static xpm_row_t const date4_xpm[] = {
"40 40 100 2",
"  	c None",
". 	c #FF0000",
"+ 	c #DC0000",
"@ 	c #000000",
"# 	c #C10000",
"$ 	c #F60000",
"% 	c #D20000",
"& 	c #E50000",
"* 	c #E40000",
"= 	c #CF0000",
"- 	c #C50000",
"; 	c #4F0000",
"> 	c #FD0000",
", 	c #B40000",
"' 	c #F80000",
") 	c #A60000",
"! 	c #AD0000",
"~ 	c #FE0000",
"{ 	c #AA0000",
"] 	c #7C0000",
"^ 	c #DD0000",
"/ 	c #F90000",
"( 	c #220000",
"_ 	c #800000",
": 	c #FB0000",
"< 	c #D70000",
"[ 	c #D50000",
"} 	c #F40000",
"| 	c #710000",
"1 	c #B90000",
"2 	c #EE0000",
"3 	c #D40000",
"4 	c #BE0000",
"5 	c #FC0000",
"6 	c #D60000",
"7 	c #A90000",
"8 	c #320000",
"9 	c #DF0000",
"0 	c #D90000",
"a 	c #7E0000",
"b 	c #BC0000",
"c 	c #E70000",
"d 	c #DE0000",
"e 	c #9B0000",
"f 	c #0D0000",
"g 	c #930000",
"h 	c #F20000",
"i 	c #A40000",
"j 	c #AB0000",
"k 	c #ED0000",
"l 	c #550000",
"m 	c #B60000",
"n 	c #4D0000",
"o 	c #F50000",
"p 	c #FA0000",
"q 	c #4B0000",
"r 	c #8F0000",
"s 	c #960000",
"t 	c #AF0000",
"u 	c #F70000",
"v 	c #450000",
"w 	c #5C0000",
"x 	c #DB0000",
"y 	c #B20000",
"z 	c #1C0000",
"A 	c #E20000",
"B 	c #F00000",
"C 	c #8E0000",
"D 	c #E80000",
"E 	c #C40000",
"F 	c #920000",
"G 	c #7A0000",
"H 	c #A50000",
"I 	c #A30000",
"J 	c #600000",
"K 	c #BA0000",
"L 	c #580000",
"M 	c #9E0000",
"N 	c #940000",
"O 	c #C80000",
"P 	c #CD0000",
"Q 	c #EB0000",
"R 	c #160000",
"S 	c #D10000",
"T 	c #400000",
"U 	c #820000",
"V 	c #D00000",
"W 	c #F10000",
"X 	c #F30000",
"Y 	c #E30000",
"Z 	c #490000",
"` 	c #A80000",
" .	c #D30000",
"..	c #790000",
"+.	c #EF0000",
"@.	c #E10000",
"#.	c #510000",
"$.	c #990000",
"%.	c #C00000",
"&.	c #350000",
". . . . . . . . . . . . . . . . . . . . . . . . . . . . . . . . . . . . . . . . ",
". . . . . . . . . . . . . . . . . . . . . . . . . . . . . . . . . . . . . . . . ",
". . . . . . . . . . . . . . . . . . . . . . . . . . . . . . . . . . . . . . . . ",
". . . . . . . . . . . . . . . + @ @ @ @ @ # . $ . . . . . . . . . . . . . . . . ",
". . . . . . . . . . . . . . . % @ @ @ @ @ & * = . . . . . . . . . . . . . . . . ",
". . . . . . . . . . . . . . . - @ @ @ @ ; > , ' . . . . . . . . . . . . . . . . ",
". . . . . . . . . . . . . . . ) @ @ @ @ ! ~ { . . . . . . . . . . . . . . . . . ",
". . . . . . . . . . . . . . . ] @ @ @ @ & ^ % . . . . . . . . . . . . . . . . . ",
". . . . . . . . . . . . . . / ( @ @ @ _ . { : . . . . . . . . . . . . . . . . . ",
". . . . . . . . . . . . . . < @ @ @ @ [ } , . . . . . . . . . . . . . . . . . . ",
". . . . . . . . . . . . . . { @ @ @ | ~ 1 2 . . 3 4 5 . . . . . . . . . . . . . ",
". . . . . . . . . . . . . > ; @ @ @ 6 / 7 . . ^ 8 4 = 9 . . . . . . . . . . . . ",
". . . . . . . . . . . . . 0 @ @ @ a . b c . - ( @ 4 = d . . . . . . . . . . . . ",
". . . . . . . . . . . . . e @ @ f & $ ) . g @ @ @ 4 = d . . . . . . . . . . . . ",
". . . . . . . . . . . . h ( @ @ i . j k . l @ @ @ 4 = d . . . . . . . . . . . . ",
". . . . . . . . . . . . m @ @ n o * , . . l @ @ @ 4 = d . . . . . . . . . . . . ",
". . . . . . . . . . . p q @ @ % : r p . . l @ @ @ 4 = d . . . . . . . . . . . . ",
". . . . . . . . . . . 4 @ @ s . t + . . . l @ @ @ 4 = d . . . . . . . . . . . . ",
". . . . . . . . . . u v @ w $ x t . . . . l @ @ @ 4 = d . . . . . . . . . . . . ",
". . . . . . . . . . y @ z A B C : . . . . l @ @ @ 4 = d . . . . . . . . . . . . ",
". . . . . . . . . D z @ E : F h . . . . . l @ @ @ 4 = d . . . . . . . . . . . . ",
". . . . . . . . > G @ H . I & . . . . . . l @ @ @ 4 = d . . . . . . . . . . . . ",
". . . . . . . . y @ J 5 K d . . . . . . . l @ @ @ 4 = d . . . . . . . . . . . . ",
". . . . . . . < @ @ @ @ @ @ @ @ @ @ @ @ @ @ @ @ @ @ @ z L M k . . . . . . . . . ",
". . . . . . . N @ @ @ @ @ @ @ @ @ @ @ @ @ @ @ @ @ @ @ @ @ @ q * / . . . . . . . ",
". . . . . . . . . . . . . . . . . . . . . l @ @ @ 4 . ~ O @ @ P 1 . . . . . . . ",
". . . . . . . Q R @ @ @ @ @ @ @ @ @ @ @ @ @ @ @ @ 4 . . t @ @ S 6 B . . . . . . ",
". . . . . . . . . . . . . . . . . . . . . l @ @ @ 4 = d 3 T U p V / . . . . . . ",
". . . . . . . . . . . . . . . . . . . . . l @ @ @ 4 = d . W > X Y . . . . . . . ",
". . . . . . . . . . . . . . . . . . . . . l @ @ @ 4 = d . . . . . . . . . . . . ",
". . . . . . . . . . . . . . . . . . . . : Z @ @ @ ` 3  .. . . . . . . . . . . . ",
". . . . . . . . . . . . . . . . . . . W ..@ @ @ @ @ t ! +.. . . . . . . . . . . ",
". . . . . . . . . . . . . . . . . . @.#.@ @ @ @ @ @ @ $.t / . . . . . . . . . . ",
". . . . . . . . . . . . . . . . . . . . . . . . . . . . : %.~ . . . . . . . . . ",
". . . . . . . . . . . . . . . . . . X &.@ @ @ @ @ @ @ @ @ @ t . . . . . . . . . ",
". . . . . . . . . . . . . . . . . . . . . . . . . . . . . . . . . . . . . . . . ",
". . . . . . . . . . . . . . . . . . . . . . . . . . . . . . . . . . . . . . . . ",
". . . . . . . . . . . . . . . . . . . . . . . . . . . . . . . . . . . . . . . . ",
". . . . . . . . . . . . . . . . . . . . . . . . . . . . . . . . . . . . . . . . ",
". . . . . . . . . . . . . . . . . . . . . . . . . . . . . . . . . . . . . . . . "};
