/* XPM */
static xpm_row_t const letterJ_xpm[] = {
"80 80 145 2",
"  	c None",
". 	c #FF0000",
"+ 	c #FA0000",
"@ 	c #8F0000",
"# 	c #000000",
"$ 	c #3B0000",
"% 	c #E20000",
"& 	c #FC0000",
"* 	c #9D0000",
"= 	c #380000",
"- 	c #E10000",
"; 	c #FB0000",
"> 	c #FE0000",
", 	c #AB0000",
"' 	c #350000",
") 	c #DF0000",
"! 	c #890000",
"~ 	c #C40000",
"{ 	c #BA0000",
"] 	c #320000",
"^ 	c #DE0000",
"/ 	c #8B0000",
"( 	c #630000",
"_ 	c #F20000",
": 	c #C70000",
"< 	c #0D0000",
"[ 	c #2E0000",
"} 	c #DD0000",
"| 	c #8D0000",
"1 	c #5D0000",
"2 	c #F00000",
"3 	c #D20000",
"4 	c #220000",
"5 	c #2A0000",
"6 	c #DB0000",
"7 	c #560000",
"8 	c #EE0000",
"9 	c #9A0000",
"0 	c #D60000",
"a 	c #920000",
"b 	c #4F0000",
"c 	c #EC0000",
"d 	c #9B0000",
"e 	c #F40000",
"f 	c #CB0000",
"g 	c #E90000",
"h 	c #C80000",
"i 	c #5C0000",
"j 	c #F60000",
"k 	c #FD0000",
"l 	c #B20000",
"m 	c #BF0000",
"n 	c #7E0000",
"o 	c #E30000",
"p 	c #F80000",
"q 	c #D70000",
"r 	c #470000",
"s 	c #AF0000",
"t 	c #F30000",
"u 	c #A20000",
"v 	c #EF0000",
"w 	c #7C0000",
"x 	c #AD0000",
"y 	c #D50000",
"z 	c #420000",
"A 	c #4B0000",
"B 	c #AC0000",
"C 	c #510000",
"D 	c #780000",
"E 	c #E50000",
"F 	c #CA0000",
"G 	c #D30000",
"H 	c #400000",
"I 	c #710000",
"J 	c #ED0000",
"K 	c #D00000",
"L 	c #530000",
"M 	c #A90000",
"N 	c #700000",
"O 	c #F10000",
"P 	c #DC0000",
"Q 	c #DA0000",
"R 	c #C50000",
"S 	c #690000",
"T 	c #930000",
"U 	c #EB0000",
"V 	c #870000",
"W 	c #A80000",
"X 	c #F70000",
"Y 	c #550000",
"Z 	c #E40000",
"` 	c #D80000",
" .	c #F90000",
"..	c #B70000",
"+.	c #C90000",
"@.	c #A30000",
"#.	c #7D0000",
"$.	c #C00000",
"%.	c #830000",
"&.	c #F50000",
"*.	c #B80000",
"=.	c #A10000",
"-.	c #AA0000",
";.	c #BE0000",
">.	c #B60000",
",.	c #730000",
"'.	c #E60000",
").	c #E70000",
"!.	c #8E0000",
"~.	c #750000",
"{.	c #880000",
"].	c #9E0000",
"^.	c #950000",
"/.	c #980000",
"(.	c #160000",
"_.	c #B30000",
":.	c #940000",
"<.	c #620000",
"[.	c #CD0000",
"}.	c #B40000",
"|.	c #A70000",
"1.	c #CE0000",
"2.	c #5A0000",
"3.	c #6D0000",
"4.	c #660000",
"5.	c #B90000",
"6.	c #1C0000",
"7.	c #7F0000",
"8.	c #580000",
"9.	c #EA0000",
"0.	c #990000",
"a.	c #C20000",
"b.	c #D10000",
"c.	c #450000",
"d.	c #760000",
"e.	c #A60000",
"f.	c #810000",
"g.	c #680000",
"h.	c #490000",
"i.	c #910000",
"j.	c #6A0000",
"k.	c #D90000",
"l.	c #6C0000",
"m.	c #800000",
"n.	c #CC0000",
". . . . . . . . . . . . . . . . . . . . . . . . . . . . . . . . . . . . . . . . . . . . . . . . . . . . . . . . . . . . . . . . . . . . . . . . . . . . . . . . ",
". . . . . . . . . . . . . . . . . . . . . . . . . . . . . . . . . . . . . . . . . . . . . . . . . . . . . . . . . . . . . . . . . . . . . . . . . . . . . . . . ",
". . . . . . . . . . . . . . . . . . . . . . . . . . . . . . . . . . . . . . . . . . . . . . . . . . . . . . . . . . . . . . . . . . . . . . . . . . . . . . . . ",
". . . . . . . . . . . . . . . . . . . . . . . . . . . . . . . . . . . . . . . . . . . . . . . . . . . . . . . . . . . . . . . . . . . . . . . . . . . . . . . . ",
". . . . . . . . . . . . . . . . . . . . . . . . . . . . . . . . . . . . . . . . . . . . . . . . . . . . . . . . . . . . . . . . . . . . . . . . . . . . . . . . ",
". . . . . . . . . . . . . . . . . . . . . . . . . . . . . . . . . . . . . . . . . . . . . . . . . . . . . . . . . . . . . . . . . . . . . . . . . . . . . . . . ",
". . . . . . . . . . . . . . . . . . . . . . . . . . . . . . . . . . . . . . . . . . . . . . . . . . . . . . . . . . . . . . . . . . . . . . . . . . . . . . . . ",
". . . . . . . . . . . . . . . . . . . . . . . . . . . . . . . . . . . . . . + @ # # # # # # # # # # # # # # # # # # # # $ % . . . . . . . . . . . . . . . . . . ",
". . . . . . . . . . . . . . . . . . . . . . . . . . . . . . . . . . . . . . . & * # # # # # # # # # # # # # # # # # # = - . ; > . . . . . . . . . . . . . . . . ",
". . . . . . . . . . . . . . . . . . . . . . . . . . . . . . . . . . . . . . . . > , # # # # # # # # # # # # # # # # ' ) . ; ! ~ . . . . . . . . . . . . . . . . ",
". . . . . . . . . . . . . . . . . . . . . . . . . . . . . . . . . . . . . . . . . . { # # # # # # # # # # # # # # ] ^ . ; / ( _ . . . . . . . . . . . . . . . . ",
". . . . . . . . . . . . . . . . . . . . . . . . . . . . . . . . . . . . . . . . . . . : < # # # # # # # # # # # [ } . ; | 1 2 . . . . . . . . . . . . . . . . . ",
". . . . . . . . . . . . . . . . . . . . . . . . . . . . . . . . . . . . . . . . . . . . 3 4 # # # # # # # # # 5 6 . ; @ 7 8 . . . . . . . . . . . . . . . . . . ",
". . . . . . . . . . . . . . . . . . . . . . . . . . . . . . . . . . . . . . . . . . . . . 9 # # # # # # # # # 0 . & a b c . . . . . . . . . . . . . . . . . . . ",
". . . . . . . . . . . . . . . . . . . . . . . . . . . . . . . . . . . . . . . . . . . . . d # # # # # # # # # e . f ] g . . . . . . . . . . . . . . . . . . . . ",
". . . . . . . . . . . . . . . . . . . . . . . . . . . . . . . . . . . . . . . . . . . . . d # # # # # # # # # e . h i . . . . . . . . . . . . . . . . . . . . . ",
". . . . . . . . . . . . . . . . . . . . . . . . . . . . . . . . . . . . . . . . . . . . . d # # # # # # # # # e . h i . . . . . . . . . . . . . . . . . . . . . ",
". . . . . . . . . . . . . . . . . . . . . . . . . . . . . . . . . . . . . . . . . . . . . d # # # # # # # # # e . h i . . . . . . . . . . . . . . . . . . . . . ",
". . . . . . . . . . . . . . . . . . . . . . . . . . . . . . . . . . . . . . . . . . . . . d # # # # # # # # # e . h i . . . . . . . . . . . . . . . . . . . . . ",
". . . . . . . . . . . . . . . . . . . . . . . . . . . . . . . . . . . . . . . . . . . . . d # # # # # # # # # e . h i . . . . . . . . . . . . . . . . . . . . . ",
". . . . . . . . . . . . . . . . . . . . . . . . . . . . . . . . . . . . . . . . . . . . . d # # # # # # # # # e . h i . . . . . . . . . . . . . . . . . . . . . ",
". . . . . . . . . . . . . . . . . . . . . . . . . . . . . . . . . . . . . . . . . . . . . d # # # # # # # # # e . h i . . . . . . . . . . . . . . . . . . . . . ",
". . . . . . . . . . . . . . . . . . . . . . . . . . . . . . . . . . . . . . . . . . . . . d # # # # # # # # # e . h i . . . . . . . . . . . . . . . . . . . . . ",
". . . . . . . . . . . . . . . . . . . . . . . . . . . . . . . . . . . . . . . . . . . . . d # # # # # # # # # e . h i . . . . . . . . . . . . . . . . . . . . . ",
". . . . . . . . . . . . . . . . . . . . . . . . . . . . . . . . . . . . . . . . . . . . . d # # # # # # # # # e . h i . . . . . . . . . . . . . . . . . . . . . ",
". . . . . . . . . . . . . . . . . . . . . . . . . . . . . . . . . . . . . . . . . . . . . d # # # # # # # # # e . h i . . . . . . . . . . . . . . . . . . . . . ",
". . . . . . . . . . . . . . . . . . . . . . . . . . . . . . . . . . . . . . . . . . . . . d # # # # # # # # # e . h i . . . . . . . . . . . . . . . . . . . . . ",
". . . . . . . . . . . . . . . . . . . . . . . . . . . . . . . . . . . . . . . . . . . . . d # # # # # # # # # e . h i . . . . . . . . . . . . . . . . . . . . . ",
". . . . . . . . . . . . . . . . . . . . . . . . . . . . . . . . . . . . . . . . . . . . . d # # # # # # # # # e . h i . . . . . . . . . . . . . . . . . . . . . ",
". . . . . . . . . . . . . . . . . . . . . . . . . . . . . . . . . . . . . . . . . . . . . d # # # # # # # # # e . h i . . . . . . . . . . . . . . . . . . . . . ",
". . . . . . . . . . . . . . . . . . . . . . . . . . . . . . . . . . . . . . . . . . . . . d # # # # # # # # # e . h i . . . . . . . . . . . . . . . . . . . . . ",
". . . . . . . . . . . . . . . . . . . . . . . . . . . . . . . . . . . . . . . . . . . . . d # # # # # # # # # e . h i . . . . . . . . . . . . . . . . . . . . . ",
". . . . . . . . . . . . . . . . . . . . . . . . . . . . . . . . . . . . . . . . . . . . . d # # # # # # # # # e . h i . . . . . . . . . . . . . . . . . . . . . ",
". . . . . . . . . . . . . . . . . . . . . . . . . . . . . . . . . . . . . . . . . . . . . d # # # # # # # # # e . h i . . . . . . . . . . . . . . . . . . . . . ",
". . . . . . . . . . . . . . . . . . . . . . . . . . . . . . . . . . . . . . . . . . . . . d # # # # # # # # # e . h i . . . . . . . . . . . . . . . . . . . . . ",
". . . . . . . . . . . . . . . . . . . . . . . . . . . . . . . . . . . . . . . . . . . . . d # # # # # # # # # e . h i . . . . . . . . . . . . . . . . . . . . . ",
". . . . . . . . . . . . . . . . . . . . . . . . . . . . . . . . . . . . . . . . . . . . . d # # # # # # # # # e . h i . . . . . . . . . . . . . . . . . . . . . ",
". . . . . . . . . . . . . . . . . . . . . . . . . . . . . . . . . . . . . . . . . . . . . d # # # # # # # # # e . h i . . . . . . . . . . . . . . . . . . . . . ",
". . . . . . . . . . . . . . . . . . . . . . . . . . . . . . . . . . . . . . . . . . . . . d # # # # # # # # # e . h i . . . . . . . . . . . . . . . . . . . . . ",
". . . . . . . . . . . . . . . . . . . . . . . . . . . . . . . . . . . . . . . . . . . . . d # # # # # # # # # e . h i . . . . . . . . . . . . . . . . . . . . . ",
". . . . . . . . . . . . . . . . . . . . . . . . . . . . . . . . . . . . . . . . . . . . . d # # # # # # # # # e . h i . . . . . . . . . . . . . . . . . . . . . ",
". . . . . . . . . . . . . . . . . . . . . . . . . . . . . . . . . . . . . . . . . . . . . d # # # # # # # # # e . h i . . . . . . . . . . . . . . . . . . . . . ",
". . . . . . . . . . . . . . . . . . . . . . . . . . . . . . . . . . . . . . . . . . . . . d # # # # # # # # # e . h i . . . . . . . . . . . . . . . . . . . . . ",
". . . . . . . . . . . . . . . . . . . . . . . . . . . j . . . . . . . . . . . . . . . . . d # # # # # # # # # e . h i . . . . . . . . . . . . . . . . . . . . . ",
". . . . . . . . . . . . . . . . . . . . . . . . . k l m . . . . . . . . . . . . . . . . . d # # # # # # # # # e . h i . . . . . . . . . . . . . . . . . . . . . ",
". . . . . . . . . . . . . . . . . . . . . . . . 2 n # 3 . . o # p . . . . . . . . . . . . d # # # # # # # # # e . h i . . . . . . . . . . . . . . . . . . . . . ",
". . . . . . . . . . . . . . . . . . . . . . . q r # # o . . ~ 7 . . . . . . . . . . . . . d # # # # # # # # # e . h i . . . . . . . . . . . . . . . . . . . . . ",
". . . . . . . . . . . . . . . . . . . . . & s # # # # t . . u / . . . . . . . . . . . . . d # # # # # # # # # e . h i . . . . . . . . . . . . . . . . . . . . . ",
". . . . . . . . . . . . . . . . . . . . v w # # # # < > . . n x . . . . . . . . . . . . . d # # # # # # # # # e . h i . . . . . . . . . . . . . . . . . . . . . ",
". . . . . . . . . . . . . . . . . . . y z # # # # # $ . . . A ~ . . . . . . . . . . . . . d # # # # # # # # # e . h i . . . . . . . . . . . . . . . . . . . . . ",
". . . . . . . . . . . . . . . . . & B # # # # # # # C . . & # q . . . . . . . . . . . . . d # # # # # # # # # e . h i . . . . . . . . . . . . . . . . . . . . . ",
". . . . . . . . . . . . . . . . 8 D # # # # # # # # ( . . t # E . . . . . . . . . . . . . d # # # # # # # # # e . F i . . . . . . . . . . . . . . . . . . . . . ",
". . . . . . . . . . . . . . . G H # # # # # # # # # I . . J # 8 . . . . . . . . . . . . . d # # # # # # # # # J . K L . . . . . . . . . . . . . . . . . . . . . ",
". . . . . . . . . . . . . ; M # # # # # # # # # # # N . . g # O . . . . . . . . . . . . . d # # # # # # # # # P . Q # t . . . . . . . . . . . . . . . . . . . . ",
". . . . . . . . . . . . . R S # # # # # # # # # # # i . . g # c . . . . . . . . . . . . . T # # # # # # # # # B . U # y . . . . . . . . . . . . . . . . . . . . ",
". . . . . . . . . . . . . . . } $ # # # # # # # # # z . . v # E . . . . . . . . . . . . . V # # # # # # # # # [ U > i W . . . . . . . . . . . . . . . . . . . . ",
". . . . . . . . . . . . . . . . ~ # # # # # # # # # # p . X # 3 . . . . . . . . . . . . . w # # # # # # # # # # Y Z ` 4 6 . . . . . . . . . . . . . . . . . . . ",
". . . . . . . . . . . . . . . .  .$ # # # # # # # # # % . . C ... . . . . . . . . . . . . C # # # # # # # # # # # h . F [ +.. . . . . . . . . . . . . . . . . . ",
". . . . . . . . . . . . . . . . . @.# # # # # # # # # : . . @ #.. . . . . . . . . . . . X # # # # # # # # # # # # - . . +.# J . . . . . . . . . . . . . . . . . ",
". . . . . . . . . . . . . . . . . E # # # # # # # # # @ . . h < _ . . . . . . . . . . . o # # # # # # # # # # # ' & . . $.Y . . . . . . . . . . . . . . . . . . ",
". . . . . . . . . . . . . . . . . . %.# # # # # # # # 4 j . &.' l . . . . . . . . . . . *.# # # # # # # # # # # =.. . . #.-.. . . . . . . . . . . . . . . . . . ",
". . . . . . . . . . . . . . . . . . ` # # # # # # # # # ;.. . >.= 2 . . . . . . . . . . ,.# # # # # # # # # # # '.. . ).# U . . . . . . . . . . . . . . . . . . ",
". . . . . . . . . . . . . . . . . . . !.# # # # # # # # H &.. ; ~.{.k . . . . . . . . ^ # # # # # # # # # # # ].. . . ^.^.. . . . . . . . . . . . . . . . . . . ",
". . . . . . . . . . . . . . . . . . . O H # # # # # # # # /.. . 2 S u . . . . . . . > n # # # # # # # # # # 7 j . . ^ [ v . . . . . . . . . . . . . . . . . . . ",
". . . . . . . . . . . . . . . . . . . . y (.# # # # # # # # _.. . j d :.X . . . . . x # # # # # # # # # # = '.. . p <.m . . . . . . . . . . . . . . . . . . . . ",
". . . . . . . . . . . . . . . . . . . . . [.< # # # # # # # # d X . . o }.y > .  .|.# # # # # # # # # # z % . . > @ @ . . . . . . . . . . . . . . . . . . . . . ",
". . . . . . . . . . . . . . . . . . . . . . 1.' # # # # # # # # A s % _ & e Z >.2.# # # # # # # # # # 3.U . . > u 4.j . . . . . . . . . . . . . . . . . . . . . ",
". . . . . . . . . . . . . . . . . . . . . . . U ,.# # # # # # # # # # # # # # # # # # # # # # # # ] 5.; . . ; * 7 v . . . . . . . . . . . . . . . . . . . . . . ",
". . . . . . . . . . . . . . . . . . . . . . . . & F <.# # # # # # # # # # # # # # # # # # # # 6.d 2 . . . O 7.8.9.. . . . . . . . . . . . . . . . . . . . . . . ",
". . . . . . . . . . . . . . . . . . . . . . J + . . k 3 0.$ # # # # # # # # # # # # # # # I a.e . . . . b.c.d._ . . . . . . . . . . . . . . . . . . . . . . . . ",
". . . . . . . . . . . . . . . . . . . . . . & a.} . . . . ; } ~ e.f.g.Y = 6.h.( D i...q O . . . . . 9./ # W + . . . . . . . . . . . . . . . . . . . . . . . . . ",
". . . . . . . . . . . . . . . . . . . . . . . . q -.9.. . . . . . . . . . . . . . . . . . . . . ).].< j.} . . . . . . . . . . . . . . . . . . . . . . . . . . . ",
". . . . . . . . . . . . . . . . . . . . . . . . .  .;.@.k.k . . . . . . . . . . . . . . . O R 7.# l.K > . . . . . . . . . . . . . . . . . . . . . . . . . . . . ",
". . . . . . . . . . . . . . . . . . . . . . . . . . . ; K d 9 ;.0 )._ + k . ; X c ^ : |.j.# Y W o . . . . . . . . . . . . . . . . . . . . . . . . . . . . . . . ",
". . . . . . . . . . . . . . . . . . . . . . . . . . . . . . + P ;.* m.1 H 4 6.H 7 N :.s n.J . . . . . . . . . . . . . . . . . . . . . . . . . . . . . . . . . . ",
". . . . . . . . . . . . . . . . . . . . . . . . . . . . . . . . . . . . . . . . . . . . . . . . . . . . . . . . . . . . . . . . . . . . . . . . . . . . . . . . ",
". . . . . . . . . . . . . . . . . . . . . . . . . . . . . . . . . . . . . . . . . . . . . . . . . . . . . . . . . . . . . . . . . . . . . . . . . . . . . . . . ",
". . . . . . . . . . . . . . . . . . . . . . . . . . . . . . . . . . . . . . . . . . . . . . . . . . . . . . . . . . . . . . . . . . . . . . . . . . . . . . . . ",
". . . . . . . . . . . . . . . . . . . . . . . . . . . . . . . . . . . . . . . . . . . . . . . . . . . . . . . . . . . . . . . . . . . . . . . . . . . . . . . . ",
". . . . . . . . . . . . . . . . . . . . . . . . . . . . . . . . . . . . . . . . . . . . . . . . . . . . . . . . . . . . . . . . . . . . . . . . . . . . . . . . "};
