/* XPM */
static xpm_row_t const letterB_xpm[] = {
"80 80 169 2",
"  	c None",
". 	c #FF0000",
"+ 	c #FB0000",
"@ 	c #E80000",
"# 	c #D00000",
"$ 	c #B60000",
"% 	c #A20000",
"& 	c #8A0000",
"* 	c #6D0000",
"= 	c #580000",
"- 	c #470000",
"; 	c #2E0000",
"> 	c #160000",
", 	c #350000",
"' 	c #660000",
") 	c #820000",
"! 	c #9B0000",
"~ 	c #B90000",
"{ 	c #D30000",
"] 	c #F00000",
"^ 	c #F90000",
"/ 	c #DB0000",
"( 	c #B20000",
"_ 	c #790000",
": 	c #1C0000",
"< 	c #000000",
"[ 	c #5A0000",
"} 	c #A80000",
"| 	c #DC0000",
"1 	c #FD0000",
"2 	c #D20000",
"3 	c #960000",
"4 	c #2A0000",
"5 	c #5C0000",
"6 	c #BD0000",
"7 	c #F70000",
"8 	c #EA0000",
"9 	c #A90000",
"0 	c #380000",
"a 	c #450000",
"b 	c #BE0000",
"c 	c #FC0000",
"d 	c #DF0000",
"e 	c #890000",
"f 	c #AA0000",
"g 	c #CE0000",
"h 	c #F20000",
"i 	c #FA0000",
"j 	c #F30000",
"k 	c #D60000",
"l 	c #AE0000",
"m 	c #720000",
"n 	c #700000",
"o 	c #E50000",
"p 	c #E90000",
"q 	c #E40000",
"r 	c #420000",
"s 	c #B10000",
"t 	c #E70000",
"u 	c #E20000",
"v 	c #940000",
"w 	c #260000",
"x 	c #C80000",
"y 	c #F80000",
"z 	c #C40000",
"A 	c #F50000",
"B 	c #3D0000",
"C 	c #B70000",
"D 	c #DA0000",
"E 	c #4D0000",
"F 	c #B30000",
"G 	c #B00000",
"H 	c #DE0000",
"I 	c #B40000",
"J 	c #8D0000",
"K 	c #5F0000",
"L 	c #220000",
"M 	c #490000",
"N 	c #680000",
"O 	c #BB0000",
"P 	c #710000",
"Q 	c #A10000",
"R 	c #CB0000",
"S 	c #EF0000",
"T 	c #A60000",
"U 	c #D40000",
"V 	c #F60000",
"W 	c #C90000",
"X 	c #8F0000",
"Y 	c #830000",
"Z 	c #C50000",
"` 	c #EE0000",
" .	c #9D0000",
"..	c #4B0000",
"+.	c #6E0000",
"@.	c #CC0000",
"#.	c #C70000",
"$.	c #A50000",
"%.	c #AC0000",
"&.	c #D80000",
"*.	c #E30000",
"=.	c #0D0000",
"-.	c #320000",
";.	c #4F0000",
">.	c #F10000",
",.	c #690000",
"'.	c #7D0000",
").	c #A40000",
"!.	c #950000",
"~.	c #EB0000",
"{.	c #5D0000",
"].	c #FE0000",
"^.	c #510000",
"/.	c #880000",
"(.	c #970000",
"_.	c #D90000",
":.	c #770000",
"<.	c #3B0000",
"[.	c #730000",
"}.	c #E00000",
"|.	c #E60000",
"1.	c #7A0000",
"2.	c #DD0000",
"3.	c #D50000",
"4.	c #E10000",
"5.	c #A30000",
"6.	c #F40000",
"7.	c #530000",
"8.	c #D70000",
"9.	c #9A0000",
"0.	c #7E0000",
"a.	c #ED0000",
"b.	c #CA0000",
"c.	c #AD0000",
"d.	c #810000",
"e.	c #C20000",
"f.	c #7C0000",
"g.	c #550000",
"h.	c #800000",
"i.	c #D10000",
"j.	c #B80000",
"k.	c #760000",
"l.	c #930000",
"m.	c #9E0000",
"n.	c #600000",
"o.	c #840000",
"p.	c #BC0000",
"q.	c #EC0000",
"r.	c #400000",
"s.	c #8E0000",
"t.	c #630000",
"u.	c #560000",
"v.	c #6A0000",
"w.	c #B50000",
"x.	c #AF0000",
"y.	c #9C0000",
"z.	c #A70000",
"A.	c #850000",
"B.	c #BF0000",
"C.	c #C60000",
"D.	c #650000",
"E.	c #A00000",
"F.	c #C00000",
"G.	c #620000",
"H.	c #6C0000",
"I.	c #CD0000",
"J.	c #860000",
"K.	c #870000",
"L.	c #910000",
". . . . . . . . . . . . . . . . . . . . . . . . . . . . . . . . . . . . . . . . . . . . . . . . . . . . . . . . . . . . . . . . . . . . . . . . . . . . . . . . ",
". . . . . . . . . . . . . . . . . . . . . . . . . . . . . . . . . . . . . . . . . . . . . . . . . . . . . . . . . . . . . . . . . . . . . . . . . . . . . . . . ",
". . . . . . . . . . . . . . . . . . . . . . . . . . . . . . . . . . . . . . . . . . . . . . . . . . . . . . . . . . . . . . . . . . . . . . . . . . . . . . . . ",
". . . . . . . . . . . . . . . . . . . . . . . . . . . . . . . . . . . . . . . . . . . . . . . . . . . . . . . . . . . . . . . . . . . . . . . . . . . . . . . . ",
". . . . . . . . . . . . . . . . . . . . . . . . . . . . . . . . . . . . . . . . . . . . . . . . . . . . . . . . . . . . . . . . . . . . . . . . . . . . . . . . ",
". . . . . . . . . . . . . . . . . . . . . . . . . . . . . . . . . . . . . . . . . . . . . . . . . . . . . . . . . . . . . . . . . . . . . . . . . . . . . . . . ",
". . . . . . . . . . . . . . . . . . . . . . . . . . . . + @ # $ % & * = - ; > , - ' ) ! ~ { ] . . . . . . . . . . . . . . . . . . . . . . . . . . . . . . . . . ",
". . . . . . . . . . . . . . . . . . . . . . . . ^ / ( _ : < < < < < < < < < < < < < < < < < < [ } | 1 . . . . . . . . . . . . . . . . . . . . . . . . . . . . . ",
". . . . . . . . . . . . . . . . . . . . . ^ 2 3 4 < < < < < < < < < < < < < < < < < < < < < < < < < 5 6 7 . . . . . . . . . . . . . . . . . . . . . . . . . . . ",
". . . . . . . . . . . . . . . . . . . 8 9 0 < < < < < < < < < < < < < < < < < < < < < < < < < < < < < < a b c . . . . . . . . . . . . . . . . . . . . . . . . . ",
". . . . . . . . . . . . . . . . . d e < < < < < < < < < < < < < * f g @ h i c j 8 k l m < < < < < < < < < < n o . . . p . . . . . . . . . . . . . . . . . . . . ",
". . . . . . . . . . . . . . . q & < < < < < < < < < < < < r s t . . . . . . . . . . . . u v < < < < < < < < < w x . . y z c . . . . . . . . . . . . . . . . . . ",
". . . . . . . . . . . . . A % < < < < < < < < < < < < B C 7 . . . . . . . . . . . . . . . . D E < < < < < < < < < F . . A 9 c . . . . . . . . . . . . . . . . . ",
". . . . . . . . . . . . / - < < < < < < < < < < < < < G . . . . 1 H I J K B L M N v O p . . . h P < < < < < < < < < C . . @ Q . . . . . . . . . . . . . . . . . ",
". . . . . . . . . . . . 1 R = < < < < < < < < < < < < G . . S G M , T U S ^ 1 V o W X > Y q . . h 5 < < < < < < < < < U . . 6 Z . . . . . . . . . . . . . . . . ",
". . . . . . . . . . . . . . + b r < < < < < < < < < < G . . > > s V . . . . . . . . . `  .: z . . t > < < < < < < < < ..V . c +.] . . . . . . . . . . . . . . . ",
". . . . . . . . . . . . . . . . V } < < < < < < < < < G . . < @.. . . . . . . . . . . . . U , #.. . $.< < < < < < < < < %.. . g  .. . . . . . . . . . . . . . . ",
". . . . . . . . . . . . . . . . . t < < < < < < < < < G . . < &.. . . . . . . . . . . . . . *.B *.. h =.< < < < < < < < -.V . + ;.>.. . . . . . . . . . . . . . ",
". . . . . . . . . . . . . . . . . t < < < < < < < < < G . . < &.. . . . . . . . . . . . . . . &.,.c . '.< < < < < < < < < R . . ).b . . . . . . . . . . . . . . ",
". . . . . . . . . . . . . . . . . t < < < < < < < < < G . . < &.. . . . . . . . . . . . . . . . I #.. O < < < < < < < < < !.. . 2 Y . . . . . . . . . . . . . . ",
". . . . . . . . . . . . . . . . . t < < < < < < < < < G . . < &.. . . . . . . . . . . . . . . . . ~.. { < < < < < < < < < {.. . ~.; ].. . . . . . . . . . . . . ",
". . . . . . . . . . . . . . . . . t < < < < < < < < < G . . < &.. . . . . . . . . . . . . . . . . . . d < < < < < < < < < < + . c < ` . . . . . . . . . . . . . ",
". . . . . . . . . . . . . . . . . t < < < < < < < < < G . . < &.. . . . . . . . . . . . . . . . . . . p < < < < < < < < < < A . . ; q . . . . . . . . . . . . . ",
". . . . . . . . . . . . . . . . . t < < < < < < < < < G . . < &.. . . . . . . . . . . . . . . . . . . q < < < < < < < < < < A . . -.H . . . . . . . . . . . . . ",
". . . . . . . . . . . . . . . . . t < < < < < < < < < G . . < &.. . . . . . . . . . . . . . . . . . . k < < < < < < < < < < 1 . + < o . . . . . . . . . . . . . ",
". . . . . . . . . . . . . . . . . t < < < < < < < < < G . . < &.. . . . . . . . . . . . . . . . . . . 6 < < < < < < < < < ^.. . >.< ` . . . . . . . . . . . . . ",
". . . . . . . . . . . . . . . . . t < < < < < < < < < G . . < &.. . . . . . . . . . . . . . . . . . . /.< < < < < < < < < (.. . _.: i . . . . . . . . . . . . . ",
". . . . . . . . . . . . . . . . . t < < < < < < < < < G . . < &.. . . . . . . . . . . . . . . . . . >.> < < < < < < < < < #.. . I :.. . . . . . . . . . . . . . ",
". . . . . . . . . . . . . . . . . t < < < < < < < < < G . . < &.. . . . . . . . . . . . . . . . . . f < < < < < < < < < <.7 . . [.l . . . . . . . . . . . . . . ",
". . . . . . . . . . . . . . . . . t < < < < < < < < < G . . < &.. . . . . . . . . . . . . . . . . }.> < < < < < < < < < G . . }.< |.. . . . . . . . . . . . . . ",
". . . . . . . . . . . . . . . . . t < < < < < < < < < G . . < &.. . . . . . . . . . . . . . . . ~.^.< < < < < < < < < ' i . . v 1.. . . . . . . . . . . . . . . ",
". . . . . . . . . . . . . . . . . t < < < < < < < < < G . . < &.. . . . . . . . . . . . . . . 2.E < < < < < < < < < B |.. . 3.< 4.. . . . . . . . . . . . . . . ",
". . . . . . . . . . . . . . . . . t < < < < < < < < < G . . < &.. . . . . . . . . . . . . ] 5.=.< < < < < < < < < r q . . 6.7.T . . . . . . . . . . . . . . . . ",
". . . . . . . . . . . . . . . . . t < < < < < < < < < G . . < &.. . . . . . . . . . i 8.9.: < < < < < < < < < < 0.a.. . 7 [.Y + . . . . . . . . . . . . . . . . ",
". . . . . . . . . . . 1 ^ . . . . t < < < < < < < < < G . . < &.. . 1 i j 8 | b.c.d.L < < < < < < < < < < < ;.e.1 . . h f.1.V . . . . . . . . . . . . . . . . . ",
". . . . . . . . . . . z < L E 5 N P < < < < < < < < < M > g.< ,.5 > < < < < < < < < < < < < < < < < < < * e.i . . . _... .+ . . . . . . . . . . . . . . . . . . ",
". . . . . . . . . . 1 K < < < < < < < < < < < < < < < < < < < < < < < < < < < < < < < < < < < < < < h.t . . . . u & 7.# . . . . . . . . . . . . . . . . . . . . ",
". . . . . . . . . . i.< < < < < < < < < < < < < < < < < < < < < < < < < < < < < < < < < < < < < < < , X z d j.P - $ y . . . . . . . . . . . . . . . . . . . . . ",
". . . . . . . . . . k.< < < < < < < < < < < < < < < < < < < < < < < < < < < < < < < < < < < < < < < < < < < < l.i . . . . . . . . . . . . . . . . . . . . . . . ",
". . . . . . . . . 6.~ #.2 | u |.p 2 < < < < < < < < < m.8 h ^ 1 . c + y h a.*.8.x ( (.n.< < < < < < < < < < < < o.o . . . . . . . . . . . . . . . . . . . . . . ",
". . . . . . . . . . . . . . . . . t < < < < < < < < < G . . . . . . . . . . . . . . . . V U % 0 < < < < < < < < < : p.].. . . . . . . . . . . . . . . . . . . . ",
". . . . . . . . . . . . . + h q.|.g < < < < < < < < < G . . . . . . . . . . . . . . . . . . . ^ b r.< < < < < < < < < s.+ . . . . . . . . . . . . . . . . . . . ",
". . . . . . . . . . p t., < < < < < < < < < < < < < < G . . ' u.r 4 =.> w <.^.v.) ! I g ~.. . . . S k.< < < < < < < < < /.i . . + . . . . . . . . . . . . . . . ",
". . . . . . . . . . c w.#.&.@ S A u < < < < < < < < < G . . < ~ *.` 7 ].+ y A ~.}.2 j.3 E g.x.h . . V * < < < < < < < < < y.. t 1.j . . . . . . . . . . . . . . ",
". . . . . . . . . . . . . . . . . t < < < < < < < < < G . . < &.. . . . . . . . . . . . ].q $.r.~ ].. p : < < < < < < < < < #.. e.P y . . . . . . . . . . . . . ",
". . . . . . . . . . . . . . . . . t < < < < < < < < < G . . < &.. . . . . . . . . . . . . . . >.X X i . z.< < < < < < < < < <.6.].A.(.. . . . . . . . . . . . . ",
". . . . . . . . . . . . . . . . . t < < < < < < < < < G . . < &.. . . . . . . . . . . . . . . . . B.(.].@ < < < < < < < < < < z.. 8 > 3.. . . . . . . . . . . . ",
". . . . . . . . . . . . . . . . . t < < < < < < < < < G . . < &.. . . . . . . . . . . . . . . . . . C.b . D.< < < < < < < < < w V . E.+.].. . . . . . . . . . . ",
". . . . . . . . . . . . . . . . . t < < < < < < < < < G . . < &.. . . . . . . . . . . . . . . . . . . G S 5.< < < < < < < < < < Z . t < H . . . . . . . . . . . ",
". . . . . . . . . . . . . . . . . t < < < < < < < < < G . . < &.. . . . . . . . . . . . . . . . . . . 1 7 F.< < < < < < < < < < /.. . +.} . . . . . . . . . . . ",
". . . . . . . . . . . . . . . . . t < < < < < < < < < G . . < &.. . . . . . . . . . . . . . . . . . . . . 2 < < < < < < < < < < B ].. I N . . . . . . . . . . . ",
". . . . . . . . . . . . . . . . . t < < < < < < < < < G . . < &.. . . . . . . . . . . . . . . . . . . . . _.< < < < < < < < < < < a.. _.< y . . . . . . . . . . ",
". . . . . . . . . . . . . . . . . t < < < < < < < < < G . . < &.. . . . . . . . . . . . . . . . . . . . . | < < < < < < < < < < < u . ` < t . . . . . . . . . . ",
". . . . . . . . . . . . . . . . . t < < < < < < < < < G . . < &.. . . . . . . . . . . . . . . . . . . . . { < < < < < < < < < < < &.. + < / . . . . . . . . . . ",
". . . . . . . . . . . . . . . . . t < < < < < < < < < G . . < &.. . . . . . . . . . . . . . . . . . . . . x < < < < < < < < < < < 8.. . : 3.. . . . . . . . . . ",
". . . . . . . . . . . . . . . . . t < < < < < < < < < G . . < &.. . . . . . . . . . . . . . . . . . . . . w.< < < < < < < < < < < d . ].< 3.. . . . . . . . . . ",
". . . . . . . . . . . . . . . . . t < < < < < < < < < G . . < &.. . . . . . . . . . . . . . . . . . . . . d.< < < < < < < < < < < ` . y < / . . . . . . . . . . ",
". . . . . . . . . . . . . . . . . t < < < < < < < < < G . . < &.. . . . . . . . . . . . . . . . . . . . i L < < < < < < < < < < , 1 . ] < |.. . . . . . . . . . ",
". . . . . . . . . . . . . . . . . t < < < < < < < < < G . . < &.. . . . . . . . . . . . . . . . . . . . #.< < < < < < < < < < < J . . / < 7 . . . . . . . . . . ",
". . . . . . . . . . . . . . . . . t < < < < < < < < < G . . < &.. . . . . . . . . . . . . . . . . . . c {.< < < < < < < < < < < b.. . F.G.. . . . . . . . . . . ",
". . . . . . . . . . . . . . . . . t < < < < < < < < < G . . < &.. . . . . . . . . . . . . . . . . . . I < < < < < < < < < < < B y . . v 5.. . . . . . . . . . . ",
". . . . . . . . . . . . . . . . . t < < < < < < < < < G . . < &.. . . . . . . . . . . . . . . . . . i.< < < < < < < < < < < < O . . y 4 &.. . . . . . . . . . . ",
". . . . . . . . . . . . . . . . . t < < < < < < < < < G . . < &.. . . . . . . . . . . . . . . . . e.: < < < < < < < < < < < H.+ . . I.^.1 . . . . . . . . . . . ",
". . . . . . . . . . . . . . . . . t < < < < < < < < < G . . < &.. . . . . . . . . . . . . . . ~.v < < < < < < < < < < < < <.@ . . 1 ,.F.. . . . . . . . . . . . ",
". . . . . . . . . . . . . . . . + ! < < < < < < < < < G . . < &.. . . . . . . . . . . . ^ &.3 =.< < < < < < < < < < < < ; / . . . R [ ^ . . . . . . . . . . . . ",
". . . . . . . . . . . . . . . 7 A.< < < < < < < < < < G . . < &.. 1 ^ A ] q.@ *.8.z c.J.w < < < < < < < < < < < < < < ..}.. . . ` r.8.. . . . . . . . . . . . . ",
". . . . . . . . . . . . . . ] * < < < < < < < < < < < < < < < < < < < < < < < < < < < < < < < < < < < < < < < < < < K.>.. . . i 1.c.. . . . . . . . . . . . . . ",
". . . . . . . . . . . . . t g.< < < < < < < < < < < < < < < < < < < < < < < < < < < < < < < < < < < < < < < < < N i.. . . . i o.J 1 . . . . . . . . . . . . . . ",
". . . . . . . . . . . . / <.< < < < < < < < < < < < < < < < < < < < < < < < < < < < < < < < < < < < < < < 4 v k ].. . . . S '.& + . . . . . . . . . . . . . . . ",
". . . . . . . . . . . @.: < < < < < < < < < < < < < < < < < < < < < < < < < < < < < < < < < : 0 [ f.! p.| + . . . . . . i.r } c . . . . . . . . . . . . . . . . ",
". . . . . . . . . . . . . . . . . . . . . . . . . . . . . . . . . . . . . . . . . . . . . . . . . . . . . . . . . . u h.u.k . . . . . . . . . . . . . . . . . . ",
". . . . . . . . . . . . . . . . . . . . . . . . . . . . . . . . . . . . . . . . . . . . . . . . . . . . . . . ` C.0.E b ^ . . . . . . . . . . . . . . . . . . . ",
". . . . . . . . . . . . . . . . . . . . . . . . . . . . . . . . . . . . . . . . . . . . ].1 i A ` o D W I l.g.r.(.3.c . . . . . . . . . . . . . . . . . . . . . ",
". . . . . . . . . . . . ].L.< < < < < < < < < < < < < < < < < < < < < < < < < < < < < < < < < : <.7.[.s.f x q 1 . . . . . . . . . . . . . . . . . . . . . . . . ",
". . . . . . . . . . . . . . . . . . . . . . . . . . . . . . . . . . . . . . . . . . . . . . . . . . . . . . . . . . . . . . . . . . . . . . . . . . . . . . . . ",
". . . . . . . . . . . . . . . . . . . . . . . . . . . . . . . . . . . . . . . . . . . . . . . . . . . . . . . . . . . . . . . . . . . . . . . . . . . . . . . . ",
". . . . . . . . . . . . . . . . . . . . . . . . . . . . . . . . . . . . . . . . . . . . . . . . . . . . . . . . . . . . . . . . . . . . . . . . . . . . . . . . ",
". . . . . . . . . . . . . . . . . . . . . . . . . . . . . . . . . . . . . . . . . . . . . . . . . . . . . . . . . . . . . . . . . . . . . . . . . . . . . . . . ",
". . . . . . . . . . . . . . . . . . . . . . . . . . . . . . . . . . . . . . . . . . . . . . . . . . . . . . . . . . . . . . . . . . . . . . . . . . . . . . . . ",
". . . . . . . . . . . . . . . . . . . . . . . . . . . . . . . . . . . . . . . . . . . . . . . . . . . . . . . . . . . . . . . . . . . . . . . . . . . . . . . . "};
