/* XPM */
static xpm_row_t const letterE_xpm[] = {
"80 80 144 2",
"  	c None",
". 	c #FF0000",
"+ 	c #FE0000",
"@ 	c #B60000",
"# 	c #000000",
"$ 	c #B80000",
"% 	c #D60000",
"& 	c #3D0000",
"* 	c #8D0000",
"= 	c #EC0000",
"- 	c #6C0000",
"; 	c #550000",
"> 	c #F50000",
", 	c #FD0000",
"' 	c #A10000",
") 	c #FA0000",
"! 	c #F90000",
"~ 	c #960000",
"{ 	c #0D0000",
"] 	c #DE0000",
"^ 	c #B30000",
"/ 	c #660000",
"( 	c #F80000",
"_ 	c #BD0000",
": 	c #160000",
"< 	c #450000",
"[ 	c #E60000",
"} 	c #EB0000",
"| 	c #F00000",
"1 	c #F40000",
"2 	c #FC0000",
"3 	c #F70000",
"4 	c #F10000",
"5 	c #E70000",
"6 	c #D70000",
"7 	c #C30000",
"8 	c #A20000",
"9 	c #600000",
"0 	c #AE0000",
"a 	c #D90000",
"b 	c #220000",
"c 	c #E50000",
"d 	c #DB0000",
"e 	c #420000",
"f 	c #4D0000",
"g 	c #580000",
"h 	c #490000",
"i 	c #BB0000",
"j 	c #880000",
"k 	c #F30000",
"l 	c #FB0000",
"m 	c #DD0000",
"n 	c #D40000",
"o 	c #970000",
"p 	c #810000",
"q 	c #3B0000",
"r 	c #1C0000",
"s 	c #350000",
"t 	c #470000",
"u 	c #620000",
"v 	c #800000",
"w 	c #9A0000",
"x 	c #DA0000",
"y 	c #8B0000",
"z 	c #EE0000",
"A 	c #C90000",
"B 	c #F20000",
"C 	c #E90000",
"D 	c #6A0000",
"E 	c #A80000",
"F 	c #D50000",
"G 	c #F60000",
"H 	c #510000",
"I 	c #C10000",
"J 	c #BF0000",
"K 	c #530000",
"L 	c #A30000",
"M 	c #920000",
"N 	c #760000",
"O 	c #ED0000",
"P 	c #7A0000",
"Q 	c #CA0000",
"R 	c #2E0000",
"S 	c #AD0000",
"T 	c #C20000",
"U 	c #8E0000",
"V 	c #A40000",
"W 	c #D80000",
"X 	c #E40000",
"Y 	c #320000",
"Z 	c #BE0000",
"` 	c #5D0000",
" .	c #950000",
"..	c #B40000",
"+.	c #A70000",
"@.	c #C70000",
"#.	c #E20000",
"$.	c #890000",
"%.	c #630000",
"&.	c #9D0000",
"*.	c #CD0000",
"=.	c #C50000",
"-.	c #B90000",
";.	c #820000",
">.	c #850000",
",.	c #A60000",
"'.	c #CF0000",
").	c #6E0000",
"!.	c #B20000",
"~.	c #5F0000",
"{.	c #400000",
"].	c #EA0000",
"^.	c #E10000",
"/.	c #9C0000",
"(.	c #770000",
"_.	c #B50000",
":.	c #870000",
"<.	c #2A0000",
"[.	c #AB0000",
"}.	c #A00000",
"|.	c #AA0000",
"1.	c #B70000",
"2.	c #A50000",
"3.	c #E00000",
"4.	c #720000",
"5.	c #860000",
"6.	c #7C0000",
"7.	c #CE0000",
"8.	c #560000",
"9.	c #7F0000",
"0.	c #CB0000",
"a.	c #9B0000",
"b.	c #C80000",
"c.	c #E30000",
"d.	c #C40000",
"e.	c #D20000",
"f.	c #260000",
"g.	c #E80000",
"h.	c #990000",
"i.	c #4F0000",
"j.	c #840000",
"k.	c #8C0000",
"l.	c #930000",
"m.	c #650000",
". . . . . . . . . . . . . . . . . . . . . . . . . . . . . . . . . . . . . . . . . . . . . . . . . . . . . . . . . . . . . . . . . . . . . . . . . . . . . . . . ",
". . . . . . . . . . . . . . . . . . . . . . . . . . . . . . . . . . . . . . . . . . . . . . . . . . . . . . . . . . . . . . . . . . . . . . . . . . . . . . . . ",
". . . . . . . . . . . . . . . . . . . . . . . . . . . . . . . . . . . . . . . . . . . . . . . . . . . . . . . . . . . . . . . . . . . . . . . . . . . . . . . . ",
". . . . . . . . . . . . . . . . . . . . . . . . . . . . . . . . . . . . . . . . . . . . . . . . . . . . . . . . . . . . . . . . . . . . . . . . . . . . . . . . ",
". . . . . . . . . . . . . . . . . . . . . . . . . . . . . . . . . . . . . . . . . . . . . . . . . . . . . . . . . . . . . . . . . . . . . . . . . . . . . . . . ",
". . . . . . . . . . . . . . . . . . . . . . . . . . . . . . . . . . . . . . . . . . . . . . . . . . . . . . . . . . . . . . . . . . . . . . . . . . . . . . . . ",
". . . . . . . . . . . . . . . . . . . . . . . . . . . . . . . . . . . . . . . . . . . . . . . . . . . . . . . . . . . . . . . . . . . . . . . . . . . . . . . . ",
". . . . . . . . . . . . . + @ # # # # # # # # # # # # # # # # # # # # # # # # # # # # # # # # # # # # # # # # # # # # # # # # # # $ . . . . . . . . . . . . . . ",
". . . . . . . . . . . . . . . % & # # # # # # # # # # # # # # # # # # # # # # # # # # # # # # # # # # # # # # # # # # # # # # # * + . . . . . . . . . . . . . . ",
". . . . . . . . . . . . . . . . = - # # # # # # # # # # # # # # # # # # # # # # # # # # # # # # # # # # # # # # # # # # # # # ; > . , ' ) . . . . . . . . . . . ",
". . . . . . . . . . . . . . . . . ! ~ # # # # # # # # # # # # # # # # # # # # # # # # # # # # # # # # # # # # # # # # # # # { ] . . ^ / ( . . . . . . . . . . . ",
". . . . . . . . . . . . . . . . . . . _ : # # # # # # # # # < [ } | 1 ( ) , + . + 2 3 4 5 6 7 8 9 # # # # # # # # # # # # # 0 . . a b c . . . . . . . . . . . . ",
". . . . . . . . . . . . . . . . . . . . d e # # # # # # # # f . . . . . . . . . . . . . . . . . . 5 ' { # # # # # # # # # g ! . 1 h i . . . . . . . . . . . . . ",
". . . . . . . . . . . . . . . . . . . . . j # # # # # # # # f . . . k > ( l , + . . . . . . . . . . . m < # # # # # # # # n . . o p , . . . . . . . . . . . . . ",
". . . . . . . . . . . . . . . . . . . . . j # # # # # # # # f . . . q # # # # # # r s t u v w i x l . . [ q # # # # # # y . . n s z . . . . . . . . . . . . . . ",
". . . . . . . . . . . . . . . . . . . . . j # # # # # # # # f . . . q A = | > ! , . + 2 ! B C 6 @ D E k . F # # # # # # c . G H I . . . . . . . . . . . . . . . ",
". . . . . . . . . . . . . . . . . . . . . j # # # # # # # # f . . . q ] . . . . . . . . . . . . . 2 J K % . L # # # # M . . 0 N , . . . . . . . . . . . . . . . ",
". . . . . . . . . . . . . . . . . . . . . j # # # # # # # # f . . . q ] . . . . . . . . . . . . . . . O P Q G h # # # [ . z R c . . . . . . . . . . . . . . . . ",
". . . . . . . . . . . . . . . . . . . . . j # # # # # # # # f . . . q ] . . . . . . . . . . . . . . . . 2 S 6 T # # U . . o V . . . . . . . . . . . . . . . . . ",
". . . . . . . . . . . . . . . . . . . . . j # # # # # # # # f . . . q ] . . . . . . . . . . . . . . . . . . d B H # W . X Y 4 . . . . . . . . . . . . . . . . . ",
". . . . . . . . . . . . . . . . . . . . . j # # # # # # # # f . . . q ] . . . . . . . . . . . . . . . . . . . . Z ` + .  .... . . . . . . . . . . . . . . . . . ",
". . . . . . . . . . . . . . . . . . . . . j # # # # # # # # f . . . q ] . . . . . . . . . . . . . . . . . . . . G T . } s G . . . . . . . . . . . . . . . . . . ",
". . . . . . . . . . . . . . . . . . . . . j # # # # # # # # f . . . q ] . . . . . . . . . . . . . . . . . . . . . + . 8 +.. . . . . . . . . . . . . . . . . . . ",
". . . . . . . . . . . . . . . . . . . . . j # # # # # # # # f . . . q ] . . . . . . . . . . . . . . . . . . . . . . . @.C . . . . . . . . . . . . . . . . . . . ",
". . . . . . . . . . . . . . . . . . . . . j # # # # # # # # f . . . q ] . . . . . . . . . . . . . . . . . . . . . . . . . . . . . . . . . . . . . . . . . . . . ",
". . . . . . . . . . . . . . . . . . . . . j # # # # # # # # f . . . q ] . . . . . . . . . . . . . . = . . . . . . . . . . . . . . . . . . . . . . . . . . . . . ",
". . . . . . . . . . . . . . . . . . . . . j # # # # # # # # f . . . q ] . . . . . . . . . . . . . a ... } #.. . . . . . . . . . . . . . . . . . . . . . . . . . ",
". . . . . . . . . . . . . . . . . . . . . j # # # # # # # # f . . . q ] . . . . . . . . . . . . k f ^ . x f . . . . . . . . . . . . . . . . . . . . . . . . . . ",
". . . . . . . . . . . . . . . . . . . . . j # # # # # # # # f . . . q ] . . . . . . . . . . . + $.# ^ . x f . . . . . . . . . . . . . . . . . . . . . . . . . . ",
". . . . . . . . . . . . . . . . . . . . . j # # # # # # # # f . . . q ] . . . . . . . . . . . Z # # ^ . x f . . . . . . . . . . . . . . . . . . . . . . . . . . ",
". . . . . . . . . . . . . . . . . . . . . j # # # # # # # # f . . . q ] . . . . . . . . . . X b # # ^ . x f . . . . . . . . . . . . . . . . . . . . . . . . . . ",
". . . . . . . . . . . . . . . . . . . . . j # # # # # # # # f . . . q ] . . . . . . . . . ( %.# # # ^ . x f . . . . . . . . . . . . . . . . . . . . . . . . . . ",
". . . . . . . . . . . . . . . . . . . . . j # # # # # # # # f . . . q ] . . . . . . . . . &.# # # # ^ . x f . . . . . . . . . . . . . . . . . . . . . . . . . . ",
". . . . . . . . . . . . . . . . . . . . . j # # # # # # # # f . . . q ] . . . . . . . . *.# # # # # ^ . x f . . . . . . . . . . . . . . . . . . . . . . . . . . ",
". . . . . . . . . . . . . . . . G =.~ u & # # # # # # # # # # # # # # # # # # # # # # # # # # # # # ^ . x f . . . . . . . . . . . . . . . . . . . . . . . . . . ",
". . . . . . . . . . . . . . 2 -.R # # # # # # # # # # # # # # # # # # # # # # # # # # # # # # # # # ^ . x f . . . . . . . . . . . . . . . . . . . . . . . . . . ",
". . . . . . . . . . . . . ( ;.# # # # # # # # # # # # # # # # # # # # # # # # # # # # # # # # # # # ^ . x f . . . . . . . . . . . . . . . . . . . . . . . . . . ",
". . . . . . . . . . . . + >.# # # # # # # # # # # # # # # # # # # # # # # # # # # # # # # # # # # # ^ . x f . . . . . . . . . . . . . . . . . . . . . . . . . . ",
". . . . . . . . . . . . _ # # f ,.W = ( . j # # # # # # # # f . . . . . . . . . . . . . '.# # # # # ^ . x f . . . . . . . . . . . . . . . . . . . . . . . . . . ",
". . . . . . . . . . . G & e T 2 . . . . . j # # # # # # # # f . . . . . . . . . . . . . . L # # # # ^ . x f . . . . . . . . . . . . . . . . . . . . . . . . . . ",
". . . . . . . . . . . J * G . . . . . . . j # # # # # # # # f . . . . . . . . . . . . . . ) ).# # # ^ . x f . . . . . . . . . . . . . . . . . . . . . . . . . . ",
". . . . . . . . . . . Q , . . . ( a !.* ~.{ # # # # # # # # f . . . q # # # # # # # # # {.6 ].s # # ^ . x f . . . . . . . . . . . . . . . . . . . . . . . . . . ",
". . . . . . . . . . . . . . ^./.R (._.d | :.# # # # # # # # f . . . q ] . . . . . . . . . . . *.# # ^ . x f . . . . . . . . . . . . . . . . . . . . . . . . . . ",
". . . . . . . . . . . . . ..<.[.].. . . . j # # # # # # # # f . . . q ] . . . . . . . . . . . . }.# ^ . x f . . . . . . . . . . . . . . . . . . . . . . . . . . ",
". . . . . . . . . . . . . z | . . . . . . j # # # # # # # # f . . . q ] . . . . . . . . . . . . ) - ^ . x f . . . . . . . . . . . . . . . . . . . . . . . . . . ",
". . . . . . . . . . . . . . . . . . . . . j # # # # # # # # f . . . q ] . . . . . . . . . . . . . C -.. x f . . . . . . . . . . . . . . . . . . . . . . . . . . ",
". . . . . . . . . . . . . . . . . . . . . j # # # # # # # # f . . . q ] . . . . . . . . . . . . . . 3 . x f . . . . . . . . . . . . . . . . . . . . . . . . . . ",
". . . . . . . . . . . . . . . . . . . . . j # # # # # # # # f . . . q ] . . . . . . . . . . . . . . . . d f . . . . . . . . . . . . . . . . . . . . . . . . . . ",
". . . . . . . . . . . . . . . . . . . . . j # # # # # # # # f . . . q ] . . . . . . . . . . . . . . . . + n . . . . . . . . . . . . . . . . . . . . . . . . . . ",
". . . . . . . . . . . . . . . . . . . . . j # # # # # # # # f . . . q ] . . . . . . . . . . . . . . . . . . . . . . . . . . . . . . . . . . . . . . . . . . . . ",
". . . . . . . . . . . . . . . . . . . . . j # # # # # # # # f . . . q ] . . . . . . . . . . . . . . . . . . . . . . . . . . . . . . . . . . . . . . . . . . . . ",
". . . . . . . . . . . . . . . . . . . . . j # # # # # # # # f . . . q ] . . . . . . . . . . . . . . . . . . . . . . . . . . . . . . . . . . . . . . . . . . . . ",
". . . . . . . . . . . . . . . . . . . . . j # # # # # # # # f . . . q ] . . . . . . . . . . . . . . . . . . . . . . . . . . . . . . . . . . . . . . . . . . . . ",
". . . . . . . . . . . . . . . . . . . . . j # # # # # # # # f . . . q ] . . . . . . . . . . . . . . . . . . . . . . O W . . . . . . . . . . . . . . . . . . . . ",
". . . . . . . . . . . . . . . . . . . . . j # # # # # # # # f . . . q ] . . . . . . . . . . . . . . . . . . . . . . M |.. . . . . . . . . . . . . . . . . . . . ",
". . . . . . . . . . . . . . . . . . . . . j # # # # # # # # f . . . q ] . . . . . . . . . . . . . . . . . . . . . 6 # / . . . . . . . . . . . . . . . . . . . . ",
". . . . . . . . . . . . . . . . . . . . . j # # # # # # # # f . . . q ] . . . . . . . . . . . . . . . . . . . . l u # # C . G y 5 . . . . . . . . . . . . . . . ",
". . . . . . . . . . . . . . . . . . . . . j # # # # # # # # f . . . q ] . . . . . . . . . . . . . . . . . . . . 1.# # # $ . . 2.j . . . . . . . . . . . . . . . ",
". . . . . . . . . . . . . . . . . . . . . j # # # # # # # # f . . . q ] . . . . . . . . . . . . . . . . . . . ].<.# # # ` + . O r 3.. . . . . . . . . . . . . . ",
". . . . . . . . . . . . . . . . . . . . . j # # # # # # # # f . . . q ] . . . . . . . . . . . . . . . . . . l 4.# # # # # 6 . . L 5.. . . . . . . . . . . . . . ",
". . . . . . . . . . . . . . . . . . . . . j # # # # # # # # f . . . q ] . . . . . . . . . . . . . . . . . , w # # # # # # 6.. . k q 7.. . . . . . . . . . . . . ",
". . . . . . . . . . . . . . . . . . . . . j # # # # # # # # f . . . q ] . . . . . . . . . . . . . . . . !  .# # # # # # # # F . . T h 1 . . . . . . . . . . . . ",
". . . . . . . . . . . . . . . . . . . . . j # # # # # # # # f . . . q ] . . . . . . . . . . . . . . . d ~.# # # # # # # # # 8.3 . + 9.w . . . . . . . . . . . . ",
". . . . . . . . . . . . . . . . . . . . 7.R # # # # # # # # f . . . q ] . . . . . . . . . . . . k 0.N # # # # # # # # # # # # a.. . z & b.. . . . . . . . . . . ",
". . . . . . . . . . . . . . . . . . , 0 # # # # # # # # # # f . . . q ] + , l 3 B = c.6 b._.o %.# # # # # # # # # # # # # # # # d.. . e.f.c.. . . . . . . . . . ",
". . . . . . . . . . . . . . . . . G j # # # # # # # # # # # # # # # # # # # # # # # # # # # # # # # # # # # # # # # # # # # # # r d . . ..8.k . . . . . . . . . ",
". . . . . . . . . . . . . . . . g.9 # # # # # # # # # # # # # # # # # # # # # # # # # # # # # # # # # # # # # # # # # # # # # # # q 5 . + h.(.3 . . . . . . . . ",
". . . . . . . . . . . . . . . e.s # # # # # # # # # # # # # # # # # # # # # # # # # # # # # # # # # # # # # # # # # # # # # # # # # i.} . l $.p ) . . . . . . . ",
". . . . . . . . . . . . . + ..# # # # # # # # # # # # # # # # # # # # # # # # # # # # # # # # # # # # # # # # # # # # # # # # # # # # K = . ! j.k.2 . . . . . . ",
". . . . . . . . . . . . . . . . . . . . . . . . . . . . . . . . . . . . . . . . . . . . . . . . . . . . . . . . . . . . . . . . . . . . . . . ) :.l., . . . . . ",
". . . . . . . . . . . . . . . . . . . . . . . . . . . . . . . . . . . . . . . . . . . . . . . . . . . . . . . . . . . . . . . . . . . . . . . . ~ >.. . . . . . ",
". . . . . . . . . . . . . . . . . . . . . . . . . . . . . . . . . . . . . . . . . . . . . . . . . . . . . . . . . . . . . . . . . . . . . . . X f.} . . . . . . ",
". . . . . . . . . . . . . . . . . . . . . . . . . . . . . . . . . . . . . . . . . . . . . . . . . . . . . . . . . . . . . . . . . . . . . . . >.1.. . . . . . . ",
". . . . . . . . . . . . . . . . . = & # # # # # # # # # # # # # # # # # # # # # # # # # # # # # # # # # # # # # # # # # # # # # # # # # # # # m.l . . . . . . . ",
". . . . . . . . . . . . . . . . . . . . . . . . . . . . . . . . . . . . . . . . . . . . . . . . . . . . . . . . . . . . . . . . . . . . . . . . . . . . . . . . ",
". . . . . . . . . . . . . . . . . . . . . . . . . . . . . . . . . . . . . . . . . . . . . . . . . . . . . . . . . . . . . . . . . . . . . . . . . . . . . . . . ",
". . . . . . . . . . . . . . . . . . . . . . . . . . . . . . . . . . . . . . . . . . . . . . . . . . . . . . . . . . . . . . . . . . . . . . . . . . . . . . . . ",
". . . . . . . . . . . . . . . . . . . . . . . . . . . . . . . . . . . . . . . . . . . . . . . . . . . . . . . . . . . . . . . . . . . . . . . . . . . . . . . . ",
". . . . . . . . . . . . . . . . . . . . . . . . . . . . . . . . . . . . . . . . . . . . . . . . . . . . . . . . . . . . . . . . . . . . . . . . . . . . . . . . ",
". . . . . . . . . . . . . . . . . . . . . . . . . . . . . . . . . . . . . . . . . . . . . . . . . . . . . . . . . . . . . . . . . . . . . . . . . . . . . . . . "};
