/* XPM */
static xpm_row_t const letterW_xpm[] = {
"80 80 179 2",
"  	c None",
". 	c #FF0000",
"+ 	c #EF0000",
"@ 	c #A70000",
"# 	c #260000",
"$ 	c #000000",
"% 	c #EA0000",
"& 	c #A30000",
"* 	c #220000",
"= 	c #DF0000",
"- 	c #920000",
"; 	c #FA0000",
"> 	c #C90000",
", 	c #710000",
"' 	c #E40000",
") 	c #400000",
"! 	c #450000",
"~ 	c #EB0000",
"{ 	c #BA0000",
"] 	c #6A0000",
"^ 	c #CA0000",
"/ 	c #F90000",
"( 	c #980000",
"_ 	c #820000",
": 	c #BC0000",
"< 	c #160000",
"[ 	c #B60000",
"} 	c #A10000",
"| 	c #FE0000",
"1 	c #7E0000",
"2 	c #EE0000",
"3 	c #DE0000",
"4 	c #A90000",
"5 	c #5F0000",
"6 	c #1C0000",
"7 	c #F00000",
"8 	c #A00000",
"9 	c #9B0000",
"0 	c #A60000",
"a 	c #CE0000",
"b 	c #470000",
"c 	c #530000",
"d 	c #F60000",
"e 	c #D80000",
"f 	c #BB0000",
"g 	c #E00000",
"h 	c #DC0000",
"i 	c #420000",
"j 	c #2A0000",
"k 	c #D70000",
"l 	c #E80000",
"m 	c #7D0000",
"n 	c #AD0000",
"o 	c #C10000",
"p 	c #6C0000",
"q 	c #760000",
"r 	c #600000",
"s 	c #3B0000",
"t 	c #B90000",
"u 	c #690000",
"v 	c #C20000",
"w 	c #F50000",
"x 	c #2E0000",
"y 	c #D00000",
"z 	c #F40000",
"A 	c #490000",
"B 	c #E50000",
"C 	c #C40000",
"D 	c #8C0000",
"E 	c #840000",
"F 	c #8B0000",
"G 	c #E20000",
"H 	c #F30000",
"I 	c #BD0000",
"J 	c #560000",
"K 	c #FC0000",
"L 	c #FB0000",
"M 	c #B20000",
"N 	c #0D0000",
"O 	c #C30000",
"P 	c #FD0000",
"Q 	c #CB0000",
"R 	c #8E0000",
"S 	c #5D0000",
"T 	c #B50000",
"U 	c #650000",
"V 	c #D10000",
"W 	c #960000",
"X 	c #9A0000",
"Y 	c #D90000",
"Z 	c #F20000",
"` 	c #8F0000",
" .	c #3D0000",
"..	c #DD0000",
"+.	c #B10000",
"@.	c #F70000",
"#.	c #F80000",
"$.	c #970000",
"%.	c #930000",
"&.	c #B30000",
"*.	c #E90000",
"=.	c #D50000",
"-.	c #D60000",
";.	c #750000",
">.	c #550000",
",.	c #BF0000",
"'.	c #C70000",
").	c #4B0000",
"!.	c #860000",
"~.	c #870000",
"{.	c #AB0000",
"].	c #830000",
"^.	c #810000",
"/.	c #AA0000",
"(.	c #BE0000",
"_.	c #CF0000",
":.	c #D20000",
"<.	c #9F0000",
"[.	c #580000",
"}.	c #E70000",
"|.	c #4F0000",
"1.	c #F10000",
"2.	c #5A0000",
"3.	c #7C0000",
"4.	c #AE0000",
"5.	c #B80000",
"6.	c #680000",
"7.	c #660000",
"8.	c #A80000",
"9.	c #E10000",
"0.	c #850000",
"a.	c #880000",
"b.	c #6D0000",
"c.	c #C50000",
"d.	c #890000",
"e.	c #DA0000",
"f.	c #9C0000",
"g.	c #B40000",
"h.	c #AF0000",
"i.	c #CD0000",
"j.	c #A50000",
"k.	c #350000",
"l.	c #AC0000",
"m.	c #940000",
"n.	c #E30000",
"o.	c #620000",
"p.	c #380000",
"q.	c #720000",
"r.	c #6E0000",
"s.	c #CC0000",
"t.	c #B00000",
"u.	c #DB0000",
"v.	c #700000",
"w.	c #EC0000",
"x.	c #D40000",
"y.	c #E60000",
"z.	c #5C0000",
"A.	c #800000",
"B.	c #C80000",
"C.	c #9E0000",
"D.	c #A20000",
"E.	c #D30000",
"F.	c #320000",
"G.	c #4D0000",
"H.	c #C60000",
"I.	c #510000",
"J.	c #A40000",
"K.	c #7F0000",
"L.	c #770000",
"M.	c #900000",
"N.	c #ED0000",
"O.	c #B70000",
"P.	c #8D0000",
"Q.	c #990000",
"R.	c #780000",
"S.	c #950000",
"T.	c #7A0000",
"U.	c #630000",
"V.	c #790000",
". . . . . . . . . . . . . . . . . . . . . . . . . . . . . . . . . . . . . . . . . . . . . . . . . . . . . . . . . . . . . . . . . . . . . . . . . . . . + @ # $ ",
". . . . . . . . . . . . . . . . . . . . . . . . . . . . . . . . . . . . . . . . . . . . . . . . . . . . . . . . . . . . . . . . . . . . . . . . . . % & * $ $ $ ",
". . . . . . . . . . . . . . . . . . . . . . . . . . . . . . . . . . . . . . . . . . . . . . . . . . . . . . . . . . . . . . . . . . . . . . . . = - $ $ $ $ $ $ ",
". . . . . . . . . . . . . . . . . . . . . . . . . . . . . . . . . . . . . . . . . . . . . . . . . . . . . . . . . . . . . . . . . . . . . ; > , $ $ $ $ $ $ $ $ ",
". . . . . . . . . . . . . . . . . . . . . . . . . . . . . . . . . . . . . . . . . . . . . . . . . . . . . . . . . . . . . . . . . . . ' @ ) $ $ $ $ $ $ $ $ $ ! ",
". . . . . . . . . . . . . . . . . . . . . . . . . . . . . . . . . . . . . . . . . . . . . . . . . . . . . . . . . . . . . . . . ~ { ] $ $ $ $ $ $ $ $ $ $ $ $ ^ ",
". . . . . . . . . . . . . . . . . . . . . . . . . . . . . . . . . . . . . . . . . . . . . . . . . . . . . . . . . . . . . . . / ( $ $ $ $ $ $ $ $ $ $ $ $ $ _ . ",
". . . . . . . . . . . . . . . . . . . . . . . . . . . . . . . . . . . . . . . . . . . . . . . . . . . . . . . . . . . . . . . . . : $ $ $ $ $ $ $ $ $ $ $ < % . ",
". . . . . . . . . . . . . . . . . . . . . . . . . . . . . . . . . . . . . . . . . . . . . . . . . . . . . . . . . . . . . . . . . . [ $ $ $ $ $ $ $ $ $ $ } . . ",
". . . . . . . . . . . . . . . . . . . . . . . . . . . . . . . . . . . . . . . . . . . . . . . . . . . . . . . . . . . . . . . . . . | 1 $ $ $ $ $ $ $ $ * 2 . . ",
". . . . . . . . . . . . . . . . . . . . . . . . . . . . . . . . . . . . . . . . . . . . . . . . . . . . . . . . . . . . . . . . . . . 3 $ $ $ $ $ $ $ $ 4 . . . ",
". . . . . . . . . . . . . . . . . . . . . . . . . . . . . . . . . . . . . . . . . . . . . . . . . . . . . . . . . . . . . . . . . . . . 5 $ $ $ $ $ $ 6 7 . . 7 ",
". . . . . . . . . . . . . . . . . . . . . . . . . . . . . . . . . . . . . . . . . . . . . . . . . . . . . . . . . . . . . . . . . . . . 8 $ $ $ $ $ $ 9 . . . 0 ",
"6 $ $ $ $ $ $ $ $ $ $ $ $ $ $ $ $ $ $ $ $ 6 a . . . . . . . . . . . . . . . . | b $ $ $ c . . d < e . . . . . . . . . . . . . . . . . . f $ $ $ $ $ $ g . . 2 6 ",
"h i $ $ $ $ $ $ $ $ $ $ $ $ $ $ $ $ $ $ j k . . . . . . . . . . . . . . . . . ' $ $ $ $ $ l . . m n . . . . . . . . . . . . . . . . . . o $ $ $ $ $ p . . . @ q ",
". ~ r $ $ $ $ $ $ $ $ $ $ $ $ $ $ $ $ s 3 . . . . . . . . . . . . . . . . . . : $ $ $ $ $ o . . t u . . . . . . . . . . . . . . . . . . t $ $ $ $ $ v . . w x y ",
". . z 1 $ $ $ $ $ $ $ $ $ $ $ $ $ $ A B . . . C D ; . . . . . . . . . . . . . E $ $ $ $ $ F . . G $ 7 . . . . . . . . . . . . . . . . . 0 $ $ $ $ < H . . I J K ",
". . . L 9 $ $ $ $ $ $ $ $ $ $ $ $ J % . . . M N O . . . . . . . . . . . . . / * $ $ $ $ $ x L . P ) Q . . . . . . . . . . . . . . . . . F $ $ $ $ R . . | S { . ",
". . . . . T $ $ $ $ $ $ $ $ $ $ U + . . P 8 # V . . . . . . . . . . . . . . e $ $ $ $ $ $ $ h . . W X . . . . . . . . . . . . . . . . . J $ $ $ $ y . . Y 6 Z . ",
". . . . . . @ $ $ $ $ $ $ $ $ $ e . . ; `  .... . . . . . . . . . . . . . . n $ $ $ $ $ $ $ +.. . > b | . . . . . . . . . . . . . . . @.$ $ $ $ j #.. . $.%.. . ",
". . . . . . e $ $ $ $ $ $ $ $ $ &.. . *.$ =.. . . . . . . . . . . . . . . . u $ $ $ $ $ $ $ , . . 2 $ ' . . . . . . . . . . . . . . . 3 $ $ $ $ W . . d # -.. . ",
". . . . . . / * $ $ $ $ $ $ $ $ ;.. . . >.,.. . . . . . . . . . . . . . . 7 $ $ $ $ $ $ $ $ $ H . . U : . . . . . . . . . . . . . . . v $ $ $ $ V . . '.).K . . ",
". . . . . . . !.$ $ $ $ $ $ $ $ $ H . . & ~.. . . . . . . . . . . . . . . Q $ $ $ $ $ $ $ $ $ a . . {.].. . . . . . . . . . . . . . . X $ $ $ # #.. . ^./.. . . ",
". . . . . . . (.$ $ $ $ $ $ $ $ $ _.. . :.# / . . . . . . . . . . . . . . 9 $ $ $ $ $ $ $ $ $ <.. . k * #.. . . . . . . . . . . . . . [.$ $ $ ` . . 7 $ g . . . ",
". . . . . . . }.$ $ $ $ $ $ $ $ $ <.. . d N Y . . . . . . . . . . . . . | A $ $ $ $ $ $ $ $ $ |.| . / * k . . . . . . . . . . . . . 1.$ $ $ $ ^ . . o 2.| . . . ",
". . . . . . . | |.$ $ $ $ $ $ $ $ |.| . . 3.n . . . . . . . . . . . . . B $ $ $ $ $ $ $ $ $ $ $ }.. . E {.. . . . . . . . . . . . . V $ $ $ N H . . m 4.. . . . ",
". . . . . . . . <.$ $ $ $ $ $ $ $ $ }.. . 5.6.. . . . . . . . . . . . . I $ $ $ $ $ $ $ $ $ $ $ ,.. . I 7.. . . . . . . . . . . . . 8.$ $ $ 3.. . 1.$ 9.. . . . ",
". . . . . . . . _.$ $ $ $ $ $ $ $ $ (.. . G $ + . . . . . . . . . . . . 0.$ $ $ $ $ $ $ $ $ $ $ a.. . B $ + . . . . . . . . . . . . b.$ $ $ : . . c.c | . . . . ",
". . . . . . . . H $ $ $ $ $ $ $ $ $ !.. . P i ^ . . . . . . . . . . . / * $ $ $ $ $ $ $ $ $ $ $ j ; . | ).^ . . . . . . . . . . . H $ $ $ $ }.. . d.@ . . . . . ",
". . . . . . . . . ;.$ $ $ $ $ $ $ $ # / . . ( $.. . . . . . . . . . . Y $ $ $ $ $ $ $ $ $ $ $ $ $ e.. . f.( . . . . . . . . . . . V $ $ $ J . . @.* e.. . . . . ",
". . . . . . . . . g.$ $ $ $ $ $ $ $ $ e . . Q i P . . . . . . . . . . n $ $ $ $ $ $ $ $ $ $ $ $ $ h.. . i.! P . . . . . . . . . . 0 $ $ $ j.. . :.k.L . . . . . ",
". . . . . . . . . 3 $ $ $ $ $ $ $ $ $ l.. . 7 $ G . . . . . . . . . . ] $ $ $ m.$ $ $ $ $ $ $ $ $ b.. . Z $ n.. . . . . . . . . . o.$ $ $ =.. . <.m.. . . . . . ",
". . . . . . . . . K p.$ $ $ $ $ $ $ $ 6.. . . p t . . . . . . . . . 7 $ $ $ $ -.q.$ $ $ $ $ $ $ $ $ 1.. . r.f . . . . . . . . . 2 $ $ $ 6 #.. | ).^ . . . . . . ",
". . . . . . . . . . - $ $ $ $ $ $ $ $ $ + . . h.m . . . . . . . . . s.$ $ $ 6 #.M $ $ $ $ $ $ $ $ $ i.. . t.^.. . . . . . . . . > $ $ $ _ . . n.$ 1.. . . . . . ",
". . . . . . . . . . c.$ $ $ $ $ $ $ $ $ > . . u.< d . . . . . . . . 9 $ $ $ ^.. h $ $ $ $ $ $ $ $ $ f.. . u.6 #.. . . . . . . . ( $ $ $ : . . t v.. . . . . . . ",
". . . . . . . . . . w.$ $ $ $ $ $ $ $ $ W . . L x x.. . . . . . . | A $ $ $ f . L x $ $ $ $ $ $ $ $ ).| . L x -.. . . . . . . P i $ $ $ B . . m +.. . . . . . . ",
". . . . . . . . . . . 5 $ $ $ $ $ $ $ $ ) P . . D j.. . . . . . . y.$ $ $ $ n.. . F $ $ $ $ $ $ $ $ $ y.. . F /.. . . . . . . n.$ $ $ A | . d < h . . . . . . . ",
". . . . . . . . . . . 8.$ $ $ $ $ $ $ $ $ G . . O z.. . . . . . . (.$ $ $ ! P . . q.$ $ $ $ $ $ $ $ $ I . . v U . . . . . . . { $ $ $ 9 . . x.x L . . . . . . . ",
". . . . . . . . . . . -.$ $ $ $ $ $ $ $ $ 5.. . % $ ~ . . . . . . !.$ $ $ ( . . H $ $ $ $ $ $ $ $ $ $ 0.. . *.$ 2 . . . . . . A.$ $ $ Q . . 0 F . . . . . . . . ",
". . . . . . . . . . . #.6 $ $ $ $ $ $ $ $ 3.. . . 2.C . . . . . / # $ $ $ ^ . . a N r $ $ $ $ $ $ $ $ * / . . >.B.. . . . . @.< $ $ $ 7 . . S o . . . . . . . . ",
". . . . . . . . . . . . _ $ $ $ $ $ $ $ $ < d . . 0 ` . . . . . e.$ $ $ $ + . . C.q T $ $ $ $ $ $ $ $ $ e . . D.W . . . . . =.$ $ $ ] . . w.$ l . . . . . . . . ",
". . . . . . . . . . . . f $ $ $ $ $ $ $ $ $ E.. . x.F.L . . . . 4.$ $ $ 7.. . | G.g.= $ $ $ $ $ $ $ $ $ n . . V ) P . . . . @ $ $ $ n . . H.I.. . . . . . . . . ",
". . . . . . . . . . . . ' $ $ $ $ $ $ $ $ $ J.. . d < ... . . . p $ $ $ {.. . y.$ 3 K p.$ $ $ $ $ $ $ $ u . . w N G . . . . 5 $ $ $ e . . %.<.. . . . . . . . . ",
". . . . . . . . . . . . | b $ $ $ $ $ $ $ $ [.. . . K.M . . . 1.$ $ $ $ k . . (.k.K . %.$ $ $ $ $ $ $ $ $ 7 . . L.t . . . w.$ $ $ * / . K s a . . . . . . . . . ",
". . . . . . . . . . . . . 9 $ $ $ $ $ $ $ $ $ % . . f q.. . . i.$ $ $ 6 #.. . 0.M.. . H.$ $ $ $ $ $ $ $ $ Q . . T K.. . . H.$ $ $ 0.. . g $ H . . . . . . . . . ",
". . . . . . . . . . . . . i.$ $ $ $ $ $ $ $ $ O . . ' $ H . . f.$ $ $ _ . . / * c.. . N.$ $ $ $ $ $ $ $ $ X . . = < @.. . %.$ $ $ I . . O.v.. . . . . . . . . . ",
". . . . . . . . . . . . . Z $ $ $ $ $ $ $ $ $ P.. . | b a . | ).$ $ $ f . . k $ ~ . . . r $ $ $ $ $ $ $ $ b | . K p.=.. K p.$ $ $ B . . 3.t.. . . . . . . . . . ",
". . . . . . . . . . . . . . r.$ $ $ $ $ $ $ $ x L . . 9 C.. y.$ $ $ $ ' . . {.z.. . . . 8.$ $ $ $ $ $ $ $ $ ' . . - 8.. = $ $ $ A | . d < u.. . . . . . . . . . ",
". . . . . . . . . . . . . . t.$ $ $ $ $ $ $ $ $ h . . i.G.| (.$ $ $ ! | . . U j.. . . . -.$ $ $ $ $ $ $ $ $ : . . c.o.. T $ $ $ 9 . . x.j ; . . . . . . . . . . ",
". . . . . . . . . . . . . . h $ $ $ $ $ $ $ $ $ +.. . Z $ y.~.$ $ $ Q.. . 2 $ x.. . . . #.6 $ $ $ $ $ $ $ $ _ . . w.$ N.R.$ $ $ s.. . @ a.. . . . . . . . . . . ",
". . . . . . . . . . . . . . L x $ $ $ $ $ $ $ $ v.. . . , [ # $ $ $ ^ . . B.< d . . . . . ^.$ $ $ $ $ $ $ $ 6 #.. . 5 t N $ $ $ 7 . . 5 ,.. . . . . . . . . . . ",
". . . . . . . . . . . . . . . P.$ $ $ $ $ $ $ $ $ Z . . M p.$ $ $ $ + . . S.3.. . . . . . f $ $ $ $ $ $ $ $ $ k . . @ p.$ $ $ ] . . w.$ y.. . . . . . . . . . . ",
". . . . . . . . . . . . . . . O $ $ $ $ $ $ $ $ $ i.. . ..$ $ $ $ 6.. . P  .5.. . . . . . ' $ $ $ $ $ $ $ $ $ /.. . =.$ $ $ $ n . . '.).| . . . . . . . . . . . ",
". . . . . . . . . . . . . . . % $ $ $ $ $ $ $ $ $ f.. . L j $ $ $ l.. . g $ 9.. . . . . . | b $ $ $ $ $ $ $ $ 7.. . @.$ $ $ $ Y . . m.f.. . . . . . . . . . . . ",
". . . . . . . . . . . . . . . . [.$ $ $ $ $ $ $ $ A | . H $ $ $ $ e . . [  .P . . . . . . . 9 $ $ $ $ $ $ $ $ $ 2 . w.$ $ $ # / . K  .i.. . . . . . . . . . . . ",
". . . . . . . . . . . . . . . . J.$ $ $ $ $ $ $ $ $ B . i.$ $ $ * / . . T.S.. . . . . . . . s.$ $ $ $ $ $ $ $ $ > . c.$ $ $ !.. . 9.$ 1.. . . . . . . . . . . . ",
". . . . . . . . . . . . . . . . E.$ $ $ $ $ $ $ $ $ I . Q.$ $ $ E . . d N B.. . . . . . . . 1.$ $ $ $ $ $ $ $ $ $.. R $ $ $ (.. . 5.p . . . . . . . . . . . . . ",
". . . . . . . . . . . . . . . . d < $ $ $ $ $ $ $ $ ].P ) $ $ $ I . . :.$ 2 . . . . . . . . . b.$ $ $ $ $ $ $ $ i / x $ $ $ y.. . m n . . . . . . . . . . . . . ",
". . . . . . . . . . . . . . . . . m $ $ $ $ $ $ $ $ 6 k $ $ $ $ B . . & U.. . . . . . . . . . h.$ $ $ $ $ $ $ $ $ [ $ $ $ ).| . d < Y . . . . . . . . . . . . . ",
". . . . . . . . . . . . . . . . . t $ $ $ $ $ $ $ $ $ p $ $ $ A | . . J /.. . . . . . . . . . u.$ $ $ $ $ $ $ $ $ F.$ $ $ 9 . . =.* / . . . . . . . . . . . . . ",
". . . . . . . . . . . . . . . . . G $ $ $ $ $ $ $ $ $ $ $ $ $ 9 . . *.$ -.. . . . . . . . . . L j $ $ $ $ $ $ $ $ $ $ $ $ s.. . @ 0.. . . . . . . . . . . . . . ",
". . . . . . . . . . . . . . . . . P ) $ $ $ $ $ $ $ $ $ $ $ $ Q . . v 6 #.. . . . . . . . . . . F $ $ $ $ $ $ $ $ $ $ $ $ 1.. . r I . . . . . . . . . . . . . . ",
". . . . . . . . . . . . . . . . . . $.$ $ $ $ $ $ $ $ $ $ $ $ 7 . . F _ . . . . . . . . . . . . v $ $ $ $ $ $ $ $ $ $ $ p . . N.$ B . . . . . . . . . . . . . . ",
". . . . . . . . . . . . . . . . . . ^ $ $ $ $ $ $ $ $ $ $ $ ] . . L j f . . . . . . . . . . . . *.$ $ $ $ $ $ $ $ $ $ $ 4.. . '.b | . . . . . . . . . . . . . . ",
". . . . . . . . . . . . . . . . . . + $ $ $ $ $ $ $ $ $ $ $ n . . u.$ ' . . . . . . . . . . . . . >.$ $ $ $ $ $ $ $ $ $ e.. . m.X . . . . . . . . . . . . . . . ",
". . . . . . . . . . . . . . . . . . . u $ $ $ $ $ $ $ $ $ $ Y . . h.b | . . . . . . . . . . . . . & $ $ $ $ $ $ $ $ $ # ; . P  .Q . . . . . . . . . . . . . . . ",
". . . . . . . . . . . . . . . . . . . n $ $ $ $ $ $ $ $ $ # / . . b.X . . . . . . . . . . . . . . V $ $ $ $ $ $ $ $ $ 0.. . G $ + . . . . . . . . . . . . . . . ",
". . . . . . . . . . . . . . . . . . . e.$ $ $ $ $ $ $ $ $ T.. . 1.$ Q . . . . . . . . . . . . . . w N $ $ $ $ $ $ $ $ b.. . t 6.. . . . . . . . . . . . . . . . ",
". . . . . . . . . . . . . . . . . . . ; # $ $ $ $ $ $ $ $ ) P . s.$ 7 . . . . . . . . . . . . . . . V.$ $ $ $ $ $ $ $ $ z . 1 {.. . . . . . . . . . . . . . . . ",
". . . . . . . . . . . . . . . . . . . . a.$ $ $ $ $ $ $ $ $ ' . 9 ] . . . . . . . . . . . . . . . . [ $ $ $ $ $ $ $ $ $ :.; < 4 . . . . . . . . . . . . . . . . ",
". . . . . . . . . . . . . . . . . . . . n $ $ $ $ $ $ $ $ $ g.. j.x n.. . . . . . . . . . . . . . . :.$ $ $ $ $ $ $ $ $ f.. T $ B.. . . . . . . . . . . . . . . ",
". . . . . . . . . . . . . . . . . . . t N $ $ $ $ $ $ $ $ $ $ C L K.c 1.. . . . . . . . . . . . . Y s $ $ $ $ $ $ $ $ $ $ 4 P 9 < e . . . . . . . . . . . . . . ",
". . . . . . . . . . . . . . . . . / S.$ $ $ $ $ $ $ $ $ $ $ $ $ f z S ;.; . . . . . . . . . . . O < $ $ $ $ $ $ $ $ $ $ $ $ S.d A.k.B . . . . . . . . . . . . . ",
". . . . . . . . . . . . . . . . 2 r.$ $ $ $ $ $ $ $ $ $ $ $ $ $ $ h.l s S.| . . . . . . . . P @ $ $ $ $ $ $ $ $ $ $ $ $ $ $ $ ^.w.U I.+ . . . . . . . . . . . . ",
". . . . . . . . . . . . . . . h b $ $ $ $ $ $ $ $ $ $ $ $ $ $ $ $ $ j.=.N g.. . . . . . . @.a.$ $ $ $ $ $ $ $ $ $ $ $ $ $ $ $ $ b.h b ] d . . . . . . . . . . . ",
". . . . . . . . . . . . . . o < $ $ $ $ $ $ $ $ $ $ $ $ $ $ $ $ $ $ $ 9 f $ a . . . . . N.u $ $ $ $ $ $ $ $ $ $ $ $ $ $ $ $ $ $ $ J C # ].L . . . . . . . . . . ",
". . . . . . . . . . . . . . . . . . . . . . . . . . . . . . . . . . . . . D.j G . . . . . . . . . . . . . . . . . . . . . . . . . . . _.$ 9 | . . . . . . . . . ",
". . . . . . . . . . . . . . . . . . . . . . . . . . . . . . . . . . . . . K _ |.7 . . . . . . . . . . . . . . . . . . . . . . . . . . . t $ +.. . . . . . . . . ",
". . . . . . . . . . . . . . . . . . . . . . . . . . . . . . . . . . . . . . w o.q./ . . . . . . . . . . . . . . . . . . . . . . . . . . . 8 $ '.. . . . . . . . ",
". . . . . . . . . . . . . . . . k * $ $ $ $ $ $ $ $ $ $ $ $ $ $ $ $ $ $ $ $ $ $ $ %.| . . . d ^.$ $ $ $ $ $ $ $ $ $ $ $ $ $ $ $ $ $ $ $ $ $ $ < k . . . . . . . "};
