/* XPM */
static xpm_row_t const letterU_xpm[] = {
"80 80 155 2",
"  	c None",
". 	c #FF0000",
"+ 	c #F90000",
"@ 	c #8A0000",
"# 	c #000000",
"$ 	c #3B0000",
"% 	c #E20000",
"& 	c #DF0000",
"* 	c #3D0000",
"= 	c #1C0000",
"- 	c #C20000",
"; 	c #FC0000",
"> 	c #9B0000",
", 	c #FB0000",
"' 	c #F70000",
") 	c #E60000",
"! 	c #4B0000",
"~ 	c #490000",
"{ 	c #DD0000",
"] 	c #FE0000",
"^ 	c #AA0000",
"/ 	c #E30000",
"( 	c #FA0000",
"_ 	c #890000",
": 	c #B10000",
"< 	c #EB0000",
"[ 	c #5A0000",
"} 	c #710000",
"| 	c #EE0000",
"1 	c #DC0000",
"2 	c #B90000",
"3 	c #400000",
"4 	c #E40000",
"5 	c #870000",
"6 	c #680000",
"7 	c #F30000",
"8 	c #F00000",
"9 	c #970000",
"0 	c #C50000",
"a 	c #C60000",
"b 	c #C70000",
"c 	c #0D0000",
"d 	c #420000",
"e 	c #850000",
"f 	c #650000",
"g 	c #F20000",
"h 	c #F40000",
"i 	c #750000",
"j 	c #FD0000",
"k 	c #A80000",
"l 	c #220000",
"m 	c #CB0000",
"n 	c #D40000",
"o 	c #2A0000",
"p 	c #E50000",
"q 	c #830000",
"r 	c #600000",
"s 	c #D60000",
"t 	c #F60000",
"u 	c #470000",
"v 	c #DE0000",
"w 	c #940000",
"x 	c #810000",
"y 	c #5D0000",
"z 	c #EF0000",
"A 	c #900000",
"B 	c #660000",
"C 	c #EA0000",
"D 	c #ED0000",
"E 	c #F80000",
"F 	c #D70000",
"G 	c #DA0000",
"H 	c #860000",
"I 	c #2E0000",
"J 	c #D80000",
"K 	c #160000",
"L 	c #A40000",
"M 	c #EC0000",
"N 	c #E90000",
"O 	c #E80000",
"P 	c #E70000",
"Q 	c #E00000",
"R 	c #DB0000",
"S 	c #D50000",
"T 	c #D90000",
"U 	c #D30000",
"V 	c #9F0000",
"W 	c #D10000",
"X 	c #A60000",
"Y 	c #CD0000",
"Z 	c #F10000",
"` 	c #BC0000",
" .	c #C80000",
"..	c #350000",
"+.	c #BF0000",
"@.	c #CE0000",
"#.	c #C90000",
"$.	c #B30000",
"%.	c #A50000",
"&.	c #530000",
"*.	c #910000",
"=.	c #B60000",
"-.	c #6A0000",
";.	c #700000",
">.	c #7E0000",
",.	c #380000",
"'.	c #320000",
").	c #990000",
"!.	c #920000",
"~.	c #C40000",
"{.	c #9D0000",
"].	c #7F0000",
"^.	c #A70000",
"/.	c #9E0000",
"(.	c #560000",
"_.	c #8D0000",
":.	c #5C0000",
"<.	c #D20000",
"[.	c #B40000",
"}.	c #6C0000",
"|.	c #BE0000",
"1.	c #AD0000",
"2.	c #4F0000",
"3.	c #260000",
"4.	c #CC0000",
"5.	c #980000",
"6.	c #770000",
"7.	c #6D0000",
"8.	c #7A0000",
"9.	c #800000",
"0.	c #580000",
"a.	c #A00000",
"b.	c #E10000",
"c.	c #6E0000",
"d.	c #C00000",
"e.	c #630000",
"f.	c #820000",
"g.	c #A20000",
"h.	c #450000",
"i.	c #F50000",
"j.	c #C10000",
"k.	c #840000",
"l.	c #4D0000",
"m.	c #8C0000",
"n.	c #510000",
"o.	c #880000",
"p.	c #690000",
"q.	c #C30000",
"r.	c #A90000",
"s.	c #A10000",
"t.	c #9C0000",
"u.	c #780000",
"v.	c #D00000",
"w.	c #AC0000",
"x.	c #B00000",
". . . . . . . . . . . . . . . . . . . . . . . . . . . . . . . . . . . . . . . . . . . . . . . . . . . . . . . . . . . . . . . . . . . . . . . . . . . . . . . . ",
". . . . . . . . . . . . . . . . . . . . . . . . . . . . . . . . . . . . . . . . . . . . . . . . . . . . . . . . . . . . . . . . . . . . . . . . . . . . . . . . ",
". . . . . . . . . . . . . . . . . . . . . . . . . . . . . . . . . . . . . . . . . . . . . . . . . . . . . . . . . . . . . . . . . . . . . . . . . . . . . . . . ",
". . . . . . . . . . . . . . . . . . . . . . . . . . . . . . . . . . . . . . . . . . . . . . . . . . . . . . . . . . . . . . . . . . . . . . . . . . . . . . . . ",
". . . . . . . . . . . . . . . . . . . . . . . . . . . . . . . . . . . . . . . . . . . . . . . . . . . . . . . . . . . . . . . . . . . . . . . . . . . . . . . . ",
". . . . . . . . . . . . . . . . . . . . . . . . . . . . . . . . . . . . . . . . . . . . . . . . . . . . . . . . . . . . . . . . . . . . . . . . . . . . . . . . ",
". . . . . . . . . . . + @ # # # # # # # # # # # # # # # # # # # # $ % . . . . . . . . . . . . & * # # # # # # # # # # # # # # # # # = - . . . . . . . . . . . . ",
". . . . . . . . . . . . ; > # # # # # # # # # # # # # # # # # # * % . , ' . . . . . . . . . . . ) ! # # # # # # # # # # # # # # # ~ { . . . . . . . . . . . . . ",
". . . . . . . . . . . . . ] ^ # # # # # # # # # # # # # # # # * / . ( _ : . . . . . . . . . . . . < [ # # # # # # # # # # # # # } | . . 1 | . . . . . . . . . . ",
". . . . . . . . . . . . . . . 2 # # # # # # # # # # # # # # 3 4 . ( 5 6 7 . . . . . . . . . . . . . 8 6 # # # # # # # # # # # 9 + . . 0 = a . . . . . . . . . . ",
". . . . . . . . . . . . . . . . b c # # # # # # # # # # # d 4 . ( e f g . . . . . . . . . . . . . . . h i # # # # # # # # c 2 . . j k l m . . . . . . . . . . . ",
". . . . . . . . . . . . . . . . . n o # # # # # # # # # d p . + q r 8 . . . . . . . . . . . . . . . . . ' q # # # # # # $ s . . t 5 u v . . . . . . . . . . . . ",
". . . . . . . . . . . . . . . . . . w # # # # # # # # # % . + x y z . . . . . . . . . . . . . . . . . . . , A # # # # B C . . < f 6 D . . . . . . . . . . . . . ",
". . . . . . . . . . . . . . . . . . w # # # # # # # # # E . b = | . . . . . . . . . . . . . . . . . . . . . z # # # # F . . G 3 H t . . . . . . . . . . . . . . ",
". . . . . . . . . . . . . . . . . . w # # # # # # # # # E . 0 I . . . . . . . . . . . . . . . . . . . . . . z # # # # J . p K L ; . . . . . . . . . . . . . . . ",
". . . . . . . . . . . . . . . . . . w # # # # # # # # # E . 0 I . . . . . . . . . . . . . . . . . . . . . . | # # # # J . G # t . . . . . . . . . . . . . . . . ",
". . . . . . . . . . . . . . . . . . w # # # # # # # # # E . 0 I . . . . . . . . . . . . . . . . . . . . . . | # # # # J . G # t . . . . . . . . . . . . . . . . ",
". . . . . . . . . . . . . . . . . . w # # # # # # # # # E . 0 I . . . . . . . . . . . . . . . . . . . . . . D # # # # J . G # t . . . . . . . . . . . . . . . . ",
". . . . . . . . . . . . . . . . . . w # # # # # # # # # E . 0 I . . . . . . . . . . . . . . . . . . . . . . M # # # # J . G # t . . . . . . . . . . . . . . . . ",
". . . . . . . . . . . . . . . . . . w # # # # # # # # # E . 0 I . . . . . . . . . . . . . . . . . . . . . . < # # # # J . G # t . . . . . . . . . . . . . . . . ",
". . . . . . . . . . . . . . . . . . w # # # # # # # # # E . 0 I . . . . . . . . . . . . . . . . . . . . . . < # # # # J . G # t . . . . . . . . . . . . . . . . ",
". . . . . . . . . . . . . . . . . . w # # # # # # # # # E . 0 I . . . . . . . . . . . . . . . . . . . . . . C # # # # J . G # t . . . . . . . . . . . . . . . . ",
". . . . . . . . . . . . . . . . . . w # # # # # # # # # E . 0 I . . . . . . . . . . . . . . . . . . . . . . N # # # # J . G # t . . . . . . . . . . . . . . . . ",
". . . . . . . . . . . . . . . . . . w # # # # # # # # # E . 0 I . . . . . . . . . . . . . . . . . . . . . . O # # # # J . G # t . . . . . . . . . . . . . . . . ",
". . . . . . . . . . . . . . . . . . w # # # # # # # # # E . 0 I . . . . . . . . . . . . . . . . . . . . . . P # # # # J . G # t . . . . . . . . . . . . . . . . ",
". . . . . . . . . . . . . . . . . . w # # # # # # # # # E . 0 I . . . . . . . . . . . . . . . . . . . . . . ) # # # # J . G # t . . . . . . . . . . . . . . . . ",
". . . . . . . . . . . . . . . . . . w # # # # # # # # # E . 0 I . . . . . . . . . . . . . . . . . . . . . . ) # # # # J . G # t . . . . . . . . . . . . . . . . ",
". . . . . . . . . . . . . . . . . . w # # # # # # # # # E . 0 I . . . . . . . . . . . . . . . . . . . . . . p # # # # J . G # t . . . . . . . . . . . . . . . . ",
". . . . . . . . . . . . . . . . . . w # # # # # # # # # E . 0 I . . . . . . . . . . . . . . . . . . . . . . 4 # # # # J . G # t . . . . . . . . . . . . . . . . ",
". . . . . . . . . . . . . . . . . . w # # # # # # # # # E . 0 I . . . . . . . . . . . . . . . . . . . . . . / # # # # J . G # t . . . . . . . . . . . . . . . . ",
". . . . . . . . . . . . . . . . . . w # # # # # # # # # E . 0 I . . . . . . . . . . . . . . . . . . . . . . % # # # # J . G # t . . . . . . . . . . . . . . . . ",
". . . . . . . . . . . . . . . . . . w # # # # # # # # # E . 0 I . . . . . . . . . . . . . . . . . . . . . . % # # # # J . G # t . . . . . . . . . . . . . . . . ",
". . . . . . . . . . . . . . . . . . w # # # # # # # # # E . 0 I . . . . . . . . . . . . . . . . . . . . . . Q # # # # J . G # t . . . . . . . . . . . . . . . . ",
". . . . . . . . . . . . . . . . . . w # # # # # # # # # E . 0 I . . . . . . . . . . . . . . . . . . . . . . & # # # # J . G # t . . . . . . . . . . . . . . . . ",
". . . . . . . . . . . . . . . . . . w # # # # # # # # # E . 0 I . . . . . . . . . . . . . . . . . . . . . . & # # # # J . G # t . . . . . . . . . . . . . . . . ",
". . . . . . . . . . . . . . . . . . w # # # # # # # # # E . 0 I . . . . . . . . . . . . . . . . . . . . . . v # # # # J . G # t . . . . . . . . . . . . . . . . ",
". . . . . . . . . . . . . . . . . . w # # # # # # # # # E . 0 I . . . . . . . . . . . . . . . . . . . . . . { # # # # J . G # t . . . . . . . . . . . . . . . . ",
". . . . . . . . . . . . . . . . . . w # # # # # # # # # E . 0 I . . . . . . . . . . . . . . . . . . . . . . 1 # # # # J . G # t . . . . . . . . . . . . . . . . ",
". . . . . . . . . . . . . . . . . . w # # # # # # # # # E . 0 I . . . . . . . . . . . . . . . . . . . . . . R # # # # J . G # t . . . . . . . . . . . . . . . . ",
". . . . . . . . . . . . . . . . . . w # # # # # # # # # E . 0 I . . . . . . . . . . . . . . . . . . . . . . R # # # # J . G # t . . . . . . . . . . . . . . . . ",
". . . . . . . . . . . . . . . . . . w # # # # # # # # # E . 0 I . . . . . . . . . . . . . . . . . . . . . . G # # # # J . G # t . . . . . . . . . . . . . . . . ",
". . . . . . . . . . . . . . . . . . w # # # # # # # # # E . 0 I . . . . . . . . . . . . . . . . . . . . . . J # # # # J . G # t . . . . . . . . . . . . . . . . ",
". . . . . . . . . . . . . . . . . . w # # # # # # # # # E . 0 I . . . . . . . . . . . . . . . . . . . . . . J # # # # J . G # t . . . . . . . . . . . . . . . . ",
". . . . . . . . . . . . . . . . . . w # # # # # # # # # E . 0 I . . . . . . . . . . . . . . . . . . . . . . F # # # # J . G # t . . . . . . . . . . . . . . . . ",
". . . . . . . . . . . . . . . . . . w # # # # # # # # # E . 0 I . . . . . . . . . . . . . . . . . . . . . . s # # # # J . G # t . . . . . . . . . . . . . . . . ",
". . . . . . . . . . . . . . . . . . 9 # # # # # # # # # ' . 0 I . . . . . . . . . . . . . . . . . . . . . . S # # # # T . G # t . . . . . . . . . . . . . . . . ",
". . . . . . . . . . . . . . . . . . > # # # # # # # # # t . 0 I . . . . . . . . . . . . . . . . . . . . . . U # # # # G . T # E . . . . . . . . . . . . . . . . ",
". . . . . . . . . . . . . . . . . . V # # # # # # # # # h . 0 I . . . . . . . . . . . . . . . . . . . . . . W # # # # R . F # + . . . . . . . . . . . . . . . . ",
". . . . . . . . . . . . . . . . . . X # # # # # # # # # 7 . 0 I . . . . . . . . . . . . . . . . . . . . . . Y # # # # { . s # ( . . . . . . . . . . . . . . . . ",
". . . . . . . . . . . . . . . . . . : # # # # # # # # # Z . 0 I . . . . . . . . . . . . . . . . . . . . . . a # # # # & . U # j . . . . . . . . . . . . . . . . ",
". . . . . . . . . . . . . . . . . . ` # # # # # # # # # 8 .  .... . . . . . . . . . . . . . . . . . . . . . +.# # # # / . @.= . . . . . . . . . . . . . . . . . ",
". . . . . . . . . . . . . . . . . . #.# # # # # # # # # | . Y 3 . . . . . . . . . . . . . . . . . . . . . . $.# # # # P .  .$ . . . . . . . . . . . . . . . . . ",
". . . . . . . . . . . . . . . . . . T # # # # # # # # # D . W u . . . . . . . . . . . . . . . . . . . . . . %.# # # # M . - &.. . . . . . . . . . . . . . . . . ",
". . . . . . . . . . . . . . . . . . O # # # # # # # # # C . R * . . . . . . . . . . . . . . . . . . . . . . *.# # # # g . =.-.. . . . . . . . . . . . . . . . . ",
". . . . . . . . . . . . . . . . . . + c # # # # # # # # 4 . N # < . . . . . . . . . . . . . . . . . . . . . ;.# # # # ( . ^ >.. . . . . . . . . . . . . . . . . ",
". . . . . . . . . . . . . . . . . . . f # # # # # # # # J . ' # #.. . . . . . . . . . . . . . . . . . . . ] ,.# # # '.. . ).!.. . . . . . . . . . . . . . . . . ",
". . . . . . . . . . . . . . . . . . . ).# # # # # # # # ~.. . r {.. . . . . . . . . . . . . . . . . . . . | # # # # B . . ].^.. . . . . . . . . . . . . . . . . ",
". . . . . . . . . . . . . . . . . . . 0 # # # # # # # # X . . /.(.. . . . . . . . . . . . . . . . . . . . n # # # # _.. . :.2 . . . . . . . . . . . . . . . . . ",
". . . . . . . . . . . . . . . . . . . C # # # # # # # # 6 . . <.# | . . . . . . . . . . . . . . . . . . . ^ # # # # [.. ( c @.. . . . . . . . . . . . . . . . . ",
". . . . . . . . . . . . . . . . . . . . }.# # # # # # # # C . , ~  .. . . . . . . . . . . . . . . . . . ] (.# # # # s . O # / . . . . . . . . . . . . . . . . . ",
". . . . . . . . . . . . . . . . . . . . |.# # # # # # # # 1.. . #.2.7 . . . . . . . . . . . . . . . . . F # # # # 3.+ . 4.c E . . . . . . . . . . . . . . . . . ",
". . . . . . . . . . . . . . . . . . . . t * # # # # # # # I | . ] 5.6.+ . . . . . . . . . . . . . . . ( 7.# # # # > . . X }.. . . . . . . . . . . . . . . . . . ",
". . . . . . . . . . . . . . . . . . . . . |.# # # # # # # # 8.( . ; > 9.E . . . . . . . . . . . . . ] {.# # # # # 4 . . 0.^ . . . . . . . . . . . . . . . . . . ",
". . . . . . . . . . . . . . . . . . . . . j 9.# # # # # # # # x 7 . . 4._ g . . . . . . . . . . . E 9 # # # # # a.. . b.# R . . . . . . . . . . . . . . . . . . ",
". . . . . . . . . . . . . . . . . . . . . . t c.# # # # # # # # u d.' . ( v . . . . . . . . . , m [ # # # # # }.+ . . w e.] . . . . . . . . . . . . . . . . . . ",
". . . . . . . . . . . . . . . . . . . . . . . h f.# # # # # # # # # o !.- 1 | E j . , h 4 m g.h.# # # # # # B z . . G # S . . . . . . . . . . . . . . . . . . . ",
". . . . . . . . . . . . . . . . . . . . . . . . j =.3.# # # # # # # # # # # # # # # # # # # # # # # # # # @ i.. . t r w . . . . . . . . . . . . . . . . . . . . ",
". . . . . . . . . . . . . . . . . . . . . . . . . . | V 3.# # # # # # # # # # # # # # # # # # # # # # r Y . . . , f.f i.. . . . . . . . . . . . . . . . . . . . ",
". . . . . . . . . . . . . . . . . . . . . . . . M t . . h j.k.= # # # # # # # # # # # # # # # # '.w <.j . . . ' _.l.D . . . . . . . . . . . . . . . . . . . . . ",
". . . . . . . . . . . . . . . . . . . . . . . . . n #., . . . ' v - L m.;.n.* l K ,.! 6 o.g.j.& ( . . . . . O p.c.| . . . . . . . . . . . . . . . . . . . . . . ",
". . . . . . . . . . . . . . . . . . . . . . . . . . | /.q.( . . . . . . . . . . . . . . . . . . . . . . i.r.= s.E . . . . . . . . . . . . . . . . . . . . . . . ",
". . . . . . . . . . . . . . . . . . . . . . . . . . . . { *.> W ' . . . . . . . . . . . . . . . . ; { t.o q / . . . . . . . . . . . . . . . . . . . . . . . . . ",
". . . . . . . . . . . . . . . . . . . . . . . . . . . . . . | 2 ].u.V +.J P | h ( ] , t 8 / v.2 @ '.[ w.N . . . . . . . . . . . . . . . . . . . . . . . . . . . ",
". . . . . . . . . . . . . . . . . . . . . . . . . . . . . . . . . t R d.g._ }.2.$ = l h.[ } w x.m D . . . . . . . . . . . . . . . . . . . . . . . . . . . . . . ",
". . . . . . . . . . . . . . . . . . . . . . . . . . . . . . . . . . . . . . . . . . . . . . . . . . . . . . . . . . . . . . . . . . . . . . . . . . . . . . . . ",
". . . . . . . . . . . . . . . . . . . . . . . . . . . . . . . . . . . . . . . . . . . . . . . . . . . . . . . . . . . . . . . . . . . . . . . . . . . . . . . . ",
". . . . . . . . . . . . . . . . . . . . . . . . . . . . . . . . . . . . . . . . . . . . . . . . . . . . . . . . . . . . . . . . . . . . . . . . . . . . . . . . ",
". . . . . . . . . . . . . . . . . . . . . . . . . . . . . . . . . . . . . . . . . . . . . . . . . . . . . . . . . . . . . . . . . . . . . . . . . . . . . . . . ",
". . . . . . . . . . . . . . . . . . . . . . . . . . . . . . . . . . . . . . . . . . . . . . . . . . . . . . . . . . . . . . . . . . . . . . . . . . . . . . . . ",
". . . . . . . . . . . . . . . . . . . . . . . . . . . . . . . . . . . . . . . . . . . . . . . . . . . . . . . . . . . . . . . . . . . . . . . . . . . . . . . . "};
