/* XPM */
static xpm_row_t const letterN_xpm[] = {
"80 80 162 2",
"  	c None",
". 	c #FF0000",
"+ 	c #ED0000",
"@ 	c #680000",
"# 	c #000000",
"$ 	c #3D0000",
"% 	c #CA0000",
"& 	c #FA0000",
"* 	c #F90000",
"= 	c #BD0000",
"- 	c #970000",
"; 	c #EE0000",
"> 	c #F60000",
", 	c #860000",
"' 	c #870000",
") 	c #EF0000",
"! 	c #A90000",
"~ 	c #580000",
"{ 	c #F40000",
"] 	c #9C0000",
"^ 	c #6A0000",
"/ 	c #E00000",
"( 	c #FC0000",
"_ 	c #A30000",
": 	c #320000",
"< 	c #C40000",
"[ 	c #FE0000",
"} 	c #E30000",
"| 	c #660000",
"1 	c #560000",
"2 	c #DA0000",
"3 	c #D10000",
"4 	c #380000",
"5 	c #B00000",
"6 	c #FB0000",
"7 	c #BE0000",
"8 	c #0D0000",
"9 	c #7D0000",
"0 	c #EC0000",
"a 	c #B40000",
"b 	c #160000",
"c 	c #9B0000",
"d 	c #E40000",
"e 	c #400000",
"f 	c #D40000",
"g 	c #F50000",
"h 	c #D60000",
"i 	c #350000",
"j 	c #B20000",
"k 	c #FD0000",
"l 	c #E90000",
"m 	c #730000",
"n 	c #470000",
"o 	c #DC0000",
"p 	c #220000",
"q 	c #DD0000",
"r 	c #F20000",
"s 	c #BB0000",
"t 	c #6C0000",
"u 	c #5D0000",
"v 	c #DF0000",
"w 	c #AF0000",
"x 	c #E20000",
"y 	c #260000",
"z 	c #8B0000",
"A 	c #9F0000",
"B 	c #2E0000",
"C 	c #F30000",
"D 	c #510000",
"E 	c #B30000",
"F 	c #E10000",
"G 	c #530000",
"H 	c #940000",
"I 	c #CD0000",
"J 	c #AC0000",
"K 	c #3B0000",
"L 	c #B90000",
"M 	c #E60000",
"N 	c #2A0000",
"O 	c #F10000",
"P 	c #B10000",
"Q 	c #840000",
"R 	c #F70000",
"S 	c #A80000",
"T 	c #C70000",
"U 	c #A70000",
"V 	c #650000",
"W 	c #CE0000",
"X 	c #A20000",
"Y 	c #A10000",
"Z 	c #6D0000",
"` 	c #980000",
" .	c #A40000",
"..	c #CB0000",
"+.	c #720000",
"@.	c #BF0000",
"#.	c #EA0000",
"$.	c #1C0000",
"%.	c #620000",
"&.	c #AD0000",
"*.	c #D50000",
"=.	c #A00000",
"-.	c #E50000",
";.	c #EB0000",
">.	c #AA0000",
",.	c #D00000",
"'.	c #E80000",
").	c #F00000",
"!.	c #D30000",
"~.	c #E70000",
"{.	c #A60000",
"].	c #7C0000",
"^.	c #B60000",
"/.	c #420000",
"(.	c #770000",
"_.	c #8F0000",
":.	c #D90000",
"<.	c #F80000",
"[.	c #490000",
"}.	c #C00000",
"|.	c #820000",
"1.	c #DE0000",
"2.	c #5A0000",
"3.	c #C90000",
"4.	c #810000",
"5.	c #DB0000",
"6.	c #8C0000",
"7.	c #9A0000",
"8.	c #690000",
"9.	c #D80000",
"0.	c #910000",
"a.	c #710000",
"b.	c #960000",
"c.	c #950000",
"d.	c #780000",
"e.	c #930000",
"f.	c #6E0000",
"g.	c #7F0000",
"h.	c #900000",
"i.	c #8D0000",
"j.	c #630000",
"k.	c #8A0000",
"l.	c #5F0000",
"m.	c #600000",
"n.	c #C80000",
"o.	c #AB0000",
"p.	c #550000",
"q.	c #450000",
"r.	c #B50000",
"s.	c #C50000",
"t.	c #C20000",
"u.	c #7E0000",
"v.	c #4F0000",
"w.	c #C10000",
"x.	c #750000",
"y.	c #890000",
"z.	c #BA0000",
"A.	c #4B0000",
"B.	c #760000",
"C.	c #A50000",
"D.	c #800000",
"E.	c #990000",
". . . . . . . . . . . . . . . . . . . . . . . . . . . . . . . . . . . . . . . . . . . . . . . . . . . . . . . . . . . . . . . . . . . . . . . . . . . . . . . . ",
". . . . . . . . . . . . . . . . . . . . . . . . . . . . . . . . . . . . . . . . . . . . . . . . . . . . . . . . . . . . . . . . . . . . . . . . . . . . . . . . ",
". . . . . . . . . . . . . . . . . . . . . . . . . . . . . . . . . . . . . . . . . . . . . . . . . . . . . . . . . . . . . . . . . . . . . . . . . . . . . . . . ",
". . . . . . . . . . . . . . . . . . . . . . . . . . . . . . . . . . . . . . . . . . . . . . . . . . . . . . . . . . . . . . . . . . . . . . . . . . . . . . . . ",
". . . . . . . . . . . . . . . . . . . . . . . . . . . . . . . . . . . . . . . . . . . . . . . . . . . . . . . . . . . . . . . . . . . . . . . . . . . . . . . . ",
". . . . . . . . . . . . . . . . . . . . . . . . . . . . . . . . . . . . . . . . . . . . . . . . . . . . . . . . . . . . . . . . . . . . . . . . . . . . . . . . ",
". . . . . . . . . . . . . . . . . . . . . . . . . . . . . . . . . . . . . . . . . . . . . . . . . . . . . . . . . . . . . . . . . . . . . . . . . . . . . . . . ",
". . . . . . . . . . . . . + @ # # # # # # # # # # # # # # # # # # # # # $ % . . . & . . . . * = $ # # # # # # # # # # # # # # # # # # - ; . . . . . . . . . . . ",
". . . . . . . . . . . . . . > , # # # # # # # # # # # # # # # # # # # ' ) . . & ! ~ > . . . . . { ] # # # # # # # # # # # # # # # ^ / . . . . . . . . . . . . . ",
". . . . . . . . . . . . . . . ( _ # # # # # # # # # # # # # # # # : < [ . . } | 1 2 . . . . . . . . 3 4 # # # # # # # # # # # # 5 6 . . . . . . . . . . . . . . ",
". . . . . . . . . . . . . . . . . 7 8 # # # # # # # # # # # # # 9 0 . . ( a b c > . . . . . . . . . . d e # # # # # # # # # : f . . . . . g > . . . . . . . . . ",
". . . . . . . . . . . . . . . . . . h i # # # # # # # # # # # j k . . l m n 3 . . . . . . . . . . . . . o 8 # # # # # # # p q . . . r s t u & . . . . . . . . . ",
". . . . . . . . . . . . . . . . . . . v # # # # # # # # # # # w . . x y z r . . . . . . . . . . . . . . . A # # # # # # # 7 . . k s p t 7 ) . . . . . . . . . . ",
". . . . . . . . . . . . . . . . . . . r # # # # # # # # # # # B C . & D E . . . . . . . . . . . . . . . . F # # # # # # G 6 . [ H 4 I [ . . . . . . . . . . . . ",
". . . . . . . . . . . . . . . . . . . r # # # # # # # # # # # # J . . < 4 g . . . . . . . . . . . . . . . k K # # # # # 7 . . L : M . . . . . . . . . . . . . . ",
". . . . . . . . . . . . . . . . . . . r # # # # # # # # # # # # N O . 6 1 P . . . . . . . . . . . . . . . . Q # # # # # 0 . R i < . . . . . . . . . . . . . . . ",
". . . . . . . . . . . . . . . . . . . r # # # # # # # # # # # # # S . . T : { . . . . . . . . . . . . . . . U # # # # V . . W e * . . . . . . . . . . . . . . . ",
". . . . . . . . . . . . . . . . . . . r # # # K # # # # # # # # # p ) . ( u w . . . . . . . . . . . . . . . = # # # # X . . Y H . . . . . . . . . . . . . . . . ",
". . . . . . . . . . . . . . . . . . . r # # # Z ` # # # # # # # # #  .. . % B C . . . . . . . . . . . . . . ..# # # # = . . +.@.. . . . . . . . . . . . . . . . ",
". . . . . . . . . . . . . . . . . . . r # # # Z #.8 # # # # # # # # $.; . k %.&.. . . . . . . . . . . . . . *.# # # # f . . B *.. . . . . . . . . . . . . . . . ",
". . . . . . . . . . . . . . . . . . . r # # # Z . c # # # # # # # # # =.. . I N r . . . . . . . . . . . . . o # # # # } . > # -.. . . . . . . . . . . . . . . . ",
". . . . . . . . . . . . . . . . . . . r # # # Z . ;.b # # # # # # # # b 0 . k @ >.. . . . . . . . . . . . . F # # # # l . ; # + . . . . . . . . . . . . . . . . ",
". . . . . . . . . . . . . . . . . . . r # # # Z . . ] # # # # # # # # # ] . . ,.y O . . . . . . . . . . . . d # # # # ; . '.# ).. . . . . . . . . . . . . . . . ",
". . . . . . . . . . . . . . . . . . . r # # # Z . . L # # # # # # # # # 8 #.. [ Z S . . . . . . . . . . . . M # # # # C . M # { . . . . . . . . . . . . . . . . ",
". . . . . . . . . . . . . . . . . . . r # # # Z . . L # # # # # # # # # # ` . . !.y ).. . . . . . . . . . . ~.# # # # { . -.# { . . . . . . . . . . . . . . . . ",
". . . . . . . . . . . . . . . . . . . r # # # Z . . L %.K # # # # # # # # # '.. [ +.{.. . . . . . . . . . . ~.# # # # { . -.# { . . . . . . . . . . . . . . . . ",
". . . . . . . . . . . . . . . . . . . r # # # Z . . L ].^.# # # # # # # # # H . . h p ) . . . . . . . . . . ~.# # # # { . -.# { . . . . . . . . . . . . . . . . ",
". . . . . . . . . . . . . . . . . . . r # # # Z . . L ].R /.# # # # # # # # # M . . (._ . . . . . . . . . . ~.# # # # { . -.# { . . . . . . . . . . . . . . . . ",
". . . . . . . . . . . . . . . . . . . r # # # Z . . L ].. s # # # # # # # # # _.. . :.$.; . . . . . . . . . ~.# # # # { . -.# { . . . . . . . . . . . . . . . . ",
". . . . . . . . . . . . . . . . . . . r # # # Z . . L ].. <.[.# # # # # # # # # } . . 9 Y . . . . . . . . . ~.# # # # { . -.# { . . . . . . . . . . . . . . . . ",
". . . . . . . . . . . . . . . . . . . r # # # Z . . L ].. . }.# # # # # # # # # z . . o b + . . . . . . . . ~.# # # # { . -.# { . . . . . . . . . . . . . . . . ",
". . . . . . . . . . . . . . . . . . . r # # # Z . . L ].. . & D # # # # # # # # # F . . |.A . . . . . . . . ~.# # # # { . -.# { . . . . . . . . . . . . . . . . ",
". . . . . . . . . . . . . . . . . . . r # # # Z . . L ].. . . < # # # # # # # # # , . . 1.b 0 . . . . . . . ~.# # # # { . -.# { . . . . . . . . . . . . . . . . ",
". . . . . . . . . . . . . . . . . . . r # # # Z . . L ].. . . 6 2.# # # # # # # # # 1.. . ' ] . . . . . . . ~.# # # # { . -.# { . . . . . . . . . . . . . . . . ",
". . . . . . . . . . . . . . . . . . . r # # # Z . . L ].. . . . 3.# # # # # # # # # 4.. . F 8 #.. . . . . . ~.# # # # { . -.# { . . . . . . . . . . . . . . . . ",
". . . . . . . . . . . . . . . . . . . r # # # Z . . L ].. . . . ( %.# # # # # # # # # 5.. . 6.7.. . . . . . ~.# # # # { . -.# { . . . . . . . . . . . . . . . . ",
". . . . . . . . . . . . . . . . . . . r # # # Z . . L ].. . . . . I # # # # # # # # # 9 . . d 8 l . . . . . ~.# # # # { . -.# { . . . . . . . . . . . . . . . . ",
". . . . . . . . . . . . . . . . . . . r # # # Z . . L ].. . . . . k 8.# # # # # # # # # 9.. . 0.` . . . . . ~.# # # # { . -.# { . . . . . . . . . . . . . . . . ",
". . . . . . . . . . . . . . . . . . . r # # # Z . . L ].. . . . . . 3 # # # # # # # # # (.. . M 8 '.. . . . ~.# # # # { . -.# { . . . . . . . . . . . . . . . . ",
". . . . . . . . . . . . . . . . . . . r # # # Z . . L ].. . . . . . [ a.# # # # # # # # # h . . b.c.. . . . ~.# # # # { . -.# { . . . . . . . . . . . . . . . . ",
". . . . . . . . . . . . . . . . . . . r # # # Z . . L ].. . . . . . . h # # # # # # # # # +.[ . l 8 ~.. . . ~.# # # # { . -.# { . . . . . . . . . . . . . . . . ",
". . . . . . . . . . . . . . . . . . . r # # # Z . . L ].. . . . . . . . d.# # # # # # # # # !.. . c e.. . . ~.# # # # { . -.# { . . . . . . . . . . . . . . . . ",
". . . . . . . . . . . . . . . . . . . r # # # Z . . L ].. . . . . . . . 2 # # # # # # # # # f.[ . ;.b -.. . ~.# # # # { . -.# { . . . . . . . . . . . . . . . . ",
". . . . . . . . . . . . . . . . . . . r # # # Z . . L ].. . . . . . . . . g.# # # # # # # # # 3 . . A h.. . ~.# # # # { . -.# { . . . . . . . . . . . . . . . . ",
". . . . . . . . . . . . . . . . . . . r # # # Z . . L ].. . . . . . . . . q # # # # # # # # # 8.k . + $.d . ~.# # # # { . -.# { . . . . . . . . . . . . . . . . ",
". . . . . . . . . . . . . . . . . . . r # # # Z . . L ].. . . . . . . . . . , # # # # # # # # # W . . _ i.. ~.# # # # { . -.# { . . . . . . . . . . . . . . . . ",
". . . . . . . . . . . . . . . . . . . r # # # t . . L ].. . . . . . . . . . x # # # # # # # # # j.k . ) p x ~.# # # # { . -.# { . . . . . . . . . . . . . . . . ",
". . . . . . . . . . . . . . . . . . . r # # # 8.. . L ].. . . . . . . . . . . i.# # # # # # # # # ... . U k.~.# # # # { . -.# { . . . . . . . . . . . . . . . . ",
". . . . . . . . . . . . . . . . . . . r # # # | . . L ].. . . . . . . . . . . -.# # # # # # # # # l.( . ).y < # # # # { . -.# { . . . . . . . . . . . . . . . . ",
". . . . . . . . . . . . . . . . . . . r # # # m.. . L ].. . . . . . . . . . . . H # # # # # # # # # n.. . o.D # # # # { . -.# { . . . . . . . . . . . . . . . . ",
". . . . . . . . . . . . . . . . . . . r # # # p.. . ^.].. . . . . . . . . . . . '.8 # # # # # # # # ~ 6 . r B # # # # { . -.# { . . . . . . . . . . . . . . . . ",
". . . . . . . . . . . . . . . . . . . r # # # q.. . r.9 . . . . . . . . . . . . . c # # # # # # # # # s.. . w # # # # { . -.# { . . . . . . . . . . . . . . . . ",
". . . . . . . . . . . . . . . . . . . O # # # y . . E 4.. . . . . . . . . . . . . ;.b # # # # # # # # G 6 . -.# # # # { . -.# { . . . . . . . . . . . . . . . . ",
". . . . . . . . . . . . . . . . . . . ) # # # # ( . j , . . . . . . . . . . . . . . =.# # # # # # # # # t.. ~.# # # # { . -.# { . . . . . . . . . . . . . . . . ",
". . . . . . . . . . . . . . . . . . . ;.# # # # > . j u.. . . . . . . . . . . . . . ; p # # # # # # # # v.& ~.# # # # { . -.# { . . . . . . . . . . . . . . . . ",
". . . . . . . . . . . . . . . . . . . -.# # # # 0 . L j.. . . . . . . . . . . . . . . U # # # # # # # # # 7 ~.# # # # { . -.# { . . . . . . . . . . . . . . . . ",
". . . . . . . . . . . . . . . . . . . o # # # # x . 7 K . . . . . . . . . . . . . . . ).N # # # # # # # # [.v # # # # { . -.# { . . . . . . . . . . . . . . . . ",
". . . . . . . . . . . . . . . . . . . ,.# # # # f . % # 6 . . . . . . . . . . . . . . . J # # # # # # # # # H # # # # { . -.# { . . . . . . . . . . . . . . . . ",
". . . . . . . . . . . . . . . . . . . = # # # # w.. o # O . . . . . . . . . . . . . . . C : # # # # # # # # # # # # # { . -.# { . . . . . . . . . . . . . . . . ",
". . . . . . . . . . . . . . . . . . . _ # # # # U . + # ~.. . . . . . . . . . . . . . . . P # # # # # # # # # # # # # { . -.# { . . . . . . . . . . . . . . . . ",
". . . . . . . . . . . . . . . . . . . x.# # # # g.. [ n o . . . . . . . . . . . . . . . . g K # # # # # # # # # # # # { . -.# { . . . . . . . . . . . . . . . . ",
". . . . . . . . . . . . . . . . . . R b # # # # N 6 . e.t.. . . . . . . . . . . . . . . . . ^.# # # # # # # # # # # # { . -.# { . . . . . . . . . . . . . . . . ",
". . . . . . . . . . . . . . . . . . !.# # # # # # q . I y.. . . . . . . . . . . . . . . . . R /.# # # # # # # # # # # { . -.# { . . . . . . . . . . . . . . . . ",
". . . . . . . . . . . . . . . . . . _.# # # # # # A . * n C . . . . . . . . . . . . . . . . . s # # # # # # # # # # # { . -.# { . . . . . . . . . . . . . . . . ",
". . . . . . . . . . . . . . . . . v # # # # # # # b '.. z.P . . . . . . . . . . . . . . . . . * A.# # # # # # # # # # { . -.# { . . . . . . . . . . . . . . . . ",
". . . . . . . . . . . . . . . . > 2.# # # # # # # # t > & B.0 . . . . . . . . . . . . . . . . . }.# # # # # # # # # # { . -.# { . . . . . . . . . . . . . . . . ",
". . . . . . . . . . . . . . . { (.# # # # # # # # # # m ).; ' & . . . . . . . . . . . . . . . . & G # # # # # # # # # { . -.# { . . . . . . . . . . . . . . . . ",
". . . . . . . . . . . . . . } m.# # # # # # # # # # # # n I ).w C . . . . . . . . . . . . . . . . s.# # # # # # # # # { . -.# { . . . . . . . . . . . . . . . . ",
". . . . . . . . . . . . { C.8 # # # # # # # # # # # # # # # a.I M . . . . . . . . . . . . . . . . 6 2.# # # # # # # # { . -.# { . . . . . . . . . . . . . . . . ",
". . . . . . . . . . ~._ N # # # # # # # # # # # # # # # # # # # K A R . . . . . . . . . . . . . . . 3.# # # # # # # # { . -.# { . . . . . . . . . . . . . . . . ",
". . . . . . . . . . . . . . . . . . . . . . . . . . . . . . . . ( Q D.& . . . . . . . . . . . . . . . . . . . . . . . . . -.# { . . . . . . . . . . . . . . . . ",
". . . . . . . . . . . . . . . . . . . . . . . . . . . . . . . . . > V 6.( . . . . . . . . . . . . . . . . . . . . . . . . -.# { . . . . . . . . . . . . . . . . ",
". . . . . . . . . . . . . . . . . . . . . . . . . . . . . . . . . . ;./.E.[ . . . . . . . . . . . . . . . . . . . . . . . -.# { . . . . . . . . . . . . . . . . ",
". . . . . . . . . . [ z # # # # # # # # # # # # # # # # # # # # # # # # # {.. . . . . . . . . . . . . . e.# # # # # # # # # # { . . . . . . . . . . . . . . . . ",
". . . . . . . . . . . . . . . . . . . . . . . . . . . . . . . . . . . . . . . . . . . . . . . . . . . . . . . . . . . . . . . . . . . . . . . . . . . . . . . . ",
". . . . . . . . . . . . . . . . . . . . . . . . . . . . . . . . . . . . . . . . . . . . . . . . . . . . . . . . . . . . . . . . . . . . . . . . . . . . . . . . ",
". . . . . . . . . . . . . . . . . . . . . . . . . . . . . . . . . . . . . . . . . . . . . . . . . . . . . . . . . . . . . . . . . . . . . . . . . . . . . . . . ",
". . . . . . . . . . . . . . . . . . . . . . . . . . . . . . . . . . . . . . . . . . . . . . . . . . . . . . . . . . . . . . . . . . . . . . . . . . . . . . . . ",
". . . . . . . . . . . . . . . . . . . . . . . . . . . . . . . . . . . . . . . . . . . . . . . . . . . . . . . . . . . . . . . . . . . . . . . . . . . . . . . . ",
". . . . . . . . . . . . . . . . . . . . . . . . . . . . . . . . . . . . . . . . . . . . . . . . . . . . . . . . . . . . . . . . . . . . . . . . . . . . . . . . "};
