/* XPM */
static xpm_row_t const letterH_xpm[] = {
"80 80 144 2",
"  	c None",
". 	c #FF0000",
"+ 	c #D70000",
"@ 	c #2E0000",
"# 	c #000000",
"$ 	c #A70000",
"% 	c #FE0000",
"& 	c #CA0000",
"* 	c #160000",
"= 	c #4F0000",
"- 	c #E90000",
"; 	c #DF0000",
"> 	c #3D0000",
", 	c #A80000",
"' 	c #F80000",
") 	c #D30000",
"! 	c #260000",
"~ 	c #530000",
"{ 	c #EB0000",
"] 	c #FA0000",
"^ 	c #E60000",
"/ 	c #4D0000",
"( 	c #AA0000",
"_ 	c #D60000",
": 	c #420000",
"< 	c #EC0000",
"[ 	c #DB0000",
"} 	c #350000",
"| 	c #580000",
"1 	c #7D0000",
"2 	c #C90000",
"3 	c #5D0000",
"4 	c #AB0000",
"5 	c #220000",
"6 	c #B00000",
"7 	c #E20000",
"8 	c #5C0000",
"9 	c #EE0000",
"0 	c #6E0000",
"a 	c #F40000",
"b 	c #F10000",
"c 	c #6C0000",
"d 	c #AD0000",
"e 	c #E80000",
"f 	c #510000",
"g 	c #600000",
"h 	c #EF0000",
"i 	c #7E0000",
"j 	c #720000",
"k 	c #F50000",
"l 	c #790000",
"m 	c #D80000",
"n 	c #AF0000",
"o 	c #ED0000",
"p 	c #0D0000",
"q 	c #650000",
"r 	c #7F0000",
"s 	c #750000",
"t 	c #F60000",
"u 	c #DC0000",
"v 	c #9E0000",
"w 	c #D90000",
"x 	c #1C0000",
"y 	c #F20000",
"z 	c #770000",
"A 	c #BE0000",
"B 	c #A50000",
"C 	c #620000",
"D 	c #B90000",
"E 	c #6A0000",
"F 	c #F70000",
"G 	c #CD0000",
"H 	c #B60000",
"I 	c #970000",
"J 	c #BC0000",
"K 	c #CC0000",
"L 	c #8E0000",
"M 	c #760000",
"N 	c #700000",
"O 	c #830000",
"P 	c #780000",
"Q 	c #660000",
"R 	c #400000",
"S 	c #2A0000",
"T 	c #450000",
"U 	c #550000",
"V 	c #880000",
"W 	c #A90000",
"X 	c #DA0000",
"Y 	c #470000",
"Z 	c #380000",
"` 	c #4B0000",
" .	c #980000",
"..	c #D20000",
"+.	c #F00000",
"@.	c #890000",
"#.	c #A20000",
"$.	c #940000",
"%.	c #850000",
"&.	c #490000",
"*.	c #5A0000",
"=.	c #8F0000",
"-.	c #A10000",
";.	c #B30000",
">.	c #A30000",
",.	c #8B0000",
"'.	c #C60000",
").	c #B40000",
"!.	c #BB0000",
"~.	c #FD0000",
"{.	c #C50000",
"].	c #B10000",
"^.	c #C30000",
"/.	c #FC0000",
"(.	c #810000",
"_.	c #320000",
":.	c #8C0000",
"<.	c #E50000",
"[.	c #D00000",
"}.	c #9D0000",
"|.	c #6D0000",
"1.	c #860000",
"2.	c #FB0000",
"3.	c #C80000",
"4.	c #560000",
"5.	c #9F0000",
"6.	c #900000",
"7.	c #C40000",
"8.	c #3B0000",
"9.	c #870000",
"0.	c #AE0000",
"a.	c #690000",
"b.	c #800000",
"c.	c #910000",
"d.	c #E70000",
"e.	c #D40000",
"f.	c #9C0000",
"g.	c #F30000",
"h.	c #7A0000",
"i.	c #F90000",
"j.	c #E40000",
"k.	c #A00000",
"l.	c #B20000",
"m.	c #C70000",
". . . . . . . . . . . . . . . . . . . . . . . . . . . . . . . . . . . . . . . . . . . . . . . . . . . . . . . . . . . . . . . . . . . . . . . . . . . . . . . . ",
". . . . . . . . . . . . . . . . . . . . . . . . . . . . . . . . . . . . . . . . . . . . . . . . . . . . . . . . . . . . . . . . . . . . . . . . . . . . . . . . ",
". . . . . . . . . . . . . . . . . . . . . . . . . . . . . . . . . . . . . . . . . . . . . . . . . . . . . . . . . . . . . . . . . . . . . . . . . . . . . . . . ",
". . . . . . . . . . . . . . . . . . . . . . . . . . . . . . . . . . . . . . . . . . . . . . . . . . . . . . . . . . . . . . . . . . . . . . . . . . . . . . . . ",
". . . . . . . . . . . . . . . . . . . . . . . . . . . . . . . . . . . . . . . . . . . . . . . . . . . . . . . . . . . . . . . . . . . . . . . . . . . . . . . . ",
". . . . . . . . . . . . . . . . . . . . . . . . . . . . . . . . . . . . . . . . . . . . . . . . . . . . . . . . . . . . . . . . . . . . . . . . . . . . . . . . ",
". . . . . . . . . . . . . . . . . . . . . . . . . . . . . . . . . . . . . . . . . . . . . . . . . . . . . . . . . . . . . . . . . . . . . . . . . . . . . . . . ",
". . . . . . . . . . . . . + @ # # # # # # # # # # # # # # # # # # # # $ % . . . . . . . . & * # # # # # # # # # # # # # # # # # # # = - . . . . . . . . . . . . ",
". . . . . . . . . . . . . . ; > # # # # # # # # # # # # # # # # # # , . . ' . . . . . . . . ) ! # # # # # # # # # # # # # # # # # ~ { . ] . . . . . . . . . . . ",
". . . . . . . . . . . . . . . ^ / # # # # # # # # # # # # # # # # ( . . _ : < . . . . . . . . [ } # # # # # # # # # # # # # # # | < . ' 1 2 . . . . . . . . . . ",
". . . . . . . . . . . . . . . . < 3 # # # # # # # # # # # # # # 4 . . + 5 6 . . . . . . . . . . 7 : # # # # # # # # # # # # # 8 9 . ' 1 0 a . . . . . . . . . . ",
". . . . . . . . . . . . . . . . . b c # # # # # # # # # # # # d . . + ! 6 . . . . . . . . . . . . e f # # # # # # # # # # # g h . ' i j k . . . . . . . . . . . ",
". . . . . . . . . . . . . . . . . . k l # # # # # # # # # # d . . m ! n . . . . . . . . . . . . . . o p # # # # # # # # # q b . ' r s t . . . . . . . . . . . . ",
". . . . . . . . . . . . . . . . . . . u # # # # # # # # # v . . w ! n . . . . . . . . . . . . . . . . x # # # # # # # # : y . ' r z t . . . . . . . . . . . . . ",
". . . . . . . . . . . . . . . . . . . u # # # # # # # # # A . . q B . . . . . . . . . . . . . . . . . x # # # # # # # # C . . D E F . . . . . . . . . . . . . . ",
". . . . . . . . . . . . . . . . . . . u # # # # # # # # # A . . C G . . . . . . . . . . . . . . . . . x # # # # # # # # C . . H I . . . . . . . . . . . . . . . ",
". . . . . . . . . . . . . . . . . . . u # # # # # # # # # A . . C G . . . . . . . . . . . . . . . . . x # # # # # # # # C . . H I . . . . . . . . . . . . . . . ",
". . . . . . . . . . . . . . . . . . . u # # # # # # # # # A . . C G . . . . . . . . . . . . . . . . . x # # # # # # # # C . . H I . . . . . . . . . . . . . . . ",
". . . . . . . . . . . . . . . . . . . u # # # # # # # # # A . . C G . . . . . . . . . . . . . . . . . x # # # # # # # # C . . H I . . . . . . . . . . . . . . . ",
". . . . . . . . . . . . . . . . . . . u # # # # # # # # # A . . C G . . . . . . . . . . . . . . . . . x # # # # # # # # C . . H I . . . . . . . . . . . . . . . ",
". . . . . . . . . . . . . . . . . . . u # # # # # # # # # A . . C G . . . . . . . . . . . . . . . . . x # # # # # # # # C . . H I . . . . . . . . . . . . . . . ",
". . . . . . . . . . . . . . . . . . . u # # # # # # # # # A . . C G . . . . . . . . . . . . . . . . . x # # # # # # # # C . . H I . . . . . . . . . . . . . . . ",
". . . . . . . . . . . . . . . . . . . u # # # # # # # # # A . . C G . . . . . . . . . . . . . . . . . x # # # # # # # # C . . H I . . . . . . . . . . . . . . . ",
". . . . . . . . . . . . . . . . . . . u # # # # # # # # # A . . C G . . . . . . . . . . . . . . . . . x # # # # # # # # C . . H I . . . . . . . . . . . . . . . ",
". . . . . . . . . . . . . . . . . . . u # # # # # # # # # A . . C G . . . . . . . . . . . . . . . . . x # # # # # # # # C . . H I . . . . . . . . . . . . . . . ",
". . . . . . . . . . . . . . . . . . . u # # # # # # # # # A . . C G . . . . . . . . . . . . . . . . . x # # # # # # # # C . . H I . . . . . . . . . . . . . . . ",
". . . . . . . . . . . . . . . . . . . u # # # # # # # # # A . . C G . . . . . . . . . . . . . . . . . x # # # # # # # # C . . H I . . . . . . . . . . . . . . . ",
". . . . . . . . . . . . . . . . . . . u # # # # # # # # # A . . C G . . . . . . . . . . . . . . . . . x # # # # # # # # C . . H I . . . . . . . . . . . . . . . ",
". . . . . . . . . . . . . . . . . . . u # # # # # # # # # A . . C G . . . . . . . . . . . . . . . . . x # # # # # # # # C . . H I . . . . . . . . . . . . . . . ",
". . . . . . . . . . . . . . . . . . . u # # # # # # # # # A . . C G . . . . . . . . . . . . . . . . . x # # # # # # # # C . . H I . . . . . . . . . . . . . . . ",
". . . . . . . . . . . . . . . . . . . u # # # # # # # # # A . . C G . . . . . . . . . . . . . . . . . x # # # # # # # # C . . H I . . . . . . . . . . . . . . . ",
". . . . . . . . . . . . . . . . . . . u # # # # # # # # # A . . C G . . . . . . . . . . . . . . . . . x # # # # # # # # C . . H I . . . . . . . . . . . . . . . ",
". . . . . . . . . . . . . . . . . . . u # # # # # # # # # A . . C G . . . . . . . . . . . . . . . . . x # # # # # # # # C . . H I . . . . . . . . . . . . . . . ",
". . . . . . . . . . . . . . . . . . . u # # # # # # # # # A . . C G . . . . . . . . . . . . . . . . . x # # # # # # # # C . . H I . . . . . . . . . . . . . . . ",
". . . . . . . . . . . . . . . . . . . u # # # # # # # # # J . . C G . . . . . . . . . . . . . . . . . x # # # # # # # # C . . H I . . . . . . . . . . . . . . . ",
". . . . . . . . . . . . . . . . . t K L # # # # # # # # # # f M @ N O P N Q 8 = R S p * 5 } T U Q z V p # # # # # # # # C . . H I . . . . . . . . . . . . . . . ",
". . . . . . . . . . . . . . . k W @ # # # # # # # # # # # # # # # # # # # # # # # # # # # # # # # # # # # # # # # # # # C . . H I . . . . . . . . . . . . . . . ",
". . . . . . . . . . . . . . X Y # # # # # # # # # # # # # # # # # # # # # # # # # # # # # # # # # # # # # # # # # # # # C . . H I . . . . . . . . . . . . . . . ",
". . . . . . . . . . . . . G p # # # # # # # # # # # # # # # # # # # # # # # # # # # # # # # # # # # # # # # # # # # # # C . . H I . . . . . . . . . . . . . . . ",
". . . . . . . . . . . . [ p # # # # 5 Z # # # # # # # # # # # # # # # # # # # # # # # # # # # # # # # # # # # # # # # # C . . H I . . . . . . . . . . . . . . . ",
". . . . . . . . . . . a ` # x  ...+.% u # # # # # # # # # @.6 #.$.%.j 3 : S * # # * ! Z &.*.c i =.-.;.p # # # # # # # # C . . H I . . . . . . . . . . . . . . . ",
". . . . . . . . . . . >.# ,.o . . . F '.# # # # # # # # # A . . . . . . . . . . . . . . . . . . . . . x # # # # # # # # C . . H I . . . . . . . . . . . . . . . ",
". . . . . . . . . . < p ).% . y !.Q # 5 # # # # # # # # # A . . ~.. . . . . . . . . . . . . . . . y D p # # # # # # # # C . . H I . . . . . . . . . . . . . . . ",
". . . . . . . . . . {.].. % ^./ d 7 F u # # # # # # # # # A . . Q 8 %.>.!.K u - y ] % /.t < + !.(._.:.p # # # # # # # # C . . H I . . . . . . . . . . . . . . . ",
". . . . . . . . . . . . ~.I %.h . . . u # # # # # # # # # A . . C ^.<.[.D }.r |.*.R * _.= M I D X ' . x # # # # # # # # C . . H I . . . . . . . . . . . . . . . ",
". . . . . . . . . . . . D 1.2.. . . . u # # # # # # # # # A . . C G . . . . . . . . . . . . . . . . . x # # # # # # # # C . . H I . . . . . . . . . . . . . . . ",
". . . . . . . . . . . . % 2.. . . . . u # # # # # # # # # A . . C G . . . . . . . . . . . . . . . . . x # # # # # # # # C . . H I . . . . . . . . . . . . . . . ",
". . . . . . . . . . . . . . . . . . . u # # # # # # # # # A . . C G . . . . . . . . . . . . . . . . . x # # # # # # # # C . . H I . . . . . . . . . . . . . . . ",
". . . . . . . . . . . . . . . . . . . u # # # # # # # # # A . . C G . . . . . . . . . . . . . . . . . x # # # # # # # # C . . H I . . . . . . . . . . . . . . . ",
". . . . . . . . . . . . . . . . . . . u # # # # # # # # # A . . C G . . . . . . . . . . . . . . . . . x # # # # # # # # C . . H I . . . . . . . . . . . . . . . ",
". . . . . . . . . . . . . . . . . . . u # # # # # # # # # A . . C G . . . . . . . . . . . . . . . . . x # # # # # # # # C . . H I . . . . . . . . . . . . . . . ",
". . . . . . . . . . . . . . . . . . . u # # # # # # # # # A . . C G . . . . . . . . . . . . . . . . . x # # # # # # # # C . . H I . . . . . . . . . . . . . . . ",
". . . . . . . . . . . . . . . . . . . u # # # # # # # # # A . . C G . . . . . . . . . . . . . . . . . x # # # # # # # # C . . H I . . . . . . . . . . . . . . . ",
". . . . . . . . . . . . . . . . . . . u # # # # # # # # # A . . C G . . . . . . . . . . . . . . . . . x # # # # # # # # C . . H I . . . . . . . . . . . . . . . ",
". . . . . . . . . . . . . . . . . . . u # # # # # # # # # A . . C G . . . . . . . . . . . . . . . . . x # # # # # # # # C . . H I . . . . . . . . . . . . . . . ",
". . . . . . . . . . . . . . . . . . . u # # # # # # # # # A . . C G . . . . . . . . . . . . . . . . . x # # # # # # # # C . . H I . . . . . . . . . . . . . . . ",
". . . . . . . . . . . . . . . . . . . u # # # # # # # # # A . . C G . . . . . . . . . . . . . . . . . x # # # # # # # # C . . H I . . . . . . . . . . . . . . . ",
". . . . . . . . . . . . . . . . . . . u # # # # # # # # # A . . C G . . . . . . . . . . . . . . . . . x # # # # # # # # C . . H I . . . . . . . . . . . . . . . ",
". . . . . . . . . . . . . . . . . . . u # # # # # # # # # A . . C G . . . . . . . . . . . . . . . . . x # # # # # # # # C . . H I . . . . . . . . . . . . . . . ",
". . . . . . . . . . . . . . . . . . . u # # # # # # # # # A . . C G . . . . . . . . . . . . . . . . . x # # # # # # # # C . . H I . . . . . . . . . . . . . . . ",
". . . . . . . . . . . . . . . . . . . u # # # # # # # # # A . . C G . . . . . . . . . . . . . . . . . x # # # # # # # # C . . H I . . . . . . . . . . . . . . . ",
". . . . . . . . . . . . . . . . . . . u # # # # # # # # # A . . C G . . . . . . . . . . . . . . . . . x # # # # # # # # C . . H I . . . . . . . . . . . . . . . ",
". . . . . . . . . . . . . . . . . . . u # # # # # # # # # A . . C G . . . . . . . . . . . . . . . . . x # # # # # # # # C . . H I . . . . . . . . . . . . . . . ",
". . . . . . . . . . . . . . . . . . . u # # # # # # # # # A . . C G . . . . . . . . . . . . . . . . . x # # # # # # # # C . . H I . . . . . . . . . . . . . . . ",
". . . . . . . . . . . . . . . . . . . n # # # # # # # # # H . . C 3.. . . . . . . . . . . . . . . . [ p # # # # # # # # 4.~.. H I . . . . . . . . . . . . . . . ",
". . . . . . . . . . . . . . . . . /.5.# # # # # # # # # # x 3.. 6.= 9 . . . . . . . . . . . . . . 3.x # # # # # # # # # # $.2.7.8.^ . . . . . . . . . . . . . . ",
". . . . . . . . . . . . . . . . F 9.# # # # # # # # # # # # # 0.k c a.t . . . . . . . . . . . % n # # # # # # # # # # # # # b.a $.f 9 . . . . . . . . . . . . . ",
". . . . . . . . . . . . . . . +.N # # # # # # # # # # # # # # # c.- ~ O 2.. . . . . . . . . ] $.# # # # # # # # # # # # # # # E { 1 Q k . . . . . . . . . . . . ",
". . . . . . . . . . . . . . d.U # # # # # # # # # # # # # # # # # j e.Z f.. . . . . . . . g.P # # # # # # # # # # # # # # # # # U u q h.i.. . . . . . . . . . . ",
". . . . . . . . . . . . . X 8.# # # # # # # # # # # # # # # # # # # ~ H * ).. . . . . . e 8 # # # # # # # # # # # # # # # # # # # R 3./ L ~.. . . . . . . . . . ",
". . . . . . . . . . . . . . . . . . . . . . . . . . . . . . . . . . . . 3.# & . . . . . . . . . . . . . . . . . . . . . . . . . . . . j._.k.. . . . . . . . . . ",
". . . . . . . . . . . . . . . . . . . . . . . . . . . . . . . . . . . . . ;.x [ . . . . . . . . . . . . . . . . . . . . . . . . . . . . + * l.. . . . . . . . . ",
". . . . . . . . . . . . . . . . . . . . . . . . . . . . . . . . . . . . . . f.> e . . . . . . . . . . . . . . . . . . . . . . . . . . . . m.# 7.. . . . . . . . ",
". . . . . . . . . . . . . . . 7.5 # # # # # # # # # # # # # # # # # # # # # # # | b . . . . 7 f # # # # # # # # # # # # # # # # # # # # # # # p ... . . . . . . ",
". . . . . . . . . . . . . . . . . . . . . . . . . . . . . . . . . . . . . . . . . . . . . . . . . . . . . . . . . . . . . . . . . . . . . . . . . . . . . . . . ",
". . . . . . . . . . . . . . . . . . . . . . . . . . . . . . . . . . . . . . . . . . . . . . . . . . . . . . . . . . . . . . . . . . . . . . . . . . . . . . . . ",
". . . . . . . . . . . . . . . . . . . . . . . . . . . . . . . . . . . . . . . . . . . . . . . . . . . . . . . . . . . . . . . . . . . . . . . . . . . . . . . . ",
". . . . . . . . . . . . . . . . . . . . . . . . . . . . . . . . . . . . . . . . . . . . . . . . . . . . . . . . . . . . . . . . . . . . . . . . . . . . . . . . ",
". . . . . . . . . . . . . . . . . . . . . . . . . . . . . . . . . . . . . . . . . . . . . . . . . . . . . . . . . . . . . . . . . . . . . . . . . . . . . . . . ",
". . . . . . . . . . . . . . . . . . . . . . . . . . . . . . . . . . . . . . . . . . . . . . . . . . . . . . . . . . . . . . . . . . . . . . . . . . . . . . . . "};
