/* XPM */
static xpm_row_t const letterT_xpm[] = {
"80 80 137 2",
"  	c None",
". 	c #FF0000",
"+ 	c #F40000",
"@ 	c #350000",
"# 	c #000000",
"$ 	c #E70000",
"% 	c #AF0000",
"& 	c #9A0000",
"* 	c #F30000",
"= 	c #2A0000",
"- 	c #220000",
"; 	c #EE0000",
"> 	c #AA0000",
", 	c #AC0000",
"' 	c #FB0000",
") 	c #920000",
"! 	c #EF0000",
"~ 	c #F00000",
"{ 	c #1C0000",
"] 	c #760000",
"^ 	c #B30000",
"/ 	c #D50000",
"( 	c #EC0000",
"_ 	c #FA0000",
": 	c #FE0000",
"< 	c #F50000",
"[ 	c #EA0000",
"} 	c #D60000",
"| 	c #A10000",
"1 	c #F90000",
"2 	c #F20000",
"3 	c #E50000",
"4 	c #C90000",
"5 	c #9E0000",
"6 	c #2E0000",
"7 	c #3D0000",
"8 	c #A80000",
"9 	c #E90000",
"0 	c #9B0000",
"a 	c #8A0000",
"b 	c #E20000",
"c 	c #F60000",
"d 	c #160000",
"e 	c #BC0000",
"f 	c #DE0000",
"g 	c #C00000",
"h 	c #E30000",
"i 	c #BB0000",
"j 	c #FC0000",
"k 	c #550000",
"l 	c #FD0000",
"m 	c #6E0000",
"n 	c #720000",
"o 	c #7E0000",
"p 	c #AE0000",
"q 	c #D80000",
"r 	c #B00000",
"s 	c #830000",
"t 	c #5F0000",
"u 	c #420000",
"v 	c #0D0000",
"w 	c #6C0000",
"x 	c #3B0000",
"y 	c #380000",
"z 	c #560000",
"A 	c #750000",
"B 	c #990000",
"C 	c #BE0000",
"D 	c #C80000",
"E 	c #D20000",
"F 	c #6D0000",
"G 	c #700000",
"H 	c #DD0000",
"I 	c #F10000",
"J 	c #F80000",
"K 	c #4D0000",
"L 	c #A30000",
"M 	c #EB0000",
"N 	c #840000",
"O 	c #580000",
"P 	c #5A0000",
"Q 	c #8D0000",
"R 	c #4B0000",
"S 	c #CA0000",
"T 	c #B40000",
"U 	c #470000",
"V 	c #D10000",
"W 	c #A50000",
"X 	c #BF0000",
"Y 	c #E40000",
"Z 	c #D40000",
"` 	c #660000",
" .	c #8F0000",
"..	c #5D0000",
"+.	c #D00000",
"@.	c #D70000",
"#.	c #7A0000",
"$.	c #510000",
"%.	c #DA0000",
"&.	c #C10000",
"*.	c #CF0000",
"=.	c #9C0000",
"-.	c #CB0000",
";.	c #CE0000",
">.	c #780000",
",.	c #AD0000",
"'.	c #DC0000",
").	c #320000",
"!.	c #CD0000",
"~.	c #6A0000",
"{.	c #A00000",
"].	c #770000",
"^.	c #CC0000",
"/.	c #D30000",
"(.	c #C70000",
"_.	c #C60000",
":.	c #C50000",
"<.	c #C40000",
"[.	c #C30000",
"}.	c #C20000",
"|.	c #BD0000",
"1.	c #BA0000",
"2.	c #B90000",
"3.	c #B80000",
"4.	c #B70000",
"5.	c #B60000",
"6.	c #B50000",
"7.	c #950000",
"8.	c #980000",
"9.	c #A90000",
"0.	c #850000",
"a.	c #9F0000",
"b.	c #E60000",
"c.	c #7F0000",
"d.	c #400000",
"e.	c #820000",
"f.	c #DF0000",
". . . . . . . . . . . . . . . . . . . . . . . . . . . . . . . . . . . . . . . . . . . . . . . . . . . . . . . . . . . . . . . . . . . . . . . . . . . . . . . . ",
". . . . . . . . . . . . . . . . . . . . . . . . . . . . . . . . . . . . . . . . . . . . . . . . . . . . . . . . . . . . . . . . . . . . . . . . . . . . . . . . ",
". . . . . . . . . . . . . . . . . . . . . . . . . . . . . . . . . . . . . . . . . . . . . . . . . . . . . . . . . . . . . . . . . . . . . . . . . . . . . . . . ",
". . . . . . . . . . . . . . . . . . . . . . . . . . . . . . . . . . . . . . . . . . . . . . . . . . . . . . . . . . . . . . . . . . . . . . . . . . . . . . . . ",
". . . . . . . . . . . . . . . . . . . . . . . . . . . . . . . . . . . . . . . . . . . . . . . . . . . . . . . . . . . . . . . . . . . . . . . . . . . . . . . . ",
". . . . . . . . . . . . . . . . . . . . . . . . . . . . . . . . . . . . . . . . . . . . . . . . . . . . . . . . . . . . . . . . . . . . . . . . . . . . . . . . ",
". . . . . . . . . . . . . . . . . . . . . . . . . . . . . . . . . . . . . . . . . . . . . . . . . . . . . . . . . . . . . . . . . . . . . . . . . . . . . . . . ",
". . . . . . . . + @ # # # # # # # # # # # # # # # # # # # # # # # # # # # # # # # # # # # # # # # # # # # # # # # # # # # # # # # # # $ . . . . . . . . . . . . ",
". . . . . . . . . % # # # # # # # # # # # # # # # # # # # # # # # # # # # # # # # # # # # # # # # # # # # # # # # # # # # # # # # # & . . . . . . . . . . . . . ",
". . . . . . . . . * = # # # # # # # # # # # # # # # # # # # # # # # # # # # # # # # # # # # # # # # # # # # # # # # # # # # # # # - ; . . . . . . . . . . . . . ",
". . . . . . . . . . > # # # # # # # # # # # # # # # # # # # # # # # # # # # # # # # # # # # # # # # # # # # # # # # # # # # # # # , . . ' ) ! . . . . . . . . . ",
". . . . . . . . . . ~ { # # # # # # # # # # ] ^ / ( * _ : _ < [ } # # # # # # # # # | . . . . . 1 2 3 4 5 6 # # # # # # # # # # 7 < . . 8 6 9 . . . . . . . . . ",
". . . . . . . . . . . 0 # # # # # # # # a b . . . . . . . . . . c # # # # # # # # # | . . . . . . . . . . c ^ d # # # # # # # # e . . f # g . . . . . . . . . . ",
". . . . . . . . . . . h # # # # # # # i : . . . . . . . . . j 1 ; # # # # # # # # # | . . . . . . . . . . . . f 6 # # # # # # k _ . l m n l . . . . . . . . . . ",
". . . . . . . . . . . . o # # # # # p . . . . : q r s t u v # # # # # # # # # # # # | . . w x d - y z A B C ( . / # # # # # # D . . 4 # f . . . . . . . . . . . ",
". . . . . . . . . . . . E # # # # F j . . . E t G C H I J l + 9 } # # # # # # # # # | . . K L M ' J ! f i N d > j & # # # # O ' . ' P Q . . . . . . . . . . . . ",
". . . . . . . . . . . . j R # # # S . . . T U } . . . . . . . . c # # # # # # # # # | . . K V . . . . . . . [ W L ~ - # # # X . . 4 # Y . . . . . . . . . . . . ",
". . . . . . . . . . . . . % # # 7 ' . . Z x ( . . . . . . . . . c # # # # # # # # # | . . K V . . . . . . . . . h ~ B # # 6 c . : ` a . . . . . . . . . . . . . ",
". . . . . . . . . . . . . 9 # #  .. . l ..S . . . . . . . . . . c # # # # # # # # # | . . K +.. . . . . . . . . . . H # # 0 . . @.# H . . . . . . . . . . . . . ",
". . . . . . . . . . . . . . #.# C . . E $.j . . . . . . . . . . c # # # # # # # # # | . . K +.. . . . . . . . . . . : U # %.. . a n . . . . . . . . . . . . . . ",
". . . . . . . . . . . . . . &.# %.. . 0 % . . . . . . . . . . . c # # # # # # # # # | . . K *.. . . . . . . . . . . . =.U l . ; # -.. . . . . . . . . . . . . . ",
". . . . . . . . . . . . . . ! # $ . . K @.. . . . . . . . . . . c # # # # # # # # # | . . K ;.. . . . . . . . . . . . ;.L . . T u _ . . . . . . . . . . . . . . ",
". . . . . . . . . . . . . . . >.* . ; # + . . . . . . . . . . . c # # # # # # # # # | . . K ;.. . . . . . . . . . . . c $ . : k ,.. . . . . . . . . . . . . . . ",
". . . . . . . . . . . . . . . ; : . '.).. . . . . . . . . . . . c # # # # # # # # # | . . K !.. . . . . . . . . . . . . . . '.# 9 . . . . . . . . . . . . . . . ",
". . . . . . . . . . . . . . . . . . D ~.. . . . . . . . . . . . c # # # # # # # # # | . . K !.. . . . . . . . . . . . . . . {.].. . . . . . . . . . . . . . . . ",
". . . . . . . . . . . . . . . . . . . . . . . . . . . . . . . . c # # # # # # # # # | . . K ^.. . . . . . . . . . . . . . . /.S . . . . . . . . . . . . . . . . ",
". . . . . . . . . . . . . . . . . . . . . . . . . . . . . . . . c # # # # # # # # # | . . K -.. . . . . . . . . . . . . . . . . . . . . . . . . . . . . . . . . ",
". . . . . . . . . . . . . . . . . . . . . . . . . . . . . . . . c # # # # # # # # # | . . K -.. . . . . . . . . . . . . . . . . . . . . . . . . . . . . . . . . ",
". . . . . . . . . . . . . . . . . . . . . . . . . . . . . . . . c # # # # # # # # # | . . K S . . . . . . . . . . . . . . . . . . . . . . . . . . . . . . . . . ",
". . . . . . . . . . . . . . . . . . . . . . . . . . . . . . . . c # # # # # # # # # | . . K S . . . . . . . . . . . . . . . . . . . . . . . . . . . . . . . . . ",
". . . . . . . . . . . . . . . . . . . . . . . . . . . . . . . . c # # # # # # # # # | . . K 4 . . . . . . . . . . . . . . . . . . . . . . . . . . . . . . . . . ",
". . . . . . . . . . . . . . . . . . . . . . . . . . . . . . . . c # # # # # # # # # | . . K 4 . . . . . . . . . . . . . . . . . . . . . . . . . . . . . . . . . ",
". . . . . . . . . . . . . . . . . . . . . . . . . . . . . . . . c # # # # # # # # # | . . K D . . . . . . . . . . . . . . . . . . . . . . . . . . . . . . . . . ",
". . . . . . . . . . . . . . . . . . . . . . . . . . . . . . . . c # # # # # # # # # | . . K D . . . . . . . . . . . . . . . . . . . . . . . . . . . . . . . . . ",
". . . . . . . . . . . . . . . . . . . . . . . . . . . . . . . . c # # # # # # # # # | . . K (.. . . . . . . . . . . . . . . . . . . . . . . . . . . . . . . . . ",
". . . . . . . . . . . . . . . . . . . . . . . . . . . . . . . . c # # # # # # # # # | . . K (.. . . . . . . . . . . . . . . . . . . . . . . . . . . . . . . . . ",
". . . . . . . . . . . . . . . . . . . . . . . . . . . . . . . . c # # # # # # # # # | . . K _.. . . . . . . . . . . . . . . . . . . . . . . . . . . . . . . . . ",
". . . . . . . . . . . . . . . . . . . . . . . . . . . . . . . . c # # # # # # # # # | . . K :.. . . . . . . . . . . . . . . . . . . . . . . . . . . . . . . . . ",
". . . . . . . . . . . . . . . . . . . . . . . . . . . . . . . . c # # # # # # # # # | . . K :.. . . . . . . . . . . . . . . . . . . . . . . . . . . . . . . . . ",
". . . . . . . . . . . . . . . . . . . . . . . . . . . . . . . . c # # # # # # # # # | . . K <.. . . . . . . . . . . . . . . . . . . . . . . . . . . . . . . . . ",
". . . . . . . . . . . . . . . . . . . . . . . . . . . . . . . . c # # # # # # # # # | . . K <.. . . . . . . . . . . . . . . . . . . . . . . . . . . . . . . . . ",
". . . . . . . . . . . . . . . . . . . . . . . . . . . . . . . . c # # # # # # # # # | . . K [.. . . . . . . . . . . . . . . . . . . . . . . . . . . . . . . . . ",
". . . . . . . . . . . . . . . . . . . . . . . . . . . . . . . . c # # # # # # # # # | . . K }.. . . . . . . . . . . . . . . . . . . . . . . . . . . . . . . . . ",
". . . . . . . . . . . . . . . . . . . . . . . . . . . . . . . . c # # # # # # # # # | . . K }.. . . . . . . . . . . . . . . . . . . . . . . . . . . . . . . . . ",
". . . . . . . . . . . . . . . . . . . . . . . . . . . . . . . . c # # # # # # # # # | . . K &.. . . . . . . . . . . . . . . . . . . . . . . . . . . . . . . . . ",
". . . . . . . . . . . . . . . . . . . . . . . . . . . . . . . . c # # # # # # # # # | . . K g . . . . . . . . . . . . . . . . . . . . . . . . . . . . . . . . . ",
". . . . . . . . . . . . . . . . . . . . . . . . . . . . . . . . c # # # # # # # # # | . . K g . . . . . . . . . . . . . . . . . . . . . . . . . . . . . . . . . ",
". . . . . . . . . . . . . . . . . . . . . . . . . . . . . . . . c # # # # # # # # # | . . K X . . . . . . . . . . . . . . . . . . . . . . . . . . . . . . . . . ",
". . . . . . . . . . . . . . . . . . . . . . . . . . . . . . . . c # # # # # # # # # | . . K C . . . . . . . . . . . . . . . . . . . . . . . . . . . . . . . . . ",
". . . . . . . . . . . . . . . . . . . . . . . . . . . . . . . . c # # # # # # # # # | . . K C . . . . . . . . . . . . . . . . . . . . . . . . . . . . . . . . . ",
". . . . . . . . . . . . . . . . . . . . . . . . . . . . . . . . c # # # # # # # # # | . . K |.. . . . . . . . . . . . . . . . . . . . . . . . . . . . . . . . . ",
". . . . . . . . . . . . . . . . . . . . . . . . . . . . . . . . c # # # # # # # # # | . . K |.. . . . . . . . . . . . . . . . . . . . . . . . . . . . . . . . . ",
". . . . . . . . . . . . . . . . . . . . . . . . . . . . . . . . c # # # # # # # # # | . . K e . . . . . . . . . . . . . . . . . . . . . . . . . . . . . . . . . ",
". . . . . . . . . . . . . . . . . . . . . . . . . . . . . . . . c # # # # # # # # # | . . K i . . . . . . . . . . . . . . . . . . . . . . . . . . . . . . . . . ",
". . . . . . . . . . . . . . . . . . . . . . . . . . . . . . . . c # # # # # # # # # | . . K i . . . . . . . . . . . . . . . . . . . . . . . . . . . . . . . . . ",
". . . . . . . . . . . . . . . . . . . . . . . . . . . . . . . . c # # # # # # # # # | . . K 1.. . . . . . . . . . . . . . . . . . . . . . . . . . . . . . . . . ",
". . . . . . . . . . . . . . . . . . . . . . . . . . . . . . . . c # # # # # # # # # | . . K 2.. . . . . . . . . . . . . . . . . . . . . . . . . . . . . . . . . ",
". . . . . . . . . . . . . . . . . . . . . . . . . . . . . . . . c # # # # # # # # # | . . K 2.. . . . . . . . . . . . . . . . . . . . . . . . . . . . . . . . . ",
". . . . . . . . . . . . . . . . . . . . . . . . . . . . . . . . c # # # # # # # # # | . . K 3.. . . . . . . . . . . . . . . . . . . . . . . . . . . . . . . . . ",
". . . . . . . . . . . . . . . . . . . . . . . . . . . . . . . . c # # # # # # # # # | . . K 4.. . . . . . . . . . . . . . . . . . . . . . . . . . . . . . . . . ",
". . . . . . . . . . . . . . . . . . . . . . . . . . . . . . . . c # # # # # # # # # | . . K 5.. . . . . . . . . . . . . . . . . . . . . . . . . . . . . . . . . ",
". . . . . . . . . . . . . . . . . . . . . . . . . . . . . . . . c # # # # # # # # # | . . K 5.. . . . . . . . . . . . . . . . . . . . . . . . . . . . . . . . . ",
". . . . . . . . . . . . . . . . . . . . . . . . . . . . . . . . c # # # # # # # # # | . . K 6.. . . . . . . . . . . . . . . . . . . . . . . . . . . . . . . . . ",
". . . . . . . . . . . . . . . . . . . . . . . . . . . . . . . . c # # # # # # # # # | . . K T . . . . . . . . . . . . . . . . . . . . . . . . . . . . . . . . . ",
". . . . . . . . . . . . . . . . . . . . . . . . . . . . . . . . !.# # # # # # # # # 7.. . K T . . . . . . . . . . . . . . . . . . . . . . . . . . . . . . . . . ",
". . . . . . . . . . . . . . . . . . . . . . . . . . . . . . . 5.# # # # # # # # # # # 5.. o ~.c . . . . . . . . . . . . . . . . . . . . . . . . . . . . . . . . ",
". . . . . . . . . . . . . . . . . . . . . . . . . . . . . _ 8.# # # # # # # # # # # # # 9.~ O 0.j . . . . . . . . . . . . . . . . . . . . . . . . . . . . . . . ",
". . . . . . . . . . . . . . . . . . . . . . . . . . . . 2 >.# # # # # # # # # # # # # # # 0 3 x a.. . . . . . . . . . . . . . . . . . . . . . . . . . . . . . . ",
". . . . . . . . . . . . . . . . . . . . . . . . . . . b.z # # # # # # # # # # # # # # # # # Q Z { 5.. . . . . . . . . . . . . . . . . . . . . . . . . . . . . . ",
". . . . . . . . . . . . . . . . . . . . . . . . . . Z ).# # # # # # # # # # # # # # # # # # # c.|.# -.. . . . . . . . . . . . . . . . . . . . . . . . . . . . . ",
". . . . . . . . . . . . . . . . . . . . . . . . . . . . . . . . . . . . . . . . . . . . . . . . . ^ - '.. . . . . . . . . . . . . . . . . . . . . . . . . . . . ",
". . . . . . . . . . . . . . . . . . . . . . . . . . . . . . . . . . . . . . . . . . . . . . . . . . 0 d.9 . . . . . . . . . . . . . . . . . . . . . . . . . . . ",
". . . . . . . . . . . . . . . . . . . . . . . . . . . . . . . . . . . . . . . . . . . . . . . . . . ' e.P 2 . . . . . . . . . . . . . . . . . . . . . . . . . . ",
". . . . . . . . . . . . . . . . . . . . . . . . . . . . f.u # # # # # # # # # # # # # # # # # # # # # # # ] 1 . . . . . . . . . . . . . . . . . . . . . . . . . ",
". . . . . . . . . . . . . . . . . . . . . . . . . . . . . . . . . . . . . . . . . . . . . . . . . . . . . . . . . . . . . . . . . . . . . . . . . . . . . . . . ",
". . . . . . . . . . . . . . . . . . . . . . . . . . . . . . . . . . . . . . . . . . . . . . . . . . . . . . . . . . . . . . . . . . . . . . . . . . . . . . . . ",
". . . . . . . . . . . . . . . . . . . . . . . . . . . . . . . . . . . . . . . . . . . . . . . . . . . . . . . . . . . . . . . . . . . . . . . . . . . . . . . . ",
". . . . . . . . . . . . . . . . . . . . . . . . . . . . . . . . . . . . . . . . . . . . . . . . . . . . . . . . . . . . . . . . . . . . . . . . . . . . . . . . ",
". . . . . . . . . . . . . . . . . . . . . . . . . . . . . . . . . . . . . . . . . . . . . . . . . . . . . . . . . . . . . . . . . . . . . . . . . . . . . . . . ",
". . . . . . . . . . . . . . . . . . . . . . . . . . . . . . . . . . . . . . . . . . . . . . . . . . . . . . . . . . . . . . . . . . . . . . . . . . . . . . . . "};
