/* XPM */
static xpm_row_t const letterC_xpm[] = {
"80 80 180 2",
"  	c None",
". 	c #FF0000",
"+ 	c #FB0000",
"@ 	c #DB0000",
"# 	c #BA0000",
"$ 	c #9B0000",
"% 	c #730000",
"& 	c #580000",
"* 	c #3D0000",
"= 	c #1C0000",
"- 	c #470000",
"; 	c #620000",
"> 	c #7E0000",
", 	c #A30000",
"' 	c #C10000",
") 	c #DD0000",
"! 	c #FA0000",
"~ 	c #FD0000",
"{ 	c #D50000",
"] 	c #900000",
"^ 	c #2E0000",
"/ 	c #000000",
"( 	c #260000",
"_ 	c #840000",
": 	c #BB0000",
"< 	c #EB0000",
"[ 	c #FC0000",
"} 	c #C40000",
"| 	c #5A0000",
"1 	c #710000",
"2 	c #BD0000",
"3 	c #ED0000",
"4 	c #EE0000",
"5 	c #8E0000",
"6 	c #F10000",
"7 	c #DA0000",
"8 	c #690000",
"9 	c #770000",
"0 	c #B60000",
"a 	c #F20000",
"b 	c #F90000",
"c 	c #E50000",
"d 	c #B00000",
"e 	c #320000",
"f 	c #810000",
"g 	c #AB0000",
"h 	c #BE0000",
"i 	c #E00000",
"j 	c #F40000",
"k 	c #E20000",
"l 	c #C20000",
"m 	c #850000",
"n 	c #E30000",
"o 	c #F50000",
"p 	c #750000",
"q 	c #790000",
"r 	c #DF0000",
"s 	c #EC0000",
"t 	c #9C0000",
"u 	c #980000",
"v 	c #9A0000",
"w 	c #5D0000",
"x 	c #0D0000",
"y 	c #B90000",
"z 	c #FE0000",
"A 	c #A20000",
"B 	c #450000",
"C 	c #490000",
"D 	c #820000",
"E 	c #F00000",
"F 	c #4F0000",
"G 	c #220000",
"H 	c #D70000",
"I 	c #160000",
"J 	c #EA0000",
"K 	c #4B0000",
"L 	c #D10000",
"M 	c #CA0000",
"N 	c #560000",
"O 	c #6A0000",
"P 	c #F60000",
"Q 	c #E60000",
"R 	c #680000",
"S 	c #AA0000",
"T 	c #F70000",
"U 	c #6C0000",
"V 	c #A90000",
"W 	c #A80000",
"X 	c #5C0000",
"Y 	c #CE0000",
"Z 	c #920000",
"` 	c #CB0000",
" .	c #E70000",
"..	c #5F0000",
"+.	c #2A0000",
"@.	c #C70000",
"#.	c #AF0000",
"$.	c #EF0000",
"%.	c #990000",
"&.	c #AD0000",
"*.	c #F80000",
"=.	c #9F0000",
"-.	c #6D0000",
";.	c #CF0000",
">.	c #F30000",
",.	c #B50000",
"'.	c #CD0000",
").	c #D40000",
"!.	c #AE0000",
"~.	c #870000",
"{.	c #E40000",
"].	c #DC0000",
"^.	c #C80000",
"/.	c #910000",
"(.	c #D30000",
"_.	c #DE0000",
":.	c #960000",
"<.	c #760000",
"[.	c #400000",
"}.	c #940000",
"|.	c #B20000",
"1.	c #A10000",
"2.	c #720000",
"3.	c #420000",
"4.	c #6E0000",
"5.	c #A40000",
"6.	c #C90000",
"7.	c #D20000",
"8.	c #950000",
"9.	c #970000",
"0.	c #D90000",
"a.	c #4D0000",
"b.	c #9E0000",
"c.	c #780000",
"d.	c #A00000",
"e.	c #E80000",
"f.	c #7C0000",
"g.	c #660000",
"h.	c #700000",
"i.	c #8B0000",
"j.	c #D60000",
"k.	c #E90000",
"l.	c #D80000",
"m.	c #C30000",
"n.	c #B70000",
"o.	c #A70000",
"p.	c #C50000",
"q.	c #B40000",
"r.	c #BF0000",
"s.	c #890000",
"t.	c #630000",
"u.	c #3B0000",
"v.	c #7F0000",
"w.	c #880000",
"x.	c #600000",
"y.	c #7A0000",
"z.	c #C00000",
"A.	c #E10000",
"B.	c #8C0000",
"C.	c #530000",
"D.	c #C60000",
"E.	c #550000",
"F.	c #8D0000",
"G.	c #930000",
"H.	c #350000",
"I.	c #AC0000",
"J.	c #D00000",
"K.	c #B30000",
"L.	c #380000",
"M.	c #830000",
"N.	c #8A0000",
"O.	c #650000",
"P.	c #9D0000",
"Q.	c #800000",
"R.	c #7D0000",
"S.	c #B10000",
"T.	c #860000",
"U.	c #A50000",
"V.	c #8F0000",
"W.	c #510000",
". . . . . . . . . . . . . . . . . . . . . . . . . . . . . . . . . . . . . . . . . . . . . . . . . . . . . . . . . . . . . . . . . . . . . . . . . . . . . . . . ",
". . . . . . . . . . . . . . . . . . . . . . . . . . . . . . . . . . . . . . . . . . . . . . . . . . . . . . . . . . . . . . . . . . . . . . . . . . . . . . . . ",
". . . . . . . . . . . . . . . . . . . . . . . . . . . . . . . . . . . . . . . . . . . . . . . . . . . . . . . . . . . . . . . . . . . . . . . . . . . . . . . . ",
". . . . . . . . . . . . . . . . . . . . . . . . . . . . . . . . . . . . . . . . . . . . . . . . . . . . . . . . . . . . . . . . . . . . . . . . . . . . . . . . ",
". . . . . . . . . . . . . . . . . . . . . . . . . . . . . . . . . . . . . . . . . . . . . . . . . . . . . . . . . . . . . . . . . . . . . . . . . . . . . . . . ",
". . . . . . . . . . . . . . . . . . . . . . . . . . . . . . . . . . . . . . . . . . . . . . . . . . . . . . . . . . . . . . . . . . . . . . . . . . . . . . . . ",
". . . . . . . . . . . . . . . . . . . . . . . . . . . . . . . + @ # $ % & * = - ; > , ' ) ! . . . . . . . . . . . . . . . . . . . . . . . . . . . . . . . . . . ",
". . . . . . . . . . . . . . . . . . . . . . . . . . . . ~ { ] ^ / / / / / / / / / / / / / ( _ : < . . . . . . . . . . . . . . . . . . . . . . . . . . . . . . . ",
". . . . . . . . . . . . . . . . . . . . . . . . . . [ } | / / / / / / / / / / / / / / / / / / / / 1 2 3 . . . . . . . . 4 5 6 . . . . . . . . . . . . . . . . . ",
". . . . . . . . . . . . . . . . . . . . . . . . . 7 8 / / / / / / / / / / / / / / / / / / / / / / / / / 9 0 @ a [ b c d e f . . . . . . . . . . . . . . . . . . ",
". . . . . . . . . . . . . . . . . . . . . . . + g / / / / / / / / 9 h i j [ [ j k l m / / / / / / / / / / / / / / / / / / n . . 3 o . . . . . . . . . . . . . . ",
". . . . . . . . . . . . . . . . . . . . . . a p / / / / / / / q r . . . . . . . . . . s t / / / / / / / / / / / / / / / u . . . m v . . . . . . . . . . . . . . ",
". . . . . . . . . . . . . . . . . . . . . s w / / / / / / x y z . . + { A 1 B = C D : E . @ F / / / / / / / / / / / / G 3 . . H I J . . . . . . . . . . . . . . ",
". . . . . . . . . . . . . . . . . . . . < K / / / / / / = L . . . M N O 2 k P ~ b Q 2 R S T 6 U / / / / / / / / / / / V . . ~ U W . . . . . . . . . . . . . . . ",
". . . . . . . . . . . . . . . . . . . a X / / / / / / / Y . . b Z B Y z . . . . . . . z ` q  .j ../ / / / / / / / / +.a . . @.* j . . . . . . . . . . . . . . . ",
". . . . . . . . . . . . . . . . . . b 1 / / / / / / / #.. . + f R $.. . . . . . . . . . . o %.r  .e / / / / / / / / &.. . *.F h . . . . . . . . . . . . . . . . ",
". . . . . . . . . . . . . . . . . . =./ / / / / / / -.+ . . =.N a . . . . . . . . . . . . . z # j ;./ / / / / / / e >.. . ,.X + . . . . . . . . . . . . . . . . ",
". . . . . . . . . . . . . . . . . './ / / / / / / / r . . ).x r . . . . . . . . . . . . . . . . z . f / / / / / / !.. . 6 e ` . . . . . . . . . . . . . . . . . ",
". . . . . . . . . . . . . . . . a * / / / / / / / ~.. . + | , . . . . . . . . . . . . . . . . . . . {./ / / / / G 6 . . A 8 ~ . . . . . . . . . . . . . . . . . ",
". . . . . . . . . . . . . . . . v / / / / / / / / ].. . ^.( a . . . . . . . . . . . . . . . . . . . . /./ / / / , . . J I (.. . . . . . . . . . . . . . . . . . ",
". . . . . . . . . . . . . . . _./ / / / / / / / X z . . O A . . . . . . . . . . . . . . . . . . . . . )./ / / x < . . :.<.. . . . . . . . . . . . . . . . . . . ",
". . . . . . . . . . . . . . . f / / / / / / / / 0 . . {./ i . . . . . . . . . . . . . . . . . . . . . + [./ / }.. .  ./ H . . . . . . . . . . . . . . . . . . . ",
". . . . . . . . . . . . . . _./ / / / / / / / / {.. . |.& z . . . . . . . . . . . . . . . . . . . . . . 1./ / _.. . }.2.. . . . . . . . . . . . . . . . . . . . ",
". . . . . . . . . . . . . . 5 / / / / / / / / 3.~ . . 4.5.. . . . . . . . . . . . . . . . . . . . . . . 6./ 1 . .  ./ 7.. . . . . . . . . . . . . . . . . . . . ",
". . . . . . . . . . . . . 6 I / / / / / / / / 8.. . o / L . . . . . . . . . . . . . . . . . . . . . . .  ./ M . . 9.O z . . . . . . . . . . . . . . . . . . . . ",
". . . . . . . . . . . . . 2 / / / / / / / / / 2 . . 0./ 4 . . . . . . . . . . . . . . . . . . . . . . . ~ X ! . < x ` . . . . . . . . . . . . . . . . . . . . . ",
". . . . . . . . . . . . . 2./ / / / / / / / / 7 . . : [.. . . . . . . . . . . . . . . . . . . . . . . . . + . . 1.a.+ . . . . . . . . . . . . . . . . . . . . . ",
". . . . . . . . . . . . a / / / / / / / / / / 6 . . b.> . . . . . . . . . . . . . . . . . . . . . . . . . . . a G y . . . . . . . . . . . . . . . . . . . . . . ",
". . . . . . . . . . . . ` / / / / / / / / / ( z . . c.d.. . . . . . . . . . . . . . . . . . . . . . . . . . . e.f.j . . . . . . . . . . . . . . . . . . . . . . ",
". . . . . . . . . . . . 1./ / / / / / / / / g.. . . K y . . . . . . . . . . . . . . . . . . . . . . . . . . . . . . . . . . . . . . . . . . . . . . . . . . . . ",
". . . . . . . . . . . . h./ / / / / / / / / i.. . [ / ^.. . . . . . . . . . . . . . . . . . . . . . . . . . . . . . . . . . . . . . . . . . . . . . . . . . . . ",
". . . . . . . . . . . + I / / / / / / / / / =.. . 6 / j.. . . . . . . . . . . . . . . . . . . . . . . . . . . . . . . . . . . . . . . . . . . . . . . . . . . . ",
". . . . . . . . . . . e./ / / / / / / / / / &.. . k./ r . . . . . . . . . . . . . . . . . . . . . . . . . . . . . . . . . . . . . . . . . . . . . . . . . . . . ",
". . . . . . . . . . . l./ / / / / / / / / / y . . k / Q . . . . . . . . . . . . . . . . . . . . . . . . . . . . . . . . . . . . . . . . . . . . . . . . . . . . ",
". . . . . . . . . . . ^./ / / / / / / / / / m.. . @ / s . . . . . . . . . . . . . . . . . . . . . . . . . . . . . . . . . . . . . . . . . . . . . . . . . . . . ",
". . . . . . . . . . . n./ / / / / / / / / / @.. . l./ $.. . . . . . . . . . . . . . . . . . . . . . . . . . . . . . . . . . . . . . . . . . . . . . . . . . . . ",
". . . . . . . . . . . #./ / / / / / / / / / M . . j./ 6 . . . . . . . . . . . . . . . . . . . . . . . . . . . . . . . . . . . . . . . . . . . . . . . . . . . . ",
". . . . . . . . . . . W / / / / / / / / / / '.. . )./ a . . . . . . . . . . . . . . . . . . . . . . . . . . . . . . . . . . . . . . . . . . . . . . . . . . . . ",
". . . . . . . . . . . 1./ / / / / / / / / / Y . . j./ 4 . . . . . . . . . . . . . . . . . . . . . . . . . . . . . . . . . . . . . . . . . . . . . . . . . . . . ",
". . . . . . . . . . . 1./ / / / / / / / / / ` . . l./ J . . . . . . . . . . . . . . . . . . . . . . . . . . . . . . . . . . . . . . . . . . . . . . . . . . . . ",
". . . . . . . . . . . o./ / / / / / / / / / ^.. . ]./ Q . . . . . . . . . . . . . . . . . . . . . . . . . . . . . . . . . . . . . . . . . . . . . . . . . . . . ",
". . . . . . . . . . . &./ / / / / / / / / / p.. . n / k . . . . . . . . . . . . . . . . . . . . . . . . . . . . . . . . . . . . . . . . . . . . . . . . . . . . ",
". . . . . . . . . . . q./ / / / / / / / / / : . . < / ) . . . . . . . . . . . . . . . . . . . . . . . . . . . . . . . . . . . . . . . . . . . . . . . . . . . . ",
". . . . . . . . . . . l / / / / / / / / / / !.. . j / L . . . . . . . . . . . . . . . . . . . . . . . . . . . . . . . . . . . . . . . . . . . . . . . . . . . . ",
". . . . . . . . . . . L / / / / / / / / / / d.. . z = r.. . . . . . . . . . . . . . . . . . . . . . . . . . . . . . . . . . . . . . . . . . . . . . . . . . . . ",
". . . . . . . . . . . r / / / / / / / / / / s.. . . | g . . . . . . . . . . . . . . . . . . . . . . . . . . . . . . . . . . . . . . . . . . . . . . . . . . . . ",
". . . . . . . . . . . $./ / / / / / / / / / t.. . . m }.. . . . . . . . . . . . . . . . . . . . . . . . . . . . . . . . . . . . . . . . . . . . . . . . . . . . ",
". . . . . . . . . . . . u./ / / / / / / / / G z . . o.p . . . . . . . . . . . . . . . . . . . . . . . . . . . . . . . . . . . . . . . . . . . . . . . . . . . . ",
". . . . . . . . . . . . v./ / / / / / / / / / 3 . . } ( [ . . . . . . . . . . . . . . . . . . . . . . . . . . . 3 ; O s . . . . . . . . . . . . . . . . . . . . ",
". . . . . . . . . . . . S / / / / / / / / / / ).. . i / c . . . . . . . . . . . . . . . . . . . . . . . . . . . !./ / 1.. . . . . . . . . . . . . . . . . . . . ",
". . . . . . . . . . . . )./ / / / / / / / / / ,.. . *.x ^.. . . . . . . . . . . . . . . . . . . . . . . . . . . w./ / 9 . . _.` z . . . . . . . . . . . . . . . ",
". . . . . . . . . . . . o x / / / / / / / / / D . . . q 5.. . . . . . . . . . . . . . . . . . . . . . . . . . . & / / O . . } x ~ . . . . . . . . . . . . . . . ",
". . . . . . . . . . . . . c./ / / / / / / / / G ! . . q.x.. . . . . . . . . . . . . . . . . . . . . . . . . . ! / / / y.. . |.a.. . . . . . . . . . . . . . . . ",
". . . . . . . . . . . . . z./ / / / / / / / / / 0.. . A./ Q . . . . . . . . . . . . . . . . . . . . . . . . . e./ / / B.. . =.2.. . . . . . . . . . . . . . . . ",
". . . . . . . . . . . . . a x / / / / / / / / / A . . z C.,.. . . . . . . . . . . . . . . . . . . . . . . . . './ / / S . . ~.8.. . . . . . . . . . . . . . . . ",
". . . . . . . . . . . . . . B./ / / / / / / / / [.+ . . #.R . . . . . . . . . . . . . . . . . . . . . . . . . $ / / / D.. . E.,.. . . . . . . . . . . . . . . . ",
". . . . . . . . . . . . . . ]./ / / / / / / / / / Y . . s / k . . . . . . . . . . . . . . . . . . . . . . . z - / / / {.. *./ ;.. . . . . . . . . . . . . . . . ",
". . . . . . . . . . . . . . . c./ / / / / / / / / 9 . . . F.v . . . . . . . . . . . . . . . . . . . . . . . k / / / 3.~ . k / s . . . . . . . . . . . . . . . . ",
". . . . . . . . . . . . . . . 7 / / / / / / / / / / 7 . . A.x J . . . . . . . . . . . . . . . . . . . . . . b./ / / %.. . l K . . . . . . . . . . . . . . . . . ",
". . . . . . . . . . . . . . . . }./ / / / / / / / / 2.z . . G.] . . . . . . . . . . . . . . . . . . . . . E = / / / { . . 9.v . . . . . . . . . . . . . . . . . ",
". . . . . . . . . . . . . . . . $.H./ / / / / / / / / p.. . $.H.7.. . . . . . . . . . . . . . . . . . . . I./ / / - + . + u.J.. . . . . . . . . . . . . . . . . ",
". . . . . . . . . . . . . . . . . './ / / / / / / / / H.3 . . ` B 4 . . . . . . . . . . . . . . . . . . n = / / / K.. . 0.( T . . . . . . . . . . . . . . . . . ",
". . . . . . . . . . . . . . . . . . , / / / / / / / / / 1 *.. . I.-.o . . . . . . . . . . . . . . . . *.t./ / / L.o . . /.b.. . . . . . . . . . . . . . . . . . ",
". . . . . . . . . . . . . . . . . . + M./ / / / / / / / / N.+ . z g 1 E . . . . . . . . . . . . . . z u / / / / 0 . . s x A.. . . . . . . . . . . . . . . . . . ",
". . . . . . . . . . . . . . . . . . . *.<./ / / / / / / / / D T . . ` O.(.. . . . . . . . . . . . + P./ / / / % + . . }._ . . . . . . . . . . . . . . . . . . . ",
". . . . . . . . . . . . . . . . . . . . P Q./ / / / / / / / / w _.. . o y =.4 . . . . . . . . . 3 R./ / / / H.< . . @ / k . . . . . . . . . . . . . . . . . . . ",
". . . . . . . . . . . . . . . . . . . . . + $ / / / / / / / / / x u e.. . . ~ . . . . . . . >.S.^ / / / / e ) . . P E.d.. . . . . . . . . . . . . . . . . . . . ",
". . . . . . . . . . . . . . . . . . . . . . . ^.u./ / / / / / / / / / % # 7 E *.z + a i l F.I / / / / / * _.. . [ s.N T . . . . . . . . . . . . . . . . . . . . ",
". . . . . . . . . . . . . . . . . . . . . . . . $.}./ / / / / / / / / / / / / / / / / / / / / / / / / _ $.. . z 1.+.n . . . . . . . . . . . . . . . . . . . . . ",
". . . . . . . . . . . . . . . . . . . . . . . . . . c /.x / / / / / / / / / / / / / / / / / / / / ; M z . . ~ b.x L . . . . . . . . . . . . . . . . . . . . . . ",
". . . . . . . . . . . . . . . . . . . . . . . . . n >.. 6 2 % x / / / / / / / / / / / / / / ^ Z L ~ . . . o i.= L . . . . . . . . . . . . . . . . . . . . . . . ",
". . . . . . . . . . . . . . . . . . . . . . . . . . 7 ).z . . P j.n.$ q X - ( ( K ; q =.2 7 ! . . . . . 7 | F ) . . . . . . . . . . . . . . . . . . . . . . . . ",
". . . . . . . . . . . . . . . . . . . . . . . . . . . >.' H z . . . . . . . . . . . . . . . . . . . J 9./ }.>.. . . . . . . . . . . . . . . . . . . . . . . . . ",
". . . . . . . . . . . . . . . . . . . . . . . . . . . . . Q &.2 4 . . . . . . . . . . . . . . + j.Z / v.@ . . . . . . . . . . . . . . . . . . . . . . . . . . . ",
". . . . . . . . . . . . . . . . . . . . . . . . . . . . . . . 3 |.T.U.D._.s T + z + P k.H 2 V.* W.W n . . . . . . . . . . . . . . . . . . . . . . . . . . . . . ",
". . . . . . . . . . . . . . . . . . . . . . . . . . . . . . . . . . e.@.A Q.& L.I ^ C g.s.o.^. .z . . . . . . . . . . . . . . . . . . . . . . . . . . . . . . . ",
". . . . . . . . . . . . . . . . . . . . . . . . . . . . . . . . . . . . . . . . . . . . . . . . . . . . . . . . . . . . . . . . . . . . . . . . . . . . . . . . ",
". . . . . . . . . . . . . . . . . . . . . . . . . . . . . . . . . . . . . . . . . . . . . . . . . . . . . . . . . . . . . . . . . . . . . . . . . . . . . . . . ",
". . . . . . . . . . . . . . . . . . . . . . . . . . . . . . . . . . . . . . . . . . . . . . . . . . . . . . . . . . . . . . . . . . . . . . . . . . . . . . . . ",
". . . . . . . . . . . . . . . . . . . . . . . . . . . . . . . . . . . . . . . . . . . . . . . . . . . . . . . . . . . . . . . . . . . . . . . . . . . . . . . . "};
