/* XPM */
static xpm_row_t const letterI_xpm[] = {
"80 80 67 1",
" 	c None",
".	c #FF0000",
"+	c #C20000",
"@	c #000000",
"#	c #A00000",
"$	c #FE0000",
"%	c #CF0000",
"&	c #220000",
"*	c #9B0000",
"=	c #FD0000",
"-	c #DA0000",
";	c #350000",
">	c #960000",
",	c #E70000",
"'	c #680000",
")	c #F20000",
"!	c #E30000",
"~	c #490000",
"{	c #910000",
"]	c #FC0000",
"^	c #E80000",
"/	c #9E0000",
"(	c #EB0000",
"_	c #5A0000",
":	c #8B0000",
"<	c #FB0000",
"[	c #9D0000",
"}	c #F00000",
"|	c #6C0000",
"1	c #850000",
"2	c #FA0000",
"3	c #4B0000",
"4	c #E40000",
"5	c #760000",
"6	c #F90000",
"7	c #E90000",
"8	c #9C0000",
"9	c #A70000",
"0	c #4D0000",
"a	c #980000",
"b	c #D10000",
"c	c #C50000",
"d	c #A30000",
"e	c #B20000",
"f	c #1C0000",
"g	c #C70000",
"h	c #4F0000",
"i	c #8C0000",
"j	c #920000",
"k	c #AC0000",
"l	c #380000",
"m	c #EE0000",
"n	c #700000",
"o	c #8F0000",
"p	c #D30000",
"q	c #AB0000",
"r	c #DF0000",
"s	c #BB0000",
"t	c #B90000",
"u	c #C90000",
"v	c #940000",
"w	c #AF0000",
"x	c #0D0000",
"y	c #D20000",
"z	c #260000",
"A	c #DC0000",
"B	c #C40000",
"................................................................................",
"................................................................................",
"................................................................................",
"................................................................................",
"................................................................................",
"................................................................................",
"................................................................................",
"...........................+@@@@@@@@@@@@@@@@@@@@@#$.............................",
"............................%&@@@@@@@@@@@@@@@@@@*$.=............................",
".............................-;@@@@@@@@@@@@@@@@>=.,')...........................",
"..............................!~@@@@@@@@@@@@@@{].^~/$...........................",
"...............................(_@@@@@@@@@@@@:<.^~[$............................",
"................................}|@@@@@@@@@@12.^3[=.............................",
".................................4@@@@@@@@@56.738=..............................",
".................................,@@@@@@@@@9..0a=...............................",
".................................,@@@@@@@@@9..@b................................",
".................................,@@@@@@@@@9..@b................................",
".................................,@@@@@@@@@9..@b................................",
".................................,@@@@@@@@@9..@b................................",
".................................,@@@@@@@@@9..@b................................",
".................................,@@@@@@@@@9..@b................................",
".................................,@@@@@@@@@9..@b................................",
".................................,@@@@@@@@@9..@b................................",
".................................,@@@@@@@@@9..@b................................",
".................................,@@@@@@@@@9..@b................................",
".................................,@@@@@@@@@9..@b................................",
".................................,@@@@@@@@@9..@b................................",
".................................,@@@@@@@@@9..@b................................",
".................................,@@@@@@@@@9..@b................................",
".................................,@@@@@@@@@9..@b................................",
".................................,@@@@@@@@@9..@b................................",
".................................,@@@@@@@@@9..@b................................",
".................................,@@@@@@@@@9..@b................................",
".................................,@@@@@@@@@9..@b................................",
".................................,@@@@@@@@@9..@b................................",
".................................,@@@@@@@@@9..@b................................",
".................................,@@@@@@@@@9..@b................................",
".................................,@@@@@@@@@9..@b................................",
".................................,@@@@@@@@@9..@b................................",
".................................,@@@@@@@@@9..@b................................",
".................................,@@@@@@@@@9..@b................................",
".................................,@@@@@@@@@9..@b................................",
".................................,@@@@@@@@@9..@b................................",
".................................,@@@@@@@@@9..@b................................",
".................................,@@@@@@@@@9..@b................................",
".................................,@@@@@@@@@9..@b................................",
".................................,@@@@@@@@@9..@b................................",
".................................,@@@@@@@@@9..@b................................",
".................................,@@@@@@@@@9..@b................................",
".................................,@@@@@@@@@9..@b................................",
".................................,@@@@@@@@@9..@b................................",
".................................,@@@@@@@@@9..@b................................",
".................................,@@@@@@@@@9..@b................................",
".................................,@@@@@@@@@9..@b................................",
".................................,@@@@@@@@@9..@b................................",
".................................,@@@@@@@@@9..@b................................",
".................................,@@@@@@@@@9..@b................................",
".................................,@@@@@@@@@9..@b................................",
".................................,@@@@@@@@@9..@b................................",
".................................,@@@@@@@@@9..@b................................",
".................................,@@@@@@@@@9..@b................................",
".................................,@@@@@@@@@9..@b................................",
".................................,@@@@@@@@@9..@b................................",
".................................,@@@@@@@@@9..@b................................",
".................................c@@@@@@@@@d..@b................................",
"...............................$e@@@@@@@@@@fg.hi]...............................",
"..............................6j@@@@@@@@@@@@@k!l8$..............................",
".............................mn@@@@@@@@@@@@@@@op&q..............................",
"............................r3@@@@@@@@@@@@@@@@@ns@t.............................",
"...........................u&@@@@@@@@@@@@@@@@@@@hv@g............................",
"..................................................wxy...........................",
".................................................../zA..........................",
"...................................................]il4.........................",
".............................Bf@@@@@@@@@@@@@@@@@@@@@@@~(........................",
"................................................................................",
"................................................................................",
"................................................................................",
"................................................................................",
"................................................................................",
"................................................................................"};
