/* XPM */
static xpm_row_t const letterV_xpm[] = {
"80 80 169 2",
"  	c None",
". 	c #FF0000",
"+ 	c #F90000",
"@ 	c #BF0000",
"# 	c #490000",
"$ 	c #000000",
"% 	c #CB0000",
"& 	c #EC0000",
"* 	c #F40000",
"= 	c #BB0000",
"- 	c #4D0000",
"; 	c #C10000",
"> 	c #D20000",
", 	c #350000",
"' 	c #F10000",
") 	c #FD0000",
"! 	c #DC0000",
"~ 	c #9E0000",
"{ 	c #260000",
"] 	c #A70000",
"^ 	c #CA0000",
"/ 	c #D60000",
"( 	c #FC0000",
"_ 	c #DE0000",
": 	c #AE0000",
"< 	c #530000",
"[ 	c #890000",
"} 	c #CF0000",
"| 	c #380000",
"1 	c #C90000",
"2 	c #9B0000",
"3 	c #420000",
"4 	c #660000",
"5 	c #F70000",
"6 	c #320000",
"7 	c #DA0000",
"8 	c #F80000",
"9 	c #960000",
"0 	c #550000",
"a 	c #E60000",
"b 	c #ED0000",
"c 	c #9F0000",
"d 	c #C30000",
"e 	c #FA0000",
"f 	c #6E0000",
"g 	c #AD0000",
"h 	c #FB0000",
"i 	c #820000",
"j 	c #910000",
"k 	c #A20000",
"l 	c #7C0000",
"m 	c #EE0000",
"n 	c #400000",
"o 	c #F30000",
"p 	c #3B0000",
"q 	c #B00000",
"r 	c #C70000",
"s 	c #470000",
"t 	c #F00000",
"u 	c #7E0000",
"v 	c #FE0000",
"w 	c #940000",
"x 	c #750000",
"y 	c #0D0000",
"z 	c #E70000",
"A 	c #D40000",
"B 	c #2E0000",
"C 	c #AF0000",
"D 	c #5C0000",
"E 	c #BA0000",
"F 	c #900000",
"G 	c #CD0000",
"H 	c #C00000",
"I 	c #2A0000",
"J 	c #B30000",
"K 	c #600000",
"L 	c #A80000",
"M 	c #CE0000",
"N 	c #AB0000",
"O 	c #220000",
"P 	c #D30000",
"Q 	c #BE0000",
"R 	c #F20000",
"S 	c #DF0000",
"T 	c #E50000",
"U 	c #E00000",
"V 	c #E10000",
"W 	c #C40000",
"X 	c #A10000",
"Y 	c #160000",
"Z 	c #7F0000",
"` 	c #8C0000",
" .	c #630000",
"..	c #C20000",
"+.	c #AC0000",
"@.	c #710000",
"#.	c #D70000",
"$.	c #F50000",
"%.	c #AA0000",
"&.	c #730000",
"*.	c #8F0000",
"=.	c #BC0000",
"-.	c #EA0000",
";.	c #A90000",
">.	c #DD0000",
",.	c #E30000",
"'.	c #B60000",
").	c #830000",
"!.	c #860000",
"~.	c #690000",
"{.	c #870000",
"].	c #770000",
"^.	c #E20000",
"/.	c #DB0000",
"(.	c #B20000",
"_.	c #EF0000",
":.	c #5A0000",
"<.	c #950000",
"[.	c #9D0000",
"}.	c #B40000",
"|.	c #3D0000",
"1.	c #6C0000",
"2.	c #D10000",
"3.	c #8D0000",
"4.	c #D90000",
"5.	c #1C0000",
"6.	c #F60000",
"7.	c #510000",
"8.	c #C60000",
"9.	c #800000",
"0.	c #C50000",
"a.	c #E40000",
"b.	c #4B0000",
"c.	c #930000",
"d.	c #B80000",
"e.	c #B70000",
"f.	c #EB0000",
"g.	c #CC0000",
"h.	c #620000",
"i.	c #760000",
"j.	c #810000",
"k.	c #A60000",
"l.	c #B50000",
"m.	c #8A0000",
"n.	c #6A0000",
"o.	c #790000",
"p.	c #580000",
"q.	c #9A0000",
"r.	c #A00000",
"s.	c #E80000",
"t.	c #4F0000",
"u.	c #D50000",
"v.	c #B90000",
"w.	c #B10000",
"x.	c #8B0000",
"y.	c #D80000",
"z.	c #A30000",
"A.	c #C80000",
"B.	c #560000",
"C.	c #840000",
"D.	c #5D0000",
"E.	c #720000",
"F.	c #BD0000",
"G.	c #680000",
"H.	c #5F0000",
"I.	c #850000",
"J.	c #7D0000",
"K.	c #450000",
"L.	c #E90000",
". . . . . . . . . . . . . . . . . . . . . . . . . . . . . . . . . . . . . . . . . . . . . . . . . . . . . . . . . . . . . . . . . . . . . + @ # $ % . . . & . . ",
". . . . . . . . . . . . . . . . . . . . . . . . . . . . . . . . . . . . . . . . . . . . . . . . . . . . . . . . . . . . . . . . . . . * = - $ $ ; . . . > , ' . ",
". . . . . . . . . . . . . . . . . . . . . . . . . . . . . . . . . . . . . . . . . . . . . . . . . . . . . . . . . . . . . . . . ) ! ~ { $ $ $ ] . . . ^ , / . . ",
". . . . . . . . . . . . . . . . . . . . . . . . . . . . . . . . . . . . . . . . . . . . . . . . . . . . . . . . . . . . . ( _ : < $ $ $ $ $ [ ) . . } | _ . . . ",
". . . . . . . . . . . . . . . . . . . . . . . . . . . . . . . . . . . . . . . . . . . . . . . . . . . . . . . . . . & 1 2 3 $ $ $ $ $ $ $ 4 5 . . ! 6 7 . . . . ",
". . . . . . . . . . . . . . . . . . . . . . . . . . . . . . . . . . . . . . . . . . . . . . . . . . . . . 8 _ @ 9 0 $ $ $ $ $ $ $ $ $ $ { a . . b 3 % . . . . . ",
". . . . . . . . . . . . . . . . . . . . . . . . . . . . . . . . . . . . . . . . . . . . . . . . . . . . . c $ $ $ $ $ $ $ $ $ $ $ $ $ $ d . . e f g . . . . . . ",
". . . . . . . . . . . . . . . . . . . . . . . . . . . . . . . . . . . . . . . . . . . . . . . . . . . . . h i $ $ $ $ $ $ $ $ $ $ $ $ j . . . k l ( . . . . . . ",
". . . . . . . . . . . . . . . . . . . . . . . . . . . . . . . . . . . . . . . . . . . . . . . . . . . . . . m { $ $ $ $ $ $ $ $ $ $ n o . . > p m . . . . . . . ",
". . . . . . . . . . . . . . . . . . . . . . . . . . . . . . . . . . . . . . . . . . . . . . . . . . . . . . . q $ $ $ $ $ $ $ $ $ $ r . . o s ^ . . . . . . . . ",
". . . . . . . . . . . . . . . . . . . . . . . . . . . . . . . . . . . . . . . . . . . . . . . . . . . . . . . t $ $ $ $ $ $ $ $ $ u v . . w [ . . . . . . . . . ",
". . . . . . . . . . . . . . . . . . . . . . . . . . . . . . . . . . . . . . . . . . . . . . . . . . . . . . . . x $ $ $ $ $ $ $ y z . . A B m . . . . . . . . . ",
". . . . . . . . . . . . . . . . . . . . . . . . . . . . . . . . . . . . . . . . . . . . . . . . . . . . . . . . C $ $ $ $ $ $ $ k . . e D E . . . . . . . . . . ",
". . . . . + F $ $ $ $ $ $ $ $ $ $ $ $ $ $ $ $ $ $ $ $ $ y G . . . . . . . . . . . . . . . . . . . . . . . . . . H $ $ $ $ $ $ I ' . . J K h . . . . . . . . . . ",
". . . . . . ) L $ $ $ $ $ $ $ $ $ $ $ $ $ $ $ $ $ $ $ y % . . . . . . . . . . . . . . . . . . . . . . . . . . . M $ $ $ $ $ $ N . . & O P . . . . . . . . . . . ",
". . . . . . . . Q y $ $ $ $ $ $ $ $ $ $ $ $ $ $ $ $ $ 1 . . . * . . . . . . . . . . . . . . . . . . . . . . . . ^ $ $ $ $ $ I R . . F u . . . . . . . . . . . . ",
". . . . . . . . . > I $ $ $ $ $ $ $ $ $ $ $ $ $ $ $ r . . . S p T . . . . . . . . . . . . . . . . . . . . . . . = $ $ $ $ $ ] . . U $ S . . . . . . . . . . . . ",
". . . . . . . . . . V # $ $ $ $ $ $ $ $ $ $ $ $ $ W . . . S , g . . . . . . . . . . . . . . . . . . . . . . . . X $ $ $ $ Y m . . Z ` . . . . . . . . . . . . . ",
". . . . . . . . . . . b  .$ $ $ $ $ $ $ $ $ $ $ ... . . U , +.. . . . . . . . . . . . . . . . . . . . . . . . . @.$ $ $ $ 2 . . #.$ T . . . . . . . . . . . . . ",
". . . . . . . . . . . . $. .$ $ $ $ $ $ $ $ $ @ . . . U | %.. . . . . . . . . . . . . . . . . . . . . . . . . e Y $ $ $ $ T . . &.*.. . . . . . . . . . . . . . ",
". . . . . . . . . . . . . =.$ $ $ $ $ $ $ $ $ b . . -.| ;.. . . . . . . . . . . . . . . . . . . . . . . . . . >.$ $ $ $ i . . 7 $ ,.. . . . . . . . . . . . . . ",
". . . . . . . . . . . . . m $ $ $ $ $ $ $ $ $ E . . R y 7 . . . . . . . . . . . . . . . . . . . . . . . . . . '.$ $ $ $ A . . ).!.. . . . . . . . . . . . . . . ",
". . . . . . . . . . . . . . l $ $ $ $ $ $ $ $ ~.. . . {.c . . . . . . . . . . . . . . . . . . . . . . . . . . ].$ $ $ D ) . ^.$ /.. . . . . . . . . . . . . . . ",
". . . . . . . . . . . . . . W $ $ $ $ $ $ $ $ $ a . . % p h . . . . . . . . . . . . . . . . . . . . . . . . o $ $ $ $ Q . . w &.. . . . . . . . . . . . . . . . ",
". . . . . . . . . . . . . . o Y $ $ $ $ $ $ $ $ (.. . 5 { A . . . . . . . . . . . . . . . . . . . . . . . . ^ $ $ $ { * . _.Y M . . . . . . . . . . . . . . . . ",
". . . . . . . . . . . . . . . [ $ $ $ $ $ $ $ $ :.v . . <.9 . . . . . . . . . . . . . . . . . . . . . . . . *.$ $ $ [.. . }.0 ( . . . . . . . . . . . . . . . . ",
". . . . . . . . . . . . . . . % $ $ $ $ $ $ $ $ $ S . . A I 8 . . . . . . . . . . . . . . . . . . . . . . 5 { $ $ $ U . ( - = . . . . . . . . . . . . . . . . . ",
". . . . . . . . . . . . . . . 5 { $ $ $ $ $ $ $ $ L . . h |.G . . . . . . . . . . . . . . . . . . . . . . G $ $ $ 1.. . 2.{ o . . . . . . . . . . . . . . . . . ",
". . . . . . . . . . . . . . . . w $ $ $ $ $ $ $ $ # ( . . k ` . . . . . . . . . . . . . . . . . . . . . . 3.$ $ $ ... . {.[.. . . . . . . . . . . . . . . . . . ",
". . . . . . . . . . . . . . . . P $ $ $ $ $ $ $ $ $ 4.. . ! Y * . . . . . . . . . . . . . . . . . . . . * 5.$ $ I 6.. _.y V . . . . . . . . . . . . . . . . . . ",
". . . . . . . . . . . . . . . . e p $ $ $ $ $ $ $ $ ~ . . ) 7.8.. . . . . . . . . . . . . . . . . . . . W $ $ $ 2 . . E f . . . . . . . . . . . . . . . . . . . ",
". . . . . . . . . . . . . . . . . c $ $ $ $ $ $ $ $ | e . . g 9.. . . . . . . . . . . . . . . . . . . . ].$ $ $ /.. . K 0.. . . . . . . . . . . . . . . . . . . ",
". . . . . . . . . . . . . . . . . 7 $ $ $ $ $ $ $ $ $ > . . a.$ _.. . . . . . . . . . . . . . . . . . -.$ $ $ D v . S B 5 . . . . . . . . . . . . . . . . . . . ",
". . . . . . . . . . . . . . . . . ) b.$ $ $ $ $ $ $ $ c.. . .  .@ . . . . . . . . . . . . . . . . . . (.$ $ $ d.. . X c . . . . . . . . . . . . . . . . . . . . ",
". . . . . . . . . . . . . . . . . . ;.$ $ $ $ $ $ $ $ { 6.. . e.&.. . . . . . . . . . . . . . . . . ) < $ $ $ m . + , _ . . . . . . . . . . . . . . . . . . . . ",
". . . . . . . . . . . . . . . . . . U $ $ $ $ $ $ $ $ $ ^ . . f.$ f.. . . . . . . . . . . . . . . . 7 $ $ $ !.. . g.h.. . . . . . . . . . . . . . . . . . . . . ",
". . . . . . . . . . . . . . . . . . v D $ $ $ $ $ $ $ $ {.. . . i.d.. . . . . . . . . . . . . . . . 2 $ $ $ M . . j.= . . . . . . . . . . . . . . . . . . . . . ",
". . . . . . . . . . . . . . . . . . . (.$ $ $ $ $ $ $ $ y R . . ; 4 . . . . . . . . . . . . . . . 5 I $ $ |.e . b y t . . . . . . . . . . . . . . . . . . . . . ",
". . . . . . . . . . . . . . . . . . . z $ $ $ $ $ $ $ $ $ ... . ' y T . . . . . . . . . . . . . . 1 $ $ $ k.. . l.m.. . . . . . . . . . . . . . . . . . . . . . ",
". . . . . . . . . . . . . . . . . . . . n.$ $ $ $ $ $ $ $ o.. . . !.q . . . . . . . . . . . . . . u $ $ $ ^.. v p.2.. . . . . . . . . . . . . . . . . . . . . . ",
". . . . . . . . . . . . . . . . . . . . = $ $ $ $ $ $ $ $ $ b . . ^ p.v . . . . . . . . . . . . & $ $ $ ~.. . 7 3 h . . . . . . . . . . . . . . . . . . . . . . ",
". . . . . . . . . . . . . . . . . . . . b $ $ $ $ $ $ $ $ $ = . . 6.{ S . . . . . . . . . . . . l.$ $ $ Q . . q.;.. . . . . . . . . . . . . . . . . . . . . . . ",
". . . . . . . . . . . . . . . . . . . . . o.$ $ $ $ $ $ $ $ n.. . . w ] . . . . . . . . . . . v :.$ $ Y R . 6.{ T . . . . . . . . . . . . . . . . . . . . . . . ",
". . . . . . . . . . . . . . . . . . . . . d $ $ $ $ $ $ $ $ $ a . . P # ( . . . . . . . . . . >.$ $ $ F . . 0.f . . . . . . . . . . . . . . . . . . . . . . . . ",
". . . . . . . . . . . . . . . . . . . . . R y $ $ $ $ $ $ $ $ (.. . h p 4.. . . . . . . . . . c $ $ $ A . . i.... . . . . . . . . . . . . . . . . . . . . . . . ",
". . . . . . . . . . . . . . . . . . . . . . {.$ $ $ $ $ $ $ $ :.v . . r.c . . . . . . . . . 8 6 $ $ # ( . s.5.* . . . . . . . . . . . . . . . . . . . . . . . . ",
". . . . . . . . . . . . . . . . . . . . . . ^ $ $ $ $ $ $ $ $ $ U . . /.| e . . . . . . . . g.$ $ $ g . . : w . . . . . . . . . . . . . . . . . . . . . . . . . ",
". . . . . . . . . . . . . . . . . . . . . . 6.{ $ $ $ $ $ $ $ $ L . . ) t.P . . . . . . . . ).$ $ $ z . ( b.#.. . . . . . . . . . . . . . . . . . . . . . . . . ",
". . . . . . . . . . . . . . . . . . . . . . . c.$ $ $ $ $ $ $ $ # ( . . +.<.. . . . . . . m $ $ $ i.. . u.t.) . . . . . . . . . . . . . . . . . . . . . . . . . ",
". . . . . . . . . . . . . . . . . . . . . . . > $ $ $ $ $ $ $ $ $ 4.. . ,.I 5 . . . . . . v.$ $ $ 0.. . j w.. . . . . . . . . . . . . . . . . . . . . . . . . . ",
". . . . . . . . . . . . . . . . . . . . . . . e | $ $ $ $ $ $ $ $ ~ . . . h.G . . . . . . K $ $ { 6.. o 5.-.. . . . . . . . . . . . . . . . . . . . . . . . . . ",
". . . . . . . . . . . . . . . . . . . . . . . . ~ $ $ $ $ $ $ $ $ | e . . '.x.. . . . . S $ $ $ q.. . @ l . . . . . . . . . . . . . . . . . . . . . . . . . . . ",
". . . . . . . . . . . . . . . . . . . . . . . . y.$ $ $ $ $ $ $ $ $ > . . -.Y * . . . . z.$ $ $ 7 . . n.A.. . . . . . . . . . . . . . . . . . . . . . . . . . . ",
". . . . . . . . . . . . . . . . . . . . . . . . ( s $ $ $ $ $ $ $ $ w . . . &.8.. . . e p $ $ B.) . ,.B 5 . . . . . . . . . . . . . . . . . . . . . . . . . . . ",
". . . . . . . . . . . . . . . . . . . . . . . . . ] $ $ $ $ $ $ $ $ { 6.. . H 9.. . . } $ $ $ l.. . ] ~ . . . . . . . . . . . . . . . . . . . . . . . . . . . . ",
". . . . . . . . . . . . . . . . . . . . . . . . . S $ $ $ $ $ $ $ $ $ ^ . . ' y _.. . [ $ $ $ b . e |.>.. . . . . . . . . . . . . . . . . . . . . . . . . . . . ",
". . . . . . . . . . . . . . . . . . . . . . . . . v p.$ $ $ $ $ $ $ $ {.. . . C.Q . t y $ $ j.. . } D.v . . . . . . . . . . . . . . . . . . . . . . . . . . . . ",
". . . . . . . . . . . . . . . . . . . . . . . . . . w.$ $ $ $ $ $ $ $ y R . . 1 E.. F.$ $ $ g.. . {.v.. . . . . . . . . . . . . . . . . . . . . . . . . . . . . ",
". . . . . . . . . . . . . . . . . . . . . . . . . . a $ $ $ $ $ $ $ $ $ d . . 6.O -.G.$ $ , + . _.y m . . . . . . . . . . . . . . . . . . . . . . . . . . . . . ",
". . . . . . . . . . . . . . . . . . . . . . . . . . . G.$ $ $ $ $ $ $ $ o.. . . c.{.$ $ $ k . . v.!.. . . . . . . . . . . . . . . . . . . . . . . . . . . . . . ",
". . . . . . . . . . . . . . . . . . . . . . . . . . . v.$ $ $ $ $ $ $ $ $ b . . > $ $ $ $ U . v H.} . . . . . . . . . . . . . . . . . . . . . . . . . . . . . . ",
". . . . . . . . . . . . . . . . . . . . . . . . . . . & $ $ $ $ $ $ $ $ $ = . . 6.$ $ $  .. . >.|.e . . . . . . . . . . . . . . . . . . . . . . . . . . . . . . ",
". . . . . . . . . . . . . . . . . . . . . . . . . . . . ].$ $ $ $ $ $ $ $ n.. . G $ $ $ =.. . ~ k.. . . . . . . . . . . . . . . . . . . . . . . . . . . . . . . ",
". . . . . . . . . . . . . . . . . . . . . . . . . . . . ..$ $ $ $ $ $ $ $ $ z . o.$ $ y ' . 5 B ,.. . . . . . . . . . . . . . . . . . . . . . . . . . . . . . . ",
". . . . . . . . . . . . . . . . . . . . . . . . . . . . ' y $ $ $ $ $ $ $ $ (.a.$ $ $ ` . . 1 n.. . . . . . . . . . . . . . . . . . . . . . . . . . . . . . . . ",
". . . . . . . . . . . . . . . . . . . . . . . . . . . . . I.$ $ $ $ $ $ $ $ :.~ $ $ $ > . . J.@ . . . . . . . . . . . . . . . . . . . . . . . . . . . . . . . . ",
". . . . . . . . . . . . . . . . . . . . . . . . . . . . . 1 $ $ $ $ $ $ $ $ $ $ $ $ K.h . f.5.o . . . . . . . . . . . . . . . . . . . . . . . . . . . . . . . . ",
". . . . . . . . . . . . . . . . . . . . . . . . . . . . . 6.O $ $ $ $ $ $ $ $ $ $ $ %.. . (.j . . . . . . . . . . . . . . . . . . . . . . . . . . . . . . . . . ",
". . . . . . . . . . . . . . . . . . . . . . . . . . . . . . j $ $ $ $ $ $ $ $ $ $ $ T . ) 7.u.. . . . . . . . . . . . . . . . . . . . . . . . . . . . . . . . . ",
". . . . . . . . . . . . . . . . . . . . . . . . . . . . . . 2.$ $ $ $ $ $ $ $ $ $ @.. . y.b.( . . . . . . . . . . . . . . . . . . . . . . . . . . . . . . . . . ",
". . . . . . . . . . . . . . . . . . . . . . . . . . . . . . o y $ $ $ $ $ $ $ $ $ ... . <.: . . . . . . . . . . . . . . . . . . . . . . . . . . . . . . . . . . ",
". . . . . . . . . . . . . . . . . . . . . . . . . . . . . t &.$ $ $ $ $ $ $ $ $ $ @.' e { d . . . . . . . . . . . . . . . . . . . . . . . . . . . . . . . . . . ",
". . . . . . . . . . . . . . . . . . . . . . . . . . . . ^.t.$ $ $ $ $ $ $ $ $ $ $ $ p.s.=.{ _ . . . . . . . . . . . . . . . . . . . . . . . . . . . . . . . . . ",
". . . . . . . . . . . . . . . . . . . . . . . . . . . g.{ $ $ $ $ $ $ $ $ $ $ $ $ $ $ |./.c n L.. . . . . . . . . . . . . . . . . . . . . . . . . . . . . . . . ",
". . . . . . . . . . . . . . . . . . . . . . . . . v q $ $ $ $ $ $ $ $ $ $ $ $ $ $ $ $ $ 5.r i p.' . . . . . . . . . . . . . . . . . . . . . . . . . . . . . . . ",
". . . . . . . . . . . . . . . . . . . . . . . . 8 F $ $ $ $ $ $ $ $ $ $ $ $ $ $ $ $ $ $ $ $ ] K @.5 . . . . . . . . . . . . . . . . . . . . . . . . . . . . . . ",
". . . . . . . . . . . . . . . . . . . . . . . . . . . . . . . . . . . . . . . . . . . . . . . f.3 {.( . . . . . . . . . . . . . . . . . . . . . . . . . . . . . ",
". . . . . . . . . . . . . . . . . . . . . . . . . . . . . . . . . . . . . . . . . . . . . . . . ! 5.~ . . . . . . . . . . . . . . . . . . . . . . . . . . . . . ",
". . . . . . . . . . . . . . . . . . . . . . . . . . . . . . . . . . . . . . . . . . . . . . . . . A.$ (.. . . . . . . . . . . . . . . . . . . . . . . . . . . . ",
". . . . . . . . . . . . . . . . . . . . . . . . . . 5 Z $ $ $ $ $ $ $ $ $ $ $ $ $ $ $ $ $ $ $ $ $ $ $ $ r . . . . . . . . . . . . . . . . . . . . . . . . . . . "};
