/* XPM */
static xpm_row_t const letterP_xpm[] = {
"80 80 161 2",
"  	c None",
". 	c #FF0000",
"+ 	c #FB0000",
"@ 	c #960000",
"# 	c #000000",
"$ 	c #220000",
"% 	c #350000",
"& 	c #400000",
"* 	c #550000",
"= 	c #6C0000",
"- 	c #7E0000",
"; 	c #920000",
"> 	c #A80000",
", 	c #BB0000",
"' 	c #D10000",
") 	c #E70000",
"! 	c #FA0000",
"~ 	c #FD0000",
"{ 	c #A40000",
"] 	c #160000",
"^ 	c #760000",
"/ 	c #AD0000",
"( 	c #D90000",
"_ 	c #B20000",
": 	c #3B0000",
"< 	c #C00000",
"[ 	c #970000",
"} 	c #EE0000",
"| 	c #CC0000",
"1 	c #8A0000",
"2 	c #E60000",
"3 	c #EF0000",
"4 	c #F60000",
"5 	c #FE0000",
"6 	c #F80000",
"7 	c #E50000",
"8 	c #D20000",
"9 	c #420000",
"0 	c #CB0000",
"a 	c #C50000",
"b 	c #9E0000",
"c 	c #DE0000",
"d 	c #A50000",
"e 	c #F00000",
"f 	c #D80000",
"g 	c #900000",
"h 	c #C40000",
"i 	c #D50000",
"j 	c #B70000",
"k 	c #AA0000",
"l 	c #930000",
"m 	c #D40000",
"n 	c #770000",
"o 	c #260000",
"p 	c #3D0000",
"q 	c #4F0000",
"r 	c #6E0000",
"s 	c #860000",
"t 	c #E80000",
"u 	c #AF0000",
"v 	c #D00000",
"w 	c #F40000",
"x 	c #620000",
"y 	c #EB0000",
"z 	c #B00000",
"A 	c #FC0000",
"B 	c #F90000",
"C 	c #F10000",
"D 	c #B40000",
"E 	c #720000",
"F 	c #DD0000",
"G 	c #7F0000",
"H 	c #4B0000",
"I 	c #CE0000",
"J 	c #EC0000",
"K 	c #A10000",
"L 	c #C20000",
"M 	c #E00000",
"N 	c #7C0000",
"O 	c #DB0000",
"P 	c #D70000",
"Q 	c #870000",
"R 	c #450000",
"S 	c #8B0000",
"T 	c #C10000",
"U 	c #DA0000",
"V 	c #AC0000",
"W 	c #A90000",
"X 	c #C80000",
"Y 	c #2A0000",
"Z 	c #830000",
"` 	c #990000",
" .	c #580000",
"..	c #4D0000",
"+.	c #6A0000",
"@.	c #750000",
"#.	c #1C0000",
"$.	c #810000",
"%.	c #2E0000",
"&.	c #680000",
"*.	c #DF0000",
"=.	c #B60000",
"-.	c #ED0000",
";.	c #0D0000",
">.	c #DC0000",
",.	c #600000",
"'.	c #F20000",
").	c #380000",
"!.	c #660000",
"~.	c #BE0000",
"{.	c #8E0000",
"].	c #BD0000",
"^.	c #B80000",
"/.	c #6D0000",
"(.	c #F70000",
"_.	c #E10000",
":.	c #CA0000",
"<.	c #D60000",
"[.	c #690000",
"}.	c #650000",
"|.	c #C70000",
"1.	c #EA0000",
"2.	c #BC0000",
"3.	c #C60000",
"4.	c #5F0000",
"5.	c #9C0000",
"6.	c #B50000",
"7.	c #320000",
"8.	c #850000",
"9.	c #530000",
"0.	c #5C0000",
"a.	c #F50000",
"b.	c #AE0000",
"c.	c #940000",
"d.	c #F30000",
"e.	c #950000",
"f.	c #5A0000",
"g.	c #A60000",
"h.	c #E40000",
"i.	c #7A0000",
"j.	c #8C0000",
"k.	c #9F0000",
"l.	c #C90000",
"m.	c #470000",
"n.	c #A70000",
"o.	c #9D0000",
"p.	c #CD0000",
"q.	c #7D0000",
"r.	c #B30000",
"s.	c #E30000",
"t.	c #800000",
"u.	c #5D0000",
"v.	c #8F0000",
"w.	c #510000",
"x.	c #8D0000",
"y.	c #840000",
"z.	c #D30000",
"A.	c #710000",
"B.	c #C30000",
"C.	c #790000",
"D.	c #820000",
". . . . . . . . . . . . . . . . . . . . . . . . . . . . . . . . . . . . . . . . . . . . . . . . . . . . . . . . . . . . . . . . . . . . . . . . . . . . . . . . ",
". . . . . . . . . . . . . . . . . . . . . . . . . . . . . . . . . . . . . . . . . . . . . . . . . . . . . . . . . . . . . . . . . . . . . . . . . . . . . . . . ",
". . . . . . . . . . . . . . . . . . . . . . . . . . . . . . . . . . . . . . . . . . . . . . . . . . . . . . . . . . . . . . . . . . . . . . . . . . . . . . . . ",
". . . . . . . . . . . . . . . . . . . . . . . . . . . . . . . . . . . . . . . . . . . . . . . . . . . . . . . . . . . . . . . . . . . . . . . . . . . . . . . . ",
". . . . . . . . . . . . . . . . . . . . . . . . . . . . . . . . . . . . . . . . . . . . . . . . . . . . . . . . . . . . . . . . . . . . . . . . . . . . . . . . ",
". . . . . . . . . . . . . . . . . . . . . . . . . . . . . . . . . . . . . . . . . . . . . . . . . . . . . . . . . . . . . . . . . . . . . . . . . . . . . . . . ",
". . . . . . . . . . . . . . . . . . . . . . . . . . . . . . . . . . . . . . . . . . . . . . . . . . . . . . . . . . . . . . . . . . . . . . . . . . . . . . . . ",
". . . . . . . . . . . . . . . . . . + @ # # # # # # # # # # # # # # # # # # # # # $ % & * = - ; > , ' ) ! . . . . . . . . . . . . . . . . . . . . . . . . . . . ",
". . . . . . . . . . . . . . . . . . . ~ { # # # # # # # # # # # # # # # # # # # # # # # # # # # # # # # ] ^ / ( + . . . . . . . . . . . . . . . . . . . . . . . ",
". . . . . . . . . . . . . . . . . . . . . _ # # # # # # # # # # # # # # # # # # # # # # # # # # # # # # # # # # : { ) . . . . . . . . . . . . . . . . . . . . . ",
". . . . . . . . . . . . . . . . . . . . . . < # # # # # # # # # # # # # # # # # # # # # # # # # # # # # # # # # # # # [ } . . . . . . . . . . . . . . . . . . . ",
". . . . . . . . . . . . . . . . . . . . . . . | ] # # # # # # # # # 1 2 3 4 + 5 5 + 6 3 7 8 , ; 9 # # # # # # # # # # # % 0 . . . . . . . . . . . . . . . . . . ",
". . . . . . . . . . . . . . . . . . . . . . . . a # # # # # # # # # b . . . . . . . . . . . . . ~ c b $ # # # # # # # # # # d ~ . 6 e . . . . . . . . . . . . . ",
". . . . . . . . . . . . . . . . . . . . . . . . f # # # # # # # # # b . . . . . . . . . . . . . . . . } g # # # # # # # # # # @ ~ . h i . . . . . . . . . . . . ",
". . . . . . . . . . . . . . . . . . . . . . . . f # # # # # # # # # b . . . . . . . . . . . . . . . . . . j # # # # # # # # # # k . . l m . . . . . . . . . . . ",
". . . . . . . . . . . . . . . . . . . . . . . . f # # # # # # # # # b . . n # # # # # o p q r s { h t . . . u # # # # # # # # # # v . w x y . . . . . . . . . . ",
". . . . . . . . . . . . . . . . . . . . . . . . f # # # # # # # # # b . . n z . . . . . A B C 2 8 D n E F . . G # # # # # # # # # H 4 . I s . . . . . . . . . . ",
". . . . . . . . . . . . . . . . . . . . . . . . f # # # # # # # # # b . . n z . . . . . . . . . . . . J K L . M # # # # # # # # # # j . . N f . . . . . . . . . ",
". . . . . . . . . . . . . . . . . . . . . . . . f # # # # # # # # # b . . n z . . . . . . . . . . . . . . O P . Q # # # # # # # # # R + . f S . . . . . . . . . ",
". . . . . . . . . . . . . . . . . . . . . . . . f # # # # # # # # # b . . n z . . . . . . . . . . . . . . . y 4 T # # # # # # # # # # U . 5 * 3 . . . . . . . . ",
". . . . . . . . . . . . . . . . . . . . . . . . f # # # # # # # # # b . . n z . . . . . . . . . . . . . . . . + ) # # # # # # # # # # V . . W X . . . . . . . . ",
". . . . . . . . . . . . . . . . . . . . . . . . f # # # # # # # # # b . . n z . . . . . . . . . . . . . . . . . 5 Y # # # # # # # # # Z . . v ` . . . . . . . . ",
". . . . . . . . . . . . . . . . . . . . . . . . f # # # # # # # # # b . . n z . . . . . . . . . . . . . . . . . .  .# # # # # # # # # ... . ) +.. . . . . . . . ",
". . . . . . . . . . . . . . . . . . . . . . . . f # # # # # # # # # b . . n z . . . . . . . . . . . . . . . . . . @.# # # # # # # # # #.. . 4 #.~ . . . . . . . ",
". . . . . . . . . . . . . . . . . . . . . . . . f # # # # # # # # # b . . n z . . . . . . . . . . . . . . . . . . Q # # # # # # # # # # A . ~ # 4 . . . . . . . ",
". . . . . . . . . . . . . . . . . . . . . . . . f # # # # # # # # # b . . n z . . . . . . . . . . . . . . . . . . $.# # # # # # # # # %.. . . $ e . . . . . . . ",
". . . . . . . . . . . . . . . . . . . . . . . . f # # # # # # # # # b . . n z . . . . . . . . . . . . . . . . . . &.# # # # # # # # #  .. . 5 # e . . . . . . . ",
". . . . . . . . . . . . . . . . . . . . . . . . f # # # # # # # # # b . . n z . . . . . . . . . . . . . . . . . + #.# # # # # # # # # Q . . B # 4 . . . . . . . ",
". . . . . . . . . . . . . . . . . . . . . . . . f # # # # # # # # # b . . n z . . . . . . . . . . . . . . . . . *.# # # # # # # # # # =.. . -.;.A . . . . . . . ",
". . . . . . . . . . . . . . . . . . . . . . . . f # # # # # # # # # b . . n z . . . . . . . . . . . . . . . . . > # # # # # # # # # # c . . >.,.. . . . . . . . ",
". . . . . . . . . . . . . . . . . . . . . . . . f # # # # # # # # # b . . n z . . . . . . . . . . . . . . . . '.).# # # # # # # # # !.. . . ~.g . . . . . . . . ",
". . . . . . . . . . . . . . . . . . . . . . . . f # # # # # # # # # b . . n z . . . . . . . . . . . . . . . . [ # # # # # # # # # # h . . . {.].. . . . . . . . ",
". . . . . . . . . . . . . . . . . . . . . . . . f # # # # # # # # # b . . n z . . . . . . . . . . . . . . . ^.# # # # # # # # # # /.A . . (.%.) . . . . . . . . ",
". . . . . . . . . . . . . . . . . . . . . . . . f # # # # # # # # # b . . n z . . . . . . . . . . . . . + W # # # # # # # # # # #._.. . . :.&.. . . . . . . . . ",
". . . . . . . . . . . . . . . . . . . . . . . . f # # # # # # # # # b . . n z . . . . . . . . . . . 5 <.[.# # # # # # # # # # # X . . . ~ }.|.. . . . . . . . . ",
". . . . . . . . . . . . . . . . . . . . . . . . f # # # # # # # # # b . . n z . . . . . . . . . 1.2.&.# # # # # # # # # # # # , . . . . 3.4.! . . . . . . . . . ",
". . . . . . . . . . . . . . . . . . . . . . . . f # # # # # # # # # 5.. . ^ / 6 4 e t F | 6.; ..# # # # # # # # # # # # # 7.8 . . . . -.% U . . . . . . . . . . ",
". . . . . . . . . . . . . . . . . . . t =.8.9.Y 0.# # # # # # # # # # # # # # # # # # # # # # # # # # # # # # # # # # # ; } . . . . a.+.b.. . . . . . . . . . . ",
". . . . . . . . . . . . . . . . . 3 g # # # # # # # # # # # # # # # # # # # # # # # # # # # # # # # # # # # # # # ] c.F . . . . . d.n e.5 . . . . . . . . . . . ",
". . . . . . . . . . . . . . . . c & # # # # # # # # # # # # # # # # # # # # # # # # # # # # # # # # # # # # R g h C . . . . . . _.f.g.~ . . . . . . . . . . . . ",
". . . . . . . . . . . . . . . h.%.# # # # # # # # # # # # # # # # # # # # # # # # # #.%.9 * &.i.j.k._ 3.U 3 . . . . . . . . w k & l.. . . . . . . . . . . . . . ",
". . . . . . . . . . . . . . B 0.# m.n.| t d.! . f # # # # # # # # # b . . . . . . . . . . . . . . . . . . . . . . . . . y u : o.e . . . . . . . . . . . . . . . ",
". . . . . . . . . . . . . . ~.9.p.+ . . . . . . f # # # # # # # # # b . . . . . . . . . . . . . . . . . . . . . ~ 7 2.q.* _ -.. . . . . . . . . . . . . . . . . ",
". . . . . . . . . . . . . . d.6 . . . + c T r.z l # # # # # # # # # b . . 8 ' >.) e a.(.+ ~ . A B a.-.s.i T k t.u.v.].7 5 . . . . . . . . . . . . . . . . . . . ",
". . . . . . . . . . . . . . . . . 3 k 9 # # # # f.# # # # # # # # # b . . n 9 w.% #.# ;.o % m.0.r G l n.^.0 *.'.. . . . . . . . . . . . . . . . . . . . . . . . ",
". . . . . . . . . . . . . . . . C % 1 2.O -.6 ~ f # # # # # # # # # b . . n z . . . . . . . . . . . . . . . . . . . . . . . . . . . . . . . . . . . . . . . . . ",
". . . . . . . . . . . . . . . . . B . . . . . . f # # # # # # # # # b . . n z . . . . . . . . . . . . . . . . . . . . . . . . . . . . . . . . . . . . . . . . . ",
". . . . . . . . . . . . . . . . . . . . . . . . f # # # # # # # # # b . . n z . . . . . . . . . . . . . . . . . . . . . . . . . . . . . . . . . . . . . . . . . ",
". . . . . . . . . . . . . . . . . . . . . . . . f # # # # # # # # # b . . n z . . . . . . . . . . . . . . . . . . . . . . . . . . . . . . . . . . . . . . . . . ",
". . . . . . . . . . . . . . . . . . . . . . . . f # # # # # # # # # b . . n z . . . . . . . . . . . . . . . . . . . . . . . . . . . . . . . . . . . . . . . . . ",
". . . . . . . . . . . . . . . . . . . . . . . . f # # # # # # # # # b . . n z . . . . . . . . . . . . . . . . . . . . . . . . . . . . . . . . . . . . . . . . . ",
". . . . . . . . . . . . . . . . . . . . . . . . f # # # # # # # # # b . . n z . . . . . . . . . . . . . . . . . . . . . . . . . . . . . . . . . . . . . . . . . ",
". . . . . . . . . . . . . . . . . . . . . . . . f # # # # # # # # # b . . n z . . . . . . . . . . . . . . . . . . . . . . . . . . . . . . . . . . . . . . . . . ",
". . . . . . . . . . . . . . . . . . . . . . . . f # # # # # # # # # b . . n z . . . . . . . . . . . . . . . . . . . . . . . . . . . . . . . . . . . . . . . . . ",
". . . . . . . . . . . . . . . . . . . . . . . . f # # # # # # # # # b . . n z . . . . . . . . . . . . . . . . . . . . . . . . . . . . . . . . . . . . . . . . . ",
". . . . . . . . . . . . . . . . . . . . . . . . f # # # # # # # # # b . . n z . . . . . . . . . . . . . . . . . . . . . . . . . . . . . . . . . . . . . . . . . ",
". . . . . . . . . . . . . . . . . . . . . . . . f # # # # # # # # # b . . n z . . . . . . . . . . . . . . . . . . . . . . . . . . . . . . . . . . . . . . . . . ",
". . . . . . . . . . . . . . . . . . . . . . . . f # # # # # # # # # b . . n z . . . . . . . . . . . . . . . . . . . . . . . . . . . . . . . . . . . . . . . . . ",
". . . . . . . . . . . . . . . . . . . . . . . . f # # # # # # # # # b . . n z . . . . . . . . . . . . . . . . . . . . . . . . . . . . . . . . . . . . . . . . . ",
". . . . . . . . . . . . . . . . . . . . . . . . f # # # # # # # # # b . . n z . . . . . . . . . . . . . . . . . . . . . . . . . . . . . . . . . . . . . . . . . ",
". . . . . . . . . . . . . . . . . . . . . . . . f # # # # # # # # # b . . n z . . . . . . . . . . . . . . . . . . . . . . . . . . . . . . . . . . . . . . . . . ",
". . . . . . . . . . . . . . . . . . . . . . . . f # # # # # # # # # b . . n z . . . . . . . . . . . . . . . . . . . . . . . . . . . . . . . . . . . . . . . . . ",
". . . . . . . . . . . . . . . . . . . . . . . . f # # # # # # # # # b . . n z . . . . . . . . . . . . . . . . . . . . . . . . . . . . . . . . . . . . . . . . . ",
". . . . . . . . . . . . . . . . . . . . . . . . f # # # # # # # # # b . . n z . . . . . . . . . . . . . . . . . . . . . . . . . . . . . . . . . . . . . . . . . ",
". . . . . . . . . . . . . . . . . . . . . . . 5 > # # # # # # # # # x.. . n z . . . . . . . . . . . . . . . . . . . . . . . . . . . . . . . . . . . . . . . . . ",
". . . . . . . . . . . . . . . . . . . . . . B l # # # # # # # # # # # > 5 $.n ! . . . . . . . . . . . . . . . . . . . . . . . . . . . . . . . . . . . . . . . . ",
". . . . . . . . . . . . . . . . . . . . . C @.# # # # # # # # # # # # # @ h.: c.5 . . . . . . . . . . . . . . . . . . . . . . . . . . . . . . . . . . . . . . . ",
". . . . . . . . . . . . . . . . . . . . 7 * # # # # # # # # # # # # # # # y.' #./ . . . . . . . . . . . . . . . . . . . . . . . . . . . . . . . . . . . . . . . ",
". . . . . . . . . . . . . . . . . . . z.7.# # # # # # # # # # # # # # # # # A.6.# B.. . . . . . . . . . . . . . . . . . . . . . . . . . . . . . . . . . . . . . ",
". . . . . . . . . . . . . . . . . . , # # # # # # # # # # # # # # # # # # # # u.j.;.<.. . . . . . . . . . . . . . . . . . . . . . . . . . . . . . . . . . . . . ",
". . . . . . . . . . . . . . . . . . . . . . . . . . . . . . . . . . . . . . . . 5 c.7.h.. . . . . . . . . . . . . . . . . . . . . . . . . . . . . . . . . . . . ",
". . . . . . . . . . . . . . . . . . . . . . . . . . . . . . . . . . . . . . . . . ! C.q 3 . . . . . . . . . . . . . . . . . . . . . . . . . . . . . . . . . . . ",
". . . . . . . . . . . . . . . . . . . . . . . . . . . . . . . . . . . . . . . . . . d.u.+.4 . . . . . . . . . . . . . . . . . . . . . . . . . . . . . . . . . . ",
". . . . . . . . . . . . . . . . . . . . '.D.# # # # # # # # # # # # # # # # # # # # # # # y.A . . . . . . . . . . . . . . . . . . . . . . . . . . . . . . . . . ",
". . . . . . . . . . . . . . . . . . . . . . . . . . . . . . . . . . . . . . . . . . . . . . . . . . . . . . . . . . . . . . . . . . . . . . . . . . . . . . . . ",
". . . . . . . . . . . . . . . . . . . . . . . . . . . . . . . . . . . . . . . . . . . . . . . . . . . . . . . . . . . . . . . . . . . . . . . . . . . . . . . . ",
". . . . . . . . . . . . . . . . . . . . . . . . . . . . . . . . . . . . . . . . . . . . . . . . . . . . . . . . . . . . . . . . . . . . . . . . . . . . . . . . ",
". . . . . . . . . . . . . . . . . . . . . . . . . . . . . . . . . . . . . . . . . . . . . . . . . . . . . . . . . . . . . . . . . . . . . . . . . . . . . . . . ",
". . . . . . . . . . . . . . . . . . . . . . . . . . . . . . . . . . . . . . . . . . . . . . . . . . . . . . . . . . . . . . . . . . . . . . . . . . . . . . . . ",
". . . . . . . . . . . . . . . . . . . . . . . . . . . . . . . . . . . . . . . . . . . . . . . . . . . . . . . . . . . . . . . . . . . . . . . . . . . . . . . . "};
