/* XPM */
static xpm_row_t const letterA_xpm[] = {
"80 80 175 2",
"  	c None",
". 	c #FF0000",
"+ 	c #FA0000",
"@ 	c #7E0000",
"# 	c #000000",
"$ 	c #860000",
"% 	c #FC0000",
"& 	c #FE0000",
"* 	c #F90000",
"= 	c #F60000",
"- 	c #6D0000",
"; 	c #F70000",
"> 	c #B20000",
", 	c #530000",
"' 	c #F10000",
") 	c #5D0000",
"! 	c #510000",
"~ 	c #EF0000",
"{ 	c #CA0000",
"] 	c #0D0000",
"^ 	c #D50000",
"/ 	c #EC0000",
"( 	c #4D0000",
"_ 	c #350000",
": 	c #E50000",
"< 	c #DD0000",
"[ 	c #220000",
"} 	c #BE0000",
"| 	c #3B0000",
"1 	c #D60000",
"2 	c #EB0000",
"3 	c #420000",
"4 	c #A30000",
"5 	c #C20000",
"6 	c #F50000",
"7 	c #620000",
"8 	c #870000",
"9 	c #C90000",
"0 	c #CF0000",
"a 	c #FD0000",
"b 	c #800000",
"c 	c #690000",
"d 	c #820000",
"e 	c #890000",
"f 	c #600000",
"g 	c #B60000",
"h 	c #B90000",
"i 	c #5F0000",
"j 	c #BD0000",
"k 	c #EE0000",
"l 	c #DF0000",
"m 	c #710000",
"n 	c #E60000",
"o 	c #C30000",
"p 	c #AF0000",
"q 	c #E30000",
"r 	c #F40000",
"s 	c #A90000",
"t 	c #2E0000",
"u 	c #D00000",
"v 	c #940000",
"w 	c #450000",
"x 	c #FB0000",
"y 	c #9C0000",
"z 	c #8A0000",
"A 	c #DC0000",
"B 	c #680000",
"C 	c #D40000",
"D 	c #DB0000",
"E 	c #A10000",
"F 	c #4B0000",
"G 	c #E20000",
"H 	c #910000",
"I 	c #550000",
"J 	c #AD0000",
"K 	c #A60000",
"L 	c #A00000",
"M 	c #1C0000",
"N 	c #6C0000",
"O 	c #D10000",
"P 	c #3D0000",
"Q 	c #E00000",
"R 	c #EA0000",
"S 	c #900000",
"T 	c #720000",
"U 	c #780000",
"V 	c #AB0000",
"W 	c #7A0000",
"X 	c #E70000",
"Y 	c #C50000",
"Z 	c #490000",
"` 	c #C60000",
" .	c #F00000",
"..	c #C70000",
"+.	c #AE0000",
"@.	c #470000",
"#.	c #7D0000",
"$.	c #930000",
"%.	c #BC0000",
"&.	c #2A0000",
"*.	c #950000",
"=.	c #ED0000",
"-.	c #6A0000",
";.	c #D20000",
">.	c #660000",
",.	c #9B0000",
"'.	c #D70000",
").	c #E90000",
"!.	c #C80000",
"~.	c #810000",
"{.	c #880000",
"].	c #E10000",
"^.	c #DA0000",
"/.	c #970000",
"(.	c #D90000",
"_.	c #840000",
":.	c #9E0000",
"<.	c #750000",
"[.	c #260000",
"}.	c #A40000",
"|.	c #560000",
"1.	c #AC0000",
"2.	c #770000",
"3.	c #160000",
"4.	c #A80000",
"5.	c #F30000",
"6.	c #B40000",
"7.	c #320000",
"8.	c #850000",
"9.	c #D80000",
"0.	c #760000",
"a.	c #920000",
"b.	c #BB0000",
"c.	c #D30000",
"d.	c #C40000",
"e.	c #C00000",
"f.	c #4F0000",
"g.	c #BA0000",
"h.	c #5A0000",
"i.	c #6E0000",
"j.	c #E80000",
"k.	c #A20000",
"l.	c #B80000",
"m.	c #CE0000",
"n.	c #DE0000",
"o.	c #960000",
"p.	c #E40000",
"q.	c #AA0000",
"r.	c #CB0000",
"s.	c #F80000",
"t.	c #C10000",
"u.	c #9A0000",
"v.	c #380000",
"w.	c #B10000",
"x.	c #580000",
"y.	c #650000",
"z.	c #8E0000",
"A.	c #8F0000",
"B.	c #630000",
"C.	c #F20000",
"D.	c #A50000",
"E.	c #BF0000",
"F.	c #5C0000",
"G.	c #B30000",
"H.	c #790000",
"I.	c #700000",
"J.	c #CD0000",
"K.	c #CC0000",
"L.	c #9F0000",
"M.	c #9D0000",
"N.	c #730000",
"O.	c #B50000",
"P.	c #830000",
"Q.	c #7F0000",
"R.	c #8B0000",
". . . . . . . . . . . . . . . . . . . . . . . . . . . . . . . . . . . . . . . . . . . . . . . . . . . . . . . . . . . . . . . . . . . . . . . . . . . . . . . . ",
". . . . . . . . . . . . . . . . . . . . . . . . . . . . . . . . . . . . . . . . . . . . . . . . . . . . . . . . . . . . . . . . . . . . . . . . . . . . . . . . ",
". . . . . . . . . . . . . . . . . . . . . . . . . . . . . . . . . . . . . . . . . . . . . . . . . . . . . . . . . . . . . . . . . . . . . . . . . . . . . . . . ",
". . . . . . . . . . . . . . . . . . . . . . . . . . . . . . . . . . . . . . . . . . . . . . . . . . . . . . . . . . . . . . . . . . . . . . . . . . . . . . . . ",
". . . . . . . . . . . . . . . . . . . . . . . . . . . + @ # # # # # # # # # # # # # # # # # # # # $ % . & * . . . . . . . . . . . . . . . . . . . . . . . . . . ",
". . . . . . . . . . . . . . . . . . . . . . . . . . . . = - # # # # # # # # # # # # # # # # # # - ; . . > , = . . . . . . . . . . . . . . . . . . . . . . . . . ",
". . . . . . . . . . . . . . . . . . . . . . . . . . . . . ' ) # # # # # # # # # # # # # # # # ! ~ . . { ] ^ . . . . . . . . . . . . . . . . . . . . . . . . . . ",
". . . . . . . . . . . . . . . . . . . . . . . . . . . . . . / ( # # # # # # # # # # # # # # _ : . . < [ } . . . . . . . . . . . . . . . . . . . . . . . . . . . ",
". . . . . . . . . . . . . . . . . . . . . . . . . . . . . . . : | # # # # # # # # # # # # ] 1 . . 2 3 4 . . . . . . . . . . . . . . . . . . . . . . . . . . . . ",
". . . . . . . . . . . . . . . . . . . . . . . . . . . . . . . . 1 # # # # # # # # # # # # 5 . . 6 7 8 % . . . . . . . . . . . . . . . . . . . . . . . . . . . . ",
". . . . . . . . . . . . . . . . . . . . . . . . . . . . . . . . 9 # # # # # # # # # # # # 0 . a b c = . . . . . . . . . . . . . . . . . . . . . . . . . . . . . ",
". . . . . . . . . . . . . . . . . . . . . . . . . . . . . . . . d # # # # # # # # # # # # e . . f g . . . . . . . . . . . . . . . . . . . . . . . . . . . . . . ",
". . . . . . . . . . . . . . . . . . . . . . . . . . . . . . . ~ # # # # # # # # # # # # # ] ' . h i & . . . . . . . . . . . . . . . . . . . . . . . . . . . . . ",
". . . . . . . . . . . . . . . . . . . . . . . . . . . . . . . j # # # # # # # # # # # # # # j . k # l . . . . . . . . . . . . . . . . . . . . . . . . . . . . . ",
". . . . . . . . . . . . . . . . . . . . . . . . . . . . . . . - # # # m , # # # # # # # # # c . . d 4 . . . . . . . . . . . . . . . . . . . . . . . . . . . . . ",
". . . . . . . . . . . . . . . . . . . . . . . . . . . . . . n # # # # o p # # # # # # # # # # q . { | + . . . . . . . . . . . . . . . . . . . . . . . . . . . . ",
". . . . . . . . . . . . . . . . . . . . . . . . . . . . . . p # # # [ r n # # # # # # # # # # s . ; t u . . . . . . . . . . . . . . . . . . . . . . . . . . . . ",
". . . . . . . . . . . . . . . . . . . . . . . . . . . . . & , # # # v . . - # # # # # # # # # w x . y z . . . . . . . . . . . . . . . . . . . . . . . . . . . . ",
". . . . . . . . . . . . . . . . . . . . . . . . . . . . . A # # # # 1 . . B # # # # # # # # # # C . D ] ' . . . . . . . . . . . . . . . . . . . . . . . . . . . ",
". . . . . . . . . . . . . . . . . . . . . . . . . . . . . E # # # F % . G # # # # # # # # # # # H . a I } . . . . . . . . . . . . . . . . . . . . . . . . . . . ",
". . . . . . . . . . . . . . . . . . . . . . . . . . . . + | # # # J . . K , L # # # # # # # # # M r . > N . . . . . . . . . . . . . . . . . . . . . . . . . . . ",
". . . . . . . . . . . . . . . . . . . . . . . . . . . . O # # # # n . + P > Q # # # # # # # # # # 5 . R # : . . . . . . . . . . . . . . . . . . . . . . . . . . ",
". . . . . . . . . . . . . . . . . . . . . . . . . . . . S # # # T . . u # R . f # # # # # # # # # T . . U V . . . . . . . . . . . . . . . . . . . . . . . . . . ",
". . . . . . . . . . . . . . . . . . . . . . . . . . . 6 M # # # 5 . . e W . . h # # # # # # # # # # X . Y Z % . . . . . . . . . . . . . . . . . . . . . . . . . ",
". . . . . . . . . . . . . . . . . . . . = J * . . . . ` # # # M r .  .] ... . k # # # # # # # # # # +.. 6 [ ^ . . . . . . . . . . . . . . . . . . . . . . . . . ",
". . . . . . . . . . . . . . . . . . . . : @.B n . . . #.# # # $.. . %.&.= . . . d # # # # # # # # # ( % . *.v . . . . . . . . . . . . . . . . . . . . . . . . . ",
". . . . . . . . . . . . . . . . . . & + . =.-.&.;.. =.# # # # ^ . . >.,.. . . . { # # # # # # # # # # '.. 1 [ 6 . . . ).!.. . . . . . . . . . . . . . . . . . . ",
". . . . . . . . . . . . . . . . . . A ~.; . ; {.# } h # # # F % . ].# ^.. . . . ; t # # # # # # # # # /.. % F Y . . (.P _.. . X . . . . . . . . . . . . . . . . ",
". . . . . . . . . . . . . . . . . . :.# <.r . % L # [.# # # J . . }.|.a . . . . . y # # # # # # # # # [.= . 1.2.. o 3.# [ * . > 4.. . . . . . . . . . . . . . . ",
". . . . . . . . . . . . . . . . . 5.[.# # B ~ . . 4 # # # # n . + | 6.. . . . . . ^.# # # # # # # # # # ... : # v # # # # ;.. < 7.x . . . . . . . . . . . . . . ",
". . . . . . . . . . . . . . . . . 6.# # # # ! q . 8.# # # m . . 0 # 2 . . . . . . a , # # # # # # # # # W . C M # # # # # v . a ( 9.. . . . . . . . . . . . . . ",
". . . . . . . . . . . . . . . . 6 P # # # # # [.> # # # # 5 . . {.@ . . . . . . . . > # # # # # # # # # # 0.# # # # # # # [.r . J /.. . . . . . . . . . . . . . ",
". . . . . . . . . . . . . . . . J # # # # # # # # # # # M r .  .] 9 . . . . . . . . ).# # # # # # # # # # # # # # # # # # # h . n M 5.. . . . . . . . . . . . . ",
". . . . . . . . . . . . . . . R [ # # # # # # # # # # # a.. . b.t ; . . . . . . . . . 0.# # # # # # # # # # # # # # # # # # ! x . ~.b.. . . . . . . . . . . . . ",
". . . . . . . . . . . . . . & ~.# # # # # # # # # # # # c.. . ~.w  .. . . . . . . . . d.# # # # # # # # # # # # # # # # # # # e.. C f.+ . . . . . . . . . . . . ",
". . . . . . . . . . . . . . & / 9.g.@ 3.# # # # # # # # 8.x . k h.i.; . . . . . . . . 6 [ # # # # # # # # # # # # # # # # # # Z ; a B Y . . . . . . . . . . . . ",
". . . . . . . . . . . . . . . . . . . ~ +.[.# # # # # # # H a . k h._.x . . . . . . . . $.# # # # # # # # # # # N 6.(./ ; x . . . . u ) % . . . . . . . . . . . ",
". . . . . . . . . . . . . . . . . . . . . j.i # # # # # # # 4 . . R w ,.. . . . . . . . ^ # # # # # # # # # # k.& . . . . . . . . . & N ... . . . . . . . . . . ",
". . . . . . . . . . . . . . . . . . . . . . f # # # # # # # # l.. . Q &.%.. . . . . . a ,.# # # # # # # # # # -.. . . . . . . . . . . C , + . . . . . . . . . . ",
". . . . . . . . . . . . . . . . . . . . . n # # # # # # # # # # c.. . m.3.n.. . . . % o.# # # # # # # # # # # # p.. g 3.Z # # # ] 3.M M # j . . . . . . . . . . ",
". . . . . . . . . . . . . . . . . . . . . g # # # # e # # # # # _ j.. . q.|.6 . . % H # # # # # # # # # # # # # q.. / # p.& x 6 k : < C r.... . . . . . . . . . ",
". . . . . . . . . . . . . . . . . . . . . c # # # <.& ,.# # # # # >.s.. % @ o.. . k.# # # # # # # # # # # # # # Z % . @ s . . . . . . . . . . . . . . . . . . . ",
". . . . . . . . . . . . . . . . . . . . n # # # # t.. % W # # # # # u.. . k v.m.h # # # # # # # # # # # # # # # # ^ . 9 w x . . . . . . . . . . . . . . . . . . ",
". . . . . . . . . . . . . . . . . . . . w.# # # #  .. % ( _ # # # # # r.. . 9 7.# # # # # # | ] # # # # # # # # # v . ; t ;.. . . . . . . . . . . . . . . . . . ",
". . . . . . . . . . . . . . . . . . . & x.# # # #.. . C # p.y.# # # # v./ . A # # # # # # ! n z.# # # # # # # # # [ 6 . y z.. . . . . . . . . . . . . . . . . . ",
". . . . . . . . . . . . . . . . . . . A # # # # e.. . A.z . X &.# # # # 2.j.w # # # # # B.k . (.# # # # # # # # # # Y . D 3.C.. . . . . . . . . . . . . . . . . ",
". . . . . . . . . . . . . . . . . . . y # # # # k . r M 1 . . ..# # # # # [ # # # # # c r . . D.# # # # # # # # # # U . & x.E.. . . . . . . . . . . . . . . . . ",
". . . . . . . . . . . . . . . . . . = &.# # # 0.. . d.x.a . . . v # # # # # # # # # F. .. . G.H.4 # # # # # # # # # # R . 6.N . . . . . . . . . . . . . . . . . ",
". . . . . . . . . . . . . . . . . . t.# # # # j . . ~.p . . . . = x.# # # # # # # f./ . . } I.= j.# # # # # # # # # # G.. / # p.. . . . . . . . . . . . . . . . ",
". . . . . . . . . . . . . . . . . & y.# # # # / . 5.] G . . . . . n.] # # # # # [ G . . J.B.5.. . 2.# # # # # # # # # x.& . @ q.. . . . . . . . . . . . . . . . ",
". . . . . . . . . . . . . . . . . 1 # # # # N . . K.x.& . . . . . . J # # # # # Y . . l f./ . . . ` # # # # # # # # # # A . { w x . . . . . . . . . . . . . . . ",
". . . . . . . . . . . . . . . . . d # # # # > . . ,.4.. . . . . . . x -.# # # :.. . =.! n.. . . . = &.# # # # # # # # # L.. s.t c.. . . . . . . . . . . . . . . ",
". . . . . . . . . . . . . . . . l # # # # # D . . f.m.. . . . . . . . ].] # F.s.. + i.!.. . . . . . ,.# # # # # # # # # _ * . M.A.. . . . . . . . . . . . . . . ",
". . . . . . . . . . . . . . . . {.# # # # # ; . =.# / . . . . . . . . . V # ^.. . L.:.. . . . . . . D # # # # # # # # # # J.. A 3.5.. . . . . . . . . . . . . . ",
". . . . . . . . . . . . . . . A # # # # # F.. . C P . . . . . . . . . . s.> . . r.c * . . . . . . . & x.# # # # # # # # # $ . & h.e.. . . . . . . . . . . . . . ",
". . . . . . . . . . . . . . a N.# # # # # _.. . j -.. . . . . . . . . . . . .  .3 q . . . . . . . . . g # # # # # # # # # ]  .. O.i.. . . . . . . . . . . . . . ",
". . . . . . . . . . . . . . o # # # # # # S . . q.P.. . . . . . . . . . . . . z.J . . . . . . . . . . =.# # # # # # # # # # %.. / # : . . . . . . . . . . . . . ",
". . . . . . . . . . . . . =.| # # # # # # Q.. . E H . . . . . . . . . . . . & G + . . . . . . . . . . . P.# # # # # # # # # >.. . Q.q.. . . . . . . . . . . . . ",
". . . . . . . . . . . . + T # # # # # # # 7 . . J 8 . . . . . . . . . . . . . . . . . . . . . . . . . . J.# # # # # # # # # # q . { @.x . . . . . . . . . . . . ",
". . . . . . . . . . . . k.# # # # # # # # M = . j >.. . . . . . . . . . . . . . . . . . . . . . . . . . * v.# # # # # # # # # 4.. s.t C . . . . . . . . . . . . ",
". . . . . . . . . . . } # # # # # # # # # # { . O 3.s.. . . . . . . . . . . . . . . . . . . . . . . . . . 4 # # # # # # # # # w x . M.S . . . . . . . . . . . . ",
". . . . . . . . . . } # # # # # # # # # # # N.a = M ^ . . . . . . . . . . . . . . . . . . . . . . . . . . q.# # # # # # # # # # 6.& A 3./ . . . . . . . . . . . ",
". . . . . . . . . } # # # # # # # # # # # # # j . {.8 . . . . . . . . . . . . . . . . . . . . . . . . x y # # # # # # # # # # # # H = E f.q . . . . . . . . . . ",
". . . . . . . + L # # # # # # # # # # # # # # M n.^.# 9.. . . . . . . . . . . . . . . . . . . . . . r #.# # # # # # # # # # # # # # 7 n 6.t C . . . . . . . . . ",
". . . . . . =.m # # # # # # # # # # # # # # # # @./ a.F.s.. . . . . . . . . . . . . . . . . . . . ).) # # # # # # # # # # # # # # # # t r...M E.. . . . . . . . ",
". . . . % } v.# # # # # # # # # # # # # # # # # # ) G w L.. . . . . . . . . . . . . . . . . . . 9.| # # # # # # # # # # # # # # # # # # # 4 u t K a . . . . . . ",
". . . ^.B # # # # # # # # # # # # # # # # # # # # # c Y # J.. . . . . . . . . . . . . . . . . 5 3.# # # # # # # # # # # # # # # # # # # # # 0.m.@.R.s.. . . . . ",
". . . . . . . . . . . . . . . . . . . . . . . . . . . . q.v.R . . . . . . . . . . . . . . . . . . . . . . . . . . . . . . . . . . . . . . . . . 2 ) m  .. . . . ",
". . . . . . . . . . . . . . . . . . . . . . . . . . . . % b B s.. . . . . . . . . . . . . . . . . . . . . . . . . . . . . . . . . . . . . . . . . C.N.I n . . . ",
". . . . . . . . . . . . . . . . . . . . . . . . . . . . . 5.|.v . . . . . . . . . . . . . . . . . . . . . . . . . . . . . . . . . . . . . . . . . . s.{._ '.. . ",
". . . . . 5.B # # # # # # # # # # # # # # # # # # # # # # # # # j . . . . . . . . . . . . . . . . a *.# # # # # # # # # # # # # # # # # # # # # # # # # # ] o . ",
". . . . . . . . . . . . . . . . . . . . . . . . . . . . . . . . . . . . . . . . . . . . . . . . . . . . . . . . . . . . . . . . . . . . . . . . . . . . . . . . ",
". . . . . . . . . . . . . . . . . . . . . . . . . . . . . . . . . . . . . . . . . . . . . . . . . . . . . . . . . . . . . . . . . . . . . . . . . . . . . . . . ",
". . . . . . . . . . . . . . . . . . . . . . . . . . . . . . . . . . . . . . . . . . . . . . . . . . . . . . . . . . . . . . . . . . . . . . . . . . . . . . . . ",
". . . . . . . . . . . . . . . . . . . . . . . . . . . . . . . . . . . . . . . . . . . . . . . . . . . . . . . . . . . . . . . . . . . . . . . . . . . . . . . . ",
". . . . . . . . . . . . . . . . . . . . . . . . . . . . . . . . . . . . . . . . . . . . . . . . . . . . . . . . . . . . . . . . . . . . . . . . . . . . . . . . ",
". . . . . . . . . . . . . . . . . . . . . . . . . . . . . . . . . . . . . . . . . . . . . . . . . . . . . . . . . . . . . . . . . . . . . . . . . . . . . . . . ",
". . . . . . . . . . . . . . . . . . . . . . . . . . . . . . . . . . . . . . . . . . . . . . . . . . . . . . . . . . . . . . . . . . . . . . . . . . . . . . . . ",
". . . . . . . . . . . . . . . . . . . . . . . . . . . . . . . . . . . . . . . . . . . . . . . . . . . . . . . . . . . . . . . . . . . . . . . . . . . . . . . . ",
". . . . . . . . . . . . . . . . . . . . . . . . . . . . . . . . . . . . . . . . . . . . . . . . . . . . . . . . . . . . . . . . . . . . . . . . . . . . . . . . "};
