/* XPM */
static xpm_row_t const letterZ_xpm[] = {
"80 80 173 2",
"  	c None",
". 	c #FF0000",
"+ 	c #BF0000",
"@ 	c #000000",
"# 	c #5D0000",
"$ 	c #F80000",
"% 	c #FB0000",
"& 	c #580000",
"* 	c #DC0000",
"= 	c #AB0000",
"- 	c #CC0000",
"; 	c #A50000",
"> 	c #CB0000",
", 	c #0D0000",
"' 	c #E40000",
") 	c #FE0000",
"! 	c #700000",
"~ 	c #5A0000",
"{ 	c #F20000",
"] 	c #400000",
"^ 	c #AD0000",
"/ 	c #D80000",
"( 	c #260000",
"_ 	c #7D0000",
": 	c #BE0000",
"< 	c #CF0000",
"[ 	c #DB0000",
"} 	c #E50000",
"| 	c #EC0000",
"1 	c #F10000",
"2 	c #F60000",
"3 	c #F90000",
"4 	c #FD0000",
"5 	c #FC0000",
"6 	c #F40000",
"7 	c #F00000",
"8 	c #E80000",
"9 	c #890000",
"0 	c #8F0000",
"a 	c #630000",
"b 	c #FA0000",
"c 	c #7E0000",
"d 	c #800000",
"e 	c #D10000",
"f 	c #DF0000",
"g 	c #A30000",
"h 	c #CD0000",
"i 	c #DD0000",
"j 	c #5C0000",
"k 	c #620000",
"l 	c #F70000",
"m 	c #450000",
"n 	c #AA0000",
"o 	c #860000",
"p 	c #910000",
"q 	c #EE0000",
"r 	c #CA0000",
"s 	c #940000",
"t 	c #7C0000",
"u 	c #650000",
"v 	c #510000",
"w 	c #3B0000",
"x 	c #2A0000",
"y 	c #1C0000",
"z 	c #160000",
"A 	c #220000",
"B 	c #350000",
"C 	c #420000",
"D 	c #4B0000",
"E 	c #490000",
"F 	c #DA0000",
"G 	c #930000",
"H 	c #600000",
"I 	c #E00000",
"J 	c #9B0000",
"K 	c #D70000",
"L 	c #A40000",
"M 	c #C30000",
"N 	c #EF0000",
"O 	c #B50000",
"P 	c #A20000",
"Q 	c #830000",
"R 	c #950000",
"S 	c #550000",
"T 	c #C00000",
"U 	c #5F0000",
"V 	c #560000",
"W 	c #F30000",
"X 	c #470000",
"Y 	c #A70000",
"Z 	c #380000",
"` 	c #730000",
" .	c #A00000",
"..	c #A80000",
"+.	c #7A0000",
"@.	c #DE0000",
"#.	c #D20000",
"$.	c #4F0000",
"%.	c #AF0000",
"&.	c #760000",
"*.	c #BB0000",
"=.	c #E70000",
"-.	c #E30000",
";.	c #980000",
">.	c #C60000",
",.	c #9A0000",
"'.	c #8B0000",
").	c #9F0000",
"!.	c #D30000",
"~.	c #D60000",
"{.	c #530000",
"].	c #F50000",
"^.	c #D00000",
"/.	c #AE0000",
"(.	c #E20000",
"_.	c #9D0000",
":.	c #D50000",
"<.	c #680000",
"[.	c #B10000",
"}.	c #9E0000",
"|.	c #6C0000",
"1.	c #9C0000",
"2.	c #B30000",
"3.	c #D40000",
"4.	c #D90000",
"5.	c #4D0000",
"6.	c #990000",
"7.	c #B60000",
"8.	c #720000",
"9.	c #B90000",
"0.	c #A60000",
"a.	c #960000",
"b.	c #E90000",
"c.	c #CE0000",
"d.	c #790000",
"e.	c #900000",
"f.	c #EB0000",
"g.	c #8D0000",
"h.	c #3D0000",
"i.	c #2E0000",
"j.	c #E10000",
"k.	c #8A0000",
"l.	c #C20000",
"m.	c #B00000",
"n.	c #ED0000",
"o.	c #320000",
"p.	c #C70000",
"q.	c #6A0000",
"r.	c #870000",
"s.	c #C50000",
"t.	c #B20000",
"u.	c #6E0000",
"v.	c #E60000",
"w.	c #C80000",
"x.	c #710000",
"y.	c #C90000",
"z.	c #B70000",
"A.	c #660000",
"B.	c #8C0000",
"C.	c #750000",
"D.	c #BA0000",
"E.	c #880000",
"F.	c #C10000",
"G.	c #770000",
"H.	c #BC0000",
"I.	c #EA0000",
"J.	c #C40000",
"K.	c #B40000",
"L.	c #8E0000",
"M.	c #850000",
"N.	c #970000",
"O.	c #690000",
"P.	c #780000",
". . . . . . . . . . . . . . . . . . . . . . . . . . . . . . . . . . . . . . . . . . . . . . . . . . . . . . . . . . . . . . . . . . . . . . . . . . . . . . . . ",
". . . . . . . . . . . . . . . . . . . . . . . . . . . . . . . . . . . . . . . . . . . . . . . . . . . . . . . . . . . . . . . . . . . . . . . . . . . . . . . . ",
". . . . . . . . . . . . . . . . . . . . . . . . . . . . . . . . . . . . . . . . . . . . . . . . . . . . . . . . . . . . . . . . . . . . . . . . . . . . . . . . ",
". . . . . . . . . . . . . . . . . . . . . . . . . . . . . . . . . . . . . . . . . . . . . . . . . . . . . . . . . . . . . . . . . . . . . . . . . . . . . . . . ",
". . . . . . . . . . . . . . . . . . . . . . . . . . . . . . . . . . . . . . . . . . . . . . . . . . . . . . . . . . . . . . . . . . . . . . . . . . . . . . . . ",
". . . . . . . . . . . . . . . . . . . . . . . . . . . . . . . . . . . . . . . . . . . . . . . . . . . . . . . . . . . . . . . . . . . . . . . . . . . . . . . . ",
". . . . . . . . . . . . . . . . . . . . . . . . . . . . . . . . . . . . . . . . . . . . . . . . . . . . . . . . . . . . . . . . . . . . . . . . . . . . . . . . ",
". . . . . . . . . . . . . . . . . . . . . . . . . . . . . . . . . . . . . . . . . . . . . . . . . . . . . . . . . . . . . . . . . . . . . . . . . . . . . . . . ",
". . . . . . . . . . . + @ @ @ @ @ @ @ @ @ @ @ @ @ @ @ @ @ @ @ @ @ @ @ @ @ @ @ @ @ @ @ @ @ @ @ @ @ @ @ @ @ @ @ @ @ @ @ @ @ @ @ # $ . . . . . . . . . . . . . . . ",
". . . . . . . . . . . % & @ @ @ @ @ @ @ @ @ @ @ @ @ @ @ @ @ @ @ @ @ @ @ @ @ @ @ @ @ @ @ @ @ @ @ @ @ @ @ @ @ @ @ @ @ @ @ @ @ @ * . . = $ . . . . . . . . . . . . ",
". . . . . . . . . . . . - @ @ @ @ @ @ @ @ @ @ @ @ @ @ @ @ @ @ @ @ @ @ @ @ @ @ @ @ @ @ @ @ @ @ @ @ @ @ @ @ @ @ @ @ @ @ @ @ @ ; . . > , ' . . . . . . . . . . . . ",
". . . . . . . . . . . . ) ! @ @ @ @ @ @ @ @ @ @ @ @ @ @ @ @ @ @ @ @ @ @ @ @ @ @ @ @ @ @ @ @ @ @ @ @ @ @ @ @ @ @ @ @ @ @ @ ~ $ . { ] ^ . . . . . . . . . . . . . ",
". . . . . . . . . . . . . / @ @ @ @ @ @ @ @ @ @ @ @ @ @ ( _ ; : < [ } | 1 2 3 % 4 ) . 5 $ 6 7 | 8 9 @ @ @ @ @ @ @ @ @ @ @ [ . . 0 a b . . . . . . . . . . . . . ",
". . . . . . . . . . . . . . c @ @ @ @ @ @ @ @ @ @ @ d e $ . . . . . . . . . . . . . . . . . . . f @ @ @ @ @ @ @ @ @ @ @ g . . h , f . . . . . . . . . . . . . . ",
". . . . . . . . . . . . . . i @ @ @ @ @ @ @ @ @ j [ . . . . . . . . . . . . . . . . . . . . . b k @ @ @ @ @ @ @ @ @ @ & l . { m n . . . . . . . . . . . . . . . ",
". . . . . . . . . . . . . . . o @ @ @ @ @ @ @ p l . . . . q r ^ s t u v w x y @ , z A ( B C D E @ @ @ @ @ @ @ @ @ @ @ F . . G H 3 . . . . . . . . . . . . . . . ",
". . . . . . . . . . . . . . . I @ @ @ @ @ @ J 4 . . . K t @ ! L M K } N 2 % 4 . % $ 6 7 | 8 O @ @ @ @ @ @ @ @ @ @ @ P . . < @ i . . . . . . . . . . . . . . . . ",
". . . . . . . . . . . . . . . . Q @ @ @ @ d 5 . . $ R S T { . . . . . . . . . . . . . . . 3 U @ @ @ @ @ @ @ @ @ @ V l . W X Y . . . . . . . . . . . . . . . . . ",
". . . . . . . . . . . . . . . . * @ @ @ Z 7 . . 2 `  .3 . . . . . . . . . . . . . . . . . ..@ @ @ @ @ @ @ @ @ @ @ / . . R # $ . . . . . . . . . . . . . . . . . ",
". . . . . . . . . . . . . . . . . +.@ @ + . . % t Y . . . . . . . . . . . . . . . . . . @.@ @ @ @ @ @ @ @ @ @ @  .. . e @ [ . . . . . . . . . . . . . . . . . . ",
". . . . . . . . . . . . . . . . . #.@ $.b . . %.&.5 . . . . . . . . . . . . . . . . . 3 k @ @ @ @ @ @ @ @ @ @ S l . 6 D L . . . . . . . . . . . . . . . . . . . ",
". . . . . . . . . . . . . . . . . 4 U *.. . =., -.. . . . . . . . . . . . . . . . . . = @ @ @ @ @ @ @ @ @ @ @ K . . ;.~ $ . . . . . . . . . . . . . . . . . . . ",
". . . . . . . . . . . . . . . . . . >.1 . . ,.'.. . . . . . . . . . . . . . . . . . I , @ @ @ @ @ @ @ @ @ @ ).. . !.@ F . . . . . . . . . . . . . . . . . . . . ",
". . . . . . . . . . . . . . . . . . ) . . 2 z ~.. . . . . . . . . . . . . . . . . b u @ @ @ @ @ @ @ @ @ @ {.2 . ].$.P . . . . . . . . . . . . . . . . . . . . . ",
". . . . . . . . . . . . . . . . . . . . . ^.] % . . . . . . . . . . . . . . . . . /.@ @ @ @ @ @ @ @ @ @ @ ~.. . J V l . . . . . . . . . . . . . . . . . . . . . ",
". . . . . . . . . . . . . . . . . . . . . ' ).. . . . . . . . . . . . . . . . . (., @ @ @ @ @ @ @ @ @ @ _.. . :.@ / . . . . . . . . . . . . . . . . . . . . . . ",
". . . . . . . . . . . . . . . . . . . . . . % . . . . . . . . . . . . . . . . % <.@ @ @ @ @ @ @ @ @ @ v 2 . 2 v ).. . . . . . . . . . . . . . . . . . . . . . . ",
". . . . . . . . . . . . . . . . . . . . . . . . . . . . . . . . . . . . . . . [.@ @ @ @ @ @ @ @ @ @ @ :.. . }.{.2 . . . . . . . . . . . . . . . . . . . . . . . ",
". . . . . . . . . . . . . . . . . . . . . . . . . . . . . . . . . . . . . . -.z @ @ @ @ @ @ @ @ @ @ J . . K @ ~.. . . . . . . . . . . . . . . . . . . . . . . . ",
". . . . . . . . . . . . . . . . . . . . . . . . . . . . . . . . . . . . . % |.@ @ @ @ @ @ @ @ @ @ $.2 . l S 1.. . . . . . . . . . . . . . . . . . . . . . . . . ",
". . . . . . . . . . . . . . . . . . . . . . . . . . . . . . . . . . . . . 2.@ @ @ @ @ @ @ @ @ @ @ 3.. .  .$.2 . . . . . . . . . . . . . . . . . . . . . . . . . ",
". . . . . . . . . . . . . . . . . . . . . . . . . . . . . . . . . . . . } z @ @ @ @ @ @ @ @ @ @ ,.. . 4.@ 3.. . . . . . . . . . . . . . . . . . . . . . . . . . ",
". . . . . . . . . . . . . . . . . . . . . . . . . . . . . . . . . . . 5 ! @ @ @ @ @ @ @ @ @ @ 5.].. l & 6.. . . . . . . . . . . . . . . . . . . . . . . . . . . ",
". . . . . . . . . . . . . . . . . . . . . . . . . . . . . . . . . . . 7.@ @ @ @ @ @ @ @ @ @ @ !.. . g D ].. . . . . . . . . . . . . . . . . . . . . . . . . . . ",
". . . . . . . . . . . . . . . . . . . . . . . . . . . . . . . . . . =.y @ @ @ @ @ @ @ @ @ @ ;.. . [ @ #.. . . . . . . . . . . . . . . . . . . . . . . . . . . . ",
". . . . . . . . . . . . . . . . . . . . . . . . . . . . . . . . . 5 8.@ @ @ @ @ @ @ @ @ @ D ].. $ j R . . . . . . . . . . . . . . . . . . . . . . . . . . . . . ",
". . . . . . . . . . . . . . . . . . . . . . . . . . . . . . . . . 9.@ @ @ @ @ @ @ @ @ @ @ #.. . 0.E 6 . . . . . . . . . . . . . . . . . . . . . . . . . . . . . ",
". . . . . . . . . . . . . . . . . . . . . . . . . . . . . . . . 8 A @ @ @ @ @ @ @ @ @ @ a.. . * @ ^.. . . . . . . . . . . . . . . . . . . . . . . . . . . . . . ",
". . . . . . . . . . . . . . . . . . . . . . . . . . . . . . . 4 &.@ @ @ @ @ @ @ @ @ @ E 6 . 3 U G . . . . . . . . . . . . . . . . . . . . . . . . . . . . . . . ",
". . . . . . . . . . . . . . . . . . . . . . . . . . . . . . . *.@ @ @ @ @ @ @ @ @ @ @ ^.. . ..m W . . . . . . . . . . . . . . . . . . . . . . . . . . . . . . . ",
". . . . . . . . . . . . . . . . . . . . . . . . . . . . . . b.( @ @ @ @ @ @ @ @ @ @ s . . @.@ c.. . . . . . . . . . . . . . . . . . . . . . . . . . . . . . . . ",
". . . . . . . . . . . . . . . . . . . . . . . . . . . . . 4 d.@ @ @ @ @ @ @ @ @ @ X W . 3 k e.. . . . . . . . . . . . . . . . . . . . . . . . . . . . . . . . . ",
". . . . . . . . . . . . . . . . . . . . . . . . . . . . . : @ @ @ @ @ @ @ @ @ @ @ < . . = C { . . . . . . . . . . . . . . . . . . . . . . . . . . . . . . . . . ",
". . . . . . . . . . . . . . . . . . . . . . . . . . . . f.x @ @ @ @ @ @ @ @ @ @ G . . I , > . . . . . . . . . . . . . . . . . . . . . . . . . . . . . . . . . . ",
". . . . . . . . . . . . . . . . . . . . . . . . . . . ) _ @ @ @ @ @ @ @ @ @ @ m W . b u g.. . . . . . . . . . . . . . . . . . . . . . . . . . . . . . . . . . . ",
". . . . . . . . . . . . . . . . . . . . . . . . . . . T @ @ @ @ @ @ @ @ @ @ @ c.. . ^ h.1 . . . . . . . . . . . . . . . . . . . . . . . . . . . . . . . . . . . ",
". . . . . . . . . . . . . . . . . . . . . . . . . . | i.@ @ @ @ @ @ @ @ @ @ p . . j., r . . . . . . . . . . . . . . . . . . . . . . . . . . . . . . . . . . . . ",
". . . . . . . . . . . . . . . . . . . . . . . . . ) d @ @ @ @ @ @ @ @ @ @ C { . % <.k.. . . . . . . . . . . . . . . . . . . . . . . . . . . . . . . . . . . . . ",
". . . . . . . . . . . . . . . . . . . . . . . . . l.@ @ @ @ @ @ @ @ @ @ @ h . . m.w N . . . . . . . . . . . . . . . . . . . . . . . . . . . . . . . . . . . . . ",
". . . . . . . . . . . . . . . . . . . . . . . . n.o.@ @ @ @ @ @ @ @ @ @ 0 . . -.z p.. . . . . . . . . . . . . . . . . . . . . . . . . . . . . . . . . . . . . . ",
". . . . . . . . . . . . . . . . . . . . . . . ) Q @ @ @ @ @ @ @ @ @ @ ] 1 . % q.r.. . . . . . . . . . . . . . . . . . . . . . . . . . . . . . . . . . . . . . . ",
". . . . . . . . . . . . . . . . . . . . . . . s.@ @ @ @ @ @ @ @ @ @ @ > . . t.B q . . . . . . . . . . . . . . . . . . . . . . . . . . . . . . . . . . . . . . . ",
". . . . . . . . . . . . . . . . . . . . . . q B @ @ @ @ @ @ @ @ @ @ g.. . ' z s.. . . . . . . . . . . . . . . . . . . . . . . . . . . . . . . . . . . . . . . . ",
". . . . . . . . . . . . . . . . . . . . . . r.@ @ @ @ @ @ @ @ @ @ ] 1 . % u.Q ) . . . . . . . . . . . . . . . . . . . . . . . . . . . . . . . . . . . . . . . . ",
". . . . . . . . . . . . . . . . . . . . . p.@ @ @ @ @ @ @ @ @ @ @ r . . O o.n.. . . . . . . . . . . . . . . . . . % . . . . . . . . . . . . . . . . . . . . . . ",
". . . . . . . . . . . . . . . . . . . . N w @ @ @ @ @ @ @ @ @ @ '.. . v.y M . . . . . . . . . . . . . . . . . . 4 s . . . w.f.. . . . . . . . . . . . . . . . . ",
". . . . . . . . . . . . . . . . . . . . k.@ @ @ @ @ @ @ @ @ @ h.7 . 5 x.d ) . . . . . . . . . . . . . . . . . . c.@ j.. . s.5.5 . . . . . . . . . . . . . . . . ",
". . . . . . . . . . . . . . . . . . . r @ @ @ @ @ @ @ @ @ @ @ y.. . z.i.| . . . . . . . . . . . . . . . . . . 4 A.@ ).. . $ B 3.. . . . . . . . . . . . . . . . ",
". . . . . . . . . . . . . . . . . . 1 h.@ @ @ @ @ @ @ @ @ @ k.. . =.A T . . . . . . . . . . . . . . . . . . . s.@ @ ( W . . Y B.. . . . . . . . . . . . . . . . ",
". . . . . . . . . . . . . . . . . . g.@ @ @ @ @ @ @ @ @ @ w 7 . 5 C._ ) . . . . . . . . . . . . . . . . . . q Z @ @ @ 9.. . 8 z q . . . . . . . . . . . . . . . ",
". . . . . . . . . . . . . . . . . > @ @ @ @ @ @ @ @ @ @ @ w.. . D.x f.. . . . . . . . . . . . . . . . . . . r.@ @ @ @ D b . . a.L . . . . . . . . . . . . . . . ",
". . . . . . . . . . . . . . . . { C @ @ @ @ @ @ @ @ @ @ E.. . b.A : . . . . . . . . . . . . . . . . . . . F.@ @ @ @ @ @ s.. . b.( q . . . . . . . . . . . . . . ",
". . . . . . . . . . . . . . . . p @ @ @ @ @ @ @ @ @ @ Z N . 4 G.+.4 . . . . . . . . . . . . . . . . . . ^., @ @ @ @ @ @ & % . . J  .. . . . . . . . . . . . . . ",
". . . . . . . . . . . . . . . c.@ @ @ @ @ @ @ @ @ @ @ p.. . H.( I.. . . . . . . . . . . . . . . . . 4 9.@ @ @ @ @ @ @ @ @ J.. . | x =.. . . . . . . . . . . . . ",
". . . . . . . . . . . . . . W m @ @ @ @ @ @ @ @ @ @ o . . I.( H.. . . . . . . . . . . . . . . . . I &.@ @ @ @ @ @ @ @ @ @ $.3 . . K.+.) . . . . . . . . . . . . ",
". . . . . . . . . . . . . . s @ @ @ @ @ @ @ @ @ @ Z q . 4 +.G.4 . . . . . . . . . . . . . . b e Q @ @ @ @ @ @ @ @ @ @ @ @ @ 7.. . % k s.. . . . . . . . . . . . ",
". . . . . . . . . . . . . ^.@ @ @ @ @ @ @ @ @ @ @ s.. . : A 8 . . . . 4 % l ].6 6 N 8 ~.: L.Z @ @ @ @ @ @ @ @ @ @ @ @ @ @ @ i.q . . F w 1 . . . . . . . . . . . ",
". . . . . . . . . . . . 6 E @ @ @ @ @ @ @ @ @ @ @ @ @ @ @ @ @ @ @ @ @ @ @ @ @ @ @ @ @ @ @ @ @ @ @ @ @ @ @ @ @ @ @ @ @ @ @ @ @ g.. . . ).M.4 . . . . . . . . . . ",
". . . . . . . . . . . . N.@ @ @ @ @ @ @ @ @ @ @ @ @ @ @ @ @ @ @ @ @ @ @ @ @ @ @ @ @ @ @ @ @ @ @ @ @ @ @ @ @ @ @ @ @ @ @ @ @ @ @ h . . 3 O.7.. . . . . . . . . . ",
". . . . . . . . . . . #.@ @ @ @ @ @ @ @ @ @ @ @ @ @ @ @ @ @ @ @ @ @ @ @ @ @ @ @ @ @ @ @ @ @ @ @ @ @ @ @ @ @ @ @ @ @ @ @ @ @ @ @ ] N . . 8 B * . . . . . . . . . ",
". . . . . . . . . . ].5.@ @ @ @ @ @ @ @ @ @ @ @ @ @ @ @ @ @ @ @ @ @ @ @ @ @ @ @ @ @ @ @ @ @ @ @ @ @ @ @ @ @ @ @ @ @ @ @ @ @ @ @ @ P.% . . w.5.7 . . . . . . . . ",
". . . . . . . . . . . . . . . . . . . . . . . . . . . . . . . . . . . . . . . . . . . . . . . . . . . . . . . . . . . . . . . . . . . . . J.C 6 . . . . . . . . ",
". . . . . . . . . . . . . . . . . . . . . . . . . . . . . . . . . . . . . . . . . . . . . . . . . . . . . . . . . . . . . . . . . . . . 2 m p.. . . . . . . . . ",
". . . . . . . . . . . . . . . . . . . . . . . . . . . . . . . . . . . . . . . . . . . . . . . . . . . . . . . . . . . . . . . . . . . . = d.) . . . . . . . . . ",
". . . . . . . . . . . . ^.z @ @ @ @ @ @ @ @ @ @ @ @ @ @ @ @ @ @ @ @ @ @ @ @ @ @ @ @ @ @ @ @ @ @ @ @ @ @ @ @ @ @ @ @ @ @ @ @ @ @ @ @ @ @ , } . . . . . . . . . . ",
". . . . . . . . . . . . . . . . . . . . . . . . . . . . . . . . . . . . . . . . . . . . . . . . . . . . . . . . . . . . . . . . . . . . . . . . . . . . . . . . ",
". . . . . . . . . . . . . . . . . . . . . . . . . . . . . . . . . . . . . . . . . . . . . . . . . . . . . . . . . . . . . . . . . . . . . . . . . . . . . . . . ",
". . . . . . . . . . . . . . . . . . . . . . . . . . . . . . . . . . . . . . . . . . . . . . . . . . . . . . . . . . . . . . . . . . . . . . . . . . . . . . . . ",
". . . . . . . . . . . . . . . . . . . . . . . . . . . . . . . . . . . . . . . . . . . . . . . . . . . . . . . . . . . . . . . . . . . . . . . . . . . . . . . . ",
". . . . . . . . . . . . . . . . . . . . . . . . . . . . . . . . . . . . . . . . . . . . . . . . . . . . . . . . . . . . . . . . . . . . . . . . . . . . . . . . "};
