/* XPM */
static xpm_row_t const letterX_xpm[] = {
"80 80 177 2",
"  	c None",
". 	c #FF0000",
"+ 	c #F30000",
"@ 	c #8D0000",
"# 	c #000000",
"$ 	c #9E0000",
"% 	c #FC0000",
"& 	c #890000",
"* 	c #260000",
"= 	c #BB0000",
"- 	c #FD0000",
"; 	c #C20000",
"> 	c #2A0000",
", 	c #B30000",
"' 	c #DA0000",
") 	c #F60000",
"! 	c #F90000",
"~ 	c #7A0000",
"{ 	c #780000",
"] 	c #E90000",
"^ 	c #E80000",
"/ 	c #6D0000",
"( 	c #160000",
"_ 	c #C60000",
": 	c #D00000",
"< 	c #D40000",
"[ 	c #6A0000",
"} 	c #BC0000",
"| 	c #FB0000",
"1 	c #A90000",
"2 	c #320000",
"3 	c #D60000",
"4 	c #CC0000",
"5 	c #F10000",
"6 	c #5C0000",
"7 	c #790000",
"8 	c #EA0000",
"9 	c #EC0000",
"0 	c #8A0000",
"a 	c #880000",
"b 	c #D70000",
"c 	c #4B0000",
"d 	c #E30000",
"e 	c #C80000",
"f 	c #380000",
"g 	c #DB0000",
"h 	c #BD0000",
"i 	c #FA0000",
"j 	c #B50000",
"k 	c #970000",
"l 	c #F00000",
"m 	c #C30000",
"n 	c #400000",
"o 	c #E10000",
"p 	c #E50000",
"q 	c #3B0000",
"r 	c #5D0000",
"s 	c #DC0000",
"t 	c #FE0000",
"u 	c #CF0000",
"v 	c #E20000",
"w 	c #D10000",
"x 	c #BE0000",
"y 	c #EE0000",
"z 	c #8F0000",
"A 	c #8E0000",
"B 	c #550000",
"C 	c #F80000",
"D 	c #EF0000",
"E 	c #350000",
"F 	c #840000",
"G 	c #1C0000",
"H 	c #DF0000",
"I 	c #B90000",
"J 	c #9A0000",
"K 	c #AF0000",
"L 	c #BF0000",
"M 	c #B20000",
"N 	c #630000",
"O 	c #DD0000",
"P 	c #700000",
"Q 	c #940000",
"R 	c #490000",
"S 	c #830000",
"T 	c #D90000",
"U 	c #420000",
"V 	c #6C0000",
"W 	c #7D0000",
"X 	c #930000",
"Y 	c #CE0000",
"Z 	c #A40000",
"` 	c #650000",
" .	c #760000",
"..	c #EB0000",
"+.	c #AC0000",
"@.	c #600000",
"#.	c #F70000",
"$.	c #950000",
"%.	c #510000",
"&.	c #4D0000",
"*.	c #BA0000",
"=.	c #D20000",
"-.	c #D30000",
";.	c #E60000",
">.	c #CD0000",
",.	c #2E0000",
"'.	c #ED0000",
").	c #3D0000",
"!.	c #C70000",
"~.	c #E70000",
"{.	c #850000",
"].	c #820000",
"^.	c #710000",
"/.	c #9C0000",
"(.	c #7F0000",
"_.	c #220000",
":.	c #D80000",
"<.	c #660000",
"[.	c #530000",
"}.	c #A20000",
"|.	c #DE0000",
"1.	c #CB0000",
"2.	c #960000",
"3.	c #E00000",
"4.	c #9D0000",
"5.	c #620000",
"6.	c #C10000",
"7.	c #980000",
"8.	c #A60000",
"9.	c #C40000",
"0.	c #0D0000",
"a.	c #990000",
"b.	c #920000",
"c.	c #F40000",
"d.	c #560000",
"e.	c #750000",
"f.	c #730000",
"g.	c #7C0000",
"h.	c #F20000",
"i.	c #C90000",
"j.	c #D50000",
"k.	c #A30000",
"l.	c #AD0000",
"m.	c #F50000",
"n.	c #5A0000",
"o.	c #470000",
"p.	c #900000",
"q.	c #810000",
"r.	c #C00000",
"s.	c #4F0000",
"t.	c #B70000",
"u.	c #AA0000",
"v.	c #9F0000",
"w.	c #860000",
"x.	c #6E0000",
"y.	c #A80000",
"z.	c #580000",
"A.	c #7E0000",
"B.	c #B40000",
"C.	c #B00000",
"D.	c #8B0000",
"E.	c #720000",
"F.	c #CA0000",
"G.	c #B60000",
"H.	c #A50000",
"I.	c #5F0000",
"J.	c #A70000",
"K.	c #800000",
"L.	c #9B0000",
"M.	c #E40000",
"N.	c #870000",
"O.	c #770000",
"P.	c #C50000",
"Q.	c #450000",
"R.	c #910000",
"S.	c #AB0000",
"T.	c #A00000",
". . . . . . . . . . . . . . . . . . . . . . . . . . . . . . . . . . . . . . . . . . . . . . . . . . . . . . . . . . . . . . . . . . . . . . . . . . . . . . . . ",
". . . . . . . . . . . . . . . . . . . . . . . . . . . . . . . . . . . . . . . . . . . . . . . . . . . . . . . . . . . . . . . . . . . . . . . . . . . . . . . . ",
". . . . . . . . . . . . . . . . . . . . . . . . . . . . . . . . . . . . . . . . . . . . . . . . . . . . . . . . . . . . . . . . . . . . . . . . . . . . . . . . ",
". . . . . . . . . . . . . . . . . . . . . . . . . . . . . . . . . . . . . . . . . . . . . . . . . . . . . . . . . . . . . . . . . . . . . . . . . . . . . . . . ",
". . . . . . . . . . . . . . . . . . . . . . . . . . . . . . . . . . . . . . . . . . . . . . . . . . . . . . . . . . . . . . . . . . . . . . . . . . . . . . . . ",
". . . . . . . . . . . . . . . . . . . . . . . . . . . . . . . . . . . . . . . . . . . . . . . . . . . . . . . . . . . . . . . . . . . . . . . . . . . . . . . . ",
". . . . . . . . . . + @ # # # # # # # # # # # # # # # # # # # # # # # $ % . . . . . . . . . . % & # # # # # # # # # # # # # # # # # # * = - . . . . . . . . . . ",
". . . . . . . . . . . . ; > # # # # # # # # # # # # # # # # # # # # , . . . ' ) . . . . . . . . ! ~ # # # # # # # # # # # # # # # # { ] . . . . . . . . . . . . ",
". . . . . . . . . . . . . ^ / # # # # # # # # # # # # # # # # # ( _ . . . : * < . . . . . . . . . ) [ # # # # # # # # # # # # # * } - . . . ! . . . . . . . . . ",
". . . . . . . . . . . . . . | 1 # # # # # # # # # # # # # # # 2 3 . . . 4 > < . . . . . . . . . . . 5 6 # # # # # # # # # # # 7 8 . . . 9 0 a . . . . . . . . . ",
". . . . . . . . . . . . . . . . b c # # # # # # # # # # # # c d . . . e f g . . . . . . . . . . . . . 9 c # # # # # # # # > h - . . i j * k l . . . . . . . . . ",
". . . . . . . . . . . . . . . . . + 0 # # # # # # # # # # > 9 . . . m n o . . . . . . . . . . . . . . . p q # # # # # # ~ 8 . . . 3 r [ s . . . . . . . . . . . ",
". . . . . . . . . . . . . . . . . . t h # # # # # # # # # # : . . u # v . . . . . . . . . . . . . . . . . w # # # # > x - . . y z f x % . . . . . . . . . . . . ",
". . . . . . . . . . . . . . . . . . . . A # # # # # # # # # B C . D E = . . . . . . . . . . . . . . . . - F # # # G H . . | I > J 5 . . . . . . . . . . . . . . ",
". . . . . . . . . . . . . . . . . . . . y > # # # # # # # # # K . . L 2 D . . . . . . . . . . . . . . . M # # # # ; . . o N / O . . . . . . . . . . . . . . . . ",
". . . . . . . . . . . . . . . . . . . . . I # # # # # # # # # G ] . - P Q . . . . . . . . . . . . . . 3 # # # # J . . l R M % . . . . . . . . . . . . . . . . . ",
". . . . . . . . . . . . . . . . . . . . . | N # # # # # # # # # S . . o # T . . . . . . . . . . . . y U # # # V ! . % W X . . . . . . . . . . . . . . . . . . . ",
". . . . . . . . . . . . . . . . . . . . . . ' # # # # # # # # # # Y . . Z ` | . . . . . . . . . . |  .# # # q ... . +.@.#.. . . . . . . . . . . . . . . . . . . ",
". . . . . . . . . . . . . . . . . . . . . . . $.# # # # # # # # # %.#.. ) &.*.. . . . . . . . . . Z # # # # =.. . -.> ;.. . . . . . . . . . . . . . . . . . . . ",
". . . . . . . . . . . . . . . . . . . . . . . l E # # # # # # # # # +.. . >.,.D . . . . . . . . 4 # # # # K . . '.).!.. . . . . . . . . . . . . . . . . . . . . ",
". . . . . . . . . . . . . . . . . . . . . . . . x # # # # # # # # # ( ~.. . {.Q . . . . . . . ^ 2 # # # ].- . i ^./.. . . . . . . . . . . . . . . . . . . . . . ",
". . . . . . . . . . . . . . . . . . . . . . . . % V # # # # # # # # # (.t . .._.:.. . . . . C <.# # # [.+ . . }.V ! . . . . . . . . . . . . . . . . . . . . . . ",
". . . . . . . . . . . . . . . . . . . . . . . . . |.# # # # # # # # # # 1.. . j N | . . . . 2.# # # G 3.. . 1.E 8 . . . . . . . . . . . . . . . . . . . . . . . ",
". . . . . . . . . . . . . . . . . . . . . . . . . . 4.# # # # # # # # # &.) . | 5.I . . . 6.# # # # ; . . ^ ,.Y . . . . . . . . . . . . . . . . . . . . . . . . ",
". . . . . . . . . . . . . . . . . . . . . . . . . . + ).# # # # # # # # # 1 . . ' ,.y . o G # # # 7.. . C <.8.. . . . . . . . . . . . . . . . . . . . . . . . . ",
". . . . . . . . . . . . . . . . . . . . . . . . . . . 9.# # # # # # # # # 0.;.. . a.b.c.d.# # # [ C . . 7.e.| . . . . . . . . . . . . . . . . . . . . . . . . . ",
". . . . . . . . . . . . . . . . . . . . . . . . . . . - f.# # # # # # # # # g.t . h.).` # # # f 8 . . m n y . . . . . . . . . . . . . . . . . . . . . . . . . . ",
". . . . . . . . . . . . . . . . . . . . . . . . . . . . v # # # # # # # # # # i.. . k # # # # =.. . d _.j.. . . . . . . . . . . . . . . . . . . . . . . . . . . ",
". . . . . . . . . . . . . . . . . . . . . . . . . . . . . k.# # # # # # # # # R ) -.# # # # l.. . m.n.K . . . . . . . . . . . . . . . . . . . . . . . . . . . . ",
". . . . . . . . . . . . . . . . . . . . . . . . . . . . . m.o.# # # # # # # # # p.q # # # q.% . t @ (.% . . . . . . . . . . . . . . . . . . . . . . . . . . . . ",
". . . . . . . . . . . . . . . . . . . . . . . . . . . . . . i.# # # # # # # # # # # # # %.h.. . *.c 5 . . . . . . . . . . . . . . . . . . . . . . . . . . . . . ",
". . . . . . . . . . . . . . . . . . . . . . . . . . . . . . t g.# # # # # # # # # # # G H . . O G g . . . . . . . . . . . . . . . . . . . . . . . . . . . . . . ",
". . . . . . . . . . . . . . . . . . . . . . . . . . . . . . . ;.( # # # # # # # # # # r.. . h.s.t.. . . . . . . . . . . . . . . . . . . . . . . . . . . . . . . ",
". . . . . . . . . . . . . . . . . . . . . . . . . . . . . . . . u.# # # # # # # # # _.+ . . Q / t . . . . . . . . . . . . . . . . . . . . . . . . . . . . . . . ",
". . . . . . . . . . . . . . . . . . . . . . . . . . . . . . . . #.s.# # # # # # # # # v.. . w ( ~.. . . . . . . . . . . . . . . . . . . . . . . . . . . . . . . ",
". . . . . . . . . . . . . . . . . . . . . . . . . . . . . . . . . Y # # # # # # # # # # H . . w.(.t . . . . . . . . . . . . . . . . . . . . . . . . . . . . . . ",
". . . . . . . . . . . . . . . . . . . . . . . . . . . . . . . . . . S # # # # # # # # # x.% . 8 _.1.. . . . . . . . . . . . . . . . . . . . . . . . . . . . . . ",
". . . . . . . . . . . . . . . . . . . . . . . . . . . . . . . . . . ;.# # # # # # # # # # L . . M &.#.. . . . . . . . . . . . . . . . . . . . . . . . . . . . . ",
". . . . . . . . . . . . . . . . . . . . . . . . . . . . . . . . . . y.# # # # # # # # # # f l . ! z.u.. . . . . . . . . . . . . . . . . . . . . . . . . . . . . ",
". . . . . . . . . . . . . . . . . . . . . . . . . . . . . . . . . 1.# # # # # # # # # # # # $.. . =.( ;.. . . . . . . . . . . . . . . . . . . . . . . . . . . . ",
". . . . . . . . . . . . . . . . . . . . . . . . . . . . . . . . p > # # # # # # # # # # # # # T . . & A.t . . . . . . . . . . . . . . . . . . . . . . . . . . . ",
". . . . . . . . . . . . . . . . . . . . . . . . . . . . . . . m.6 # # # s.<.# # # # # # # # # N | . 9 * 1.. . . . . . . . . . . . . . . . . . . . . . . . . . . ",
". . . . . . . . . . . . . . . . . . . . . . . . . . . . . . - a # # # G H H # # # # # # # # # # t.. . B.c ) . . . . . . . . . . . . . . . . . . . . . . . . . . ",
". . . . . . . . . . . . . . . . . . . . . . . . . . . . . . C.# # # # ; . . z # # # # # # # # # > '.. i 6 1 . . . . . . . . . . . . . . . . . . . . . . . . . . ",
". . . . . . . . . . . . . . . . . . . . . . . . . . . . . =.# # # # /.. . o G * # # # # # # # # # D.. . j.( ;.. . . . . . . . . . . . . . . . . . . . . . . . . ",
". . . . . . . . . . . . . . . . . . . . . . . . . . . . 8 f # # # E.i . c.B 1 6.# # # # # # # # # # =.. . @ W t . . . . . . . . . . . . . . . . . . . . . . . . ",
". . . . . . . . . . . . . . . . . . . . . . . . . . . #.<.# # # U y . - {.g.% - E.# # # # # # # # # d.! . '.* F.. . . . . . . . . . . . . . . . . . . . . . . . ",
". . . . . . . . . . . . . . . . . . . . . . . . . . t b.# # # 0.T . . M c l . . v 0.# # # # # # # # # K . . G.c ) . . . . . . . . . . . . . . . . . . . . . . . ",
". . . . . . . . . . . . . . . . . . . . . . . . . . I # # # # I . . 3 ( s . . . . H.# # # # # # # # # G ^ . | I.J.. . . . . . . . . . . . . . . . . . . . . . . ",
". . . . . . . . . . . . . . . . . . . . . . . . . :.0.# # # b.t . y n = . . . . . ) c # # # # # # # # # K.. . 3 0.p . . . . . . . . . . . . . . . . . . . . . . ",
". . . . . . . . . . . . . . . . . . . . . . . . y U # # # <.#.. | f.p.t . . . . . . 4 # # # # # # # # # # 1.. . p.g.t . . . . . . . . . . . . . . . . . . . . . ",
". . . . . . . . . . . . . . . . . . . . . . . i ^.# # # f 8 . . }.5.) . . . . . . . . ].# # # # # # # # # c ) . y ,.F.. . . . . . . . . . . . . . . . . . . . . ",
". . . . . . . . . . . . . . . . . . . . . . . L.# # # # =.. . F.,.;.. . . . . . . . . ] G # # # # # # # # # J.. . I R ) . . . . . . . . . . . . . . . . . . . . ",
". . . . . . . . . . . . . . . . . . . . . . 6.# # # # C.. . ;.> 1.. . . . . . . . . . . M # # # # # # # # # 0.M.. | 5.J.. . . . . . . . . . . . . . . . . . . . ",
". . . . . . . . . . . . . . . . . . . . . |.G # # # N.- . ) @.k.. . . . . . . . . . . . ! 6 # # # # # # # # # O.t . :.0.p . . . . . . . . . . . . . . . . . . . ",
". . . . . . . . . . . . . . . . . . . . 5 &.# # # 6 m.. t p.O.| . . . . . . . . . . . . . 3 # # # # # # # # # # P.. . X ~ t . . . . . . . . . . . . . . . . . . ",
". . . . . . . . . . . . . . . . . . . | ~ # # # > p . . = Q.D . . . . . . . . . . . . . . . R.# # # # # # # # # n + . D 2 i.. . . . . . . . . . . . . . . . . . ",
". . . . . . . . . . . . . . . . . . . Z # # # # 1.. . O G :.. . . . . . . . . . . . . . . . D 2 # # # # # # # # # 4.. . = R ) . . . . . . . . . . . . . . . . . ",
". . . . . . . . . . . . . . . . . . e # # # # J.. . 5 &.G.. . . . . . . . . . . . . . . . . . x # # # # # # # # # # |.. | <.8.. . . . . . . . . . . . . . . . . ",
". . . . . . . . . . . . . . . . . M.* # # # W % . % A.D.t . . . . . . . . . . . . . . . . . . % / # # # # # # # # # V % . ' 0.M.. . . . . . . . . . . . . . . . ",
". . . . . . . . . . . . . . . . c.z.# # # %.h.. . S.6 m.. . . . . . . . . . . . . . . . . . . . H # # # # # # # # # # h . . $.7 t . . . . . . . . . . . . . . . ",
". . . . . . . . . . . . . . . C F # # # # 3 . . w * M.. . . . . . . . . . . . . . . . . . . . . . T.# # # # # # # # # E l . l E 9.. . . . . . . . . . . . . . . ",
". . . . . . . . . . . . . . :.n.# # # # # w.- ! ).M . . . . . . . . . . . . . . . . . . . . . . . c.Q.# # # # # # # # # @ | . >.G F.. . . . . . . . . . . . . . ",
". . . . . . . . . . . . c.L.# # # # # # # # u.. G.c l . . . . . . . . . . . . . . . . . . . . . . ' ,.# # # # # # # # # # O.y . >.( 9.. . . . . . . . . . . . . ",
". . . . . . . . . . . >.o.# # # # # # # # # # F.- S g.% . . . . . . . . . . . . . . . . . . . . b * # # # # # # # # # # # # n j.. : ( = . . . . . . . . . . . . ",
". . . . . . . . . y 0 # # # # # # # # # # # # * v 5 R u.. . . . . . . . . . . . . . . . . . . -._.# # # # # # # # # # # # # # # l.% =.G , . . . . . . . . . . . ",
". . . . . . . - 6.E # # # # # # # # # # # # # # [.h.:.# w . . . . . . . . . . . . . . . . . : ( # # # # # # # # # # # # # # # # # g.D j._.u.. . . . . . . . . . ",
". . . . . . ^ 7 # # # # # # # # # # # # # # # # # ~ | C.f 8 . . . . . . . . . . . . . . . 1.0.# # # # # # # # # # # # # # # # # # # Q.b :.* }.t . . . . . . . . ",
". . . . | B.G # # # # # # # # # # # # # # # # # # # v.% W [ ! . . . . . . . . . . . . . !.0.# # # # # # # # # # # # # # # # # # # # # # C.b ,.J % . . . . . . . ",
". . . . . . . . . . . . . . . . . . . . . . . . . . . . D U L.. . . . . . . . . . . . . . . . . . . . . . . . . . . . . . . . . . . . . . . O 2 R.| . . . . . . ",
". . . . . . . . . . . . . . . . . . . . . . . . . . . . . j.# 9.. . . . . . . . . . . . . . . . . . . . . . . . . . . . . . . . . . . . . . . H f a ! . . . . . ",
". . . . . . . . . . . . . . . . . . . . . . . . . . . . . . S._.d . . . . . . . . . . . . . . . . . . . . . . . . . . . . . . . . . . . . . . . o ).(.#.. . . . ",
". . . . . . X # # # # # # # # # # # # # # # # # # # # # # # # # n.m.. . . . . . . . . . . j.0.# # # # # # # # # # # # # # # # # # # # # # # # # # # #  .m.. . . ",
". . . . . . . . . . . . . . . . . . . . . . . . . . . . . . . . . . . . . . . . . . . . . . . . . . . . . . . . . . . . . . . . . . . . . . . . . . . . . . . . ",
". . . . . . . . . . . . . . . . . . . . . . . . . . . . . . . . . . . . . . . . . . . . . . . . . . . . . . . . . . . . . . . . . . . . . . . . . . . . . . . . ",
". . . . . . . . . . . . . . . . . . . . . . . . . . . . . . . . . . . . . . . . . . . . . . . . . . . . . . . . . . . . . . . . . . . . . . . . . . . . . . . . ",
". . . . . . . . . . . . . . . . . . . . . . . . . . . . . . . . . . . . . . . . . . . . . . . . . . . . . . . . . . . . . . . . . . . . . . . . . . . . . . . . ",
". . . . . . . . . . . . . . . . . . . . . . . . . . . . . . . . . . . . . . . . . . . . . . . . . . . . . . . . . . . . . . . . . . . . . . . . . . . . . . . . ",
". . . . . . . . . . . . . . . . . . . . . . . . . . . . . . . . . . . . . . . . . . . . . . . . . . . . . . . . . . . . . . . . . . . . . . . . . . . . . . . . ",
". . . . . . . . . . . . . . . . . . . . . . . . . . . . . . . . . . . . . . . . . . . . . . . . . . . . . . . . . . . . . . . . . . . . . . . . . . . . . . . . "};
