/* XPM */
static xpm_row_t const letterF_xpm[] = {
"80 80 137 2",
"  	c None",
". 	c #FF0000",
"+ 	c #CB0000",
"@ 	c #160000",
"# 	c #000000",
"$ 	c #CC0000",
"% 	c #D30000",
"& 	c #220000",
"* 	c #9D0000",
"= 	c #DA0000",
"- 	c #320000",
"; 	c #5F0000",
"> 	c #F80000",
", 	c #E00000",
"' 	c #3D0000",
") 	c #470000",
"! 	c #3B0000",
"~ 	c #260000",
"{ 	c #1C0000",
"] 	c #0D0000",
"^ 	c #F90000",
"/ 	c #8F0000",
"( 	c #EB0000",
"_ 	c #E60000",
": 	c #4B0000",
"< 	c #C50000",
"[ 	c #FD0000",
"} 	c #FB0000",
"| 	c #F50000",
"1 	c #ED0000",
"2 	c #DF0000",
"3 	c #AD0000",
"4 	c #760000",
"5 	c #8E0000",
"6 	c #660000",
"7 	c #F70000",
"8 	c #560000",
"9 	c #F00000",
"0 	c #B40000",
"a 	c #350000",
"b 	c #5A0000",
"c 	c #AA0000",
"d 	c #E40000",
"e 	c #C00000",
"f 	c #AB0000",
"g 	c #930000",
"h 	c #730000",
"i 	c #2E0000",
"j 	c #7C0000",
"k 	c #9B0000",
"l 	c #C10000",
"m 	c #EE0000",
"n 	c #750000",
"o 	c #D00000",
"p 	c #CD0000",
"q 	c #D60000",
"r 	c #850000",
"s 	c #BD0000",
"t 	c #DE0000",
"u 	c #F30000",
"v 	c #FC0000",
"w 	c #EF0000",
"x 	c #D50000",
"y 	c #920000",
"z 	c #720000",
"A 	c #780000",
"B 	c #710000",
"C 	c #FE0000",
"D 	c #A10000",
"E 	c #FA0000",
"F 	c #C80000",
"G 	c #800000",
"H 	c #E70000",
"I 	c #F40000",
"J 	c #6D0000",
"K 	c #A60000",
"L 	c #E20000",
"M 	c #5C0000",
"N 	c #BC0000",
"O 	c #E50000",
"P 	c #C70000",
"Q 	c #F60000",
"R 	c #BE0000",
"S 	c #B00000",
"T 	c #F10000",
"U 	c #530000",
"V 	c #2A0000",
"W 	c #580000",
"X 	c #9E0000",
"Y 	c #650000",
"Z 	c #700000",
"` 	c #D10000",
" .	c #B90000",
"..	c #990000",
"+.	c #B20000",
"@.	c #770000",
"#.	c #980000",
"$.	c #9F0000",
"%.	c #A50000",
"&.	c #AC0000",
"*.	c #B80000",
"=.	c #CA0000",
"-.	c #9C0000",
";.	c #E90000",
">.	c #490000",
",.	c #8D0000",
"'.	c #EA0000",
").	c #810000",
"!.	c #E80000",
"~.	c #790000",
"{.	c #6E0000",
"].	c #AF0000",
"^.	c #550000",
"/.	c #8A0000",
"(.	c #830000",
"_.	c #7E0000",
":.	c #880000",
"<.	c #960000",
"[.	c #450000",
"}.	c #DB0000",
"|.	c #820000",
"1.	c #840000",
"2.	c #BB0000",
"3.	c #A40000",
"4.	c #DC0000",
"5.	c #F20000",
"6.	c #7D0000",
"7.	c #DD0000",
"8.	c #C60000",
"9.	c #D70000",
"0.	c #E10000",
"a.	c #510000",
"b.	c #380000",
"c.	c #A30000",
"d.	c #8B0000",
"e.	c #BF0000",
"f.	c #CE0000",
". . . . . . . . . . . . . . . . . . . . . . . . . . . . . . . . . . . . . . . . . . . . . . . . . . . . . . . . . . . . . . . . . . . . . . . . . . . . . . . . ",
". . . . . . . . . . . . . . . . . . . . . . . . . . . . . . . . . . . . . . . . . . . . . . . . . . . . . . . . . . . . . . . . . . . . . . . . . . . . . . . . ",
". . . . . . . . . . . . . . . . . . . . . . . . . . . . . . . . . . . . . . . . . . . . . . . . . . . . . . . . . . . . . . . . . . . . . . . . . . . . . . . . ",
". . . . . . . . . . . . . . . . . . . . . . . . . . . . . . . . . . . . . . . . . . . . . . . . . . . . . . . . . . . . . . . . . . . . . . . . . . . . . . . . ",
". . . . . . . . . . . . . . . . . . . . . . . . . . . . . . . . . . . . . . . . . . . . . . . . . . . . . . . . . . . . . . . . . . . . . . . . . . . . . . . . ",
". . . . . . . . . . . . . . . . . . . . . . . . . . . . . . . . . . . . . . . . . . . . . . . . . . . . . . . . . . . . . . . . . . . . . . . . . . . . . . . . ",
". . . . . . . . . . . . . . . . . . . . . . . . . . . . . . . . . . . . . . . . . . . . . . . . . . . . . . . . . . . . . . . . . . . . . . . . . . . . . . . . ",
". . . . . . . . . . . . . . . . + @ # # # # # # # # # # # # # # # # # # # # # # # # # # # # # # # # # # # # # # # # # # # # # # # # $ . . . . . . . . . . . . . ",
". . . . . . . . . . . . . . . . . % & # # # # # # # # # # # # # # # # # # # # # # # # # # # # # # # # # # # # # # # # # # # # # # * . . . . . . . . . . . . . . ",
". . . . . . . . . . . . . . . . . . = - # # # # # # # # # # # # # # # # # # # # # # # # # # # # # # # # # # # # # # # # # # # # ; > . . . . . . . . . . . . . . ",
". . . . . . . . . . . . . . . . . . . , ' # # # # # # # # # # # ' ) ! - ~ { # # # # # # # # # # # # # # # # # # # # # # # # # ] , . . . ^ / ( . . . . . . . . . ",
". . . . . . . . . . . . . . . . . . . . _ : # # # # # # # # # # < . . . . . . . . . [ } | 1 2 + 3 4 # # # # # # # # # # # # # 3 . . . [ 5 6 7 . . . . . . . . . ",
". . . . . . . . . . . . . . . . . . . . . ( 8 # # # # # # # # # < . . . . . . . . . . . . . . . . . 9 0 a # # # # # # # # # b ^ . . . c ' ( . . . . . . . . . . ",
". . . . . . . . . . . . . . . . . . . . . . % # # # # # # # # # < . . d e f g h b ) i { ' 8 j k l d . . m n # # # # # # # # o . . . p # % . . . . . . . . . . . ",
". . . . . . . . . . . . . . . . . . . . . . q # # # # # # # # # < . . c { r s t u v [ } > w _ x s y z l } > A # # # # # # B C . . ( - c . . . . . . . . . . . . ",
". . . . . . . . . . . . . . . . . . . . . . q # # # # # # # # # < . . c D . . . . . . . . . . . . . E F G H I 8 # # # # # o . . v n J } . . . . . . . . . . . . ",
". . . . . . . . . . . . . . . . . . . . . . q # # # # # # # # # < . . c D . . . . . . . . . . . . . . . > K L , ] # # # M [ . . N { O . . . . . . . . . . . . . ",
". . . . . . . . . . . . . . . . . . . . . . q # # # # # # # # # < . . c D . . . . . . . . . . . . . . . . . P Q 3 # # # R . . m i S . . . . . . . . . . . . . . ",
". . . . . . . . . . . . . . . . . . . . . . q # # # # # # # # # < . . c D . . . . . . . . . . . . . . . . . . T > U # V Q . . k W ^ . . . . . . . . . . . . . . ",
". . . . . . . . . . . . . . . . . . . . . . q # # # # # # # # # < . . c D . . . . . . . . . . . . . . . . . . . . F # X . . H # p . . . . . . . . . . . . . . . ",
". . . . . . . . . . . . . . . . . . . . . . q # # # # # # # # # < . . c D . . . . . . . . . . . . . . . . . . . . [ Y 2 . . k Z C . . . . . . . . . . . . . . . ",
". . . . . . . . . . . . . . . . . . . . . . q # # # # # # # # # < . . c D . . . . . . . . . . . . . . . . . . . . . t . . T { ` . . . . . . . . . . . . . . . . ",
". . . . . . . . . . . . . . . . . . . . . . q # # # # # # # # # < . . c D . . . . . . . . . . . . . . . . . . . . . . . . R M [ . . . . . . . . . . . . . . . . ",
". . . . . . . . . . . . . . . . . . . . . . q # # # # # # # # # < . . c D . . . . . . . . . . . . . . . . . . . . . . . . B  .. . . . . . . . . . . . . . . . . ",
". . . . . . . . . . . . . . . . . . . . . . q # # # # # # # # # < . . c D . . . . . . . . . . . . . . . . . . . . . . . T # m . . . . . . . . . . . . . . . . . ",
". . . . . . . . . . . . . . . . . . . . . . q # # # # # # # # # < . . c D . . . . . . . . . . . . . . . . . . . . . . . w ... . . . . . . . . . . . . . . . . . ",
". . . . . . . . . . . . . . . . . . . . . . q # # # # # # # # # < . . c D . . . . . . . . . . . . . } +.. . . . . . . . . . . . . . . . . . . . . . . . . . . . ",
". . . . . . . . . . . . . . . . . . . . . . q # # # # # # # # # < . . c D . . . . . . . . . . . . v y @.. . y ( . . . . . . . . . . . . . . . . . . . . . . . . ",
". . . . . . . . . . . . . . . . . . . . . . q # # # # # # # # # < . . c D . . . . . . . . . . . [ #.# @.. . M p . . . . . . . . . . . . . . . . . . . . . . . . ",
". . . . . . . . . . . . . . . . . . . . . . q # # # # # # # # # < . . c D . . . . . . . . . . C $.# # @.. . M p . . . . . . . . . . . . . . . . . . . . . . . . ",
". . . . . . . . . . . . . . . . . . . . . . q # # # # # # # # # < . . c D . . . . . . . . . . %.# # # @.. . M p . . . . . . . . . . . . . . . . . . . . . . . . ",
". . . . . . . . . . . . . . . . . . . . . . q # # # # # # # # # < . . c D . . . . . . . . . &.# # # # @.. . M p . . . . . . . . . . . . . . . . . . . . . . . . ",
". . . . . . . . . . . . . . . . . . . . . . q # # # # # # # # # < . . c D . . . . . . . . +.# # # # # @.. . M p . . . . . . . . . . . . . . . . . . . . . . . . ",
". . . . . . . . . . . . . . . . . . . . . . q # # # # # # # # # < . . c D . . . . . . . *.# # # # # # @.. . M p . . . . . . . . . . . . . . . . . . . . . . . . ",
". . . . . . . . . . . . . . . . . . Q =.-.J i # # # # # # # # # # # # # # # # # # # # # # # # # # # # @.. . M p . . . . . . . . . . . . . . . . . . . . . . . . ",
". . . . . . . . . . . . . . . . 7 3 i # # # # # # # # # # # # # # # # # # # # # # # # # # # # # # # # @.. . M p . . . . . . . . . . . . . . . . . . . . . . . . ",
". . . . . . . . . . . . . . . ;.; # # # # # # # # # # # # # # # # # # # # # # # # # # # # # # # # # # @.. . M p . . . . . . . . . . . . . . . . . . . . . . . . ",
". . . . . . . . . . . . . . 1 >.# # # # # # # # # # # # # # # # # # # # # # # # # # # # # # # # # # # @.. . M p . . . . . . . . . . . . . . . . . . . . . . . . ",
". . . . . . . . . . . . . [ 4 # @ ,.+ '.Q . q # # # # # # # # # < . . . . . . . . . . Q A # # # # # # @.. . M p . . . . . . . . . . . . . . . . . . . . . . . . ",
". . . . . . . . . . . . . =.# ).!.. . . . . q # # # # # # # # # < . . . . . . . . . . . 7 ~.# # # # # @.. . M p . . . . . . . . . . . . . . . . . . . . . . . . ",
". . . . . . . . . . . . . {.].. . . C d s c ).# # # # # # # # # < . . . . . . . . . . . . 7 j # # # # @.. . M p . . . . . . . . . . . . . . . . . . . . . . . . ",
". . . . . . . . . . . . . = . . C $ b # ^./.(.# # # # # # # # # < . . c # # # # # # # # # _._ _.# # # @.. . M p . . . . . . . . . . . . . . . . . . . . . . . . ",
". . . . . . . . . . . . . . . > :.# <.d . . q # # # # # # # # # < . . c D . . . . . . . . . . > G # # @.. . M p . . . . . . . . . . . . . . . . . . . . . . . . ",
". . . . . . . . . . . . . . . c [.}.. . . . q # # # # # # # # # < . . c D . . . . . . . . . . . ^ |.# @.. . M p . . . . . . . . . . . . . . . . . . . . . . . . ",
". . . . . . . . . . . . . . . > 1 . . . . . q # # # # # # # # # < . . c D . . . . . . . . . . . . ^ 1.@.. . M p . . . . . . . . . . . . . . . . . . . . . . . . ",
". . . . . . . . . . . . . . . . . . . . . . q # # # # # # # # # < . . c D . . . . . . . . . . . . . E ].. . M p . . . . . . . . . . . . . . . . . . . . . . . . ",
". . . . . . . . . . . . . . . . . . . . . . q # # # # # # # # # < . . c D . . . . . . . . . . . . . . . . . M p . . . . . . . . . . . . . . . . . . . . . . . . ",
". . . . . . . . . . . . . . . . . . . . . . q # # # # # # # # # < . . c D . . . . . . . . . . . . . . . . . M p . . . . . . . . . . . . . . . . . . . . . . . . ",
". . . . . . . . . . . . . . . . . . . . . . q # # # # # # # # # < . . c D . . . . . . . . . . . . . . . . . }.t . . . . . . . . . . . . . . . . . . . . . . . . ",
". . . . . . . . . . . . . . . . . . . . . . q # # # # # # # # # < . . c D . . . . . . . . . . . . . . . . . . . . . . . . . . . . . . . . . . . . . . . . . . . ",
". . . . . . . . . . . . . . . . . . . . . . q # # # # # # # # # < . . c D . . . . . . . . . . . . . . . . . . . . . . . . . . . . . . . . . . . . . . . . . . . ",
". . . . . . . . . . . . . . . . . . . . . . q # # # # # # # # # < . . c D . . . . . . . . . . . . . . . . . . . . . . . . . . . . . . . . . . . . . . . . . . . ",
". . . . . . . . . . . . . . . . . . . . . . q # # # # # # # # # < . . c D . . . . . . . . . . . . . . . . . . . . . . . . . . . . . . . . . . . . . . . . . . . ",
". . . . . . . . . . . . . . . . . . . . . . q # # # # # # # # # < . . c D . . . . . . . . . . . . . . . . . . . . . . . . . . . . . . . . . . . . . . . . . . . ",
". . . . . . . . . . . . . . . . . . . . . . q # # # # # # # # # < . . c D . . . . . . . . . . . . . . . . . . . . . . . . . . . . . . . . . . . . . . . . . . . ",
". . . . . . . . . . . . . . . . . . . . . . q # # # # # # # # # < . . c D . . . . . . . . . . . . . . . . . . . . . . . . . . . . . . . . . . . . . . . . . . . ",
". . . . . . . . . . . . . . . . . . . . . . q # # # # # # # # # < . . c D . . . . . . . . . . . . . . . . . . . . . . . . . . . . . . . . . . . . . . . . . . . ",
". . . . . . . . . . . . . . . . . . . . . . q # # # # # # # # # < . . c D . . . . . . . . . . . . . . . . . . . . . . . . . . . . . . . . . . . . . . . . . . . ",
". . . . . . . . . . . . . . . . . . . . . . q # # # # # # # # # < . . c D . . . . . . . . . . . . . . . . . . . . . . . . . . . . . . . . . . . . . . . . . . . ",
". . . . . . . . . . . . . . . . . . . . . . q # # # # # # # # # < . . c D . . . . . . . . . . . . . . . . . . . . . . . . . . . . . . . . . . . . . . . . . . . ",
". . . . . . . . . . . . . . . . . . . . . . q # # # # # # # # # < . . c D . . . . . . . . . . . . . . . . . . . . . . . . . . . . . . . . . . . . . . . . . . . ",
". . . . . . . . . . . . . . . . . . . . . . q # # # # # # # # # < . . c D . . . . . . . . . . . . . . . . . . . . . . . . . . . . . . . . . . . . . . . . . . . ",
". . . . . . . . . . . . . . . . . . . . . . =.# # # # # # # # # 2.. . c D . . . . . . . . . . . . . . . . . . . . . . . . . . . . . . . . . . . . . . . . . . . ",
". . . . . . . . . . . . . . . . . . . . . P & # # # # # # # # # ~ = . c r . . . . . . . . . . . . . . . . . . . . . . . . . . . . . . . . . . . . . . . . . . . ",
". . . . . . . . . . . . . . . . . . . } 3.# # # # # # # # # # # # V 4.L & 2.. . . . . . . . . . . . . . . . . . . . . . . . . . . . . . . . . . . . . . . . . . ",
". . . . . . . . . . . . . . . . . . 5.6.# # # # # # # # # # # # # # i 7.8.] 9.. . . . . . . . . . . . . . . . . . . . . . . . . . . . . . . . . . . . . . . . . ",
". . . . . . . . . . . . . . . . . 0.a.# # # # # # # # # # # # # # # # a 2 D ' '.. . . . . . . . . . . . . . . . . . . . . . . . . . . . . . . . . . . . . . . . ",
". . . . . . . . . . . . . . . . 8.& # # # # # # # # # # # # # # # # # # b.4.@.Y Q . . . . . . . . . . . . . . . . . . . . . . . . . . . . . . . . . . . . . . . ",
". . . . . . . . . . . . . . } c.# # # # # # # # # # # # # # # # # # # # # ! o : d.[ . . . . . . . . . . . . . . . . . . . . . . . . . . . . . . . . . . . . . . ",
". . . . . . . . . . . . . . . . . . . . . . . . . . . . . . . . . . . . . . . 7.@ ].. . . . . . . . . . . . . . . . . . . . . . . . . . . . . . . . . . . . . . ",
". . . . . . . . . . . . . . . . . . . . . . . . . . . . . . . . . . . . . . . . e.# f.. . . . . . . . . . . . . . . . . . . . . . . . . . . . . . . . . . . . . ",
". . . . . . . . . . . . . . . . . . . . . . . . . . . . . . . . . . . . . . . . . #.V d . . . . . . . . . . . . . . . . . . . . . . . . . . . . . . . . . . . . ",
". . . . . . . . . . . . . . . . . . . . . . . . . . . . . . . . . . . . . . . . . ^ {.8 u . . . . . . . . . . . . . . . . . . . . . . . . . . . . . . . . . . . ",
". . . . . . . . . . . . . . . v 3.# # # # # # # # # # # # # # # # # # # # # # # # # # # _.} . . . . . . . . . . . . . . . . . . . . . . . . . . . . . . . . . . ",
". . . . . . . . . . . . . . . . . . . . . . . . . . . . . . . . . . . . . . . . . . . . . . . . . . . . . . . . . . . . . . . . . . . . . . . . . . . . . . . . ",
". . . . . . . . . . . . . . . . . . . . . . . . . . . . . . . . . . . . . . . . . . . . . . . . . . . . . . . . . . . . . . . . . . . . . . . . . . . . . . . . ",
". . . . . . . . . . . . . . . . . . . . . . . . . . . . . . . . . . . . . . . . . . . . . . . . . . . . . . . . . . . . . . . . . . . . . . . . . . . . . . . . ",
". . . . . . . . . . . . . . . . . . . . . . . . . . . . . . . . . . . . . . . . . . . . . . . . . . . . . . . . . . . . . . . . . . . . . . . . . . . . . . . . ",
". . . . . . . . . . . . . . . . . . . . . . . . . . . . . . . . . . . . . . . . . . . . . . . . . . . . . . . . . . . . . . . . . . . . . . . . . . . . . . . . ",
". . . . . . . . . . . . . . . . . . . . . . . . . . . . . . . . . . . . . . . . . . . . . . . . . . . . . . . . . . . . . . . . . . . . . . . . . . . . . . . . "};
