/* XPM */
static xpm_row_t const letterO_xpm[] = {
"80 80 179 2",
"  	c None",
". 	c #FF0000",
"+ 	c #FE0000",
"@ 	c #E70000",
"# 	c #C50000",
"$ 	c #AA0000",
"% 	c #8B0000",
"& 	c #680000",
"* 	c #530000",
"= 	c #380000",
"- 	c #1C0000",
"; 	c #420000",
"> 	c #5A0000",
", 	c #750000",
"' 	c #9B0000",
") 	c #B90000",
"! 	c #D90000",
"~ 	c #F90000",
"{ 	c #DC0000",
"] 	c #9E0000",
"^ 	c #450000",
"/ 	c #000000",
"( 	c #220000",
"_ 	c #860000",
": 	c #CE0000",
"< 	c #FB0000",
"[ 	c #C60000",
"} 	c #DD0000",
"| 	c #D30000",
"1 	c #5C0000",
"2 	c #510000",
"3 	c #FD0000",
"4 	c #B60000",
"5 	c #A30000",
"6 	c #F70000",
"7 	c #F50000",
"8 	c #990000",
"9 	c #7D0000",
"0 	c #BE0000",
"a 	c #F10000",
"b 	c #F80000",
"c 	c #ED0000",
"d 	c #D50000",
"e 	c #560000",
"f 	c #E00000",
"g 	c #7E0000",
"h 	c #E90000",
"i 	c #EA0000",
"j 	c #5F0000",
"k 	c #9D0000",
"l 	c #EB0000",
"m 	c #660000",
"n 	c #EF0000",
"o 	c #620000",
"p 	c #400000",
"q 	c #9F0000",
"r 	c #550000",
"s 	c #E80000",
"t 	c #5D0000",
"u 	c #E10000",
"v 	c #320000",
"w 	c #690000",
"x 	c #F00000",
"y 	c #CB0000",
"z 	c #6A0000",
"A 	c #940000",
"B 	c #C10000",
"C 	c #EE0000",
"D 	c #B70000",
"E 	c #4F0000",
"F 	c #F30000",
"G 	c #3B0000",
"H 	c #8D0000",
"I 	c #CC0000",
"J 	c #CA0000",
"K 	c #AC0000",
"L 	c #F60000",
"M 	c #260000",
"N 	c #E60000",
"O 	c #710000",
"P 	c #FA0000",
"Q 	c #CF0000",
"R 	c #7C0000",
"S 	c #D10000",
"T 	c #7F0000",
"U 	c #8E0000",
"V 	c #950000",
"W 	c #FC0000",
"X 	c #D60000",
"Y 	c #C40000",
"Z 	c #600000",
"` 	c #6C0000",
" .	c #2E0000",
"..	c #A70000",
"+.	c #0D0000",
"@.	c #AF0000",
"#.	c #E50000",
"$.	c #DE0000",
"%.	c #F40000",
"&.	c #B30000",
"*.	c #900000",
"=.	c #840000",
"-.	c #720000",
";.	c #B80000",
">.	c #B40000",
",.	c #490000",
"'.	c #470000",
").	c #630000",
"!.	c #B20000",
"~.	c #730000",
"{.	c #AD0000",
"].	c #350000",
"^.	c #970000",
"/.	c #F20000",
"(.	c #E30000",
"_.	c #960000",
":.	c #DF0000",
"<.	c #8F0000",
"[.	c #770000",
"}.	c #A00000",
"|.	c #580000",
"1.	c #B00000",
"2.	c #D40000",
"3.	c #6E0000",
"4.	c #D70000",
"5.	c #E20000",
"6.	c #8A0000",
"7.	c #A40000",
"8.	c #DA0000",
"9.	c #E40000",
"0.	c #BB0000",
"a.	c #A60000",
"b.	c #890000",
"c.	c #820000",
"d.	c #BF0000",
"e.	c #6D0000",
"f.	c #B50000",
"g.	c #850000",
"h.	c #910000",
"i.	c #C00000",
"j.	c #760000",
"k.	c #9C0000",
"l.	c #C80000",
"m.	c #D20000",
"n.	c #C70000",
"o.	c #650000",
"p.	c #A50000",
"q.	c #CD0000",
"r.	c #A10000",
"s.	c #A80000",
"t.	c #A20000",
"u.	c #AB0000",
"v.	c #C30000",
"w.	c #DB0000",
"x.	c #A90000",
"y.	c #4B0000",
"z.	c #C90000",
"A.	c #D80000",
"B.	c #3D0000",
"C.	c #C20000",
"D.	c #BA0000",
"E.	c #790000",
"F.	c #8C0000",
"G.	c #B10000",
"H.	c #980000",
"I.	c #160000",
"J.	c #7A0000",
"K.	c #920000",
"L.	c #9A0000",
"M.	c #2A0000",
"N.	c #870000",
"O.	c #810000",
"P.	c #D00000",
"Q.	c #BD0000",
"R.	c #EC0000",
"S.	c #830000",
"T.	c #930000",
"U.	c #880000",
"V.	c #780000",
". . . . . . . . . . . . . . . . . . . . . . . . . . . . . . . . . . . . . . . . . . . . . . . . . . . . . . . . . . . . . . . . . . . . . . . . . . . . . . . . ",
". . . . . . . . . . . . . . . . . . . . . . . . . . . . . . . . . . . . . . . . . . . . . . . . . . . . . . . . . . . . . . . . . . . . . . . . . . . . . . . . ",
". . . . . . . . . . . . . . . . . . . . . . . . . . . . . . . . . . . . . . . . . . . . . . . . . . . . . . . . . . . . . . . . . . . . . . . . . . . . . . . . ",
". . . . . . . . . . . . . . . . . . . . . . . . . . . . . . . . . . . . . . . . . . . . . . . . . . . . . . . . . . . . . . . . . . . . . . . . . . . . . . . . ",
". . . . . . . . . . . . . . . . . . . . . . . . . . . . . . . . . . . . . . . . . . . . . . . . . . . . . . . . . . . . . . . . . . . . . . . . . . . . . . . . ",
". . . . . . . . . . . . . . . . . . . . . . . . . . . . . . . . . . . . . . . . . . . . . . . . . . . . . . . . . . . . . . . . . . . . . . . . . . . . . . . . ",
". . . . . . . . . . . . . . . . . . . . . . . . . . . . . . . . . . . . . . . . . . . . . . . . . . . . . . . . . . . . . . . . . . . . . . . . . . . . . . . . ",
". . . . . . . . . . . . . . . . . . . . . . . . . . . . . . . + @ # $ % & * = - ; > , ' ) ! ~ . . . . . . . . . . . . . . . . . . . . . . . . . . . . . . . . . ",
". . . . . . . . . . . . . . . . . . . . . . . . . . . . + { ] ^ / / / / / / / / / / / / / / ( _ : < . . . . . . . . . . . . . . . . . . . . . . . . . . . . . . ",
". . . . . . . . . . . . . . . . . . . . . . . . . . < [ > / / / / / / / / / / / / / / / / / / / / ; ) ~ . . + $ } . . . . . . . . . . . . . . . . . . . . . . . ",
". . . . . . . . . . . . . . . . . . . . . . . . . | 1 / / / / / / / / / / / / / / / / / / / / / / / / 2 : . . 3 4 5 6 . . . . . . . . . . . . . . . . . . . . . ",
". . . . . . . . . . . . . . . . . . . . . . . 7 8 / / / / / / / / / 9 0 { a ~ + b c d $ e / / / / / / / / ' 6 . . f g h . . . . . . . . . . . . . . . . . . . . ",
". . . . . . . . . . . . . . . . . . . . . . i j / / / / / / / / k l . . . . . . . . . . 3 : 1 / / / / / / / m n . . l o } . . . . . . . . . . . . . . . . . . . ",
". . . . . . . . . . . . . . . . . . . . . } p / / / / / / / e { . . . . . . . . . . . . . . b q / / / / / / / r s . . l t { . . . . . . . . . . . . . . . . . . ",
". . . . . . . . . . . . . . . . . . . . u v / / / / / / / w x . . . . 6 y ' w p - p z A B C . . D / / / / / / / E C . . h 2 @ . . . . . . . . . . . . . . . . . ",
". . . . . . . . . . . . . . . . . . . s p / / / / / / / > F . . . < D G H I i b 3 7 s J q G A c . K / / / / / / / & L . . y t L . . . . . . . . . . . . . . . . ",
". . . . . . . . . . . . . . . . . . 6 o / / / / / / / M N . . . C O 9 @ . . . . . . . . . P Q R S 3 T / / / / / / / U . . . ' A . . . . . . . . . . . . . . . . ",
". . . . . . . . . . . . . . . . . . V / / / / / / / / ) . . . c e 5 W . . . . . . . . . . . . . X @ c ( / / / / / / / Y . . 6 > S . . . . . . . . . . . . . . . ",
". . . . . . . . . . . . . . . . . : / / / / / / / / Z W . . ~ ` ' + . . . . . . . . . . . . . . . . . $ / / / / / / /  .c . . I E b . . . . . . . . . . . . . . ",
". . . . . . . . . . . . . . . . 6 2 / / / / / / / / y . . . ..z P . . . . . . . . . . . . . . . . . . x +./ / / / / / / A . . 3 ` 4 . . . . . . . . . . . . . . ",
". . . . . . . . . . . . . . . . @./ / / / / / / / 2 W . . #.+.$.. . . . . . . . . . . . . . . . . . . . U / / / / / / / / } . . d v %.. . . . . . . . . . . . . ",
". . . . . . . . . . . . . . . %.v / / / / / / / / &.. . . *.*.. . . . . . . . . . . . . . . . . . . . . : / / / / / / / / =.. . . -.;.. . . . . . . . . . . . . ",
". . . . . . . . . . . . . . . >./ / / / / / / / / i . . i / $.. . . . . . . . . . . . . . . . . . . . . F / / / / / / / / / #.. . Y ,.< . . . . . . . . . . . . ",
". . . . . . . . . . . . . . W './ / / / / / / / ).. . . !.m . . . . . . . . . . . . . . . . . . . . . . . ~./ / / / / / / / q . . 7 ( S . . . . . . . . . . . . ",
". . . . . . . . . . . . . . X / / / / / / / / / {.. . . > ;.. . . . . . . . . . . . . . . . . . . . . . . ../ / / / / / / / ].~ . . A % . . . . . . . . . . . . ",
". . . . . . . . . . . . . . ^./ / / / / / / / / d . . s / #.. . . . . . . . . . . . . . . . . . . . . . . y / / / / / / / / / S . . d - L . . . . . . . . . . . ",
". . . . . . . . . . . . . W ]./ / / / / / / / / /.. . B ^ + . . . . . . . . . . . . . . . . . . . . . . . (./ / / / / / / / / _.. . 6 +.Q . . . . . . . . . . . ",
". . . . . . . . . . . . . :./ / / / / / / / / e . . . V <.. . . . . . . . . . . . . . . . . . . . . . . . 7 / / / / / / / / / ^ + . . [.}.. . . . . . . . . . . ",
". . . . . . . . . . . . . D / / / / / / / / / % . . . |.D . . . . . . . . . . . . . . . . . . . . . . . . . p / / / / / / / / / @ . . 1.1 . . . . . . . . . . . ",
". . . . . . . . . . . . . % / / / / / / / / / {.. . 7 / 2.. . . . . . . . . . . . . . . . . . . . . . . . . 3./ / / / / / / / / # . . 4./ a . . . . . . . . . . ",
". . . . . . . . . . . . . 2 / / / / / / / / / # . . 5./ @ . . . . . . . . . . . . . . . . . . . . . . . . . 6./ / / / / / / / / 7.. . /./ 8.. . . . . . . . . . ",
". . . . . . . . . . . . %./ / / / / / / / / / d . . : / b . . . . . . . . . . . . . . . . . . . . . . . . . }./ / / / / / / / / R . . . v 0 . . . . . . . . . . ",
". . . . . . . . . . . . 5./ / / / / / / / / / 9.. . 0.G . . . . . . . . . . . . . . . . . . . . . . . . . . {./ / / / / / / / / = . . . O a.. . . . . . . . . . ",
". . . . . . . . . . . . 2./ / / / / / / / / / n . . $ & . . . . . . . . . . . . . . . . . . . . . . . . . . 4 / / / / / / / / / / 7 . . V b.. . . . . . . . . . ",
". . . . . . . . . . . . Y / / / / / / / / / / L . . _.c.. . . . . . . . . . . . . . . . . . . . . . . . . . d./ / / / / / / / / / i . . !.e.. . . . . . . . . . ",
". . . . . . . . . . . . f./ / / / / / / / / / 3 . . g.h.. . . . . . . . . . . . . . . . . . . . . . . . . . [ / / / / / / / / / / } . . i.E . . . . . . . . . . ",
". . . . . . . . . . . . {./ / / / / / / / / = . . . j.k.. . . . . . . . . . . . . . . . . . . . . . . . . . l./ / / / / / / / / / m.. . n.- . . . . . . . . . . ",
". . . . . . . . . . . . ../ / / / / / / / / '.. . . o.p.. . . . . . . . . . . . . . . . . . . . . . . . . . y / / / / / / / / / / q.. . : / 3 . . . . . . . . . ",
". . . . . . . . . . . . r./ / / / / / / / / E . . . > s.. . . . . . . . . . . . . . . . . . . . . . . . . . q./ / / / / / / / / / l.. . d / P . . . . . . . . . ",
". . . . . . . . . . . . t./ / / / / / / / / |.. . . 2 u.. . . . . . . . . . . . . . . . . . . . . . . . . . : / / / / / / / / / / v.. . w./ P . . . . . . . . . ",
". . . . . . . . . . . . x./ / / / / / / / / > . . . ,.{.. . . . . . . . . . . . . . . . . . . . . . . . . . y / / / / / / / / / / Y . . } / 3 . . . . . . . . . ",
". . . . . . . . . . . . 1./ / / / / / / / / 2 . . . y.s.. . . . . . . . . . . . . . . . . . . . . . . . . . l./ / / / / / / / / / z.. . A.( . . . . . . . . . . ",
". . . . . . . . . . . . D / / / / / / / / / '.. . . |.5 . . . . . . . . . . . . . . . . . . . . . . . . . . Y / / / / / / / / / / : . . m.B.. . . . . . . . . . ",
". . . . . . . . . . . . C./ / / / / / / / / ].. . . o.k . . . . . . . . . . . . . . . . . . . . . . . . . . D./ / / / / / / / / / d . . q.o . . . . . . . . . . ",
". . . . . . . . . . . . d / / / / / / / / / / W . . 3._.. . . . . . . . . . . . . . . . . . . . . . . . . . @./ / / / / / / / / / 5.. . 0 c.. . . . . . . . . . ",
". . . . . . . . . . . . @ / / / / / / / / / / 7 . . E.=.. . . . . . . . . . . . . . . . . . . . . . . . . . 5 / / / / / / / / / / C . . $ ' . . . . . . . . . . ",
". . . . . . . . . . . . L / / / / / / / / / / c . . <.& . . . . . . . . . . . . . . . . . . . . . . . . . . F./ / / / / / / / / / P . . A G.. . . . . . . . . . ",
". . . . . . . . . . . . . r / / / / / / / / / :.. . 7.B.. . . . . . . . . . . . . . . . . . . . . . . . . . 3./ / / / / / / / / Z . . . z q.. . . . . . . . . . ",
". . . . . . . . . . . . . H./ / / / / / / / / Q . . 4 / P . . . . . . . . . . . . . . . . . . . . . . . . . B./ / / / / / / / / A . . ~ +.N . . . . . . . . . . ",
". . . . . . . . . . . . . v./ / / / / / / / / 0.. . n./ h . . . . . . . . . . . . . . . . . . . . . . . . /./ / / / / / / / / / 4 . . 5.I.< . . . . . . . . . . ",
". . . . . . . . . . . . . #./ / / / / / / / / ' . . $./ S . . . . . . . . . . . . . . . . . . . . . . . . $./ / / / / / / / / / w.. . C.J.. . . . . . . . . . . ",
". . . . . . . . . . . . . + e / / / / / / / / 3.. . L / 4 . . . . . . . . . . . . . . . . . . . . . . . . v./ / / / / / / / / M P . . 6.f.. . . . . . . . . . . ",
". . . . . . . . . . . . . . @./ / / / / / / / I.b . . e K.. . . . . . . . . . . . . . . . . . . . . . . . L./ / / / / / / / / g.. . P M.$.. . . . . . . . . . . ",
". . . . . . . . . . . . . . #./ / / / / / / / / { . . H.B.3 . . . . . . . . . . . . . . . . . . . . . . . |./ / / / / / / / / n.. . d ; < . . . . . . . . . . . ",
". . . . . . . . . . . . . . . , / / / / / / / / >.. . q./ 5.. . . . . . . . . . . . . . . . . . . . . . h / / / / / / / / / ( L . . *.... . . . . . . . . . . . ",
". . . . . . . . . . . . . . . 2./ / / / / / / / w . . %.+.D.. . . . . . . . . . . . . . . . . . . . . . 0 / / / / / / / / / H.. . /.I.5.. . . . . . . . . . . . ",
". . . . . . . . . . . . . . . + z / / / / / / / / h . . N.& . . . . . . . . . . . . . . . . . . . . . . -./ / / / / / / / / 9.. . f.e.. . . . . . . . . . . . . ",
". . . . . . . . . . . . . . . . 2./ / / / / / / / K . . A./ f . . . . . . . . . . . . . . . . . . . . N / / / / / / / / / N.. . L G : . . . . . . . . . . . . . ",
". . . . . . . . . . . . . . . . . A / / / / / / / p 6 . + ` ] . . . . . . . . . . . . . . . . . . . . q / / / / / / / / +.9.. . 4 Z 3 . . . . . . . . . . . . . ",
". . . . . . . . . . . . . . . . . /.p / / / / / / / f.. . 8.I.h . . . . . . . . . . . . . . . . . . c I./ / / / / / / / a.. . C v q.. . . . . . . . . . . . . . ",
". . . . . . . . . . . . . . . . . . 2./ / / / / / / ].C . . }.U . . . . . . . . . . . . . . . . . . *./ / / / / / / / r L . . F.O.. . . . . . . . . . . . . . . ",
". . . . . . . . . . . . . . . . . . . 0./ / / / / / / c.+ . L o.P.. . . . . . . . . . . . . . . . S / / / / / / / / I.:.. . q.- s . . . . . . . . . . . . . . . ",
". . . . . . . . . . . . . . . . . . . . q / / / / / / / $ . . C Z i . . . . . . . . . . . . . . i = / / / / / / / / Q.. . h v Q.. . . . . . . . . . . . . . . . ",
". . . . . . . . . . . . . . . . . . . . 3 7./ / / / / / / !.. . N R C . . . . . . . . . . . . R.> / / / / / / / / $ . . b & H + . . . . . . . . . . . . . . . . ",
". . . . . . . . . . . . . . . . . . . . . . !./ / / / / / / _.7 . x % h . . . . . . . . . . { E / / / / / / / / r.+ . < S.).7 . . . . . . . . . . . . . . . . . ",
". . . . . . . . . . . . . . . . . . . . . . . y v / / / / / / y.C.~ P 7 . . . . . . . . a a.+./ / / / / / / / 4 . . W <.* C . . . . . . . . . . . . . . . . . . ",
". . . . . . . . . . . . . . . . . . . . . . . . h j./ / / / / / / B.' I #.7 < 3 L N J *.( / / / / / / / / ^ m.. . 6 b.y.s . . . . . . . . . . . . . . . . . . . ",
". . . . . . . . . . . . . . . . . . . . . . . . . 3 C.; / / / / / / / / / / / / / / / / / / / / / / / / T./.. . n 3.o.c . . . . . . . . . . . . . . . . . . . . ",
". . . . . . . . . . . . . . . . . . . . . . . . . < . 6 4 './ / / / / / / / / / / / / / / / / / / / g.u . . . q.p =.7 . . . . . . . . . . . . . . . . . . . . . ",
". . . . . . . . . . . . . . . . . . . . . . . . . b 5.L . < Q <.M./ / / / / / / / / / / / / / > 1.i . . . R.T.M 0 + . . . . . . . . . . . . . . . . . . . . . . ",
". . . . . . . . . . . . . . . . . . . . . . . . . . . h ! %.. . ~ { 0.L.E.* = I.].E & H K J c . . . . C a.- *.i . . . . . . . . . . . . . . . . . . . . . . . . ",
". . . . . . . . . . . . . . . . . . . . . . . . . . . . . { [ d ~ . . . . . . . . . . . . . . . L P.U.I.H u . . . . . . . . . . . . . . . . . . . . . . . . . . ",
". . . . . . . . . . . . . . . . . . . . . . . . . . . . . . . i 4 k @.y f c 6 < + < L x f y 1.V.I., ) x . . . . . . . . . . . . . . . . . . . . . . . . . . . . ",
". . . . . . . . . . . . . . . . . . . . . . . . . . . . . . . . . . c q.u.b.m ; M ( ^ 1 [.' D 2.7 . . . . . . . . . . . . . . . . . . . . . . . . . . . . . . . ",
". . . . . . . . . . . . . . . . . . . . . . . . . . . . . . . . . . . . . . . . . . . . . . . . . . . . . . . . . . . . . . . . . . . . . . . . . . . . . . . . ",
". . . . . . . . . . . . . . . . . . . . . . . . . . . . . . . . . . . . . . . . . . . . . . . . . . . . . . . . . . . . . . . . . . . . . . . . . . . . . . . . ",
". . . . . . . . . . . . . . . . . . . . . . . . . . . . . . . . . . . . . . . . . . . . . . . . . . . . . . . . . . . . . . . . . . . . . . . . . . . . . . . . ",
". . . . . . . . . . . . . . . . . . . . . . . . . . . . . . . . . . . . . . . . . . . . . . . . . . . . . . . . . . . . . . . . . . . . . . . . . . . . . . . . ",
". . . . . . . . . . . . . . . . . . . . . . . . . . . . . . . . . . . . . . . . . . . . . . . . . . . . . . . . . . . . . . . . . . . . . . . . . . . . . . . . ",
". . . . . . . . . . . . . . . . . . . . . . . . . . . . . . . . . . . . . . . . . . . . . . . . . . . . . . . . . . . . . . . . . . . . . . . . . . . . . . . . "};
