/* XPM */
static xpm_row_t const letterY_xpm[] = {
"80 80 169 2",
"  	c None",
". 	c #FF0000",
"+ 	c #FA0000",
"@ 	c #D20000",
"# 	c #8C0000",
"$ 	c #0D0000",
"% 	c #000000",
"& 	c #9F0000",
"* 	c #CA0000",
"= 	c #C50000",
"- 	c #FB0000",
"; 	c #D70000",
"> 	c #9D0000",
", 	c #380000",
"' 	c #8A0000",
") 	c #FD0000",
"! 	c #CC0000",
"~ 	c #940000",
"{ 	c #FC0000",
"] 	c #F50000",
"^ 	c #CF0000",
"/ 	c #970000",
"( 	c #350000",
"_ 	c #660000",
": 	c #F60000",
"< 	c #D40000",
"[ 	c #950000",
"} 	c #E00000",
"| 	c #B70000",
"1 	c #790000",
"2 	c #400000",
"3 	c #EB0000",
"4 	c #DF0000",
"5 	c #2A0000",
"6 	c #920000",
"7 	c #320000",
"8 	c #D90000",
"9 	c #EC0000",
"0 	c #420000",
"a 	c #850000",
"b 	c #900000",
"c 	c #BF0000",
"d 	c #F70000",
"e 	c #690000",
"f 	c #710000",
"g 	c #F80000",
"h 	c #F90000",
"i 	c #730000",
"j 	c #FE0000",
"k 	c #8E0000",
"l 	c #550000",
"m 	c #F10000",
"n 	c #ED0000",
"o 	c #5A0000",
"p 	c #B90000",
"q 	c #E40000",
"r 	c #BC0000",
"s 	c #160000",
"t 	c #DC0000",
"u 	c #BA0000",
"v 	c #530000",
"w 	c #A00000",
"x 	c #830000",
"y 	c #910000",
"z 	c #650000",
"A 	c #B40000",
"B 	c #2E0000",
"C 	c #C70000",
"D 	c #1C0000",
"E 	c #AE0000",
"F 	c #BE0000",
"G 	c #EE0000",
"H 	c #B60000",
"I 	c #980000",
"J 	c #7F0000",
"K 	c #8B0000",
"L 	c #760000",
"M 	c #720000",
"N 	c #750000",
"O 	c #DB0000",
"P 	c #E70000",
"Q 	c #D30000",
"R 	c #6A0000",
"S 	c #CB0000",
"T 	c #CD0000",
"U 	c #D50000",
"V 	c #B20000",
"W 	c #3B0000",
"X 	c #E10000",
"Y 	c #450000",
"Z 	c #600000",
"` 	c #C60000",
" .	c #8F0000",
"..	c #5C0000",
"+.	c #6C0000",
"@.	c #E80000",
"#.	c #4F0000",
"$.	c #C10000",
"%.	c #D60000",
"&.	c #E20000",
"*.	c #EA0000",
"=.	c #490000",
"-.	c #4B0000",
";.	c #BB0000",
">.	c #AA0000",
",.	c #E50000",
"'.	c #C20000",
").	c #BD0000",
"!.	c #A90000",
"~.	c #580000",
"{.	c #E30000",
"].	c #F30000",
"^.	c #7A0000",
"/.	c #DA0000",
"(.	c #680000",
"_.	c #DE0000",
":.	c #890000",
"<.	c #620000",
"[.	c #A10000",
"}.	c #C40000",
"|.	c #A60000",
"1.	c #EF0000",
"2.	c #AF0000",
"3.	c #DD0000",
"4.	c #860000",
"5.	c #D00000",
"6.	c #4D0000",
"7.	c #B10000",
"8.	c #AC0000",
"9.	c #220000",
"0.	c #A30000",
"a.	c #5F0000",
"b.	c #6E0000",
"c.	c #630000",
"d.	c #9B0000",
"e.	c #A40000",
"f.	c #C90000",
"g.	c #D10000",
"h.	c #700000",
"i.	c #810000",
"j.	c #C80000",
"k.	c #AB0000",
"l.	c #560000",
"m.	c #7E0000",
"n.	c #470000",
"o.	c #780000",
"p.	c #A70000",
"q.	c #9E0000",
"r.	c #9A0000",
"s.	c #A20000",
"t.	c #5D0000",
"u.	c #E90000",
"v.	c #CE0000",
"w.	c #B00000",
"x.	c #F20000",
"y.	c #770000",
"z.	c #990000",
"A.	c #D80000",
"B.	c #A80000",
"C.	c #E60000",
"D.	c #C30000",
"E.	c #F00000",
"F.	c #6D0000",
"G.	c #A50000",
"H.	c #960000",
"I.	c #870000",
"J.	c #510000",
"K.	c #260000",
"L.	c #7D0000",
". . . . . . . . . . . . . . . . . . . . . . . . . . . . . . . . . . . . . . . . . . . . . . . . . . . . . . . . . . . . . . . . . + @ # $ % % % % & . . . * $ = ",
". . . . . . . . . . . . . . . . . . . . . . . . . . . . . . . . . . . . . . . . . . . . . . . . . . . . . . . . . . . . . . - ; > , % % % % % % ' ) . . ! $ ~ { ",
". . . . . . . . . . . . . . . . . . . . . . . . . . . . . . . . . . . . . . . . . . . . . . . . . . . . . . . . . . . ] ^ / ( % % % % % % % % _ : . . < $ [ { . ",
". . . . . . . . . . . . . . . . . . . . . . . . . . . . . . . . . . . . . . . . . . . . . . . . . . . . . . . - } | 1 $ % % % % % % % % % % 2 3 . . 4 5 6 { . . ",
". . . . . . . . . . . . . . . . . . . . . . . . . . . . . . . . . . . . . . . . . . . . . . . . . . . . . } ' 7 % % % % % % % % % % % % % $ 8 . . 9 0 a - . . . ",
". . . . . . . . . . . . . . . . . . . . . . . . . . . . . . . . . . . . . . . . . . . . . . . . . . . . . { b % % % % % % % % % % % % % % c . . d e f g . . . . ",
". . . . . . . . . . . . . . . . . . . . . . . . . . . . . . . . . . . . . . . . . . . . . . . . . . . . . . h i % % % % % % % % % % % % ~ . . j k l m . . . . . ",
". . . . . . . . . . . . . . . . . . . . . . . . . . . . . . . . . . . . . . . . . . . . . . . . . . . . . . . n 7 % % % % % % % % % % o : . . p 5 q . . . . . . ",
". . . . . . . . . . . . . . . . . . . . . . . . . . . . . . . . . . . . . . . . . . . . . . . . . . . . . . . . r % % % % % % % % % s } . . t $ * . . . . . . . ",
". . . . . . . . . . . . . . . . . . . . . . . . . . . . . . . . . . . . . . . . . . . . . . . . . . . . . . . . h , % % % % % % % % u . . ] v w . . . . . . . . ",
". . . . . . . . . . . . . . . . . . . . . . . . . . . . . . . . . . . . . . . . . . . . . . . . . . . . . . . . . / % % % % % % % x j . . y z h . . . . . . . . ",
". . . . . . . . . . . . . . . . . . . . . . . . . . . . . . . . . . . . . . . . . . . . . . . . . . . . . . . . . A % % % % % % B n . . C D q . . . . . . . . . ",
". . . . . . . . . . . . . . . . . . . . . . . . . . . . . . . . . . . . . . . . . . . . . . . . . . . . . . . . . E % % % % % % F . . G , H . . . . . . . . . . ",
". . . . + I % % % % % % % % % % % % % % % % % % % % % % J h . . . . . . . . . . . . . . . . . . . . . . . . . . . K % % % % % L ) . j x M { . . . . . . . . . . ",
". . . . . . p % % % % % % % % % % % % % % % % % % % % N d . . O d . . . . . . . . . . . . . . . . . . . . . . . - ( % % % % D P . . = D P . . . . . . . . . . . ",
". . . . . . . Q 5 % % % % % % % % % % % % % % % % % R ] . . S s T . . . . . . . . . . . . . . . . . . . . . . . U % % % % % V . . m W H . . . . . . . . . . . . ",
". . . . . . . . X Y % % % % % % % % % % % % % % % Z m . . ` D T . . . . . . . . . . . . . . . . . . . . . . . .  .% % % % ..h . . y +.- . . . . . . . . . . . . ",
". . . . . . . . . @.#.% % % % % % % % % % % % % l G . . $.5 U . . . . . . . . . . . . . . . . . . . . . . . . 3 % % % % % %.. . Q $ &.. . . . . . . . . . . . . ",
". . . . . . . . . . *.=.% % % % % % % % % % % -.*.. . ;., t . . . . . . . . . . . . . . . . . . . . . . . . . & % % % % b . . d l >.. . . . . . . . . . . . . . ",
". . . . . . . . . . . ,.7 % % % % % % % % % % '.. . q % ).. . . . . . . . . . . . . . . . . . . . . . . . . 3 s % % % B G . . !.~.g . . . . . . . . . . . . . . ",
". . . . . . . . . . . . @ % % % % % % % % % % v : . . ~ #.: . . . . . . . . . . . . . . . . . . . . . . . . b % % % % ;.. . {.$ %.. . . . . . . . . . . . . . . ",
". . . . . . . . . . . . . E % % % % % % % % % % & . . ].0 w . . . . . . . . . . . . . . . . . . . . . . . O % % % % R { . { f ~ . . . . . . . . . . . . . . . . ",
". . . . . . . . . . . . . { ^.% % % % % % % % % % /.. . S % t . . . . . . . . . . . . . . . . . . . . . - (.% % % % _.. . F W m . . . . . . . . . . . . . . . . ",
". . . . . . . . . . . . . . 9 7 % % % % % % % % % o g . . :.<.+ . . . . . . . . . . . . . . . . . . . . ;.% % % % [.. . G 7 }.. . . . . . . . . . . . . . . . . ",
". . . . . . . . . . . . . . . = % % % % % % % % % % |.. . 1.( 2.. . . . . . . . . . . . . . . . . . . n 5 % % % =.] . . K 1 j . . . . . . . . . . . . . . . . . ",
". . . . . . . . . . . . . . . j x % % % % % % % % % % 3.. . }.s ,.. . . . . . . . . . . . . . . . . . 4.% % % % ! . . 5.D P . . . . . . . . . . . . . . . . . . ",
". . . . . . . . . . . . . . . . 9 B % % % % % % % % % <.+ . j J i ) . . . . . . . . . . . . . . . . T % % % % x . . : 6.7.. . . . . . . . . . . . . . . . . . . ",
". . . . . . . . . . . . . . . . . F % % % % % % % % % % 8.. . 3 5 ).. . . . . . . . . . . . . . . ] =.% % % 9.3 . . 0.a.+ . . . . . . . . . . . . . . . . . . . ",
". . . . . . . . . . . . . . . . . { b.% % % % % % % % % $ X . . r B n . . . . . . . . . . . . . . & % % % % H . . 4 % /.. . . . . . . . . . . . . . . . . . . . ",
". . . . . . . . . . . . . . . . . . X % % % % % % % % % % e - . ) N 4.. . . . . . . . . . . . . 3.% % % % c.- . - R d.. . . . . . . . . . . . . . . . . . . . . ",
". . . . . . . . . . . . . . . . . . . e.% % % % % % % % % % V . . P D * . . . . . . . . . . . - _ % % % % O . . p 0 ].. . . . . . . . . . . . . . . . . . . . . ",
". . . . . . . . . . . . . . . . . . . : 6.% % % % % % % % % s ,.. . A Y ].. . . . . . . . . . H % % % % d.. . 9 5 f.. . . . . . . . . . . . . . . . . . . . . . ",
". . . . . . . . . . . . . . . . . . . . g.% % % % % % % % % % h.{ . - e I . . . . . . . . . *.9.% % % 0 ].. . a i.j . . . . . . . . . . . . . . . . . . . . . . ",
". . . . . . . . . . . . . . . . . . . . . y % % % % % % % % % % | . . X $ %.. . . . . . . j i.% % % % j.. . S 9.*.. . . . . . . . . . . . . . . . . . . . . . . ",
". . . . . . . . . . . . . . . . . . . . . m W % % % % % % % % % 9.@.. . k.l.g . . . . . . j.% % % % m.j . ] n.H . . . . . . . . . . . . . . . . . . . . . . . . ",
". . . . . . . . . . . . . . . . . . . . . . C % % % % % % % % % % o.) . h a.p.. . . . . ].0 % % % D @.. . q.(.- . . . . . . . . . . . . . . . . . . . . . . . . ",
". . . . . . . . . . . . . . . . . . . . . . j i.% % % % % % % % % % ).. . O $ } . . . . r.% % % % 7.. . t % _.. . . . . . . . . . . . . . . . . . . . . . . . . ",
". . . . . . . . . . . . . . . . . . . . . . . 9 5 % % % % % % % % % 5 3 . . s.e - . . /.% % % % t.h . - c.s.. . . . . . . . . . . . . . . . . . . . . . . . . . ",
". . . . . . . . . . . . . . . . . . . . . . . . r % % % % % % % % % % J j . : v H . + a.% % % % ; . . A -.: . . . . . . . . . . . . . . . . . . . . . . . . . . ",
". . . . . . . . . . . . . . . . . . . . . . . . { M % % % % % % % % % % '.. . U 9.u.7.% % % % [ . . u.9.v.. . . . . . . . . . . . . . . . . . . . . . . . . . . ",
". . . . . . . . . . . . . . . . . . . . . . . . . ,.s % % % % % % % % % ( G . . I R D % % % W m . j J :.. . . . . . . . . . . . . . . . . . . . . . . . . . . . ",
". . . . . . . . . . . . . . . . . . . . . . . . . . w.% % % % % % % % % % a . . x.s % % % % }.. . C B n . . . . . . . . . . . . . . . . . . . . . . . . . . . . ",
". . . . . . . . . . . . . . . . . . . . . . . . . . + <.% % % % % % % % % % C . = % % % % y.) . ].2 ).. . . . . . . . . . . . . . . . . . . . . . . . . . . . . ",
". . . . . . . . . . . . . . . . . . . . . . . . . . . 3.% % % % % % % % % % W X W % % % s ,.. . z.b.{ . . . . . . . . . . . . . . . . . . . . . . . . . . . . . ",
". . . . . . . . . . . . . . . . . . . . . . . . . . . . 0.% % % % % % % % % % 9.% % % % 8.. . A.$ &.. . . . . . . . . . . . . . . . . . . . . . . . . . . . . . ",
". . . . . . . . . . . . . . . . . . . . . . . . . . . . d v % % % % % % % % % % % % % l.g . h t.B.. . . . . . . . . . . . . . . . . . . . . . . . . . . . . . . ",
". . . . . . . . . . . . . . . . . . . . . . . . . . . . . < % % % % % % % % % % % % % < . . 2.v d . . . . . . . . . . . . . . . . . . . . . . . . . . . . . . . ",
". . . . . . . . . . . . . . . . . . . . . . . . . . . . . . [ % % % % % % % % % % %  .. . C.s Q . . . . . . . . . . . . . . . . . . . . . . . . . . . . . . . . ",
". . . . . . . . . . . . . . . . . . . . . . . . . . . . . . ].0 % % % % % % % % % ( 1.. ) o.b . . . . . . . . . . . . . . . . . . . . . . . . . . . . . . . . . ",
". . . . . . . . . . . . . . . . . . . . . . . . . . . . . . . = % % % % % % % % % p . . D., E.. . . . . . . . . . . . . . . . . . . . . . . . . . . . . . . . . ",
". . . . . . . . . . . . . . . . . . . . . . . . . . . . . . . /.% % % % % % % % % ^ . . h.V . . . . . . . . . . . . . . . . . . . . . . . . . . . . . . . . . . ",
". . . . . . . . . . . . . . . . . . . . . . . . . . . . . . . /.% % % % % % % % % ^ . . F.F . . . . . . . . . . . . . . . . . . . . . . . . . . . . . . . . . . ",
". . . . . . . . . . . . . . . . . . . . . . . . . . . . . . . /.% % % % % % % % % ^ . . F.F . . . . . . . . . . . . . . . . . . . . . . . . . . . . . . . . . . ",
". . . . . . . . . . . . . . . . . . . . . . . . . . . . . . . /.% % % % % % % % % ^ . . F.F . . . . . . . . . . . . . . . . . . . . . . . . . . . . . . . . . . ",
". . . . . . . . . . . . . . . . . . . . . . . . . . . . . . . /.% % % % % % % % % ^ . . F.F . . . . . . . . . . . . . . . . . . . . . . . . . . . . . . . . . . ",
". . . . . . . . . . . . . . . . . . . . . . . . . . . . . . . /.% % % % % % % % % ^ . . F.F . . . . . . . . . . . . . . . . . . . . . . . . . . . . . . . . . . ",
". . . . . . . . . . . . . . . . . . . . . . . . . . . . . . . /.% % % % % % % % % ^ . . F.F . . . . . . . . . . . . . . . . . . . . . . . . . . . . . . . . . . ",
". . . . . . . . . . . . . . . . . . . . . . . . . . . . . . . /.% % % % % % % % % ^ . . F.F . . . . . . . . . . . . . . . . . . . . . . . . . . . . . . . . . . ",
". . . . . . . . . . . . . . . . . . . . . . . . . . . . . . . /.% % % % % % % % % ^ . . F.F . . . . . . . . . . . . . . . . . . . . . . . . . . . . . . . . . . ",
". . . . . . . . . . . . . . . . . . . . . . . . . . . . . . . /.% % % % % % % % % ^ . . F.F . . . . . . . . . . . . . . . . . . . . . . . . . . . . . . . . . . ",
". . . . . . . . . . . . . . . . . . . . . . . . . . . . . . . /.% % % % % % % % % ^ . . F.F . . . . . . . . . . . . . . . . . . . . . . . . . . . . . . . . . . ",
". . . . . . . . . . . . . . . . . . . . . . . . . . . . . . . /.% % % % % % % % % ^ . . F.F . . . . . . . . . . . . . . . . . . . . . . . . . . . . . . . . . . ",
". . . . . . . . . . . . . . . . . . . . . . . . . . . . . . . /.% % % % % % % % % ^ . . F.F . . . . . . . . . . . . . . . . . . . . . . . . . . . . . . . . . . ",
". . . . . . . . . . . . . . . . . . . . . . . . . . . . . . . /.% % % % % % % % % ^ . . F.F . . . . . . . . . . . . . . . . . . . . . . . . . . . . . . . . . . ",
". . . . . . . . . . . . . . . . . . . . . . . . . . . . . . . /.% % % % % % % % % ^ . . F.F . . . . . . . . . . . . . . . . . . . . . . . . . . . . . . . . . . ",
". . . . . . . . . . . . . . . . . . . . . . . . . . . . . . . /.% % % % % % % % % ^ . . F.F . . . . . . . . . . . . . . . . . . . . . . . . . . . . . . . . . . ",
". . . . . . . . . . . . . . . . . . . . . . . . . . . . . . . /.% % % % % % % % % ^ . . F.F . . . . . . . . . . . . . . . . . . . . . . . . . . . . . . . . . . ",
". . . . . . . . . . . . . . . . . . . . . . . . . . . . . . . /.% % % % % % % % % ^ . . F.F . . . . . . . . . . . . . . . . . . . . . . . . . . . . . . . . . . ",
". . . . . . . . . . . . . . . . . . . . . . . . . . . . . . . /.% % % % % % % % % ^ . . F.F . . . . . . . . . . . . . . . . . . . . . . . . . . . . . . . . . . ",
". . . . . . . . . . . . . . . . . . . . . . . . . . . . . . . C % % % % % % % % % u . . L u . . . . . . . . . . . . . . . . . . . . . . . . . . . . . . . . . . ",
". . . . . . . . . . . . . . . . . . . . . . . . . . . . . . T D % % % % % % % % % % '.. 4 =.3 . . . . . . . . . . . . . . . . . . . . . . . . . . . . . . . . . ",
". . . . . . . . . . . . . . . . . . . . . . . . . . . . . '.% % % % % % % % % % % % % A . = <.] . . . . . . . . . . . . . . . . . . . . . . . . . . . . . . . . ",
". . . . . . . . . . . . . . . . . . . . . . . . . . . . A % % % % % % % % % % % % % % % G.) s.i.- . . . . . . . . . . . . . . . . . . . . . . . . . . . . . . . ",
". . . . . . . . . . . . . . . . . . . . . . . . . . j p.% % % % % % % % % % % % % % % % % H.d ^.q.. . . . . . . . . . . . . . . . . . . . . . . . . . . . . . . ",
". . . . . . . . . . . . . . . . . . . . . . . . . { z.% % % % % % % % % % % % % % % % % % % I.*.J.u . . . . . . . . . . . . . . . . . . . . . . . . . . . . . . ",
". . . . . . . . . . . . . . . . . . . . . . . . + # % % % % % % % % % % % % % % % % % % % % % y.< K.@ . . . . . . . . . . . . . . . . . . . . . . . . . . . . . ",
". . . . . . . . . . . . . . . . . . . . . . . . . . . . . . . . . . . . . . . . . . . . . . . . . C B {.. . . . . . . . . . . . . . . . . . . . . . . . . . . . ",
". . . . . . . . . . . . . . . . . . . . . . . . . . . . . . . . . . . . . . . . . . . . . . . . . . e.#.1.. . . . . . . . . . . . . . . . . . . . . . . . . . . ",
". . . . . . . . . . . . . . . . . . . . . . . . . . . . . . . . . . . . . . . . . . . . . . . . . . - L.h.g . . . . . . . . . . . . . . . . . . . . . . . . . . ",
". . . . . . . . . . . . . . . . . . . . . . . / % % % % % % % % % % % % % % % % % % % % % % % % % % % % % k ) . . . . . . . . . . . . . . . . . . . . . . . . . "};
