/* XPM */
static xpm_row_t const letterL_xpm[] = {
"80 80 103 2",
"  	c None",
". 	c #FF0000",
"+ 	c #C00000",
"@ 	c #000000",
"# 	c #820000",
"$ 	c #F90000",
"% 	c #CA0000",
"& 	c #160000",
"* 	c #850000",
"= 	c #FE0000",
"- 	c #D30000",
"; 	c #260000",
"> 	c #870000",
", 	c #FA0000",
"' 	c #DA0000",
") 	c #9B0000",
"! 	c #DB0000",
"~ 	c #350000",
"{ 	c #8A0000",
"] 	c #FB0000",
"^ 	c #DC0000",
"/ 	c #2E0000",
"( 	c #BB0000",
"_ 	c #E20000",
": 	c #420000",
"< 	c #8D0000",
"[ 	c #DF0000",
"} 	c #320000",
"| 	c #B50000",
"1 	c #E70000",
"2 	c #4F0000",
"3 	c #900000",
"4 	c #380000",
"5 	c #AF0000",
"6 	c #D80000",
"7 	c #FC0000",
"8 	c #E40000",
"9 	c #3D0000",
"0 	c #A90000",
"a 	c #DE0000",
"b 	c #C30000",
"c 	c #530000",
"d 	c #A10000",
"e 	c #3B0000",
"f 	c #F50000",
"g 	c #AE0000",
"h 	c #FD0000",
"i 	c #620000",
"j 	c #EE0000",
"k 	c #A20000",
"l 	c #F40000",
"m 	c #EF0000",
"n 	c #C50000",
"o 	c #D40000",
"p 	c #7E0000",
"q 	c #CB0000",
"r 	c #B60000",
"s 	c #7A0000",
"t 	c #7D0000",
"u 	c #F20000",
"v 	c #220000",
"w 	c #E50000",
"x 	c #9E0000",
"y 	c #E90000",
"z 	c #0D0000",
"A 	c #E00000",
"B 	c #6D0000",
"C 	c #2A0000",
"D 	c #F30000",
"E 	c #9F0000",
"F 	c #7F0000",
"G 	c #990000",
"H 	c #B20000",
"I 	c #D50000",
"J 	c #F60000",
"K 	c #AD0000",
"L 	c #680000",
"M 	c #630000",
"N 	c #C10000",
"O 	c #D70000",
"P 	c #910000",
"Q 	c #F10000",
"R 	c #D10000",
"S 	c #F70000",
"T 	c #EB0000",
"U 	c #BE0000",
"V 	c #970000",
"W 	c #9C0000",
"X 	c #8E0000",
"Y 	c #950000",
"Z 	c #400000",
"` 	c #5D0000",
" .	c #4B0000",
"..	c #D20000",
"+.	c #8F0000",
"@.	c #C40000",
"#.	c #B40000",
"$.	c #750000",
"%.	c #760000",
"&.	c #8B0000",
"*.	c #D00000",
"=.	c #EC0000",
"-.	c #690000",
". . . . . . . . . . . . . . . . . . . . . . . . . . . . . . . . . . . . . . . . . . . . . . . . . . . . . . . . . . . . . . . . . . . . . . . . . . . . . . . . ",
". . . . . . . . . . . . . . . . . . . . . . . . . . . . . . . . . . . . . . . . . . . . . . . . . . . . . . . . . . . . . . . . . . . . . . . . . . . . . . . . ",
". . . . . . . . . . . . . . . . . . . . . . . . . . . . . . . . . . . . . . . . . . . . . . . . . . . . . . . . . . . . . . . . . . . . . . . . . . . . . . . . ",
". . . . . . . . . . . . . . . . . . . . . . . . . . . . . . . . . . . . . . . . . . . . . . . . . . . . . . . . . . . . . . . . . . . . . . . . . . . . . . . . ",
". . . . . . . . . . . . . . . . . . . . . . . . . . . . . . . . . . . . . . . . . . . . . . . . . . . . . . . . . . . . . . . . . . . . . . . . . . . . . . . . ",
". . . . . . . . . . . . . . . . . . . . . . . . . . . . . . . . . . . . . . . . . . . . . . . . . . . . . . . . . . . . . . . . . . . . . . . . . . . . . . . . ",
". . . . . . . . . . . . . . . . . . . . . . . . . . . . . . . . . . . . . . . . . . . . . . . . . . . . . . . . . . . . . . . . . . . . . . . . . . . . . . . . ",
". . . . . . . . . . . . . . . . + @ @ @ @ @ @ @ @ @ @ @ @ @ @ @ @ @ @ @ @ @ # $ . . . . . . . . . . . . . . . . . . . . . . . . . . . . . . . . . . . . . . . . ",
". . . . . . . . . . . . . . . . . % & @ @ @ @ @ @ @ @ @ @ @ @ @ @ @ @ @ @ * $ . = . . . . . . . . . . . . . . . . . . . . . . . . . . . . . . . . . . . . . . . ",
". . . . . . . . . . . . . . . . . . - ; @ @ @ @ @ @ @ @ @ @ @ @ @ @ @ @ > , . ' ) . . . . . . . . . . . . . . . . . . . . . . . . . . . . . . . . . . . . . . . ",
". . . . . . . . . . . . . . . . . . . ! ~ @ @ @ @ @ @ @ @ @ @ @ @ @ @ { ] . ^ / ( . . . . . . . . . . . . . . . . . . . . . . . . . . . . . . . . . . . . . . . ",
". . . . . . . . . . . . . . . . . . . . _ : @ @ @ @ @ @ @ @ @ @ @ @ < ] . [ } | . . . . . . . . . . . . . . . . . . . . . . . . . . . . . . . . . . . . . . . . ",
". . . . . . . . . . . . . . . . . . . . . 1 2 @ @ @ @ @ @ @ @ @ @ 3 ] . _ 4 5 . . . . . . . . . . . . . . . . . . . . . . . . . . . . . . . . . . . . . . . . . ",
". . . . . . . . . . . . . . . . . . . . . . 6 @ @ @ @ @ @ @ @ @ < 7 . 8 9 0 . . . . . . . . . . . . . . . . . . . . . . . . . . . . . . . . . . . . . . . . . . ",
". . . . . . . . . . . . . . . . . . . . . . a @ @ @ @ @ @ @ @ @ b . . c d = . . . . . . . . . . . . . . . . . . . . . . . . . . . . . . . . . . . . . . . . . . ",
". . . . . . . . . . . . . . . . . . . . . . a @ @ @ @ @ @ @ @ @ b . . e a . . . . . . . . . . . . . . . . . . . . . . . . . . . . . . . . . . . . . . . . . . . ",
". . . . . . . . . . . . . . . . . . . . . . a @ @ @ @ @ @ @ @ @ b . . e a . . . . . . . . . . . . . . . . . . . . . . . . . . . . . . . . . . . . . . . . . . . ",
". . . . . . . . . . . . . . . . . . . . . . a @ @ @ @ @ @ @ @ @ b . . e a . . . . . . . . . . . . . . . . . . . . . . . . . . . . . . . . . . . . . . . . . . . ",
". . . . . . . . . . . . . . . . . . . . . . a @ @ @ @ @ @ @ @ @ b . . e a . . . . . . . . . . . . . . . . . . . . . . . . . . . . . . . . . . . . . . . . . . . ",
". . . . . . . . . . . . . . . . . . . . . . a @ @ @ @ @ @ @ @ @ b . . e a . . . . . . . . . . . . . . . . . . . . . . . . . . . . . . . . . . . . . . . . . . . ",
". . . . . . . . . . . . . . . . . . . . . . a @ @ @ @ @ @ @ @ @ b . . e a . . . . . . . . . . . . . . . . . . . . . . . . . . . . . . . . . . . . . . . . . . . ",
". . . . . . . . . . . . . . . . . . . . . . a @ @ @ @ @ @ @ @ @ b . . e a . . . . . . . . . . . . . . . . . . . . . . . . . . . . . . . . . . . . . . . . . . . ",
". . . . . . . . . . . . . . . . . . . . . . a @ @ @ @ @ @ @ @ @ b . . e a . . . . . . . . . . . . . . . . . . . . . . . . . . . . . . . . . . . . . . . . . . . ",
". . . . . . . . . . . . . . . . . . . . . . a @ @ @ @ @ @ @ @ @ b . . e a . . . . . . . . . . . . . . . . . . . . . . . . . . . . . . . . . . . . . . . . . . . ",
". . . . . . . . . . . . . . . . . . . . . . a @ @ @ @ @ @ @ @ @ b . . e a . . . . . . . . . . . . . . . . . . . . . . . . . . . . . . . . . . . . . . . . . . . ",
". . . . . . . . . . . . . . . . . . . . . . a @ @ @ @ @ @ @ @ @ b . . e a . . . . . . . . . . . . . . . . . . . . . . . . . . . . . . . . . . . . . . . . . . . ",
". . . . . . . . . . . . . . . . . . . . . . a @ @ @ @ @ @ @ @ @ b . . e a . . . . . . . . . . . . . . . . . . . . . . . . . . . . . . . . . . . . . . . . . . . ",
". . . . . . . . . . . . . . . . . . . . . . a @ @ @ @ @ @ @ @ @ b . . e a . . . . . . . . . . . . . . . . . . . . . . . . . . . . . . . . . . . . . . . . . . . ",
". . . . . . . . . . . . . . . . . . . . . . a @ @ @ @ @ @ @ @ @ b . . e a . . . . . . . . . . . . . . . . . . . . . . . . . . . . . . . . . . . . . . . . . . . ",
". . . . . . . . . . . . . . . . . . . . . . a @ @ @ @ @ @ @ @ @ b . . e a . . . . . . . . . . . . . . . . . . . . . . . . . . . . . . . . . . . . . . . . . . . ",
". . . . . . . . . . . . . . . . . . . . . . a @ @ @ @ @ @ @ @ @ b . . e a . . . . . . . . . . . . . . . . . . . . . . . . . . . . . . . . . . . . . . . . . . . ",
". . . . . . . . . . . . . . . . . . . . . . a @ @ @ @ @ @ @ @ @ b . . e a . . . . . . . . . . . . . . . . . . . . . . . . . . . . . . . . . . . . . . . . . . . ",
". . . . . . . . . . . . . . . . . . . . . . a @ @ @ @ @ @ @ @ @ b . . e a . . . . . . . . . . . . . . . . . . . . . . . . . . . . . . . . . . . . . . . . . . . ",
". . . . . . . . . . . . . . . . . . . . . . a @ @ @ @ @ @ @ @ @ b . . e a . . . . . . . . . . . . . . . . . . . . . . . . . . . . . . . . . . . . . . . . . . . ",
". . . . . . . . . . . . . . . . . . . . . . a @ @ @ @ @ @ @ @ @ b . . e a . . . . . . . . . . . . . . . . . . . . . . . . . . . . . . . . . . . . . . . . . . . ",
". . . . . . . . . . . . . . . . . . . . . . a @ @ @ @ @ @ @ @ @ b . . e a . . . . . . . . . . . . . . . . . . . . . . . . . . . . . . . . . . . . . . . . . . . ",
". . . . . . . . . . . . . . . . . . . . . . a @ @ @ @ @ @ @ @ @ b . . e a . . . . . . . . . . . . . . . . . . . . . . . . . . . . . . . . . . . . . . . . . . . ",
". . . . . . . . . . . . . . . . . . . . . . a @ @ @ @ @ @ @ @ @ b . . e a . . . . . . . . . . . . . . . . . . . . . . . . . . . . . . . . . . . . . . . . . . . ",
". . . . . . . . . . . . . . . . . . . . . . a @ @ @ @ @ @ @ @ @ b . . e a . . . . . . . . . . . . . . . . . . . . . . . . . . . . . . . . . . . . . . . . . . . ",
". . . . . . . . . . . . . . . . . . . . . . a @ @ @ @ @ @ @ @ @ b . . e a . . . . . . . . . . . . . . . . . . . . . . . . . . . . . . . . . . . . . . . . . . . ",
". . . . . . . . . . . . . . . . . . . . . . a @ @ @ @ @ @ @ @ @ b . . e a . . . . . . . . . . . . . . . . . . . . . . . . . . . . . . . . . . . . . . . . . . . ",
". . . . . . . . . . . . . . . . . . . . . . a @ @ @ @ @ @ @ @ @ b . . e a . . . . . . . . . . . . . . . . . . . . . . . . . . . . . . . . . . . . . . . . . . . ",
". . . . . . . . . . . . . . . . . . . . . . a @ @ @ @ @ @ @ @ @ b . . e a . . . . . . . . . . . . . . . . . . . . . . . . . . . . . . . . . . . . . . . . . . . ",
". . . . . . . . . . . . . . . . . . . . . . a @ @ @ @ @ @ @ @ @ b . . e a . . . . . . . . . . . . . . . . . . . . . . . . . . . . . . . . . . . . . . . . . . . ",
". . . . . . . . . . . . . . . . . . . . . . a @ @ @ @ @ @ @ @ @ b . . e a . . . . . . . . . . . . . . . . . . . . . . . . . . . . . . . . . . . . . . . . . . . ",
". . . . . . . . . . . . . . . . . . . . . . a @ @ @ @ @ @ @ @ @ b . . e a . . . . . . . . . . . . . . . . . . . . . . . . . . . . . . . . . . . . . . . . . . . ",
". . . . . . . . . . . . . . . . . . . . . . a @ @ @ @ @ @ @ @ @ b . . e a . . . . . . . . . . . . . . . . . . . . . . . . . . . . . . . . . . . . . . . . . . . ",
". . . . . . . . . . . . . . . . . . . . . . a @ @ @ @ @ @ @ @ @ b . . e a . . . . . . . . . . . . . . . . . . . . . . . . . . . . . . . . . . . . . . . . . . . ",
". . . . . . . . . . . . . . . . . . . . . . a @ @ @ @ @ @ @ @ @ b . . e a . . . . . . . . . . . . . . . . . . . . . . . . . . . . . . . . . . . . . . . . . . . ",
". . . . . . . . . . . . . . . . . . . . . . a @ @ @ @ @ @ @ @ @ b . . e a . . . . . . . . . . . . . . . . . . . . . . . . . . . . . . . . . . . . . . . . . . . ",
". . . . . . . . . . . . . . . . . . . . . . a @ @ @ @ @ @ @ @ @ b . . e a . . . . . . . . . . . . . . . . . . . . . . . . . . . . . . . . . . . . . . . . . . . ",
". . . . . . . . . . . . . . . . . . . . . . a @ @ @ @ @ @ @ @ @ b . . e a . . . . . . . . . . . . . . . . . . . . f . . . . . . . . . . . . . . . . . . . . . . ",
". . . . . . . . . . . . . . . . . . . . . . a @ @ @ @ @ @ @ @ @ b . . e a . . . . . . . . . . . . . . . . . . . . g h . . . . . . . . . . . . . . . . . . . . . ",
". . . . . . . . . . . . . . . . . . . . . . a @ @ @ @ @ @ @ @ @ b . . e a . . . . . . . . . . . . . . . . . . . . i ^ . . . . . . . . . . . . . . . . . . . . . ",
". . . . . . . . . . . . . . . . . . . . . . a @ @ @ @ @ @ @ @ @ b . . e a . . . . . . . . . . . . . . . . . . . j @ k . . l m . . . . . . . . . . . . . . . . . ",
". . . . . . . . . . . . . . . . . . . . . . a @ @ @ @ @ @ @ @ @ b . . e a . . . . . . . . . . . . . . . . . . . n @ 4 $ . ] 2 o . . . . . . . . . . . . . . . . ",
". . . . . . . . . . . . . . . . . . . . . . a @ @ @ @ @ @ @ @ @ b . . e a . . . . . . . . . . . . . . . . . . . p @ @ q . . r s . . . . . . . . . . . . . . . . ",
". . . . . . . . . . . . . . . . . . . . . . a @ @ @ @ @ @ @ @ @ b . . e a . . . . . . . . . . . . . . . . . . 1 @ @ @ t . . u v ^ . . . . . . . . . . . . . . . ",
". . . . . . . . . . . . . . . . . . . . . . a @ @ @ @ @ @ @ @ @ b . . e a . . . . . . . . . . . . . . . . . . ) @ @ @ @ w . . x * . . . . . . . . . . . . . . . ",
". . . . . . . . . . . . . . . . . . . . . . a @ @ @ @ @ @ @ @ @ b . . e a . . . . . . . . . . . . . . . . . 8 @ @ @ @ @ d . . y z A . . . . . . . . . . . . . . ",
". . . . . . . . . . . . . . . . . . . . . . a @ @ @ @ @ @ @ @ @ b . . e a . . . . . . . . . . . . . . . . , B @ @ @ @ @ C D . . E F . . . . . . . . . . . . . . ",
". . . . . . . . . . . . . . . . . . . . . . a @ @ @ @ @ @ @ @ @ b . . e a . . . . . . . . . . . . . . . = G @ @ @ @ @ @ @ H . . m ; I . . . . . . . . . . . . . ",
". . . . . . . . . . . . . . . . . . . . . . a @ @ @ @ @ @ @ @ @ b . . e a . . . . . . . . . . . . . . , ) @ @ @ @ @ @ @ @ e J . . K L h . . . . . . . . . . . . ",
". . . . . . . . . . . . . . . . . . . . . . a @ @ @ @ @ @ @ @ @ b . . e a . . . . . . . . . . . . . [ M @ @ @ @ @ @ @ @ @ @ H . . J 2 N . . . . . . . . . . . . ",
". . . . . . . . . . . . . . . . . . . . . f s @ @ @ @ @ @ @ @ @ b . . e a . . . . . . . . . . h O P z @ @ @ @ @ @ @ @ @ @ @ / Q . . R 4 Q . . . . . . . . . . . ",
". . . . . . . . . . . . . . . . . . . . m L @ @ @ @ @ @ @ @ @ @ k w S ~ q j l , = $ u T ^ U V 2 @ @ @ @ @ @ @ @ @ @ @ @ @ @ @ W . . . X Y . . . . . . . . . . . ",
". . . . . . . . . . . . . . . . . . . 1 c @ @ @ @ @ @ @ @ @ @ @ @ @ @ @ @ @ @ @ @ @ @ @ @ @ @ @ @ @ @ @ @ @ @ @ @ @ @ @ @ @ @ @ ^ . . m Z I . . . . . . . . . . ",
". . . . . . . . . . . . . . . . . . a 9 @ @ @ @ @ @ @ @ @ @ @ @ @ @ @ @ @ @ @ @ @ @ @ @ @ @ @ @ @ @ @ @ @ @ @ @ @ @ @ @ @ @ @ @ ` S . . -  .D . . . . . . . . . ",
". . . . . . . . . . . . . . . . . ..; @ @ @ @ @ @ @ @ @ @ @ @ @ @ @ @ @ @ @ @ @ @ @ @ @ @ @ @ @ @ @ @ @ @ @ @ @ @ @ @ @ @ @ @ @ @ V . . . 0 +.. . . . . . . . . ",
". . . . . . . . . . . . . . . . @.z @ @ @ @ @ @ @ @ @ @ @ @ @ @ @ @ @ @ @ @ @ @ @ @ @ @ @ @ @ @ @ @ @ @ @ @ @ @ @ @ @ @ @ @ @ @ @ @ #.. . ] $.n . . . . . . . . ",
". . . . . . . . . . . . . . . . . . . . . . . . . . . . . . . . . . . . . . . . . . . . . . . . . . . . . . . . . . . . . . . . . . . . . . %.@.. . . . . . . . ",
". . . . . . . . . . . . . . . . . . . . . . . . . . . . . . . . . . . . . . . . . . . . . . . . . . . . . . . . . . . . . . . . . . . . . ^ i 7 . . . . . . . . ",
". . . . . . . . . . . . . . . . . . . . . . . . . . . . . . . . . . . . . . . . . . . . . . . . . . . . . . . . . . . . . . . . . . . . . &.*.. . . . . . . . . ",
". . . . . . . . . . . . . . . . . =.-.@ @ @ @ @ @ @ @ @ @ @ @ @ @ @ @ @ @ @ @ @ @ @ @ @ @ @ @ @ @ @ @ @ @ @ @ @ @ @ @ @ @ @ @ @ @ @ @ @ @ $.= . . . . . . . . . ",
". . . . . . . . . . . . . . . . . . . . . . . . . . . . . . . . . . . . . . . . . . . . . . . . . . . . . . . . . . . . . . . . . . . . . . . . . . . . . . . . ",
". . . . . . . . . . . . . . . . . . . . . . . . . . . . . . . . . . . . . . . . . . . . . . . . . . . . . . . . . . . . . . . . . . . . . . . . . . . . . . . . ",
". . . . . . . . . . . . . . . . . . . . . . . . . . . . . . . . . . . . . . . . . . . . . . . . . . . . . . . . . . . . . . . . . . . . . . . . . . . . . . . . ",
". . . . . . . . . . . . . . . . . . . . . . . . . . . . . . . . . . . . . . . . . . . . . . . . . . . . . . . . . . . . . . . . . . . . . . . . . . . . . . . . ",
". . . . . . . . . . . . . . . . . . . . . . . . . . . . . . . . . . . . . . . . . . . . . . . . . . . . . . . . . . . . . . . . . . . . . . . . . . . . . . . . ",
". . . . . . . . . . . . . . . . . . . . . . . . . . . . . . . . . . . . . . . . . . . . . . . . . . . . . . . . . . . . . . . . . . . . . . . . . . . . . . . . "};
