/* XPM */
static xpm_row_t const letterQ_xpm[] = {
"80 80 179 2",
"  	c None",
". 	c #FF0000",
"+ 	c #F10000",
"@ 	c #CF0000",
"# 	c #B20000",
"$ 	c #940000",
"% 	c #700000",
"& 	c #560000",
"* 	c #3D0000",
"= 	c #1C0000",
"- 	c #950000",
"; 	c #B30000",
"> 	c #D20000",
", 	c #F40000",
"' 	c #EE0000",
") 	c #B60000",
"! 	c #680000",
"~ 	c #000000",
"{ 	c #750000",
"] 	c #C00000",
"^ 	c #E30000",
"/ 	c #8A0000",
"( 	c #220000",
"_ 	c #A00000",
": 	c #EF0000",
"< 	c #930000",
"[ 	c #2A0000",
"} 	c #FB0000",
"| 	c #F70000",
"1 	c #DD0000",
"2 	c #CB0000",
"3 	c #470000",
"4 	c #A40000",
"5 	c #D10000",
"6 	c #EA0000",
"7 	c #F60000",
"8 	c #FD0000",
"9 	c #FA0000",
"0 	c #E20000",
"a 	c #C70000",
"b 	c #910000",
"c 	c #6E0000",
"d 	c #E70000",
"e 	c #900000",
"f 	c #FC0000",
"g 	c #530000",
"h 	c #C50000",
"i 	c #F50000",
"j 	c #B70000",
"k 	c #380000",
"l 	c #D40000",
"m 	c #730000",
"n 	c #B80000",
"o 	c #FE0000",
"p 	c #860000",
"q 	c #830000",
"r 	c #0D0000",
"s 	c #C40000",
"t 	c #F90000",
"u 	c #7F0000",
"v 	c #AB0000",
"w 	c #630000",
"x 	c #400000",
"y 	c #4D0000",
"z 	c #6D0000",
"A 	c #9E0000",
"B 	c #C80000",
"C 	c #F80000",
"D 	c #7C0000",
"E 	c #770000",
"F 	c #8C0000",
"G 	c #ED0000",
"H 	c #990000",
"I 	c #7E0000",
"J 	c #C30000",
"K 	c #DC0000",
"L 	c #B90000",
"M 	c #850000",
"N 	c #9F0000",
"O 	c #160000",
"P 	c #D50000",
"Q 	c #800000",
"R 	c #A90000",
"S 	c #D00000",
"T 	c #7D0000",
"U 	c #F20000",
"V 	c #CA0000",
"W 	c #EC0000",
"X 	c #F30000",
"Y 	c #4F0000",
"Z 	c #E60000",
"` 	c #AD0000",
" .	c #E50000",
"..	c #DA0000",
"+.	c #A70000",
"@.	c #DE0000",
"#.	c #B00000",
"$.	c #A60000",
"%.	c #3B0000",
"&.	c #F00000",
"*.	c #960000",
"=.	c #890000",
"-.	c #260000",
";.	c #920000",
">.	c #DB0000",
",.	c #9C0000",
"'.	c #320000",
").	c #9D0000",
"!.	c #8D0000",
"~.	c #D80000",
"{.	c #780000",
"].	c #B50000",
"^.	c #E00000",
"/.	c #E40000",
"(.	c #870000",
"_.	c #820000",
":.	c #A30000",
"<.	c #9A0000",
"[.	c #D30000",
"}.	c #D70000",
"|.	c #BB0000",
"1.	c #CE0000",
"2.	c #420000",
"3.	c #6A0000",
"4.	c #5C0000",
"5.	c #690000",
"6.	c #E90000",
"7.	c #970000",
"8.	c #760000",
"9.	c #D90000",
"0.	c #EB0000",
"a.	c #840000",
"b.	c #620000",
"c.	c #4B0000",
"d.	c #E80000",
"e.	c #C10000",
"f.	c #DF0000",
"g.	c #450000",
"h.	c #A20000",
"i.	c #2E0000",
"j.	c #AF0000",
"k.	c #600000",
"l.	c #9B0000",
"m.	c #350000",
"n.	c #BA0000",
"o.	c #5A0000",
"p.	c #660000",
"q.	c #CC0000",
"r.	c #720000",
"s.	c #6C0000",
"t.	c #BD0000",
"u.	c #AA0000",
"v.	c #790000",
"w.	c #B40000",
"x.	c #8E0000",
"y.	c #5F0000",
"z.	c #7A0000",
"A.	c #880000",
"B.	c #C20000",
"C.	c #A50000",
"D.	c #D60000",
"E.	c #8B0000",
"F.	c #B10000",
"G.	c #810000",
"H.	c #510000",
"I.	c #E10000",
"J.	c #AC0000",
"K.	c #980000",
"L.	c #A10000",
"M.	c #550000",
"N.	c #650000",
"O.	c #CD0000",
"P.	c #490000",
"Q.	c #BF0000",
"R.	c #BE0000",
"S.	c #710000",
"T.	c #AE0000",
"U.	c #C60000",
"V.	c #BC0000",
". . . . . . . . . . . . . . . . . . . . . . . . . . . . . . . . . . . . . . . . . . . . . . . . . . . . . . . . . . . . . . . . . . . . . . . . . . . . . . . . ",
". . . . . . . . . . . . . . . . . . . . . . . . . . . . . . . . . . . . . . . . . . . . . . . . . . . . . . . . . . . . . . . . . . . . . . . . . . . . . . . . ",
". . . . . . . . . . . . . . . . . . . . . . . . . . . . . . + @ # $ % & * = * & % - ; > , . . . . . . . . . . . . . . . . . . . . . . . . . . . . . . . . . . . ",
". . . . . . . . . . . . . . . . . . . . . . . . . . . ' ) ! ~ ~ ~ ~ ~ ~ ~ ~ ~ ~ ~ ~ ~ ~ ~ { ] , . . . . . . . . . . . . . . . . . . . . . . . . . . . . . . . . ",
". . . . . . . . . . . . . . . . . . . . . . . . . ^ / ~ ~ ~ ~ ~ ~ ~ ~ ~ ~ ~ ~ ~ ~ ~ ~ ~ ~ ~ ~ ( _ : . . . . . . . . . . . . . . . . . . . . . . . . . . . . . . ",
". . . . . . . . . . . . . . . . . . . . . . . : < ~ ~ ~ ~ ~ ~ ~ ~ ~ ~ ~ ~ ~ ~ ~ ~ ~ ~ ~ ~ ~ ~ ~ ~ [ # } . | 1 . . . . . . . . . . . . . . . . . . . . . . . . . ",
". . . . . . . . . . . . . . . . . . . . . . 2 * ~ ~ ~ ~ ~ ~ ~ 3 4 5 6 7 8 9 , 0 a b [ ~ ~ ~ ~ ~ ~ ~ ~ c d . 1 e d . . . . . . . . . . . . . . . . . . . . . . . ",
". . . . . . . . . . . . . . . . . . . . f _ ~ ~ ~ ~ ~ ~ ~ g h } . . . . . . . . . . i j k ~ ~ ~ ~ ~ ~ ~ [ l . ' m n o . . . . . . . . . . . . . . . . . . . . . ",
". . . . . . . . . . . . . . . . . . . | p ~ ~ ~ ~ ~ ~ ~ $ 7 . . . . . . . . . . . . . . ' q ~ ~ ~ ~ ~ ~ ~ r s . t q / t . . . . . . . . . . . . . . . . . . . . ",
". . . . . . . . . . . . . . . . . . 9 u ~ ~ ~ ~ ~ ~ ~ v . . . . . ' ] $ w x ( y z A a i . f A ~ ~ ~ ~ ~ ~ ~ ~ B . C D E | . . . . . . . . . . . . . . . . . . . ",
". . . . . . . . . . . . . . . . . f F ~ ~ ~ ~ ~ ~ ~ _ . . . . G H r I J 0 i f } + K L M N + o $ ~ ~ ~ ~ ~ ~ ~ O P . 7 m Q 9 . . . . . . . . . . . . . . . . . . ",
". . . . . . . . . . . . . . . . . R ~ ~ ~ ~ ~ ~ ~ { } . . . S k T ^ . . . . . . . . . . U V i 9 z ~ ~ ~ ~ ~ ~ ~ k W . X Y A . . . . . . . . . . . . . . . . . . ",
". . . . . . . . . . . . . . . . > ~ ~ ~ ~ ~ ~ ~ O Z . . . B ~ ` 8 . . . . . . . . . . . . . . .  .= ~ ~ ~ ~ ~ ~ ~ m } . ..~ B . . . . . . . . . . . . . . . . . ",
". . . . . . . . . . . . . . . + * ~ ~ ~ ~ ~ ~ ~ +.. . . @.O #.. . . . . . . . . . . . . . . . . . $.~ ~ ~ ~ ~ ~ ~ ~ # . . # %.&.. . . . . . . . . . . . . . . . ",
". . . . . . . . . . . . . . . *.~ ~ ~ ~ ~ ~ ~ ( : . . t & =.o . . . . . . . . . . . . . . . . . . + -.~ ~ ~ ~ ~ ~ ~ ( W . f z ;.. . . . . . . . . . . . . . . . ",
". . . . . . . . . . . . . . >.~ ~ ~ ~ ~ ~ ~ ~ ,.. . . ) '.+ . . . . . . . . . . . . . . . . . . . . ).~ ~ ~ ~ ~ ~ ~ ~ !.. . ~.~ @.. . . . . . . . . . . . . . . ",
". . . . . . . . . . . . . . {.~ ~ ~ ~ ~ ~ ~ ~ K . . t x ].. . . . . . . . . . . . . . . . . . . . . ^.~ ~ ~ ~ ~ ~ ~ ~ ~ /.. . (._.. . . . . . . . . . . . . . . ",
". . . . . . . . . . . . . ..~ ~ ~ ~ ~ ~ ~ ~ g o . . a ( X . . . . . . . . . . . . . . . . . . . . . . & ~ ~ ~ ~ ~ ~ ~ ~ - . . Z ~ d . . . . . . . . . . . . . . ",
". . . . . . . . . . . . . p ~ ~ ~ ~ ~ ~ ~ ~ :.. . . _.<.. . . . . . . . . . . . . . . . . . . . . . . R ~ ~ ~ ~ ~ ~ ~ ~ r ' . . _.:.. . . . . . . . . . . . . . ",
". . . . . . . . . . . . ' ~ ~ ~ ~ ~ ~ ~ ~ ~ l . . , r [.. . . . . . . . . . . . . . . . . . . . . . . }.~ ~ ~ ~ ~ ~ ~ ~ ~ |.. . 1.[ i . . . . . . . . . . . . . ",
". . . . . . . . . . . . L ~ ~ ~ ~ ~ ~ ~ ~ ~ X . . > ( C . . . . . . . . . . . . . . . . . . . . . . . i ~ ~ ~ ~ ~ ~ ~ ~ ~ ! . . } 2.s . . . . . . . . . . . . . ",
". . . . . . . . . . . . 3.~ ~ ~ ~ ~ ~ ~ ~ 4.. . . R I . . . . . . . . . . . . . . . . . . . . . . . . . 5.~ ~ ~ ~ ~ ~ ~ ~ ~ 6.. . +.F . . . . . . . . . . . . . ",
". . . . . . . . . . . &.~ ~ ~ ~ ~ ~ ~ ~ ~ 7.. . . 8.# . . . . . . . . . . . . . . . . . . . . . . . . . H ~ ~ ~ ~ ~ ~ ~ ~ ~ J . . P [ 9 . . . . . . . . . . . . ",
". . . . . . . . . . . 2 ~ ~ ~ ~ ~ ~ ~ ~ ~ ) . . 8 [ [.. . . . . . . . . . . . . . . . . . . . . . . . . L ~ ~ ~ ~ ~ ~ ~ ~ ~ b . . 7 r 9.. . . . . . . . . . . . ",
". . . . . . . . . . . N ~ ~ ~ ~ ~ ~ ~ ~ ~ S . . 0.~ 6 . . . . . . . . . . . . . . . . . . . . . . . . . > ~ ~ ~ ~ ~ ~ ~ ~ ~ 2.. . . {.` . . . . . . . . . . . . ",
". . . . . . . . . . . % ~ ~ ~ ~ ~ ~ ~ ~ ~ ^ . . ~.= f . . . . . . . . . . . . . . . . . . . . . . . . . 0 ~ ~ ~ ~ ~ ~ ~ ~ ~ ~ &.. . #.a.. . . . . . . . . . . . ",
". . . . . . . . . . } = ~ ~ ~ ~ ~ ~ ~ ~ ~ : . . h b.. . . . . . . . . . . . . . . . . . . . . . . . . . : ~ ~ ~ ~ ~ ~ ~ ~ ~ ~ 9.. . V c.. . . . . . . . . . . . ",
". . . . . . . . . . d.~ ~ ~ ~ ~ ~ ~ ~ ~ ~ } . . # (.. . . . . . . . . . . . . . . . . . . . . . . . . . } ~ ~ ~ ~ ~ ~ ~ ~ ~ ~ e.. . f.~ i . . . . . . . . . . . ",
". . . . . . . . . . 9.~ ~ ~ ~ ~ ~ ~ ~ ~ g.. . . N h.. . . . . . . . . . . . . . . . . . . . . . . . . . . i.~ ~ ~ ~ ~ ~ ~ ~ ~ j.. . U ~ 0 . . . . . . . . . . . ",
". . . . . . . . . . V ~ ~ ~ ~ ~ ~ ~ ~ ~ k.. . . !.# . . . . . . . . . . . . . . . . . . . . . . . . . . . g ~ ~ ~ ~ ~ ~ ~ ~ ~ l.. . . m.1.. . . . . . . . . . . ",
". . . . . . . . . . n.~ ~ ~ ~ ~ ~ ~ ~ ~ m . . . {.] . . . . . . . . . . . . . . . . . . . . . . . . . . . 3.~ ~ ~ ~ ~ ~ ~ ~ ~ q . . . o.h . . . . . . . . . . . ",
". . . . . . . . . . j.~ ~ ~ ~ ~ ~ ~ ~ ~ q . . . p.q.. . . . . . . . . . . . . . . . . . . . . . . . . . . r.~ ~ ~ ~ ~ ~ ~ ~ ~ 8.. . . s.t.. . . . . . . . . . . ",
". . . . . . . . . . u.~ ~ ~ ~ ~ ~ ~ ~ ~ =.. . . g l . . . . . . . . . . . . . . . . . . . . . . . . . . . {.~ ~ ~ ~ ~ ~ ~ ~ ~ s.. . . v.w.. . . . . . . . . . . ",
". . . . . . . . . . :.~ ~ ~ ~ ~ ~ ~ ~ ~ x.. . . k ... . . . . . . . . . . . . . . . . . . . . . . . . . . I ~ ~ ~ ~ ~ ~ ~ ~ ~ y.. . . p v . . . . . . . . . . . ",
". . . . . . . . . . _ ~ ~ ~ ~ ~ ~ ~ ~ ~ ;.. . . = ^.. . . . . . . . . . . . . . . . . . . . . . . . . . . T ~ ~ ~ ~ ~ ~ ~ ~ ~ 4.. . . !.:.. . . . . . . . . . . ",
". . . . . . . . . . $.~ ~ ~ ~ ~ ~ ~ ~ ~ < . . . ~ /.. . . . . . . . . . . . . . . . . . . . . . . . . . . {.~ ~ ~ ~ ~ ~ ~ ~ ~ 5.. . . a.u.. . . . . . . . . . . ",
". . . . . . . . . . ` ~ ~ ~ ~ ~ ~ ~ ~ ~ !.. . 8 ~ Z . . . . . . . . . . . . . . . . . . . . . . . . . . . m ~ ~ ~ ~ ~ ~ ~ ~ ~ 8.. . . z.#.. . . . . . . . . . . ",
". . . . . . . . . . w.~ ~ ~ ~ ~ ~ ~ ~ ~ A.. . f ~ d . . . . . . . . . . . . . . . . . . . . . . . . . . . 3.~ ~ ~ ~ ~ ~ ~ ~ ~ Q . . . c j . . . . . . . . . . . ",
". . . . . . . . . . B.~ ~ ~ ~ ~ ~ ~ ~ ~ u . . o ~ d.. . . . . . . . . . . . . . . . . . . . . . . . . . . & ~ ~ ~ ~ ~ ~ ~ ~ ~ !.. . . y.e.. . . . . . . . . . . ",
". . . . . . . . . . > ~ ~ ~ ~ ~ ~ ~ ~ ~ 5.. . . [  .. . . . . . . . . . . . . . . . . . . . . . . . . . . %.~ ~ ~ ~ ~ ~ ~ ~ ~ C.. . o -.> . . . . . . . . . . . ",
". . . . . . . . . . 0 ~ ~ ~ ~ ~ ~ ~ ~ ~ c.. . . g.^.. . . . . . . . . . . . . . . . . . . . . . . . . . 8 r ~ ~ ~ ~ ~ ~ ~ ~ ~ |.. . X ~ 0 . . . . . . . . . . . ",
". . . . . . . . . . , ~ ~ ~ ~ ~ ~ ~ ~ ~ O 8 . . & K . . . . . . . . . . . . . . . . . . . . . . . . . . X ~ ~ ~ ~ ~ ~ ~ ~ ~ ~ 1.. .  .~ &.. . . . . . . . . . . ",
". . . . . . . . . . . & ~ ~ ~ ~ ~ ~ ~ ~ ~ &.. . ! D.. . . . . . . . . . . . . . . . . . . . . . . . . . d.~ ~ ~ ~ ~ ~ ~ ~ ~ ~ 0 . . l k o . . . . . . . . . . . ",
". . . . . . . . . . . b ~ ~ ~ ~ ~ ~ ~ ~ ~ ^.. . M V . . . . . . . . . . . . . . . . . . . . . . . . . . >.~ ~ ~ ~ ~ ~ ~ ~ ~ = 9 . . ].q . . . . . . . . . . . . ",
". . . . . . . . . . . t.~ ~ ~ ~ ~ ~ ~ ~ ~ 2 . . _ ) . . . . . . . . . . . . . . . . . . . . . . . . . . a ~ ~ ~ ~ ~ ~ ~ ~ ~ E . . . E.j.. . . . . . . . . . . . ",
". . . . . . . . . . .  .~ ~ ~ ~ ~ ~ ~ ~ ~ ` . . ) N . . . . . . . . . . . . . . . . . . . . . . . . . . F.~ ~ ~ ~ ~ ~ ~ ~ ~ u.. . . 3 5 . . . . . . . . . . . . ",
". . . . . . . . . . . o y ~ ~ ~ ~ ~ ~ ~ ~ q . . V G.. . . . . . . . . . . . . . . . . . . . . . . . . . x.~ ~ ~ ~ ~ ~ ~ ~ ~ }.. . 0.r i . . . . . . . . . . . . ",
". . . . . . . . . . . . $.~ ~ ~ ~ ~ ~ ~ ~ i.} . 0 k 8 . . . . . . . . . . . . . . . . . . . . . . . . . H.~ ~ ~ ~ ~ ~ ~ ~ * } . . ] T . . . . . . . . . . . . . ",
". . . . . . . . . . . . I.~ ~ ~ ~ ~ ~ ~ ~ ~ ^.. } ( d.. . . . . . . . . . . . . . . . . . . . . . . . U ~ ~ ~ ~ ~ ~ ~ ~ ~ N . . . _.|.. . . . . . . . . . . . . ",
". . . . . . . . . . . . . p.~ ~ ~ ~ ~ ~ ~ ~ ) . . v.B . . . . . . . . . . . . . . X . . . . . . . . . 5 ~ ~ ~ ~ ~ ~ ~ ~ ~ 1 . . i O W . . . . . . . . . . . . . ",
". . . . . . . . . . . . . h ~ ~ ~ ~ ~ ~ ~ ~ ! . . J.K.. . . . . . . . . . . . . d.O F ... . . . . . . +.~ ~ ~ ~ ~ ~ ~ ~ v.. . . B._.. . . . . . . . . . . . . . ",
". . . . . . . . . . . . . } H.~ ~ ~ ~ ~ ~ ~ ~ d . K i.C . . . . . . . . . . . . . 0 L.[ I f.. . . . o M.~ ~ ~ ~ ~ ~ ~ ~ P . . o N.O.. . . . . . . . . . . . . . ",
". . . . . . . . . . . . . . B.~ ~ ~ ~ ~ ~ ~ ~ $.. 8 g 1.. . . . . . . . . . P C . . . + +.( ,.X . . 0 ~ ~ ~ ~ ~ ~ ~ ~ { o . . >.y 9 . . . . . . . . . . . . . . ",
". . . . . . . . . . . . . . f 5.~ ~ ~ ~ ~ ~ ~ '.7 . ` _.. . . . . . . . . n ~ m.u.X . . . 6 z.P.P . :.~ ~ ~ ~ ~ ~ ~ r /.. . . M Q.. . . . . . . . . . . . . . . ",
". . . . . . . . . . . . . . . 1 ~ ~ ~ ~ ~ ~ ~ ~ F.. 6.~ 1 . . . . . . . P ~ ~ ~ ~ '.L f . . 8 ) ~ h.'.~ ~ ~ ~ ~ ~ ~ u.. . . ~.c.t . . . . . . . . . . . . . . . ",
". . . . . . . . . . . . . . . . :.~ ~ ~ ~ ~ ~ ~ i.: . - G.. . . . . . 6.k ~ ~ ~ ~ ~ ~ c /.. . . @ = ~ ~ ~ ~ ~ ~ ~ 4.| . . 8 c ] . . . . . . . . . . . . . . . . ",
". . . . . . . . . . . . . . . . 9 z ~ ~ ~ ~ ~ ~ ~ / . G -.q.. . . . o _.~ ~ ~ ~ ~ ~ ~ ~ ( ] . . P ~ ~ ~ ~ ~ ~ ~ -./.. . . B.c f . . . . . . . . . . . . . . . . ",
". . . . . . . . . . . . . . . . . 6 %.~ ~ ~ ~ ~ ~ ~ B.. ] k G . . . . . } ' q.T ~ ~ ~ ~ ~ ~ b d.3 ~ ~ ~ ~ ~ ~ ~ h . . . 6 i.^.. . . . . . . . . . . . . . . . . ",
". . . . . . . . . . . . . . . . . . K ( ~ ~ ~ ~ ~ ~ O ... <.{ | . . . . . . . . 1.k ~ ~ ~ ~ ~ r ~ ~ ~ ~ ~ ~ ~ N . . . f m C.. . . . . . . . . . . . . . . . . . ",
". . . . . . . . . . . . . . . . . . . 5 r ~ ~ ~ ~ ~ ~ i.~.f K.v.| . . . . . . . . ^ * ~ ~ ~ ~ ~ ~ ~ ~ ~ ~ ~ x.f . . . _ z 9 . . . . . . . . . . . . . . . . . . ",
". . . . . . . . . . . . . . . . . . . . > -.~ ~ ~ ~ ~ ~ = t.f R.T ' . . . . . . . . }.~ ~ ~ ~ ~ ~ ~ ~ ~ ~ u 9 . . . ) '.6.. . . . . . . . . . . . . . . . . . . ",
". . . . . . . . . . . . . . . . . . . . . @.g.~ ~ ~ ~ ~ ~ ~ {.K &.w.D.. . . . . . . . C.~ ~ ~ ~ ~ ~ ~ ~ S.7 . . . ^ ~ T | . . . . . . . . . . . . . . . . . . . ",
". . . . . . . . . . . . . . . . . . . . . . &.q ~ ~ ~ ~ ~ ~ ~ ~ 5.j ..+ 9 o 9 &.^.h l.2.~ ~ ~ ~ ~ ~ ~ ~ y./.. . . . V -.o.O.} . . . . . . . . . . . . . . . . . ",
". . . . . . . . . . . . . . . . . . . . . . . o B.2.~ ~ ~ ~ ~ ~ ~ ~ ~ ~ ~ ~ ~ ~ ~ ~ ~ ~ ~ ~ ~ ~ ~ ~ ~ ~ ~ -.s 8 . . . 6.E.~ c.+.> + o . . . . . . . . . . . . . ",
". . . . . . . . . . . . . . . . . . . . . . . . . 7 T.k ~ ~ ~ ~ ~ ~ ~ ~ ~ ~ ~ ~ ~ ~ ~ ~ ~ ~ ~ ~ ~ ~ ~ ~ ~ ~ ~ p.1.8 . . . /.# v.H.[ z j 9 X Z . . . . . . . . . ",
". . . . . . . . . . . . . . . . . . . . . . . . . . . C U.T r ~ ~ ~ ~ ~ ~ ~ ~ ~ ~ ~ ~ ~ ~ '.8.~ ~ ~ ~ ~ ~ ~ ~ ~ ~ c.,.O.Z + } f 7 d > j.v.r K . . . . . . . . . ",
". . . . . . . . . . . . . . . . . . . . . . . . . . /.. . . 7 [.w.$ s.g m.O m.y c F u.a 0 f . L.~ ~ ~ ~ ~ ~ ~ ~ ~ ~ ~ ~ ~ ~ ~ ~ ~ ~ ~ ~ ~ u.. . o O.f . . . . . ",
". . . . . . . . . . . . . . . . . . . . . . . . . . @.=.@ 8 . . . . . . . . . . . . . . . . . C y ~ ~ ~ ~ ~ ~ ~ ~ ~ ~ ~ ~ ~ ~ ~ ~ ~ ~ ~ ! 9 . . B.x : . . . . . ",
". . . . . . . . . . . . . . . . . . . . . . . . . . . | J.y.j. .. . . . . . . . . . . . . 7 B S.( '.~ ~ ~ ~ ~ ~ ~ ~ ~ ~ ~ ~ ~ ~ ~ ~ ~ ~ @.. . 0.i.5 . . . . . . ",
". . . . . . . . . . . . . . . . . . . . . . . . . . . . . + ].4.y.N U.^ : C o t X d 5 w.D O {.J i @.-.~ ~ ~ ~ ~ ~ ~ ~ ~ ~ ~ ~ ~ ~ ~ ~ N . . 8 z.:.. . . . . . . ",
". . . . . . . . . . . . . . . . . . . . . . . . . . . . . . . . d.h :.G.y.* = -.c.! e F.> i . . . . > O ~ ~ ~ ~ ~ ~ ~ ~ ~ ~ ~ ~ ~ ~ x , . . n.4.C . . . . . . . ",
". . . . . . . . . . . . . . . . . . . . . . . . . . . . . . . . . . . . . . . . . . . . . . . . . . . > = ~ ~ ~ ~ ~ ~ ~ ~ ~ ~ ~ ~ ~ Q.. . Z ( K . . . . . . . . ",
". . . . . . . . . . . . . . . . . . . . . . . . . . . . . . . . . . . . . . . . . . . . . . . . . . . . K g.~ ~ ~ ~ ~ ~ ~ ~ ~ ~ ~ y.} . f S.4 . . . . . . . . . ",
". . . . . . . . . . . . . . . . . . . . . . . . . . . . . . . . . . . . . . . . . . . . . . . . . . . . . G v.~ ~ ~ ~ ~ ~ ~ ~ ~ ~ 5 . . |.c.7 . . . . . . . . . ",
". . . . . . . . . . . . . . . . . . . . . . . . . . . . . . . . . . . . . . . . . . . . . . . . . . . . . . 8 V.'.~ ~ ~ ~ ~ ~ ~ z.. . W [ 2 . . . . . . . . . . ",
". . . . . . . . . . . . . . . . . . . . . . . . . . . . . . . . . . . . . . . . . . . . . . . . . . . . . . . . U +.[ ~ ~ ~ ~ ~ ^.. . p u . . . . . . . . . . . ",
". . . . . . . . . . . . . . . . . . . . . . . . . . . . . . . . . . . . . . . . . . . . . . . . . . . . . . . . . . i ] z.~ ~ - . . }.~ /.. . . . . . . . . . . ",
". . . . . . . . . . . . . . . . . . . . . . . . . . . . . . . . . . . . . . . . . . . . . . . . . . . . . . . . . . . . . , }.: . 8 z ).. . . . . . . . . . . . ",
". . . . . . . . . . . . . . . . . . . . . . . . . . . . . . . . . . . . . . . . . . . . . . . . . . . . . . . . . . . . . . . . . ~.i.&.. . . . . . . . . . . . ",
". . . . . . . . . . . . . . . . . . . . . . . . . . . . . . . . . . . . . . . . . . . . . . . . . . . . . . . . . . . . . . . . . . : . . . . . . . . . . . . . "};
