/* XPM */
static xpm_row_t const letterD_xpm[] = {
"80 80 162 2",
"  	c None",
". 	c #FF0000",
"+ 	c #EE0000",
"@ 	c #530000",
"# 	c #000000",
"$ 	c #260000",
"% 	c #3B0000",
"& 	c #4B0000",
"* 	c #600000",
"= 	c #7C0000",
"- 	c #900000",
"; 	c #A50000",
"> 	c #BE0000",
", 	c #D50000",
"' 	c #EB0000",
") 	c #FE0000",
"! 	c #E90000",
"~ 	c #470000",
"{ 	c #400000",
"] 	c #8B0000",
"^ 	c #C00000",
"/ 	c #EC0000",
"( 	c #E40000",
"_ 	c #6D0000",
": 	c #C40000",
"< 	c #F70000",
"[ 	c #DE0000",
"} 	c #2E0000",
"| 	c #380000",
"1 	c #B80000",
"2 	c #F90000",
"3 	c #D80000",
"4 	c #1C0000",
"5 	c #FC0000",
"6 	c #FA0000",
"7 	c #F40000",
"8 	c #EA0000",
"9 	c #CB0000",
"0 	c #B20000",
"a 	c #860000",
"b 	c #4F0000",
"c 	c #D60000",
"d 	c #C30000",
"e 	c #FB0000",
"f 	c #DC0000",
"g 	c #A30000",
"h 	c #350000",
"i 	c #A80000",
"j 	c #FD0000",
"k 	c #F60000",
"l 	c #B40000",
"m 	c #2A0000",
"n 	c #920000",
"o 	c #F80000",
"p 	c #880000",
"q 	c #6E0000",
"r 	c #4D0000",
"s 	c #160000",
"t 	c #450000",
"u 	c #690000",
"v 	c #8C0000",
"w 	c #B10000",
"x 	c #DA0000",
"y 	c #700000",
"z 	c #810000",
"A 	c #E20000",
"B 	c #E60000",
"C 	c #F10000",
"D 	c #E70000",
"E 	c #D00000",
"F 	c #560000",
"G 	c #C20000",
"H 	c #7D0000",
"I 	c #C80000",
"J 	c #CC0000",
"K 	c #CA0000",
"L 	c #780000",
"M 	c #AF0000",
"N 	c #D10000",
"O 	c #E50000",
"P 	c #EF0000",
"Q 	c #DB0000",
"R 	c #5C0000",
"S 	c #6C0000",
"T 	c #F50000",
"U 	c #AD0000",
"V 	c #C90000",
"W 	c #960000",
"X 	c #220000",
"Y 	c #770000",
"Z 	c #850000",
"` 	c #D40000",
" .	c #7E0000",
"..	c #D20000",
"+.	c #650000",
"@.	c #C70000",
"#.	c #BD0000",
"$.	c #940000",
"%.	c #970000",
"&.	c #0D0000",
"*.	c #F30000",
"=.	c #7A0000",
"-.	c #CD0000",
";.	c #CE0000",
">.	c #950000",
",.	c #A90000",
"'.	c #510000",
").	c #800000",
"!.	c #730000",
"~.	c #5F0000",
"{.	c #8F0000",
"].	c #B60000",
"^.	c #D90000",
"/.	c #A00000",
"(.	c #840000",
"_.	c #AA0000",
":.	c #DD0000",
"<.	c #9B0000",
"[.	c #930000",
"}.	c #F20000",
"|.	c #9E0000",
"1.	c #A40000",
"2.	c #AB0000",
"3.	c #B70000",
"4.	c #320000",
"5.	c #D70000",
"6.	c #B00000",
"7.	c #990000",
"8.	c #9D0000",
"9.	c #DF0000",
"0.	c #BC0000",
"a.	c #BB0000",
"b.	c #E30000",
"c.	c #660000",
"d.	c #8A0000",
"e.	c #490000",
"f.	c #9F0000",
"g.	c #620000",
"h.	c #580000",
"i.	c #B90000",
"j.	c #5D0000",
"k.	c #3D0000",
"l.	c #830000",
"m.	c #ED0000",
"n.	c #E00000",
"o.	c #7F0000",
"p.	c #C50000",
"q.	c #550000",
"r.	c #AE0000",
"s.	c #9C0000",
"t.	c #E80000",
"u.	c #630000",
"v.	c #8E0000",
"w.	c #980000",
"x.	c #C60000",
"y.	c #750000",
"z.	c #720000",
"A.	c #AC0000",
"B.	c #C10000",
"C.	c #420000",
"D.	c #790000",
"E.	c #A10000",
". . . . . . . . . . . . . . . . . . . . . . . . . . . . . . . . . . . . . . . . . . . . . . . . . . . . . . . . . . . . . . . . . . . . . . . . . . . . . . . . ",
". . . . . . . . . . . . . . . . . . . . . . . . . . . . . . . . . . . . . . . . . . . . . . . . . . . . . . . . . . . . . . . . . . . . . . . . . . . . . . . . ",
". . . . . . . . . . . . . . . . . . . . . . . . . . . . . . . . . . . . . . . . . . . . . . . . . . . . . . . . . . . . . . . . . . . . . . . . . . . . . . . . ",
". . . . . . . . . . . . . . . . . . . . . . . . . . . . . . . . . . . . . . . . . . . . . . . . . . . . . . . . . . . . . . . . . . . . . . . . . . . . . . . . ",
". . . . . . . . . . . . . . . . . . . . . . . . . . . . . . . . . . . . . . . . . . . . . . . . . . . . . . . . . . . . . . . . . . . . . . . . . . . . . . . . ",
". . . . . . . . . . . . . . . . . . . . . . . . . . . . . . . . . . . . . . . . . . . . . . . . . . . . . . . . . . . . . . . . . . . . . . . . . . . . . . . . ",
". . . . . . . . . . . . . . . . . . . . . . . . . . . . . . . . . . . . . . . . . . . . . . . . . . . . . . . . . . . . . . . . . . . . . . . . . . . . . . . . ",
". . . . . . . . . . . . . . + @ # # # # # # # # # # # # # # # # # # $ % & * = - ; > , ' ) . . . . . . . . . . . . . . . . . . . . . . . . . . . . . . . . . . . ",
". . . . . . . . . . . . . . . ! ~ # # # # # # # # # # # # # # # # # # # # # # # # # # # { ] ^ / . . . . . . . . . . . . . . . . . . . . . . . . . . . . . . . . ",
". . . . . . . . . . . . . . . . ( % # # # # # # # # # # # # # # # # # # # # # # # # # # # # # # _ : < . . . . . . . . . . . . . . . . . . . . . . . . . . . . . ",
". . . . . . . . . . . . . . . . . [ } # # # # # # # # # # # # # # # # # # # # # # # # # # # # # # # | 1 2 . . . . . . . . . . . . . . . . . . . . . . . . . . . ",
". . . . . . . . . . . . . . . . . . 3 4 # # # # # # # # # [ . . 5 6 7 8 [ 9 0 a | # # # # # # # # # # # b c . . . . . . . . . . . . . . . . . . . . . . . . . . ",
". . . . . . . . . . . . . . . . . . . d # # # # # # # # # [ . . . . . . . . . . e f g h # # # # # # # # # # i j . . . . . . . . . . . . . . . . . . . . . . . . ",
". . . . . . . . . . . . . . . . . . . 3 # # # # # # # # # [ . . . . . . . . . . . . . k l m # # # # # # # # # n e . ) o . . . . . . . . . . . . . . . . . . . . ",
". . . . . . . . . . . . . . . . . . . 3 # # # # # # # # # [ . e p q r h s m t u v w x 5 . 8 y # # # # # # # # # z 2 . A A . . . . . . . . . . . . . . . . . . . ",
". . . . . . . . . . . . . . . . . . . 3 # # # # # # # # # [ . 6 # > B k j o C D E 0 z F G 5 k H # # # # # # # # # n ) . I J . . . . . . . . . . . . . . . . . . ",
". . . . . . . . . . . . . . . . . . . 3 # # # # # # # # # [ . 6 # ' . . . . . . . . . 7 K g ! 2 L # # # # # # # # # M . . 0 N . . . . . . . . . . . . . . . . . ",
". . . . . . . . . . . . . . . . . . . 3 # # # # # # # # # [ . 6 # ' . . . . . . . . . . . . O o P ~ # # # # # # # # # 3 . j ] Q . . . . . . . . . . . . . . . . ",
". . . . . . . . . . . . . . . . . . . 3 # # # # # # # # # [ . 6 # ' . . . . . . . . . . . . . . . , # # # # # # # # # R 2 . 7 S T . . . . . . . . . . . . . . . ",
". . . . . . . . . . . . . . . . . . . 3 # # # # # # # # # [ . 6 # ' . . . . . . . . . . . . . . . . a # # # # # # # # # U . . V W . . . . . . . . . . . . . . . ",
". . . . . . . . . . . . . . . . . . . 3 # # # # # # # # # [ . 6 # ' . . . . . . . . . . . . . . . . B # # # # # # # # # X C . ) Y x . . . . . . . . . . . . . . ",
". . . . . . . . . . . . . . . . . . . 3 # # # # # # # # # [ . 6 # ' . . . . . . . . . . . . . . . . . Z # # # # # # # # # U . . `  .. . . . . . . . . . . . . . ",
". . . . . . . . . . . . . . . . . . . 3 # # # # # # # # # [ . 6 # ' . . . . . . . . . . . . . . . . . ..# # # # # # # # # h T . ) +.Q . . . . . . . . . . . . . ",
". . . . . . . . . . . . . . . . . . . 3 # # # # # # # # # [ . 6 # ' . . . . . . . . . . . . . . . . . 5 { # # # # # # # # # @.. . #.$.. . . . . . . . . . . . . ",
". . . . . . . . . . . . . . . . . . . 3 # # # # # # # # # [ . 6 # ' . . . . . . . . . . . . . . . . . . %.# # # # # # # # # Z . . + m < . . . . . . . . . . . . ",
". . . . . . . . . . . . . . . . . . . 3 # # # # # # # # # [ . 6 # ' . . . . . . . . . . . . . . . . . . K # # # # # # # # # &.*.. . =.-.. . . . . . . . . . . . ",
". . . . . . . . . . . . . . . . . . . 3 # # # # # # # # # [ . 6 # ' . . . . . . . . . . . . . . . . . . + # # # # # # # # # # ;.. . l >.. . . . . . . . . . . . ",
". . . . . . . . . . . . . . . . . . . 3 # # # # # # # # # [ . 6 # ' . . . . . . . . . . . . . . . . . . . % # # # # # # # # # ,.. . Q '.. . . . . . . . . . . . ",
". . . . . . . . . . . . . . . . . . . 3 # # # # # # # # # [ . 6 # ' . . . . . . . . . . . . . . . . . . . ).# # # # # # # # # !.. . o # + . . . . . . . . . . . ",
". . . . . . . . . . . . . . . . . . . 3 # # # # # # # # # [ . 6 # ' . . . . . . . . . . . . . . . . . . . ,.# # # # # # # # # s 2 . . ~.N . . . . . . . . . . . ",
". . . . . . . . . . . . . . . . . . . 3 # # # # # # # # # [ . 6 # ' . . . . . . . . . . . . . . . . . . . > # # # # # # # # # # ! . . {.].. . . . . . . . . . . ",
". . . . . . . . . . . . . . . . . . . 3 # # # # # # # # # [ . 6 # ' . . . . . . . . . . . . . . . . . . . ;.# # # # # # # # # # ^.. . w /.. . . . . . . . . . . ",
". . . . . . . . . . . . . . . . . . . 3 # # # # # # # # # [ . 6 # ' . . . . . . . . . . . . . . . . . . . f # # # # # # # # # # @.. . d (.. . . . . . . . . . . ",
". . . . . . . . . . . . . . . . . . . 3 # # # # # # # # # [ . 6 # ' . . . . . . . . . . . . . . . . . . . D # # # # # # # # # # l . . N ~.. . . . . . . . . . . ",
". . . . . . . . . . . . . . . . . . . 3 # # # # # # # # # [ . 6 # ' . . . . . . . . . . . . . . . . . . . ' # # # # # # # # # # _.. . :.h . . . . . . . . . . . ",
". . . . . . . . . . . . . . . . . . . 3 # # # # # # # # # [ . 6 # ' . . . . . . . . . . . . . . . . . . . P # # # # # # # # # # g . . D &.. . . . . . . . . . . ",
". . . . . . . . . . . . . . . . . . . 3 # # # # # # # # # [ . 6 # ' . . . . . . . . . . . . . . . . . . . *.# # # # # # # # # # <.. . 8 # e . . . . . . . . . . ",
". . . . . . . . . . . . . . . . . . . 3 # # # # # # # # # [ . 6 # ' . . . . . . . . . . . . . . . . . . . T # # # # # # # # # # [.. . + # k . . . . . . . . . . ",
". . . . . . . . . . . . . . . . . . . 3 # # # # # # # # # [ . 6 # ' . . . . . . . . . . . . . . . . . . . }.# # # # # # # # # # W . . C # 7 . . . . . . . . . . ",
". . . . . . . . . . . . . . . . . . . 3 # # # # # # # # # [ . 6 # ' . . . . . . . . . . . . . . . . . . . P # # # # # # # # # # |.. . + # < . . . . . . . . . . ",
". . . . . . . . . . . . . . . . . . . 3 # # # # # # # # # [ . 6 # ' . . . . . . . . . . . . . . . . . . . / # # # # # # # # # # 1.. . ! # e . . . . . . . . . . ",
". . . . . . . . . . . . . . . . . . . 3 # # # # # # # # # [ . 6 # ' . . . . . . . . . . . . . . . . . . . D # # # # # # # # # # 2.. . ( # . . . . . . . . . . . ",
". . . . . . . . . . . . . . . . . . . 3 # # # # # # # # # [ . 6 # ' . . . . . . . . . . . . . . . . . . . f # # # # # # # # # # 3.. . [ 4.. . . . . . . . . . . ",
". . . . . . . . . . . . . . . . . . . 3 # # # # # # # # # [ . 6 # ' . . . . . . . . . . . . . . . . . . . E # # # # # # # # # # I . . 3 F . . . . . . . . . . . ",
". . . . . . . . . . . . . . . . . . . 3 # # # # # # # # # [ . 6 # ' . . . . . . . . . . . . . . . . . . . G # # # # # # # # # # 5.. . ;.H . . . . . . . . . . . ",
". . . . . . . . . . . . . . . . . . . 3 # # # # # # # # # [ . 6 # ' . . . . . . . . . . . . . . . . . . . 6.# # # # # # # # # # B . . 1 7.. . . . . . . . . . . ",
". . . . . . . . . . . . . . . . . . . 3 # # # # # # # # # [ . 6 # ' . . . . . . . . . . . . . . . . . . . - # # # # # # # # # # < . . 8.M . . . . . . . . . . . ",
". . . . . . . . . . . . . . . . . . . 3 # # # # # # # # # [ . 6 # ' . . . . . . . . . . . . . . . . . . . * # # # # # # # # # * . . . = : . . . . . . . . . . . ",
". . . . . . . . . . . . . . . . . . . 3 # # # # # # # # # [ . 6 # ' . . . . . . . . . . . . . . . . . . 6 &.# # # # # # # # # W . . . ~ 9.. . . . . . . . . . . ",
". . . . . . . . . . . . . . . . . . . 3 # # # # # # # # # [ . 6 # ' . . . . . . . . . . . . . . . . . . 9.# # # # # # # # # # 0.. . }.# o . . . . . . . . . . . ",
". . . . . . . . . . . . . . . . . . . 3 # # # # # # # # # [ . 6 # ' . . . . . . . . . . . . . . . . . . a.# # # # # # # # # # b.. . E c.. . . . . . . . . . . . ",
". . . . . . . . . . . . . . . . . . . 3 # # # # # # # # # [ . 6 # ' . . . . . . . . . . . . . . . . . . d.# # # # # # # # # e.) . . ; f.. . . . . . . . . . . . ",
". . . . . . . . . . . . . . . . . . . 3 # # # # # # # # # [ . 6 # ' . . . . . . . . . . . . . . . . . < $ # # # # # # # # # 8.. . . g.N . . . . . . . . . . . . ",
". . . . . . . . . . . . . . . . . . . 3 # # # # # # # # # [ . 6 # ' . . . . . . . . . . . . . . . . . J # # # # # # # # # # 5.. . P 4 k . . . . . . . . . . . . ",
". . . . . . . . . . . . . . . . . . . 3 # # # # # # # # # [ . 6 # ' . . . . . . . . . . . . . . . . . d.# # # # # # # # # h.j . . a.a . . . . . . . . . . . . . ",
". . . . . . . . . . . . . . . . . . . 3 # # # # # # # # # [ . 6 # ' . . . . . . . . . . . . . . . . 8 # # # # # # # # # # i.. . ) j.I . . . . . . . . . . . . . ",
". . . . . . . . . . . . . . . . . . . 3 # # # # # # # # # [ . 6 # ' . . . . . . . . . . . . . . . . f.# # # # # # # # # % 7 . . x k.2 . . . . . . . . . . . . . ",
". . . . . . . . . . . . . . . . . . . 3 # # # # # # # # # [ . 6 # ' . . . . . . . . . . . . . . . / 4 # # # # # # # # # 0.. . . $.U . . . . . . . . . . . . . . ",
". . . . . . . . . . . . . . . . . . . 3 # # # # # # # # # [ . 6 # ' . . . . . . . . . . . . . . . l.# # # # # # # # # h.6 . . b.4 m.. . . . . . . . . . . . . . ",
". . . . . . . . . . . . . . . . . . . 3 # # # # # # # # # [ . 6 # ' . . . . . . . . . . . . . . @.# # # # # # # # # &.f . . ) = i . . . . . . . . . . . . . . . ",
". . . . . . . . . . . . . . . . . . . 3 # # # # # # # # # [ . 6 # ' . . . . . . . . . . . . . n.$ # # # # # # # # # 0 . . . -.{ T . . . . . . . . . . . . . . . ",
". . . . . . . . . . . . . . . . . . . 3 # # # # # # # # # [ . 6 # ' . . . . . . . . . . . . / & # # # # # # # # # ] j . . *.@ G . . . . . . . . . . . . . . . . ",
". . . . . . . . . . . . . . . . . . . 3 # # # # # # # # # [ . 6 # ' . . . . . . . . . . . O r # # # # # # # # # (.6 . . 5 o.d.) . . . . . . . . . . . . . . . . ",
". . . . . . . . . . . . . . . . . . . 3 # # # # # # # # # [ . 6 # ' . . . . . . . . . ) p.m # # # # # # # # # p 2 . . . ; q.7 . . . . . . . . . . . . . . . . . ",
". . . . . . . . . . . . . . . . . . . -.# # # # # # # # # [ . 6 # ' . . . . . . . j 5.Y # # # # # # # # # # r.j . . . > } n.. . . . . . . . . . . . . . . . . . ",
". . . . . . . . . . . . . . . . . . J m # # # # # # # # # [ . 6 # 8 5 6 }.! x : 8.'.# # # # # # # # # # F c . . . ) M m Q . . . . . . . . . . . . . . . . . . . ",
". . . . . . . . . . . . . . . . 5 _.# # # # # # # # # # # # # # # # # # # # # # # # # # # # # # # # } U o . . . 5 s.$ 3 . . . . . . . . . . . . . . . . . . . . ",
". . . . . . . . . . . . . . . 7 l.# # # # # # # # # # # # # # # # # # # # # # # # # # # # # # # e.M }.. . . . t.=.h.b.. . . . . . . . . . . . . . . . . . . . . ",
". . . . . . . . . . . . . . ( h.# # # # # # # # # # # # # # # # # # # # # # # # # # # # # u.g 5.5 . . . . e l 4 v.7 . . . . . . . . . . . . . . . . . . . . . . ",
". . . . . . . . . . . . . 9 m # # # # # # # # # # # # # # # # # # # 4 h t @ _ (.w.U x.f *.. . . . . . j E c.g.c . . . . . . . . . . . . . . . . . . . . . . . . ",
". . . . . . . . . . . . . . . . . . . . . . . . . . . . . . . . . . . . . . . . . . . . . . . . . P a.* y.;.5 . . . . . . . . . . . . . . . . . . . . . . . . . ",
". . . . . . . . . . . . . . . . . . . . . . . . . . . . . . . . . . . . . . . . . . . . . k x l z.h.A.n.. . . . . . . . . . . . . . . . . . . . . . . . . . . . ",
". . . . . . . . . . . . . . . . . . . . . . . . . . . . . . . . . . j e o C 8 A ` : M v.~.b >.B.( ) . . . . . . . . . . . . . . . . . . . . . . . . . . . . . . ",
". . . . . . . . . . . . . . . , # # # # # # # # # # # # # # # # # s } C.b ~.D.{.E.l K n.*.. . . . . . . . . . . . . . . . . . . . . . . . . . . . . . . . . . . ",
". . . . . . . . . . . . . . . . . . . . . . . . . . . . . . . . . . . . . . . . . . . . . . . . . . . . . . . . . . . . . . . . . . . . . . . . . . . . . . . . ",
". . . . . . . . . . . . . . . . . . . . . . . . . . . . . . . . . . . . . . . . . . . . . . . . . . . . . . . . . . . . . . . . . . . . . . . . . . . . . . . . ",
". . . . . . . . . . . . . . . . . . . . . . . . . . . . . . . . . . . . . . . . . . . . . . . . . . . . . . . . . . . . . . . . . . . . . . . . . . . . . . . . ",
". . . . . . . . . . . . . . . . . . . . . . . . . . . . . . . . . . . . . . . . . . . . . . . . . . . . . . . . . . . . . . . . . . . . . . . . . . . . . . . . ",
". . . . . . . . . . . . . . . . . . . . . . . . . . . . . . . . . . . . . . . . . . . . . . . . . . . . . . . . . . . . . . . . . . . . . . . . . . . . . . . . ",
". . . . . . . . . . . . . . . . . . . . . . . . . . . . . . . . . . . . . . . . . . . . . . . . . . . . . . . . . . . . . . . . . . . . . . . . . . . . . . . . "};
