/* XPM */
static xpm_row_t const letterS_xpm[] = {
"80 80 175 2",
"  	c None",
". 	c #FF0000",
"+ 	c #F40000",
"@ 	c #D20000",
"# 	c #B20000",
"$ 	c #900000",
"% 	c #710000",
"& 	c #4D0000",
"* 	c #350000",
"= 	c #160000",
"- 	c #3B0000",
"; 	c #530000",
"> 	c #690000",
", 	c #890000",
"' 	c #A30000",
") 	c #BA0000",
"! 	c #D50000",
"~ 	c #ED0000",
"{ 	c #FE0000",
"] 	c #F70000",
"^ 	c #C60000",
"/ 	c #790000",
"( 	c #000000",
"_ 	c #380000",
": 	c #850000",
"< 	c #B70000",
"[ 	c #DC0000",
"} 	c #F90000",
"| 	c #DE0000",
"1 	c #C50000",
"2 	c #F80000",
"3 	c #B60000",
"4 	c #3D0000",
"5 	c #1C0000",
"6 	c #7E0000",
"7 	c #B40000",
"8 	c #D60000",
"9 	c #EE0000",
"0 	c #FB0000",
"a 	c #CA0000",
"b 	c #7F0000",
"c 	c #E40000",
"d 	c #D80000",
"e 	c #580000",
"f 	c #D00000",
"g 	c #E30000",
"h 	c #840000",
"i 	c #BB0000",
"j 	c #DF0000",
"k 	c #EF0000",
"l 	c #FC0000",
"m 	c #F20000",
"n 	c #E70000",
"o 	c #CF0000",
"p 	c #9D0000",
"q 	c #490000",
"r 	c #5D0000",
"s 	c #FA0000",
"t 	c #F60000",
"u 	c #FD0000",
"v 	c #9F0000",
"w 	c #9E0000",
"x 	c #E90000",
"y 	c #C80000",
"z 	c #5C0000",
"A 	c #D10000",
"B 	c #B50000",
"C 	c #A60000",
"D 	c #4F0000",
"E 	c #D70000",
"F 	c #C40000",
"G 	c #BF0000",
"H 	c #E80000",
"I 	c #0D0000",
"J 	c #C20000",
"K 	c #C70000",
"L 	c #560000",
"M 	c #8D0000",
"N 	c #A70000",
"O 	c #600000",
"P 	c #EC0000",
"Q 	c #320000",
"R 	c #F00000",
"S 	c #F50000",
"T 	c #8A0000",
"U 	c #9C0000",
"V 	c #510000",
"W 	c #CC0000",
"X 	c #9B0000",
"Y 	c #8E0000",
"Z 	c #AB0000",
"` 	c #220000",
" .	c #E50000",
"..	c #550000",
"+.	c #810000",
"@.	c #E60000",
"#.	c #F10000",
"$.	c #AD0000",
"%.	c #5F0000",
"&.	c #950000",
"*.	c #B80000",
"=.	c #6C0000",
"-.	c #F30000",
";.	c #400000",
">.	c #BD0000",
",.	c #EA0000",
"'.	c #760000",
").	c #AE0000",
"!.	c #CD0000",
"~.	c #DD0000",
"{.	c #750000",
"].	c #D90000",
"^.	c #420000",
"/.	c #970000",
"(.	c #5A0000",
"_.	c #C00000",
":.	c #CE0000",
"<.	c #910000",
"[.	c #7C0000",
"}.	c #DB0000",
"|.	c #770000",
"1.	c #E00000",
"2.	c #9A0000",
"3.	c #6D0000",
"4.	c #D40000",
"5.	c #CB0000",
"6.	c #AA0000",
"7.	c #E20000",
"8.	c #6E0000",
"9.	c #C30000",
"0.	c #660000",
"a.	c #AC0000",
"b.	c #A90000",
"c.	c #650000",
"d.	c #A40000",
"e.	c #870000",
"f.	c #C10000",
"g.	c #8B0000",
"h.	c #940000",
"i.	c #D30000",
"j.	c #AF0000",
"k.	c #630000",
"l.	c #920000",
"m.	c #EB0000",
"n.	c #6A0000",
"o.	c #620000",
"p.	c #C90000",
"q.	c #2E0000",
"r.	c #E10000",
"s.	c #720000",
"t.	c #450000",
"u.	c #4B0000",
"v.	c #BC0000",
"w.	c #260000",
"x.	c #8F0000",
"y.	c #880000",
"z.	c #DA0000",
"A.	c #A50000",
"B.	c #A10000",
"C.	c #700000",
"D.	c #A20000",
"E.	c #BE0000",
"F.	c #930000",
"G.	c #2A0000",
"H.	c #7D0000",
"I.	c #470000",
"J.	c #980000",
"K.	c #730000",
"L.	c #8C0000",
"M.	c #800000",
"N.	c #780000",
"O.	c #990000",
"P.	c #B90000",
"Q.	c #B00000",
"R.	c #A00000",
". . . . . . . . . . . . . . . . . . . . . . . . . . . . . . . . . . . . . . . . . . . . . . . . . . . . . . . . . . . . . . . . . . . . . . . . . . . . . . . . ",
". . . . . . . . . . . . . . . . . . . . . . . . . . . . . . . . . . . . . . . . . . . . . . . . . . . . . . . . . . . . . . . . . . . . . . . . . . . . . . . . ",
". . . . . . . . . . . . . . . . . . . . . . . . . . . . . . . . . . . . . . . . . . . . . . . . . . . . . . . . . . . . . . . . . . . . . . . . . . . . . . . . ",
". . . . . . . . . . . . . . . . . . . . . . . . . . . . . . . . . . . . . . . . . . . . . . . . . . . . . . . . . . . . . . . . . . . . . . . . . . . . . . . . ",
". . . . . . . . . . . . . . . . . . . . . . . . . . . . . . . . . . . . . . . . . . . . . . . . . . . . . . . . . . . . . . . . . . . . . . . . . . . . . . . . ",
". . . . . . . . . . . . . . . . . . . . . . . . . . . . . . . . + @ # $ % & * = - ; > , ' ) ! ~ { . . . . . . . . . . . . . . . . . . . . . . . . . . . . . . . ",
". . . . . . . . . . . . . . . . . . . . . . . . . . . . . ] ^ / ( ( ( ( ( ( ( ( ( ( ( ( ( ( ( ( _ : < [ } . . . . . . . . . | 1 . . . . . . . . . . . . . . . . ",
". . . . . . . . . . . . . . . . . . . . . . . . . . . 2 3 4 ( ( ( ( ( ( ( ( ( ( ( ( ( ( ( ( ( ( ( ( ( ( 5 6 7 8 9 0 0 ~ a b 5 c . . . . . . . . . . . . . . . . ",
". . . . . . . . . . . . . . . . . . . . . . . . . . d e ( ( ( ( ( ( ( ( ( ( ( ( ( ( ( ( ( ( ( ( ( ( ( ( ( ( ( ( ( ( ( ( ( ( 7 . . f g . . . . . . . . . . . . . ",
". . . . . . . . . . . . . . . . . . . . . . . . { 7 ( ( ( ( ( ( ( ( ( h i j k 2 l m n o p q ( ( ( ( ( ( ( ( ( ( ( ( ( ( ( r s . t - # . . . . . . . . . . . . . ",
". . . . . . . . . . . . . . . . . . . . . . . u v ( ( ( ( ( ( ( ( w x . . . . . . . . . . l y z ( ( ( ( ( ( ( ( ( ( ( ( ( A . . B q ] . . . . . . . . . . . . . ",
". . . . . . . . . . . . . . . . . . . . . . . C ( ( ( ( ( ( ( D E . . . . t d F < 3 G A H { . l < I ( ( ( ( ( ( ( ( ( ( % { . t - J . . . . . . . . . . . . . . ",
". . . . . . . . . . . . . . . . . . . . . . K ( ( ( ( ( ( ( L ~ . . . | M ( ( ( ( ( ( ( ( & N x . [ D ( ( ( ( ( ( ( ( ( A . . 3 O 0 . . . . . . . . . . . . . . ",
". . . . . . . . . . . . . . . . . . . . . 9 * ( ( ( ( ( ( _ P . . 0 N ( Q N 8 R s l S g F T I ( U S ~ V ( ( ( ( ( ( ( L l . t 4 W . . . . . . . . . . . . . . . ",
". . . . . . . . . . . . . . . . . . . . . X ( ( ( ( ( ( ( J . . l Y ( X S . . . . . . . . . k Z ` V  .x _ ( ( ( ( ( ( ) . . 3 r l . . . . . . . . . . . . . . . ",
". . . . . . . . . . . . . . . . . . . . ~ I ( ( ( ( ( ( ..u . . # ( ) . . . . . . . . . . . . . P +.- @.1 ( ( ( ( ( = #.. t 4 ^ . . . . . . . . . . . . . . . . ",
". . . . . . . . . . . . . . . . . . . . B ( ( ( ( ( ( ( $.. . k ` U . . . . . . . . . . . . . . . { B %.t % ( ( ( ( &.. . *.D 0 . . . . . . . . . . . . . . . . ",
". . . . . . . . . . . . . . . . . . . . =.( ( ( ( ( ( ( 8 . . G 5 -.. . . . . . . . . . . . . . . . . f # W ( ( ( ( [ . ] ;.>.. . . . . . . . . . . . . . . . . ",
". . . . . . . . . . . . . . . . . . . + ( ( ( ( ( ( ( ( c . . $ , . . . . . . . . . . . . . . . . . . . ,.s - ( ( > . . i _ t . . . . . . . . . . . . . . . . . ",
". . . . . . . . . . . . . . . . . . . j ( ( ( ( ( ( ( ( x . . '.$.. . . . . . . . . . . . . . . . . . . . . v ( ( ^ . } q ).. . . . . . . . . . . . . . . . . . ",
". . . . . . . . . . . . . . . . . . . !.( ( ( ( ( ( ( ( ~.. . {.< . . . . . . . . . . . . . . . . . . . . . ].( ^.} . J 5 R . . . . . . . . . . . . . . . . . . ",
". . . . . . . . . . . . . . . . . . . F ( ( ( ( ( ( ( ( F . . /.U . . . . . . . . . . . . . . . . . . . . . 0 4 7 . l (.v . . . . . . . . . . . . . . . . . . . ",
". . . . . . . . . . . . . . . . . . . _.( ( ( ( ( ( ( ( : . . a 4 2 . . . . . . . . . . . . . . . . . . . . . N + . :.( x . . . . . . . . . . . . . . . . . . . ",
". . . . . . . . . . . . . . . . . . . F ( ( ( ( ( ( ( ( I  .. s ; # . . . . . . . . . . . . . . . . . . . . . l . . '.<.. . . . . . . . . . . . . . . . . . . . ",
". . . . . . . . . . . . . . . . . . . :.( ( ( ( ( ( ( ( ( [.l . ].5 }.. . . . . . . . . . . . . . . . . . . . . . S |.c . . . . . . . . . . . . . . . . . . . . ",
". . . . . . . . . . . . . . . . . . . | ( ( ( ( ( ( ( ( ( ( w { . W ^.1.. . . . . . . . . . . . . . . . . . . . . . . . . . . . . . . . . . . . . . . . . . . . ",
". . . . . . . . . . . . . . . . . . . -.( ( ( ( ( ( ( ( ( ( ( 2.} . 1.3.4.. . . . . . . . . . . . . . . . . . . . . . . . . . . . . . . . . . . . . . . . . . . ",
". . . . . . . . . . . . . . . . . . . . r ( ( ( ( ( ( ( ( ( ( ( > | . 0 G 5.. . . . . . . . . . . . . . . . . . . . . . . . . . . . . . . . . . . . . . . . . . ",
". . . . . . . . . . . . . . . . . . . . 6.( ( ( ( ( ( ( ( ( ( ( ( ( $ 7.. . . . . . . . . . . . . . . . . . . . . . . . . . . . . . . . . . . . . . . . . . . . ",
". . . . . . . . . . . . . . . . . . . . g ( ( ( ( ( ( ( ( ( ( ( ( ( ( ( 8.9.9 . . . . . . . . . . . . . . . . . . . . . . . . . . . . . . . . . . . . . . . . . ",
". . . . . . . . . . . . . . . . . . . . . [.( ( ( ( ( ( ( ( ( ( ( ( ( ( ( ( ( 0.a.! + . . . . . . . . . . . . . . . . . . . . . . . . . . . . . . . . . . . . . ",
". . . . . . . . . . . . . . . . . . . . . j ( ( ( ( ( ( ( ( ( ( ( ( ( ( ( ( ( ( ( ( ( 3.b.@ m . . . . . . . . . . . . . . . . . . . . . . . . . . . . . . . . . ",
". . . . . . . . . . . . . . . . . . . . . . 6.( ( ( ( ( ( ( ( ( ( ( ( ( ( ( ( ( ( ( ( ( ( ( ( c.d.A + . . . . . . . . . . . . . . . . . . . . . . . . . . . . . ",
". . . . . . . . . . . . . . . . . . . . . . l e.( ( ( ( ( ( ( ( ( ( ( ( ( ( ( ( ( ( ( ( ( ( ( ( ( ( ( 6 f.m . . . . . . . . . . . . . . . . . . . . . . . . . . ",
". . . . . . . . . . . . . . . . . . . . . . . } g.( ( ( ( ( ( ( ( ( ( ( ( ( ( ( ( ( ( ( ( ( ( ( ( ( ( ( ( 5 h.j . . . . . . . . . . . . . . . . . . . . . . . . ",
". . . . . . . . . . . . . . . . . . . . . . . . u 7 I ( ( ( ( ( ( ( ( ( ( ( ( ( ( ( ( ( ( ( ( ( ( ( ( ( ( ( ( ( +.c . . . . . . . . . . . . . . . . . . . . . . ",
". . . . . . . . . . . . . . . . . . . . . . . i.u . c [.( ( ( ( ( ( ( ( ( ( ( ( ( ( ( ( ( ( ( ( ( ( ( ( ( ( ( ( ( ( N 2 . . . . . . . . . . . . . . . . . . . . ",
". . . . . . . . . . . . . . . . . . . . . . . j.[.l . . ].: ( ( ( ( ( ( ( ( ( ( ( ( ( ( ( ( ( ( ( ( ( ( ( ( ( ( ( ( ( k.x . . . . . . . . . . . . . . . . . . . ",
". . . . . . . . . . . . . . . . . . . . . . . ] e l.} . . . m.3 n.( ( ( ( ( ( ( ( ( ( ( ( ( ( ( ( ( ( ( ( ( ( ( ( ( ( ( _ | . s d . . . . . . . . . . . . . . . ",
". . . . . . . . . . . . . . . . . . . . . . . . x e o.8 . . . . . 9 p.v c.( ( ( ( ( ( ( ( ( ( ( ( ( ( ( ( ( ( ( ( ( ( ( ( q.r.. H i . . . . . . . . . . . . . . ",
". . . . . . . . . . . . . . . . . . . . . . . . . m 2.( s.p.] . . . . . . t [ >.$ t.( ( ( ( ( ( ( ( ( ( ( ( ( ( ( ( ( ( ( ( u.#.. W v.. . . . . . . . . . . . . ",
". . . . . . . . . . . . . . . . . . . . . . . . . . . g 2.w.w.x.K P . . . . . . . { x 1 h.- ( ( ( ( ( ( ( ( ( ( ( ( ( ( ( ( ( y.. . l.z.. . . . . . . . . . . . ",
". . . . . . . . . . . . . . . . . . . . . . . . . . . . . t a g.` ( e v 5.~ . . . . . . . 0 [ N q ( ( ( ( ( ( ( ( ( ( ( ( ( ( ( i.. ~ L ] . . . . . . . . . . . ",
". . . . . . . . . . . . . . . . . . . . . . . . . . . . . . . . 2 4.A.z ( ( e v 5.9 . . . . . . l i.h ( ( ( ( ( ( ( ( ( ( ( ( ( 3.. . ' j.. . . . . . . . . . . ",
". . . . . . . . . . . . . . . . . . . . . . . . . . . . . . . . . . . . ~ a p e ( ( (.B.f -.. . . . . j {.( ( ( ( ( ( ( ( ( ( ( ( | . x q.t . . . . . . . . . . ",
". . . . . . . . . . . . . . . . . . . . . . . . . . . . . . . . . . . . . . . . 9 o C 0.( ( '.< @.. . . u ).( ( ( ( ( ( ( ( ( ( ( 6.. . C.9.. . . . . . . . . . ",
". . . . . . . . . . . . . . . . . . . . . . . . . . . . . . . . . . . . . . . . . . . . m :.v & ( o.*.R . . ^ ( ( ( ( ( ( ( ( ( ( c.. . B h . . . . . . . . . . ",
". . . . . . . . . . . . . . . . . . . . . . . . . . . . . . . . . . . . . . . . . . . . . . . { 7.j...= D.S . E.( ( ( ( ( ( ( ( ( ( t . z.` s . . . . . . . . . ",
". . . . . . . . . . . . . . . . . . . . . . . . . . . . . . . . . . . . . . . . . . . . . . . . . . u f o.V n . F.( ( ( ( ( ( ( ( (  .. #.( @.. . . . . . . . . ",
". . . . . . . . . . . . . . . . . . . . . . . u . . . . . . . . . . . . . . . . . . . . . . . . . . . . s 6.t.R #.G.( ( ( ( ( ( ( ( E . { w.A . . . . . . . . . ",
". . . . . . . . . . . . . . . . . . . . . . . /.^ . . . . . . . . . . . . . . . . . . . . . . . . . . . . . a g.. C ( ( ( ( ( ( ( ( f . . u.^ . . . . . . . . . ",
". . . . . . . . . . . . . . . . . . . . . . 2 G.B.. . . . . . . . . . . . . . . . . . . . . . . . . . . . . . !.,.| ( ( ( ( ( ( ( ( f . . r E.. . . . . . . . . ",
". . . . . . . . . . . . . . . . . . . . . . :.( 0.. . -.H.x . . . . . . . . . . . . . . . . . . . . . . . . . . . l ` ( ( ( ( ( ( ( E . . & J . . . . . . . . . ",
". . . . . . . . . . . . . . . . . . . . . . Y ( ( R . { t.F . . . . . . . . . . . . . . . . . . . . . . . . . . . . n.( ( ( ( ( ( ( c . . G.a . . . . . . . . . ",
". . . . . . . . . . . . . . . . . . . . . R 5 ( ( J . . &.T . . . . . . . . . . . . . . . . . . . . . . . . . . . . b ( ( ( ( ( ( ( ] . -.( E . . . . . . . . . ",
". . . . . . . . . . . . . . . . . . . . . # ( ( ( 8.. . @ I #.. . . . . . . . . . . . . . . . . . . . . . . . . . . % ( ( ( ( ( ( > . . j ( P . . . . . . . . . ",
". . . . . . . . . . . . . . . . . . . . } ^.( ( ( ( d . 0 t.7 . . . . . . . . . . . . . . . . . . . . . . . . . . . I.( ( ( ( ( ( Z . . >.- u . . . . . . . . . ",
". . . . . . . . . . . . . . . . . . . . 1 ( ( ( ( ( 8.u . >._ S . . . . . . . . . . . . . . . . . . . . . . . . . + ( ( ( ( ( ( ( 7.. . e.F.. . . . . . . . . . ",
". . . . . . . . . . . . . . . . . . . l o.( ( ( ( ( ( >.. s e v . . . . . . . . . . . . . . . . . . . . . . . . . y ( ( ( ( ( ( C.. . -.= p.. . . . . . . . . . ",
". . . . . . . . . . . . . . . . . . . K ( ( ( ( ( ( ( 5 j . | = i.. . . . . . . . . . . . . . . . . . . . . . . . H.( ( ( ( ( ( ! . . E.Q 2 . . . . . . . . . . ",
". . . . . . . . . . . . . . . . . . } V ( ( ( ( ( ( ( ( ^.H . _.* c . . . . . . . . . . . . . . . . . . . . . . a ( ( ( ( ( ( e.. . s V N . . . . . . . . . . . ",
". . . . . . . . . . . . . . . . . . i ( ( ( ( ( ( ( ( ( ( t.1.. >.q 7.. . . . . . . . . . . . . . . . . . . . x t.( ( ( ( ( 4 9 . . >.q.#.. . . . . . . . . . . ",
". . . . . . . . . . . . . . . . . S 4 ( ( ( ( ( ( ( ( ( ( ( ` G { 8 L W . . . . . . . . . . . . . . . . . . n u.( ( ( ( ( I ].. . ~ Q 3 . . . . . . . . . . . . ",
". . . . . . . . . . . . . . . . . ' ( ( ( ( ( ( ( ( ( ( ( ( ( ( |.j -.6.J.k . . . . . . . . . . . . . . u f.* ( ( ( ( ( I p.. . l 6 s.l . . . . . . . . . . . . ",
". . . . . . . . . . . . . . . . 1.( ( ( ( ( ( ( ( ( ( ( ( ( ( ( ( ( 6 !.x _.4.. . . . . . . . . . . } !.K.( ( ( ( ( ( 5 5.. . . d.;.m.. . . . . . . . . . . . . ",
". . . . . . . . . . . . . . . l =.( ( ( ( ( ( ( ( ( ( ( ( ( ( ( ( ( ( ( ` h 3 i.@.-.s { l S 9 | G J.- ( ( ( ( ( ( ( u.| . . . *.5 }.. . . . . . . . . . . . . . ",
". . . . . . . . . . . . . . . i ( z < j S u s 9 [ J X e ( ( ( ( ( ( ( ( ( ( ( ( ( ( ( ( ( ( ( ( ( ( ( ( ( ( ( ( ( h.+ . . . *.5 i.. . . . . . . . . . . . . . . ",
". . . . . . . . . . . . . . . h.f { . . . . . . . . . . ~ 5.v (.( ( ( ( ( ( ( ( ( ( ( ( ( ( ( ( ( ( ( ( ( ( ( '.}.. . . l D.Q 8 . . . . . . . . . . . . . . . . ",
". . . . . . . . . . . . . . . . . . . . . . . . . . . . . . . . 9 :.N 8.I ( ( ( ( ( ( ( ( ( ( ( ( ( ( ( 4 U | . . . . ~ H.z n . . . . . . . . . . . . . . . . . ",
". . . . . . . . . . . . . . . . . ~ E.L.e G._ %./ J.E.[ S . . . . . . . } c !.# X M.O q Q = * V N.O.>.~.0 . . . . l 9.* X t . . . . . . . . . . . . . . . . . . ",
". . . . . . . . . . . . . . . . 2 q.z P.7.t u 2 R n :.$.6 s.a.8 t . . . . . . . . . . . . . . . . . . . . . . u A 0.0.8 . . . . . . . . . . . . . . . . . . . . ",
". . . . . . . . . . . . . . . . . [ l . . . . . . . . . . 2 E a.=.'.Q.d ] . . . . . . . . . . . . . . . . x P.e > y l . . . . . . . . . . . . . . . . . . . . . ",
". . . . . . . . . . . . . . . . . . . . . . . . . . . . . . . . . #.!.v e =.D.G 8  .R 2 0 . 0 t ~ [ K R.O u.' [ . . . . . . . . . . . . . . . . . . . . . . . . ",
". . . . . . . . . . . . . . . . . . . . . . . . . . . . . . . . . . . . . 9 A < 2.M.o.t.q.I G.I.c., N y @.u . . . . . . . . . . . . . . . . . . . . . . . . . . ",
". . . . . . . . . . . . . . . . . . . . . . . . . . . . . . . . . . . . . . . . . . . . . . . . . . . . . . . . . . . . . . . . . . . . . . . . . . . . . . . . ",
". . . . . . . . . . . . . . . . . . . . . . . . . . . . . . . . . . . . . . . . . . . . . . . . . . . . . . . . . . . . . . . . . . . . . . . . . . . . . . . . ",
". . . . . . . . . . . . . . . . . . . . . . . . . . . . . . . . . . . . . . . . . . . . . . . . . . . . . . . . . . . . . . . . . . . . . . . . . . . . . . . . ",
". . . . . . . . . . . . . . . . . . . . . . . . . . . . . . . . . . . . . . . . . . . . . . . . . . . . . . . . . . . . . . . . . . . . . . . . . . . . . . . . ",
". . . . . . . . . . . . . . . . . . . . . . . . . . . . . . . . . . . . . . . . . . . . . . . . . . . . . . . . . . . . . . . . . . . . . . . . . . . . . . . . ",
". . . . . . . . . . . . . . . . . . . . . . . . . . . . . . . . . . . . . . . . . . . . . . . . . . . . . . . . . . . . . . . . . . . . . . . . . . . . . . . . "};
