/* XPM */
static xpm_row_t const letterG_xpm[] = {
"80 80 169 2",
"  	c None",
". 	c #FF0000",
"+ 	c #F80000",
"@ 	c #DC0000",
"# 	c #BA0000",
"$ 	c #9F0000",
"% 	c #7E0000",
"& 	c #5C0000",
"* 	c #450000",
"= 	c #220000",
"- 	c #2A0000",
"; 	c #7C0000",
"> 	c #940000",
", 	c #AD0000",
"' 	c #C80000",
") 	c #DE0000",
"! 	c #F50000",
"~ 	c #C70000",
"{ 	c #840000",
"] 	c #160000",
"^ 	c #000000",
"/ 	c #5F0000",
"( 	c #9A0000",
"_ 	c #C10000",
": 	c #E20000",
"< 	c #FB0000",
"[ 	c #EB0000",
"} 	c #A40000",
"| 	c #260000",
"1 	c #770000",
"2 	c #A70000",
"3 	c #DF0000",
"4 	c #F20000",
"5 	c #FD0000",
"6 	c #FC0000",
"7 	c #E40000",
"8 	c #C90000",
"9 	c #9B0000",
"0 	c #FE0000",
"a 	c #F40000",
"b 	c #A30000",
"c 	c #0D0000",
"d 	c #D20000",
"e 	c #3D0000",
"f 	c #880000",
"g 	c #BF0000",
"h 	c #DA0000",
"i 	c #EE0000",
"j 	c #F70000",
"k 	c #F60000",
"l 	c #E80000",
"m 	c #CE0000",
"n 	c #490000",
"o 	c #6E0000",
"p 	c #950000",
"q 	c #C20000",
"r 	c #CD0000",
"s 	c #600000",
"t 	c #890000",
"u 	c #ED0000",
"v 	c #660000",
"w 	c #2E0000",
"x 	c #BC0000",
"y 	c #E30000",
"z 	c #B60000",
"A 	c #8D0000",
"B 	c #750000",
"C 	c #D40000",
"D 	c #FA0000",
"E 	c #AF0000",
"F 	c #8C0000",
"G 	c #960000",
"H 	c #650000",
"I 	c #E70000",
"J 	c #CB0000",
"K 	c #690000",
"L 	c #470000",
"M 	c #BE0000",
"N 	c #730000",
"O 	c #BB0000",
"P 	c #1C0000",
"Q 	c #D30000",
"R 	c #E90000",
"S 	c #E60000",
"T 	c #400000",
"U 	c #760000",
"V 	c #C30000",
"W 	c #E00000",
"X 	c #700000",
"Y 	c #EA0000",
"Z 	c #DD0000",
"` 	c #420000",
" .	c #DB0000",
"..	c #A20000",
"+.	c #350000",
"@.	c #B90000",
"#.	c #830000",
"$.	c #9D0000",
"%.	c #F00000",
"&.	c #F10000",
"*.	c #EC0000",
"=.	c #930000",
"-.	c #800000",
";.	c #A00000",
">.	c #710000",
",.	c #A10000",
"'.	c #CA0000",
").	c #550000",
"!.	c #4D0000",
"~.	c #D00000",
"{.	c #720000",
"].	c #790000",
"^.	c #C50000",
"/.	c #630000",
"(.	c #D70000",
"_.	c #EF0000",
":.	c #A80000",
"<.	c #F30000",
"[.	c #D50000",
"}.	c #AB0000",
"|.	c #810000",
"1.	c #6C0000",
"2.	c #D80000",
"3.	c #D10000",
"4.	c #A90000",
"5.	c #820000",
"6.	c #380000",
"7.	c #D90000",
"8.	c #6A0000",
"9.	c #AE0000",
"0.	c #CC0000",
"a.	c #6D0000",
"b.	c #990000",
"c.	c #F90000",
"d.	c #780000",
"e.	c #E10000",
"f.	c #560000",
"g.	c #980000",
"h.	c #C40000",
"i.	c #B40000",
"j.	c #7D0000",
"k.	c #530000",
"l.	c #BD0000",
"m.	c #7F0000",
"n.	c #910000",
"o.	c #9C0000",
"p.	c #B80000",
"q.	c #9E0000",
"r.	c #B00000",
"s.	c #AA0000",
"t.	c #C00000",
"u.	c #D60000",
"v.	c #580000",
"w.	c #B20000",
"x.	c #900000",
"y.	c #5A0000",
"z.	c #3B0000",
"A.	c #8B0000",
"B.	c #E50000",
"C.	c #CF0000",
"D.	c #B30000",
"E.	c #7A0000",
"F.	c #680000",
"G.	c #5D0000",
"H.	c #860000",
"I.	c #870000",
"J.	c #920000",
"K.	c #510000",
"L.	c #320000",
". . . . . . . . . . . . . . . . . . . . . . . . . . . . . . . . . . . . . . . . . . . . . . . . . . . . . . . . . . . . . . . . . . . . . . . . . . . . . . . . ",
". . . . . . . . . . . . . . . . . . . . . . . . . . . . . . . . . . . . . . . . . . . . . . . . . . . . . . . . . . . . . . . . . . . . . . . . . . . . . . . . ",
". . . . . . . . . . . . . . . . . . . . . . . . . . . . . . . . . . . . . . . . . . . . . . . . . . . . . . . . . . . . . . . . . . . . . . . . . . . . . . . . ",
". . . . . . . . . . . . . . . . . . . . . . . . . . . . . . . . . . . . . . . . . . . . . . . . . . . . . . . . . . . . . . . . . . . . . . . . . . . . . . . . ",
". . . . . . . . . . . . . . . . . . . . . . . . . . . . . . . . . . . . . . . . . . . . . . . . . . . . . . . . . . . . . . . . . . . . . . . . . . . . . . . . ",
". . . . . . . . . . . . . . . . . . . . . . . . . . . . . . . . . . . . . . . . . . . . . . . . . . . . . . . . . . . . . . . . . . . . . . . . . . . . . . . . ",
". . . . . . . . . . . . . . . . . . . . . . . . . . . . . . + @ # $ % & * = - * & ; > , ' ) ! . . . . . . . . . . . . . . . . . . . . . . . . . . . . . . . . . ",
". . . . . . . . . . . . . . . . . . . . . . . . . . . ! ~ { ] ^ ^ ^ ^ ^ ^ ^ ^ ^ ^ ^ ^ ^ ^ ^ ^ / ( _ : < . . . . . . . . . . . < < . . . . . . . . . . . . . . . ",
". . . . . . . . . . . . . . . . . . . . . . . . . [ } | ^ ^ ^ ^ ^ ^ ^ ^ ^ ^ ^ ^ ^ ^ ^ ^ ^ ^ ^ ^ ^ ^ ^ = 1 2 ~ 3 4 5 6 ! 7 8 9 ; 0 . . . . . . . . . . . . . . . ",
". . . . . . . . . . . . . . . . . . . . . . . a b c ^ ^ ^ ^ ^ ^ ^ ^ ^ ^ ^ ^ ^ ^ ^ ^ ^ ^ ^ ^ ^ ^ ^ ^ ^ ^ ^ ^ ^ ^ ^ ^ ^ ^ ^ ^ ^ d . . . . . . . . . . . . . . . . ",
". . . . . . . . . . . . . . . . . . . . . . 8 e ^ ^ ^ ^ ^ ^ ^ ^ ^ | f g h i j 5 6 k l m } n ^ ^ ^ ^ ^ ^ ^ ^ ^ ^ ^ ^ ^ ^ ^ ^ o 0 . . . . . . . . . . . . . . . . ",
". . . . . . . . . . . . . . . . . . . . k p ^ ^ ^ ^ ^ ^ ^ ^ ^ / q k . . . . . . . . . . . 6 r s ^ ^ ^ ^ ^ ^ ^ ^ ^ ^ ^ ^ ^ ^ d . . 7 t 6 . . . . . . . . . . . . ",
". . . . . . . . . . . . . . . . . . . u v ^ ^ ^ ^ ^ ^ ^ ^ w x < . . 0 y z A / e = n B b C D . < E ^ ^ ^ ^ ^ ^ ^ ^ ^ ^ ^ ^ o 0 . . F G . . . . . . . . . . . . . ",
". . . . . . . . . . . . . . . . . . y n ^ ^ ^ ^ ^ ^ ^ ^ H I . . 0 J K L $ d l a 5 j 7 M N n O < . m P ^ ^ ^ ^ ^ ^ ^ ^ ^ ^ Q . . : c R . . . . . . . . . . . . . ",
". . . . . . . . . . . . . . . . . S T ^ ^ ^ ^ ^ ^ ^ ^ U k . . u ; n V 6 . . . . . . . . . W { K l . 8 ^ ^ ^ ^ ^ ^ ^ ^ ^ X 0 . . f ( . . . . . . . . . . . . . . ",
". . . . . . . . . . . . . . . . Y n ^ ^ ^ ^ ^ ^ ^ ^ o k . . Z ` ( + . . . . . . . . . . . . . d /  .. ..^ ^ ^ ^ ^ ^ ^ ^ Q . . 3 c [ . . . . . . . . . . . . . . ",
". . . . . . . . . . . . . . . j s ^ ^ ^ ^ ^ ^ ^ ^ * u . . W +.@.. . . . . . . . . . . . . . . . a > 3 < H ^ ^ ^ ^ ^ ^ X 0 . . #.$.. . . . . . . . . . . . . . . ",
". . . . . . . . . . . . . . . > ^ ^ ^ ^ ^ ^ ^ ^ ^ d . . %.L g . . . . . . . . . . . . . . . . . . 0 _ &.m ^ ^ ^ ^ ^ ^ C . . @ ] *.. . . . . . . . . . . . . . . ",
". . . . . . . . . . . . . . ~ ^ ^ ^ ^ ^ ^ ^ ^ ^ =.. . 0 -.;.. . . . . . . . . . . . . . . . . . . . . ! 5 K ^ ^ ^ ^ >.0 . . % ,.. . . . . . . . . . . . . . . . ",
". . . . . . . . . . . . . a ` ^ ^ ^ ^ ^ ^ ^ ^ P u . . '.).j . . . . . . . . . . . . . . . . . . . . . . . ~ ^ ^ ^ ^ C . . h P i . . . . . . . . . . . . . . . . ",
". . . . . . . . . . . . . } ^ ^ ^ ^ ^ ^ ^ ^ ^ b . . D !.~.. . . . . . . . . . . . . . . . . . . . . . . . &.^ ^ ^ {.0 . . ].} . . . . . . . . . . . . . . . . . ",
". . . . . . . . . . . . [ c ^ ^ ^ ^ ^ ^ ^ ^ ^ R . . ^./.0 . . . . . . . . . . . . . . . . . . . . . . . . . ; ^ ^ C . . (.= _.. . . . . . . . . . . . . . . . . ",
". . . . . . . . . . . . 2 ^ ^ ^ ^ ^ ^ ^ ^ ^ % . . . v ^.. . . . . . . . . . . . . . . . . . . . . . . . . . @.^ {.0 . . B :.. . . . . . . . . . . . . . . . . . ",
". . . . . . . . . . . ! w ^ ^ ^ ^ ^ ^ ^ ^ ^ ~ . . : c <.. . . . . . . . . . . . . . . . . . . . . . . . . . [.^ [.. . C - &.. . . . . . . . . . . . . . . . . . ",
". . . . . . . . . . . V ^ ^ ^ ^ ^ ^ ^ ^ ^ ^ %.. . E #.. . . . . . . . . . . . . . . . . . . . . . . . . . . *.{.. . 0 X }.. . . . . . . . . . . . . . . . . . . ",
". . . . . . . . . . . |.^ ^ ^ ^ ^ ^ ^ ^ ^ >.. . . 1.@.. . . . . . . . . . . . . . . . . . . . . . . . . . . 5 2.. . 3.w 4 . . . . . . . . . . . . . . . . . . . ",
". . . . . . . . . . <.c ^ ^ ^ ^ ^ ^ ^ ^ ^ 4.. . <.^ h . . . 7 5.6.B 7.. . . . . . . . . . . . . . . . . . . . . . 0 8.9.. . . . . . . . . . . . . . . . . . . . ",
". . . . . . . . . . 0.^ ^ ^ ^ ^ ^ ^ ^ ^ ^ m . . 2.^ ! . . y w ^ ^ ^ c 3 . . . . . . . . . . . . . . . . . . . . . i U a . . . . . . . . . . . . . . . . . . . . ",
". . . . . . . . . . 2 ^ ^ ^ ^ ^ ^ ^ ^ ^ ^ l . . # ` . . 0 a.^ ^ ^ ^ ^ b.. . . . . . . . . . . . . . . . . . . . . . . . . . . . . . . . . . . . . . . . . . . . ",
". . . . . . . . . . >.^ ^ ^ ^ ^ ^ ^ ^ ^ ^ c.. . $.d.. . e.^ ^ ^ ^ ^ ^ #.. . . . . . . . . . . . . . . . . . . . . . . . . . . . . . . . . . . . . . . . . . . . ",
". . . . . . . . . D ] ^ ^ ^ ^ ^ ^ ^ ^ ^ f.. . . ; g.. . h.^ ^ ^ ^ ^ ^ i.. . . . . . . . . . . . . . . . . . . . . . . . . . . . . . . . . . . . . . . . . . . . ",
". . . . . . . . . Y ^ ^ ^ ^ ^ ^ ^ ^ ^ ^ j.. . . k.:.. . l.^ ^ ^ ] m.@.< . . . . . . . . . . . . . . . . . . . . . . . . . . . . . . . . . . . . . . . . . . . . ",
". . . . . . . . . h ^ ^ ^ ^ ^ ^ ^ ^ ^ ^ n.. . . = z . . '.^ ^ ^ o.D . . . . . . . . . . . . . . . . . . . . . . . . . . . . . . . . . . . . . . . . . . . . . . ",
". . . . . . . . . ' ^ ^ ^ ^ ^ ^ ^ ^ ^ ^ b . . + ^ q . . u ^ ^ ^ ^ ^ ^ ^ ^ ^ ^ ^ ^ ^ ^ ^ ^ ^ ^ ^ ^ ^ ^ ^ ^ ^ ^ ^ ^ ^ ^ ^ ^ ^ ^ ^ ^ ^ ^ _ . . . . . . . . . . . . ",
". . . . . . . . . p.^ ^ ^ ^ ^ ^ ^ ^ ^ ^ }.. . <.^ ' . . . q.^ ^ ^ ^ ^ ^ ^ ^ ^ ^ ^ ^ ^ ^ ^ ^ ^ ^ ^ ^ ^ ^ ^ ^ ^ ^ ^ ^ ^ ^ ^ ^ ^ ^ ^ c ~ . . _.. . . . . . . . . . ",
". . . . . . . . . r.^ ^ ^ ^ ^ ^ ^ ^ ^ ^ r.. . %.^ J . . . < g.^ ^ ^ ^ ^ ^ ^ ^ ^ ^ ^ ^ ^ ^ ^ ^ ^ ^ ^ ^ ^ ^ ^ ^ ^ ^ ^ ^ ^ ^ ^ ^ ^ ] 0.. . }.v 0 . . . . . . . . . ",
". . . . . . . . . 4.^ ^ ^ ^ ^ ^ ^ ^ ^ ^ i.. . i ^ m . . . . . W :.U * P ^ ^ ^ ^ ^ ^ ^ ^ ^ ^ ^ ^ ^ ^ ^ ^ ^ ^ ^ ^ ^ ^ ^ ^ ^ ^ ^ P 3.. . s.- 2.. . . . . . . . . . ",
". . . . . . . . . ..^ ^ ^ ^ ^ ^ ^ ^ ^ ^ i.. . i ^ 3.. . . . 3.c.. . . . . . . . . . . . . . . . . . . t.^ ^ ^ ^ ^ ^ ^ ^ ^ ^ | u.. . s.- h . . . . . . . . . . . ",
". . . . . . . . . ..^ ^ ^ ^ ^ ^ ^ ^ ^ ^ E . . _.^ ~.. . . . V s b 3.I 4 c.5 0 . . . . . . . . . . . . t.^ ^ ^ ^ ^ ^ ^ ^ ^ w h . . s.- h . . . . . . . . . . . . ",
". . . . . . . . . s.^ ^ ^ ^ ^ ^ ^ ^ ^ ^ s.. . 4 ^ m . . . . . k r 9 U v.e = c ^ ^ ^ ^ ^ ^ ^ ^ ^ ^ ^ ^ ^ ^ ^ ^ ^ ^ ^ ^ ^ ^ ~.. . 4.w  .. . . . . . . . . . . . . ",
". . . . . . . . . w.^ ^ ^ ^ ^ ^ ^ ^ ^ ^ ... . j ^ J . . . . . . . . . . . . . . . . . . . . . . . . . t.^ ^ ^ ^ ^ ^ ^ ^ ^ W .  .^ h . . . . . . . . . . . . . . ",
". . . . . . . . . # ^ ^ ^ ^ ^ ^ ^ ^ ^ ^ x.. . 5 ^ h.. . . . . . . . . . . . . . . . . . . . . . . . . t.^ ^ ^ ^ ^ ^ ^ ^ ^ W . 2.^ + . . . . . . . . . . . . . . ",
". . . . . . . . . J ^ ^ ^ ^ ^ ^ ^ ^ ^ ^ ].. . . ` l.. . . . . . . . . . . . . . . . . . . . . . . . . t.^ ^ ^ ^ ^ ^ ^ ^ ^ W . 2.^ + . . . . . . . . . . . . . . ",
". . . . . . . . . ) ^ ^ ^ ^ ^ ^ ^ ^ ^ ^ y.. . . K r.. . . . . . . . . . . . . . . . . . . . . . . . . t.^ ^ ^ ^ ^ ^ ^ ^ ^ W . 2.^ + . . . . . . . . . . . . . . ",
". . . . . . . . . _.^ ^ ^ ^ ^ ^ ^ ^ ^ ^ c D . . f ... . . . . . . . . . . . . . . . . . . . . . . . . t.^ ^ ^ ^ ^ ^ ^ ^ ^ W . 2.^ + . . . . . . . . . . . . . . ",
". . . . . . . . . 0 z.^ ^ ^ ^ ^ ^ ^ ^ ^ ^ l . . b A.. . . . . . . . . . . . . . . . . . . . . . . . . t.^ ^ ^ ^ ^ ^ ^ ^ ^ W . 2.^ + . . . . . . . . . . . . . . ",
". . . . . . . . . . A.^ ^ ^ ^ ^ ^ ^ ^ ^ ^ d . . l.8.. . . . . . . . . . . . . . . . . . . . . . . . . t.^ ^ ^ ^ ^ ^ ^ ^ ^ W . 2.^ + . . . . . . . . . . . . . . ",
". . . . . . . . . . # ^ ^ ^ ^ ^ ^ ^ ^ ^ ^ , . . (.| 5 . . . . . . . . . . . . . . . . . . . . . . . . t.^ ^ ^ ^ ^ ^ ^ ^ ^ W . 2.^ + . . . . . . . . . . . . . . ",
". . . . . . . . . . 3 ^ ^ ^ ^ ^ ^ ^ ^ ^ ^ d.. . _.^ u . . . . . . . . . . . . . . . . . . . . . . . . t.^ ^ ^ ^ ^ ^ ^ ^ ^ W . 2.^ + . . . . . . . . . . . . . . ",
". . . . . . . . . . 0 k.^ ^ ^ ^ ^ ^ ^ ^ ^ ] k . . ).d . . . . . . . . . . . . . . . . . . . . . . . . t.^ ^ ^ ^ ^ ^ ^ ^ ^ W . 2.^ + . . . . . . . . . . . . . . ",
". . . . . . . . . . . , ^ ^ ^ ^ ^ ^ ^ ^ ^ ^ r . . $.9.. . . . . . . . . . . . . . . . . . . . . . . . t.^ ^ ^ ^ ^ ^ ^ ^ ^ W . 2.^ + . . . . . . . . . . . . . . ",
". . . . . . . . . . . B.^ ^ ^ ^ ^ ^ ^ ^ ^ ^ n.. . C.X . . . . . . . . . . . . . . . . . . . . . . . . t.^ ^ ^ ^ ^ ^ ^ ^ ^ W . 2.^ + . . . . . . . . . . . . . . ",
". . . . . . . . . . . . #.^ ^ ^ ^ ^ ^ ^ ^ ^ ] %.. j - u . . . . . . . . . . . . . . . . . . . . . . . t.^ ^ ^ ^ ^ ^ ^ ^ ^ W . 2.^ + . . . . . . . . . . . . . . ",
". . . . . . . . . . . . h ^ ^ ^ ^ ^ ^ ^ ^ ^ ^ D.. . 9 i.. . . . . . . . . . . . . . . . . . . . . . . t.^ ^ ^ ^ ^ ^ ^ ^ ^ W . 2.^ + . . . . . . . . . . . . . . ",
". . . . . . . . . . . . . E.^ ^ ^ ^ ^ ^ ^ ^ ^ e ! . l * c.. . . . . . . . . . . . . . . . . . . . . . t.^ ^ ^ ^ ^ ^ ^ ^ ^ W . 2.^ + . . . . . . . . . . . . . . ",
". . . . . . . . . . . . . B.] ^ ^ ^ ^ ^ ^ ^ ^ ^ :.. . > _ . . . . . . . . . . . . . . . . . . . . . . t.^ ^ ^ ^ ^ ^ ^ ^ ^ W . 2.^ + . . . . . . . . . . . . . . ",
". . . . . . . . . . . . . . }.^ ^ ^ ^ ^ ^ ^ ^ ^ ] : . l L &.. . . . . . . . . . . . . . . . . . . . . t.^ ^ ^ ^ ^ ^ ^ ^ ^ W . 2.^ + . . . . . . . . . . . . . . ",
". . . . . . . . . . . . . . + F.^ ^ ^ ^ ^ ^ ^ ^ ^ G.k . M x.. . . . . . . . . . . . . . . . . . . . . t.^ ^ ^ ^ ^ ^ ^ ^ ^ W . 2.^ + . . . . . . . . . . . . . . ",
". . . . . . . . . . . . . . . Y 6.^ ^ ^ ^ ^ ^ ^ ^ ^ H.< 0 I._ . . . . . . . . . . . . . . . . . . . . t.^ ^ ^ ^ ^ ^ ^ ^ ^ W . 2.^ + . . . . . . . . . . . . . . ",
". . . . . . . . . . . . . . . . d ^ ^ ^ ^ ^ ^ ^ ^ ^ ^ J.< ! B (.. . . . . . . . . . . . . . . . . . . t.^ ^ ^ ^ ^ ^ ^ ^ ^ W . 2.^ + . . . . . . . . . . . . . . ",
". . . . . . . . . . . . . . . . . ~ ^ ^ ^ ^ ^ ^ ^ ^ ^ ^ j.<.! % W . . . . . . . . . . . . . . . . . . t.^ ^ ^ ^ ^ ^ ^ ^ ^ W . 2.^ + . . . . . . . . . . . . . . ",
". . . . . . . . . . . . . . . . . . ^.^ ^ ^ ^ ^ ^ ^ ^ ^ ^ K.Q k G (.. . . . . . . . . . . . . . . . . t.^ ^ ^ ^ ^ ^ ^ ^ ^ W . 2.^ + . . . . . . . . . . . . . . ",
". . . . . . . . . . . . . . . . . . . '.P ^ ^ ^ ^ ^ ^ ^ ^ ^ ^ F W ~ Z . . . . . . . . . . . . . . . . t.^ ^ ^ ^ ^ ^ ^ ^ ^ W . 2.^ + . . . . . . . . . . . . . . ",
". . . . . . . . . . . . . . . . . . . . @ T ^ ^ ^ ^ ^ ^ ^ ^ ^ ^ ^ m.^.a . . . . . . . . . . . . . . . t.^ ^ ^ ^ ^ ^ ^ ^ ^ =.< 2.^ R . . . . . . . . . . . . . . ",
". . . . . . . . . . . . . . . . . . . . . i j.^ ^ ^ ^ ^ ^ ^ ^ ^ ^ ^ ^ ] N 4.'.Z u k D 0 . . . . . . . t.^ ^ ^ ^ ^ ^ ^ ^ ^ ^ A.a B v k . . . . . . . . . . . . . ",
". . . . . . . . . . . . . . . . . . . . . . 5 O L.^ ^ ^ ^ ^ ^ ^ ^ ^ ^ ^ ^ ^ ^ ^ ^ ^ ^ ^ ^ ^ ^ ^ ^ ^ ^ ^ ^ ^ ^ ^ ^ ^ ^ ^ ^ ^ ^ #.Y ).{ 6 . . . . . . . . . . . . ",
". . . . . . . . . . . . . . . . . . . . . . . . %.$ P ^ ^ ^ ^ ^ ^ ^ ^ ^ ^ ^ ^ ^ ^ ^ ^ ^ ^ ^ ^ ^ ^ ^ ^ ^ ^ ^ ^ ^ ^ ^ ^ ^ ^ ^ ^ ^ E.h w ... . . . . . . . . . . . ",
". . . . . . . . . . . . . . . . . . . . . . . . . . &.p.X ^ ^ ^ ^ ^ ^ ^ ^ ^ ^ ^ ^ ^ ^ ^ ^ ^ ^ ^ ^ ^ ^ ^ ^ ^ ^ ^ ^ ^ ^ ^ ^ ^ ^ ^ ^ {.h.^ l.. . . . . . . . . . . ",
". . . . . . . . . . . . . . . . . . . . . . . . . . . . . %.C z b.m.G.L L.c ^ ^ ^ ^ ^ ^ ^ ^ ^ ^ ^ ^ ^ ^ ^ ^ ^ ^ ^ ^ ^ ^ ^ ^ ^ ^ ^ ^ 8.b c C . . . . . . . . . . ",
". . . . . . . . . . . . . . . . . . . . . . . . . . . . . . . . . . . . . . . . . . . . . . . . . . . . . . . . . . . . . . . . . . . . 9 L.B.. . . . . . . . . ",
". . . . . . . . . . . . . . . . . . . . . . . . . . . <.g.# k . . . . . . . . . . . . . . . . . . . . . . . . . . . . . . . . . . . . . < ; ).&.. . . . . . . . ",
". . . . . . . . . . . . . . . . . . . . . . . . . . . . 0 J & #.x [.Y a D . . . . . . . . . . . . . . . . . . . . . . . . . . . . . . . . <.y.N c.. . . . . . . ",
". . . . . . . . . . . . . . . . . . . . . . . . . . . . . . < C $ 8.z.] ^ ^ ^ ^ ^ ^ ^ ^ ^ ^ ^ ^ ^ ^ ^ ^ ^ ^ ^ ^ ^ ^ ^ ^ ^ ^ ^ ^ ^ ^ ^ ^ ^ ^ ^ ^ J.0 . . . . . . ",
". . . . . . . . . . . . . . . . . . . . . . . . . . . . . . . . . . . . . . . . . . . . . . . . . . . . . . . . . . . . . . . . . . . . . . . . . . . . . . . . ",
". . . . . . . . . . . . . . . . . . . . . . . . . . . . . . . . . . . . . . . . . . . . . . . . . . . . . . . . . . . . . . . . . . . . . . . . . . . . . . . . ",
". . . . . . . . . . . . . . . . . . . . . . . . . . . . . . . . . . . . . . . . . . . . . . . . . . . . . . . . . . . . . . . . . . . . . . . . . . . . . . . . ",
". . . . . . . . . . . . . . . . . . . . . . . . . . . . . . . . . . . . . . . . . . . . . . . . . . . . . . . . . . . . . . . . . . . . . . . . . . . . . . . . ",
". . . . . . . . . . . . . . . . . . . . . . . . . . . . . . . . . . . . . . . . . . . . . . . . . . . . . . . . . . . . . . . . . . . . . . . . . . . . . . . . ",
". . . . . . . . . . . . . . . . . . . . . . . . . . . . . . . . . . . . . . . . . . . . . . . . . . . . . . . . . . . . . . . . . . . . . . . . . . . . . . . . ",
". . . . . . . . . . . . . . . . . . . . . . . . . . . . . . . . . . . . . . . . . . . . . . . . . . . . . . . . . . . . . . . . . . . . . . . . . . . . . . . . "};
