/* XPM */
static xpm_row_t const letterK_xpm[] = {
"80 80 162 2",
"  	c None",
". 	c #FF0000",
"+ 	c #EB0000",
"@ 	c #560000",
"# 	c #000000",
"$ 	c #940000",
"% 	c #FC0000",
"& 	c #D10000",
"* 	c #760000",
"= 	c #320000",
"- 	c #960000",
"; 	c #F90000",
"> 	c #EE0000",
", 	c #630000",
"' 	c #9B0000",
") 	c #FD0000",
"! 	c #E90000",
"~ 	c #E60000",
"{ 	c #8B0000",
"] 	c #700000",
"^ 	c #CD0000",
"/ 	c #FA0000",
"( 	c #F30000",
"_ 	c #A20000",
": 	c #FE0000",
"< 	c #CE0000",
"[ 	c #1C0000",
"} 	c #C10000",
"| 	c #0D0000",
"1 	c #620000",
"2 	c #D50000",
"3 	c #F60000",
"4 	c #7A0000",
"5 	c #A90000",
"6 	c #160000",
"7 	c #C00000",
"8 	c #C30000",
"9 	c #B90000",
"0 	c #FB0000",
"a 	c #F80000",
"b 	c #DC0000",
"c 	c #C40000",
"d 	c #860000",
"e 	c #AF0000",
"f 	c #820000",
"g 	c #660000",
"h 	c #E40000",
"i 	c #220000",
"j 	c #720000",
"k 	c #9D0000",
"l 	c #E30000",
"m 	c #910000",
"n 	c #B50000",
"o 	c #CB0000",
"p 	c #C70000",
"q 	c #CA0000",
"r 	c #930000",
"s 	c #4D0000",
"t 	c #770000",
"u 	c #C90000",
"v 	c #F40000",
"w 	c #D80000",
"x 	c #A80000",
"y 	c #D70000",
"z 	c #B30000",
"A 	c #E10000",
"B 	c #DB0000",
"C 	c #680000",
"D 	c #BE0000",
"E 	c #C50000",
"F 	c #B40000",
"G 	c #350000",
"H 	c #C20000",
"I 	c #990000",
"J 	c #F70000",
"K 	c #690000",
"L 	c #2E0000",
"M 	c #8F0000",
"N 	c #B20000",
"O 	c #F20000",
"P 	c #9E0000",
"Q 	c #EC0000",
"R 	c #2A0000",
"S 	c #F50000",
"T 	c #6C0000",
"U 	c #750000",
"V 	c #AB0000",
"W 	c #780000",
"X 	c #980000",
"Y 	c #880000",
"Z 	c #730000",
"` 	c #DE0000",
" .	c #4F0000",
"..	c #F00000",
"+.	c #BF0000",
"@.	c #5D0000",
"#.	c #470000",
"$.	c #E20000",
"%.	c #D20000",
"&.	c #EA0000",
"*.	c #400000",
"=.	c #E00000",
"-.	c #8E0000",
";.	c #ED0000",
">.	c #D40000",
",.	c #AE0000",
"'.	c #7E0000",
").	c #B00000",
"!.	c #260000",
"~.	c #4B0000",
"{.	c #EF0000",
"].	c #9C0000",
"^.	c #B80000",
"/.	c #710000",
"(.	c #380000",
"_.	c #650000",
":.	c #510000",
"<.	c #D00000",
"[.	c #AA0000",
"}.	c #F10000",
"|.	c #530000",
"1.	c #5F0000",
"2.	c #C80000",
"3.	c #A30000",
"4.	c #5C0000",
"5.	c #7D0000",
"6.	c #790000",
"7.	c #580000",
"8.	c #490000",
"9.	c #970000",
"0.	c #C60000",
"a.	c #BB0000",
"b.	c #E70000",
"c.	c #6D0000",
"d.	c #A10000",
"e.	c #D60000",
"f.	c #8A0000",
"g.	c #830000",
"h.	c #3B0000",
"i.	c #AD0000",
"j.	c #DF0000",
"k.	c #890000",
"l.	c #D90000",
"m.	c #7C0000",
"n.	c #BD0000",
"o.	c #870000",
"p.	c #CF0000",
"q.	c #450000",
"r.	c #BA0000",
"s.	c #8C0000",
"t.	c #3D0000",
"u.	c #550000",
"v.	c #B60000",
"w.	c #950000",
"x.	c #9A0000",
"y.	c #9F0000",
"z.	c #920000",
"A.	c #B70000",
"B.	c #6E0000",
"C.	c #DA0000",
"D.	c #600000",
"E.	c #E50000",
". . . . . . . . . . . . . . . . . . . . . . . . . . . . . . . . . . . . . . . . . . . . . . . . . . . . . . . . . . . . . . . . . . . . . . . . . . . . . . . . ",
". . . . . . . . . . . . . . . . . . . . . . . . . . . . . . . . . . . . . . . . . . . . . . . . . . . . . . . . . . . . . . . . . . . . . . . . . . . . . . . . ",
". . . . . . . . . . . . . . . . . . . . . . . . . . . . . . . . . . . . . . . . . . . . . . . . . . . . . . . . . . . . . . . . . . . . . . . . . . . . . . . . ",
". . . . . . . . . . . . . . . . . . . . . . . . . . . . . . . . . . . . . . . . . . . . . . . . . . . . . . . . . . . . . . . . . . . . . . . . . . . . . . . . ",
". . . . . . . . . . . . . . . . . . . . . . . . . . . . . . . . . . . . . . . . . . . . . . . . . . . . . . . . . . . . . . . . . . . . . . . . . . . . . . . . ",
". . . . . . . . . . . . . . . . . . . . . . . . . . . . . . . . . . . . . . . . . . . . . . . . . . . . . . . . . . . . . . . . . . . . . . . . . . . . . . . . ",
". . . . . . . . . . . . . . . . . . . . . . . . . . . . . . . . . . . . . . . . . . . . . . . . . . . . . . . . . . . . . . . . . . . . . . . . . . . . . . . . ",
". . . . . . . . . . + @ # # # # # # # # # # # # # # # # # # # # $ % . . . . . . . . & * # # # # # # # # # # # # # # # # # # # # # # = - ; . . . . . . . . . . . ",
". . . . . . . . . . . > , # # # # # # # # # # # # # # # # # # ' ) . ! . . . . . . . . . ~ { # # # # # # # # # # # # # # # # # # ] ^ / . . . . . . . . . . . . . ",
". . . . . . . . . . . . ( ] # # # # # # # # # # # # # # # # _ : . < [ > . . . . . . . . . . } | # # # # # # # # # # # # # # 1 2 . . . . . . . . . . . . . . . . ",
". . . . . . . . . . . . . 3 4 # # # # # # # # # # # # # # 5 : . < 6 7 . . . . . . . . . . . . 8 # # # # # # # # # # # # [ 9 0 . . . . a b c 3 . . . . . . . . . ",
". . . . . . . . . . . . . . ; d # # # # # # # # # # # # e . . ^ 6 c . . . . . . . . . . . . . . f # # # # # # # # # # g h . . . 0 < d i j k l . . . . . . . . . ",
". . . . . . . . . . . . . . . 0 m # # # # # # # # # # n . . o 6 p . . . . . . . . . . . . . . . q # # # # # # # # # r ; . . 0 c s t u v . . . . . . . . . . . . ",
". . . . . . . . . . . . . . . . w # # # # # # # # # x . . o 6 u . . . . . . . . . . . . . . . . y # # # # # # # # z : . . A g t B . . . . . . . . . . . . . . . ",
". . . . . . . . . . . . . . . . w # # # # # # # # # 8 . . C D . . . . . . . . . . . . . . . . . p # # # # # # | E . . : F G H : . . . . . . . . . . . . . . . . ",
". . . . . . . . . . . . . . . . w # # # # # # # # # 8 . . C w . . . . . . . . . . . . . . . . . I # # # # # 6 ^ . . J { K + . . . . . . . . . . . . . . . . . . ",
". . . . . . . . . . . . . . . . w # # # # # # # # # 8 . . C w . . . . . . . . . . . . . . . . J L # # # # | & . . ( j M a . . . . . . . . . . . . . . . . . . . ",
". . . . . . . . . . . . . . . . w # # # # # # # # # 8 . . C w . . . . . . . . . . . . . . . . N # # # # # q . . O , P ) . . . . . . . . . . . . . . . . . . . . ",
". . . . . . . . . . . . . . . . w # # # # # # # # # 8 . . C w . . . . . . . . . . . . . . . Q R # # # # 7 . . S T _ : . . . . . . . . . . . . . . . . . . . . . ",
". . . . . . . . . . . . . . . . w # # # # # # # # # 8 . . C w . . . . . . . . . . . . . . 0 U # # # # V . . ; W X ) . . . . . . . . . . . . . . . . . . . . . . ",
". . . . . . . . . . . . . . . . w # # # # # # # # # 8 . . C w . . . . . . . . . . . . . . x # # # # m : . ) m Y % . . . . . . . . . . . . . . . . . . . . . . . ",
". . . . . . . . . . . . . . . . w # # # # # # # # # 8 . . C w . . . . . . . . . . . . . p # # # # Z ; . . 5 Z a . . . . . . . . . . . . . . . . . . . . . . . . ",
". . . . . . . . . . . . . . . . w # # # # # # # # # 8 . . C w . . . . . . . . . . . . ` [ # # #  .... . +.@.O . . . . . . . . . . . . . . . . . . . . . . . . . ",
". . . . . . . . . . . . . . . . w # # # # # # # # # 8 . . C w . . . . . . . . . . . > #.# # # R $.. . %.#.&.. . . . . . . . . . . . . . . . . . . . . . . . . . ",
". . . . . . . . . . . . . . . . w # # # # # # # # # 8 . . C w . . . . . . . . . . a T # # # # ^ . . A *.=.. . . . . . . . . . . . . . . . . . . . . . . . . . . ",
". . . . . . . . . . . . . . . . w # # # # # # # # # 8 . . C w . . . . . . . . . : -.# # # # N . . ;.s >.. . . . . . . . . . . . . . . . . . . . . . . . . . . . ",
". . . . . . . . . . . . . . . . w # # # # # # # # # 8 . . C w . . . . . . . . . ,.# # # # m : . S , c . . . . . . . . . . . . . . . . . . . . . . . . . . . . . ",
". . . . . . . . . . . . . . . . w # # # # # # # # # 8 . . C w . . . . . . . . o # # # # ] a . 0 '.).. . . . . . . . . . . . . . . . . . . . . . . . . . . . . . ",
". . . . . . . . . . . . . . . . w # # # # # # # # # 8 . . C w . . . . . . . =.!.# # # ~.{.. : - ].. . . . . . . . . . . . . . . . . . . . . . . . . . . . . . . ",
". . . . . . . . . . . . . . . . w # # # # # # # # # 8 . . C w . . . . . . {.s # # # # y . . ^.W % . . . . . . . . . . . . . . . . . . . . . . . . . . . . . . . ",
". . . . . . . . . . . . . . . . w # # # # # # # # # 8 . . C w . . . . . ; /.# # # # # F . . < s / . . . . . . . . . . . . . . . . . . . . . . . . . . . . . . . ",
". . . . . . . . . . . . . . . . w # # # # # # # # # 8 . . C w . . . . : r # # # # # # (.v . ) _.} . . . . . . . . . . . . . . . . . . . . . . . . . . . . . . . ",
". . . . . . . . . . . . . . . . w # # # # # # # # # 8 . . C w . . . . z # # # # # # # # e . . ^ :.0 . . . . . . . . . . . . . . . . . . . . . . . . . . . . . . ",
". . . . . . . . . . . . . . . . w # # # # # # # # # 8 . . C w . . . <.# # # # # # # # # L O . ) 1 c . . . . . . . . . . . . . . . . . . . . . . . . . . . . . . ",
". . . . . . . . . . . . . . . . w # # # # # # # # # 8 . . C w . . l R # # # # # # # # # # [.. . o @ 0 . . . . . . . . . . . . . . . . . . . . . . . . . . . . . ",
". . . . . . . . . . . . . . . . w # # # # # # # # # 8 . . C w . }.|.# # # # # # # # # # # !.{.. % 1.2.. . . . . . . . . . . . . . . . . . . . . . . . . . . . . ",
". . . . . . . . . . . . . . . . w # # # # # # # # # 8 . . C w / t # # # # # # # # # # # # # 3.. . u @.% . . . . . . . . . . . . . . . . . . . . . . . . . . . . ",
". . . . . . . . . . . . . . . . w # # # # # # # # # 8 . . C y X # # # # W # # # # # # # # # [ ;.. % 4.o . . . . . . . . . . . . . . . . . . . . . . . . . . . . ",
". . . . . . . . . . . . . . . . w # # # # # # # # # 8 . . C 5.# # # # X 0 4.# # # # # # # # # P . . 2., ) . . . . . . . . . . . . . . . . . . . . . . . . . . . ",
". . . . . . . . . . . . . . . . w # # # # # # # # # 8 . . C # # # # 6./ . 9 # # # # # # # # # | &.. 0 7.< . . . . . . . . . . . . . . . . . . . . . . . . . . . ",
". . . . . . . . . . . . . . . . w # # # # # # # # # 8 . &.(.# # # 7.O . > 8.# # # # # # # # # # 9.. . 0.C : . . . . . . . . . . . . . . . . . . . . . . . . . . ",
". . . . . . . . . . . . . . . . w # # # # # # # # # 8 ( @.# # # G ~ . ; /.t a.# # # # # # # # # # b.. 0 @ & . . . . . . . . . . . . . . . . . . . . . . . . . . ",
". . . . . . . . . . . . . . . . w # # # # # # # # # a.t # # # | 2 . . - :.}./ :.# # # # # # # # # m . . c c.: . . . . . . . . . . . . . . . . . . . . . . . . . ",
". . . . . . . . . . . . . . . . w # # # # # # # # # = # # # # D . . 9 !.$.. . H # # # # # # # # # # l . 0 |.>.. . . . . . . . . . . . . . . . . . . . . . . . . ",
". . . . . . . . . . . . . . . . w # # # # # # # # # # # # # d.. . e.| o . . . / :.# # # # # # # # # f.. . H Z . . . . . . . . . . . . . . . . . . . . . . . . . ",
". . . . . . . . . . . . . . . . w # # # # # # # # # # # # g.% . &.h.i.. . . . . H # # # # # # # # # # j.. /  .e.. . . . . . . . . . . . . . . . . . . . . . . . ",
". . . . . . . . . . . . . . . . w # # # # # # # # # # # 1 S . 3 , { ) . . . . . / :.# # # # # # # # # g.. . } W . . . . . . . . . . . . . . . . . . . . . . . . ",
". . . . . . . . . . . . . . . . w # # # # # # # # # # *.+ . ) k.g J . . . . . . . H # # # # # # # # # # B . / s l.. . . . . . . . . . . . . . . . . . . . . . . ",
". . . . . . . . . . . . . . . . w # # # # # # # # # 6 B . . i.*.+ . . . . . . . . / :.# # # # # # # # # m.. . +.'.. . . . . . . . . . . . . . . . . . . . . . . ",
". . . . . . . . . . . . . . . . w # # # # # # # # # N . . ^ 6 l.. . . . . . . . . . H # # # # # # # # # # y . ; 8.b . . . . . . . . . . . . . . . . . . . . . . ",
". . . . . . . . . . . . . . . . w # # # # # # # # # 8 . . K 9 . . . . . . . . . . . / :.# # # # # # # # # U . . n.f . . . . . . . . . . . . . . . . . . . . . . ",
". . . . . . . . . . . . . . . . w # # # # # # # # # 8 . . C w . . . . . . . . . . . . H # # # # # # # # # # >.. a #.` . . . . . . . . . . . . . . . . . . . . . ",
". . . . . . . . . . . . . . . . w # # # # # # # # # 8 . . C w . . . . . . . . . . . . / :.# # # # # # # # # c.: . a.o.. . . . . . . . . . . . . . . . . . . . . ",
". . . . . . . . . . . . . . . . w # # # # # # # # # 8 . . C w . . . . . . . . . . . . . H # # # # # # # # # # p.. a q.$.. . . . . . . . . . . . . . . . . . . . ",
". . . . . . . . . . . . . . . . w # # # # # # # # # 8 . . C w . . . . . . . . . . . . . / :.# # # # # # # # # _.) . r.s.. . . . . . . . . . . . . . . . . . . . ",
". . . . . . . . . . . . . . . . w # # # # # # # # # 8 . . C w . . . . . . . . . . . . . . H # # # # # # # # # # o . J *.h . . . . . . . . . . . . . . . . . . . ",
". . . . . . . . . . . . . . . . w # # # # # # # # # 8 . . C w . . . . . . . . . . . . . . / :.# # # # # # # # # @.% . ^.m . . . . . . . . . . . . . . . . . . . ",
". . . . . . . . . . . . . . . . w # # # # # # # # # 8 . . C w . . . . . . . . . . . . . . . H # # # # # # # # # # 0.. 3 t.b.. . . . . . . . . . . . . . . . . . ",
". . . . . . . . . . . . . . . . w # # # # # # # # # 8 . . C w . . . . . . . . . . . . . . . / :.# # # # # # # # # u.0 . v.w.. . . . . . . . . . . . . . . . . . ",
". . . . . . . . . . . . . . . . w # # # # # # # # # 8 . . C w . . . . . . . . . . . . . . . . H # # # # # # # # # # H . 3 t.! . . . . . . . . . . . . . . . . . ",
". . . . . . . . . . . . . . . . w # # # # # # # # # 8 . . C w . . . . . . . . . . . . . . . . / :.# # # # # # # # # s ; . F x.. . . . . . . . . . . . . . . . . ",
". . . . . . . . . . . . . . . . w # # # # # # # # # 8 . . C w . . . . . . . . . . . . . . . . . H # # # # # # # # # # n.. S h.+ . . . . . . . . . . . . . . . . ",
". . . . . . . . . . . . . . . . w # # # # # # # # # 8 . . C w . . . . . . . . . . . . . . . . . / :.# # # # # # # # # q.J . N y.. . . . . . . . . . . . . . . . ",
". . . . . . . . . . . . . . . . w # # # # # # # # # 8 . . C w . . . . . . . . . . . . . . . . . . H # # # # # # # # # # ^.. v h.;.. . . . . . . . . . . . . . . ",
". . . . . . . . . . . . . . . : 5 # # # # # # # # # 9 . . C %.. . . . . . . . . . . . . . . . . . / :.# # # # # # # # # t.{.. )._ . . . . . . . . . . . . . . . ",
". . . . . . . . . . . . . . / - # # # # # # # # # # [ < . x 7.O . . . . . . . . . . . . . . . . . + , # # # # # # # # # # h.p O (.d.3 . . . . . . . . . . . . . ",
". . . . . . . . . . . . . ( 4 # # # # # # # # # # # # # +.0 m.* ; . . . . . . . . . . . . . . . < (.# # # # # # # # # # # # # f e.m.|.e.. . . . . . . . . . . . ",
". . . . . . . . . . . . ! @.# # # # # # # # # # # # # # # ,...:.z.: . . . . . . . . . . . . / 3.# # # # # # # # # # # # # # # # L a.A.i ' S . . . . . . . . . . ",
". . . . . . . . . . . B t.# # # # # # # # # # # # # # # # # ].b i i.. . . . . . . . . . . + ] # # # # # # # # # # # # # # # # # # # t q B.s %.. . . . . . . . . ",
". . . . . . . . . . p [ # # # # # # # # # # # # # # # # # # # f.a.# 0.. . . . . . . . . ^ G # # # # # # # # # # # # # # # # # # # # # [ e [.| $ ( . . . . . . . ",
". . . . . . . . . . . . . . . . . . . . . . . . . . . . . . . . . y.6 C.. . . . . . . . . . . . . . . . . . . . . . . . . . . . . . . . . . j.D.q.^ . . . . . . ",
". . . . . . . . . . . . . . . . . . . . . . . . . . . . . . . . . 0 t t.! . . . . . . . . . . . . . . . . . . . . . . . . . . . . . . . . . . a 3.# M }.. . . . ",
". . . . . . . . . . . . . . . . . . . . . . . . . . . . . . . . . . ..~.4.( . . . . . . . . . . . . . . . . . . . . . . . . . . . . . . . . . . . w :.t.u . . . ",
". . . . . . . . . . . . 8 i # # # # # # # # # # # # # # # # # # # # # # # 6./ . . . . . . . E., # # # # # # # # # # # # # # # # # # # # # # # # # # # # # Y > . ",
". . . . . . . . . . . . . . . . . . . . . . . . . . . . . . . . . . . . . . . . . . . . . . . . . . . . . . . . . . . . . . . . . . . . . . . . . . . . . . . . ",
". . . . . . . . . . . . . . . . . . . . . . . . . . . . . . . . . . . . . . . . . . . . . . . . . . . . . . . . . . . . . . . . . . . . . . . . . . . . . . . . ",
". . . . . . . . . . . . . . . . . . . . . . . . . . . . . . . . . . . . . . . . . . . . . . . . . . . . . . . . . . . . . . . . . . . . . . . . . . . . . . . . ",
". . . . . . . . . . . . . . . . . . . . . . . . . . . . . . . . . . . . . . . . . . . . . . . . . . . . . . . . . . . . . . . . . . . . . . . . . . . . . . . . ",
". . . . . . . . . . . . . . . . . . . . . . . . . . . . . . . . . . . . . . . . . . . . . . . . . . . . . . . . . . . . . . . . . . . . . . . . . . . . . . . . ",
". . . . . . . . . . . . . . . . . . . . . . . . . . . . . . . . . . . . . . . . . . . . . . . . . . . . . . . . . . . . . . . . . . . . . . . . . . . . . . . . "};
