/* XPM */
static xpm_row_t const letterM_xpm[] = {
"80 80 179 2",
"  	c None",
". 	c #FF0000",
"+ 	c #D90000",
"@ 	c #2E0000",
"# 	c #000000",
"$ 	c #790000",
"% 	c #F50000",
"& 	c #B60000",
"* 	c #220000",
"= 	c #D80000",
"- 	c #DE0000",
"; 	c #380000",
"> 	c #890000",
", 	c #F90000",
"' 	c #A70000",
") 	c #1C0000",
"! 	c #D50000",
"~ 	c #E20000",
"{ 	c #420000",
"] 	c #990000",
"^ 	c #FC0000",
"/ 	c #A30000",
"( 	c #D20000",
"_ 	c #FE0000",
": 	c #980000",
"< 	c #160000",
"[ 	c #D10000",
"} 	c #E60000",
"| 	c #490000",
"1 	c #E90000",
"2 	c #6A0000",
"3 	c #690000",
"4 	c #880000",
"5 	c #0D0000",
"6 	c #CD0000",
"7 	c #DC0000",
"8 	c #810000",
"9 	c #EC0000",
"0 	c #EA0000",
"a 	c #530000",
"b 	c #B50000",
"c 	c #CB0000",
"d 	c #320000",
"e 	c #A50000",
"f 	c #FA0000",
"g 	c #780000",
"h 	c #C90000",
"i 	c #FB0000",
"j 	c #AC0000",
"k 	c #ED0000",
"l 	c #5C0000",
"m 	c #C30000",
"n 	c #A00000",
"o 	c #C50000",
"p 	c #6C0000",
"q 	c #450000",
"r 	c #D00000",
"s 	c #EB0000",
"t 	c #6D0000",
"u 	c #F20000",
"v 	c #E80000",
"w 	c #C00000",
"x 	c #FD0000",
"y 	c #BC0000",
"z 	c #820000",
"A 	c #F00000",
"B 	c #950000",
"C 	c #5F0000",
"D 	c #F60000",
"E 	c #DD0000",
"F 	c #B80000",
"G 	c #F80000",
"H 	c #9A0000",
"I 	c #BD0000",
"J 	c #940000",
"K 	c #710000",
"L 	c #2A0000",
"M 	c #3D0000",
"N 	c #730000",
"O 	c #CF0000",
"P 	c #9F0000",
"Q 	c #B90000",
"R 	c #BA0000",
"S 	c #5A0000",
"T 	c #920000",
"U 	c #B30000",
"V 	c #960000",
"W 	c #BB0000",
"X 	c #B00000",
"Y 	c #260000",
"Z 	c #F70000",
"` 	c #470000",
" .	c #AD0000",
"..	c #E40000",
"+.	c #CE0000",
"@.	c #600000",
"#.	c #900000",
"$.	c #660000",
"%.	c #A40000",
"&.	c #B40000",
"*.	c #510000",
"=.	c #400000",
"-.	c #9C0000",
";.	c #E70000",
">.	c #AB0000",
",.	c #D40000",
"'.	c #8E0000",
").	c #E00000",
"!.	c #4D0000",
"~.	c #770000",
"{.	c #970000",
"].	c #C80000",
"^.	c #8C0000",
"/.	c #680000",
"(.	c #620000",
"_.	c #EF0000",
":.	c #CA0000",
"<.	c #EE0000",
"[.	c #C20000",
"}.	c #8A0000",
"|.	c #550000",
"1.	c #A20000",
"2.	c #DF0000",
"3.	c #E50000",
"4.	c #760000",
"5.	c #AA0000",
"6.	c #AE0000",
"7.	c #DA0000",
"8.	c #650000",
"9.	c #4F0000",
"0.	c #F40000",
"a.	c #DB0000",
"b.	c #AF0000",
"c.	c #C70000",
"d.	c #BE0000",
"e.	c #850000",
"f.	c #F30000",
"g.	c #7C0000",
"h.	c #C60000",
"i.	c #F10000",
"j.	c #830000",
"k.	c #9B0000",
"l.	c #870000",
"m.	c #840000",
"n.	c #C40000",
"o.	c #9D0000",
"p.	c #BF0000",
"q.	c #8B0000",
"r.	c #D60000",
"s.	c #B70000",
"t.	c #7A0000",
"u.	c #7F0000",
"v.	c #800000",
"w.	c #7D0000",
"x.	c #630000",
"y.	c #E30000",
"z.	c #C10000",
"A.	c #6E0000",
"B.	c #9E0000",
"C.	c #350000",
"D.	c #860000",
"E.	c #8F0000",
"F.	c #8D0000",
"G.	c #A90000",
"H.	c #CC0000",
"I.	c #A60000",
"J.	c #930000",
"K.	c #D70000",
"L.	c #910000",
"M.	c #4B0000",
"N.	c #720000",
"O.	c #580000",
"P.	c #5D0000",
"Q.	c #7E0000",
"R.	c #750000",
"S.	c #B20000",
"T.	c #3B0000",
"U.	c #E10000",
"V.	c #560000",
". . . . . . . . . . . . . . . . . . . . . . . . . . . . . . . . . . . . . . . . . . . . . . . . . . . . . . . . . . . . . . . . . . . . . . . . . . . . . . . . ",
". . . . . . . . . . . . . . . . . . . . . . . . . . . . . . . . . . . . . . . . . . . . . . . . . . . . . . . . . . . . . . . . . . . . . . . . . . . . . . . . ",
". . . . . . . . . . . . . . . . . . . . . . . . . . . . . . . . . . . . . . . . . . . . . . . . . . . . . . . . . . . . . . . . . . . . . . . . . . . . . . . . ",
". . . . . . . . . . . . . . . . . . . . . . . . . . . . . . . . . . . . . . . . . . . . . . . . . . . . . . . . . . . . . . . . . . . . . . . . . . . . . . . . ",
". . . . . . . . . . . . . . . . . . . . . . . . . . . . . . . . . . . . . . . . . . . . . . . . . . . . . . . . . . . . . . . . . . . . . . . . . . . . . . . . ",
". . . . . . . . . . . . . . . . . . . . . . . . . . . . . . . . . . . . . . . . . . . . . . . . . . . . . . . . . . . . . . . . . . . . . . . . . . . . . . . . ",
". . . . . . . . . . . . . . . . . . . . . . . . . . . . . . . . . . . . . . . . . . . . . . . . . . . . . . . . . . . . . . . . . . . . . . . . . . . . . . . . ",
". . . . . . . + @ # # # # # # # # # # # # # # # # # # # # # # $ % . . . . . . . . . . . . . . . & # # # # # # # # # # # # # # # # # # # # # # * = . . . . . . . ",
". . . . . . . . - ; # # # # # # # # # # # # # # # # # # # # > , . . . . . . . . . . . . . . . . . ' # # # # # # # # # # # # # # # # # # # # ) ! . . . . . . . . ",
". . . . . . . . . ~ { # # # # # # # # # # # # # # # # # # ] ^ . . , / ( . . . . . . . . . . . . . _ : # # # # # # # # # # # # # # # # # # < [ . . . . . . . . . ",
". . . . . . . . . . } | # # # # # # # # # # # # # # # # ' _ . . 1 2 3 } . . . . . . . . . . . . . . ^ 4 # # # # # # # # # # # # # # # # 5 6 . . . 7 8 9 . . . . ",
". . . . . . . . . . . 0 a # # # # # # # # # # # # # # b . . . c d e f . . . . . . . . . . . . . . . . , g # # # # # # # # # # # # # # # h . . i j # ' i . . . . ",
". . . . . . . . . . . . k l # # # # # # # # # # # 5 m . . f n | ! . . . . . . . . . . . . . . . . . . . % 3 # # # # # # # # # # # # # o . . } p q ! . . . . . . ",
". . . . . . . . . . . . . r # # # # # # # # # # # b . . s t 4 u . . . . . . . . . . . . . . . . . . . . . v # # # # # # # # # # # # w . x y * z A . . . . . . . ",
". . . . . . . . . . . . . [ # # # # # # # # # # # B . . [ C _ . . . . . . . . . . . . . . . . . . . . . . 6 # # # # # # # # # # # # D . E # F x . . . . . . . . ",
". . . . . . . . . . . . . [ # # # # # # # # # # # @ G . , d k . . . . . . . . . . . . . . . . . . . . . . 4 # # # # # # # # # # # # D . 7 ) . . . . . . . . . . ",
". . . . . . . . . . . . . [ # # # # # # # # # # # # r . . H I . . . . . . . . . . . . . . . . . . . . . u 5 # # # # # # # # # # # # D . 7 ) . . . . . . . . . . ",
". . . . . . . . . . . . . [ # # # # # # # # # # # # J . . ! K . . . . . . . . . . . . . . . . . . . . . w # # # # # # # # # # # # # D . 7 ) . . . . . . . . . . ",
". . . . . . . . . . . . . [ # # # < # # # # # # # # L G . i M s . . . . . . . . . . . . . . . . . . . . N # # # # # # # # # # # # # D . 7 ) . . . . . . . . . . ",
". . . . . . . . . . . . . [ # # # > # # # # # # # # # O . . P Q . . . . . . . . . . . . . . . . . . . 1 # # # # L # # # # # # # # # D . 7 ) . . . . . . . . . . ",
". . . . . . . . . . . . . [ # # # R S # # # # # # # # T . . + p . . . . . . . . . . . . . . . . . . . U # # # 5 V # # # # # # # # # D . 7 ) . . . . . . . . . . ",
". . . . . . . . . . . . . [ # # # W X # # # # # # # # Y Z . ^ ` 1 . . . . . . . . . . . . . . . . . _ S # # # 4  .# # # # # # # # # D . 7 ) . . . . . . . . . . ",
". . . . . . . . . . . . . [ # # # W ..# # # # # # # # # +.. . e & . . . . . . . . . . . . . . . . . - # # # # 6  .# # # # # # # # # D . 7 ) . . . . . . . . . . ",
". . . . . . . . . . . . . [ # # # W . @.# # # # # # # # #.. . E $.. . . . . . . . . . . . . . . . . %.# # # d G  .# # # # # # # # # D . 7 ) . . . . . . . . . . ",
". . . . . . . . . . . . . [ # # # W . &.# # # # # # # # * Z . x *.} . . . . . . . . . . . . . . . i =.# # # -..  .# # # # # # # # # D . 7 ) . . . . . . . . . . ",
". . . . . . . . . . . . . [ # # # W . ;.# # # # # # # # # 6 . . >.U . . . . . . . . . . . . . . . ,.# # # # + .  .# # # # # # # # # D . 7 ) . . . . . . . . . . ",
". . . . . . . . . . . . . [ # # # W . . @.# # # # # # # # '.. . ).@.. . . . . . . . . . . . . . . J # # # !.x .  .# # # # # # # # # D . 7 ) . . . . . . . . . . ",
". . . . . . . . . . . . . [ # # # W . . ~.# # # # # # # # * D . _ S ... . . . . . . . . . . . . D Y # # #  .. . {.# # # # # # # # # D . 7 ) . . . . . . . . . . ",
". . . . . . . . . . . . . [ # # # W . . ~.# # # # # # # # # c . . X X . . . . . . . . . . . . . ].# # # # ... G @ # # # # # # # # # D . 7 ) . . . . . . . . . . ",
". . . . . . . . . . . . . [ # # # W . . ~.# # # # # # # # # ^.. . ..S _ . . . . . . . . . . . . 8 # # # /.. . 6 # # # # # # # # # # D . 7 ) . . . . . . . . . . ",
". . . . . . . . . . . . . [ # # # W . . ~.d # # # # # # # # ) D . . (.~ . . . . . . . . . . . _.# # # # W . . > # # # # # # # # # # D . 7 ) . . . . . . . . . . ",
". . . . . . . . . . . . . [ # # # W . . ~.H # # # # # # # # # :.. . b  .. . . . . . . . . . . y # # # # <.. u 5 q # # # # # # # # # D . 7 ) . . . . . . . . . . ",
". . . . . . . . . . . . . [ # # # W . . ~.[.@.# # # # # # # # }.. . v |._ . . . . . . . . . . 2 # # # 8 . . [.d 1.# # # # # # # # # D . 7 ) . . . . . . . . . . ",
". . . . . . . . . . . . . [ # # # W . . ~.m U # # # # # # # # ) % . . p 2.. . . . . . . . . 3.# # # # ].. . 4.-. .# # # # # # # # # D . 7 ) . . . . . . . . . . ",
". . . . . . . . . . . . . [ # # # W . . ~.m } # # # # # # # # # h . . R 5.. . . . . . . . . 6.# # # Y D . s # 7. .# # # # # # # # # D . 7 ) . . . . . . . . . . ",
". . . . . . . . . . . . . [ # # # W . . ~.m . 8.# # # # # # # # 4 . . 9 9.x . . . . . . . x *.# # # B . . & *.x  .# # # # # # # # # D . 7 ) . . . . . . . . . . ",
". . . . . . . . . . . . . [ # # # W . . ~.m . & # # # # # # # # < 0.. . N E . . . . . . . a.# # # # ! . . @.b..  .# # # # # # # # # D . 7 ) . . . . . . . . . . ",
". . . . . . . . . . . . . [ # # # W . . ~.m . v # # # # # # # # # c.. . d.' . . . . . . . P # # # { i . ~ # } .  .# # # # # # # # # D . 7 ) . . . . . . . . . . ",
". . . . . . . . . . . . . [ # # # W . . ~.m . . 2 # # # # # # # # e.. . _.| x . . . . . f ; # # # ' . . 5.t . .  .# # # # # # # # # D . 7 ) . . . . . . . . . . ",
". . . . . . . . . . . . . [ # # # W . . ~.m . . Q # # # # # # # # 5 f.. . g.a.. . . . . r # # # # ).. ^ | d.. .  .# # # # # # # # # D . 7 ) . . . . . . . . . . ",
". . . . . . . . . . . . . [ # # # W . . ~.m . . s # # # # # # # # # h.. . m / . . . . . '.# # # C . . = 5 i.. .  .# # # # # # # # # D . 7 ) . . . . . . . . . . ",
". . . . . . . . . . . . . [ # # # W . . ~.m . . . K # # # # # # # # j.. . u q ^ . . . 0.) # # # & . . k.l.. . .  .# # # # # # # # # D . 7 ) . . . . . . . . . . ",
". . . . . . . . . . . . . [ # # # W . . ~.m . . . y # # # # # # # # 5 u . . m.= . . . n.# # # # s . , d 6 . . .  .# # # # # # # # # D . 7 ) . . . . . . . . . . ",
". . . . . . . . . . . . . [ # # # W . . ~.m . . . k # # # # # # # # # o . . c.P . . . $ # # # g . . +.d G . . .  .# # # # # # # # # D . 7 ) . . . . . . . . . . ",
". . . . . . . . . . . . . [ # # # W . . ~.m . . . . 4.# # # # # # # # 8 . . 0.q i . 9 # # # # n.. . ^.o.. . . .  .# # # # # # # # # D . 7 ) . . . . . . . . . . ",
". . . . . . . . . . . . . [ # # # W . . ~.m . . . . p.# # # # # # # # 5 i.. . q.r.. s.# # # < 0.. f.< 7.. . . .  .# # # # # # # # # D . 7 ) . . . . . . . . . . ",
". . . . . . . . . . . . . [ # # # W . . ~.m . . . . <.# # # # # # # # # n.. . c k.. (.# # # '.. . n.*.x . . . .  .# # # # # # # # # D . 7 ) . . . . . . . . . . ",
". . . . . . . . . . . . . [ # # # W . . ~.m . . . . . t.# # # # # # # # u.. . D { 7 # # # # r . . $ b.. . . . .  .# # # # # # # # # D . 7 ) . . . . . . . . . . ",
". . . . . . . . . . . . . [ # # # W . . ~.m . . . . . [.# # # # # # # # # i.. . T @.# # # ; f . 9 # } . . . . .  .# # # # # # # # # D . 7 ) . . . . . . . . . . ",
". . . . . . . . . . . . . [ # # # W . . ~.m . . . . . A # # # # # # # # # [.. . r # # # # n . . F t . . . . . .  .# # # # # # # # # D . 7 ) . . . . . . . . . . ",
". . . . . . . . . . . . . [ # # # W . . ~.m . . . . . . v.# # # # # # # # w.. . 9 # # # # 7 . . x.d.. . . . . .  .# # # # # # # # # D . 7 ) . . . . . . . . . . ",
". . . . . . . . . . . . . [ # # # W . . ~.m . . . . . . n.# # # # # # # # # A . F # # # |._ . y.5 i.. . . . . .  .# # # # # # # # # D . 7 ) . . . . . . . . . . ",
". . . . . . . . . . . . . [ # # # W . . ~.m . . . . . . u 5 # # # # # # # # z.^ |.# # # X . . j l.. . . . . . .  .# # # # # # # # # D . 7 ) . . . . . . . . . . ",
". . . . . . . . . . . . . [ # # # W . . ~.m . . . . . . . m.# # # # # # # # t.,.# # # # ;.. x !.6 . . . . . . .  .# # # # # # # # # D . 7 ) . . . . . . . . . . ",
". . . . . . . . . . . . . +.# # # W . . ~.m . . . . . . . c.# # # # # # # # # t # # # A.. . 7.d G . . . . . . .  .# # # # # # # # # D . 7 ) . . . . . . . . . . ",
". . . . . . . . . . . . . ].# # # Q . . ~.m . . . . . . . 0.< # # # # # # # # # # # # d.. . B.o.. . . . . . . .  .# # # # # # # # # D . 7 ) . . . . . . . . . . ",
". . . . . . . . . . . . . m # # # &.. . ~.m . . . . . . . . 4 # # # # # # # # # # # 5 i.. , C.7.. . . . . . . .  .# # # # # # # # # D . 7 ) . . . . . . . . . . ",
". . . . . . . . . . . . . U # # #  .. . ~.w . . . . . . . . :.# # # # # # # # # # # D.. . r *.x . . . . . . . .  .# # # # # # # # # D . 7 ) . . . . . . . . . . ",
". . . . . . . . . . . . . k.# # # P . . ~.I . . . . . . . . % ) # # # # # # # # # # c . . E.b.. . . . . . . . .  .# # # # # # # # # D . 7 ) . . . . . . . . . . ",
". . . . . . . . . . . . . $ # # # F.. . w.&.. . . . . . . . . F.# # # # # # # # # @ G . 0.) } . . . . . . . . .  .# # # # # # # # # D . 7 ) . . . . . . . . . . ",
". . . . . . . . . . . . , ) # # # t . . }.G.. . . . . . . . . H.# # # # # # # # # H . . o t . . . . . . . . . .  .# # # # # # # # # D . 7 ) . . . . . . . . . . ",
". . . . . . . . . . . . a.# # # # L x . I.J.. . . . . . . . . D * # # # # # # # # K.. . w.d.. . . . . . . . . .  .# # # # # # # # # D . 7 ) . . . . . . . . . . ",
". . . . . . . . . . . . {.# # # # # 0 . :.2 . . . . . . . . . . L.# # # # # # # M.^ . <.5 i.. . . . . . . . . .  .# # # # # # # # # D . 7 ) . . . . . . . . . . ",
". . . . . . . . . . . 0 < # # # # # c.. i.< % . . . . . . . . . O # # # # # # # 5.. . R l.. . . . . . . . . . .  .# # # # # # # # # D . 7 ) . . . . . . . . . . ",
". . . . . . . . . . i N.# # # # # # j.. . B n.. . . . . . . . . G L # # # # # # y.. . /.6 . . . . . . . . . . G u.# # # # # # # # # K.. 7 < Z . . . . . . . . . ",
". . . . . . . . . i L.# # # # # # # # 7.. s O.Z . . . . . . . . . J # # # # # 8.. . 3.d G . . . . . . . . . <.A.# # # # # # # # # # Y ! i.!.z i . . . . . . . . ",
". . . . . . . . D }.# # # # # # # # # a _.. n.o.. . . . . . . . . [ # # # # # Q . . 6.o.. . . . . . . . . ).M.# # # # # # # # # # # # < 6 y.d J _ . . . . . . . ",
". . . . . . . y.P.# # # # # # # # # # # 9.).. &.z.. . . . . . . . , d # # # # <.. x *.7.. . . . . . . . c Y # # # # # # # # # # # # # # # o r.< ' . . . . . . . ",
". . . . . G  .< # # # # # # # # # # # # # # k.0 c ( . . . . . . . . ] # # # Q.. . a.*.x . . . . . . _ X # # # # # # # # # # # # # # # # # # y o # F . . . . . . ",
". . . x H.a # # # # # # # # # # # # # # # # # # R.8.v . . . . . . . ,.# # # c.. . n b.. . . . . . G L.# # # # # # # # # # # # # # # # # # # # S.X # ].. . . . . ",
". . . . . . . . . . . . . . . . . . . . . . . . . v 8.D . . . . . . . . . . . . f T.} . . . . . . . . . . . . . . . . . . . . . . . . . . . . . _ k.< ! . . . . ",
". . . . . . . . . . . . . . . . . . . . . . . . . . j }._ . . . . . . . . . . . ( t . . . . . . . . . . . . . . . . . . . . . . . . . . . . . . . i j.@ ).. . . ",
". . . . . . . . . . . . . . . . . . . . . . . . . . Z 9.S.. . . . . . . . . . . T d.. . . . . . . . . . . . . . . . . . . . . . . . . . . . . . . . D p { 1 . . ",
". . . U.L # # # # # # # # # # # # # # # # # # # # # # # # ( . . . . . ^ 9.# # # 5 i.. . . . . . . . . _ j.# # # # # # # # # # # # # # # # # # # # # # # # V.A . ",
". . . . . . . . . . . . . . . . . . . . . . . . . . . . . . . . . . . . . . . . . . . . . . . . . . . . . . . . . . . . . . . . . . . . . . . . . . . . . . . . ",
". . . . . . . . . . . . . . . . . . . . . . . . . . . . . . . . . . . . . . . . . . . . . . . . . . . . . . . . . . . . . . . . . . . . . . . . . . . . . . . . ",
". . . . . . . . . . . . . . . . . . . . . . . . . . . . . . . . . . . . . . . . . . . . . . . . . . . . . . . . . . . . . . . . . . . . . . . . . . . . . . . . ",
". . . . . . . . . . . . . . . . . . . . . . . . . . . . . . . . . . . . . . . . . . . . . . . . . . . . . . . . . . . . . . . . . . . . . . . . . . . . . . . . ",
". . . . . . . . . . . . . . . . . . . . . . . . . . . . . . . . . . . . . . . . . . . . . . . . . . . . . . . . . . . . . . . . . . . . . . . . . . . . . . . . ",
". . . . . . . . . . . . . . . . . . . . . . . . . . . . . . . . . . . . . . . . . . . . . . . . . . . . . . . . . . . . . . . . . . . . . . . . . . . . . . . . "};
