/* XPM */
static xpm_row_t const letterR_xpm[] = {
"80 80 171 2",
"  	c None",
". 	c #FF0000",
"+ 	c #FE0000",
"@ 	c #EC0000",
"# 	c #D80000",
"$ 	c #C30000",
"% 	c #AA0000",
"& 	c #950000",
"* 	c #800000",
"= 	c #630000",
"- 	c #4D0000",
"; 	c #3D0000",
"> 	c #260000",
", 	c #160000",
"' 	c #350000",
") 	c #470000",
"! 	c #660000",
"~ 	c #810000",
"{ 	c #9B0000",
"] 	c #B90000",
"^ 	c #D20000",
"/ 	c #EE0000",
"( 	c #FA0000",
"_ 	c #DB0000",
": 	c #B40000",
"< 	c #870000",
"[ 	c #000000",
"} 	c #4F0000",
"| 	c #A30000",
"1 	c #D60000",
"2 	c #FB0000",
"3 	c #F40000",
"4 	c #C70000",
"5 	c #8A0000",
"6 	c #2A0000",
"7 	c #AE0000",
"8 	c #F00000",
"9 	c #D10000",
"0 	c #890000",
"a 	c #220000",
"b 	c #A70000",
"c 	c #F50000",
"d 	c #F10000",
"e 	c #B20000",
"f 	c #4B0000",
"g 	c #A90000",
"h 	c #C60000",
"i 	c #E60000",
"j 	c #EF0000",
"k 	c #F60000",
"l 	c #FC0000",
"m 	c #F80000",
"n 	c #E70000",
"o 	c #CD0000",
"p 	c #A60000",
"q 	c #450000",
"r 	c #CB0000",
"s 	c #DE0000",
"t 	c #960000",
"u 	c #9A0000",
"v 	c #F70000",
"w 	c #C00000",
"x 	c #5A0000",
"y 	c #C50000",
"z 	c #A20000",
"A 	c #600000",
"B 	c #D30000",
"C 	c #E20000",
"D 	c #680000",
"E 	c #7D0000",
"F 	c #F30000",
"G 	c #FD0000",
"H 	c #C90000",
"I 	c #A50000",
"J 	c #CC0000",
"K 	c #E80000",
"L 	c #F20000",
"M 	c #F90000",
"N 	c #DF0000",
"O 	c #C20000",
"P 	c #900000",
"Q 	c #320000",
"R 	c #E50000",
"S 	c #A40000",
"T 	c #7F0000",
"U 	c #AF0000",
"V 	c #A00000",
"W 	c #E30000",
"X 	c #B60000",
"Y 	c #780000",
"Z 	c #850000",
"` 	c #8F0000",
" .	c #730000",
"..	c #CE0000",
"+.	c #BD0000",
"@.	c #560000",
"#.	c #0D0000",
"$.	c #B00000",
"%.	c #970000",
"&.	c #D50000",
"*.	c #820000",
"=.	c #C80000",
"-.	c #550000",
";.	c #B30000",
">.	c #EA0000",
",.	c #530000",
"'.	c #6D0000",
").	c #880000",
"!.	c #D40000",
"~.	c #770000",
"{.	c #CA0000",
"].	c #8E0000",
"^.	c #7A0000",
"/.	c #B70000",
"(.	c #840000",
"_.	c #420000",
":.	c #490000",
"<.	c #650000",
"[.	c #AD0000",
"}.	c #3B0000",
"|.	c #580000",
"1.	c #D70000",
"2.	c #BA0000",
"3.	c #930000",
"4.	c #E90000",
"5.	c #790000",
"6.	c #BB0000",
"7.	c #E00000",
"8.	c #750000",
"9.	c #C10000",
"0.	c #1C0000",
"a.	c #920000",
"b.	c #990000",
"c.	c #5C0000",
"d.	c #830000",
"e.	c #620000",
"f.	c #EB0000",
"g.	c #ED0000",
"h.	c #6A0000",
"i.	c #2E0000",
"j.	c #5F0000",
"k.	c #B50000",
"l.	c #8C0000",
"m.	c #D00000",
"n.	c #7C0000",
"o.	c #9F0000",
"p.	c #940000",
"q.	c #A10000",
"r.	c #690000",
"s.	c #DC0000",
"t.	c #E40000",
"u.	c #5D0000",
"v.	c #9D0000",
"w.	c #C40000",
"x.	c #9C0000",
"y.	c #7E0000",
"z.	c #710000",
"A.	c #AB0000",
"B.	c #BC0000",
"C.	c #6C0000",
"D.	c #B10000",
"E.	c #DD0000",
"F.	c #E10000",
"G.	c #8B0000",
"H.	c #860000",
"I.	c #510000",
"J.	c #9E0000",
"K.	c #720000",
"L.	c #380000",
"M.	c #BF0000",
"N.	c #700000",
". . . . . . . . . . . . . . . . . . . . . . . . . . . . . . . . . . . . . . . . . . . . . . . . . . . . . . . . . . . . . . . . . . . . . . . . . . . . . . . . ",
". . . . . . . . . . . . . . . . . . . . . . . . . . . . . . . . . . . . . . . . . . . . . . . . . . . . . . . . . . . . . . . . . . . . . . . . . . . . . . . . ",
". . . . . . . . . . . . . . . . . . . . . . . . . . . . . . . . . . . . . . . . . . . . . . . . . . . . . . . . . . . . . . . . . . . . . . . . . . . . . . . . ",
". . . . . . . . . . . . . . . . . . . . . . . . . . . . . . . . . . . . . . . . . . . . . . . . . . . . . . . . . . . . . . . . . . . . . . . . . . . . . . . . ",
". . . . . . . . . . . . . . . . . . . . . . . . . . . . . + @ # $ % & * = - ; > , ' ) ! ~ { ] ^ / . . . . . . . . . . . . . . . . . . . . . . . . . . . . . . . ",
". . . . . . . . . . . . . . . . . . . . . . . . . ( _ : < ; [ [ [ [ [ [ [ [ [ [ [ [ [ [ [ [ [ [ [ } | 1 2 . . . . . . . . . . . . . . . . . . . . . . . . . . . ",
". . . . . . . . . . . . . . . . . . . . . . 3 4 5 6 [ [ [ [ [ [ [ [ [ [ [ [ [ [ [ [ [ [ [ [ [ [ [ [ [ [ ) 7 8 . . . . . . . . . . . . . . . . . . . . . . . . . ",
". . . . . . . . . . . . . . . . . . . 2 9 0 , [ [ [ [ [ [ [ [ [ [ [ [ [ [ [ [ [ [ [ [ [ [ [ [ [ [ [ [ [ [ [ a b c . . . . . . . . . . . . . . . . . . . . . . . ",
". . . . . . . . . . . . . . . . . d e f [ [ [ [ [ [ [ [ [ [ g h # i j k 2 l + m 8 n o p ! [ [ [ [ [ [ [ [ [ [ [ q r . . . . . . . . . . . . . . . . . . . . . . ",
". . . . . . . . . . . . . . . / p > [ [ [ [ [ [ [ [ [ [ [ [ ( . . . . . . . . . . . . . . s t , [ [ [ [ [ [ [ [ [ [ u ( . . . ( . . . . . . . . . . . . . . . . ",
". . . . . . . . . . . . . . . v w x [ [ [ [ [ [ [ [ [ [ [ [ ( . k y z * A ; a a q A 0 % B c . C D [ [ [ [ [ [ [ [ [ [ E k . . s F . . . . . . . . . . . . . . . ",
". . . . . . . . . . . . . . . . . G H } [ [ [ [ [ [ [ [ [ [ ( . s [ I J K L ( + M 8 N O P Q u R 2 S [ [ [ [ [ [ [ [ [ [ E ( . + 7 l . . . . . . . . . . . . . . ",
". . . . . . . . . . . . . . . . . . . m T [ [ [ [ [ [ [ [ [ ( . s [ . . . . . . . . . . . k ] q b ( U [ [ [ [ [ [ [ [ [ [ V . . W X . . . . . . . . . . . . . . ",
". . . . . . . . . . . . . . . . . . . . { [ [ [ [ [ [ [ [ [ ( . s [ . . . . . . . . . . . . . 3 V Y 3 & [ [ [ [ [ [ [ [ [ [ # . . Z / . . . . . . . . . . . . . ",
". . . . . . . . . . . . . . . . . . . . { [ [ [ [ [ [ [ [ [ ( . s [ . . . . . . . . . . . . . . . 1 ` d ) [ [ [ [ [ [ [ [ [  .. . 1 p . . . . . . . . . . . . . ",
". . . . . . . . . . . . . . . . . . . . { [ [ [ [ [ [ [ [ [ ( . s [ . . . . . . . . . . . . . . . . 8 ..+.[ [ [ [ [ [ [ [ [ [ C . G @.( . . . . . . . . . . . . ",
". . . . . . . . . . . . . . . . . . . . { [ [ [ [ [ [ [ [ [ ( . s [ . . . . . . . . . . . . . . . . . 2 F #.[ [ [ [ [ [ [ [ [ $.. . %.&.. . . . . . . . . . . . ",
". . . . . . . . . . . . . . . . . . . . { [ [ [ [ [ [ [ [ [ ( . s [ . . . . . . . . . . . . . . . . . . . Y [ [ [ [ [ [ [ [ [ *.. . =.7 . . . . . . . . . . . . ",
". . . . . . . . . . . . . . . . . . . . { [ [ [ [ [ [ [ [ [ ( . s [ . . . . . . . . . . . . . . . . . . . | [ [ [ [ [ [ [ [ [ -.. . _ 5 . . . . . . . . . . . . ",
". . . . . . . . . . . . . . . . . . . . { [ [ [ [ [ [ [ [ [ ( . s [ . . . . . . . . . . . . . . . . . . . ;.[ [ [ [ [ [ [ [ [ Q . . K D . . . . . . . . . . . . ",
". . . . . . . . . . . . . . . . . . . . { [ [ [ [ [ [ [ [ [ ( . s [ . . . . . . . . . . . . . . . . . . . : [ [ [ [ [ [ [ [ [ q . . >.,.. . . . . . . . . . . . ",
". . . . . . . . . . . . . . . . . . . . { [ [ [ [ [ [ [ [ [ ( . s [ . . . . . . . . . . . . . . . . . . . g [ [ [ [ [ [ [ [ [ '.. . N x . . . . . . . . . . . . ",
". . . . . . . . . . . . . . . . . . . . { [ [ [ [ [ [ [ [ [ ( . s [ . . . . . . . . . . . . . . . . . . . ).[ [ [ [ [ [ [ [ [ { . . !.~.. . . . . . . . . . . . ",
". . . . . . . . . . . . . . . . . . . . { [ [ [ [ [ [ [ [ [ ( . s [ . . . . . . . . . . . . . . . . . . 2 ' [ [ [ [ [ [ [ [ [ {.. . : ].. . . . . . . . . . . . ",
". . . . . . . . . . . . . . . . . . . . { [ [ [ [ [ [ [ [ [ ( . s [ . . . . . . . . . . . . . . . . . . 1 [ [ [ [ [ [ [ [ [ > k . . ^./.. . . . . . . . . . . . ",
". . . . . . . . . . . . . . . . . . . . { [ [ [ [ [ [ [ [ [ ( . s [ . . . . . . . . . . . . . . . . . . (.[ [ [ [ [ [ [ [ [ g . . 3 , s . . . . . . . . . . . . ",
". . . . . . . . . . . . . . . . . . . . { [ [ [ [ [ [ [ [ [ ( . s [ . . . . . . . . . . . . . . . . . !.[ [ [ [ [ [ [ [ [ _.F . . X :.2 . . . . . . . . . . . . ",
". . . . . . . . . . . . . . . . . . . . { [ [ [ [ [ [ [ [ [ ( . s [ . . . . . . . . . . . . . . . . j ) [ [ [ [ [ [ [ [ [ ... . m _.] . . . . . . . . . . . . . ",
". . . . . . . . . . . . . . . . . . . . { [ [ [ [ [ [ [ [ [ ( . s [ . . . . . . . . . . . . . . . L <.[ [ [ [ [ [ [ [ [ [.. . . % }.k . . . . . . . . . . . . . ",
". . . . . . . . . . . . . . . . . . . . { [ [ [ [ [ [ [ [ [ ( . s [ . . . . . . . . . . . . . . R |.[ [ [ [ [ [ [ [ [ | + . . 1.[ {.. . . . . . . . . . . . . . ",
". . . . . . . . . . . . . . . . . . . . { [ [ [ [ [ [ [ [ [ ( . s [ . . . . . . . . . . . . 2 2.a [ [ [ [ [ [ [ [ #.+.. . . >.:.3.. . . . . . . . . . . . . . . ",
". . . . . . . . . . . . . . . . . . . . { [ [ [ [ [ [ [ [ [ ( . s [ . . . . . . . . . . G o A [ [ [ [ [ [ [ [ [ - 1 . . . 4.- 5.v . . . . . . . . . . . . . . . ",
". . . . . . . . . . . . . . . . . . . . { [ [ [ [ [ [ [ [ [ ( . s [ . . . . . . . . 8 6.x [ [ [ [ [ [ [ [ [ #.b k . . . 7.- 8.k . . . . . . . . . . . . . . . . ",
". . . . . . . . . . . . . . . . . . . . { [ [ [ [ [ [ [ [ [ ( . s [ . . . . . >.9.~ [ [ [ [ [ [ [ [ [ [ 0.u i . . . + 6., a.v . . . . . . . . . . . . . . . . . ",
". . . . . . . . . . . . . . . . . . . . { [ [ [ [ [ [ [ [ [ ( . s [ k s O b.} [ [ [ [ [ [ [ [ [ [ [ c.;.8 . . . . n d., +.. . . . . . . . . . . . . . . . . . . ",
". . . . . . . . . . . . . . . . . . . . { [ [ [ [ [ [ [ [ [ ^.e.' [ [ [ [ [ [ [ [ [ [ [ [ [ [ x ] i . . . . . F | #.~ n . . . . . . . . . . . . . . . . . . . . ",
". . . . . . . . . . . . . . f.K k G 2 g.(.[ [ [ [ [ [ [ [ [ [ [ [ [ [ [ [ [ [ [ [ [ [ [ [ [ [ h.. . . . . 4.I i.j.... . . . . . . . . . . . . . . . . . . . . . ",
". . . . . . . . . . . . . . T [ [ [ [ [ [ [ [ [ [ [ [ [ [ [ [ [ [ [ [ [ [ [ [ Q *.k.} [ [ [ [ [ 7.. . + l.[  .m.G . . . . . . . . . . . . . . . . . . . . . . . ",
". . . . . . . . . . . . . 3 #.[ [ [ [ [ [ [ [ [ [ [ [ [ [ [ [ [ [ ) n.o.6.!.f.G . . 7 [ [ [ [ [ o.. . . p.~ . . . . . . . . . . . . . . . . . . . . . . . . . . ",
". . . . . . . . . . . . . =.[ [ [ [ [ [ [ [ [ [ [ [ [ [ [ [ ^ n v . . . . . . . . . R [ [ [ [ [ i.k . . _ > v . . . . . . . . . . . . . . . . . . . . . . . . . ",
". . . . . . . . . . . . . *.[ [ [ [ [ [ [ [ [ [ [ [ [ [ [ [ ( . . . . . . . . . + s q.#.[ [ [ [ [ O . . . r.... . . . . . . . . . . . . . . . . . . . . . . . . ",
". . . . . . . . . . . . 3 #.- b.w s./ m | [ [ [ [ [ [ [ [ [ ( . . . . . 2 t.4 { :.~ o =.[ [ [ [ [ x l . . y Z . . . . . . . . . . . . . . . . . . . . . . . . . ",
". . . . . . . . . . . . d n + . . . . . S [ [ [ [ [ [ [ [ [ ( . / p < u.#.@.v.{.F . . 2 ) [ [ [ [ [ J . . m }.@ . . . . . . . . . . . . . . . . . . . . . . . . ",
". . . . . . . . . . . . . . . . . . G R d.[ [ [ [ [ [ [ [ [ ( . s [ +.# d . . . . . . . U [ [ [ [ [ h.+ . . [.7 . . . . . . . . . . . . . . . . . . . . . . . . ",
". . . . . . . . . . . . . . . 8 w.` }.q f [ [ [ [ [ [ [ [ [ ( . s [ . . . . . . . . . . @ [ [ [ [ [ [ &.. . L :.k . . . . . . . . . . . . . . . . . . . . . . . ",
". . . . . . . . . . . . . . x.> 0 $ n + S [ [ [ [ [ [ [ [ [ ( . s [ . . . . . . . . . . . y.[ [ [ [ [ z.+ . . A.B.. . . . . . . . . . . . . . . . . . . . . . . ",
". . . . . . . . . . . . . . K v . . . . S [ [ [ [ [ [ [ [ [ ( . s [ . . . . . . . . . . . 4 [ [ [ [ [ [ o . . d ,.v . . . . . . . . . . . . . . . . . . . . . . ",
". . . . . . . . . . . . . . . . . . . . S [ [ [ [ [ [ [ [ [ ( . s [ . . . . . . . . . . . k a [ [ [ [ [ u.2 . . % X . . . . . . . . . . . . . . . . . . . . . . ",
". . . . . . . . . . . . . . . . . . . . S [ [ [ [ [ [ [ [ [ ( . s [ . . . . . . . . . . . . 3.[ [ [ [ [ [ w . . F ,.L . . . . . . . . . . . . . . . . . . . . . ",
". . . . . . . . . . . . . . . . . . . . S [ [ [ [ [ [ [ [ [ ( . s [ . . . . . . . . . . . . ..[ [ [ [ [ [ q k . . w o.. . . . . . . . . . . . . . . . . . . . . ",
". . . . . . . . . . . . . . . . . . . . S [ [ [ [ [ [ [ [ [ ( . s [ . . . . . . . . . . . . k a [ [ [ [ [ [ | . . l ! C . . . . . . . . . . . . . . . . . . . . ",
". . . . . . . . . . . . . . . . . . . . S [ [ [ [ [ [ [ [ [ ( . s [ . . . . . . . . . . . . . l.[ [ [ [ [ [ [ 7.. . # '.2 . . . . . . . . . . . . . . . . . . . ",
". . . . . . . . . . . . . . . . . . . . S [ [ [ [ [ [ [ [ [ ( . s [ . . . . . . . . . . . . . =.[ [ [ [ [ [ [ '.l . . p.X . . . . . . . . . . . . . . . . . . . ",
". . . . . . . . . . . . . . . . . . . . S [ [ [ [ [ [ [ [ [ ( . s [ . . . . . . . . . . . . . j [ [ [ [ [ [ [ [ +.. . 3 ,.R . . . . . . . . . . . . . . . . . . ",
". . . . . . . . . . . . . . . . . . . . S [ [ [ [ [ [ [ [ [ ( . s [ . . . . . . . . . . . . . . C.[ [ [ [ [ [ [ i.f.. . !.! M . . . . . . . . . . . . . . . . . ",
". . . . . . . . . . . . . . . . . . . . S [ [ [ [ [ [ [ [ [ ( . s [ . . . . . . . . . . . . . . D.[ [ [ [ [ [ [ [ ^.G . . v.z . . . . . . . . . . . . . . . . . ",
". . . . . . . . . . . . . . . . . . . . S [ [ [ [ [ [ [ [ [ ( . s [ . . . . . . . . . . . . . . E.[ [ [ [ [ [ [ [ [ ] . . v ! H . . . . . . . . . . . . . . . . ",
". . . . . . . . . . . . . . . . . . . . S [ [ [ [ [ [ [ [ [ ( . s [ . . . . . . . . . . . . . . ( > [ [ [ [ [ [ [ [ , F.. . >.:.R . . . . . . . . . . . . . . . ",
". . . . . . . . . . . . . . . . . . . . S [ [ [ [ [ [ [ [ [ ( . s [ . . . . . . . . . . . . . . . d.[ [ [ [ [ [ [ [ [ x c . . !.@.8 . . . . . . . . . . . . . . ",
". . . . . . . . . . . . . . . . . . . . S [ [ [ [ [ [ [ [ [ ( . s [ . . . . . . . . . . . . . . . ] [ [ [ [ [ [ [ [ [ [ G.+ . . X C.k . . . . . . . . . . . . . ",
". . . . . . . . . . . . . . . . . . . . S [ [ [ [ [ [ [ [ [ ( . s [ . . . . . . . . . . . . . . . N [ [ [ [ [ [ [ [ [ [ [ D.. . . p ~ 2 . . . . . . . . . . . . ",
". . . . . . . . . . . . . . . . . . . d ! [ [ [ [ [ [ [ [ [ 9 . s [ G . . . . . . . . . . . . . . ( 0.[ [ [ [ [ [ [ [ [ [ [ o . . + { H.M . . . . . . . . . . . ",
". . . . . . . . . . . . . . . . . . @ c.[ [ [ [ [ [ [ [ [ [ a 1.k ! | . . . . . . . . . . . . . . . Y [ [ [ [ [ [ [ [ [ [ [ a s.. . G 3.E k . . . . . . . . . . ",
". . . . . . . . . . . . . . . . . R f [ [ [ [ [ [ [ [ [ [ [ [ 6 s./ I.U . . . . . . . . . . . . . . [.[ [ [ [ [ [ [ [ [ [ [ [ }.t.. . l J.K.L . . . . . . . . . ",
". . . . . . . . . . . . . . . . s.L.[ [ [ [ [ [ [ [ [ [ [ [ [ [ ' 7.n ; ] . . . . . . . . . . . . . ^ [ [ [ [ [ [ [ [ [ [ [ [ [ _.i . . . e -.W . . . . . . . . ",
". . . . . . . . . . . . . . . ^ > [ [ [ [ [ [ [ [ [ [ [ [ [ [ [ [ ; R E.> w.. . . . . . . . . . . . / [ [ [ [ [ [ [ [ [ [ [ [ [ [ _.C . . . h Q r . . . . . . . ",
". . . . . . . . . . . . . . 4 #.[ [ [ [ [ [ [ [ [ [ [ [ [ [ [ [ [ [ ) K ^ , ... . . . . . . . . . . . _.[ [ [ [ [ [ [ [ [ [ [ [ [ [ Q 1 . . . F.c.S M . . . . . ",
". . . . . . . . . . . . . . . . . . . . . . . . . . . . . . . . . . . . . w.0.1 . . . . . . . . . . . 0 [ [ [ [ [ [ [ [ [ [ [ [ [ [ i.J.m . . . k p.e.F.. . . . ",
". . . . . . . . . . . . . . . . . . . . . . . . . . . . . . . . . . . . . . : 6 E.. . . . . . . . . . : [ [ [ [ [ [ [ [ [ [ [ [ E H v . . . . . L 4 _., ... . . ",
". . . . . . . . . . . . . . . . . . . . . . . . . . . . . . . . . . . . . . . | L.t.. . . . . . . . . 9 [ [ [ [ [ [ [ [ [ 0.v.n . . . . . @ M.E > G.4 8 . . . . ",
". . . . . . . . . . . . . . . . d - [ [ [ [ [ [ [ [ [ [ [ [ [ [ [ [ [ [ [ [ [ [ [ ) 4.. . . . . . . . >.[ [ [ [ [ [ [ i.U 8 . . . . 2 o y., ].^ m . . . . . . . ",
". . . . . . . . . . . . . . . . . . . . . . . . . . . . . . . . . . . . . . . . . . . . . . . . . . . l a [ [ [ [ 0.b L . . . . f.7 q j.6.d . . . . . . . . . . ",
". . . . . . . . . . . . . . . . . . . . . . . . . . . . . . . . . . . . . . . . . . . . . . . . . . . . K.[ [ [ p.g.. . . . i a.[ P s.+ . . . . . . . . . . . . ",
". . . . . . . . . . . . . . . . . . . . . . . . . . . . . . . . . . . . . . . . . . . . . . . . . . . . o.[ e.# . . . . i a., { K . . . . . . . . . . . . . . . ",
". . . . . . . . . . . . . . . . . . . . . . . . . . . . . . . . . . . . . . . . . . . . . . . . . . . . w X 2 . . . g.p.> | g.. . . . . . . . . . . . . . . . . ",
". . . . . . . . . . . . . . . . . . . . . . . . . . . . . . . . . . . . . . . . . . . . . . . . . . . . + . . . ( k.> a.g.. . . . . . . . . . . . . . . . . . . ",
". . . . . . . . . . . . . . . . . . . . . . . . . . . . . . . . . . . . . . . . . . . . . . . . . . . . . . . &.u.N.s.. . . . . . . . . . . . . . . . . . . . . ",
". . . . . . . . . . . . . . . . . . . . . . . . . . . . . . . . . . . . . . . . . . . . . . . . . . . . . . i u.4 G . . . . . . . . . . . . . . . . . . . . . . ",
". . . . . . . . . . . . . . . . . . . . . . . . . . . . . . . . . . . . . . . . . . . . . . . . . . . . . . . + . . . . . . . . . . . . . . . . . . . . . . . . ",
". . . . . . . . . . . . . . . . . . . . . . . . . . . . . . . . . . . . . . . . . . . . . . . . . . . . . . . . . . . . . . . . . . . . . . . . . . . . . . . . "};
