/* XPM */
static xpm_row_t const mouse_xpm[] = {
"40 40 104 2",
"  	c None",
". 	c #FFFFFF",
"+ 	c #F7F7F7",
"@ 	c #F9F9F9",
"# 	c #F8F8F8",
"$ 	c #FBFBFB",
"% 	c #FAFAFA",
"& 	c #D8D8D8",
"* 	c #9A9A9A",
"= 	c #888888",
"- 	c #B4B4B4",
"; 	c #F4F4F4",
"> 	c #E7E7E7",
", 	c #686868",
"' 	c #DCDCDC",
") 	c #E8E8E8",
"! 	c #A3A3A3",
"~ 	c #BEBEBE",
"{ 	c #C3C3C3",
"] 	c #BBBBBB",
"^ 	c #FEFEFE",
"/ 	c #D9D9D9",
"( 	c #A6A6A6",
"_ 	c #F6F6F6",
": 	c #BDBDBD",
"< 	c #C2C2C2",
"[ 	c #A9A9A9",
"} 	c #A8A8A8",
"| 	c #BFBFBF",
"1 	c #A7A7A7",
"2 	c #828282",
"3 	c #DBDBDB",
"4 	c #C0C0C0",
"5 	c #5E5E5E",
"6 	c #DADADA",
"7 	c #E0E0E0",
"8 	c #ADADAD",
"9 	c #8B8B8B",
"0 	c #8E8E8E",
"a 	c #8F8F8F",
"b 	c #656565",
"c 	c #F2F2F2",
"d 	c #8C8C8C",
"e 	c #EBEBEB",
"f 	c #FDFDFD",
"g 	c #939393",
"h 	c #404040",
"i 	c #727272",
"j 	c #969696",
"k 	c #E6E6E6",
"l 	c #636363",
"m 	c #EFEFEF",
"n 	c #F3F3F3",
"o 	c #C8C8C8",
"p 	c #D5D5D5",
"q 	c #BCBCBC",
"r 	c #D7D7D7",
"s 	c #ACACAC",
"t 	c #B1B1B1",
"u 	c #C9C9C9",
"v 	c #9D9D9D",
"w 	c #C6C6C6",
"x 	c #909090",
"y 	c #878787",
"z 	c #CFCFCF",
"A 	c #B3B3B3",
"B 	c #CBCBCB",
"C 	c #353535",
"D 	c #C4C4C4",
"E 	c #D2D2D2",
"F 	c #ECECEC",
"G 	c #646464",
"H 	c #FCFCFC",
"I 	c #D0D0D0",
"J 	c #B2B2B2",
"K 	c #E3E3E3",
"L 	c #E5E5E5",
"M 	c #B9B9B9",
"N 	c #666666",
"O 	c #C1C1C1",
"P 	c #DFDFDF",
"Q 	c #6E6E6E",
"R 	c #CDCDCD",
"S 	c #AEAEAE",
"T 	c #989898",
"U 	c #F0F0F0",
"V 	c #5F5F5F",
"W 	c #767676",
"X 	c #B5B5B5",
"Y 	c #5B5B5B",
"Z 	c #626262",
"` 	c #999999",
" .	c #A1A1A1",
"..	c #D3D3D3",
"+.	c #D6D6D6",
"@.	c #F5F5F5",
"#.	c #5D5D5D",
"$.	c #929292",
"%.	c #EAEAEA",
"&.	c #E9E9E9",
"*.	c #F1F1F1",
"=.	c #858585",
"-.	c #919191",
";.	c #949494",
". . . . . . . . . . . . . . . . . . . . . . . . . . . . . . . . . . . . . . . . ",
". . . . . . . . . . . . . . . . . . . . . . . . . . . . . . . . . . . . . . . . ",
". . . . . . . . . . . . . . . . . . . . . . . . . . . . . . . . . . . . . . . . ",
". . . . . . . . . . . . . . . . . . . . . . . . . . . . . . . . . . . . . . . . ",
". . . . . . . . . . . . . . . . . . . . . . . . . . . . . . . . . . . . . . . . ",
". . . . . + @ @ # $ @ # $ # @ $ + % % # % # + % + # % + @ @ + % # + % . . . . . ",
". . . . . @ @ @ % @ @ % @ @ @ & * = - ; # # @ # @ # # @ # @ # # # # # . . . . . ",
". . . . . % @ # % # @ @ # @ > , ' ) ! ~ + @ @ + @ # + % # # @ # # @ # . . . . . ",
". . . . . # % % # % @ # $ # { ] ^ ^ / ( % # + % + # % + @ @ _ @ # + % . . . . . ",
". . . . . % @ @ % # @ % + % : < ^ ^ & [ + # # + % # + % + + @ + # % _ . . . . . ",
". . . . . # @ @ @ @ @ # @ # ~ < ^ ^ & } # # # # @ # # # # # + # # # # . . . . . ",
". . . . . # % @ # % @ # % # | < ^ ^ & 1 @ # + @ + # @ + @ @ _ @ # + % . . . . . ",
". . . . . % # # $ # @ % _ % : < ^ ^ & 2 ~ | 3 _ % # _ % + + % _ # @ _ . . . . . ",
". . . . . # % @ # % @ # % # ~ < ^ ^ & 2 4 4 5 & 6 7 _ _ @ @ + @ # # @ . . . . . ",
". . . . . # @ @ @ % @ # @ @ ~ < ^ ^ & 8 . . 9 0 * a b c # # + @ # # @ . . . . . ",
". . . . . % @ # $ # @ % + % : < ^ ^ & 8 . . d e ^ f g h i ' @ _ # @ _ . . . . . ",
". . . . . # % @ # % @ # % # | < ^ ^ & 8 . . d e . ^ j > k l m % # + % . . . . . ",
". . . . . % @ # @ n o 4 p @ q < ^ ^ r s . . 9 e . ^ j ) ^ t u # @ @ # . . . . . ",
". . . . . % @ @ % - v w x y 8 < ^ ^ % + . . m $ . ^ j ) . z A + # @ + . . . . . ",
". . . . . # @ % # o - ^ ^ B C D ^ ^ ^ ^ . . . . . ^ j ) . E 8 % # + % . . . . . ",
". . . . . % # # % F G ^ . ^ 4 w . . . . . . . . . ^ # H . I J + @ % # . . . . . ",
". . . . . # # # # # x E ^ ^ K L . . . . . . . . . . . . . B M @ @ @ @ . . . . . ",
". . . . . + @ # # % ) N L f . . . . . . . . . . . . . . . D O @ # # @ . . . . . ",
". . . . . % # + % + @ P Q % . . . . . . . . . . . . . . ^ - R # @ % # . . . . . ",
". . . . . _ @ @ + @ # + S q ^ . . . . . . . . . . . . . ^ T 6 % @ # % . . . . . ",
". . . . . # # # @ # # # U V + . . . . . . . . . . . . . ^ W U @ # @ # . . . . . ",
". . . . . % # # @ + # @ _ X ~ ^ . . . . . . . . . . . . # Y @ # @ % # . . . . . ",
". . . . . # @ @ _ % # + % F Z H . . . . . . . . . . . ^ r ! + % @ + $ . . . . . ",
". . . . . @ # # @ + # @ + # ` & . . . . . . . . . . . ^  ...@ # # @ # . . . . . ",
". . . . . @ # # @ + # @ + @ +.* . . . . . . . . . . . # 5 @.@ # # @ # . . . . . ",
". . . . . # @ # _ @ + _ % + _ #.+ . . . . . . . . . ^ z 1 @ _ $ @ + $ . . . . . ",
". . . . . % # # % + # @ @.@ # [ I . . . . . . . . . ^ v r # % + @ % + . . . . . ",
". . . . . # # @ # # # # # # @ r $.e %.%.&.) ) > ) ) ) Q *.@ # @ # @ @ . . . . . ",
". . . . . # @ @ + % # + @ # # + =.= 9 9 -.$.$.;.$.$.a y + @ # % @ # % . . . . . ",
". . . . . % # # % + # % _ @ @ _ % + # % + % % + % @ + $ # # % + @ % # . . . . . ",
". . . . . . . . . . . . . . . . . . . . . . . . . . . . . . . . . . . . . . . . ",
". . . . . . . . . . . . . . . . . . . . . . . . . . . . . . . . . . . . . . . . ",
". . . . . . . . . . . . . . . . . . . . . . . . . . . . . . . . . . . . . . . . ",
". . . . . . . . . . . . . . . . . . . . . . . . . . . . . . . . . . . . . . . . ",
". . . . . . . . . . . . . . . . . . . . . . . . . . . . . . . . . . . . . . . . "};
