/* XPM */
static xpm_row_t const number2_xpm[] = {
"80 80 168 2",
"  	c None",
". 	c #FF0000",
"+ 	c #EE0000",
"@ 	c #CD0000",
"# 	c #AD0000",
"$ 	c #8B0000",
"% 	c #6D0000",
"& 	c #490000",
"* 	c #320000",
"= 	c #160000",
"- 	c #380000",
"; 	c #4F0000",
"> 	c #720000",
", 	c #910000",
"' 	c #B00000",
") 	c #D00000",
"! 	c #EF0000",
"~ 	c #B80000",
"{ 	c #650000",
"] 	c #000000",
"^ 	c #680000",
"/ 	c #B40000",
"( 	c #EC0000",
"_ 	c #EB0000",
": 	c #9B0000",
"< 	c #8A0000",
"[ 	c #E00000",
"} 	c #FB0000",
"| 	c #B10000",
"1 	c #220000",
"2 	c #E60000",
"3 	c #560000",
"4 	c #A90000",
"5 	c #D20000",
"6 	c #F50000",
"7 	c #FD0000",
"8 	c #F80000",
"9 	c #E40000",
"0 	c #C30000",
"a 	c #930000",
"b 	c #350000",
"c 	c #CA0000",
"d 	c #C80000",
"e 	c #880000",
"f 	c #E20000",
"g 	c #470000",
"h 	c #620000",
"i 	c #FC0000",
"j 	c #F60000",
"k 	c #B60000",
"l 	c #400000",
"m 	c #9E0000",
"n 	c #DA0000",
"o 	c #530000",
"p 	c #DC0000",
"q 	c #9F0000",
"r 	c #DF0000",
"s 	c #AF0000",
"t 	c #780000",
"u 	c #510000",
"v 	c #260000",
"w 	c #700000",
"x 	c #CE0000",
"y 	c #F00000",
"z 	c #870000",
"A 	c #F90000",
"B 	c #D70000",
"C 	c #2E0000",
"D 	c #D50000",
"E 	c #F10000",
"F 	c #4B0000",
"G 	c #E70000",
"H 	c #7E0000",
"I 	c #B90000",
"J 	c #E10000",
"K 	c #F40000",
"L 	c #F70000",
"M 	c #D10000",
"N 	c #A40000",
"O 	c #940000",
"P 	c #C50000",
"Q 	c #DD0000",
"R 	c #850000",
"S 	c #6A0000",
"T 	c #EA0000",
"U 	c #710000",
"V 	c #9D0000",
"W 	c #D40000",
"X 	c #2A0000",
"Y 	c #D80000",
"Z 	c #550000",
"` 	c #1C0000",
" .	c #CC0000",
"..	c #950000",
"+.	c #BE0000",
"@.	c #A30000",
"#.	c #AE0000",
"$.	c #810000",
"%.	c #C70000",
"&.	c #9A0000",
"*.	c #FE0000",
"=.	c #E50000",
"-.	c #BC0000",
";.	c #790000",
">.	c #840000",
",.	c #F30000",
"'.	c #E30000",
").	c #A70000",
"!.	c #960000",
"~.	c #A10000",
"{.	c #890000",
"].	c #0D0000",
"^.	c #760000",
"/.	c #630000",
"(.	c #ED0000",
"_.	c #BF0000",
":.	c #420000",
"<.	c #BA0000",
"[.	c #580000",
"}.	c #F20000",
"|.	c #FA0000",
"1.	c #DB0000",
"2.	c #BD0000",
"3.	c #900000",
"4.	c #B30000",
"5.	c #3B0000",
"6.	c #820000",
"7.	c #860000",
"8.	c #C60000",
"9.	c #C00000",
"0.	c #5F0000",
"a.	c #660000",
"b.	c #800000",
"c.	c #C90000",
"d.	c #E90000",
"e.	c #CB0000",
"f.	c #DE0000",
"g.	c #4D0000",
"h.	c #A80000",
"i.	c #A20000",
"j.	c #8C0000",
"k.	c #970000",
"l.	c #5A0000",
"m.	c #B70000",
"n.	c #D30000",
"o.	c #A50000",
"p.	c #770000",
"q.	c #6E0000",
"r.	c #D60000",
"s.	c #750000",
"t.	c #E80000",
"u.	c #690000",
"v.	c #920000",
"w.	c #9C0000",
"x.	c #990000",
"y.	c #C40000",
"z.	c #7F0000",
"A.	c #5C0000",
"B.	c #730000",
"C.	c #B20000",
"D.	c #7A0000",
"E.	c #8D0000",
"F.	c #C20000",
"G.	c #5D0000",
"H.	c #BB0000",
"I.	c #D90000",
"J.	c #450000",
"K.	c #8E0000",
". . . . . . . . . . . . . . . . . . . . . . . . . . . . . . . . . . . . . . . . . . . . . . . . . . . . . . . . . . . . . . . . . . . . . . . . . . . . . . . . ",
". . . . . . . . . . . . . . . . . . . . . . . . . . . . . . . . . . . . . . . . . . . . . . . . . . . . . . . . . . . . . . . . . . . . . . . . . . . . . . . . ",
". . . . . . . . . . . . . . . . . . . . . . . . . . . . . . . . . . . . . . . . . . . . . . . . . . . . . . . . . . . . . . . . . . . . . . . . . . . . . . . . ",
". . . . . . . . . . . . . . . . . . . . . . . . . . . . . . . . . . . . . . . . . . . . . . . . . . . . . . . . . . . . . . . . . . . . . . . . . . . . . . . . ",
". . . . . . . . . . . . . . . . . . . . . . . . . . . . . . . . . . . . . . . . . . . . . . . . . . . . . . . . . . . . . . . . . . . . . . . . . . . . . . . . ",
". . . . . . . . . . . . . . . . . . . . . . . . . . . . . . . + @ # $ % & * = - ; > , ' ) ! . . . . . . . . . . . . . . . . . . . . . . . . . . . . . . . . . . ",
". . . . . . . . . . . . . . . . . . . . . . . . . . . . + ~ { ] ] ] ] ] ] ] ] ] ] ] ] ] ] ] ^ / ( . . . . . . . . . . . . . . . . . . . . . . . . . . . . . . . ",
". . . . . . . . . . . . . . . . . . . . . . . . . . _ : = ] ] ] ] ] ] ] ] ] ] ] ] ] ] ] ] ] ] ] ] < [ . . . . . . . . . . . . . . . . . . . . . . . . . . . . . ",
". . . . . . . . . . . . . . . . . . . . . . . . } | 1 ] ] ] ] ] ] ] ] ] ] ] ] ] ] ] ] ] ] ] ] ] ] ] ] , ! . . 2 ) . . . . . . . . . . . . . . . . . . . . . . . ",
". . . . . . . . . . . . . . . . . . . . . . . ( > ] ] ] ] ] ] ] ] 3 4 5 ( 6 7 8 ! 9 0 a b ] ] ] ] ] ] ] * c . . d e + . . . . . . . . . . . . . . . . . . . . . ",
". . . . . . . . . . . . . . . . . . . . . . f g ] ] ] ] ] ] ] h @ i . . . . . . . . . . j k l ] ] ] ] ] ] ] m i . n o p . . . . . . . . . . . . . . . . . . . . ",
". . . . . . . . . . . . . . . . . . . . . 9 - ] ] ] ] ] ] ] q 8 . . . r s t u v ; w q x j . y t ] ] ] ] ] ] ] z A . B C D . . . . . . . . . . . . . . . . . . . ",
". . . . . . . . . . . . . . . . . . . . E F ] ] ] ] ] ] ] ' . . . G H o I J K 7 L + M N u k 8 } O ] ] ] ] ] ] ] z } . P v Q . . . . . . . . . . . . . . . . . . ",
". . . . . . . . . . . . . . . . . . . . R ] ] ] ] ] ] ] m . . . @ * ~ } . . . . . . . . j s S T A U ] ] ] ] ] ] ] q . . V ; K . . . . . . . . . . . . . . . . . ",
". . . . . . . . . . . . . . . . . . . M ] ] ] ] ] ] ] & j . . W X Y . . . . . . . . . . . . p Z 2 ( ` ] ] ] ] ] ] ]  .. j F ... . . . . . . . . . . . . . . . . ",
". . . . . . . . . . . . . . . . . . . S ] ] ] ] ] ] ] +.. . K l c . . . . . . . . . . . . . . r h E @.] ] ] ] ] ] ] g j . c ] 9 . . . . . . . . . . . . . . . . ",
". . . . . . . . . . . . . . . . . . r ] ] ] ] ] ] ] ] + . . #.$.. . . . . . . . . . . . . . . . %.&.( ] ] ] ] ] ] ] ] ' . i Z O . . . . . . . . . . . . . . . . ",
". . . . . . . . . . . . . . . . . . s ] ] ] ] ] ] ] h . . *.3 ) . . . . . . . . . . . . . . . . . e =.{ ] ] ] ] ] ] ] l A . -.` j . . . . . . . . . . . . . . . ",
". . . . . . . . . . . . . . . . . . ;.] ] ] ] ] ] ] >.. . E ] ,.. . . . . . . . . . . . . . . . . '.' ).] ] ] ] ] ] ] ] M . ( ] x . . . . . . . . . . . . . . . ",
". . . . . . . . . . . . . . . . . . b ] ] ] ] ] ] ] !.. . =.= *.. . . . . . . . . . . . . . . . . . ).d ] ] ] ] ] ] ] ] q . . ^ ~.. . . . . . . . . . . . . . . ",
". . . . . . . . . . . . . . . . . A ] ] ] ] ] ] ] ] {.. . G ].*.. . . . . . . . . . . . . . . . . . ) M ] ] ] ] ] ] ] ] S . . q ^.. . . . . . . . . . . . . . . ",
". . . . . . . . . . . . . . . . . K ] ] ] ] ] ] ] ] /.. . L ].(.. . . . . . . . . . . . . . . . . . 8 D ] ] ] ] ] ] ] ] = i . _.X . . . . . . . . . . . . . . . ",
". . . . . . . . . . . . . . . . . i ] ] ] ] ] ] ] ] ] E . . H 0 . . . . . . . . . . . . . . . . . . . r ] ] ] ] ] ] ] ] ] 6 . ) ] A . . . . . . . . . . . . . . ",
". . . . . . . . . . . . . . . . . . :.] ] ] ] ] ] ] ] <.. . W [.A . . . . . . . . . . . . . . . . . . n ] ] ] ] ] ] ] ] ] E . Y ] }.. . . . . . . . . . . . . . ",
". . . . . . . . . . . . . . . . . . $.] ] ] ] ] ] ] ] g ,.. . ..O i . . . . . . K . . . . . . . . . . c ] ] ] ] ] ] ] ] ] |.. 1.] ! . . . . . . . . . . . . . . ",
". . . . . . . . . . . . . . . . . . 2.] ] ] ] ] ] ] ] ] e } . } 3.z E . . . . <.; . . . . . . . . . . 4.] ] ] ] ] ] ] ] 5.. . M ] A . . . . . . . . . . . . . . ",
". . . . . . . . . . . . . . . . . . _ ].] ] ] ] ] ] ] ] ] e K . *.x 6.1.. |.).] a . . . . . . . . . . 7.] ] ] ] ] ] ] ] t . . 8.X . . . . . . . . . . . . . . . ",
". . . . . . . . . . . . . . . . . . . V ] ] ] ] ] ] ] ] ] ] l k =.L } _ 9.0.] ] @ . f >.. . . . . . } * ] ] ] ] ] ] ] ] / . . 4.a.. . . . . . . . . . . . . . . ",
". . . . . . . . . . . . . . . . . . . ! - ] ] ] ] ] ] ] ] ] ] ] ] ] ] ] ] ] ] ; } . -.: . . . . . . D ] ] ] ] ] ] ] ] ] r . . $.@.. . . . . . . . . . . . . . . ",
". . . . . . . . . . . . . . . . . . . . Y = ] ] ] ] ] ] ] ] ] ] ] ] ] ] ] ] ] 5 . . b.Y . . . . . . a ] ] ] ] ] ] ] ] ^ *.. } v x . . . . . . . . . . . . . . . ",
". . . . . . . . . . . . . . . . . . . . . c.` ] ] ] ] ] ] ] ] ] ] ] ] ] ] ] ).. . d.a.7 . . . . . ( ].] ] ] ] ] ] ] ] e.. . Y = }.. . . . . . . . . . . . . . . ",
". . . . . . . . . . . . . . . . . . . . . . f.g.] ] ] ] ] ] ] ] ] ] ] ] ] h.*.. . i.@ . . . . . . ..] ] ] ] ] ] ] ] h i . . j.k.. . . . . . . . . . . . . . . . ",
". . . . . . . . . . . . . . . . . . . . . K d j / 5.] ] ] ] ] ] ] ] ] l.5 . . . [ ;.7 . . . . . 1.] ] ] ] ] ] ] ] ].r . . ( ] [ . . . . . . . . . . . . . . . . ",
". . . . . . . . . . . . . . . . . . . . . . %.m.. L n.o.p.l.X l ^ q M i . . . E ^ _ . . . . . j [.] ] ] ] ] ] ] ] s . . . a 6.. . . . . . . . . . . . . . . . . ",
". . . . . . . . . . . . . . . . . . . . . . . ).~.} . . . . . . . . . . . . (.q.r.. . . . . 7 < ] ] ] ] ] ] ] ] 7.} . . n.v _ . . . . . . . . . . . . . . . . . ",
". . . . . . . . . . . . . . . . . . . . . . . *.s s.t.. . . . . . . . . |.0 [.B . . . . . *.N ] ] ] ] ] ] ] ] s.8 . . K o I . . . . . . . . . . . . . . . . . . ",
". . . . . . . . . . . . . . . . . . . . . . . . . Y u.v.x ( L 7 j ( M 4 g.w.}.. . . . . i q ] ] ] ] ] ] ] ] S ,.. . } $.7.i . . . . . . . . . . . . . . . . . . ",
". . . . . . . . . . . . . . . . . . . . . . . . . . 7 B @.U l ` & ^ x.y.}.. . . . . . K 6.] ] ] ] ] ] ] ] 6.j . . 7 a u.j . . . . . . . . . . . . . . . . . . . ",
". . . . . . . . . . . . . . . . . . . . . . . . . . . . . . . . . . . . . . . . . . r Z ] ] ] ] ] ] ] ] &.} . . } , u + . . . . . . . . . . . . . . . . . . . . ",
". . . . . . . . . . . . . . . . . . . . . . . . . . . . . . . . . . . . . . . . 7 k = ] ] ] ] ] ] ] X y.. . . K z./.+ . . . . . . . . . . . . . . . . . . . . . ",
". . . . . . . . . . . . . . . . . . . . . . . . . . . . . . . . . . . . . . . T p.] ] ] ] ] ] ] ] q.d.. . . '.A.s.K . . . . . . . . . . . . . . . . . . . . . . ",
". . . . . . . . . . . . . . . . . . . . . . . . . . . . . . . . . . . . . 7 -.v ] ] ] ] ] ] ] v / } . . *.+.1 : 8 . . . . . . . . . . . . . . . . . . . . . . . ",
". . . . . . . . . . . . . . . . . . . . . . . . . . . . . . . . . . . . =.B.] ] ] ] ] ] ] ] j.( . . . _ H b c . . . . . . . . . . . . . . . . . . . . . . . . . ",
". . . . . . . . . . . . . . . . . . . . . . . . . . . . . . . . . . } C.= ] ] ] ] ] ] ] { D . . . |.k 1 D._ . . . . . . . . . . . . . . . . . . . . . . . . . . ",
". . . . . . . . . . . . . . . . . . . . . . . . . . . . . . . . . =.% ] ] ] ] ] ] ] F y.i . . *.x [.& c.*.. . . . . . . . . . . . . . . . . . . . . . . . . . . ",
". . . . . . . . . . . . . . . . . . . . . . . . . . . . . . . 7 k ` ] ] ] ] ] ] C / 8 . . . n > = ).j . . . . . . . . . . . . . . . . . . . . . . . . . . . . . ",
". . . . . . . . . . . . . . . . . . . . . . . . . . . . . . K R ] ] ] ] ] ] ].i.E . . . 9 R ] E.d.. . . . . . . . . . . . . . . . . . . . . . . . . . . . . . . ",
". . . . . . . . . . . . . . . . . . . . . . . . . . . . . 9 [.] ] ] ] ] ] {.t.. . . ( k.] s.p . . . . . . . . . . . . . . . . . . . . . . . . . . . . . . . . . ",
". . . . . . . . . . . . . . . . . . . . . . . . . . . . @ v ] ] ] ] ] l.W . . . 6 ).` l.@ *.. . . . . . . . . . . . . . . . . . . . . . . . . . . . . . . . . . ",
". . . . . . . . . . . . . . . . . . . . . . . . . . . F.] ] ] ] ] ] m L . . 7 0 :.5.2.} . . . . . . . . . . . . . . . . . . . . . . . . . . . . . . . . . . . . ",
". . . . . . . . . . . . . . . . . . . . . . . . . . m.] ] ] ] ] X e.. . . t.p.].@.,.. . . . . . . . . . . . . . . . . . . . . . . . . . . . . . . . . . . . . . ",
". . . . . . . . . . . . . . . . . . . . . . . . . / ] ] ] ] ] g.9 . . *.-.1 U '.. . . . . . . . . . . . . . . . . . . . . . . . . . . . . . . . . . . . . . . . ",
". . . . . . . . . . . . . . . . . . . . . . . . %.] ] ] ] ] G.( . . K {.` H.i . . . . . . . . . . . . . . . . . . . . . . . . . . . . . . . . . . . . . . . . . ",
". . . . . . . . . . . . . . . . . . . . . . . I.= ] ] ] ] [.! . . d.G./.9 . . . . . . . . . . . . . . . . . . . . . . . . . . . . . . . . . . . . . . . . . . . ",
". . . . . . . . . . . . . . . . . . . . . . (.- ] ] ] ] & _ . . f.5.j.L . . . . . . . . . . . . . . . . . . . . . . . . i J._ . . . . . . . . . . . . . . . . . ",
". . . . . . . . . . . . . . . . . . . . . *.z.] ] ] ] ` f.. . p * h.*.. . . . . . . . . . . . . . . . . . . . . . . . . 1.] _ . . . . . . . . . . . . . . . . . ",
". . . . . . . . . . . . . . . . . . . . . 2.] ] ] ] ] 0 . . 9 * s . . . . . . . . . . . . . . . . . . . . . . . . . . . $ ] _ . @ J.. . . . . . . . . . . . . . ",
". . . . . . . . . . . . . . . . . . . . (.v ] ] ] ] K.. . y ; q . . . . . . . . . . . . . . . . . . . . . . . . . . . D ] ] _ . @ J.. . . . . . . . . . . . . . ",
". . . . . . . . . . . . . . . . . . . . : ] ] ] ] g ,.. 7 $.B.i . . . . . . . . . . . . . . . . . . . . . . . . . . J b ] ] _ . @ J.. . . . . . . . . . . . . . ",
". . . . . . . . . . . . . . . . . . . G ].] ] ] ] c . . 2.= t.. . . . . . . . . . . . . . . . . . . . . . . . . }.s ` ] ] ] _ . @ J.. . . . . . . . . . . . . . ",
". . . . . . . . . . . . . . . . . . . v.] ] ] ] H *.. y * q . . . . . . . . . . . . . . . . 7 } 8 }.( f D F.).s.].] ] ] ] ] _ . @ J.. . . . . . . . . . . . . . ",
". . . . . . . . . . . . . . . . . . ! ].] ] ] ] ] ] ] ] ] ] ] ] ] ] ] ] ] ] ] ] ] ] ] ] ] ] ] ] ] ] ] ] ] ] ] ] ] ] ] ] ] ] _ . @ J.. . . . . . . . . . . . . . ",
". . . . . . . . . . . . . . . . . . m.] ] ] ] ] ] ] ] ] ] ] ] ] ] ] ] ] ] ] ] ] ] ] ] ] ] ] ] ] ] ] ] ] ] ] ] ] ] ] ] ] ] ] _ . @ J.. . . . . . . . . . . . . . ",
". . . . . . . . . . . . . . . . . 7 [.] ] ] ] ] ] ] ] ] ] ] ] ] ] ] ] ] ] ] ] ] ] ] ] ] ] ] ] ] ] ] ] ] ] ] ] ] ] ] ] ] ] ] _ . @ J.. . . . . . . . . . . . . . ",
". . . . . . . . . . . . . . . . . f.] ] ] ] ] ] ] ] ] ] ] ] ] ] ] ] ] ] ] ] ] ] ] ] ] ] ] ] ] ] ] ] ] ] ] ] ] ] ] ] ] ] ] ] _ . @ J.. . . . . . . . . . . . . . ",
". . . . . . . . . . . . . . . . . 4.] ] ] ] ] ] ] ] ] ] ] ] ] ] ] ] ] ] ] ] ] ] ] ] ] ] ] ] ] ] ] ] ] ] ] ] ] ] ] ] ] ] ] ] _ . @ J.. . . . . . . . . . . . . . ",
". . . . . . . . . . . . . . . . . B.] ] ] ] ] ] ] ] ] ] ] ] ] ] ] ] ] ] ] ] ] ] ] ] ] ] ] ] ] ] ] ] ] ] ] ] ] ] ] ] ] ] ] ] _ . @ J.. . . . . . . . . . . . . . ",
". . . . . . . . . . . . . . . . K ] ] ] ] ] ] ] ] ] ] ] ] ] ] ] ] ] ] ] ] ] ] ] ] ] ] ] ] ] ] ] ] ] ] ] ] ] ] ] ] ] ] ] ] ] _ . @ J.. . . . . . . . . . . . . . ",
". . . . . . . . . . . . . . . . . . . . . . . . . . . . . . . . . . . . . . . . . . . . . . . . . . . . . . . . . . . . . . . . @ J.. . . . . . . . . . . . . . ",
". . . . . . . . . . . . . . . . . . . . . . . . . . . . . . . . . . . . . . . . . . . . . . . . . . . . . . . . . . . . . . . . @ J.. . . . . . . . . . . . . . ",
". . . . . . . . . . . . . . . . . . . . . . . . . . . . . . . . . . . . . . . . . . . . . . . . . . . . . . . . . . . . . . . . @ J.. . . . . . . . . . . . . . ",
". . . . . . . . . . . . . . . . . . . . j u.] ] ] ] ] ] ] ] ] ] ] ] ] ] ] ] ] ] ] ] ] ] ] ] ] ] ] ] ] ] ] ] ] ] ] ] ] ] ] ] ] ] ] J.. . . . . . . . . . . . . . ",
". . . . . . . . . . . . . . . . . . . . . . . . . . . . . . . . . . . . . . . . . . . . . . . . . . . . . . . . . . . . . . . . . . . . . . . . . . . . . . . . ",
". . . . . . . . . . . . . . . . . . . . . . . . . . . . . . . . . . . . . . . . . . . . . . . . . . . . . . . . . . . . . . . . . . . . . . . . . . . . . . . . ",
". . . . . . . . . . . . . . . . . . . . . . . . . . . . . . . . . . . . . . . . . . . . . . . . . . . . . . . . . . . . . . . . . . . . . . . . . . . . . . . . ",
". . . . . . . . . . . . . . . . . . . . . . . . . . . . . . . . . . . . . . . . . . . . . . . . . . . . . . . . . . . . . . . . . . . . . . . . . . . . . . . . ",
". . . . . . . . . . . . . . . . . . . . . . . . . . . . . . . . . . . . . . . . . . . . . . . . . . . . . . . . . . . . . . . . . . . . . . . . . . . . . . . . ",
". . . . . . . . . . . . . . . . . . . . . . . . . . . . . . . . . . . . . . . . . . . . . . . . . . . . . . . . . . . . . . . . . . . . . . . . . . . . . . . . ",
". . . . . . . . . . . . . . . . . . . . . . . . . . . . . . . . . . . . . . . . . . . . . . . . . . . . . . . . . . . . . . . . . . . . . . . . . . . . . . . . ",
". . . . . . . . . . . . . . . . . . . . . . . . . . . . . . . . . . . . . . . . . . . . . . . . . . . . . . . . . . . . . . . . . . . . . . . . . . . . . . . . "};
