/* XPM */
static xpm_row_t const number3_xpm[] = {
"80 80 180 2",
"  	c None",
". 	c #FF0000",
"+ 	c #FC0000",
"@ 	c #E40000",
"# 	c #C80000",
"$ 	c #A90000",
"% 	c #900000",
"& 	c #720000",
"* 	c #530000",
"= 	c #400000",
"- 	c #260000",
"; 	c #1C0000",
"> 	c #3B0000",
", 	c #580000",
"' 	c #790000",
") 	c #980000",
"! 	c #B90000",
"~ 	c #D70000",
"{ 	c #F60000",
"] 	c #D20000",
"^ 	c #3D0000",
"/ 	c #000000",
"( 	c #0D0000",
"_ 	c #820000",
": 	c #C70000",
"< 	c #F80000",
"[ 	c #FA0000",
"} 	c #BB0000",
"| 	c #4F0000",
"1 	c #B20000",
"2 	c #D40000",
"3 	c #550000",
"4 	c #470000",
"5 	c #CF0000",
"6 	c #F70000",
"7 	c #A70000",
"8 	c #6D0000",
"9 	c #B60000",
"0 	c #DB0000",
"a 	c #EF0000",
"b 	c #FD0000",
"c 	c #F40000",
"d 	c #E90000",
"e 	c #CD0000",
"f 	c #9E0000",
"g 	c #9D0000",
"h 	c #FB0000",
"i 	c #C00000",
"j 	c #FE0000",
"k 	c #8F0000",
"l 	c #700000",
"m 	c #DC0000",
"n 	c #BA0000",
"o 	c #800000",
"p 	c #9A0000",
"q 	c #950000",
"r 	c #AA0000",
"s 	c #D10000",
"t 	c #650000",
"u 	c #320000",
"v 	c #8A0000",
"w 	c #ED0000",
"x 	c #830000",
"y 	c #BC0000",
"z 	c #AF0000",
"A 	c #E00000",
"B 	c #620000",
"C 	c #780000",
"D 	c #CB0000",
"E 	c #F90000",
"F 	c #F20000",
"G 	c #DA0000",
"H 	c #450000",
"I 	c #940000",
"J 	c #F00000",
"K 	c #960000",
"L 	c #EA0000",
"M 	c #D90000",
"N 	c #EC0000",
"O 	c #810000",
"P 	c #CE0000",
"Q 	c #350000",
"R 	c #AE0000",
"S 	c #D80000",
"T 	c #870000",
"U 	c #160000",
"V 	c #E60000",
"W 	c #B80000",
"X 	c #5C0000",
"Y 	c #E70000",
"Z 	c #220000",
"` 	c #420000",
" .	c #D50000",
"..	c #F50000",
"+.	c #930000",
"@.	c #C40000",
"#.	c #710000",
"$.	c #A10000",
"%.	c #510000",
"&.	c #EB0000",
"*.	c #5D0000",
"=.	c #E30000",
"-.	c #F10000",
";.	c #DF0000",
">.	c #B10000",
",.	c #9C0000",
"'.	c #760000",
").	c #B40000",
"!.	c #A00000",
"~.	c #CC0000",
"{.	c #B00000",
"].	c #6A0000",
"^.	c #C20000",
"/.	c #AB0000",
"(.	c #860000",
"_.	c #5A0000",
":.	c #BE0000",
"<.	c #8E0000",
"[.	c #7A0000",
"}.	c #9F0000",
"|.	c #680000",
"1.	c #890000",
"2.	c #A30000",
"3.	c #630000",
"4.	c #D00000",
"5.	c #7C0000",
"6.	c #7D0000",
"7.	c #840000",
"8.	c #9B0000",
"9.	c #8C0000",
"0.	c #910000",
"a.	c #DE0000",
"b.	c #B30000",
"c.	c #AC0000",
"d.	c #DD0000",
"e.	c #660000",
"f.	c #D60000",
"g.	c #490000",
"h.	c #850000",
"i.	c #E80000",
"j.	c #880000",
"k.	c #EE0000",
"l.	c #A20000",
"m.	c #BD0000",
"n.	c #F30000",
"o.	c #C10000",
"p.	c #E50000",
"q.	c #C30000",
"r.	c #B70000",
"s.	c #600000",
"t.	c #E20000",
"u.	c #4B0000",
"v.	c #CA0000",
"w.	c #730000",
"x.	c #2A0000",
"y.	c #4D0000",
"z.	c #7F0000",
"A.	c #A80000",
"B.	c #920000",
"C.	c #2E0000",
"D.	c #6C0000",
"E.	c #970000",
"F.	c #A50000",
"G.	c #E10000",
"H.	c #380000",
"I.	c #C50000",
"J.	c #B50000",
"K.	c #770000",
"L.	c #750000",
"M.	c #AD0000",
"N.	c #C90000",
"O.	c #690000",
"P.	c #990000",
"Q.	c #6E0000",
"R.	c #D30000",
"S.	c #A40000",
"T.	c #8B0000",
"U.	c #A60000",
"V.	c #7E0000",
"W.	c #5F0000",
". . . . . . . . . . . . . . . . . . . . . . . . . . . . . . . . . . . . . . . . . . . . . . . . . . . . . . . . . . . . . . . . . . . . . . . . . . . . . . . . ",
". . . . . . . . . . . . . . . . . . . . . . . . . . . . . . . . . . . . . . . . . . . . . . . . . . . . . . . . . . . . . . . . . . . . . . . . . . . . . . . . ",
". . . . . . . . . . . . . . . . . . . . . . . . . . . . . . . . . . . . . . . . . . . . . . . . . . . . . . . . . . . . . . . . . . . . . . . . . . . . . . . . ",
". . . . . . . . . . . . . . . . . . . . . . . . . . . . . . . . . . . . . . . . . . . . . . . . . . . . . . . . . . . . . . . . . . . . . . . . . . . . . . . . ",
". . . . . . . . . . . . . . . . . . . . . . . . . . . . . . + @ # $ % & * = - ; > , ' ) ! ~ { . . . . . . . . . . . . . . . . . . . . . . . . . . . . . . . . . ",
". . . . . . . . . . . . . . . . . . . . . . . . . . . + ] ) ^ / / / / / / / / / / / / / / / ( _ : < . . . . . . . . . . . . . . . . . . . . . . . . . . . . . . ",
". . . . . . . . . . . . . . . . . . . . . . . . . [ } | / / / / / / / / / / / / / / / / / / / / / > 1 { . . . . . . . . . . . . . . . . . . . . . . . . . . . . ",
". . . . . . . . . . . . . . . . . . . . . . . . 2 3 / / / / / / / / / / / / / / / / / / / / / / / / / 4 5 . . < 6 . . . . . . . . . . . . . . . . . . . . . . . ",
". . . . . . . . . . . . . . . . . . . . . . + 7 / / / / / / / / 8 9 0 a < b c d e f = / / / / / / / / / / g h . 1 i j . . . . . . . . . . . . . . . . . . . . . ",
". . . . . . . . . . . . . . . . . . . . . h k / / / / / / / l m . . . . . . . . . . 6 n = / / / / / / / / / o < j p p j . . . . . . . . . . . . . . . . . . . . ",
". . . . . . . . . . . . . . . . . . . . . q / / / / / / / r h . . b s g t > u , v ! w . a ' / / / / / / / / / x + [ & r . . . . . . . . . . . . . . . . . . . . ",
". . . . . . . . . . . . . . . . . . . . y / / / / / / / z . . . A B C D w E + F G $ H I J + K / / / / / / / / / z . L - M . . . . . . . . . . . . . . . . . . . ",
". . . . . . . . . . . . . . . . . . . N ; / / / / / / O . . . P Q # . . . . . . . . { R > S h T / / / / / / / / U V . W X h . . . . . . . . . . . . . . . . . . ",
". . . . . . . . . . . . . . . . . . . I / / / / / / / Y . . A Z 2 . . . . . . . . . . . 0 `  ...H / / / / / / / / +.. E | @.. . . . . . . . . . . . . . . . . . ",
". . . . . . . . . . . . . . . . . . c ( / / / / / / #.. . j l $.. . . . . . . . . . . . . @ %.&.: / / / / / / / / ( F . n *.j . . . . . . . . . . . . . . . . . ",
". . . . . . . . . . . . . . . . . . D / / / / / / / 1 . . =./ Y . . . . . . . . . . . . . . S v h > / / / / / / / / D . -./ ;.. . . . . . . . . . . . . . . . . ",
". . . . . . . . . . . . . . . . . . >./ / / / / / / @.. . i ` . . . . . . . . . . . . . . . . z ;.,./ / / / / / / / r . . '.).. . . . . . . . . . . . . . . . . ",
". . . . . . . . . . . . . . . . . . !./ / / / / / / ~.. . {.].. . . . . . . . . . . . . . . . h } ^./ / / / / / / / k . . /.(.. . . . . . . . . . . . . . . . . ",
". . . . . . . . . . . . . . . . . . r / / / / / / / i . . } %.. . . . . . . . . . . . . . . . . . ] / / / / / / / / O . . : _.. . . . . . . . . . . . . . . . . ",
". . . . . . . . . . . . . . . . . . :./ / / / / / / K . . 0 / @ . . . . . . . . . . . . . . . . . S / / / / / / / / <.. . ] u . . . . . . . . . . . . . . . . . ",
". . . . . . . . . . . . . . . . . . @ / / / / / / / - -.. j [.'.< . . . . . . . . . . . . . . . . D / / / / / / / / }.. . 2 > . . . . . . . . . . . . . . . . . ",
". . . . . . . . . . . . . . . . . . j |./ / / / / / / 1.h . c O 2.j . . . . . . . . . . . . . . . ! / / / / / / / / i . . : 3.. . . . . . . . . . . . . . . . . ",
". . . . . . . . . . . . . . . . . . . 4./ / / / / / / / 5.m E E P l  .. . . . . . . . . . . . . . 6./ / / / / / / / V . . ).7.. . . . . . . . . . . . . . . . . ",
". . . . . . . . . . . . . . . . . . . . 8./ / / / / / / / / / / / , [ . . . . . . . . . . . . . J ( / / / / / / / ].j . . [.9 . . . . . . . . . . . . . . . . . ",
". . . . . . . . . . . . . . . . . . . . [ 9./ / / / / / / / / / ; m . . m 0.+ . . . . . . . . . }./ / / / / / / / ~.. . c U a.. . . . . . . . . . . . . . . . . ",
". . . . . . . . . . . . . . . . . . . . . a b.- / / / / / / / 4 S . . c _.c.. . . . . . . . . d.( / / / / / / / 5.b . . ).e.j . . . . . . . . . . . . . . . . . ",
". . . . . . . . . . . . . . . . . . . . . N f.a ! 6.| Z g.x :.{ . . F l h.+ . . . . . . . . i.= / / / / / / / > w . . c = # . . . . . . . . . . . . . . . . . . ",
". . . . . . . . . . . . . . . . . . . . . . -.! ... . . . . . . . f.| j.< . . . . . . . . f.H / / / / / / / Q ;.. . . % l h . . . . . . . . . . . . . . . . . . ",
". . . . . . . . . . . . . . . . . . . . . . . h i R S F h + k.e o Q } b . . . . . . . w l./ / / / / / / / %.A . . . m.; V . . . . . . . . . . . . . . . . . . . ",
". . . . . . . . . . . . . . . . . . . . . . . . . n.i _ 3 - %.1.o.c . . . . h F p.q.% U / / / / / / / / +.c . . . q./ : . . . . . . . . . . . . . . . . . . . . ",
". . . . . . . . . . . . . . . . . . . . . . . . . . . . . . . . . . r.s.= ; / / / / / / / / / / / U k t.. . . h r / n . . . . . . . . . . . . . . . . . . . . . ",
". . . . . . . . . . . . . . . . . . . . . . . . . . . . . . . . . + u./ / / / / / / / / / / / v v.c . . . . d.w.x.# . . . . . . . . . . . . . . . . . . . . . . ",
". . . . . . . . . . . . . . . . . . . . . . . . . . . . . . . . . S / / / / / / / / / / / / y.{ . . . h  .j./ z.V . . . . . . . . . . . . . . . . . . . . . . . ",
". . . . . . . . . . . . . . . . . . . . . . . . . . . . . . . . . 8./ / / / / / / / / / / / / ^ A.@ [ l u B.M . . . . . . . . . . . . . . . . . . . . . . . . . ",
". . . . . . . . . . . . . . . . . . . . . . . . . . . . . . . . < C./ / / / / / / / / / / / / / / / D.! 6 . . . . . . . . . . . . . . . . . . . . . . . . . . . ",
". . . . . . . . . . . . . . . . . . . . . . . . . . . . . . . . J ] A N { + j < i.v.% ( / / / / / / / / t s . . . . . . . . . . . . . . . . . . . . . . . . . . ",
". . . . . . . . . . . . . . . . . . . . . . . . . . . . . . . . . . . . . . . . . . . k.E./ / / / / / / / / <.... . . . . . . . . . . . . . . . . . . . . . . . ",
". . . . . . . . . . . . . . . . . . . . . . . . . . . . . . . . . . . . . . . . . . . . . 4.C./ / / / / / / / 3 A . . . . . . . . . . . . . . . . . . . . . . . ",
". . . . . . . . . . . . . . . . . . . . . . . . . . . . . . . . . 6 v #.* ^ ; C.| 6.F.4.E . G.H./ / / / / / / / u ;.. z 6 . . . . . . . . . . . . . . . . . . . ",
". . . . . . . . . . . . . . . . . . . . . . . . . . . . . . . . . . I.G J 6 b < k.=.o.<.u.J.E m U / / / / / / / / > @ p.h.[ . . . . . . . . . . . . . . . . . . ",
". . . . . . . . . . . . . . . . . . . . . . . . . . . . . . . . . . . . . . . . . . . . c 1 K.w )./ / / / / / / / / s.E m.) . . . . . . . . . . . . . . . . . . ",
". . . . . . . . . . . . . . . . . . . . . . . . . . . . . . . . . . . . . . . . . . . . . . F ) k.L./ / / / / / / / / /.j 5.} . . . . . . . . . . . . . . . . . ",
". . . . . . . . . . . . . . . . . . . . . . . . . . . . . . . . . . . . . . . . . . . . . . . + 0 d./ / / / / / / / / ( N d C.@ . . . . . . . . . . . . . . . . ",
". . . . . . . . . . . . . . . . . . . . . . . . . . . . . . . . . . . . . . . . . . . . . . . . . . L./ / / / / / / / / M.. c.8 b . . . . . . . . . . . . . . . ",
". . . . . . . . . . . . . . . . . . . . . . . . . . . . . . . . . . . . . . . . . . . . . . . . . . P / / / / / / / / / ^ [ ..H.N.. . . . . . . . . . . . . . . ",
". . . . . . . . . . . . . . . . . . . . . . . . . . . . . . . . . . . . . . . . . . . . . . . . . . c / / / / / / / / / / d.. M.O.. . . . . . . . . . . . . . . ",
". . . . . . . . . . . . . . . . . . . . . . . . . . -.. . . . . . . . . . . . . . . . . . . . . . . . D./ / / / / / / / / n . Y / =.. . . . . . . . . . . . . . ",
". . . . . . . . . . . . . . . . . . . . . . . . + 9 $.. . . . . . . . . . . . . . . . . . . . . . . . 7 / / / / / / / / / k . . , y . . . . . . . . . . . . . . ",
". . . . . . . . . . . . . . . . . . . . . . . 0 l / i . . J / -.. . . . . . . . . . . . . . . . . . . } / / / / / / / / / w.. . P.0.. . . . . . . . . . . . . . ",
". . . . . . . . . . . . . . . . . . . . . t.9./ / / S . . M ; b . . . . . . . . . . . . . . . . . . . : / / / / / / / / / _.. . 9 |.. . . . . . . . . . . . . . ",
". . . . . . . . . . . . . . . . . . +  .o / / / / / t.. . i B . . . . . . . . . . . . . . . . . . . . ] / / / / / / / / / Q . . # H.. . . . . . . . . . . . . . ",
". . . . . . . . . . . . . . . . p.M.u./ / / / / / / L . . A.7.. . . . . . . . . . . . . . . . . . . . 5 / / / / / / / / / ^ . . 5 ( . . . . . . . . . . . . . . ",
". . . . . . . . . . . . . . . . Q./ / / / / / / / / N . . +.8.. . . . . . . . . . . . . . . . . . . . @./ / / / / / / / / , . . s / j . . . . . . . . . . . . . ",
". . . . . . . . . . . . . . . . 7 / / / / / / / / / @ . . h.r . . . . . . . . . . . . . . . . . . . . ! / / / / / / / / / z.. . v.Q . . . . . . . . . . . . . . ",
". . . . . . . . . . . . . . . . R./ / / / / / / / / m . . v $ . . . . . . . . . . . . . . . . . . . . ,./ / / / / / / / / l.. . :._.. . . . . . . . . . . . . . ",
". . . . . . . . . . . . . . . . < Z / / / / / / / / v.. . 8.g . . . . . . . . . . . . . . . . . . . . _./ / / / / / / / / N.. . $.T . . . . . . . . . . . . . . ",
". . . . . . . . . . . . . . . . . K / / / / / / / / S.. . n ' . . . . . . . . . . . . . . . . . . . a / / / / / / / / / / k.. . L.r . . . . . . . . . . . . . . ",
". . . . . . . . . . . . . . . . . 0 / / / / / / / / O.. . a.x.[ . . . . . . . . . . . . . . . . . . ! / / / / / / / / / z.. . c / 2 . . . . . . . . . . . . . . ",
". . . . . . . . . . . . . . . . . . & / / / / / / / / =.. j _.2 . . . . . . . . . . . . . . . . . h y./ / / / / / / / / 4.. . v.; { . . . . . . . . . . . . . . ",
". . . . . . . . . . . . . . . . . . ~ / / / / / / / / 8.. . ^.6.. . . . . . . . . . . . . . . . . y / / / / / / / / / #.j . . K.I . . . . . . . . . . . . . . . ",
". . . . . . . . . . . . . . . . . . . 0./ / / / / / / ( d.. + D.P . . . . . . . . . . . . . . . t.; / / / / / / / / U t.. . m / G . . . . . . . . . . . . . . . ",
". . . . . . . . . . . . . . . . . . . F | / / / / / / / %.F . &., Y . . . . . . . . . . . . . L , / / / / / / / / / y . . j & O . . . . . . . . . . . . . . . . ",
". . . . . . . . . . . . . . . . . . . . ;.x./ / / / / / / , p.. =.D.t.. . . . . . . . . . . 0 = / / / / / / / / / 7 . . . n U @ . . . . . . . . . . . . . . . . ",
". . . . . . . . . . . . . . . . . . . . . S x./ / / / / / / x.>.F J E.} h . . . . . . . &.) / / / / / / / / / / >.j . . a.; 9 . . . . . . . . . . . . . . . . . ",
". . . . . . . . . . . . . . . . . . . . . . t.%./ / / / / / / / - +.i I.N.6 b { w ;.n o U / / / / / / / / / = 5 . . . i.= T.b . . . . . . . . . . . . . . . . . ",
". . . . . . . . . . . . . . . . . . . . . . . ..P./ / / / / / / / / / / / / / / / / / / / / / / / / / / / ) J . . . @ u.C E . . . . . . . . . . . . . . . . . . ",
". . . . . . . . . . . . . . . . . . . . . . m . . G.1./ / / / / / / / / / / / / / / / / / / / / / / U ) @ . . . . R.Q (.< . . . . . . . . . . . . . . . . . . . ",
". . . . . . . . . . . . . . . . . . . . . . c >.k.. . &.9 Q./ / / / / / / / / / / / / / / / / - 7.@.F . . . . E 7 / U.h . . . . . . . . . . . . . . . . . . . . ",
". . . . . . . . . . . . . . . . . . . . . . . [ r R ... . . n.f.! ,.o 3.H C.( Z ^ * w.9.$ I.;.h . . . . . . ] _.y.] . . . . . . . . . . . . . . . . . . . . . . ",
". . . . . . . . . . . . . . . . . . . . . . . . . M L.r &.. . . . . . . . . . . . . . . . . . . . . . b ] w.- c.6 . . . . . . . . . . . . . . . . . . . . . . . ",
". . . . . . . . . . . . . . . . . . . . . . . . . . b N.8 [.^.&.. . . . . . . . . . . . . . . . + ;.M.y.4 {.F . . . . . . . . . . . . . . . . . . . . . . . . . ",
". . . . . . . . . . . . . . . . . . . . . . . . . . . . . A /.*., p m.f.p.F E + j h 6 k.A 5 1 v Q * }.f.+ . . . . . . . . . . . . . . . . . . . . . . . . . . . ",
". . . . . . . . . . . . . . . . . . . . . . . . . . . . . . . . k.] ).P.V.*.4 C.( C.H W.z.P.).s &.. . . . . . . . . . . . . . . . . . . . . . . . . . . . . . . ",
". . . . . . . . . . . . . . . . . . . . . . . . . . . . . . . . . . . . . . . . . . . . . . . . . . . . . . . . . . . . . . . . . . . . . . . . . . . . . . . . ",
". . . . . . . . . . . . . . . . . . . . . . . . . . . . . . . . . . . . . . . . . . . . . . . . . . . . . . . . . . . . . . . . . . . . . . . . . . . . . . . . ",
". . . . . . . . . . . . . . . . . . . . . . . . . . . . . . . . . . . . . . . . . . . . . . . . . . . . . . . . . . . . . . . . . . . . . . . . . . . . . . . . ",
". . . . . . . . . . . . . . . . . . . . . . . . . . . . . . . . . . . . . . . . . . . . . . . . . . . . . . . . . . . . . . . . . . . . . . . . . . . . . . . . ",
". . . . . . . . . . . . . . . . . . . . . . . . . . . . . . . . . . . . . . . . . . . . . . . . . . . . . . . . . . . . . . . . . . . . . . . . . . . . . . . . ",
". . . . . . . . . . . . . . . . . . . . . . . . . . . . . . . . . . . . . . . . . . . . . . . . . . . . . . . . . . . . . . . . . . . . . . . . . . . . . . . . ",
". . . . . . . . . . . . . . . . . . . . . . . . . . . . . . . . . . . . . . . . . . . . . . . . . . . . . . . . . . . . . . . . . . . . . . . . . . . . . . . . "};
