/* XPM */
static xpm_row_t const numberslash_xpm[] = {
"80 80 134 2",
"  	c None",
". 	c #FF0000",
"+ 	c #E10000",
"@ 	c #000000",
"# 	c #D30000",
"$ 	c #B60000",
"% 	c #F50000",
"& 	c #FD0000",
"* 	c #730000",
"= 	c #890000",
"- 	c #E00000",
"; 	c #0D0000",
"> 	c #E40000",
", 	c #C40000",
"' 	c #220000",
") 	c #EB0000",
"! 	c #710000",
"~ 	c #A40000",
"{ 	c #F40000",
"] 	c #400000",
"^ 	c #B30000",
"/ 	c #450000",
"( 	c #A00000",
"_ 	c #5A0000",
": 	c #F90000",
"< 	c #C70000",
"[ 	c #A10000",
"} 	c #760000",
"| 	c #FE0000",
"1 	c #E20000",
"2 	c #E30000",
"3 	c #750000",
"4 	c #A30000",
"5 	c #C60000",
"6 	c #790000",
"7 	c #A20000",
"8 	c #C90000",
"9 	c #420000",
"0 	c #F60000",
"a 	c #490000",
"b 	c #C50000",
"c 	c #A70000",
"d 	c #E60000",
"e 	c #160000",
"f 	c #7D0000",
"g 	c #CB0000",
"h 	c #F70000",
"i 	c #4D0000",
"j 	c #AB0000",
"k 	c #720000",
"l 	c #E70000",
"m 	c #1C0000",
"n 	c #810000",
"o 	c #9F0000",
"p 	c #CE0000",
"q 	c #3D0000",
"r 	c #F30000",
"s 	c #F80000",
"t 	c #530000",
"u 	c #C30000",
"v 	c #AE0000",
"w 	c #700000",
"x 	c #E90000",
"y 	c #DF0000",
"z 	c #850000",
"A 	c #9E0000",
"B 	c #D10000",
"C 	c #560000",
"D 	c #C20000",
"E 	c #B20000",
"F 	c #6E0000",
"G 	c #9C0000",
"H 	c #3B0000",
"I 	c #F20000",
"J 	c #FA0000",
"K 	c #5C0000",
"L 	c #C00000",
"M 	c #B40000",
"N 	c #6D0000",
"O 	c #FC0000",
"P 	c #ED0000",
"Q 	c #260000",
"R 	c #DE0000",
"S 	c #8D0000",
"T 	c #9B0000",
"U 	c #D60000",
"V 	c #380000",
"W 	c #F10000",
"X 	c #FB0000",
"Y 	c #5F0000",
"Z 	c #B70000",
"` 	c #6A0000",
" .	c #EE0000",
"..	c #2A0000",
"+.	c #DD0000",
"@.	c #910000",
"#.	c #990000",
"$.	c #D80000",
"%.	c #630000",
"&.	c #BE0000",
"*.	c #BB0000",
"=.	c #690000",
"-.	c #EF0000",
";.	c #320000",
">.	c #DC0000",
",.	c #940000",
"'.	c #980000",
").	c #DA0000",
"!.	c #350000",
"~.	c #F00000",
"{.	c #680000",
"].	c #BD0000",
"^.	c #DB0000",
"/.	c #960000",
"(.	c #6C0000",
"_.	c #BC0000",
":.	c #660000",
"<.	c #650000",
"[.	c #D90000",
"}.	c #930000",
"|.	c #BA0000",
"1.	c #620000",
"2.	c #920000",
"3.	c #770000",
"4.	c #B90000",
"5.	c #C80000",
"6.	c #D70000",
"7.	c #900000",
"8.	c #E50000",
"9.	c #7C0000",
"0.	c #4B0000",
"a.	c #AA0000",
"b.	c #8E0000",
"c.	c #800000",
". . . . . . . . . . . . . . . . . . . . . . . . . . . . . . . . . . . . . . . . . . . . . . . . . . . . . . . . . + @ @ @ @ # . . $ % . . . . . . . . . . . . . ",
". . . . . . . . . . . . . . . . . . . . . . . . . . . . . . . . . . . . . . . . . . . . . . . . . . . . . . . . & * @ @ @ = . . - ; > . . . . . . . . . . . . . ",
". . . . . . . . . . . . . . . . . . . . . . . . . . . . . . . . . . . . . . . . . . . . . . . . . . . . . . . . , @ @ @ ' ) . & ! ~ . . . . . . . . . . . . . . ",
". . . . . . . . . . . . . . . . . . . . . . . . . . . . . . . . . . . . . . . . . . . . . . . . . . . . . . . { ] @ @ @ ^ . . , / % . . . . . . . . . . . . . . ",
". . . . . . . . . . . . . . . . . . . . . . . . . . . . . . . . . . . . . . . . . . . . . . . . . . . . . . . ( @ @ @ _ : . { ] < . . . . . . . . . . . . . . . ",
". . . . . . . . . . . . . . . . . . . . . . . . . . . . . . . . . . . . . . . . . . . . . . . . . . . . . . + @ @ @ @ # . . [ } | . . . . . . . . . . . . . . . ",
". . . . . . . . . . . . . . . . . . . . . . . . . . . . . . . . . . . . . . . . . . . . . . . . . . . . . & * @ @ @ = . . 1 ; 2 . . . . . . . . . . . . . . . . ",
". . . . . . . . . . . . . . . . . . . . . . . . . . . . . . . . . . . . . . . . . . . . . . . . . . . . . , @ @ @ ' ) . | 3 4 . . . . . . . . . . . . . . . . . ",
". . . . . . . . . . . . . . . . . . . . . . . . . . . . . . . . . . . . . . . . . . . . . . . . . . . . { ] @ @ @ ^ . . < / % . . . . . . . . . . . . . . . . . ",
". . . . . . . . . . . . . . . . . . . . . . . . . . . . . . . . . . . . . . . . . . . . . . . . . . . . ( @ @ @ _ : . % / 5 . . . . . . . . . . . . . . . . . . ",
". . . . . . . . . . . . . . . . . . . . . . . . . . . . . . . . . . . . . . . . . . . . . . . . . . . + @ @ @ @ # . . ~ 3 & . . . . . . . . . . . . . . . . . . ",
". . . . . . . . . . . . . . . . . . . . . . . . . . . . . . . . . . . . . . . . . . . . . . . . . . & * @ @ @ = . . > ; 1 . . . . . . . . . . . . . . . . . . . ",
". . . . . . . . . . . . . . . . . . . . . . . . . . . . . . . . . . . . . . . . . . . . . . . . . . , @ @ @ ' ) . | 6 7 . . . . . . . . . . . . . . . . . . . . ",
". . . . . . . . . . . . . . . . . . . . . . . . . . . . . . . . . . . . . . . . . . . . . . . . . { ] @ @ @ ^ . . 8 9 { . . . . . . . . . . . . . . . . . . . . ",
". . . . . . . . . . . . . . . . . . . . . . . . . . . . . . . . . . . . . . . . . . . . . . . . . ( @ @ @ _ : . 0 a b . . . . . . . . . . . . . . . . . . . . . ",
". . . . . . . . . . . . . . . . . . . . . . . . . . . . . . . . . . . . . . . . . . . . . . . . + @ @ @ @ # . . c * & . . . . . . . . . . . . . . . . . . . . . ",
". . . . . . . . . . . . . . . . . . . . . . . . . . . . . . . . . . . . . . . . . . . . . . . & * @ @ @ = . . d e + . . . . . . . . . . . . . . . . . . . . . . ",
". . . . . . . . . . . . . . . . . . . . . . . . . . . . . . . . . . . . . . . . . . . . . . . , @ @ @ ' ) . | f ( . . . . . . . . . . . . . . . . . . . . . . . ",
". . . . . . . . . . . . . . . . . . . . . . . . . . . . . . . . . . . . . . . . . . . . . . { ] @ @ @ ^ . . g ] { . . . . . . . . . . . . . . . . . . . . . . . ",
". . . . . . . . . . . . . . . . . . . . . . . . . . . . . . . . . . . . . . . . . . . . . . ( @ @ @ _ : . h i , . . . . . . . . . . . . . . . . . . . . . . . . ",
". . . . . . . . . . . . . . . . . . . . . . . . . . . . . . . . . . . . . . . . . . . . . + @ @ @ @ # . . j k & . . . . . . . . . . . . . . . . . . . . . . . . ",
". . . . . . . . . . . . . . . . . . . . . . . . . . . . . . . . . . . . . . . . . . . . & * @ @ @ = . . l m - . . . . . . . . . . . . . . . . . . . . . . . . . ",
". . . . . . . . . . . . . . . . . . . . . . . . . . . . . . . . . . . . . . . . . . . . , @ @ @ ' ) . . n o . . . . . . . . . . . . . . . . . . . . . . . . . . ",
". . . . . . . . . . . . . . . . . . . . . . . . . . . . . . . . . . . . . . . . . . . { ] @ @ @ ^ . . p q r . . . . . . . . . . . . . . . . . . . . . . . . . . ",
". . . . . . . . . . . . . . . . . . . . . . . . . . . . . . . . . . . . . . . . . . . ( @ @ @ _ : . s t u . . . . . . . . . . . . . . . . . . . . . . . . . . . ",
". . . . . . . . . . . . . . . . . . . . . . . . . . . . . . . . . . . . . . . . . . + @ @ @ @ # . . v w & . . . . . . . . . . . . . . . . . . . . . . . . . . . ",
". . . . . . . . . . . . . . . . . . . . . . . . . . . . . . . . . . . . . . . . . & * @ @ @ = . . x m y . . . . . . . . . . . . . . . . . . . . . . . . . . . . ",
". . . . . . . . . . . . . . . . . . . . . . . . . . . . . . . . . . . . . . . . . , @ @ @ ' ) . . z A . . . . . . . . . . . . . . . . . . . . . . . . . . . . . ",
". . . . . . . . . . . . . . . . . . . . . . . . . . . . . . . . . . . . . . . . { ] @ @ @ ^ . . B q r . . . . . . . . . . . . . . . . . . . . . . . . . . . . . ",
". . . . . . . . . . . . . . . . . . . . . . . . . . . . . . . . . . . . . . . . ( @ @ @ _ : . : C D . . . . . . . . . . . . . . . . . . . . . . . . . . . . . . ",
". . . . . . . . . . . . . . . . . . . . . . . . . . . . . . . . . . . . . . . + @ @ @ @ # . . E F & . . . . . . . . . . . . . . . . . . . . . . . . . . . . . . ",
". . . . . . . . . . . . . . . . . . . . . . . . . . . . . . . . . . . . . . & * @ @ @ = . . ) ' y . . . . . . . . . . . . . . . . . . . . . . . . . . . . . . . ",
". . . . . . . . . . . . . . . . . . . . . . . . . . . . . . . . . . . . . . , @ @ @ ' ) . . = G . . . . . . . . . . . . . . . . . . . . . . . . . . . . . . . . ",
". . . . . . . . . . . . . . . . . . . . . . . . . . . . . . . . . . . . . { ] @ @ @ ^ . . # H I . . . . . . . . . . . . . . . . . . . . . . . . . . . . . . . . ",
". . . . . . . . . . . . . . . . . . . . . . . . . . . . . . . . . . . . . ( @ @ @ _ : . J K L . . . . . . . . . . . . . . . . . . . . . . . . . . . . . . . . . ",
". . . . . . . . . . . . . . . . . . . . . . . . . . . . . . . . . . . . + @ @ @ @ # . . M N O . . . . . . . . . . . . . . . . . . . . . . . . . . . . . . . . . ",
". . . . . . . . . . . . . . . . . . . . . . . . . . . . . . . . . . . & * @ @ @ = . . P Q R . . . . . . . . . . . . . . . . . . . . . . . . . . . . . . . . . . ",
". . . . . . . . . . . . . . . . . . . . . . . . . . . . . . . . . . . , @ @ @ ' ) . . S T . . . . . . . . . . . . . . . . . . . . . . . . . . . . . . . . . . . ",
". . . . . . . . . . . . . . . . . . . . . . . . . . . . . . . . . . { ] @ @ @ ^ . . U V W . . . . . . . . . . . . . . . . . . . . . . . . . . . . . . . . . . . ",
". . . . . . . . . . . . . . . . . . . . . . . . . . . . . . . . . . ( @ @ @ _ : . X Y L . . . . . . . . . . . . . . . . . . . . . . . . . . . . . . . . . . . . ",
". . . . . . . . . . . . . . . . . . . . . . . . . . . . . . . . . + @ @ @ @ # . . Z ` O . . . . . . . . . . . . . . . . . . . . . . . . . . . . . . . . . . . . ",
". . . . . . . . . . . . . . . . . . . . . . . . . . . . . . . . & * @ @ @ = . .  ...+.. . . . . . . . . . . . . . . . . . . . . . . . . . . . . . . . . . . . . ",
". . . . . . . . . . . . . . . . . . . . . . . . . . . . . . . . , @ @ @ ' ) . . @.#.. . . . . . . . . . . . . . . . . . . . . . . . . . . . . . . . . . . . . . ",
". . . . . . . . . . . . . . . . . . . . . . . . . . . . . . . { ] @ @ @ ^ . . $.V W . . . . . . . . . . . . . . . . . . . . . . . . . . . . . . . . . . . . . . ",
". . . . . . . . . . . . . . . . . . . . . . . . . . . . . . . ( @ @ @ _ : . X %.&.. . . . . . . . . . . . . . . . . . . . . . . . . . . . . . . . . . . . . . . ",
". . . . . . . . . . . . . . . . . . . . . . . . . . . . . . + @ @ @ @ # . . *.=.O . . . . . . . . . . . . . . . . . . . . . . . . . . . . . . . . . . . . . . . ",
". . . . . . . . . . . . . . . . . . . . . . . . . . . . . & * @ @ @ = . . -.;.>.. . . . . . . . . . . . . . . . . . . . . . . . . . . . . . . . . . . . . . . . ",
". . . . . . . . . . . . . . . . . . . . . . . . . . . . . , @ @ @ ' ) . . ,.'.. . . . . . . . . . . . . . . . . . . . . . . . . . . . . . . . . . . . . . . . . ",
". . . . . . . . . . . . . . . . . . . . . . . . . . . . { ] @ @ @ ^ . . ).!.~.. . . . . . . . . . . . . . . . . . . . . . . . . . . . . . . . . . . . . . . . . ",
". . . . . . . . . . . . . . . . . . . . . . . . . . . . ( @ @ @ _ : . O {.].. . . . . . . . . . . . . . . . . . . . . . . . . . . . . . . . . . . . . . . . . . ",
". . . . . . . . . . . . . . . . . . . . . . . . . . . + @ @ @ @ # . . ].{.O . . . . . . . . . . . . . . . . . . . . . . . . . . . . . . . . . . . . . . . . . . ",
". . . . . . . . . . . . . . . . . . . . . . . . . . & * @ @ @ = . . W !.^.. . . . . . . . . . . . . . . . . . . . . . . . . . . . . . . . . . . . . . . . . . . ",
". . . . . . . . . . . . . . . . . . . . . . . . . . , @ @ @ ' ) . . './.. . . . . . . . . . . . . . . . . . . . . . . . . . . . . . . . . . . . . . . . . . . . ",
". . . . . . . . . . . . . . . . . . . . . . . . . { ] @ @ @ ^ . . +.;.~.. . . . . . . . . . . . . . . . . . . . . . . . . . . . . . . . . . . . . . . . . . . . ",
". . . . . . . . . . . . . . . . . . . . . . . . . ( @ @ @ _ : . O (._.. . . . . . . . . . . . . . . . . . . . . . . . . . . . . . . . . . . . . . . . . . . . . ",
". . . . . . . . . . . . . . . . . . . . . . . . + @ @ @ @ # . . L :.X . . . . . . . . . . . . . . . . . . . . . . . . . . . . . . . . . . . . . . . . . . . . . ",
". . . . . . . . . . . . . . . . . . . . . . . & * @ @ @ = . . I H ).. . . . . . . . . . . . . . . . . . . . . . . . . . . . . . . . . . . . . . . . . . . . . . ",
". . . . . . . . . . . . . . . . . . . . . . . , @ @ @ ' ) . . G ,.. . . . . . . . . . . . . . . . . . . . . . . . . . . . . . . . . . . . . . . . . . . . . . . ",
". . . . . . . . . . . . . . . . . . . . . . { ] @ @ @ ^ . . y ;.-.. . . . . . . . . . . . . . . . . . . . . . . . . . . . . . . . . . . . . . . . . . . . . . . ",
". . . . . . . . . . . . . . . . . . . . . . ( @ @ @ _ : . & w *.. . . . . . . . . . . . . . . . . . . . . . . . . . . . . . . . . . . . . . . . . . . . . . . . ",
". . . . . . . . . . . . . . . . . . . . . + @ @ @ @ # . . u <.X . . . . . . . . . . . . . . . . . . . . . . . . . . . . . . . . . . . . . . . . . . . . . . . . ",
". . . . . . . . . . . . . . . . . . . . & * @ @ @ = . . r ] [.. . . . . . . . . . . . . . . . . . . . . . . . . . . . . . . . . . . . . . . . . . . . . . . . . ",
". . . . . . . . . . . . . . . . . . . . , @ @ @ ' ) . . o }.. . . . . . . . . . . . . . . . . . . . . . . . . . . . . . . . . . . . . . . . . . . . . . . . . . ",
". . . . . . . . . . . . . . . . . . . { ] @ @ @ ^ . . + ;.-.. . . . . . . . . . . . . . . . . . . . . . . . . . . . . . . . . . . . . . . . . . . . . . . . . . ",
". . . . . . . . . . . . . . . . . . . ( @ @ @ _ : . & * |.. . . . . . . . . . . . . . . . . . . . . . . . . . . . . . . . . . . . . . . . . . . . . . . . . . . ",
". . . . . . . . . . . . . . . . . . + @ @ @ @ # . . b 1.X . . . . . . . . . . . . . . . . . . . . . . . . . . . . . . . . . . . . . . . . . . . . . . . . . . . ",
". . . . . . . . . . . . . . . . . & * @ @ @ = . . { 9 $.. . . . . . . . . . . . . . . . . . . . . . . . . . . . . . . . . . . . . . . . . . . . . . . . . . . . ",
". . . . . . . . . . . . . . . . . , @ @ @ ' ) . . 4 2.. . . . . . . . . . . . . . . . . . . . . . . . . . . . . . . . . . . . . . . . . . . . . . . . . . . . . ",
". . . . . . . . . . . . . . . . { ] @ @ @ ^ . . 2 ;. .. . . . . . . . . . . . . . . . . . . . . . . . . . . . . . . . . . . . . . . . . . . . . . . . . . . . . ",
". . . . . . . . . . . . . . . . ( @ @ @ _ : . | 3.4.. . . . . . . . . . . . . . . . . . . . . . . . . . . . . . . . . . . . . . . . . . . . . . . . . . . . . . ",
". . . . . . . . . . . . . . . + @ @ @ @ # . . 5.1.X . . . . . . . . . . . . . . . . . . . . . . . . . . . . . . . . . . . . . . . . . . . . . . . . . . . . . . ",
". . . . . . . . . . . . . . & * @ @ @ = . . 0 a 6.. . . . . . . . . . . . . . . . . . . . . . . . . . . . . . . . . . . . . . . . . . . . . . . . . . . . . . . ",
". . . . . . . . . . . . . . , @ @ @ ' ) . . c 7.. . . . . . . . . . . . . . . . . . . . . . . . . . . . . . . . . . . . . . . . . . . . . . . . . . . . . . . . ",
". . . . . . . . . . . . . { ] @ @ @ ^ . . 8.;. .. . . . . . . . . . . . . . . . . . . . . . . . . . . . . . . . . . . . . . . . . . . . . . . . . . . . . . . . ",
". . . . . . . . . . . . . ( @ @ @ _ : . | 9.Z . . . . . . . . . . . . . . . . . . . . . . . . . . . . . . . . . . . . . . . . . . . . . . . . . . . . . . . . . ",
". . . . . . . . . . . . + @ @ @ @ # . . g Y X . . . . . . . . . . . . . . . . . . . . . . . . . . . . . . . . . . . . . . . . . . . . . . . . . . . . . . . . . ",
". . . . . . . . . . . & * @ @ @ = . . 0 0.U . . . . . . . . . . . . . . . . . . . . . . . . . . . . . . . . . . . . . . . . . . . . . . . . . . . . . . . . . . ",
". . . . . . . . . . . , @ @ @ ' ) . . a.b.. . . . . . . . . . . . . . . . . . . . . . . . . . . . . . . . . . . . . . . . . . . . . . . . . . . . . . . . . . . ",
". . . . . . . . . . { ] @ @ @ ^ . . l ;.P . . . . . . . . . . . . . . . . . . . . . . . . . . . . . . . . . . . . . . . . . . . . . . . . . . . . . . . . . . . ",
". . . . . . . . . . . . . . . . . . c.$ . . . . . . . . . . . . . . . . . . . . . . . . . . . . . . . . . . . . . . . . . . . . . . . . . . . . . . . . . . . . "};
