/* XPM */
static xpm_row_t const number6_xpm[] = {
"80 80 179 2",
"  	c None",
". 	c #FF0000",
"+ 	c #F00000",
"@ 	c #CA0000",
"# 	c #AB0000",
"$ 	c #860000",
"% 	c #620000",
"& 	c #490000",
"* 	c #220000",
"= 	c #3D0000",
"- 	c #5C0000",
"; 	c #720000",
"> 	c #990000",
", 	c #BD0000",
"' 	c #DB0000",
") 	c #FB0000",
"! 	c #F70000",
"~ 	c #C10000",
"{ 	c #710000",
"] 	c #000000",
"^ 	c #3B0000",
"/ 	c #9F0000",
"( 	c #F80000",
"_ 	c #B00000",
": 	c #380000",
"< 	c #7D0000",
"[ 	c #DC0000",
"} 	c #E40000",
"| 	c #CE0000",
"1 	c #4F0000",
"2 	c #9A0000",
"3 	c #C00000",
"4 	c #A70000",
"5 	c #FA0000",
"6 	c #730000",
"7 	c #C20000",
"8 	c #E50000",
"9 	c #F60000",
"0 	c #FD0000",
"a 	c #F50000",
"b 	c #EB0000",
"c 	c #CD0000",
"d 	c #9B0000",
"e 	c #E30000",
"f 	c #DA0000",
"g 	c #760000",
"h 	c #EA0000",
"i 	c #F30000",
"j 	c #EE0000",
"k 	c #960000",
"l 	c #DE0000",
"m 	c #E90000",
"n 	c #650000",
"o 	c #0D0000",
"p 	c #B70000",
"q 	c #A50000",
"r 	c #6D0000",
"s 	c #2E0000",
"t 	c #5F0000",
"u 	c #D20000",
"v 	c #B60000",
"w 	c #320000",
"x 	c #F40000",
"y 	c #260000",
"z 	c #ED0000",
"A 	c #830000",
"B 	c #4B0000",
"C 	c #AF0000",
"D 	c #E20000",
"E 	c #D40000",
"F 	c #920000",
"G 	c #680000",
"H 	c #E00000",
"I 	c #4D0000",
"J 	c #F20000",
"K 	c #5A0000",
"L 	c #E10000",
"M 	c #7A0000",
"N 	c #D10000",
"O 	c #420000",
"P 	c #5D0000",
"Q 	c #630000",
"R 	c #810000",
"S 	c #DD0000",
"T 	c #EC0000",
"U 	c #B30000",
"V 	c #B80000",
"W 	c #EF0000",
"X 	c #C60000",
"Y 	c #F90000",
"Z 	c #6C0000",
"` 	c #6E0000",
" .	c #A90000",
"..	c #940000",
"+.	c #A00000",
"@.	c #D60000",
"#.	c #690000",
"$.	c #B90000",
"%.	c #9E0000",
"&.	c #560000",
"*.	c #350000",
"=.	c #C80000",
"-.	c #FC0000",
";.	c #C40000",
">.	c #840000",
",.	c #D00000",
"'.	c #FE0000",
").	c #700000",
"!.	c #B50000",
"~.	c #AE0000",
"{.	c #A30000",
"].	c #D70000",
"^.	c #890000",
"/.	c #E80000",
"(.	c #E70000",
"_.	c #800000",
":.	c #770000",
"<.	c #790000",
"[.	c #820000",
"}.	c #550000",
"|.	c #D50000",
"1.	c #1C0000",
"2.	c #E60000",
"3.	c #870000",
"4.	c #A10000",
"5.	c #2A0000",
"6.	c #A80000",
"7.	c #B20000",
"8.	c #CB0000",
"9.	c #950000",
"0.	c #A60000",
"a.	c #BF0000",
"b.	c #B40000",
"c.	c #8A0000",
"d.	c #7E0000",
"e.	c #C90000",
"f.	c #8B0000",
"g.	c #9C0000",
"h.	c #7F0000",
"i.	c #C70000",
"j.	c #600000",
"k.	c #8C0000",
"l.	c #160000",
"m.	c #BB0000",
"n.	c #750000",
"o.	c #AD0000",
"p.	c #6A0000",
"q.	c #880000",
"r.	c #D80000",
"s.	c #580000",
"t.	c #900000",
"u.	c #B10000",
"v.	c #8E0000",
"w.	c #A40000",
"x.	c #DF0000",
"y.	c #9D0000",
"z.	c #AA0000",
"A.	c #980000",
"B.	c #970000",
"C.	c #CC0000",
"D.	c #510000",
"E.	c #F10000",
"F.	c #C50000",
"G.	c #7C0000",
"H.	c #BC0000",
"I.	c #660000",
"J.	c #450000",
"K.	c #A20000",
"L.	c #8F0000",
"M.	c #BE0000",
"N.	c #400000",
"O.	c #BA0000",
"P.	c #8D0000",
"Q.	c #780000",
"R.	c #470000",
"S.	c #910000",
"T.	c #850000",
"U.	c #530000",
"V.	c #CF0000",
". . . . . . . . . . . . . . . . . . . . . . . . . . . . . . . . . . . . . . . . . . . . . . . . . . . . . . . . . . . . . . . . . . . . . . . . . . . . . . . . ",
". . . . . . . . . . . . . . . . . . . . . . . . . . . . . . . . . . . . . . . . . . . . . . . . . . . . . . . . . . . . . . . . . . . . . . . . . . . . . . . . ",
". . . . . . . . . . . . . . . . . . . . . . . . . . . . . . . . . . . . . . . . . . . . . . . . . . . . . . . . . . . . . . . . . . . . . . . . . . . . . . . . ",
". . . . . . . . . . . . . . . . . . . . . . . . . . . . . . . . . . . . . . . . . . . . . . . . . . . . . . . . . . . . . . . . . . . . . . . . . . . . . . . . ",
". . . . . . . . . . . . . . . . . . . . . . . . . . . . . . . . . . . . . . . . . . . . . . . . . . . . . . . . . . . . . . . . . . . . . . . . . . . . . . . . ",
". . . . . . . . . . . . . . . . . . . . . . . . . . . . . . . . . . . . . . . . . . . . . . . . . . . . . . . . . . . . . . . . . . . . . . . . . . . . . . . . ",
". . . . . . . . . . . . . . . . . . . . . . . . . . . . . . . . . . . . . . . . . . . . . . . . . . . . . . . . . . . . . . . . . . . . . . . . . . . . . . . . ",
". . . . . . . . . . . . . . . . . . . . . . . . . . . . . . . . . . . + @ # $ % & * = - ; > , ' ) . . . . . . . . . . . . . . . . . . . . . . . . . . . . . . . ",
". . . . . . . . . . . . . . . . . . . . . . . . . . . . . . . . ! ~ { ] ] ] ] ] ] ] ] ] ] ] ] ] ^ / ' . . . . . . . . . . . . . . . . . . . . . . . . . . . . . ",
". . . . . . . . . . . . . . . . . . . . . . . . . . . . . . ( _ : ] ] ] ] ] ] ] ] ] ] ] ] ] ] ] ] ] ] < [ . . [ } . . . . . . . . . . . . . . . . . . . . . . . ",
". . . . . . . . . . . . . . . . . . . . . . . . . . . . . | 1 ] ] ] ] ] ] ] ] ] ] ] ] ] ] ] ] ] ] ] ] ] ] 2 ! . 3 4 ( . . . . . . . . . . . . . . . . . . . . . ",
". . . . . . . . . . . . . . . . . . . . . . . . . . . 5 / ] ] ] ] ] ] ] 6 7 8 9 0 a b c d * ] ] ] ] ] ] ] ] - e . f g h . . . . . . . . . . . . . . . . . . . . ",
". . . . . . . . . . . . . . . . . . . . . . . . . . i { ] ] ] ] ] ] g [ . . . . . . . . . j k ] ] ] ] ] ] ] ] : l . m % l . . . . . . . . . . . . . . . . . . . ",
". . . . . . . . . . . . . . . . . . . . . . . . . + n ] ] ] ] ] o p 0 . . l q r ^ s t 2 u 0 . v ] ] ] ] ] ] ] ] w l . m - ' . . . . . . . . . . . . . . . . . . ",
". . . . . . . . . . . . . . . . . . . . . . . . x t ] ] ] ] ] y u . . z A B C D i ) + E F G H . 4 ] ] ] ] ] ] ] ] I J . h K L . . . . . . . . . . . . . . . . . ",
". . . . . . . . . . . . . . . . . . . . . . . 5 M ] ] ] ] ] ] N . . H O d ! . . . . . . . [ P @ 5 Q ] ] ] ] ] ] ] ] R 0 . S B T . . . . . . . . . . . . . . . . ",
". . . . . . . . . . . . . . . . . . . . . . . d ] ] ] ] ] ] U . . m = V . . . . . . . . . . W % E @ ] ] ] ] ] ] ] ] ] X . . ~ r Y . . . . . . . . . . . . . . . ",
". . . . . . . . . . . . . . . . . . . . . . c ] ] ] ] ] ] Z ) . ) `  .. . . . . . . . . . . . j Q + & ] ] ] ] ] ] ] ] I ( . . ..+.. . . . . . . . . . . . . . . ",
". . . . . . . . . . . . . . . . . . . . . j ^ ] ] ] ] ] ] @.. . , #.) . . . . . . . . . . . . . D $.%.] ] ] ] ] ] ] ] &.L . . + *.f . . . . . . . . . . . . . . ",
". . . . . . . . . . . . . . . . . . . . . F ] ] ] ] ] ] ; . . ! = u . . . . . . . . . . . . . . . } c ] ] ] ] ] ] t =.) . . . . , Q -.. . . . . . . . . . . . . ",
". . . . . . . . . . . . . . . . . . . . ' ] ] ] ] ] ] ] X . . ~ K 0 . . . . . . . . . . . . . . . . b ] ] ] ] B ;.-.. . . . ( c >.] ,.. . . . . . . . . . . . . ",
". . . . . . . . . . . . . . . . . . . '.).] ] ] ] ] ] y 9 . . Z !.. . . . . . . . . . . . . . . . . ) ] ] * ~.! . . . . e / w *.{.D . . . . . . . . . . . . . . ",
". . . . . . . . . . . . . . . . . . . ].] ] ] ] ] ] ] ^.. . /.] (.. . . . . . . . . . . . . . . . . . &._.h . . . 0 | :.] <.@ ( . . . . . . . . . . . . . . . . ",
". . . . . . . . . . . . . . . . . . . [.] ] ] ] ] ] ] 3 . . , }.. . . . . . . . . . . . . . . . . . . |.'.. . -.@ % 1.%.(.. . . . . . . . . . . . . . . . . . . ",
". . . . . . . . . . . . . . . . . . /.] ] ] ] ] ] ] ] 2.. . 3.4.. . . . . . . . . . . . . . . . . . . . . . |.Q 5.6.j . . . . . . . . . . . . . . . . . . . . . ",
". . . . . . . . . . . . . . . . . . 7.] ] ] ] ] ] ] 5.-.. 0 *.8.. . . . . . . . . . . . . . . . . . . . . 9.^ 7.i . . . . . . . . . . . . . . . . . . . . . . . ",
". . . . . . . . . . . . . . . . . '.K ] ] ] ] ] ] ] M . . /.] h . . . . . . . . . . . . . . . . . . . . . D 9 . . . . . . . . . . . . . . . . . . . . . . . . . ",
". . . . . . . . . . . . . . . . . 8 ] ] ] ] ] ] ] ] 0.. . ,.: '.. . . . . . . . . . . . . . . . . . . . . . . . . . . . . . . . . . . . . . . . . . . . . . . . ",
". . . . . . . . . . . . . . . . . a.] ] ] ] ] ] ] ] a.. . v [.. . . . . -.[ b.c.Q ^ 1.: }.d.4.e.z . . . . . . . . . . . . . . . . . . . . . . . . . . . . . . . ",
". . . . . . . . . . . . . . . . . f.] ] ] ] ] ] ] ] |.. . g. .. . . a b.& ] ] ] ] ] ] ] ] ] ] ] ] M 8.-.. . . . . . . . . . . . . . . . . . . . . . . . . . . . ",
". . . . . . . . . . . . . . . . '.^ ] ] ] ] ] ] ] ] (.. . h.i.. '.;.= ] ] ] ] ] ] ] ] ] ] ] ] ] ] ] ] j.].. . . . . . . . . . . . . . . . . . . . . . . . . . . ",
". . . . . . . . . . . . . . . . j ] ] ] ] ] ] ] ] ] i . . [.a ! k.] ] ] ] ] ] ] ] ] ] ] ] ] ] ] ] ] ] ] ] +.) . . . . . . . . . . . . . . . . . . . . . . . . . ",
". . . . . . . . . . . . . . . . @.] ] ] ] ] ] ] ] o 0 . . b x ` ] ] ] ] l.2 ,.j ( 0 9 D m.n ] ] ] ] ] ] ] ] M 9 . . . . . . . . . . . . . . . . . . . . . . . . ",
". . . . . . . . . . . . . . . . 3 ] ] ] ] ] ] ] ] I . . . Y 6 ] ] ] ] $ b . . . . . . . . '.8.O ] ] ] ] ] ] ] n.9 . . . . . . . . . . . . . . . . . . . . . . . ",
". . . . . . . . . . . . . . . . o.] ] ] ] ] ] ] ] p.. . . g.] ] ] ] 0.0 . . . . . . . . . . . z % ] ] ] ] ] ] ] q.0 . . . . . . . . . . . . . . . . . . . . . . ",
". . . . . . . . . . . . . . . . > ] ] ] ] ] ] ] ] M . . r.] ] ] ] F '.. . . m 0.j.s s.t.| 0 . . W I ] ] ] ] ] ] ] b.. . e '.. . . . . . . . . . . . . . . . . . ",
". . . . . . . . . . . . . . . . A ] ] ] ] ] ] ] ] q.. . ; ] ] ] 1 ( . . . a.6 N x -.+ @ Z { 2.. . f ] ] ] ] ] ] ] l.2.. W u.. . . . . . . . . . . . . . . . . . ",
". . . . . . . . . . . . . . . . :.] ] ] ] ] ] ] ] ... L ] ] ] ] =.. . . , d -.. . . . . 0 V : f . . v.] ] ] ] ] ] ] d.. . w.' . . . . . . . . . . . . . . . . . ",
". . . . . . . . . . . . . . . . r ] ] ] ] ] ] ] ] 2 . C ] ] ] & -.. . x.d.0 . . . . . . . . | w } . m o ] ] ] ] ] ] ] ' . m ).'.. . . . . . . . . . . . . . . . ",
". . . . . . . . . . . . . . . . % ] ] ] ] ] ] ] ] y.. M ] ] ] z.. . 0 ; m . . . . . . . . . . 7 }.! . $ ] ] ] ] ] ] ] k.. . >.u . . . . . . . . . . . . . . . . ",
". . . . . . . . . . . . . . . . Q ] ] ] ] ] ] ] ] +.. ^ ] ] ] [ . . u A.. . . . . . . . . . . . B.# . =.] ] ] ] ] ] ] o + . C.A . . . . . . . . . . . . . . . . ",
". . . . . . . . . . . . . . . . ).] ] ] ] ] ] ] ] {.) ] ] ] o ! . . h.' . . . . . . . . . . . . 9 D.E.a o ] ] ] ] ] ] ] F.. ( y b . . . . . . . . . . . . . . . ",
". . . . . . . . . . . . . . . . G.] ] ] ] ] ] ] ] {.-.] ] ] ).. . j O 0 . . . . . . . . . . . . . C.p . n ] ] ] ] ] ] ] t.. . k.H.. . . . . . . . . . . . . . . ",
". . . . . . . . . . . . . . . . c.] ] ] ] ] ] ] ] / . I.] ] o.. . 3 9.. . . . . . . . . . . . . . '.B.. k ] ] ] ] ] ] ] J.. . ;.:.. . . . . . . . . . . . . . . ",
". . . . . . . . . . . . . . . . K.] ] ] ] ] ] ] ] g.. ' P G + . . [.i.. . . . . . . . . . . . . . . ].+ V ] ] ] ] ] ] ] ] W . 2.o 9 . . . . . . . . . . . . . . ",
". . . . . . . . . . . . . . . . v ] ] ] ] ] ] ] ] B.. . . . . . ! * + . . . . . . . . . . . . . . . . . 8.] ] ] ] ] ] ] ] [ . 0 y f . . . . . . . . . . . . . . ",
". . . . . . . . . . . . . . . . @ ] ] ] ] ] ] ] ] f.. . . . . . ;.L.. . . . . . . . . . . . . . . . . . u ] ] ] ] ] ] ] ] C.. . ; , . . . . . . . . . . . . . . ",
". . . . . . . . . . . . . . . . D ] ] ] ] ] ] ] ] < . . '.x.5 r.I m . . . . . . . . . . . . . . . . . . f ] ] ] ] ] ] ] ] M.. . > {.. . . . . . . . . . . . . . ",
". . . . . . . . . . . . . . . . ( ] ] ] ] ] ] ] ] p.. . ! ] = ).l . . . . . . . . . . . . . . . . . . . H ] ] ] ] ] ] ] ] V . . o.q.. . . . . . . . . . . . . . ",
". . . . . . . . . . . . . . . . . n ] ] ] ] ] ] ] N.. . x ] + . . . . . . . . . . . . . . . . . . . . . [ ] ] ] ] ] ] ] ] 7.. . O.<.. . . . . . . . . . . . . . ",
". . . . . . . . . . . . . . . . . 4.] ] ] ] ] ] ] ] ) . ) ] j . . . . . . . . . . . . . . . . . . . . . E ] ] ] ] ] ] ] ] v . . 3 r . . . . . . . . . . . . . . ",
". . . . . . . . . . . . . . . . . | ] ] ] ] ] ] ] ] j . . y (.. . . . . . . . . . . . . . . . . . . . . 8.] ] ] ] ] ] ] ] , . . 3 g . . . . . . . . . . . . . . ",
". . . . . . . . . . . . . . . . . E.] ] ] ] ] ] ] ] f . . 1 H . . . . . . . . . . . . . . . . . . . . . 3 ] ] ] ] ] ] ] ] =.. . p [.. . . . . . . . . . . . . . ",
". . . . . . . . . . . . . . . . . . ).] ] ] ] ] ] ] ;.. . d.,.. . . . . . . . . . . . . . . . . . . . . {.] ] ] ] ] ] ] ] f . . ~.F . . . . . . . . . . . . . . ",
". . . . . . . . . . . . . . . . . . m.] ] ] ] ] ] ] K.. . # 7.. . . . . . . . . . . . . . . . . . . . . ; ] ] ] ] ] ] ] ] T . . 9.o.. . . . . . . . . . . . . . ",
". . . . . . . . . . . . . . . . . . T ] ] ] ] ] ] ] Z . . c P.. . . . . . . . . . . . . . . . . . . . ) 1.] ] ] ] ] ] ] = '.. . ).F.. . . . . . . . . . . . . . ",
". . . . . . . . . . . . . . . . . . . <.] ] ] ] ] ] o a . z *.5 . . . . . . . . . . . . . . . . . . . H ] ] ] ] ] ] ] ] ^.. . ) 5.x.. . . . . . . . . . . . . . ",
". . . . . . . . . . . . . . . . . . . | ] ] ] ] ] ] ] ,.. . Q.|.. . . . . . . . . . . . . . . . . . . 4 ] ] ] ] ] ] ] ] 7 . . x.y 5 . . . . . . . . . . . . . . ",
". . . . . . . . . . . . . . . . . . . ) 1 ] ] ] ] ] ] B.. . F.k . . . . . . . . . . . . . . . . . . -.J.] ] ] ] ] ] ] ] j . . $.[.. . . . . . . . . . . . . . . ",
". . . . . . . . . . . . . . . . . . . . M.] ] ] ] ] ] * a . a ^ /.. . . . . . . . . . . . . . . . . E ] ] ] ] ] ] ] ] 3.. . . #.F.. . . . . . . . . . . . . . . ",
". . . . . . . . . . . . . . . . . . . . ) s.] ] ] ] ] ] $.. . H.L.. . . . . . . . . . . . . . . . 0 p.] ] ] ] ] ] ] ] @.. . 8 l.x . . . . . . . . . . . . . . . ",
". . . . . . . . . . . . . . . . . . . . . c ] ] ] ] ] ] = a . ) t =.. . . . . . . . . . . . . . . F.] ] ] ] ] ] ] ] M . . . g.2 . . . . . . . . . . . . . . . . ",
". . . . . . . . . . . . . . . . . . . . . . k.] ] ] ] ] ] d . . f s } . . . . . . . . . . . . . x & ] ] ] ] ] ] ] o L . . T l./.. . . . . . . . . . . . . . . . ",
". . . . . . . . . . . . . . . . . . . . . . J J.] ] ] ] ] ] @ . . O.N.l . . . . . . . . . . . '.f.] ] ] ] ] ] ] ] C . . . F A.. . . . . . . . . . . . . . . . . ",
". . . . . . . . . . . . . . . . . . . . . . . [ 1.] ] ] ] ] * f . . u.5.@ . . . . . . . . . . q ] ] ] ] ] ] ] ] G.) . . E ^ E.. . . . . . . . . . . . . . . . . ",
". . . . . . . . . . . . . . . . . . . . . . . . 8.] ] ] ] ] ] * c . . @ : >.b . . . . . . ) / ] ] ] ] ] ] ] ] j.x . . J 1 i.. . . . . . . . . . . . . . . . . . ",
". . . . . . . . . . . . . . . . . . . . . . . . . 8.l.] ] ] ] ] ] A.j . E.z.R.S.[ . . . H ` ] ] ] ] ] ] ] ] I.+ . . -.d.d . . . . . . . . . . . . . . . . . . . ",
". . . . . . . . . . . . . . . . . . . . . . . . . . ].O ] ] ] ] ] ] 1...| h a D X c i.[.] ] ] ] ] ] ] ] ] R i . . 0 2 6 Y . . . . . . . . . . . . . . . . . . . ",
". . . . . . . . . . . . . . . . . . . . . . . . . . . + [.] ] ] ] ] ] ] ] ] ] ] ] ] ] ] ] ] ] ] ] ] ] 1.b.0 . . '.+.p.x . . . . . . . . . . . . . . . . . . . . ",
". . . . . . . . . . . . . . . . . . . . . . . . . . . . . u Q ] ] ] ] ] ] ] ] ] ] ] ] ] ] ] ] ] ] ] v.h . . . 5 9.Z J . . . . . . . . . . . . . . . . . . . . . ",
". . . . . . . . . . . . . . . . . . . . . . . . . . . . . . 0 @.L.* ] ] ] ] ] ] ] ] ] ] ] ] ] & 6.(.. . . . W M T.! . . . . . . . . . . . . . . . . . . . . . . ",
". . . . . . . . . . . . . . . . . . . . . . . . . . . . . 8.} . . Y r.!.k ).D.*.l.: U.M g.a.D 0 . . . . . | O _ -.. . . . . . . . . . . . . . . . . . . . . . . ",
". . . . . . . . . . . . . . . . . . . . . . . . . . . . . . V.g.x.. . . . . . . . . . . . . . . . . . 8 T.I.[ . . . . . . . . . . . . . . . . . . . . . . . . . ",
". . . . . . . . . . . . . . . . . . . . . . . . . . . . . . . ! 7.).V T . . . . . . . . . . . . -.@.k.I M.) . . . . . . . . . . . . . . . . . . . . . . . . . . ",
". . . . . . . . . . . . . . . . . . . . . . . . . . . . . . . . . 9 3 Z n 4.e.} j ! '.Y E.x.i.2 R.d.=.5 . . . . . . . . . . . . . . . . . . . . . . . . . . . . ",
". . . . . . . . . . . . . . . . . . . . . . . . . . . . . . . . . . . . T i.{.< }.w l.^ K >.4 | + . . . . . . . . . . . . . . . . . . . . . . . . . . . . . . . ",
". . . . . . . . . . . . . . . . . . . . . . . . . . . . . . . . . . . . . . . . . . . . . . . . . . . . . . . . . . . . . . . . . . . . . . . . . . . . . . . . ",
". . . . . . . . . . . . . . . . . . . . . . . . . . . . . . . . . . . . . . . . . . . . . . . . . . . . . . . . . . . . . . . . . . . . . . . . . . . . . . . . ",
". . . . . . . . . . . . . . . . . . . . . . . . . . . . . . . . . . . . . . . . . . . . . . . . . . . . . . . . . . . . . . . . . . . . . . . . . . . . . . . . ",
". . . . . . . . . . . . . . . . . . . . . . . . . . . . . . . . . . . . . . . . . . . . . . . . . . . . . . . . . . . . . . . . . . . . . . . . . . . . . . . . "};
