/* XPM */
static xpm_row_t const number0_xpm[] = {
"80 80 177 2",
"  	c None",
". 	c #FF0000",
"+ 	c #F40000",
"@ 	c #D00000",
"# 	c #B00000",
"$ 	c #8F0000",
"% 	c #660000",
"& 	c #4F0000",
"* 	c #2E0000",
"= 	c #2A0000",
"- 	c #4B0000",
"; 	c #6A0000",
"> 	c #930000",
", 	c #B40000",
"' 	c #DA0000",
") 	c #F90000",
"! 	c #C90000",
"~ 	c #790000",
"{ 	c #000000",
"] 	c #260000",
"^ 	c #9A0000",
"/ 	c #DB0000",
"( 	c #FB0000",
"_ 	c #BC0000",
": 	c #400000",
"< 	c #770000",
"[ 	c #D90000",
"} 	c #D80000",
"| 	c #C70000",
"1 	c #5D0000",
"2 	c #960000",
"3 	c #F30000",
"4 	c #E30000",
"5 	c #8D0000",
"6 	c #DD0000",
"7 	c #FD0000",
"8 	c #0D0000",
"9 	c #320000",
"0 	c #990000",
"a 	c #CD0000",
"b 	c #E70000",
"c 	c #F60000",
"d 	c #F50000",
"e 	c #E50000",
"f 	c #CE0000",
"g 	c #9E0000",
"h 	c #420000",
"i 	c #490000",
"j 	c #DC0000",
"k 	c #A50000",
"l 	c #AF0000",
"m 	c #FC0000",
"n 	c #940000",
"o 	c #220000",
"p 	c #B20000",
"q 	c #FA0000",
"r 	c #160000",
"s 	c #C40000",
"t 	c #BB0000",
"u 	c #830000",
"v 	c #F70000",
"w 	c #8A0000",
"x 	c #B90000",
"y 	c #C20000",
"z 	c #710000",
"A 	c #9B0000",
"B 	c #630000",
"C 	c #F00000",
"D 	c #650000",
"E 	c #3D0000",
"F 	c #800000",
"G 	c #E20000",
"H 	c #FE0000",
"I 	c #A70000",
"J 	c #BD0000",
"K 	c #780000",
"L 	c #B70000",
"M 	c #350000",
"N 	c #EA0000",
"O 	c #470000",
"P 	c #9D0000",
"Q 	c #D60000",
"R 	c #DE0000",
"S 	c #B50000",
"T 	c #600000",
"U 	c #7C0000",
"V 	c #900000",
"W 	c #D20000",
"X 	c #820000",
"Y 	c #ED0000",
"Z 	c #510000",
"` 	c #4D0000",
" .	c #BE0000",
"..	c #F80000",
"+.	c #730000",
"@.	c #720000",
"#.	c #810000",
"$.	c #AD0000",
"%.	c #6D0000",
"&.	c #EE0000",
"*.	c #D30000",
"=.	c #7D0000",
"-.	c #870000",
";.	c #5F0000",
">.	c #C00000",
",.	c #5C0000",
"'.	c #EC0000",
").	c #C10000",
"!.	c #E90000",
"~.	c #D10000",
"{.	c #9C0000",
"].	c #B30000",
"^.	c #AA0000",
"/.	c #F10000",
"(.	c #1C0000",
"_.	c #E40000",
":.	c #EF0000",
"<.	c #E60000",
"[.	c #AC0000",
"}.	c #890000",
"|.	c #980000",
"1.	c #550000",
"2.	c #DF0000",
"3.	c #C80000",
"4.	c #530000",
"5.	c #680000",
"6.	c #5A0000",
"7.	c #B80000",
"8.	c #380000",
"9.	c #A20000",
"0.	c #6C0000",
"a.	c #E80000",
"b.	c #BA0000",
"c.	c #D70000",
"d.	c #CB0000",
"e.	c #B60000",
"f.	c #BF0000",
"g.	c #840000",
"h.	c #9F0000",
"i.	c #A80000",
"j.	c #920000",
"k.	c #690000",
"l.	c #D40000",
"m.	c #A60000",
"n.	c #7A0000",
"o.	c #A10000",
"p.	c #A00000",
"q.	c #CC0000",
"r.	c #A30000",
"s.	c #620000",
"t.	c #CA0000",
"u.	c #760000",
"v.	c #D50000",
"w.	c #CF0000",
"x.	c #E00000",
"y.	c #580000",
"z.	c #C60000",
"A.	c #AE0000",
"B.	c #970000",
"C.	c #8C0000",
"D.	c #7E0000",
"E.	c #850000",
"F.	c #450000",
"G.	c #F20000",
"H.	c #A40000",
"I.	c #C30000",
"J.	c #950000",
"K.	c #8E0000",
"L.	c #700000",
"M.	c #3B0000",
"N.	c #EB0000",
"O.	c #560000",
"P.	c #860000",
"Q.	c #910000",
"R.	c #B10000",
"S.	c #C50000",
"T.	c #A90000",
". . . . . . . . . . . . . . . . . . . . . . . . . . . . . . . . . . . . . . . . . . . . . . . . . . . . . . . . . . . . . . . . . . . . . . . . . . . . . . . . ",
". . . . . . . . . . . . . . . . . . . . . . . . . . . . . . . . . . . . . . . . . . . . . . . . . . . . . . . . . . . . . . . . . . . . . . . . . . . . . . . . ",
". . . . . . . . . . . . . . . . . . . . . . . . . . . . . . . . . . . . . . . . . . . . . . . . . . . . . . . . . . . . . . . . . . . . . . . . . . . . . . . . ",
". . . . . . . . . . . . . . . . . . . . . . . . . . . . . . . . . . . . . . . . . . . . . . . . . . . . . . . . . . . . . . . . . . . . . . . . . . . . . . . . ",
". . . . . . . . . . . . . . . . . . . . . . . . . . . . . . . . . . . . . . . . . . . . . . . . . . . . . . . . . . . . . . . . . . . . . . . . . . . . . . . . ",
". . . . . . . . . . . . . . . . . . . . . . . . . . . . . . . . . . . . . . . . . . . . . . . . . . . . . . . . . . . . . . . . . . . . . . . . . . . . . . . . ",
". . . . . . . . . . . . . . . . . . . . . . . . . . . . . . + @ # $ % & * = - ; > , ' ) . . . . . . . . . . . . . . . . . . . . . . . . . . . . . . . . . . . . ",
". . . . . . . . . . . . . . . . . . . . . . . . . . . ) ! ~ { { { { { { { { { { { { { ] ^ / . . . . . . . . . . . . . . . . . . . . . . . . . . . . . . . . . . ",
". . . . . . . . . . . . . . . . . . . . . . . . . ( _ : { { { { { { { { { { { { { { { { { { < [ . . } | ( . . . . . . . . . . . . . . . . . . . . . . . . . . . ",
". . . . . . . . . . . . . . . . . . . . . . . . / 1 { { { { { { { { { { { { { { { { { { { { { { 2 3 . 4 5 6 . . . . . . . . . . . . . . . . . . . . . . . . . . ",
". . . . . . . . . . . . . . . . . . . . . . 7 , 8 { { { { { { 9 0 a b c 7 ( d e f g h { { { { { { i j . ) k l m . . . . . . . . . . . . . . . . . . . . . . . . ",
". . . . . . . . . . . . . . . . . . . . . ( n { { { { { { o p d . . . . . . . . . . q | & { { { { { r s . . t u v . . . . . . . . . . . . . . . . . . . . . . . ",
". . . . . . . . . . . . . . . . . . . . ( w { { { { { { 1 e . . . . . . . . . . . . . . d n { { { { { { x . . y z d . . . . . . . . . . . . . . . . . . . . . . ",
". . . . . . . . . . . . . . . . . . . . A { { { { { { B C . . . . c ! 2 D E o - F l G . . H I { { { { { { J . . | K ) . . . . . . . . . . . . . . . . . . . . . ",
". . . . . . . . . . . . . . . . . . . L { { { { { { M N . . . m x O P Q C ( m 3 R S T U 4 . H V { { { { { { W . . I > . . . . . . . . . . . . . . . . . . . . . ",
". . . . . . . . . . . . . . . . . . R 8 { { { { { { | . . . c U X Y . . . . . . . . 7 f Z _ . c ` { { { { { * e . ( <  .. . . . . . . . . . . . . . . . . . . . ",
". . . . . . . . . . . . . . . . . ..1 { { { { { { +.H . . ) @.0 m . . . . . . . . . . . + #.$.. a { { { { { { %.( . &.- N . . . . . . . . . . . . . . . . . . . ",
". . . . . . . . . . . . . . . . . $.{ { { { { { { *.. . . g =.m . . . . . . . . . . . . . ( -.y 7 ;.{ { { { { { p . . >.=.. . . . . . . . . . . . . . . . . . . ",
". . . . . . . . . . . . . . . . &.o { { { { { { ,.7 . . 6 ] '.. . . . . . . . . . . . . . . ..z &.).{ { { { { { r !.. ( 1 ~.. . . . . . . . . . . . . . . . . . ",
". . . . . . . . . . . . . . . . {.{ { { { { { { ].. . . =.^.. . . . . . . . . . . . . . . . . q . /.8 { { { { { { 2 . . f T 7 . . . . . . . . . . . . . . . . . ",
". . . . . . . . . . . . . . . C (.{ { { { { { { e . . _.8 :.. . . . . . . . . . . . . . . . . . . . F { { { { { { { <.. H %.@ . . . . . . . . . . . . . . . . . ",
". . . . . . . . . . . . . . . p { { { { { { { i H . . [.}.. . . . . . . . . . . . . . . . . . . . . x { { { { { { { A . . | +.. . . . . . . . . . . . . . . . . ",
". . . . . . . . . . . . . . 7 - { { { { { { { |.. . . 1.| . . . . . . . . . . . . . . . . . . . . . 2.{ { { { { { { ] c . ..9 e . . . . . . . . . . . . . . . . ",
". . . . . . . . . . . . . . j { { { { { { { { y . . N { &.. . . . . . . . . . . . . . . . . . . . . ) 8 { { { { { { { s . . |.^.. . . . . . . . . . . . . . . . ",
". . . . . . . . . . . . . . I { { { { { { { { 6 . . 3.4.. . . . . . . . . . . . . . . . . . . . . . . 5.{ { { { { { { K . . W ` H . . . . . . . . . . . . . . . ",
". . . . . . . . . . . . . . 6.{ { { { { { { { d . . k 2 . . . . . . . . . . . . . . . . . . . . . . . 0 { { { { { { { 8 + . c 8 G . . . . . . . . . . . . . . . ",
". . . . . . . . . . . . . &.{ { { { { { { { : . . . ~ 7.. . . . . . . . . . . . . . . . . . . . . . . ].{ { { { { { { { ~.. . ~ L . . . . . . . . . . . . . . . ",
". . . . . . . . . . . . . f { { { { { { { { < . . . 8.W . . . . . . . . . . . . . . . . . . . . . . . ! { { { { { { { { 9.. . $.u . . . . . . . . . . . . . . . ",
". . . . . . . . . . . . . $.{ { { { { { { { |.. . + { e . . . . . . . . . . . . . . . . . . . . . . . / { { { { { { { { 0.. . @ = ( . . . . . . . . . . . . . . ",
". . . . . . . . . . . . . w { { { { { { { { ^.. . e { 3 . . . . . . . . . . . . . . . . . . . . . . . <.{ { { { { { { { r q . !.{ a.. . . . . . . . . . . . . . ",
". . . . . . . . . . . . . 1.{ { { { { { { { b.. . c.o H . . . . . . . . . . . . . . . . . . . . . . . /.{ { { { { { { { { e . ( 8 @ . . . . . . . . . . . . . . ",
". . . . . . . . . . . . ( { { { { { { { { { 3.. . d.1.. . . . . . . . . . . . . . . . . . . . . . . . ( { { { { { { { { { a . . T e.. . . . . . . . . . . . . . ",
". . . . . . . . . . . . :.{ { { { { { { { { @ . . f.z . . . . . . . . . . . . . . . . . . . . . . . . . (.{ { { { { { { { t . . g.h.. . . . . . . . . . . . . . ",
". . . . . . . . . . . . _.{ { { { { { { { { c.. . e.g.. . . . . . . . . . . . . . . . . . . . . . . . . h { { { { { { { { i.. . P X . . . . . . . . . . . . . . ",
". . . . . . . . . . . . [ { { { { { { { { { R . . $.V . . . . . . . . . . . . . . . . . . . . . . . . . ,.{ { { { { { { { j.. . l k.. . . . . . . . . . . . . . ",
". . . . . . . . . . . . l.{ { { { { { { { { G . . m.^ . . . . . . . . . . . . . . . . . . . . . . . . . % { { { { { { { { n.. . b.i . . . . . . . . . . . . . . ",
". . . . . . . . . . . . @ { { { { { { { { { 4 . . o.p.. . . . . . . . . . . . . . . . . . . . . . . . . 0.{ { { { { { { { %.. . s r . . . . . . . . . . . . . . ",
". . . . . . . . . . . . q.{ { { { { { { { { e . . h.r.. . . . . . . . . . . . . . . . . . . . . . . . . z { { { { { { { { s.. . t.{ 7 . . . . . . . . . . . . . ",
". . . . . . . . . . . . a { { { { { { { { { b . . {.m.. . . . . . . . . . . . . . . . . . . . . . . . . u.{ { { { { { { { 4.. . a { q . . . . . . . . . . . . . ",
". . . . . . . . . . . . ~.{ { { { { { { { { e . . {.I . . . . . . . . . . . . . . . . . . . . . . . . . @.{ { { { { { { { h . . @ { ) . . . . . . . . . . . . . ",
". . . . . . . . . . . . v.{ { { { { { { { { 4 . . p.m.. . . . . . . . . . . . . . . . . . . . . . . . . %.{ { { { { { { { i . . w.{ 7 . . . . . . . . . . . . . ",
". . . . . . . . . . . . / { { { { { { { { { x.. . r.r.. . . . . . . . . . . . . . . . . . . . . . . . . % { { { { { { { { y.. . t.r . . . . . . . . . . . . . . ",
". . . . . . . . . . . . <.{ { { { { { { { { / . . I h.. . . . . . . . . . . . . . . . . . . . . . . . . ,.{ { { { { { { { B . . z.M . . . . . . . . . . . . . . ",
". . . . . . . . . . . . /.{ { { { { { { { { *.. . A.B.. . . . . . . . . . . . . . . . . . . . . . . . . h { { { { { { { { +.. . y i . . . . . . . . . . . . . . ",
". . . . . . . . . . . . m { { { { { { { { { t.. . 7.5 . . . . . . . . . . . . . . . . . . . . . . . . . r { { { { { { { { C.. . e.5.. . . . . . . . . . . . . . ",
". . . . . . . . . . . . . 6.{ { { { { { { { f.. . ).D.. . . . . . . . . . . . . . . . . . . . . . . . ) { { { { { { { { { p.. . m.E.. . . . . . . . . . . . . . ",
". . . . . . . . . . . . . 5 { { { { { { { { $.. . t.% . . . . . . . . . . . . . . . . . . . . . . . . &.{ { { { { { { { { ].. . > {.. . . . . . . . . . . . . . ",
". . . . . . . . . . . . . # { { { { { { { { |.. . c.F.. . . . . . . . . . . . . . . . . . . . . . . . G { { { { { { { { { d.. . n.l . . . . . . . . . . . . . . ",
". . . . . . . . . . . . . w.{ { { { { { { { n.. . e { q . . . . . . . . . . . . . . . . . . . . . . . l.{ { { { { { { { { 4 . . E s . . . . . . . . . . . . . . ",
". . . . . . . . . . . . . :.{ { { { { { { { E . . G.{ '.. . . . . . . . . . . . . . . . . . . . . . .  .{ { { { { { { { { c . G.{ 6 . . . . . . . . . . . . . . ",
". . . . . . . . . . . . . . ,.{ { { { { { { { G.. H ] ' . . . . . . . . . . . . . . . . . . . . . . . k { { { { { { { { ; . . 2.{ 3 . . . . . . . . . . . . . . ",
". . . . . . . . . . . . . . H.{ { { { { { { { ' . . z I.. . . . . . . . . . . . . . . . . . . . . . . F { { { { { { { { I . . y - . . . . . . . . . . . . . . . ",
". . . . . . . . . . . . . . ' { { { { { { { { x . . A r.. . . . . . . . . . . . . . . . . . . . . . 7 9 { { { { { { { { @ . . J.K.. . . . . . . . . . . . . . . ",
". . . . . . . . . . . . . . m h { { { { { { { w . .  .L.. . . . . . . . . . . . . . . . . . . . . . N { { { { { { { { o c . . ` ).. . . . . . . . . . . . . . . ",
". . . . . . . . . . . . . . . I { { { { { { { = q . x.8 c . . . . . . . . . . . . . . . . . . . . . | { { { { { { { { K.. . !.{ b . . . . . . . . . . . . . . . ",
". . . . . . . . . . . . . . . !.{ { { { { { { { } . ( ] l.. . . . . . . . . . . . . . . . . . . . . 2 { { { { { { { { f . . x i H . . . . . . . . . . . . . . . ",
". . . . . . . . . . . . . . . . }.{ { { { { { { g . . $ h.. . . . . . . . . . . . . . . . . . . . q 8.{ { { { { { { ` ( . . L.I . . . . . . . . . . . . . . . . ",
". . . . . . . . . . . . . . . . x.{ { { { { { { * v . a M.q . . . . . . . . . . . . . . . . . . . l.{ { { { { { { { L . . !.{ G . . . . . . . . . . . . . . . . ",
". . . . . . . . . . . . . . . . . n { { { { { { { f.. ..: 3.. . . . . . . . . . . . . . . . . . . K.{ { { { { { { : d . . I D . . . . . . . . . . . . . . . . . ",
". . . . . . . . . . . . . . . . . '.= { { { { { { ` q . , B m . . . . . . . . . . . . . . . . . N.{ { { { { { { {  .. . v M >.. . . . . . . . . . . . . . . . . ",
". . . . . . . . . . . . . . . . . . f.{ { { { { { { , . c & y . . . . . . . . . . . . . . . . . 0 { { { { { { { % ( . . x - ) . . . . . . . . . . . . . . . . . ",
". . . . . . . . . . . . . . . . . . H X { { { { { { o b . c.M '.. . . . . . . . . . . . . . . 2.{ { { { { { { r 4 . . 3 8. .. . . . . . . . . . . . . . . . . . ",
". . . . . . . . . . . . . . . . . . . G.O.{ { { { { { ;.d . s 5.d . . . . . . . . . . . . . c ,.{ { { { { { { x . . . I y.) . . . . . . . . . . . . . . . . . . ",
". . . . . . . . . . . . . . . . . . . . <.M { { { { { { u.d . y z /.. . . . . . . . . . . ( P.{ { { { { { { ^ . . . 6 { [ . . . . . . . . . . . . . . . . . . . ",
". . . . . . . . . . . . . . . . . . . . . 6 8.{ { { { { { % e . 6 L.@ . . . . . . . . . d P.{ { { { { { { g.( . . v 6.p.. . . . . . . . . . . . . . . . . . . . ",
". . . . . . . . . . . . . . . . . . . . . . G h { { { { { { o $.3 ( ).h.j . . . . . . ~.y.{ { { { { { { Q.( . . 7 $ 0.v . . . . . . . . . . . . . . . . . . . . ",
". . . . . . . . . . . . . . . . . . . . . . . &.u.{ { { { { { { ] j.! e /.m m + 2.t 5.{ { { { { { { { $.7 . . . ^.& :.. . . . . . . . . . . . . . . . . . . . . ",
". . . . . . . . . . . . . . . . . . . . . . H . ( R.o { { { { { { { { { { { { { { { { { { { { { { 1.} . . . . ].M.4 . . . . . . . . . . . . . . . . . . . . . . ",
". . . . . . . . . . . . . . . . . . . . . . x., 7 . '.n 8 { { { { { { { { { { { { { { { { { { M.x ) . . . H m.i e . . . . . . . . . . . . . . . . . . . . . . . ",
". . . . . . . . . . . . . . . . . . . . . . . !.g :.. . &.l y.{ { { { { { { { { { { { { { K | ... . . . /.g.; N.. . . . . . . . . . . . . . . . . . . . . . . . ",
". . . . . . . . . . . . . . . . . . . . . . . . c p.S.7 . . . !.s m.#.;.O o * ` 5.V l ~.+ . . . . . H a F.A ) . . . . . . . . . . . . . . . . . . . . . . . . . ",
". . . . . . . . . . . . . . . . . . . . . . . . . . q.#.v.H . . . . . . . . . . . . . . . . . . H } @.T c.. . . . . . . . . . . . . . . . . . . . . . . . . . . ",
". . . . . . . . . . . . . . . . . . . . . . . . . . . c T.0.y /.. . . . . . . . . . . . . . Y J T 1 S.( . . . . . . . . . . . . . . . . . . . . . . . . . . . . ",
". . . . . . . . . . . . . . . . . . . . . . . . . . . . . G., T n.R.*.<.d ( H q + Y ' s H.1 9 ^ Q 7 . . . . . . . . . . . . . . . . . . . . . . . . . . . . . . ",
". . . . . . . . . . . . . . . . . . . . . . . . . . . . . . . . b | r.u 1 h o o F.,.F p.f.G ( . . . . . . . . . . . . . . . . . . . . . . . . . . . . . . . . . ",
". . . . . . . . . . . . . . . . . . . . . . . . . . . . . . . . . . . . . . . . . . . . . . . . . . . . . . . . . . . . . . . . . . . . . . . . . . . . . . . . ",
". . . . . . . . . . . . . . . . . . . . . . . . . . . . . . . . . . . . . . . . . . . . . . . . . . . . . . . . . . . . . . . . . . . . . . . . . . . . . . . . ",
". . . . . . . . . . . . . . . . . . . . . . . . . . . . . . . . . . . . . . . . . . . . . . . . . . . . . . . . . . . . . . . . . . . . . . . . . . . . . . . . ",
". . . . . . . . . . . . . . . . . . . . . . . . . . . . . . . . . . . . . . . . . . . . . . . . . . . . . . . . . . . . . . . . . . . . . . . . . . . . . . . . ",
". . . . . . . . . . . . . . . . . . . . . . . . . . . . . . . . . . . . . . . . . . . . . . . . . . . . . . . . . . . . . . . . . . . . . . . . . . . . . . . . "};
