/* XPM */
static xpm_row_t const number5_xpm[] = {
"80 80 166 2",
"  	c None",
". 	c #FF0000",
"+ 	c #B60000",
"@ 	c #4B0000",
"# 	c #4D0000",
"$ 	c #AA0000",
"% 	c #F70000",
"& 	c #E70000",
"* 	c #000000",
"= 	c #6E0000",
"- 	c #F60000",
"; 	c #D40000",
"> 	c #940000",
", 	c #E50000",
"' 	c #E10000",
") 	c #BF0000",
"! 	c #B00000",
"~ 	c #450000",
"{ 	c #E30000",
"] 	c #5F0000",
"^ 	c #A90000",
"/ 	c #CD0000",
"( 	c #E20000",
"_ 	c #FA0000",
": 	c #320000",
"< 	c #7E0000",
"[ 	c #ED0000",
"} 	c #A50000",
"| 	c #FD0000",
"1 	c #600000",
"2 	c #FE0000",
"3 	c #FB0000",
"4 	c #DD0000",
"5 	c #C20000",
"6 	c #7C0000",
"7 	c #820000",
"8 	c #2A0000",
"9 	c #FC0000",
"0 	c #A80000",
"a 	c #F90000",
"b 	c #D70000",
"c 	c #E40000",
"d 	c #3D0000",
"e 	c #690000",
"f 	c #B90000",
"g 	c #8B0000",
"h 	c #260000",
"i 	c #510000",
"j 	c #B80000",
"k 	c #660000",
"l 	c #890000",
"m 	c #EB0000",
"n 	c #DF0000",
"o 	c #350000",
"p 	c #530000",
"q 	c #A70000",
"r 	c #D60000",
"s 	c #160000",
"t 	c #2E0000",
"u 	c #650000",
"v 	c #7F0000",
"w 	c #980000",
"x 	c #B40000",
"y 	c #CE0000",
"z 	c #C80000",
"A 	c #680000",
"B 	c #620000",
"C 	c #DC0000",
"D 	c #F00000",
"E 	c #D90000",
"F 	c #CC0000",
"G 	c #BE0000",
"H 	c #A60000",
"I 	c #880000",
"J 	c #BC0000",
"K 	c #F30000",
"L 	c #850000",
"M 	c #AD0000",
"N 	c #CB0000",
"O 	c #EA0000",
"P 	c #E00000",
"Q 	c #990000",
"R 	c #550000",
"S 	c #9F0000",
"T 	c #DE0000",
"U 	c #F10000",
"V 	c #B10000",
"W 	c #580000",
"X 	c #900000",
"Y 	c #400000",
"Z 	c #AB0000",
"` 	c #490000",
" .	c #F80000",
"..	c #A20000",
"+.	c #EE0000",
"@.	c #760000",
"#.	c #E90000",
"$.	c #F50000",
"%.	c #E60000",
"&.	c #3B0000",
"*.	c #920000",
"=.	c #380000",
"-.	c #420000",
";.	c #630000",
">.	c #D00000",
",.	c #1C0000",
"'.	c #BB0000",
").	c #8C0000",
"!.	c #220000",
"~.	c #720000",
"{.	c #A30000",
"].	c #D10000",
"^.	c #EC0000",
"/.	c #5A0000",
"(.	c #6D0000",
"_.	c #C70000",
":.	c #870000",
"<.	c #BD0000",
"[.	c #8A0000",
"}.	c #D80000",
"|.	c #770000",
"1.	c #D30000",
"2.	c #710000",
"3.	c #B50000",
"4.	c #9B0000",
"5.	c #DB0000",
"6.	c #910000",
"7.	c #C50000",
"8.	c #0D0000",
"9.	c #F40000",
"0.	c #A00000",
"a.	c #B30000",
"b.	c #A40000",
"c.	c #560000",
"d.	c #7A0000",
"e.	c #960000",
"f.	c #9E0000",
"g.	c #CF0000",
"h.	c #9D0000",
"i.	c #4F0000",
"j.	c #C10000",
"k.	c #F20000",
"l.	c #DA0000",
"m.	c #D50000",
"n.	c #C00000",
"o.	c #D20000",
"p.	c #E80000",
"q.	c #C60000",
"r.	c #830000",
"s.	c #B70000",
"t.	c #840000",
"u.	c #790000",
"v.	c #A10000",
"w.	c #860000",
"x.	c #6C0000",
"y.	c #930000",
"z.	c #EF0000",
"A.	c #C40000",
"B.	c #5C0000",
"C.	c #8D0000",
"D.	c #700000",
"E.	c #AF0000",
"F.	c #7D0000",
"G.	c #730000",
"H.	c #B20000",
"I.	c #750000",
". . . . . . . . . . . . . . . . . . . . . . . . . . . . . . . . . . . . . . . . . . . . . . . . . . . . . . . . . . . . . . . . . . . . . . . . . . . . . . . . ",
". . . . . . . . . . . . . . . . . . . . . . . . . . . . . . . . . . . . . . . . . . . . . . . . . . . . . + @ # $ % . . . . . . . . . . . . . . . . . . . . . . ",
". . . . . . . . . . . . . . . . . . . . . . . . . . . . . . . . . . . . . . . . . . . . . . . . . . . . & * * * * = - . . . . . . . . . . . . . . . . . . . . . ",
". . . . . . . . . . . . . . . . . . . . . . . . . . . . . . . . . . . . . . . . . . . . . . . . . . . . ; * * * * * > . - , . . . . . . . . . . . . . . . . . . ",
". . . . . . . . . . . . . . . . . . . . . . . . . . . . . . . . . . . . . . . . . . . . . . . . . . . . , * * * * * * ' . ) . . . . . . . . . . . . . . . . . . ",
". . . . . . . . . . . . . . . . . . . . . . . . . . . . . . . . . . . . . . . . . . . . . . . . . . . . . ! ~ = { ] * ^ . / ( . . . . . . . . . . . . . . . . . ",
". . . . . . . . . . . . . . . . . . . . . . . . . . . . . . . . . . . . . . . . . . . . . . . . . . . . . . . . _ : * < . [ } . . . . . . . . . . . . . . . . . ",
". . . . . . . . . . . . . . . . . . . . . . . . . . . . . . . . . . . . . . . . . . . . . . . . . . . . . . . . ! * * = . | 1 . . . . . . . . . . . . . . . . . ",
". . . . . . . . . . . . . . . . . . . . . . . . . . . . . . . . . . . . . . . . . . . . . . . . . 2 3 - [ 4 5 6 * * * 7 . . 8 9 . . . . . . . . . . . . . . . . ",
". . . . . . . . . . . . . . . . . . . . . + * * * * * * * * * * * * * * * * * * * * * * * * * * * * * * * * * * * * * 0 . a * a . . . . . . . . . . . . . . . . ",
". . . . . . . . . . . . . . . . . . . . . + * * * * * * * * * * * * * * * * * * * * * * * * * * * * * * * * * * * * * b . c d . . . . . . . . . . . . . . . . . ",
". . . . . . . . . . . . . . . . . . . . . + * * * * * * * * * * * * * * * * * * * * * * * * * * * * * * * * * * * * e | . f g . . . . . . . . . . . . . . . . . ",
". . . . . . . . . . . . . . . . . . . . . + * * * * * * * * * * * * * * * * * * * * * * * * * * * * * * * * * * * h ( . _ i / . . . . . . . . . . . . . . . . . ",
". . . . . . . . . . . . . . . . . . . . . + * * * * * * * * * * * * * * * * * * * * * * * * * * * * * * * * * * : b . . j k 9 . . . . . . . . . . . . . . . . . ",
". . . . . . . . . . . . . . . . . . . . . + * * * * * * * * * * * * * * * * * * * * * * * * * * * * * * * * * l m . . n o { . . . . . . . . . . . . . . . . . . ",
". . . . . . . . . . . . . . . . . . . . . + * * * * * * * * * * * * * * * * * * * * * * * * * * * * * * p q c . . . ( @ r . . . . . . . . . . . . . . . . . . . ",
". . . . . . . . . . . . . . . . . . . . . + * * * * * * * * * * * * * * * * * * * * * s t @ u v w x y m . . . . . z A ( . . . . . . . . . . . . . . . . . . . . ",
". . . . . . . . . . . . . . . . . . . . . + * * * B . . . . . . . . . . . . . . . . . . . . . . . . . . . . 2 C g j a . . . . . . . . . . . . . . . . . . . . . ",
". . . . . . . . . . . . . . . . . . . . . + * * * B . . . . . . . . . . . . . . . . . . . . . 3 D , E F G H I J K . . . . . . . . . . . . . . . . . . . . . . . ",
". . . . . . . . . . . . . . . . . . . . . + * * * B . . / * * * * * * * * * * * * * * * * * * : p e L M N O . . . . . . . . . . . . . . . . . . . . . . . . . . ",
". . . . . . . . . . . . . . . . . . . . . + * * * B . . / # . . . . . . . . . . . . . . . . . . . . . . . . . . . . . . . . . . . . . . . . . . . . . . . . . . ",
". . . . . . . . . . . . . . . . . . . . . + * * * B . . / # . . . . . . . . . . . . . . . . . . . . . . . . . . . . . . . . . . . . . . . . . . . . . . . . . . ",
". . . . . . . . . . . . . . . . . . . . . + * * * B . . / # . . . . . . . . . . . . . . . . . . . . . . . . . . . . . . . . . . . . . . . . . . . . . . . . . . ",
". . . . . . . . . . . . . . . . . . . . . + * * * B . . / # . . . . . . . . . . . . . . . . . . . . . . . . . . . . . . . . . . . . . . . . . . . . . . . . . . ",
". . . . . . . . . . . . . . . . . . . . . + * * * B . . / # . . . . . . . . . . . . . . . . . . . . . . . . . . . . . . . . . . . . . . . . . . . . . . . . . . ",
". . . . . . . . . . . . . . . . . . . . . + * * * B . . / # . . . . . . . . . . . . . . . . . . . . . . . . . . . . . . . . . . . . . . . . . . . . . . . . . . ",
". . . . . . . . . . . . . . . . . . . . . + * * * B . . / # . . . . . . . . . . . . . . . . . . . . . . . . . . . . . . . . . . . . . . . . . . . . . . . . . . ",
". . . . . . . . . . . . . . . . . . . . . + * * * B . . / # . . . . . . . . . . . . . . . . . . . . . . . . . . . . . . . . . . . . . . . . . . . . . . . . . . ",
". . . . . . . . . . . . . . . . . . . . . + * * * B . . / # . . . 2 P G Q = R 8 8 ~ ] 7 S G T a . . . . . . . . . . . . . . . . . . . . . . . . . . . . . . . . ",
". . . . . . . . . . . . . . . . . . . . . + * * * B . . / # . U V W * * * * * * * * * * * * * 8 X / 3 . . . . . . . . . . . . . . . . . . . . . . . . . . . . . ",
". . . . . . . . . . . . . . . . . . . . . + * * * B . . / Y Z 8 * * * * * * * * * * * * * * * * * * ` +  .. . . . . . . . . . . . . . . . . . . . . . . . . . . ",
". . . . . . . . . . . . . . . . . . . . . + * * * B . 3 ..* * * * * * * * * * * * * * * * * * * * * * * # N . . . . . . . . . . . . . . . . . . . . . . . . . . ",
". . . . . . . . . . . . . . . . . . . . . + * * * B +.@.* * * * * ~ } / #.$.9 3 $.%.F S &.* * * * * * * * * *.$.. . . . . . . . . . . . . . . . . . . . . . . . ",
". . . . . . . . . . . . . . . . . . . . . + * * * =.-.* * * * ;.>.3 . . . . . . . . . . _ 5 ` * * * * * * * * u [ . b . . . . . . . . . . . . . . . . . . . . . ",
". . . . . . . . . . . . . . . . . . . . . + * * * * * * * ,.'.9 . . . . . . . . . . . . . . K ).* * * * * * * * ` #.+.q % . . . . . . . . . . . . . . . . . . . ",
". . . . . . . . . . . . . . . . . . . . . + * * * * * * # ( . . . . , j X 1 Y !.@ ~.{.]._ . . | S * * * * * * * * R +.^.I - . . . . . . . . . . . . . . . . . . ",
". . . . . . . . . . . . . . . . . . . . . + * * * * * /.^.. . 2 >.(.k + C U _ | - , _.:.-.<.3 . | [.* * * * * * * * ~.3 }.|.a . . . . . . . . . . . . . . . . . ",
". . . . . . . . . . . . . . . . . . . . . + * * * * -.m . . [ 7 W 1.2 . . . . . . . . . #.X 2.+.. D &.* * * * * * * * 0 . 3.4.. . . . . . . . . . . . . . . . . ",
". . . . . . . . . . . . . . . . . . . . . + * * * s 5.. . T ~ 6.% . . . . . . . . . . . . . / /.^.. 7.* * * * * * * * 8.{ 3 e _.. . . . . . . . . . . . . . . . ",
". . . . . . . . . . . . . . . . . . . . . 9.0.* * a.. . 4 h b.| . . . . . . . . . . . . . . . c 2.$.| c.* * * * * * * * d.. T -.$.. . . . . . . . . . . . . . . ",
". . . . . . . . . . . . . . . . . . . . . . . n e.3 . #.d S 2 . . . . . . . . . . . . . . . . . c f.. x * * * * * * * * * 4 . :.q . . . . . . . . . . . . . . . ",
". . . . . . . . . . . . . . . . . . . . . . . . . . 3 = l | . . . . . . . . . . . . . . . . . . . ].E [ * * * * * * * * * *.. n ,.U . . . . . . . . . . . . . . ",
". . . . . . . . . . . . . . . . . . . . . . . . . . U ..- . . . . . . . . . . . . . . . . . . . . . g.. e * * * * * * * * !.- . A + . . . . . . . . . . . . . . ",
". . . . . . . . . . . . . . . . . . . . . . . . . . . . . . . . . . . . . . . . . . . . . . . . . . . . h.* * * * * * * * * y . J i.| . . . . . . . . . . . . . ",
". . . . . . . . . . . . . . . . . . . . . . . . . . . . . . . . . . . . . . . . . . . . . . . . . . . . j.* * * * * * * * * } . O * ( . . . . . . . . . . . . . ",
". . . . . . . . . . . . . . . . . . . . . . . . . . . . . . . . . . . . . . . . . . . . . . . . . . . . C * * * * * * * * * (.. . # + . . . . . . . . . . . . . ",
". . . . . . . . . . . . . . . . . . . . . . . . . . . . . . . . . . . . . . . . . . . . . . . . . . . . %.* * * * * * * * * ,.| . e.7 . . . . . . . . . . . . . ",
". . . . . . . . . . . . . . . . . . . . . . . . . . . . . . . . . . . . . . . . . . . . . . . . . . . . +.* * * * * * * * * * D . 3.~ . . . . . . . . . . . . . ",
". . . . . . . . . . . . . . . . . . . . . . . . . . . . . . . . . . . . . . . . . . . . . . . . . . . . $.* * * * * * * * * * c . F * k.. . . . . . . . . . . . ",
". . . . . . . . . . . . . . . . . . . . . . . . . . . . . . . . . . . . . . . . . . . . . . . . . . . . _ * * * * * * * * * * T . 5.* %.. . . . . . . . . . . . ",
". . . . . . . . . . . . . . . . . . . . . . . . . . c . . . . . . . . . . . . . . . . . . . . . . . . . $.* * * * * * * * * * l.. ' * n . . . . . . . . . . . . ",
". . . . . . . . . . . . . . . . . . . . . . . . % w q . . _ c 2 . . . . . . . . . . . . . . . . . . . . +.* * * * * * * * * * T . & * }.. . . . . . . . . . . . ",
". . . . . . . . . . . . . . . . . . . . . . . m.R * G . . T *  .. . . . . . . . . . . . . . . . . . . . & * * * * * * * * * * { . c * 5.. . . . . . . . . . . . ",
". . . . . . . . . . . . . . . . . . . . . +.> * * * N . . n.# . . . . . . . . . . . . . . . . . . . . . P * * * * * * * * * * [ . n * P . . . . . . . . . . . . ",
". . . . . . . . . . . . . . . . . . .  .a.8 * * * * o.. . 0 < . . . . . . . . . . . . . . . . . . . . . N * * * * * * * * * s 9 . }.* p.. . . . . . . . . . . . ",
". . . . . . . . . . . . . . . . . 3 5 # * * * * * * r . . Q X . . . . . . . . . . . . . . . . . . . . . M * * * * * * * * * B . . q.* % . . . . . . . . . . . . ",
". . . . . . . . . . . . . . . 9 z W * * * * * * * * g.. . w 4.. . . . . . . . . . . . . . . . . . . . . r.* * * * * * * * * f.. . V ~ . . . . . . . . . . . . . ",
". . . . . . . . . . . . . . . s.* * * * * * * * * * 7.. . q *.. . . . . . . . . . . . . . . . . . . . | Y * * * * * * * * * z . . ).t.. . . . . . . . . . . . . ",
". . . . . . . . . . . . . . . m.* * * * * * * * * * + . . J u.. . . . . . . . . . . . . . . . . . . . 5.* * * * * * * * * 8.k.. 2 Y + . . . . . . . . . . . . . ",
". . . . . . . . . . . . . . . - ,.* * * * * * * * * ).. . T h 3 . . . . . . . . . . . . . . . . . . . v.* * * * * * * * * w.. . p.* 5.. . . . . . . . . . . . . ",
". . . . . . . . . . . . . . . . g * * * * * * * * * d 2 . _ d }.. . . . . . . . . . . . . . . . . . 3 &.* * * * * * * * * r . . j ~ 9 . . . . . . . . . . . . . ",
". . . . . . . . . . . . . . . . m.* * * * * * * * * * T . . M ).. . . . . . . . . . . . . . . . . . n.* * * * * * * * * = 2 . . x.} . . . . . . . . . . . . . . ",
". . . . . . . . . . . . . . . . | x.* * * * * * * * * y.. . z.o l.. . . . . . . . . . . . . . . . 9.d * * * * * * * * * C . . 4 * & . . . . . . . . . . . . . . ",
". . . . . . . . . . . . . . . . . l.* * * * * * * * * 8.p.. . A.B.9.. . . . . . . . . . . . . . . {.* * * * * * * * * 0.. . . C.).. . . . . . . . . . . . . . . ",
". . . . . . . . . . . . . . . . . . ..* * * * * * * * * = _ . 2 h.@.% . . . . . . . . . . . . . ].* * * * * * * * * D.a . . 4 8., . . . . . . . . . . . . . . . ",
". . . . . . . . . . . . . . . . . . a @.* * * * * * * * * 4.| . | f.u p.. . . . . . . . . . . 5.t * * * * * * * * p +.. . 9 (.0 . . . . . . . . . . . . . . . . ",
". . . . . . . . . . . . . . . . . . . K e * * * * * * * * * l % . . F i E.$.. . . . . . . . z h * * * * * * * * p ^.. . . E.1 % . . . . . . . . . . . . . . . . ",
". . . . . . . . . . . . . . . . . . . . 9.d.* * * * * * * * * c.q.3 . _ _.C.{.. . . . . p.g * * * * * * * * * @.D . . . r t %.. . . . . . . . . . . . . . . . . ",
". . . . . . . . . . . . . . . . . . . . . 3 $ * * * * * * * * * * p ..>.#.K a 9 $.( j.7 * * * * * * * * * * q _ . . . n =.].. . . . . . . . . . . . . . . . . . ",
". . . . . . . . . . . . . . . . . . . . . . . n x.* * * * * * * * * * * * * * * * * * * * * * * * * * * ~.n . . . . P Y N . . . . . . . . . . . . . . . . . . . ",
". . . . . . . . . . . . . . . . . . . . . . . . 2 g.2.* * * * * * * * * * * * * * * * * * * * * * * F.; 2 . . . . g.d ].. . . . . . . . . . . . . . . . . . . . ",
". . . . . . . . . . . . . . . . . . . . . . . . . . . ( M ] * * * * * * * * * * * * * * * * * G.x O . . . . . a } c.{ . . . . . . . . . . . . . . . . . . . . . ",
". . . . . . . . . . . . . . . . . . . . . . . . . 3 K . . . z.].x e.u./.&.h s o ` u L S J }.9.. . . . . . . ; 1 4.- . . . . . . . . . . . . . . . . . . . . . . ",
". . . . . . . . . . . . . . . . . . . . . . . . . | / E.C 2 . . . . . . . . . . . . . . . . . . . . . | m.d.~.l.. . . . . . . . . . . . . . . . . . . . . . . . ",
". . . . . . . . . . . . . . . . . . . . . . . . . . . | F [.$ }._ . . . . . . . . . . . . . . . | ' H.R 7 o.2 . . . . . . . . . . . . . . . . . . . . . . . . . ",
". . . . . . . . . . . . . . . . . . . . . . . . . . . . . . & x x.7 $ z P ^.K _ 2 3 - z.P >.3.).~ I.f #.. . . . . . . . . . . . . . . . . . . . . . . . . . . . ",
". . . . . . . . . . . . . . . . . . . . . . . . . . . . . . . . . z.m.+ X |.B ~ ,.: ` 1 r.S '.l.9.. . . . . . . . . . . . . . . . . . . . . . . . . . . . . . . ",
". . . . . . . . . . . . . . . . . . . . . . . . . . . . . . . . . . . . . . . . . . . . . . . . . . . . . . . . . . . . . . . . . . . . . . . . . . . . . . . . ",
". . . . . . . . . . . . . . . . . . . . . . . . . . . . . . . . . . . . . . . . . . . . . . . . . . . . . . . . . . . . . . . . . . . . . . . . . . . . . . . . ",
". . . . . . . . . . . . . . . . . . . . . . . . . . . . . . . . . . . . . . . . . . . . . . . . . . . . . . . . . . . . . . . . . . . . . . . . . . . . . . . . "};
