/* XPM */
static xpm_row_t const number8_xpm[] = {
"80 80 179 2",
"  	c None",
". 	c #FF0000",
"+ 	c #350000",
"@ 	c #000000",
"# 	c #2A0000",
"$ 	c #FC0000",
"% 	c #AA0000",
"& 	c #920000",
"* 	c #B90000",
"= 	c #F60000",
"- 	c #D60000",
"; 	c #1C0000",
"> 	c #E50000",
", 	c #4D0000",
"' 	c #470000",
") 	c #F20000",
"! 	c #F00000",
"~ 	c #420000",
"{ 	c #AD0000",
"] 	c #DA0000",
"^ 	c #0D0000",
"/ 	c #FA0000",
"( 	c #DB0000",
"_ 	c #4F0000",
": 	c #B10000",
"< 	c #780000",
"[ 	c #FB0000",
"} 	c #B00000",
"| 	c #260000",
"1 	c #E00000",
"2 	c #F70000",
"3 	c #450000",
"4 	c #C80000",
"5 	c #E40000",
"6 	c #710000",
"7 	c #320000",
"8 	c #A30000",
"9 	c #6D0000",
"0 	c #AB0000",
"a 	c #5A0000",
"b 	c #C50000",
"c 	c #E70000",
"d 	c #FD0000",
"e 	c #C70000",
"f 	c #490000",
"g 	c #F40000",
"h 	c #2E0000",
"i 	c #D90000",
"j 	c #D50000",
"k 	c #690000",
"l 	c #CB0000",
"m 	c #AF0000",
"n 	c #DE0000",
"o 	c #DF0000",
"p 	c #7D0000",
"q 	c #F50000",
"r 	c #EE0000",
"s 	c #7F0000",
"t 	c #790000",
"u 	c #EB0000",
"v 	c #910000",
"w 	c #7E0000",
"x 	c #C10000",
"y 	c #BB0000",
"z 	c #F80000",
"A 	c #AE0000",
"B 	c #550000",
"C 	c #CE0000",
"D 	c #EC0000",
"E 	c #B40000",
"F 	c #800000",
"G 	c #510000",
"H 	c #4B0000",
"I 	c #6C0000",
"J 	c #8C0000",
"K 	c #BE0000",
"L 	c #D40000",
"M 	c #B30000",
"N 	c #F90000",
"O 	c #9E0000",
"P 	c #720000",
"Q 	c #D20000",
"R 	c #FE0000",
"S 	c #970000",
"T 	c #890000",
"U 	c #ED0000",
"V 	c #620000",
"W 	c #560000",
"X 	c #CA0000",
"Y 	c #6A0000",
"Z 	c #DC0000",
"` 	c #530000",
" .	c #A40000",
"..	c #F10000",
"+.	c #BD0000",
"@.	c #F30000",
"#.	c #B50000",
"$.	c #E10000",
"%.	c #730000",
"&.	c #5C0000",
"*.	c #660000",
"=.	c #8D0000",
"-.	c #400000",
";.	c #D10000",
">.	c #C60000",
",.	c #E30000",
"'.	c #580000",
").	c #860000",
"!.	c #8F0000",
"~.	c #9F0000",
"{.	c #C20000",
"].	c #5F0000",
"^.	c #E80000",
"/.	c #D80000",
"(.	c #960000",
"_.	c #680000",
":.	c #830000",
"<.	c #E20000",
"[.	c #770000",
"}.	c #700000",
"|.	c #9A0000",
"1.	c #DD0000",
"2.	c #820000",
"3.	c #8E0000",
"4.	c #810000",
"5.	c #E90000",
"6.	c #D70000",
"7.	c #3D0000",
"8.	c #930000",
"9.	c #B70000",
"0.	c #A20000",
"a.	c #870000",
"b.	c #EF0000",
"c.	c #3B0000",
"d.	c #EA0000",
"e.	c #E60000",
"f.	c #940000",
"g.	c #980000",
"h.	c #CD0000",
"i.	c #AC0000",
"j.	c #900000",
"k.	c #BA0000",
"l.	c #CF0000",
"m.	c #BC0000",
"n.	c #8B0000",
"o.	c #B80000",
"p.	c #630000",
"q.	c #7C0000",
"r.	c #6E0000",
"s.	c #A00000",
"t.	c #C40000",
"u.	c #8A0000",
"v.	c #380000",
"w.	c #220000",
"x.	c #C00000",
"y.	c #CC0000",
"z.	c #160000",
"A.	c #840000",
"B.	c #A10000",
"C.	c #A70000",
"D.	c #C90000",
"E.	c #D00000",
"F.	c #7A0000",
"G.	c #B20000",
"H.	c #5D0000",
"I.	c #A80000",
"J.	c #A50000",
"K.	c #D30000",
"L.	c #BF0000",
"M.	c #650000",
"N.	c #C30000",
"O.	c #880000",
"P.	c #B60000",
"Q.	c #850000",
"R.	c #750000",
"S.	c #A60000",
"T.	c #600000",
"U.	c #9C0000",
"V.	c #9B0000",
". . . . . . . . . . . . . . . . . . . . . . . . . . . . . . . . . . . . . . . . . . . + @ @ @ @ # $ % & . . . . . . . . . . . . . . . . . . . . . . . . . . . . ",
". . . . . . . . . . . . . . . . . . . . . . . . . . . . . . . . . . . . . . . . . . . * @ @ @ @ @ = - ; $ . . . . . . . . . . . . . . . . . . . . . . . . . . . ",
". . . . . . . . . . . . . . . . . . . . . . . . . . . . . . . . . . . . . . . . . . . . > , @ @ ' . > @ ) . . . . . . . . . . . . . . . . . . . . . . . . . . . ",
". . . . . . . . . . . . . . . . . . . . . . . . . . . . . . . . . . . . . . . . . . . . ! ~ @ @ { . ] ^ / . . . . . . . . . . . . . . . . . . . . . . . . . . . ",
". . . . . . . . . . . . . . . . . . . . . . . . . . . . . . . . . . . . . . . . . . . ( _ @ @ , = . : < . . . . . . . . . . . . . . . . . . . . . . . . . . . . ",
". . . . . . . . . . . . . . . . . . . . . . . . . . . . . . . . . . . . . . . . . [ } ^ @ @ | 1 . 2 3 4 . . . . . . . . . . . . . . . . . . . . . . . . . . . . ",
". . . . . . . . . . . . . . . . . . . . . . . . . . . . . . . . . . . . . . . . 5 6 @ @ @ 7 ( . . 8 9 [ . . . . . . . . . . . . . . . . . . . . . . . . . . . . ",
". . . . . . . . . . . . . . . . . . . . . . . . . . . . . . . . . . . . . . = 0 ^ @ @ @ a 5 . . b + c . . . . . . . . . . . . . . . . . . . . . . . . . . . . . ",
". . . . . . . . . . . . . . . . . . . . . . . . . . . . . . . . . . . . d e f @ @ @ @ & g . . e h i . . . . . . . . . . . . . . . . . . . . . . . . . . . . . . ",
". . . . . . . . . . . . . . . . . . . . . . . . . . . . . . . . . . . j k @ @ @ @ ' l . . d m 3 n . . . . . . . . . . . . . . . . . . . . . . . . . . . . . . . ",
". . . . . . . . . . . . . . . . . . . . . . . . . . . . . . . . . o p @ @ @ @ ^ 8 q . . r s t r . . . . . . . . . . . . . . . . . . . . . . . . . . . . . . . . ",
". . . . . . . . . . . . . . . . . . . . . . . . . . . . . . . u v @ @ @ @ @ w > . . d x 3 y d . . . . . . . . . . . . . . . . . . . . . . . . . . . . . . . . . ",
". . . . . . . . . . . . . . . . . . . . . . . . . . . . . z A ; @ @ @ @ B C . . . D E F G | H I J K > . . . . . . . . . . . . . . . . . . . . . . . . . . . . . ",
". . . . . . . . . . . . . . . . . . . . . . . . . . . . L B @ @ @ @ | M N . . = O @ @ @ @ @ @ @ @ @ @ P Q R . . . . . . . . . . . . . . . . . . . . . . . . . . ",
". . . . . . . . . . . . . . . . . . . . . . . . . . = S @ @ @ @ @ T U . . . ! V @ @ @ @ @ @ @ @ @ @ @ @ @ F ! . . . . . . . . . . . . . . . . . . . . . . . . . ",
". . . . . . . . . . . . . . . . . . . . . . . . . 1 W @ @ @ @ h X . . . . [ Y @ @ @ @ @ @ @ @ @ @ @ @ @ @ @ ' Z . . . . . . . . . . . . . . . . . . . . . . . . ",
". . . . . . . . . . . . . . . . . . . . . . . . e ; @ @ @ @ ` c . . /  ...+.@ @ @ @ , y c N $ @.o #., @ @ @ @ 7 $.= Z . . . . . . . . . . . . . . . . . . . . . ",
". . . . . . . . . . . . . . . . . . . . . . . * @ @ @ @ @ G r . . ! %.&.2 *.@ @ @ =.2 . . . . . . . / E ^ @ @ @ -.r ;.+.. . . . . . . . . . . . . . . . . . . . ",
". . . . . . . . . . . . . . . . . . . . . . >.@ @ @ @ @ ; ,.. . U '.).= N @ @ @ t [ . . . . . . . . . . j ; @ @ @ !.. ~.{.. . . . . . . . . . . . . . . . . . . ",
". . . . . . . . . . . . . . . . . . . . . c # @ @ @ @ @ : . . g ].!.$ . ..@ @ @ ^.. . R /.(._.7 '.:.e N . 4 @ @ @ @ ( 2 '.<.. . . . . . . . . . . . . . . . . . ",
". . . . . . . . . . . . . . . . . . . . . [.@ @ @ @ @ # g . . !.}./ . . [ | @ v . . = ).|./...$ g 1.8 ].c . 2.@ @ @ ~.. Q 6 R . . . . . . . . . . . . . . . . . ",
". . . . . . . . . . . . . . . . . . . . ] @ @ @ @ @ @ 3.. . 1.@ > . . . . M G ^.. N 4.1.. . . . . . . 5.2.5.6.@ @ @ 7.$ . [./.. . . . . . . . . . . . . . . . . ",
". . . . . . . . . . . . . . . . . . . . 8.@ @ @ @ @ @ 9.. . 0.a.. . . . . . . . . { ,.. . . . . . . . . N : 2 ; @ @ @ b.. {.~.. . . . . . . . . . . . . . . . . ",
". . . . . . . . . . . . . . . . . . . d c.@ @ @ @ @ @ {.. . p K . . . . . . . . . . . . . . . . . . . . . . . a @ @ @ <.. d.G . . . . . . . . . . . . . . . . . ",
". . . . . . . . . . . . . . . . . . . e.@ @ @ @ @ @ @ * . . T X . . . . . . . . . . . . . . . . . . . . . . . _.@ @ @ Z . z @ = . . . . . . . . . . . . . . . . ",
". . . . . . . . . . . . . . . . . . . 6.@ @ @ @ @ @ @ f.. . % K . . . . . . . . . . . . . . . . . . . . . . . 7.@ @ @ e.. . | u . . . . . . . . . . . . . . . . ",
". . . . . . . . . . . . . . . . . . . l @ @ @ @ @ @ @ + = . 1 g.. . . . . . . . . . . . . . . . . . . . . . ) @ @ @ @ = . d ^ ^.. . . . . . . . . . . . . . . . ",
". . . . . . . . . . . . . . . . . . . h.@ @ @ @ @ @ @ @ i.. . j.= . . . . . . . . . . . . . . . . . . . . . l @ @ @ 6 . . q @ ) . . . . . . . . . . . . . . . . ",
". . . . . . . . . . . . . . . . . . . ] @ @ @ @ @ @ @ @ @ C . r : . . . . . . . . . . . . . . . . . . . . . < @ @ @ k.. . o h $ . . . . . . . . . . . . . . . . ",
". . . . . . . . . . . . . . . . . . . ) @ @ @ @ @ @ @ @ @ ^ K R > l.. . . . . . . . . . . . . . . . . . . ;.@ @ @ # g . . m.n.. . . . . . . . . . . . . . . . . ",
". . . . . . . . . . . . . . . . . . . . < @ @ @ @ @ @ @ @ @ @ T b.R . . . . . . . . . . . . . . . . . . D -.@ @ @ y . . . }.b . . . . . . . . . . . . . . . . . ",
". . . . . . . . . . . . . . . . . . . . C @ @ @ @ @ @ @ @ @ @ @ h o.N . . . . . . . . . . . . . . . . U p.@ @ @ q.d . . o -.z . . . . . . . . . . . . . . . . . ",
". . . . . . . . . . . . . . . . . . . . R r.@ @ @ @ @ @ @ @ @ @ @ @ , x / . . . . . . . . . . . . . Z f @ @ @ _.q . . R q.* . . . . . . . . . . . . . . . . . . ",
". . . . . . . . . . . . . . . . . . . . . 5.+ @ @ @ @ @ @ @ @ @ @ @ @ @ H k.q . . . . . . . . . g s.@ @ @ @ r.! . . . t.k [ . . . . . . . . . . . . . . . . . . ",
". . . . . . . . . . . . . . . . . . . . . . L ; @ @ @ @ @ @ @ @ @ @ @ @ @ @ # ~.o R . . . . ! { 7 @ @ @ @ u.2 . . . 1.v.,.. . . . . . . . . . . . . . . . . . . ",
". . . . . . . . . . . . . . . . . . . . . . . L w.@ @ @ @ @ @ @ @ @ @ @ @ @ @ @ @ &.m Z l a.^ @ @ @ @ w.m.R . . . 5 ~ C . . . . . . . . . . . . . . . . . . . . ",
". . . . . . . . . . . . . . . . . . . . . . . . <.&.@ @ @ @ @ @ @ @ @ @ @ @ @ @ @ @ @ @ @ @ @ @ @ @ r.> . . . . 6.+ {.. . . . . . . . . . . . . . . . . . . . . ",
". . . . . . . . . . . . . . . . . . . . . . . . . = |.@ @ @ @ @ @ @ @ @ @ @ @ @ @ @ @ @ @ @ @ @ v.x.d . . . [ : h l.. . . . . . . . . . . . . . . . . . . . . . ",
". . . . . . . . . . . . . . . . . . . . . . . . . . . n r.@ @ @ @ @ @ @ @ @ @ @ @ @ @ @ @ @ @ @ J c . . . o 6 }.^.. . . . . . . . . . . . . . . . . . . . . . . ",
". . . . . . . . . . . . . . . . . . . . . . . . . . . . d ;.6 @ @ @ @ @ @ @ @ @ @ @ @ @ @ @ @ @ @ @ F y.8.' x.[ . . . . . . . . . . . . . . . . . . . . . . . . ",
". . . . . . . . . . . . . . . . . . . . . . . . . . . . . . ,.p.@ @ @ @ @ @ @ @ @ @ @ @ @ @ @ @ @ @ @ @ z.Q . . . . . . . . . . . . . . . . . . . . . . . . . . ",
". . . . . . . . . . . . . . . . . . . . . . . . . . . . ( A.@ @ @ @ @ @ @ @ @ @ @ @ @ @ @ @ @ @ @ @ @ @ @ @ g.... . . . . . . . . . . . . . . . . . . . . . . . ",
". . . . . . . . . . . . . . . . . . . . . . . . . . 1 s @ @ @ @ @ @ =.n.; @ @ @ @ @ @ @ @ @ @ @ @ @ @ @ @ @ @ -.- . . . . . . . . . . . . . . . . . . . . . . . ",
". . . . . . . . . . . . . . . . . . . . . . . . ! S @ @ @ @ @ @ q.o . . = h.& # @ @ @ @ @ @ @ @ @ @ @ @ @ @ @ @ @ E R . . . . . . . . . . . . . . . . . . . . . ",
". . . . . . . . . . . . . . . . . . . . . . . >.v.@ @ @ @ @ 7 t.R . . . . 2 >.Y V :.^ @ @ @ @ @ @ @ @ @ @ @ @ @ @ @ B.R . $ . . . . . . . . . . . . . . . . . . ",
". . . . . . . . . . . . . . . . . . . . . = !.@ @ @ @ @ @ 6 D . . . . ..C.h a.6.R . r M f @ @ @ @ @ @ @ @ @ @ @ @ @ @ 0.R j ] . . . . . . . . . . . . . . . . . ",
". . . . . . . . . . . . . . . . . . . . U p.@ @ @ @ @ @ T z . . . N m # p 1 . . . . . . [ D.V @ @ @ @ @ @ @ @ @ @ @ @ @ o.. s.{.. . . . . . . . . . . . . . . . ",
". . . . . . . . . . . . . . . . . . . d., @ @ @ @ @ @ u.$ . . . <.V ' E.. . . . . . . . . . d l W @ @ @ @ @ @ @ @ @ @ @ ^ Z [ F.{.. . . . . . . . . . . . . . . ",
". . . . . . . . . . . . . . . . . . @.B @ @ @ @ @ @ }.z . . . l z.a.... . . . . . . . . . . . . / G.; @ @ @ @ @ @ @ @ @ @ _ 2 ! ' Z . . . . . . . . . . . . . . ",
". . . . . . . . . . . . . . . . . R u.@ @ @ @ @ @ w.5.. . . >.@ B.d . . . . . . . . . . . . . . . . e.k @ @ @ @ @ @ @ @ @ @ } . h.H./ . . . . . . . . . . . . . ",
". . . . . . . . . . . . . . . . . t.@ @ @ @ @ @ @ E . . . 1.^ I.. . . . . . . . . . . . . . . . . . . z v @ @ @ @ @ @ @ @ @ | r . j.E . . . . . . . . . . . . . ",
". . . . . . . . . . . . . . . . / , @ @ @ @ @ @ + 2 . . = ` A.d . . . . . . . . . . . . . . . . . . . . d s.@ @ @ @ @ @ @ @ @ m . > v.= . . . . . . . . . . . . ",
". . . . . . . . . . . . . . . . b @ @ @ @ @ @ @ J.. . . E 7.@.. . . . . . . . . . . . . . . . . . . . . . d a.@ @ @ @ @ @ @ @ H $ . A.K . . . . . . . . . . . . ",
". . . . . . . . . . . . . . . . p @ @ @ @ @ @ @ ( . . z -.o.. . . . . . . . . . . . . . . . . . . . . . . . = ].@ @ @ @ @ @ @ @ 6.. ;.r.. . . . . . . . . . . . ",
". . . . . . . . . . . . . . . 2 z.@ @ @ @ @ @ ^ z . . K.| 2 . . . . . . . . . . . . . . . . . . . . . . . . . Q @ @ @ @ @ @ @ @ G.. @.@ D . . . . . . . . . . . ",
". . . . . . . . . . . . . . . ( @ @ @ @ @ @ @ p.. . . C.u.. . . . . . . . . . . . . . . . . . . . . . . . . . . [.@ @ @ @ @ @ @ 4.. . Y l . . . . . . . . . . . ",
". . . . . . . . . . . . . . . y.@ @ @ @ @ @ @ p . . . p K . . . . . . . . . . . . . . . . . . . . . . . . . . . X @ @ @ @ @ @ @ -.. . ~.{ . . . . . . . . . . . ",
". . . . . . . . . . . . . . . L.@ @ @ @ @ @ @ =.. . . V E.. . . . . . . . . . . . . . . . . . . . . . . . . . . ..@ @ @ @ @ @ @ @ d . A !.. . . . . . . . . . . ",
". . . . . . . . . . . . . . . k.@ @ @ @ @ @ @ ).. . . ' Z . . . . . . . . . . . . . . . . . . . . . . . . . . . . M.@ @ @ @ @ @ @ q . m.F . . . . . . . . . . . ",
". . . . . . . . . . . . . . . {.@ @ @ @ @ @ @ P . . . H./.. . . . . . . . . . . . . . . . . . . . . . . . . . . . A.@ @ @ @ @ @ @ g . N.P . . . . . . . . . . . ",
". . . . . . . . . . . . . . . ;.@ @ @ @ @ @ @ 7 R . . F.h.. . . . . . . . . . . . . . . . . . . . . . . . . . . . |.@ @ @ @ @ @ @ [ . y w . . . . . . . . . . . ",
". . . . . . . . . . . . . . . d.@ @ @ @ @ @ @ @ 5.. . C.} . . . . . . . . . . . . . . . . . . . . . . . . . . . . f.@ @ @ @ @ @ _ . . G.n.. . . . . . . . . . . ",
". . . . . . . . . . . . . . . d f @ @ @ @ @ @ @ {.. . C q.. . . . . . . . . . . . . . . . . . . . . . . . . . . . p @ @ @ @ @ @ O.. . (.J.. . . . . . . . . . . ",
". . . . . . . . . . . . . . . . 8 @ @ @ @ @ @ @ }.. . 2 h ... . . . . . . . . . . . . . . . . . . . . . . . . . . B @ @ @ @ @ @ y . . r.x.. . . . . . . . . . . ",
". . . . . . . . . . . . . . . . <.@ @ @ @ @ @ @ @ /.. . B.P.. . . . . . . . . . . . . . . . . . . . . . . . . . ^.@ @ @ @ @ @ @ c . = ^ n . . . . . . . . . . . ",
". . . . . . . . . . . . . . . . . Q.@ @ @ @ @ @ @ I [ . U , = . . . . . . . . . . . . . . . . . . . . . . . . . y @ @ @ @ @ @ p . . j 7 [ . . . . . . . . . . . ",
". . . . . . . . . . . . . . . . . 5.; @ @ @ @ @ @ @ % . . M I.. . . . . . . . . . . . . . . . . . . . . . . . 2 G @ @ @ @ @ @ 6.. . g.g.. . . . . . . . . . . . ",
". . . . . . . . . . . . . . . . . . y @ @ @ @ @ @ @ @ {.. [ R.] . . . . . . . . . . . . . . . . . . . . . . . A @ @ @ @ @ @ u.. . g w.( . . . . . . . . . . . . ",
". . . . . . . . . . . . . . . . . . . (.@ @ @ @ @ @ @ @ * . ..%.U . . . . . . . . . . . . . . . . . . . . . E.^ @ @ @ @ @ H ... . m }.R . . . . . . . . . . . . ",
". . . . . . . . . . . . . . . . . . . [ !.@ @ @ @ @ @ @ @ & q U a.... . . . . . . . . . . . . . . . . . . ;.z.@ @ @ @ @ # n . . r # i . . . . . . . . . . . . . ",
". . . . . . . . . . . . . . . . . . . . $ ~.@ @ @ @ @ @ @ @ 3 t.! S.D . . . . . . . . . . . . . . . . 2 0.@ @ @ @ @ @ # 6.. . R :.(.. . . . . . . . . . . . . . ",
". . . . . . . . . . . . . . . . . . . . . . t.# @ @ @ @ @ @ @ @ , E t.. . . . . . . . . . . . . . ) k.` @ @ @ @ @ @ H $.. . . 9.W = . . . . . . . . . . . . . . ",
". . . . . . . . . . . . . . . . . . . . . . . u F @ @ @ @ @ @ @ @ @ @ &.0.t.Z u = [ R / ) u 6.#.a.; @ @ @ @ @ @ @ T ... . . l c.c . . . . . . . . . . . . . . . ",
". . . . . . . . . . . . . . . . . . . . . . . . R Q _.@ @ @ @ @ @ @ @ @ @ @ @ @ @ @ @ @ @ @ @ @ @ @ @ @ @ @ @ B y.. . . . e v.1.. . . . . . . . . . . . . . . . ",
". . . . . . . . . . . . . . . . . . . . . . . R . . d - T @ @ @ @ @ @ @ @ @ @ @ @ @ @ @ @ @ @ @ @ @ @ @ @ T.N.N . . . d : f ,.. . . . . . . . . . . . . . . . . ",
". . . . . . . . . . . . . . . . . . . . . . . R ] U . . . ..b J v.@ @ @ @ @ @ @ @ @ @ @ @ @ @ @ @ @ W S.1.R . . . . U w F.r . . . . . . . . . . . . . . . . . . ",
". . . . . . . . . . . . . . . . . . . . . . . . . ( b z . . . . d e.h.G.(.w T.3 7 z.| -.a F.f.M l.D . . . . . . N #.c.#.$ . . . . . . . . . . . . . . . . . . . ",
". . . . . . . . . . . . . . . . . . . . . . . . . . 2 9.K g . . . . . . . . . . . . . . . . . . . . . . . . ) P.3 f.U . . . . . . . . . . . . . . . . . . . . . ",
". . . . . . . . . . . . . . . . . . . . . . . . . . . . ..m  .Q z . . . . . . . . . . . . . . . . . . b.l u.c.0.d.. . . . . . . . . . . . . . . . . . . . . . . ",
". . . . . . . . . . . . . . . . . . . . . . . . . . . . . . [ ;.U.Q.C.{.6.> b.2 [ d R [ 2 b.,.L m.V.V H V.E.N . . . . . . . . . . . . . . . . . . . . . . . . . "};
