/* XPM */
static xpm_row_t const number9_xpm[] = {
"80 80 179 2",
"  	c None",
". 	c #FF0000",
"+ 	c #E80000",
"@ 	c #C50000",
"# 	c #A00000",
"$ 	c #7E0000",
"% 	c #560000",
"& 	c #3B0000",
"* 	c #1C0000",
"= 	c #420000",
"- 	c #5C0000",
"; 	c #7F0000",
"> 	c #A50000",
", 	c #EB0000",
"' 	c #F20000",
") 	c #B70000",
"! 	c #600000",
"~ 	c #000000",
"{ 	c #620000",
"] 	c #BC0000",
"^ 	c #F40000",
"/ 	c #F50000",
"( 	c #A90000",
"_ 	c #260000",
": 	c #AE0000",
"< 	c #F70000",
"[ 	c #FB0000",
"} 	c #FD0000",
"| 	c #CF0000",
"1 	c #490000",
"2 	c #4D0000",
"3 	c #D30000",
"4 	c #F80000",
"5 	c #AF0000",
"6 	c #E70000",
"7 	c #580000",
"8 	c #B40000",
"9 	c #DD0000",
"0 	c #FC0000",
"a 	c #F30000",
"b 	c #DE0000",
"c 	c #BB0000",
"d 	c #690000",
"e 	c #AA0000",
"f 	c #FE0000",
"g 	c #BF0000",
"h 	c #B60000",
"i 	c #F90000",
"j 	c #840000",
"k 	c #450000",
"l 	c #C80000",
"m 	c #DC0000",
"n 	c #730000",
"o 	c #8C0000",
"p 	c #FA0000",
"q 	c #E40000",
"r 	c #940000",
"s 	c #F60000",
"t 	c #7C0000",
"u 	c #6E0000",
"v 	c #EF0000",
"w 	c #5A0000",
"x 	c #2A0000",
"y 	c #510000",
"z 	c #850000",
"A 	c #BA0000",
"B 	c #F00000",
"C 	c #830000",
"D 	c #E90000",
"E 	c #8D0000",
"F 	c #A20000",
"G 	c #E30000",
"H 	c #BE0000",
"I 	c #E00000",
"J 	c #400000",
"K 	c #950000",
"L 	c #EE0000",
"M 	c #2E0000",
"N 	c #EC0000",
"O 	c #650000",
"P 	c #A70000",
"Q 	c #D20000",
"R 	c #770000",
"S 	c #E20000",
"T 	c #3D0000",
"U 	c #B20000",
"V 	c #750000",
"W 	c #DB0000",
"X 	c #780000",
"Y 	c #960000",
"Z 	c #D50000",
"` 	c #C10000",
" .	c #910000",
"..	c #5D0000",
"+.	c #630000",
"@.	c #B10000",
"#.	c #EA0000",
"$.	c #A80000",
"%.	c #920000",
"&.	c #C20000",
"*.	c #4B0000",
"=.	c #F10000",
"-.	c #160000",
";.	c #930000",
">.	c #BD0000",
",.	c #B00000",
"'.	c #970000",
").	c #C70000",
"!.	c #8B0000",
"~.	c #CD0000",
"{.	c #220000",
"].	c #DF0000",
"^.	c #B90000",
"/.	c #0D0000",
"(.	c #900000",
"_.	c #ED0000",
":.	c #B30000",
"<.	c #D70000",
"[.	c #C40000",
"}.	c #5F0000",
"|.	c #CA0000",
"1.	c #B80000",
"2.	c #AC0000",
"3.	c #470000",
"4.	c #D60000",
"5.	c #7D0000",
"6.	c #890000",
"7.	c #9C0000",
"8.	c #4F0000",
"9.	c #C00000",
"0.	c #AD0000",
"a.	c #C90000",
"b.	c #9F0000",
"c.	c #990000",
"d.	c #550000",
"e.	c #820000",
"f.	c #6A0000",
"g.	c #800000",
"h.	c #380000",
"i.	c #790000",
"j.	c #860000",
"k.	c #D10000",
"l.	c #D40000",
"m.	c #710000",
"n.	c #A10000",
"o.	c #9A0000",
"p.	c #6D0000",
"q.	c #DA0000",
"r.	c #A30000",
"s.	c #9B0000",
"t.	c #CE0000",
"u.	c #D80000",
"v.	c #AB0000",
"w.	c #8F0000",
"x.	c #8E0000",
"y.	c #E60000",
"z.	c #700000",
"A.	c #CB0000",
"B.	c #9E0000",
"C.	c #870000",
"D.	c #9D0000",
"E.	c #320000",
"F.	c #E50000",
"G.	c #530000",
"H.	c #660000",
"I.	c #980000",
"J.	c #A60000",
"K.	c #880000",
"L.	c #6C0000",
"M.	c #350000",
"N.	c #810000",
"O.	c #D90000",
"P.	c #D00000",
"Q.	c #C30000",
"R.	c #E10000",
"S.	c #C60000",
"T.	c #7A0000",
"U.	c #720000",
"V.	c #680000",
". . . . . . . . . . . . . . . . . . . . . . . . . . . . . . . . . . . . . . . . . . . . . . . . . . . . . . . . . . . . . . . . . . . . . . . . . . . . . . . . ",
". . . . . . . . . . . . . . . . . . . . . . . . . . . . . . . . . . . . . . . . . . . . . . . . . . . . . . . . . . . . . . . . . . . . . . . . . . . . . . . . ",
". . . . . . . . . . . . . . . . . . . . . . . . . . . . . . . + @ # $ % & * = - ; > @ , . . . . . . . . . . . . . . . . . . . . . . . . . . . . . . . . . . . . ",
". . . . . . . . . . . . . . . . . . . . . . . . . . . . ' ) ! ~ ~ ~ ~ ~ ~ ~ ~ ~ ~ ~ ~ ~ { ] ^ . . . . . . . . . . . . . . . . . . . . . . . . . . . . . . . . . ",
". . . . . . . . . . . . . . . . . . . . . . . . . . / ( _ ~ ~ ~ ~ ~ ~ ~ ~ ~ ~ ~ ~ ~ ~ ~ ~ ~ _ : < . . [ } . . . . . . . . . . . . . . . . . . . . . . . . . . . ",
". . . . . . . . . . . . . . . . . . . . . . . . . | 1 ~ ~ ~ ~ ~ ~ ~ ~ ~ ~ ~ ~ ~ ~ ~ ~ ~ ~ ~ ~ ~ 2 3 . 4 5 6 . . . . . . . . . . . . . . . . . . . . . . . . . . ",
". . . . . . . . . . . . . . . . . . . . . . . [ > ~ ~ ~ ~ ~ ~ ~ 7 8 9 ' [ 0 a b c d ~ ~ ~ ~ ~ ~ ~ ~ e 0 f g h [ . . . . . . . . . . . . . . . . . . . . . . . . ",
". . . . . . . . . . . . . . . . . . . . . . i j ~ ~ ~ ~ ~ ~ k l } . . . . . . . . . m n ~ ~ ~ ~ ~ ~ ~ o p . q r s . . . . . . . . . . . . . . . . . . . . . . . ",
". . . . . . . . . . . . . . . . . . . . . i t ~ ~ ~ ~ ~ ~ u v . . . , h $ w x y z A B f g * ~ ~ ~ ~ ~ ~ C p . D C v . . . . . . . . . . . . . . . . . . . . . . ",
". . . . . . . . . . . . . . . . . . . . } E ~ ~ ~ ~ ~ ~ d s . . 4 F w 8 G ' 0 < q H u > / I J ~ ~ ~ ~ ~ ~ K f . , n L . . . . . . . . . . . . . . . . . . . . . ",
". . . . . . . . . . . . . . . . . . . . 5 ~ ~ ~ ~ ~ ~ M N . . a O P p . . . . . . . f Q R S q T ~ ~ ~ ~ ~ ~ U . . G V 4 . . . . . . . . . . . . . . . . . . . . ",
". . . . . . . . . . . . . . . . . . . W ~ ~ ~ ~ ~ ~ ~ A . . p X h . . . . . . . . . . . s Y m Z ~ ~ ~ ~ ~ ~ ~ m . . `  .f . . . . . . . . . . . . . . . . . . . ",
". . . . . . . . . . . . . . . . . . [ ..~ ~ ~ ~ ~ ~ +.[ . . @.E f . . . . . . . . . . . . f : #.$.~ ~ ~ ~ ~ ~ % s . . %.H . . . . . . . . . . . . . . . . . . . ",
". . . . . . . . . . . . . . . . . . ] ~ ~ ~ ~ ~ ~ ~ ` . . B M + . . . . . . . . . . . . . . . &.^ *.~ ~ ~ ~ ~ ~ e . . v k =.. . . . . . . . . . . . . . . . . . ",
". . . . . . . . . . . . . . . . . p k ~ ~ ~ ~ ~ ~ -.a . . : ;.. . . . . . . . . . . . . . . . } N >.~ ~ ~ ~ ~ ~ * #.. . ,.'.. . . . . . . . . . . . . . . . . . ",
". . . . . . . . . . . . . . . . . ).~ ~ ~ ~ ~ ~ ~ !.. . f 7 ~.. . . . . . . . . . . . . . . . . . s {.~ ~ ~ ~ ~ ~ K . . s k ].. . . . . . . . . . . . . . . . . ",
". . . . . . . . . . . . . . . . . t ~ ~ ~ ~ ~ ~ ~ ^.. . G /.^ . . . . . . . . . . . . . . . . . . . (.~ ~ ~ ~ ~ ~ /._.. . :.Y . . . . . . . . . . . . . . . . . ",
". . . . . . . . . . . . . . . . B ~ ~ ~ ~ ~ ~ ~ ~ <.. . [.}.. . . . . . . . . . . . . . . . . . . . |.~ ~ ~ ~ ~ ~ ~ e . . , * =.. . . . . . . . . . . . . . . . ",
". . . . . . . . . . . . . . . . ~.~ ~ ~ ~ ~ ~ ~ ~ B . . > o . . . . . . . . . . . . . . . . . . . . _.~ ~ ~ ~ ~ ~ ~ = [ . . $ 1.. . . . . . . . . . . . . . . . ",
". . . . . . . . . . . . . . . . P ~ ~ ~ ~ ~ ~ ~ ~ [ . . ; 2.. . . . . . . . . . . . . . . . . . . . . 3.~ ~ ~ ~ ~ ~ ~ 4.. . l { . . . . . . . . . . . . . . . . ",
". . . . . . . . . . . . . . . . 5.~ ~ ~ ~ ~ ~ ~ x . . . +.^.. . . . . . . . . . . . . . . . . . . . . 6.~ ~ ~ ~ ~ ~ ~ 7.. . L ~ L . . . . . . . . . . . . . . . ",
". . . . . . . . . . . . . . . . 2 ~ ~ ~ ~ ~ ~ ~ 8.. . . 8.9.. . . . . . . . . . . . . . . . . . . . . 0.~ ~ ~ ~ ~ ~ ~ 8.. . . 7 a.. . . . . . . . . . . . . . . ",
". . . . . . . . . . . . . . . 0 ~ ~ ~ ~ ~ ~ ~ ~ - . . . M ).. . . . . . . . . . . . . . . . . . . . . [.~ ~ ~ ~ ~ ~ ~ ~ #.. . b.c.. . . . . . . . . . . . . . . ",
". . . . . . . . . . . . . . . < ~ ~ ~ ~ ~ ~ ~ ~ T . . . {.).. . . . . . . . . . . . . . . . . . . . . 4.~ ~ ~ ~ ~ ~ ~ ~ l . . |.d.. . . . . . . . . . . . . . . ",
". . . . . . . . . . . . . . . ^ ~ ~ ~ ~ ~ ~ ~ ~ ~ f . . 1 9.. . . . . . . . . . . . . . . . . . . . . S ~ ~ ~ ~ ~ ~ ~ ~ e . . I ~ i . . . . . . . . . . . . . . ",
". . . . . . . . . . . . . . . s ~ ~ ~ ~ ~ ~ ~ ~ ~ s . . { 1.. . . . . . . . . . . . . . . . . . . . . L ~ ~ ~ ~ ~ ~ ~ ~ e.. . =.~ 6 . . . . . . . . . . . . . . ",
". . . . . . . . . . . . . . . 0 ~ ~ ~ ~ ~ ~ ~ ~ ~ I . . e.F . . . . . . . . . . . . . . . . . . . . . / ~ ~ ~ ~ ~ ~ ~ ~ 1 . . f x 3 . . . . . . . . . . . . . . ",
". . . . . . . . . . . . . . . . 8.~ ~ ~ ~ ~ ~ ~ ~ &.. . ( t . . . . . . . . . . . . . . . . . . . . . [ ~ ~ ~ ~ ~ ~ ~ ~ ~ [ . . f.>.. . . . . . . . . . . . . . ",
". . . . . . . . . . . . . . . . g.~ ~ ~ ~ ~ ~ ~ ~ c.. . l h.} . . . . . . . . . . . . . . . . . s d i.4 -.~ ~ ~ ~ ~ ~ ~ ~ v . . j.U . . . . . . . . . . . . . . ",
". . . . . . . . . . . . . . . . 0.~ ~ ~ ~ ~ ~ ~ ~ h.4 . _.~ I . . . . . . . . . . . . . . . . . a.~ ~ k.x ~ ~ ~ ~ ~ ~ ~ ~ q . .  .e . . . . . . . . . . . . . . ",
". . . . . . . . . . . . . . . . l.~ ~ ~ ~ ~ ~ ~ ~ ~ ).. . m.8 . . . . . . . . . . . . . . . . . n.~ ~ &.h.~ ~ ~ ~ ~ ~ ~ ~ b . . o.# . . . . . . . . . . . . . . ",
". . . . . . . . . . . . . . . . i M ~ ~ ~ ~ ~ ~ ~ ~ p.} . 9.% 0 . . . . . . . . . . . . . . . } *.~ ~ ).= ~ ~ ~ ~ ~ ~ ~ ~ q.. . r.'.. . . . . . . . . . . . . . ",
". . . . . . . . . . . . . . . . . s.~ ~ ~ ~ ~ ~ ~ ~ ~ >.. i 2 t.. . . . . . . . . . . . . . . q.~ ~ ~ u.& ~ ~ ~ ~ ~ ~ ~ ~ 4.. . v.w.. . . . . . . . . . . . . . ",
". . . . . . . . . . . . . . . . . G ~ ~ ~ ~ ~ ~ ~ ~ ~ _ D . @ }.i . . . . . . . . . . . . . . t ~ ~ ~ ' x ~ ~ ~ ~ ~ ~ ~ ~ 4.. . e '.. . . . . . . . . . . . . . ",
". . . . . . . . . . . . . . . . . . x.~ ~ ~ ~ ~ ~ ~ ~ ~ }.=.. w.2.. . . . . . . . . . . . . H ~ ~ ~ X . -.~ ~ ~ ~ ~ ~ ~ ~ q.. . r.# . . . . . . . . . . . . . . ",
". . . . . . . . . . . . . . . . . . N x ~ ~ ~ ~ ~ ~ ~ ~ ~ - y.s z.).. . . . . . . . . . . l -.~ ~ ~ A.} ~ ~ ~ ~ ~ ~ ~ ~ ~ b . . B.( . . . . . . . . . . . . . . ",
". . . . . . . . . . . . . . . . . . . [.~ ~ ~ ~ ~ ~ ~ ~ ~ ~ {.8 L C.>.f . . . . . . . B D.~ ~ ~ ~ p.} < ~ ~ ~ ~ ~ ~ ~ ~ ~ 6 . . w.@.. . . . . . . . . . . . . . ",
". . . . . . . . . . . . . . . . . . . . B.~ ~ ~ ~ ~ ~ ~ ~ ~ ~ ~ E.D.C.z.l.} [ ^ G l w.* ~ ~ ~ ~ _ F.. ' ~ ~ ~ ~ ~ ~ ~ ~ ~ =.. . X A . . . . . . . . . . . . . . ",
". . . . . . . . . . . . . . . . . . . . 0 E ~ ~ ~ ~ ~ ~ ~ ~ ~ ~ ~ ~ ~ ~ ~ ~ ~ ~ ~ ~ ~ ~ ~ ~ ~ /.t.. . #.~ ~ ~ ~ ~ ~ ~ ~ ~ [ . . w ~.. . . . . . . . . . . . . . ",
". . . . . . . . . . . . . . . . . . . . . 0 c.~ ~ ~ ~ ~ ~ ~ ~ ~ ~ ~ ~ ~ ~ ~ ~ ~ ~ ~ ~ ~ ~ ~ * ~.. . f E ~ ~ ~ ~ ~ ~ ~ ~ G.. . 0 -.].. . . . . . . . . . . . . . ",
". . . . . . . . . . . . . . . . . . . . . . . 9.{.~ ~ ~ ~ ~ ~ ~ ~ ~ ~ ~ ~ ~ ~ ~ ~ ~ ~ ~ ~ H.S . . . :.~ ~ ~ ~ ~ ~ ~ ~ ~ C . . N ~ B . . . . . . . . . . . . . . ",
". . . . . . . . . . . . . . . . . . . . . < . . #.j.~ ~ ~ ~ ~ ~ ~ ~ ~ ~ ~ ~ ~ ~ ~ ~ ~ {.5 p . . . c * T ~ ~ ~ ~ ~ ~ ~ ~ > . . u.{.f . . . . . . . . . . . . . . ",
". . . . . . . . . . . . . . . . . . . . . ' F.. . . I I.x ~ ~ ~ ~ ~ ~ ~ ~ ~ ~ ~ ~ 8.) ' . . . } U _ 4.3.~ ~ ~ ~ ~ ~ ~ ~ ).. . c p.. . . . . . . . . . . . . . . ",
". . . . . . . . . . . . . . . . . . . . . . , I . . . . 4 4.,.!.O J {.h.}.R Y &.q 0 . . . . ' j.d.I B ~ ~ ~ ~ ~ ~ ~ ~ ~ q . . %.J.. . . . . . . . . . . . . . . ",
". . . . . . . . . . . . . . . . . . . . . . . =.t.< . . . . . . . . . . . . . . . . . . [ H & r a . <.~ ~ ~ ~ ~ ~ ~ ~ x [ . . 8.~.. . . . . . . . . . . . . . . ",
". . . . . . . . . . . . . . . . . . . . . . . . f Q ).L . . . . . . . . . . . . . . v h 8.n u.. . . h ~ ~ ~ ~ ~ ~ ~ ~ K.. . D ~ _.. . . . . . . . . . . . . . . ",
". . . . . . . . . . . . . . . . . . . . . . . . . . 0 ~.( 0.| S =.i } } 4 ' G ~.: L.M.s.W . . . . . g.~ ~ ~ ~ ~ ~ ~ ~ H . . &.2 . . . . . . . . . . . . . . . . ",
". . . . . . . . . . . . . . . . . . . . . . . . . . . . . =.~.J.N.% h.-.& G.X o.c b p . . . . . . p {.~ ~ ~ ~ ~ ~ ~ ~ D . . o # . . . . . . . . . . . . . . . . ",
". . . . . . . . . . . . . . . . . . . . . . . . . . . . . . . . . . . . . . . . . . . . . . . . . W ~ ~ ~ ~ ~ ~ ~ ~ d . . / * O.. . . . . . . . . . . . . . . . ",
". . . . . . . . . . . . . . . . . . . . . . . . . . . . . . . . . . . . . . . . . . . . . . . . . $.~ ~ ~ ~ ~ ~ ~ ~ 1.. . |.k 0 . . . . . . . . . . . . . . . . ",
". . . . . . . . . . . . . . . . . . . . . . . . . . . . . . . . . . . . . . . . . . . . . . . . f G.~ ~ ~ ~ ~ ~ ~ /.L . . C r.. . . . . . . . . . . . . . . . . ",
". . . . . . . . . . . . . . . . . . . . . . . . . . . . . . . . . . . . . . . . . . . . . . . . I ~ ~ ~ ~ ~ ~ ~ ~ o . . #.~ 9 . . . . . . . . . . . . . . . . . ",
". . . . . . . . . . . . . . . . . . . . . . . . . . . . . . . . . . . . . . . . . . . . . . . . F ~ ~ ~ ~ ~ ~ ~ ~ <.. . 2.n . . . . . . . . . . . . . . . . . . ",
". . . . . . . . . . . . . . . . . . . . . . . . . . . . . . . . . . . . . . . . . . . . . . . < E.~ ~ ~ ~ ~ ~ ~ u f . s h.| . . . . . . . . . . . . . . . . . . ",
". . . . . . . . . . . . . . . . . . . . . . . . . . . . . . . . . . . . . . . . . . . . . . . @ ~ ~ ~ ~ ~ ~ ~ ~ P.. . 1.w 0 . . . . . . . . . . . . . . . . . . ",
". . . . . . . . . . . . . . . . . . . . . . . . . . . . . . . . . . . . . . . . . . . . . . 0 - ~ ~ ~ ~ ~ ~ ~ z.f . < k Q.. . . . . . . . . . . . . . . . . . . ",
". . . . . . . . . . . . . . . . . . . . . . . . . . . . . . . . . . . . . . . . . . . . . . A.~ ~ ~ ~ ~ ~ ~ ~ q.. . U H.0 . . . . . . . . . . . . . . . . . . . ",
". . . . . . . . . . . . . . . . . . . . . . . . . . . . . . . . . . . . . . . . . . . . . [ ! ~ ~ ~ ~ ~ ~ ~ w.. . v x u.. . . . . . . . . . . . . . . . . . . . ",
". . . . . . . . . . . . . . . . . . . . . . . . . . . . . . . . . . . . . . . . . . . . . c ~ ~ ~ ~ ~ ~ ~ h.B . . r w.. . . . . . . . . . . . . . . . . . . . . ",
". . . . . . . . . . . . . . . . . . . . . . . . . . . . . . . . . . . . . . . . . . . . B M.~ ~ ~ ~ ~ ~ ~ [.. . l.M _.. . . . . . . . . . . . . . . . . . . . . ",
". . . . . . . . . . . . . . . . . . . . . . . . . . . . . . . . . . . . . . . . . . . f K.~ ~ ~ ~ ~ ~ ~ E . . s G.).. . . . . . . . . . . . . . . . . . . . . . ",
". . . . . . . . . . . . . . . . . . . . . . . . . . . . . . . . . . . . . . . . . . . ` ~ ~ ~ ~ ~ ~ ~ G.^ . . ;.Y . . . . . . . . . . . . . . . . . . . . . . . ",
". . . . . . . . . . . . . . . . . . . . . . . . . . . . . . . . . . . . . . . . . . R._ ~ ~ ~ ~ ~ ~ x G . . [...< . . . . . . . . . . . . . . . . . . . . . . . ",
". . . . . . . . . . . . . . . . . . . . . . . . . . . . . . . . . . . . . . . . . L *.~ ~ ~ ~ ~ ~ ~ P.. . b & G . . . . . . . . . . . . . . . . . . . . . . . . ",
". . . . . . . . . . . . . . . . . . . . . . . . . . . . . . . . . . . . . . . . a d ~ ~ ~ ~ ~ ~ ~ Q.. . _.*.Z . . . . . . . . . . . . . . . . . . . . . . . . . ",
". . . . . . . . . . . . . . . . . . . . . . . . . . . . . . . . . . . . . . . ' d ~ ~ ~ ~ ~ ~ ~ >.. . ' +.S.. . . . . . . . . . . . . . . . . . . . . . . . . . ",
". . . . . . . . . . . . . . . . . . . . . . . . . . . . . . . . . . . . . . , +.~ ~ ~ ~ ~ ~ /.Q.. . ^ f.8 . . . . . . . . . . . . . . . . . . . . . . . . . . . ",
". . . . . . . . . . . . . . . . . . . . . . . . . . . . . . . . . . . . . u.T ~ ~ ~ ~ ~ ~ x k.. . ' u U . . . . . . . . . . . . . . . . . . . . . . . . . . . . ",
". . . . . . . . . . . . . . . . . . . . . . . . . . . . . . . . . . . i e ~ ~ ~ ~ ~ ~ ~ w F.. . N ..] . . . . . . . . . . . . . . . . . . . . . . . . . . . . . ",
". . . . . . . . . . . . . . . . . . . . . . . . . . . . . . . . . . u.+.~ ~ ~ ~ ~ ~ ~ x.^ . . m *.@ . . . . . . . . . . . . . . . . . . . . . . . . . . . . . . ",
". . . . . . . . . . . . . . . . . . . . . . . . . . . . . . . . S j ~ ~ ~ ~ ~ ~ ~ M.).. . . 9.2 q.. . . . . . . . . . . . . . . . . . . . . . . . . . . . . . . ",
". . . . . . . . . . . . . . . . . . . . . . . . . . . . . [ | T.~ ~ ~ ~ ~ ~ ~ ~ r B . . a w.R v . . . . . . . . . . . . . . . . . . . . . . . . . . . . . . . . ",
". . . . . . . . . . . . . . . . . . . . . . . . . . / 3 s.h.~ ~ ~ ~ ~ ~ ~ ~ U.O.. . . Q 8.v.[ . . . . . . . . . . . . . . . . . . . . . . . . . . . . . . . . . ",
". . . . . . . . . . . . . . . . . . . . f N <.9.r.V.~ ~ ~ ~ ~ ~ ~ ~ ~ ~ n k.f . . L E u S . . . . . . . . . . . . . . . . . . . . . . . . . . . . . . . . . . . ",
". . . . . . . . . . . . . . . . . . . u.*.~ ~ ~ ~ ~ ~ ~ ~ ~ ~ ~ ~ x c.b . . . / ,.1 c 0 . . . . . . . . . . . . . . . . . . . . . . . . . . . . . . . . . . . . ",
". . . . . . . . . . . . . . . . . . . I.~ ~ ~ ~ ~ ~ ~ ~ ~ ~ k c.~.4 . . . ' h 8.,./ . . . . . . . . . . . . . . . . . . . . . . . . . . . . . . . . . . . . . . ",
". . . . . . . . . . . . . . . . . . . 6 j J * & y n %.0.~.+ f . . . f ].b.8.5 a . . . . . . . . . . . . . . . . . . . . . . . . . . . . . . . . . . . . . . . . ",
". . . . . . . . . . . . . . . . . . . . . . . . . . . . . . . [ 9 ,.7 e.| [ . . . . . . . . . . . . . . . . . . . . . . . . . . . . . . . . . . . . . . . . . . ",
". . . . . . . . . . . . . . . . . . . . . . . . . . s + k.U 6.1 %.).v . . . . . . . . . . . . . . . . . . . . . . . . . . . . . . . . . . . . . . . . . . . . . ",
". . . . . . . . . . . . . . . . . . . . . . j p.m.d U.!.: A.q [ . . . . . . . . . . . . . . . . . . . . . . . . . . . . . . . . . . . . . . . . . . . . . . . . "};
