/* XPM */
static xpm_row_t const number4_xpm[] = {
"80 80 155 2",
"  	c None",
". 	c #FF0000",
"+ 	c #940000",
"@ 	c #000000",
"# 	c #D30000",
"$ 	c #8B0000",
"% 	c #EF0000",
"& 	c #CE0000",
"* 	c #800000",
"= 	c #550000",
"- 	c #FE0000",
"; 	c #530000",
"> 	c #D40000",
", 	c #620000",
"' 	c #A20000",
") 	c #E00000",
"! 	c #320000",
"~ 	c #FA0000",
"{ 	c #2E0000",
"] 	c #D20000",
"^ 	c #AD0000",
"/ 	c #980000",
"( 	c #F30000",
"_ 	c #2A0000",
": 	c #F80000",
"< 	c #560000",
"[ 	c #DF0000",
"} 	c #930000",
"| 	c #E20000",
"1 	c #F90000",
"2 	c #C80000",
"3 	c #950000",
"4 	c #A60000",
"5 	c #450000",
"6 	c #FB0000",
"7 	c #FC0000",
"8 	c #4B0000",
"9 	c #D10000",
"0 	c #730000",
"a 	c #AB0000",
"b 	c #1C0000",
"c 	c #EB0000",
"d 	c #8E0000",
"e 	c #DA0000",
"f 	c #890000",
"g 	c #F10000",
"h 	c #160000",
"i 	c #E70000",
"j 	c #B20000",
"k 	c #BC0000",
"l 	c #760000",
"m 	c #710000",
"n 	c #FD0000",
"o 	c #5C0000",
"p 	c #C70000",
"q 	c #970000",
"r 	c #F00000",
"s 	c #D00000",
"t 	c #3D0000",
"u 	c #F70000",
"v 	c #CD0000",
"w 	c #680000",
"x 	c #780000",
"y 	c #AF0000",
"z 	c #E30000",
"A 	c #350000",
"B 	c #E60000",
"C 	c #CF0000",
"D 	c #EA0000",
"E 	c #490000",
"F 	c #DC0000",
"G 	c #F50000",
"H 	c #6C0000",
"I 	c #9C0000",
"J 	c #4D0000",
"K 	c #D60000",
"L 	c #E80000",
"M 	c #0D0000",
"N 	c #D50000",
"O 	c #830000",
"P 	c #7E0000",
"Q 	c #920000",
"R 	c #880000",
"S 	c #EE0000",
"T 	c #720000",
"U 	c #B60000",
"V 	c #A00000",
"W 	c #B30000",
"X 	c #5A0000",
"Y 	c #3B0000",
"Z 	c #DD0000",
"` 	c #BF0000",
" .	c #700000",
"..	c #9D0000",
"+.	c #660000",
"@.	c #C10000",
"#.	c #260000",
"$.	c #EC0000",
"%.	c #F20000",
"&.	c #B50000",
"*.	c #A70000",
"=.	c #9F0000",
"-.	c #9A0000",
";.	c #5D0000",
">.	c #F40000",
",.	c #F60000",
"'.	c #B70000",
").	c #900000",
"!.	c #400000",
"~.	c #990000",
"{.	c #9B0000",
"].	c #B80000",
"^.	c #CA0000",
"/.	c #D80000",
"(.	c #470000",
"_.	c #B00000",
":.	c #860000",
"<.	c #4F0000",
"[.	c #790000",
"}.	c #B40000",
"|.	c #D70000",
"1.	c #DE0000",
"2.	c #8A0000",
"3.	c #6D0000",
"4.	c #600000",
"5.	c #B90000",
"6.	c #E90000",
"7.	c #6A0000",
"8.	c #BB0000",
"9.	c #770000",
"0.	c #ED0000",
"a.	c #CB0000",
"b.	c #E50000",
"c.	c #BE0000",
"d.	c #D90000",
"e.	c #420000",
"f.	c #C00000",
"g.	c #850000",
"h.	c #8D0000",
"i.	c #820000",
"j.	c #510000",
"k.	c #A90000",
"l.	c #8C0000",
"m.	c #6E0000",
"n.	c #C20000",
"o.	c #380000",
"p.	c #7F0000",
"q.	c #A30000",
"r.	c #690000",
"s.	c #E10000",
"t.	c #AA0000",
"u.	c #AE0000",
"v.	c #7D0000",
"w.	c #910000",
"x.	c #A80000",
". . . . . . . . . . . . . . . . . . . . . . . . . . . . . . . . . . . . . . . . . . . . . . . . . . . . . . . . . . . . . . . . . . . . . . . . . . . . . . . . ",
". . . . . . . . . . . . . . . . . . . . . . . . . . . . . . . . . . . . . . . . . . . . . . . . . . . . . . . . . . . . . . . . . . . . . . . . . . . . . . . . ",
". . . . . . . . . . . . . . . . . . . . . . . . . . . . . . . . . . . . . . . . . . . . . . . . . . . . . . . . . . . . . . . . . . . . . . . . . . . . . . . . ",
". . . . . . . . . . . . . . . . . . . . . . . . . . . . . . . . . . . . . . . . . . . . . . . . . . . . . . . . . . . . . . . . . . . . . . . . . . . . . . . . ",
". . . . . . . . . . . . . . . . . . . . . . . . . . . . . . . . . . . . . . . . . . . . . . . . . . . . . . . . . . . . . . . . . . . . . . . . . . . . . . . . ",
". . . . . . . . . . . . . . . . . . . . . . . . . . . . . . . . . . . . . . . . . . . . . . . . . . . . . . . . . . . . . . . . . . . . . . . . . . . . . . . . ",
". . . . . . . . . . . . . . . . . . . . . . . . . . . . . . . + @ @ @ @ @ @ @ @ @ @ @ # . . . . . . . . . . . . . . . . . . . . . . . . . . . . . . . . . . . . ",
". . . . . . . . . . . . . . . . . . . . . . . . . . . . . . . $ @ @ @ @ @ @ @ @ @ @ @ % . . & % . . . . . . . . . . . . . . . . . . . . . . . . . . . . . . . . ",
". . . . . . . . . . . . . . . . . . . . . . . . . . . . . . . * @ @ @ @ @ @ @ @ @ @ = . . - ; > . . . . . . . . . . . . . . . . . . . . . . . . . . . . . . . . ",
". . . . . . . . . . . . . . . . . . . . . . . . . . . . . . . , @ @ @ @ @ @ @ @ @ @ ' . . ) ! ~ . . . . . . . . . . . . . . . . . . . . . . . . . . . . . . . . ",
". . . . . . . . . . . . . . . . . . . . . . . . . . . . . . . { @ @ @ @ @ @ @ @ @ @ ] . . ^ / . . . . . . . . . . . . . . . . . . . . . . . . . . . . . . . . . ",
". . . . . . . . . . . . . . . . . . . . . . . . . . . . . . ( @ @ @ @ @ @ @ @ @ @ _ : . - < ] . . . . . . . . . . . . . . . . . . . . . . . . . . . . . . . . . ",
". . . . . . . . . . . . . . . . . . . . . . . . . . . . . . [ @ @ @ @ @ @ @ @ @ @ } . . | { 1 . . . . . . . . . . . . . . . . . . . . . . . . . . . . . . . . . ",
". . . . . . . . . . . . . . . . . . . . . . . . . . . . . . 2 @ @ @ @ @ @ @ @ @ @ ] . . ^ 3 . . . . . . . . . . . . . . . . . . . . . . . . . . . . . . . . . . ",
". . . . . . . . . . . . . . . . . . . . . . . . . . . . . . 4 @ @ @ @ @ @ @ @ @ 5 6 . 7 8 9 . . . . . . . . . . . . . . . . . . . . . . . . . . . . . . . . . . ",
". . . . . . . . . . . . . . . . . . . . . . . . . . . . . . 0 @ @ @ @ @ @ @ @ @ a . . > 5 6 . . . . . . . . . . . . . . . . . . . . . . . . . . . . . . . . . . ",
". . . . . . . . . . . . . . . . . . . . . . . . . . . . . 1 b @ @ @ @ @ @ @ @ @ c . . d a . . . . . . . . . . . . . . . . . . . . . . . . . . . . . . . . . . . ",
". . . . . . . . . . . . . . . . . . . . . . . . . . . . . e @ @ @ @ @ @ @ @ @ f . . g h i . . . . . . . . . . . . . . . . . . . . . . . . . . . . . . . . . . . ",
". . . . . . . . . . . . . . . . . . . . . . . . . . . . . j @ @ @ @ @ @ @ @ @ e . . k l . . . . . . . . . . . . . . . . . . . . . . . . . . . . . . . . . . . . ",
". . . . . . . . . . . . . . . . . . . . . . . . . . . . . 0 @ @ @ @ @ @ @ @ m . . n o p . . . . . . q ^ . . . . . . . . . . . . . . . . . . . . . . . . . . . . ",
". . . . . . . . . . . . . . . . . . . . . . . . . . . . r @ @ @ @ @ @ @ @ @ s . . 9 t u . . . . . v @ ^ . . . . . . . . . . . . . . . . . . . . . . . . . . . . ",
". . . . . . . . . . . . . . . . . . . . . . . . . . . . 2 @ @ @ @ @ @ @ @ w n . . x y . . . . . z A @ ^ . 6 < B . . . . . . . . . . . . . . . . . . . . . . . . ",
". . . . . . . . . . . . . . . . . . . . . . . . . . . . $ @ @ @ @ @ @ @ @ C . . [ b r . . . . D E @ @ ^ . 6 @ F . . . . . . . . . . . . . . . . . . . . . . . . ",
". . . . . . . . . . . . . . . . . . . . . . . . . . . G b @ @ @ @ @ @ @ H n . . } I . . . . z J @ @ @ ^ . 6 @ F . . . . . . . . . . . . . . . . . . . . . . . . ",
". . . . . . . . . . . . . . . . . . . . . . . . . . . 2 @ @ @ @ @ @ @ @ K . . L M B . . . N ! @ @ @ @ ^ . 6 @ F . . . . . . . . . . . . . . . . . . . . . . . . ",
". . . . . . . . . . . . . . . . . . . . . . . . . . . O @ @ @ @ @ @ @ P . . . Q R . . 6 ^ @ @ @ @ @ @ ^ . 6 @ F . . . . . . . . . . . . . . . . . . . . . . . . ",
". . . . . . . . . . . . . . . . . . . . . . . . . . S @ @ @ @ @ @ @ @ z . . z @ z . D T @ @ @ @ @ @ @ ^ . 6 @ F . . . . . . . . . . . . . . . . . . . . . . . . ",
". . . . . . . . . . . . . . . . . . . . . . . . . . U @ @ @ @ @ @ @ V . . . R Q . . W @ @ @ @ @ @ @ @ ^ . 6 @ F . . . . . . . . . . . . . . . . . . . . . . . . ",
". . . . . . . . . . . . . . . . . . . . . . . . . n X @ @ @ @ @ @ Y ( . . Z M L . . W @ @ @ @ @ @ @ @ ^ . 6 @ F . . . . . . . . . . . . . . . . . . . . . . . . ",
". . . . . . . . . . . . . . . . . . . . . . . . . K @ @ @ @ @ @ @ ` . . n  .... . . W @ @ @ @ @ @ @ @ ^ . 6 @ F . . . . . . . . . . . . . . . . . . . . . . . . ",
". . . . . . . . . . . . . . . . . . . . . . . . . f @ @ @ @ @ @ +.7 . . @.#.S . . . W @ @ @ @ @ @ @ @ ^ . 6 @ F . . . . . . . . . . . . . . . . . . . . . . . . ",
". . . . . . . . . . . . . . . . . . . . . . . . $.@ @ @ @ @ @ @ e . . %.Y &.. . . . W @ @ @ @ @ @ @ @ ^ . 6 @ F . . . . . . . . . . . . . . . . . . . . . . . . ",
". . . . . . . . . . . . . . . . . . . . . . . . *.@ @ @ @ @ @ =.. . . -.;.~ . . . . W @ @ @ @ @ @ @ @ ^ . 6 @ F . . . . . . . . . . . . . . . . . . . . . . . . ",
". . . . . . . . . . . . . . . . . . . . . . . >.{ @ @ @ @ @ ; ,.. . e @ K . . . . . W @ @ @ @ @ @ @ @ ^ . 6 @ F . . . . . . . . . . . . . . . . . . . . . . . . ",
". . . . . . . . . . . . . . . . . . . . . . . '.@ @ @ @ @ @ N . . ,.< ).. . . . . . W @ @ @ @ @ @ @ @ ^ . 6 @ F . . . . . . . . . . . . . . . . . . . . . . . . ",
". . . . . . . . . . . . . . . . . . . . . . u !.@ @ @ @ @ ~.. . . {.Y S . . . . . . W @ @ @ @ @ @ @ @ ^ . 6 @ F . . . . . . . . . . . . . . . . . . . . . . . . ",
". . . . . . . . . . . . . . . . . . . . . . ].@ @ @ @ @ 8 >.. . 9 @ ^.. . . . . . . W @ @ @ @ @ @ @ @ ^ . 6 @ F . . . . . . . . . . . . . . . . . . . . . . . . ",
". . . . . . . . . . . . . . . . . . . . . ,.!.@ @ @ @ @ /.. . %.(.} . . . . . . . . W @ @ @ @ @ @ @ @ ^ . 6 @ F . . . . . . . . . . . . . . . . . . . . . . . . ",
". . . . . . . . . . . . . . . . . . . . . _.@ @ @ @ @ y . . n :.<.>.. . . . . . . . W @ @ @ @ @ @ @ @ ^ . 6 @ F . . . . . . . . . . . . . . . . . . . . . . . . ",
". . . . . . . . . . . . . . . . . . . . % _ @ @ @ @ [.7 . . }.@ |.. . . . . . . . . W @ @ @ @ @ @ @ @ ^ . 6 @ F . . . . . . . . . . . . . . . . . . . . . . . . ",
". . . . . . . . . . . . . . . . . . . . {.@ @ @ @ t S . . /.@ j . . . . . . . . . . W @ @ @ @ @ @ @ @ ^ . 6 @ F . . . . . . . . . . . . . . . . . . . . . . . . ",
". . . . . . . . . . . . . . . . . . . 1.@ @ @ @ @ 9 . . % 5 2.- . . . . . . . . . . W @ @ @ @ @ @ @ @ ^ . 6 @ F . . . . . . . . . . . . . . . . . . . . . . . . ",
". . . . . . . . . . . . . . . . . . 7 3.@ @ @ @ _.. . 6 x 4.,.. . . . . . . . . . . W @ @ @ @ @ @ @ @ ^ . 6 @ F . . . . . . . . . . . . . . . . . . . . . . . . ",
". . . . . . . . . . . . . . . . . . 5.@ @ @ @ d - . . ..A L . . . . . . . . . . . . W @ @ @ @ @ @ @ @ ^ . 6 @ F . . . . . . . . . . . . . . . . . . . . . . . . ",
". . . . . . . . . . . . . . . . . 6.#.@ @ @ 7.: . . 8.h K . . . . . . . . . . . . . W @ @ @ @ @ @ @ @ ^ . 6 @ F . . . . . . . . . . . . . . . . . . . . . . . . ",
". . . . . . . . . . . . . . . . 7 9.@ @ @ 5 0.. . # M a.. . . . . . . . . . . . . . W @ @ @ @ @ @ @ @ ^ . 6 @ F . . . . . . . . . . . . . . . . . . . . . . . . ",
". . . . . . . . . . . . . . . . y @ @ @ @ F . . b.! c.. . . . . . . . . . . . . . . W @ @ @ @ @ @ @ @ ^ . 6 @ F . . . . . . . . . . . . . . . . . . . . . . . . ",
". . . . . . . . . . . . . . . d.@ @ @ @ @ n . g = y . . . . . . . . . . . . . . . . W @ @ @ @ @ @ @ @ ^ . 6 @ F . . . . . . . . . . . . . . . . . . . . . . . . ",
". . . . . . . . . . . . . . 0.e.@ @ @ @ @ @ @ @ @ @ @ @ @ @ @ @ @ @ @ @ @ @ @ @ @ @ @ @ @ @ @ @ @ @ @ @ @ @ @ b 5 w + f.% . . . . . . . . . . . . . . . . . . . ",
". . . . . . . . . . . . . 1 3.@ @ @ @ @ @ @ @ @ @ @ @ @ @ @ @ @ @ @ @ @ @ @ @ @ @ @ @ @ @ @ @ @ @ @ @ @ @ @ @ @ @ @ @ @ h *.6 - . . . . . . . . . . . . . . . . ",
". . . . . . . . . . . . . /.@ @ @ @ @ @ @ @ @ @ @ @ @ @ @ @ @ @ @ @ @ @ @ @ @ @ @ @ @ @ @ @ @ @ @ @ @ @ @ @ @ @ @ @ @ @ @ @ g.7 './.. . . . . . . . . . . . . . ",
". . . . . . . . . . . . . /.@ @ @ @ @ @ @ @ @ @ @ @ @ @ @ @ @ @ @ @ @ @ @ @ @ @ @ @ @ @ @ @ @ @ @ @ @ @ @ @ @ @ @ @ @ @ @ @ @ 2 n h.N . . . . . . . . . . . . . ",
". . . . . . . . . . . . . . . . . . . . . . . . . . . . . . . . . . . . . . . . . . W @ @ @ @ @ @ @ @ ^ . . . . ~ 1.; @ @ @ @ i.. u l u . . . . . . . . . . . . ",
". . . . . . . . . . . . . . . . . . . . . . . . . . . . . . . . . . . . . . . . . . W @ @ @ @ @ @ @ @ ^ . . . . . . 2.@ @ @ @ 8 . . c.2 . . . . . . . . . . . . ",
". . . . . . . . . . . . . . . . . . . . . . . . . . . . . . . . . . . . . . . . . . W @ @ @ @ @ @ @ @ ^ . . . . . | @ @ @ @ @ j.. . ] k.. . . . . . . . . . . . ",
". . . . . . . . . . . . . . ) !.@ @ @ @ @ @ @ @ @ @ @ @ @ @ @ @ @ @ @ @ @ @ @ @ @ @ @ @ @ @ @ @ @ @ @ ^ . 6 @ F . v @ @ @ @ @ l.. . ^.a . . . . . . . . . . . . ",
". . . . . . . . . . . . . . . . . . . . . . . . . . . . . . . . . . . . . . . . . . W @ @ @ @ @ @ @ @ ^ . 6 @ F . i M @ @ @ @ [ . . -.2 . . . . . . . . . . . . ",
". . . . . . . . . . . . . . . . . . . . . . . . . . . . . . . . . . . . . . . . . . W @ @ @ @ @ @ @ @ ^ . 6 @ F . . v m.! , C . . 1.t ,.. . . . . . . . . . . . ",
". . . . . . . . . . . . . . . . . . . . . . . . . . . . . . . . . . . . . . . . . . W @ @ @ @ @ @ @ @ ^ . 6 @ F . . . 9 ` D 6 ( n.o.C . . . . . . . . . . . . . ",
". . . . . . . . . . . . . . . . . . . . . . . . . . . . . . . . . . . . . . . . . . W @ @ @ @ @ @ @ @ ^ . 6 @ F . . . . e 3 8 { p.e . . . . . . . . . . . . . . ",
". . . . . . . . . . . . . . . . . . . . . . . . . . . . . . . . . . . . . . . . . . W @ @ @ @ @ @ @ @ ^ . 6 @ F . . . . . . . . . . . . . . . . . . . . . . . . ",
". . . . . . . . . . . . . . . . . . . . . . . . . . . . . . . . . . . . . . . . . . W @ @ @ @ @ @ @ @ ^ . 6 @ F . . . . . . . . . . . . . . . . . . . . . . . . ",
". . . . . . . . . . . . . . . . . . . . . . . . . . . . . . . . . . . . . . . . . . W @ @ @ @ @ @ @ @ ^ . 6 @ F . . . . . . . . . . . . . . . . . . . . . . . . ",
". . . . . . . . . . . . . . . . . . . . . . . . . . . . . . . . . . . . . . . . . : g.@ @ @ @ @ @ @ @ X L n 8 q.. . . . . . . . . . . . . . . . . . . . . . . . ",
". . . . . . . . . . . . . . . . . . . . . . . . . . . . . . . . . . . . . . . . D r.@ @ @ @ @ @ @ @ @ @ Y e s._ 8.. . . . . . . . . . . . . . . . . . . . . . . ",
". . . . . . . . . . . . . . . . . . . . . . . . . . . . . . . . . . . . . . . s A @ @ @ @ @ @ @ @ @ @ @ @ h p s @ C . . . . . . . . . . . . . . . . . . . . . . ",
". . . . . . . . . . . . . . . . . . . . . . . . . . . . . . . . . . . . . 7 t.@ @ @ @ @ @ @ @ @ @ @ @ @ @ @ @ u.U #.1.. . . . . . . . . . . . . . . . . . . . . ",
". . . . . . . . . . . . . . . . . . . . . . . . . . . . . . . . . . . . g v.@ @ @ @ @ @ @ @ @ @ @ @ @ @ @ @ @ @ Q Q e.D . . . . . . . . . . . . . . . . . . . . ",
". . . . . . . . . . . . . . . . . . . . . . . . . . . . . . . . . . . . . . . . . . . . . . . . . . . . . . . . . 6 * ;.( . . . . . . . . . . . . . . . . . . . ",
". . . . . . . . . . . . . . . . . . . . . . . . . . . . . . . . . . . . . . . . . . . . . . . . . . . . . . . . . . G , 9.1 . . . . . . . . . . . . . . . . . . ",
". . . . . . . . . . . . . . . . . . . . . . . . . . . . . . . . . . . . . . . . . . . . . . . . . . . . . . . . . . . c e.w.n . . . . . . . . . . . . . . . . . ",
". . . . . . . . . . . . . . . . . . . . . . . . . . . . . . . . . . . . . D X @ @ @ @ @ @ @ @ @ @ @ @ @ @ @ @ @ @ @ @ @ @ @ x.. . . . . . . . . . . . . . . . . ",
". . . . . . . . . . . . . . . . . . . . . . . . . . . . . . . . . . . . . . . . . . . . . . . . . . . . . . . . . . . . . . . . . . . . . . . . . . . . . . . . ",
". . . . . . . . . . . . . . . . . . . . . . . . . . . . . . . . . . . . . . . . . . . . . . . . . . . . . . . . . . . . . . . . . . . . . . . . . . . . . . . . ",
". . . . . . . . . . . . . . . . . . . . . . . . . . . . . . . . . . . . . . . . . . . . . . . . . . . . . . . . . . . . . . . . . . . . . . . . . . . . . . . . ",
". . . . . . . . . . . . . . . . . . . . . . . . . . . . . . . . . . . . . . . . . . . . . . . . . . . . . . . . . . . . . . . . . . . . . . . . . . . . . . . . ",
". . . . . . . . . . . . . . . . . . . . . . . . . . . . . . . . . . . . . . . . . . . . . . . . . . . . . . . . . . . . . . . . . . . . . . . . . . . . . . . . ",
". . . . . . . . . . . . . . . . . . . . . . . . . . . . . . . . . . . . . . . . . . . . . . . . . . . . . . . . . . . . . . . . . . . . . . . . . . . . . . . . ",
". . . . . . . . . . . . . . . . . . . . . . . . . . . . . . . . . . . . . . . . . . . . . . . . . . . . . . . . . . . . . . . . . . . . . . . . . . . . . . . . ",
". . . . . . . . . . . . . . . . . . . . . . . . . . . . . . . . . . . . . . . . . . . . . . . . . . . . . . . . . . . . . . . . . . . . . . . . . . . . . . . . "};
