/* XPM */
static xpm_row_t const number7_xpm[] = {
"80 80 150 2",
"  	c None",
". 	c #FF0000",
"+ 	c #E90000",
"@ 	c #000000",
"# 	c #E40000",
"$ 	c #F60000",
"% 	c #530000",
"& 	c #F40000",
"* 	c #FA0000",
"= 	c #920000",
"- 	c #DB0000",
"; 	c #510000",
"> 	c #BB0000",
", 	c #BE0000",
"' 	c #820000",
") 	c #E10000",
"! 	c #980000",
"~ 	c #AB0000",
"{ 	c #350000",
"] 	c #FC0000",
"^ 	c #600000",
"/ 	c #CB0000",
"( 	c #D10000",
"_ 	c #C00000",
": 	c #950000",
"< 	c #EB0000",
"[ 	c #910000",
"} 	c #CE0000",
"| 	c #CD0000",
"1 	c #4F0000",
"2 	c #D20000",
"3 	c #260000",
"4 	c #960000",
"5 	c #9D0000",
"6 	c #E60000",
"7 	c #D60000",
"8 	c #770000",
"9 	c #3B0000",
"0 	c #760000",
"a 	c #CA0000",
"b 	c #3D0000",
"c 	c #DC0000",
"d 	c #220000",
"e 	c #F70000",
"f 	c #E00000",
"g 	c #E50000",
"h 	c #700000",
"i 	c #BA0000",
"j 	c #550000",
"k 	c #A30000",
"l 	c #940000",
"m 	c #DA0000",
"n 	c #F20000",
"o 	c #680000",
"p 	c #420000",
"q 	c #B80000",
"r 	c #320000",
"s 	c #D40000",
"t 	c #C30000",
"u 	c #400000",
"v 	c #FE0000",
"w 	c #560000",
"x 	c #AF0000",
"y 	c #C60000",
"z 	c #4B0000",
"A 	c #FB0000",
"B 	c #D00000",
"C 	c #F50000",
"D 	c #8B0000",
"E 	c #380000",
"F 	c #DD0000",
"G 	c #A20000",
"H 	c #710000",
"I 	c #B40000",
"J 	c #F30000",
"K 	c #F00000",
"L 	c #850000",
"M 	c #EA0000",
"N 	c #E20000",
"O 	c #160000",
"P 	c #EF0000",
"Q 	c #F80000",
"R 	c #C40000",
"S 	c #9B0000",
"T 	c #8A0000",
"U 	c #A70000",
"V 	c #9F0000",
"W 	c #E80000",
"X 	c #2A0000",
"Y 	c #0D0000",
"Z 	c #E70000",
"` 	c #F90000",
" .	c #B50000",
"..	c #630000",
"+.	c #DF0000",
"@.	c #6C0000",
"#.	c #9A0000",
"$.	c #900000",
"%.	c #A50000",
"&.	c #EC0000",
"*.	c #690000",
"=.	c #860000",
"-.	c #A40000",
";.	c #8C0000",
">.	c #9C0000",
",.	c #870000",
"'.	c #890000",
").	c #450000",
"!.	c #F10000",
"~.	c #EE0000",
"{.	c #FD0000",
"].	c #810000",
"^.	c #750000",
"/.	c #470000",
"(.	c #5A0000",
"_.	c #C20000",
":.	c #5D0000",
"<.	c #4D0000",
"[.	c #BD0000",
"}.	c #620000",
"|.	c #9E0000",
"1.	c #580000",
"2.	c #AA0000",
"3.	c #7E0000",
"4.	c #C50000",
"5.	c #ED0000",
"6.	c #A80000",
"7.	c #6E0000",
"8.	c #D50000",
"9.	c #B20000",
"0.	c #C70000",
"a.	c #650000",
"b.	c #840000",
"c.	c #800000",
"d.	c #B10000",
"e.	c #880000",
"f.	c #AD0000",
"g.	c #2E0000",
"h.	c #E30000",
"i.	c #B00000",
"j.	c #780000",
"k.	c #8D0000",
"l.	c #7D0000",
"m.	c #A10000",
"n.	c #C90000",
"o.	c #5F0000",
"p.	c #660000",
"q.	c #490000",
"r.	c #8F0000",
"s.	c #AC0000",
". . . . . . . . . . . . . . . . . . . . . . . . . . . . . . . . . . . . . . . . . . . . . . . . . . . . . . . . . . . . . . . . . . . . . . . . . . . . . . . . ",
". . . . . . . . . . . . . . . . . . . . . . . . . . . . . . . . . . . . . . . . . . . . . . . . . . . . . . . . . . . . . . . . . . . . . . . . . . . . . . . . ",
". . . . . . . . . . . . . . . . . . . . . . . . . . . . . . . . . . . . . . . . . . . . . . . . . . . . . . . . . . . . . . . . . . . . . . . . . . . . . . . . ",
". . . . . . . . . . . . . . . . . . . . . . . . . . . . . . . . . . . . . . . . . . . . . . . . . . . . . . . . . . . . . . . . . . . . . . . . . . . . . . . . ",
". . . . . . . . . . . . . . . . . . . . . . . . . . . . . . . . . . . . . . . . . . . . . . . . . . . . . . . . . . . . . . . . . . . . . . . . . . . . . . . . ",
". . . . . . . . . . . . . . . . . . . . . . . . . . . . . . . . . . . . . . . . . . . . . . . . . . . . . . . . . . . . . . . . . . . . . . . . . . . . . . . . ",
". . . . . . . . . . . . . . . . . . . . . . . . . . . . . . . . . . . . . . . . . . . . . . . . . . . . . . . . . . . . . . . . . . . . . . . . . . . . . . . . ",
". . . . . . . . . . . . . . . . . . . . . . . . . . . . . . . . . . . . . . . . . . . . . . . . . . . . . . . . . . . . . . . . . . . . . . . . . . . . . . . . ",
". . . . . . . . . . . . . . . . . . . . . . . . . . . . . . . . . . . . . . . . . . . . . . . . . . . . . . . . . . . . . . . . . . . . . . . . . . . . . . . . ",
". . . . . . . . . . . . . . . . . . . . . . . + @ @ @ @ @ @ @ @ @ @ @ @ @ @ @ @ @ @ @ @ @ @ @ @ @ @ @ @ @ @ @ @ @ @ @ @ @ @ @ @ # . . . . . . . . . . . . . . . ",
". . . . . . . . . . . . . . . . . . . . . . . + @ @ @ @ @ @ @ @ @ @ @ @ @ @ @ @ @ @ @ @ @ @ @ @ @ @ @ @ @ @ @ @ @ @ @ @ @ @ @ @ $ . . . . . . . . . . . . . . . ",
". . . . . . . . . . . . . . . . . . . . . . . + @ @ @ @ @ @ @ @ @ @ @ @ @ @ @ @ @ @ @ @ @ @ @ @ @ @ @ @ @ @ @ @ @ @ @ @ @ @ @ % . . & @ * . . . . . . . . . . . ",
". . . . . . . . . . . . . . . . . . . . . . . + @ @ @ @ @ @ @ @ @ @ @ @ @ @ @ @ @ @ @ @ @ @ @ @ @ @ @ @ @ @ @ @ @ @ @ @ @ @ @ = . . - ; . . . . . . . . . . . . ",
". . . . . . . . . . . . . . . . . . . . . . . + @ @ @ @ @ @ @ @ @ @ @ @ @ @ @ @ @ @ @ @ @ @ @ @ @ @ @ @ @ @ @ @ @ @ @ @ @ @ @ > . . , ' . . . . . . . . . . . . ",
". . . . . . . . . . . . . . . . . . . . . . . + @ @ @ @ @ @ @ @ @ @ @ @ @ @ @ @ @ @ @ @ @ @ @ @ @ @ @ @ @ @ @ @ @ @ @ @ @ @ @ ) . . ! ~ . . . . . . . . . . . . ",
". . . . . . . . . . . . . . . . . . . . . . . + @ @ @ @ @ @ @ @ @ @ @ @ @ @ @ @ @ @ @ @ @ @ @ @ @ @ @ @ @ @ @ @ @ @ @ @ @ @ { ] . . ^ / . . . . . . . . . . . . ",
". . . . . . . . . . . . . . . . . . . . . . . + @ @ ( . . . . . . . . . . . . . . . . . . . . . . . . . . . . . . . _ @ @ @ : . . & @ < . . . . . . . . . . . . ",
". . . . . . . . . . . . . . . . . . . . . . . + @ @ ( . . . . . . . . . . . . . . . . . . . . . . . . . . . . . . . [ @ @ @ } . . | 1 . . . . . . . . . . . . . ",
". . . . . . . . . . . . . . . . . . . . . . . + @ @ 2 . . . . . . . . . . . . . . . . . . . . . . . . . . . . . . $ 3 @ @ 3 $ . . 4 5 . . . . . . . . . . . . . ",
". . . . . . . . . . . . . . . . . . . . . . . 6 @ @ 7 . . 8 @ @ @ @ @ @ @ @ @ @ @ @ @ @ @ @ @ @ @ @ @ @ @ @ @ @ @ @ @ @ @ : . . ] 9 ( . . . . . . . . . . . . . ",
". . . . . . . . . . . . . . . . . . . . . . . # @ @ - . . 0 a . . . . . . . . . . . . . . . . . . . . . . . . . $ b @ @ @ 7 . . c d e . . . . . . . . . . . . . ",
". . . . . . . . . . . . . . . . . . . . . . . f @ @ g . . h a . . . . . . . . . . . . . . . . . . . . . . . . . i @ @ @ j ] . . k l . . . . . . . . . . . . . . ",
". . . . . . . . . . . . . . . . . . . . . . . m @ @ n . . o | . . . . . . . . . . . . . . . . . . . . . . . . $ p @ @ @ q . . e r s . . . . . . . . . . . . . . ",
". . . . . . . . . . . . . . . . . . . . . . . t @ u v . . w s . . . . . . . . . . . . . . . . . . . . . . . . x @ @ @ d n . . y z A . . . . . . . . . . . . . . ",
". . . . . . . . . . . . . . . . . . B j % , C 8 @ D . . . E F . . . . . . . . . . . . . . . . . . . . . . . < d @ @ @ G . . . H I . . . . . . . . . . . . . . . ",
". . . . . . . . . . . . . . . . . . p @ @ @ @ @ @ y . . J @ K . . . . . . . . . . . . . . . . . . . . . . v L @ @ @ @ M . . N O P . . . . . . . . . . . . . . . ",
". . . . . . . . . . . . . . . . . Q @ @ @ @ @ @ p $ . . m p v . . . . . . . . . . . . . . . . . . . . . . R @ @ @ @ 4 . . . [ S . . . . . . . . . . . . . . . . ",
". . . . . . . . . . . . . . . . . . T @ @ @ @ @ | . . . U V . . . . . . . . . . . . . . . . . . . . . . W X @ @ @ Y + . . g @ Z . . . . . . . . . . . . . . . . ",
". . . . . . . . . . . . . . . . . . `  ...{ 8 s . . . n r +.. . . . . . . . . . . . . . . . . . . . . * @.@ @ @ @ #.. . . $.= . . . . . . . . . . . . . . . . . ",
". . . . . . . . . . . . . . . . . . . . . . . . . . * ' 4 . . . . . . . . . . . . . . . . . . . . . . %.@ @ @ @ O &.. . # Y W . . . . . . . . . . . . . . . . . ",
". . . . . . . . . . . . . . . . . . . . . . . v J B *.=.` . . . . . . . . . . . . . . . . . . . . . s @ @ @ @ @ -.. . . ;.>.. . . . . . . . . . . . . . . . . . ",
". . . . . . . . . . . . . . . . . . . J t ,.^ X 1 '.| v . . . . . . . . . . . . . . . . . . . . . K ).@ @ @ @ X !.. . c 3 ~.. . . . . . . . . . . . . . . . . . ",
". . . . . . . . . . . . . . . . . . . . . . . . . . . . . . . . . . . . . . . . . . . . . . . . {.].@ @ @ @ @ x . . v ^.x . . . . . . . . . . . . . . . . . . . ",
". . . . . . . . . . . . . . . . . . . . . . . . . . . . . . . . . . . . . . . . . . . . . . . . q @ @ @ @ @ b C . . | /.$ . . . . . . . . . . . . . . . . . . . ",
". . . . . . . . . . . . . . . . . . . . . . . . . . . . . . . . . . . . . . . . . . . . . . . f O @ @ @ @ @ i . . A (._.. . . . . . . . . . . . . . . . . . . . ",
". . . . . . . . . . . . . . . . . . . . . . . . . . . . . . . . . . . . . . . . . . . . . . e :.@ @ @ @ @ <.` . . [.}.] . . . . . . . . . . . . . . . . . . . . ",
". . . . . . . . . . . . . . . . . . . . . . . . . . . . . . . . . . . . . . . . . . . . . . |.@ @ @ @ @ @ t . . C b 2 . . . . . . . . . . . . . . . . . . . . . ",
". . . . . . . . . . . . . . . . . . . . . . . . . . . . . . . . . . . . . . . . . . . . . 2 @ @ @ @ @ @ 1.A . . 2.3.. . . . . . . . . . . . . . . . . . . . . . ",
". . . . . . . . . . . . . . . . . . . . . . . . . . . . . . . . . . . . . . . . . . . . J ).@ @ @ @ @ @ 4.. . 5.d N . . . . . . . . . . . . . . . . . . . . . . ",
". . . . . . . . . . . . . . . . . . . . . . . . . . . . . . . . . . . . . . . . . . . . l @ @ @ @ @ @ ; A . . >.: . . . . . . . . . . . . . . . . . . . . . . . ",
". . . . . . . . . . . . . . . . . . . . . . . . . . . . . . . . . . . . . . . . . . . 2 @ @ @ @ @ @ @ _ . . M O W . . . . . . . . . . . . . . . . . . . . . . . ",
". . . . . . . . . . . . . . . . . . . . . . . . . . . . . . . . . . . . . . . . . . $ 1 @ @ @ @ @ @ r e . . S ! . . . . . . . . . . . . . . . . . . . . . . . . ",
". . . . . . . . . . . . . . . . . . . . . . . . . . . . . . . . . . . . . . . . . . 6.@ @ @ @ @ @ @ k . . K O Z . . . . . . . . . . . . . . . . . . . . . . . . ",
". . . . . . . . . . . . . . . . . . . . . . . . . . . . . . . . . . . . . . . . . 6 Y @ @ @ @ @ @ @ # . .  .].. . . . . . . . . . . . . . . . . . . . . . . . . ",
". . . . . . . . . . . . . . . . . . . . . . . . . . . . . . . . . . . . . . . . . 3.@ @ @ @ @ @ @ 7.. . A <.( . . . . . . . . . . . . . . . . . . . . . . . . . ",
". . . . . . . . . . . . . . . . . . . . . . . . . . . . . . . . . . . . . . . . ( @ @ @ @ @ @ @ @ > . . 8./.] . . . . . . . . . . . . . . . . . . . . . . . . . ",
". . . . . . . . . . . . . . . . . . . . . . . . . . . . . . . . . . . . . . . ] ..@ @ @ @ @ @ @ @ < . . S %.. . . . . . . . . . . . . . . . . . . . . . . . . . ",
". . . . . . . . . . . . . . . . . . . . . . . . . . . . . . . . . . . . . . . 4.@ @ @ @ @ @ @ @ h . . * { c . . . . . . . . . . . . . . . . . . . . . . . . . . ",
". . . . . . . . . . . . . . . . . . . . . . . . . . . . . . . . . . . . . . A % @ @ @ @ @ @ @ @ 9.. . 8.p {.. . . . . . . . . . . . . . . . . . . . . . . . . . ",
". . . . . . . . . . . . . . . . . . . . . . . . . . . . . . . . . . . . . . 0.@ @ @ @ @ @ @ @ @ c . . 6.4 . . . . . . . . . . . . . . . . . . . . . . . . . . . ",
". . . . . . . . . . . . . . . . . . . . . . . . . . . . . . . . . . . . . ] :.@ @ @ @ @ @ @ @ 3 * . . a.0.. . . . . . . . . . . . . . . . . . . . . . . . . . . ",
". . . . . . . . . . . . . . . . . . . . . . . . . . . . . . . . . . . . . ( @ @ @ @ @ @ @ @ @ b.. . P @ &.. . . . . . . . . . . . . . . . . . . . . . . . . . . ",
". . . . . . . . . . . . . . . . . . . . . . . . . . . . . . . . . . . . . c.@ @ @ @ @ @ @ @ @ d.. . ( p . . . . . . . . . . . . . . . . . . . . . . . . . . . . ",
". . . . . . . . . . . . . . . . . . . . . . . . . . . . . . . . . . . . Z @ @ @ @ @ @ @ @ @ @ ( . . d.e.. . . . . . . . . . . . . . . . . . . . . . . . . . . . ",
". . . . . . . . . . . . . . . . . . . . . . . . . . . . . . . . . . . . f.@ @ @ @ @ @ @ @ @ @ &.. . =.9.. . . . . . . . . . . . . . . . . . . . . . . . . . . . ",
". . . . . . . . . . . . . . . . . . . . . . . . . . . . . . . . . . . {.; @ @ @ @ @ @ @ @ @ g.v . . u } . . . . . . . . . . . . . . . . . . . . . . . . . . . . ",
". . . . . . . . . . . . . . . . . . . . . . . . . . . . . . . . . . . c @ @ @ @ @ @ @ @ @ @ h . . & @ N . . . . . . . . . . . . . . . . . . . . . . . . . . . . ",
". . . . . . . . . . . . . . . . . . . . . . . . . . . . . . . . . . . f.@ @ @ @ @ @ @ @ @ @ l . . h.@ n . . . . . . . . . . . . . . . . . . . . . . . . . . . . ",
". . . . . . . . . . . . . . . . . . . . . . . . . . . . . . . . . . . a.@ @ @ @ @ @ @ @ @ @ i.. . B X . . . . . . . . . . . . . . . . . . . . . . . . . . . . . ",
". . . . . . . . . . . . . . . . . . . . . . . . . . . . . . . . . . ~.@ @ @ @ @ @ @ @ @ @ @ 4.. . [.:.. . . . . . . . . . . . . . . . . . . . . . . . . . . . . ",
". . . . . . . . . . . . . . . . . . . . . . . . . . . . . . . . . . } @ @ @ @ @ @ @ @ @ @ @ ( . . x j.. . . . . . . . . . . . . . . . . . . . . . . . . . . . . ",
". . . . . . . . . . . . . . . . . . . . . . . . . . . . . . . . . . U @ @ @ @ @ @ @ @ @ @ @ F . . V k.. . . . . . . . . . . . . . . . . . . . . . . . . . . . . ",
". . . . . . . . . . . . . . . . . . . . . . . . . . . . . . . . . . 7.@ @ @ @ @ @ @ @ @ @ @ Z . . k.>.. . . . . . . . . . . . . . . . . . . . . . . . . . . . . ",
". . . . . . . . . . . . . . . . . . . . . . . . . . . . . . . . . * Y @ @ @ @ @ @ @ @ @ @ @ P . . l.m.. . . . . . . . . . . . . . . . . . . . . . . . . . . . . ",
". . . . . . . . . . . . . . . . . . . . . . . . . . . . . . . . . h.@ @ @ @ @ @ @ @ @ @ @ @ J . . ^.U . . . . . . . . . . . . . . . . . . . . . . . . . . . . . ",
". . . . . . . . . . . . . . . . . . . . . . . . . . . . . . . . . n.@ @ @ @ @ @ @ @ @ @ @ @ $ . . @.~ . . . . . . . . . . . . . . . . . . . . . . . . . . . . . ",
". . . . . . . . . . . . . . . . . . . . . . . . . . . . . . . . . x @ @ @ @ @ @ @ @ @ @ @ @ ` . . ..f.. . . . . . . . . . . . . . . . . . . . . . . . . . . . . ",
". . . . . . . . . . . . . . . . . . . . . . . . . . . . . . . . . : @ @ @ @ @ @ @ @ @ @ @ @ A . . o.2.. . . . . . . . . . . . . . . . . . . . . . . . . . . . . ",
". . . . . . . . . . . . . . . . . . . . . . . . . . . . . . . . . 8 @ @ @ @ @ @ @ @ @ @ @ @ ` . . p.k . . . . . . . . . . . . . . . . . . . . . . . . . . . . . ",
". . . . . . . . . . . . . . . . . . . . . . . . . . . . . . . . . o.@ @ @ @ @ @ @ @ @ @ @ @ $ . . h S . . . . . . . . . . . . . . . . . . . . . . . . . . . . . ",
". . . . . . . . . . . . . . . . . . . . . . . . . . . . . . . . . q.@ @ @ @ @ @ @ @ @ @ @ @ n . . j.r.. . . . . . . . . . . . . . . . . . . . . . . . . . . . . ",
". . . . . . . . . . . . . . . . . . . . . . . . . . . . . . . . . . . . . . . . . . . . . . . . . '.3.. . . . . . . . . . . . . . . . . . . . . . . . . . . . . ",
". . . . . . . . . . . . . . . . . . . . . . . . . . . . . . . . . . . . . . . . . . . . . . . . . S o . . . . . . . . . . . . . . . . . . . . . . . . . . . . . ",
". . . . . . . . . . . . . . . . . . . . . . . . . . . . . . . . . . . . . . . . . . . . . . . . . s.u . . . . . . . . . . . . . . . . . . . . . . . . . . . . . ",
". . . . . . . . . . . . . . . . . . . . . . . . . . . . . . . . . . . #.@ @ @ @ @ @ @ @ @ @ @ @ @ @ @ * . . . . . . . . . . . . . . . . . . . . . . . . . . . . ",
". . . . . . . . . . . . . . . . . . . . . . . . . . . . . . . . . . . . . . . . . . . . . . . . . . . . . . . . . . . . . . . . . . . . . . . . . . . . . . . . ",
". . . . . . . . . . . . . . . . . . . . . . . . . . . . . . . . . . . . . . . . . . . . . . . . . . . . . . . . . . . . . . . . . . . . . . . . . . . . . . . . ",
". . . . . . . . . . . . . . . . . . . . . . . . . . . . . . . . . . . . . . . . . . . . . . . . . . . . . . . . . . . . . . . . . . . . . . . . . . . . . . . . ",
". . . . . . . . . . . . . . . . . . . . . . . . . . . . . . . . . . . . . . . . . . . . . . . . . . . . . . . . . . . . . . . . . . . . . . . . . . . . . . . . ",
". . . . . . . . . . . . . . . . . . . . . . . . . . . . . . . . . . . . . . . . . . . . . . . . . . . . . . . . . . . . . . . . . . . . . . . . . . . . . . . . "};
