/* XPM */
static xpm_row_t const number1_xpm[] = {
"80 80 93 2",
"  	c None",
". 	c #FF0000",
"+ 	c #BB0000",
"@ 	c #000000",
"# 	c #B30000",
"$ 	c #FE0000",
"% 	c #FA0000",
"& 	c #4B0000",
"* 	c #FD0000",
"= 	c #6C0000",
"- 	c #EB0000",
"; 	c #B40000",
"> 	c #D80000",
", 	c #E60000",
"' 	c #1C0000",
") 	c #F40000",
"! 	c #5C0000",
"~ 	c #8E0000",
"{ 	c #380000",
"] 	c #7A0000",
"^ 	c #730000",
"/ 	c #AB0000",
"( 	c #C40000",
"_ 	c #E90000",
": 	c #650000",
"< 	c #820000",
"[ 	c #C20000",
"} 	c #FB0000",
"| 	c #C00000",
"1 	c #2E0000",
"2 	c #940000",
"3 	c #AF0000",
"4 	c #FC0000",
"5 	c #F60000",
"6 	c #E40000",
"7 	c #B90000",
"8 	c #560000",
"9 	c #D70000",
"0 	c #420000",
"a 	c #9B0000",
"b 	c #BD0000",
"c 	c #160000",
"d 	c #9E0000",
"e 	c #F10000",
"f 	c #D40000",
"g 	c #E70000",
"h 	c #A40000",
"i 	c #630000",
"j 	c #2A0000",
"k 	c #3B0000",
"l 	c #620000",
"m 	c #910000",
"n 	c #F00000",
"o 	c #AA0000",
"p 	c #F30000",
"q 	c #9F0000",
"r 	c #E80000",
"s 	c #7E0000",
"t 	c #D60000",
"u 	c #A60000",
"v 	c #3D0000",
"w 	c #D50000",
"x 	c #690000",
"y 	c #870000",
"z 	c #B60000",
"A 	c #E10000",
"B 	c #D30000",
"C 	c #EA0000",
"D 	c #DD0000",
"E 	c #490000",
"F 	c #A70000",
"G 	c #220000",
"H 	c #CA0000",
"I 	c #E00000",
"J 	c #260000",
"K 	c #0D0000",
"L 	c #B20000",
"M 	c #CD0000",
"N 	c #CE0000",
"O 	c #960000",
"P 	c #B00000",
"Q 	c #DB0000",
"R 	c #770000",
"S 	c #780000",
"T 	c #840000",
"U 	c #810000",
"V 	c #530000",
"W 	c #EF0000",
"X 	c #F50000",
"Y 	c #680000",
"Z 	c #EC0000",
"` 	c #470000",
" .	c #930000",
". . . . . . . . . . . . . . . . . . . . . . . . . . . . . . . . . . . . . . . . . . . . . . . . . . . . . . . . . . . . . . . . . . . . . . . . . . . . . . . . ",
". . . . . . . . . . . . . . . . . . . . . . . . . . . . . . . . . . . . . . . . . . . . . . . . . . . . . . . . . . . . . . . . . . . . . . . . . . . . . . . . ",
". . . . . . . . . . . . . . . . . . . . . . . . . . . . . . . . . . . . . . . . . . . . . . . . . . . . . . . . . . . . . . . . . . . . . . . . . . . . . . . . ",
". . . . . . . . . . . . . . . . . . . . . . . . . . . . . . . . . . . . . . . . . . . . . . . . . . . . . . . . . . . . . . . . . . . . . . . . . . . . . . . . ",
". . . . . . . . . . . . . . . . . . . . . . . . . . . . . . . . . . . . . . . . . . . . . . . . . . . . . . . . . . . . . . . . . . . . . . . . . . . . . . . . ",
". . . . . . . . . . . . . . . . . . . . . . . . . . . . . . . . . . . . . . . . . . . . . . . . . . . . . . . . . . . . . . . . . . . . . . . . . . . . . . . . ",
". . . . . . . . . . . . . . . . . . . . . . . . . . . . . . . . . . . . . . + @ @ @ @ @ # . . $ . . . . . . . . . . . . . . . . . . . . . . . . . . . . . . . . ",
". . . . . . . . . . . . . . . . . . . . . . . . . . . . . . . . . . . . . % & @ @ @ @ @ # . * = - . . . . . . . . . . . . . . . . . . . . . . . . . . . . . . . ",
". . . . . . . . . . . . . . . . . . . . . . . . . . . . . . . . . . . . . ; @ @ @ @ @ @ # . * @ > . . . . . . . . . . . . . . . . . . . . . . . . . . . . . . . ",
". . . . . . . . . . . . . . . . . . . . . . . . . . . . . . . . . . . . , ' @ @ @ @ @ @ # . * @ > . . . . . . . . . . . . . . . . . . . . . . . . . . . . . . . ",
". . . . . . . . . . . . . . . . . . . . . . . . . . . . . . . . . . . ) ! @ @ @ @ @ @ @ # . * @ > . . . . . . . . . . . . . . . . . . . . . . . . . . . . . . . ",
". . . . . . . . . . . . . . . . . . . . . . ) ~ { ] ) . . . . . . . ) ^ @ @ @ @ @ @ @ @ # . * @ > . . . . . . . . . . . . . . . . . . . . . . . . . . . . . . . ",
". . . . . . . . . . . . . . . . . . . . . . / @ @ @ ( . . . . . . _ : @ @ @ @ @ @ @ @ @ # . * @ > . . . . . . . . . . . . . . . . . . . . . . . . . . . . . . . ",
". . . . . . . . . . . . . . . . . . . . . . < @ @ @ [ . . . . } | 1 @ @ @ @ @ @ @ @ @ @ # . * @ > . . . . . . . . . . . . . . . . . . . . . . . . . . . . . . . ",
". . . . . . . . . . . . . . . . . . . . . . 2 @ @ @ 3 4 5 6 7 8 @ @ @ @ @ @ @ @ @ @ @ @ # . * @ > . . . . . . . . . . . . . . . . . . . . . . . . . . . . . . . ",
". . . . . . . . . . . . . . . . . . . . . . 9 @ @ @ @ @ @ @ @ @ @ @ 0 a @ @ @ @ @ @ @ @ # . * @ > . . . . . . . . . . . . . . . . . . . . . . . . . . . . . . . ",
". . . . . . . . . . . . . . . . . . . . . . . b c @ @ @ @ @ @ @ ' d e f @ @ @ @ @ @ @ @ # . * @ > . . . . . . . . . . . . . . . . . . . . . . . . . . . . . . . ",
". . . . . . . . . . . . . . . . . . . . . . . g g h i j k l m [ n . . f @ @ @ @ @ @ @ @ # . * @ > . . . . . . . . . . . . . . . . . . . . . . . . . . . . . . . ",
". . . . . . . . . . . . . . . . . . . . . . . , o p . . . . . . . . 5 q @ @ @ @ @ @ @ @ # . * @ > . . . . . . . . . . . . . . . . . . . . . . . . . . . . . . . ",
". . . . . . . . . . . . . . . . . . . . . . . . r s h t e 4 } n 9 u v { @ @ @ @ @ @ @ @ # . * @ > . . . . . . . . . . . . . . . . . . . . . . . . . . . . . . . ",
". . . . . . . . . . . . . . . . . . . . . . . . . * w a x k j 8 y z A B @ @ @ @ @ @ @ @ # . * @ > . . . . . . . . . . . . . . . . . . . . . . . . . . . . . . . ",
". . . . . . . . . . . . . . . . . . . . . . . . . . . . . . . . . . . f @ @ @ @ @ @ @ @ # . * @ > . . . . . . . . . . . . . . . . . . . . . . . . . . . . . . . ",
". . . . . . . . . . . . . . . . . . . . . . . . . . . . . . . . . . . f @ @ @ @ @ @ @ @ # . * @ > . . . . . . . . . . . . . . . . . . . . . . . . . . . . . . . ",
". . . . . . . . . . . . . . . . . . . . . . . . . . . . . . . . . . . f @ @ @ @ @ @ @ @ # . * @ > . . . . . . . . . . . . . . . . . . . . . . . . . . . . . . . ",
". . . . . . . . . . . . . . . . . . . . . . . . . . . . . . . . . . . f @ @ @ @ @ @ @ @ # . * @ > . . . . . . . . . . . . . . . . . . . . . . . . . . . . . . . ",
". . . . . . . . . . . . . . . . . . . . . . . . . . . . . . . . . . . f @ @ @ @ @ @ @ @ # . * @ > . . . . . . . . . . . . . . . . . . . . . . . . . . . . . . . ",
". . . . . . . . . . . . . . . . . . . . . . . . . . . . . . . . . . . f @ @ @ @ @ @ @ @ # . * @ > . . . . . . . . . . . . . . . . . . . . . . . . . . . . . . . ",
". . . . . . . . . . . . . . . . . . . . . . . . . . . . . . . . . . . f @ @ @ @ @ @ @ @ # . * @ > . . . . . . . . . . . . . . . . . . . . . . . . . . . . . . . ",
". . . . . . . . . . . . . . . . . . . . . . . . . . . . . . . . . . . f @ @ @ @ @ @ @ @ # . * @ > . . . . . . . . . . . . . . . . . . . . . . . . . . . . . . . ",
". . . . . . . . . . . . . . . . . . . . . . . . . . . . . . . . . . . f @ @ @ @ @ @ @ @ # . * @ > . . . . . . . . . . . . . . . . . . . . . . . . . . . . . . . ",
". . . . . . . . . . . . . . . . . . . . . . . . . . . . . . . . . . . f @ @ @ @ @ @ @ @ # . * @ > . . . . . . . . . . . . . . . . . . . . . . . . . . . . . . . ",
". . . . . . . . . . . . . . . . . . . . . . . . . . . . . . . . . . . f @ @ @ @ @ @ @ @ # . * @ > . . . . . . . . . . . . . . . . . . . . . . . . . . . . . . . ",
". . . . . . . . . . . . . . . . . . . . . . . . . . . . . . . . . . . f @ @ @ @ @ @ @ @ # . * @ > . . . . . . . . . . . . . . . . . . . . . . . . . . . . . . . ",
". . . . . . . . . . . . . . . . . . . . . . . . . . . . . . . . . . . f @ @ @ @ @ @ @ @ # . * @ > . . . . . . . . . . . . . . . . . . . . . . . . . . . . . . . ",
". . . . . . . . . . . . . . . . . . . . . . . . . . . . . . . . . . . f @ @ @ @ @ @ @ @ # . * @ > . . . . . . . . . . . . . . . . . . . . . . . . . . . . . . . ",
". . . . . . . . . . . . . . . . . . . . . . . . . . . . . . . . . . . f @ @ @ @ @ @ @ @ # . * @ > . . . . . . . . . . . . . . . . . . . . . . . . . . . . . . . ",
". . . . . . . . . . . . . . . . . . . . . . . . . . . . . . . . . . . f @ @ @ @ @ @ @ @ # . * @ > . . . . . . . . . . . . . . . . . . . . . . . . . . . . . . . ",
". . . . . . . . . . . . . . . . . . . . . . . . . . . . . . . . . . . f @ @ @ @ @ @ @ @ # . * @ > . . . . . . . . . . . . . . . . . . . . . . . . . . . . . . . ",
". . . . . . . . . . . . . . . . . . . . . . . . . . . . . . . . . . . f @ @ @ @ @ @ @ @ # . * @ > . . . . . . . . . . . . . . . . . . . . . . . . . . . . . . . ",
". . . . . . . . . . . . . . . . . . . . . . . . . . . . . . . . . . . f @ @ @ @ @ @ @ @ # . * @ > . . . . . . . . . . . . . . . . . . . . . . . . . . . . . . . ",
". . . . . . . . . . . . . . . . . . . . . . . . . . . . . . . . . . . f @ @ @ @ @ @ @ @ # . * @ > . . . . . . . . . . . . . . . . . . . . . . . . . . . . . . . ",
". . . . . . . . . . . . . . . . . . . . . . . . . . . . . . . . . . . f @ @ @ @ @ @ @ @ # . * @ > . . . . . . . . . . . . . . . . . . . . . . . . . . . . . . . ",
". . . . . . . . . . . . . . . . . . . . . . . . . . . . . . . . . . . f @ @ @ @ @ @ @ @ # . * @ > . . . . . . . . . . . . . . . . . . . . . . . . . . . . . . . ",
". . . . . . . . . . . . . . . . . . . . . . . . . . . . . . . . . . . f @ @ @ @ @ @ @ @ # . * @ > . . . . . . . . . . . . . . . . . . . . . . . . . . . . . . . ",
". . . . . . . . . . . . . . . . . . . . . . . . . . . . . . . . . . . f @ @ @ @ @ @ @ @ # . * @ > . . . . . . . . . . . . . . . . . . . . . . . . . . . . . . . ",
". . . . . . . . . . . . . . . . . . . . . . . . . . . . . . . . . . . f @ @ @ @ @ @ @ @ # . * @ > . . . . . . . . . . . . . . . . . . . . . . . . . . . . . . . ",
". . . . . . . . . . . . . . . . . . . . . . . . . . . . . . . . . . . f @ @ @ @ @ @ @ @ # . * @ > . . . . . . . . . . . . . . . . . . . . . . . . . . . . . . . ",
". . . . . . . . . . . . . . . . . . . . . . . . . . . . . . . . . . . f @ @ @ @ @ @ @ @ # . * @ > . . . . . . . . . . . . . . . . . . . . . . . . . . . . . . . ",
". . . . . . . . . . . . . . . . . . . . . . . . . . . . . . . . . . . f @ @ @ @ @ @ @ @ # . * @ > . . . . . . . . . . . . . . . . . . . . . . . . . . . . . . . ",
". . . . . . . . . . . . . . . . . . . . . . . . . . . . . . . . . . . f @ @ @ @ @ @ @ @ # . * @ > . . . . . . . . . . . . . . . . . . . . . . . . . . . . . . . ",
". . . . . . . . . . . . . . . . . . . . . . . . . . . . . . . . . . . f @ @ @ @ @ @ @ @ # . * @ > . . . . . . . . . . . . . . . . . . . . . . . . . . . . . . . ",
". . . . . . . . . . . . . . . . . . . . . . . . . . . . . . . . . . . f @ @ @ @ @ @ @ @ # . * @ > . . . . . . . . . . . . . . . . . . . . . . . . . . . . . . . ",
". . . . . . . . . . . . . . . . . . . . . . . . . . . . . . . . . . . f @ @ @ @ @ @ @ @ # . * @ > . . . . . . . . . . . . . . . . . . . . . . . . . . . . . . . ",
". . . . . . . . . . . . . . . . . . . . . . . . . . . . . . . . . . . f @ @ @ @ @ @ @ @ # . * @ > . . . . . . . . . . . . . . . . . . . . . . . . . . . . . . . ",
". . . . . . . . . . . . . . . . . . . . . . . . . . . . . . . . . . . f @ @ @ @ @ @ @ @ # . * @ > . . . . . . . . . . . . . . . . . . . . . . . . . . . . . . . ",
". . . . . . . . . . . . . . . . . . . . . . . . . . . . . . . . . . . f @ @ @ @ @ @ @ @ # . * @ > . . . . . . . . . . . . . . . . . . . . . . . . . . . . . . . ",
". . . . . . . . . . . . . . . . . . . . . . . . . . . . . . . . . . . f @ @ @ @ @ @ @ @ # . * @ > . . . . . . . . . . . . . . . . . . . . . . . . . . . . . . . ",
". . . . . . . . . . . . . . . . . . . . . . . . . . . . . . . . . . . f @ @ @ @ @ @ @ @ # . * @ > . . . . . . . . . . . . . . . . . . . . . . . . . . . . . . . ",
". . . . . . . . . . . . . . . . . . . . . . . . . . . . . . . . . . . f @ @ @ @ @ @ @ @ # . * @ > . . . . . . . . . . . . . . . . . . . . . . . . . . . . . . . ",
". . . . . . . . . . . . . . . . . . . . . . . . . . . . . . . . . . . f @ @ @ @ @ @ @ @ # . * @ > . . . . . . . . . . . . . . . . . . . . . . . . . . . . . . . ",
". . . . . . . . . . . . . . . . . . . . . . . . . . . . . . . . . . . f @ @ @ @ @ @ @ @ # . * @ > . . . . . . . . . . . . . . . . . . . . . . . . . . . . . . . ",
". . . . . . . . . . . . . . . . . . . . . . . . . . . . . . . . . . . f @ @ @ @ @ @ @ @ # . * @ > . . . . . . . . . . . . . . . . . . . . . . . . . . . . . . . ",
". . . . . . . . . . . . . . . . . . . . . . . . . . . . . . . . . . . f @ @ @ @ @ @ @ @ # . * @ > . . . . . . . . . . . . . . . . . . . . . . . . . . . . . . . ",
". . . . . . . . . . . . . . . . . . . . . . . . . . . . . . . . . . C i @ @ @ @ @ @ @ @ 0 D $ E F . . . . . . . . . . . . . . . . . . . . . . . . . . . . . . . ",
". . . . . . . . . . . . . . . . . . . . . . . . . . . . . . . . . 9 k @ @ @ @ @ @ @ @ @ @ G H I J b . . . . . . . . . . . . . . . . . . . . . . . . . . . . . . ",
". . . . . . . . . . . . . . . . . . . . . . . . . . . . . . . . b K @ @ @ @ @ @ @ @ @ @ @ @ @ L M @ N . . . . . . . . . . . . . . . . . . . . . . . . . . . . . ",
". . . . . . . . . . . . . . . . . . . . . . . . . . . . . . % a @ @ @ @ @ @ @ @ @ @ @ @ @ @ @ @ O P G Q . . . . . . . . . . . . . . . . . . . . . . . . . . . . ",
". . . . . . . . . . . . . . . . . . . . . . . . . . . . . e R @ @ @ @ @ @ @ @ @ @ @ @ @ @ @ @ @ @ S T k , . . . . . . . . . . . . . . . . . . . . . . . . . . . ",
". . . . . . . . . . . . . . . . . . . . . . . . . . . . . . . . . . . . . . . . . . . . . . . . . . } U V W . . . . . . . . . . . . . . . . . . . . . . . . . . ",
". . . . . . . . . . . . . . . . . . . . . . . . . . . . . . . . . . . . . . . . . . . . . . . . . . . X : Y 5 . . . . . . . . . . . . . . . . . . . . . . . . . ",
". . . . . . . . . . . . . . . . . . . . . . . . . . . . . . . . . . . . . . . . . . . . . . . . . . . . Z ` s % . . . . . . . . . . . . . . . . . . . . . . . . ",
". . . . . . . . . . . . . . . . . . . . . . . . . . . . . . N ' @ @ @ @ @ @ @ @ @ @ @ @ @ @ @ @ @ @ @ @ @ @ @  .* . . . . . . . . . . . . . . . . . . . . . . . ",
". . . . . . . . . . . . . . . . . . . . . . . . . . . . . . . . . . . . . . . . . . . . . . . . . . . . . . . . . . . . . . . . . . . . . . . . . . . . . . . . ",
". . . . . . . . . . . . . . . . . . . . . . . . . . . . . . . . . . . . . . . . . . . . . . . . . . . . . . . . . . . . . . . . . . . . . . . . . . . . . . . . ",
". . . . . . . . . . . . . . . . . . . . . . . . . . . . . . . . . . . . . . . . . . . . . . . . . . . . . . . . . . . . . . . . . . . . . . . . . . . . . . . . ",
". . . . . . . . . . . . . . . . . . . . . . . . . . . . . . . . . . . . . . . . . . . . . . . . . . . . . . . . . . . . . . . . . . . . . . . . . . . . . . . . ",
". . . . . . . . . . . . . . . . . . . . . . . . . . . . . . . . . . . . . . . . . . . . . . . . . . . . . . . . . . . . . . . . . . . . . . . . . . . . . . . . ",
". . . . . . . . . . . . . . . . . . . . . . . . . . . . . . . . . . . . . . . . . . . . . . . . . . . . . . . . . . . . . . . . . . . . . . . . . . . . . . . . ",
". . . . . . . . . . . . . . . . . . . . . . . . . . . . . . . . . . . . . . . . . . . . . . . . . . . . . . . . . . . . . . . . . . . . . . . . . . . . . . . . ",
". . . . . . . . . . . . . . . . . . . . . . . . . . . . . . . . . . . . . . . . . . . . . . . . . . . . . . . . . . . . . . . . . . . . . . . . . . . . . . . . "};
